<?xml version="1.0" encoding="iso-8859-1"?>
<!-- Generator: Adobe Illustrator 27.2.0, SVG Export Plug-In . SVG Version: 6.00 Build 0)  -->
<svg version="1.1" id="Capa_1" xmlns="http://www.w3.org/2000/svg" xmlns:xlink="http://www.w3.org/1999/xlink" x="0px" y="0px"
	 viewBox="0 0 509.976 509.976" style="enable-background:new 0 0 509.976 509.976;" xml:space="preserve">
<g>
	<g>
		<polygon style="fill:#FFCC43;" points="436.62,234.038 456.887,263.609 491.274,273.746 469.413,302.159 470.398,337.995 
			436.62,325.984 402.843,337.995 403.828,302.159 381.967,273.746 416.354,263.609 		"/>
		<rect x="381.867" y="418.509" style="fill:#6A64FB;" width="109.507" height="66.435"/>
		<path style="fill:#F06B5B;" d="M132.408,161.445c23.077,0.702,44.25-7.407,60.408-21.214c24.079,15.02,59.05,13.143,81.298-4.114
			l0,0c4.58-57.679-35.985-107.062-95.437-107.707c-2.586-0.13-69.385,0.32-69.752-0.309c-13.893-1.421-26.99-7.895-36.562-18.124
			c-31.98,31.667-34.765,83.641-6.136,118.508v-0.758v0.758l0,0C82.011,147.93,105.8,160.636,132.408,161.445z"/>
		<path style="fill:#F06B5B;" d="M132.408,161.445c23.077,0.702,44.25-7.407,60.408-21.214c24.079,15.02,59.05,13.143,81.298-4.114
			l0,0c4.58-57.679-35.985-107.062-95.437-107.707c-2.586-0.13-69.385,0.32-69.752-0.309c-13.893-1.421-26.99-7.895-36.562-18.124
			c-31.98,31.667-34.765,83.641-6.136,118.508v-0.758v0.758l0,0C82.011,147.93,105.8,160.636,132.408,161.445z"/>
		<path style="fill:#CF5246;" d="M90.71,23.131c-6.866-3.134-13.132-7.582-18.346-13.155c-31.98,31.667-34.765,83.641-6.136,118.508
			v-0.758v0.758c23.541,30.654,70.805,42.222,106.151,24.846C124.403,129.48,91.304,80.204,90.71,23.131z"/>
		<path style="fill:#FFBFBA;" d="M302.484,199.494c-6.775-8.711-17.324-14.293-28.371-14.906l0,0v-48.471
			c-22.248,17.258-57.221,19.133-81.298,4.114c-36.502,32.359-96.602,26.714-126.588-11.747v56.103
			c-49.064,4.591-48.46,74.319,0.725,78.027c16.883,121.692,189.599,121.601,206.435,0
			C305.169,261.216,321.98,224.387,302.484,199.494z"/>
		<path style="fill:#FF7EA3;" d="M274.114,136.117c-22.248,17.258-57.221,19.133-81.298,4.114
			c-36.502,32.359-96.602,26.714-126.588-11.747v52.909c38.284,25.034,90.96,26.699,130.872,4.229
			c24.548,7.499,53.493,6.01,77.013-3.811V136.117z"/>
		<path style="fill:#6A64FB;" d="M129.926,388.278H91.072c-40.024,0-72.47,32.446-72.47,72.47v39.229H321.74v-39.229
			c0-40.024-32.446-72.47-72.47-72.47C224.292,388.274,155.772,388.28,129.926,388.278z"/>
		<path style="fill:#FF7EA3;" d="M210.416,347.411c0,0,0,56.16,0,56.16c0,22.227-18.018,40.245-40.245,40.245
			c-22.227,0-40.245-18.018-40.245-40.245c0,0,0-56.161,0-56.161L210.416,347.411z"/>
	</g>
	<g>
		<path style="fill:#002678;" d="M249.27,378.277h-28.855v-25.486c31.521-15.495,55.015-45.168,61.732-81.245
			c50.222-11.316,51.542-81.991,1.966-95.45c0,0,0-39.704,0-39.704c0.005-0.19,0.005-0.381,0-0.571
			c5.292-62.31-42.079-117.581-105.437-117.411c0.001,0-63.745,0-63.745,0c-13.311,0-26.168-5.567-35.274-15.275
			C75.98-0.941,69.108-1.069,65.289,2.909c-34.377,32.989-38.391,91.987-9.061,128.992v44.195
			c-49.608,13.479-48.223,84.152,1.966,95.451c6.717,36.076,30.211,65.75,61.732,81.244v25.486H91.072
			c-45.474,0-82.47,36.996-82.47,82.47v39.229c0,5.523,4.477,10,10,10H321.74c5.523,0,10-4.477,10-10v-39.229
			C331.74,415.273,294.744,378.277,249.27,378.277z M73.136,24.136C85.027,33.3,99.771,38.41,114.931,38.41h63.746
			c49.915-0.212,88.834,42.992,85.436,92.428c-19.562,12.542-46.289,12.83-66.198,0.791c-3.681-2.181-8.341-1.78-11.595,1
			c-14.904,12.735-33.936,19.41-53.608,18.821C68.415,149.277,33.501,74.437,73.136,24.136z M76.887,261.461
			c-0.567-4.884-4.6-8.631-9.513-8.838c-15.604-0.657-27.826-13.413-27.826-29.041c0-15.343,11.985-28.087,27.284-29.013
			c5.279-0.32,9.396-4.694,9.396-9.982v-32.755c32.844,25.747,84.252,26.105,117.662,0.316
			c21.588,10.616,48.337,11.104,70.224,1.277v31.162c0,5.288,4.117,9.662,9.396,9.982c15.299,0.926,27.284,13.669,27.284,29.013
			c0,15.628-12.223,28.384-27.826,29.041c-4.913,0.206-8.946,3.954-9.513,8.838C248.33,371.388,92.016,371.399,76.887,261.461z
			 M170.171,364.445c10.446,0,20.592-1.414,30.245-4.066v43.192c0,16.677-13.568,30.245-30.245,30.245
			c-16.677,0-30.245-13.568-30.245-30.245v-43.192C149.579,363.031,159.725,364.445,170.171,364.445z M311.74,489.976H28.602
			v-29.229c0-34.446,28.024-62.47,62.47-62.47h28.855c-2.446,73.669,102.955,73.626,100.49,0h28.855
			c34.446,0,62.47,28.024,62.47,62.47V489.976z"/>
		<path style="fill:#002678;" d="M491.374,408.509H446.62v-68.356c2.327,0.617,21.78,8.329,23.777,7.842
			c5.446,0.121,10.271-4.805,9.997-10.275c0,0-0.888-32.282-0.888-32.282l19.693-25.594c2.011-2.614,2.604-6.052,1.586-9.189
			c-1.02-3.137-3.52-5.569-6.683-6.501l-30.977-9.131l-18.256-26.639c-1.864-2.72-4.95-4.347-8.249-4.347
			c-3.298,0-6.384,1.627-8.249,4.347l-18.256,26.639l-30.977,9.131c-3.164,0.933-5.664,3.365-6.683,6.501
			c-1.019,3.137-0.426,6.575,1.585,9.189l19.693,25.594l-0.888,32.282c-0.38,6.802,6.995,12.162,13.347,9.697
			c0,0,20.427-7.264,20.427-7.264v68.356h-44.754c-5.523,0-10,4.477-10,10v66.435c0,5.523,4.477,10,10,10h109.508
			c5.523,0,10-4.477,10-10v-66.435C501.374,412.986,496.897,408.509,491.374,408.509z M411.754,296.061l-12.963-16.848l20.391-6.011
			c2.206-0.65,4.121-2.042,5.421-3.939l12.018-17.536l12.018,17.536c1.3,1.897,3.215,3.288,5.421,3.939l20.392,6.011l-12.963,16.848
			c-1.403,1.823-2.134,4.074-2.071,6.373l0.584,21.251c-2.353-0.621-21.339-8.171-23.38-7.701
			c-1.967-0.491-21.132,7.115-23.38,7.701l0.584-21.251C413.888,300.134,413.157,297.883,411.754,296.061z M481.374,474.944h-89.508
			v-46.435h89.508V474.944z"/>
	</g>
</g>
<g>
</g>
<g>
</g>
<g>
</g>
<g>
</g>
<g>
</g>
<g>
</g>
<g>
</g>
<g>
</g>
<g>
</g>
<g>
</g>
<g>
</g>
<g>
</g>
<g>
</g>
<g>
</g>
<g>
</g>
</svg>
