<?xml version="1.0" encoding="iso-8859-1"?>
<!-- Generator: Adobe Illustrator 27.5.0, SVG Export Plug-In . SVG Version: 6.00 Build 0)  -->
<svg version="1.1" id="Layer_1" xmlns="http://www.w3.org/2000/svg" xmlns:xlink="http://www.w3.org/1999/xlink" x="0px" y="0px"
	 viewBox="0 0 510.01 510.01" style="enable-background:new 0 0 510.01 510.01;" xml:space="preserve">
<g>
	<g>
		<g>
			<g>
				<g>
					<g>
						<g>
							<g>
								<g>
									<g>
										<g>
											<g>
												<rect x="79.374" y="10.004" style="fill:#FFFFFF;" width="362" height="354.083"/>
												<rect x="79.374" y="10.004" style="fill:#FFFFFF;" width="362" height="354.083"/>
												<path style="fill:#D2DCFD;" d="M226.378,187.045c0-70.304,30.496-133.479,78.972-177.041H79.374v354.083H305.35
													C256.874,320.524,226.378,257.35,226.378,187.045z"/>
												<polygon style="fill:#67CCD1;" points="79.374,10.004 441.374,10.004 441.374,108.967 239.508,108.967 146.079,74.546 
													79.374,108.967 												"/>
												<path style="fill:#27A2CC;" d="M305.349,10.004H79.374v98.963h160.134C252.848,70.56,275.734,36.618,305.349,10.004z"/>
											</g>
										</g>
									</g>
								</g>
							</g>
						</g>
					</g>
				</g>
			</g>
		</g>
		<polygon style="fill:#BC9AF4;" points="267.048,320.087 397.374,320.087 397.374,152.967 228.817,152.967 173.109,187.045 
			182.001,276.967 		"/>
		<path style="fill:#6864F7;" d="M228.817,152.967H123.374v167.12h143.674c-25.666-37.979-40.671-83.752-40.671-133.041
			C226.378,175.472,227.22,164.098,228.817,152.967z"/>
		<g>
			<path style="fill:#FFFFFF;" d="M58.835,362.297l-38.73,22.361c-9.654,5.574-12.962,17.919-7.388,27.573l12.268,21.249
				c5.574,9.654,17.919,12.962,27.573,7.388l38.73-22.361L58.835,362.297z"/>
			<polygon style="fill:#FDCB50;" points="58.835,362.297 123.378,268.551 204.746,409.485 91.288,418.508 			"/>
			
				<rect x="67.411" y="424.906" transform="matrix(0.866 -0.5 0.5 0.866 -217.649 106.2338)" style="fill:#67CCD1;" width="44" height="68.701"/>
		</g>
		<g>
			<circle style="fill:#FD7DA0;" cx="425.016" cy="343.529" r="74.994"/>
			<path style="fill:#DB4B86;" d="M406.798,343.529c0-30.767,17.388-57.459,42.864-70.828c-7.722-2.687-16.009-4.165-24.647-4.165
				c-41.418,0-74.994,33.576-74.994,74.994c0,41.418,33.576,74.994,74.994,74.994c8.637,0,16.925-1.478,24.647-4.165
				C424.186,400.988,406.798,374.297,406.798,343.529z"/>
			<path style="fill:#FFFFFF;" d="M447.473,358.315l-20.276,11.706c-11.382,6.571-25.609-1.643-25.609-14.786v-23.413
				c0-13.143,14.227-21.357,25.609-14.786l20.276,11.706C458.855,335.315,458.855,351.744,447.473,358.315z"/>
		</g>
	</g>
	<g>
		<path style="fill:#052A75;" d="M451.374,262.74V10.004c0-5.523-4.477-10-10-10h-362c-5.523,0-10,4.477-10,10v319.352
			l-17.495,25.411l-36.774,21.231c-6.982,4.031-11.977,10.541-14.064,18.329c-2.086,7.788-1.016,15.922,3.016,22.905l12.268,21.249
			c5.585,9.673,15.751,15.086,26.192,15.086c2.091,0,4.192-0.23,6.27-0.673l30.086,52.111c1.852,3.208,5.213,5.001,8.669,5.001
			c1.696,0,3.416-0.432,4.991-1.341l38.105-22c2.297-1.326,3.973-3.51,4.659-6.072c0.687-2.562,0.327-5.292-0.999-7.588
			l-26.433-45.783l97.674-7.768c3.42-0.272,6.462-2.279,8.059-5.316c1.597-3.037,1.524-6.681-0.191-9.652l-17.55-30.398h149.87
			c12.301,31.808,43.193,54.437,79.29,54.437c46.866,0,84.994-38.128,84.994-84.994C510.01,305.863,485.373,273.861,451.374,262.74z
			 M33.645,428.48l-12.268-21.249c-1.36-2.356-1.722-5.101-1.017-7.729c0.704-2.628,2.389-4.824,4.745-6.185l30.07-17.36
			l22.453,38.89l-29.445,17c-0.001,0.001-0.003,0.002-0.004,0.003l-0.621,0.358C42.695,435.017,36.454,433.344,33.645,428.48z
			 M91.193,486.344l-24.35-42.176l20.785-12l24.351,42.176L91.193,486.344z M96.79,408.038l-26.137-45.271l17.009-24.706
			c0.002-0.003,0.004-0.005,0.006-0.008l34.967-50.789l65.533,113.507L96.79,408.038z M184.309,354.087l-52.271-90.536
			c-1.715-2.972-4.835-4.856-8.264-4.992c-3.427-0.143-6.688,1.496-8.633,4.321l-25.768,37.427V20.004h342v238.794
			c-2.102-0.156-4.217-0.263-6.358-0.263c-46.866,0-84.994,38.128-84.994,84.994c0,3.577,0.248,7.095,0.679,10.557H184.309z
			 M425.016,408.523c-35.838,0-64.994-29.156-64.994-64.994s29.156-64.994,64.994-64.994c35.837,0,64.994,29.156,64.994,64.994
			S460.853,408.523,425.016,408.523z"/>
		<g>
			<path style="fill:#FFFFFF;" d="M224.752,194.56c-0.035-0.092-0.071-0.184-0.108-0.275c-1.83-4.446-6.117-7.317-10.924-7.317
				c-0.004,0-0.008,0-0.012,0c-4.812,0.005-9.099,2.886-10.921,7.339c-0.031,0.076-0.061,0.152-0.09,0.229l-30.04,78.873
				c-1.966,5.161,0.625,10.938,5.786,12.904c5.161,1.967,10.939-0.625,12.904-5.786l5.028-13.203h34.46l4.972,13.174
				c1.511,4.005,5.316,6.472,9.357,6.472c1.173,0,2.367-0.208,3.529-0.647c5.167-1.95,7.775-7.72,5.825-12.887L224.752,194.56z
				 M203.991,247.323l9.692-25.448l9.604,25.448H203.991z"/>
			<path style="fill:#FFFFFF;" d="M311.15,186.967h-21.988c-2.656,0-5.202,1.056-7.078,2.936c-1.876,1.879-2.927,4.428-2.922,7.083
				l0.158,80c0.005,2.656,1.066,5.2,2.95,7.072c1.874,1.863,4.409,2.908,7.05,2.908c0.013,0,0.026,0,0.039,0
				c0.665-0.002,16.346-0.065,22.614-0.178c23.483-0.423,40.528-21.376,40.528-49.822
				C352.501,207.06,335.883,186.967,311.15,186.967z M311.614,266.792c-2.834,0.051-7.789,0.092-12.313,0.122l-0.118-59.947h11.968
				c3.565,0,21.351,1.446,21.351,30C332.501,251.151,325.965,266.534,311.614,266.792z"/>
			<path style="fill:#FFFFFF;" d="M380.847,49.485h-97.063c-5.523,0-10,4.477-10,10s4.477,10,10,10h97.063c5.523,0,10-4.477,10-10
				S386.37,49.485,380.847,49.485z"/>
		</g>
		<g>
			<circle style="fill:#FFFFFF;" cx="129.169" cy="59.486" r="10"/>
			<circle style="fill:#FFFFFF;" cx="178.649" cy="59.486" r="10"/>
			<circle style="fill:#FFFFFF;" cx="228.129" cy="59.486" r="10"/>
		</g>
	</g>
</g>
<g>
</g>
<g>
</g>
<g>
</g>
<g>
</g>
<g>
</g>
<g>
</g>
<g>
</g>
<g>
</g>
<g>
</g>
<g>
</g>
<g>
</g>
<g>
</g>
<g>
</g>
<g>
</g>
<g>
</g>
</svg>
