<?xml version="1.0" encoding="iso-8859-1"?>
<!-- Generator: Adobe Illustrator 27.2.0, SVG Export Plug-In . SVG Version: 6.00 Build 0)  -->
<svg version="1.1" id="Capa_1" xmlns="http://www.w3.org/2000/svg" xmlns:xlink="http://www.w3.org/1999/xlink" x="0px" y="0px"
	 viewBox="0 0 510 510" style="enable-background:new 0 0 510 510;" xml:space="preserve">
<g>
	<polygon style="fill:#D2DCFD;" points="10.566,209.542 39.528,271.123 473.268,271.123 500.975,209.542 	"/>
	<g>
		<rect x="10.206" y="10" style="fill:#FFFFFF;" width="490" height="199.554"/>
		<polygon style="fill:#D2DCFD;stroke:#D2DCFD;stroke-miterlimit:10;" points="500.206,10.012 45.569,10.012 88.171,75.879 
			500.206,75.879 		"/>
		<path style="fill:#D2DCFD;stroke:#D2DCFD;stroke-miterlimit:10;" d="M88.171,75.879l-77.965-36.06v169.735h105.965
			C96.447,181.269,84.87,146.88,84.87,109.783C84.87,98.181,86.012,86.848,88.171,75.879z"/>
		<path style="fill:#93B2F4;" d="M116.171,10.012H10.206v65.867h77.965C92.914,51.773,102.615,29.451,116.171,10.012z"/>
	</g>
	<rect x="124.949" y="209.542" style="fill:#93B2F4;" width="262.06" height="61.581"/>
</g>
<g>
	<g>
		<g>
			<path style="fill:#052A75;" d="M123.88,158.49c-14.367-0.25-12.185-22.364,1.951-19.8
				C137.412,140.695,135.629,158.781,123.88,158.49z"/>
		</g>
		<g>
			<path style="fill:#052A75;" d="M69.859,158.49c-14.371-0.251-12.193-22.362,1.951-19.8
				C83.391,140.695,81.608,158.782,69.859,158.49z"/>
		</g>
		<g>
			<path style="fill:#052A75;" d="M500,0H10C4.48,0,0,4.48,0,10v199.54c0,1.46,0.32,2.9,0.93,4.22l28.67,61.58
				c1.64,3.53,5.17,5.78,9.06,5.78H472.7c3.96,0,7.54-2.33,9.14-5.94l27.3-61.59c0.57-1.27,0.86-2.65,0.86-4.05V10
				C510,4.48,505.52,0,500,0z M20,20h470v179.54H20V20z M466.2,261.12H45.04l-19.36-41.58h458.95L466.2,261.12z"/>
		</g>
		<g>
			<path style="fill:#67CCD1;" d="M131.235,427.703c-22.359,0-40.55-18.19-40.55-40.549v-1.431c0-5.523,4.478-10,10-10
				s10,4.477,10,10v1.431c0,11.331,9.219,20.549,20.55,20.549s20.55-9.218,20.55-20.549v-57.635c0-5.523,4.478-10,10-10
				s10,4.477,10,10v57.635C171.785,409.513,153.595,427.703,131.235,427.703z"/>
		</g>
		<g>
			<path style="fill:#67CCD1;" d="M193.352,509.149c-22.359,0-40.55-18.19-40.55-40.549v-1.431c0-5.523,4.478-10,10-10
				s10,4.477,10,10v1.431c0,11.331,9.218,20.549,20.549,20.549s20.55-9.218,20.55-20.549V329.519c0-5.523,4.478-10,10-10
				s10,4.477,10,10V468.6C233.9,490.958,215.71,509.149,193.352,509.149z"/>
		</g>
		<g>
			<path style="fill:#67CCD1;" d="M378.765,428.554c-22.359,0-40.55-18.19-40.55-40.55v-57.635c0-5.523,4.478-10,10-10
				s10,4.477,10,10v57.635c0,11.331,9.219,20.55,20.55,20.55s20.55-9.219,20.55-20.55v-1.431c0-5.523,4.478-10,10-10s10,4.477,10,10
				v1.431C419.314,410.364,401.124,428.554,378.765,428.554z"/>
		</g>
		<g>
			<path style="fill:#67CCD1;" d="M316.649,510c-22.359,0-40.55-18.19-40.55-40.55V330.369c0-5.523,4.478-10,10-10s10,4.477,10,10
				V469.45c0,11.331,9.218,20.55,20.549,20.55s20.55-9.219,20.55-20.55v-1.431c0-5.523,4.478-10,10-10s10,4.477,10,10v1.431
				C357.198,491.81,339.008,510,316.649,510z"/>
		</g>
	</g>
</g>
<g>
</g>
<g>
</g>
<g>
</g>
<g>
</g>
<g>
</g>
<g>
</g>
<g>
</g>
<g>
</g>
<g>
</g>
<g>
</g>
<g>
</g>
<g>
</g>
<g>
</g>
<g>
</g>
<g>
</g>
</svg>
