<?xml version="1.0" encoding="iso-8859-1"?>
<!-- Generator: Adobe Illustrator 29.4.0, SVG Export Plug-In . SVG Version: 9.03 Build 0)  -->
<svg version="1.1" id="Capa_1" xmlns="http://www.w3.org/2000/svg" xmlns:xlink="http://www.w3.org/1999/xlink" x="0px" y="0px"
	 viewBox="0 0 512 512" style="enable-background:new 0 0 512 512;" xml:space="preserve">
<g>
	<g>
		<polygon style="fill-rule:evenodd;clip-rule:evenodd;fill:#FFFFFF;" points="35.103,10 326.287,10 416.654,100.367 
			416.654,471.878 35.103,471.878 		"/>
		<path style="fill-rule:evenodd;clip-rule:evenodd;fill:#D2DCFD;" d="M416.654,279.447v192.431H265.081
			c-9.02-18.15-14.101-38.602-14.101-60.245c0-74.863,60.688-135.551,135.551-135.551
			C396.884,276.082,406.965,277.248,416.654,279.447z"/>
		<rect x="80.286" y="55.184" style="fill-rule:evenodd;clip-rule:evenodd;fill:#FDCB50;" width="150.288" height="45.183"/>
		<polygon style="fill-rule:evenodd;clip-rule:evenodd;fill:#93B2F4;" points="326.287,10 326.287,100.367 416.654,100.367 		"/>
		<path style="fill-rule:evenodd;clip-rule:evenodd;fill:#67CCD1;" d="M386.53,502c49.773,0,90.367-40.595,90.367-90.367
			s-40.595-90.368-90.367-90.368s-90.367,40.595-90.367,90.368S336.758,502,386.53,502z"/>
	</g>
	<g>
		<g>
			<g>
				<path style="fill:#6864F7;" d="M371.47,301.145H80.286c-5.522,0-10-4.477-10-10s4.478-10,10-10H371.47c5.522,0,10,4.477,10,10
					S376.992,301.145,371.47,301.145z"/>
			</g>
			<g>
				<path style="fill:#6864F7;" d="M334.068,346.328H80.286c-5.522,0-10-4.477-10-10s4.478-10,10-10h253.781c5.522,0,10,4.477,10,10
					S339.59,346.328,334.068,346.328z"/>
			</g>
			<g>
				<path style="fill:#6864F7;" d="M225.878,391.511H80.286c-5.522,0-10-4.477-10-10s4.478-10,10-10h145.592c5.522,0,10,4.477,10,10
					S231.401,391.511,225.878,391.511z"/>
			</g>
		</g>
		<path style="fill:#052A75;" d="M426.654,319.636V100.367c0-2.652-1.054-5.196-2.929-7.071L333.358,2.929
			C331.482,1.054,328.939,0,326.286,0H35.103c-5.522,0-10,4.477-10,10v461.878c0,5.523,4.478,10,10,10h279.806
			C333.134,500.458,358.51,512,386.531,512c55.343,0,100.367-45.025,100.367-100.368
			C486.898,370.547,462.083,335.148,426.654,319.636z M45.103,461.878V20h277.041l84.51,84.509v208.783
			c-6.503-1.329-13.233-2.027-20.123-2.027c-55.343,0-100.367,45.025-100.367,100.368c0,18.294,4.92,35.46,13.506,50.245H45.103z
			 M386.531,492c-44.314,0-80.367-36.053-80.367-80.368s36.053-80.368,80.367-80.368s80.367,36.053,80.367,80.368
			S430.845,492,386.531,492z"/>
		<g>
			<path style="fill:#FD6050;" d="M99.967,146.395c-16.366,0-29.681,13.314-29.681,29.681v59.042c0,5.523,4.478,10,10,10
				s10-4.477,10-10v-19.522h19.361v19.522c0,5.523,4.478,10,10,10s10-4.477,10-10v-59.042
				C129.648,159.709,116.333,146.395,99.967,146.395z M109.648,195.595H90.286v-19.52c0-5.338,4.343-9.681,9.681-9.681
				s9.681,4.343,9.681,9.681V195.595z"/>
			<path style="fill:#FD6050;" d="M371.47,146.396h-34.44c-5.522,0-10,4.477-10,10s4.478,10,10,10h7.22v68.722
				c0,5.523,4.478,10,10,10s10-4.477,10-10v-68.722h7.221c5.522,0,10-4.477,10-10S376.992,146.396,371.47,146.396z"/>
			<path style="fill:#FD6050;" d="M250.255,146.395h-19.681c-5.522,0-10,4.477-10,10v78.722c0,5.523,4.478,10,10,10h19.681
				c16.366,0,29.681-13.314,29.681-29.68v-39.361C279.936,159.709,266.621,146.395,250.255,146.395z M259.936,215.437
				c0,5.338-4.343,9.68-9.681,9.68h-9.681v-58.722h9.681c5.338,0,9.681,4.343,9.681,9.681V215.437z"/>
			<path style="fill:#FD6050;" d="M305.719,146.395c-5.522,0-10,4.477-10,10v78.722c0,5.523,4.478,10,10,10s10-4.477,10-10v-78.722
				C315.719,150.872,311.241,146.395,305.719,146.395z"/>
			<path style="fill:#FD6050;" d="M194.791,146.395c-5.522,0-10,4.477-10,10v59.042c0,5.338-4.343,9.681-9.681,9.681
				c-5.337,0-9.68-4.343-9.68-9.681v-59.042c0-5.523-4.478-10-10-10s-10,4.477-10,10v59.042c0,16.366,13.314,29.681,29.68,29.681
				c16.366,0,29.681-13.314,29.681-29.681v-59.042C204.791,150.872,200.314,146.395,194.791,146.395z"/>
		</g>
		<g>
			<path style="fill:#FFFFFF;" d="M376.49,441.714L376.49,441.714c-2.652,0-5.195-1.054-7.071-2.929l-20.081-20.082
				c-3.905-3.905-3.905-10.237,0-14.142c3.907-3.904,10.237-3.905,14.143,0l13.01,13.01l33.092-33.092
				c3.906-3.905,10.236-3.905,14.143,0c3.905,3.905,3.905,10.237,0,14.143l-40.163,40.163
				C381.686,440.661,379.142,441.714,376.49,441.714z"/>
		</g>
	</g>
</g>
<g>
</g>
<g>
</g>
<g>
</g>
<g>
</g>
<g>
</g>
<g>
</g>
<g>
</g>
<g>
</g>
<g>
</g>
<g>
</g>
<g>
</g>
<g>
</g>
<g>
</g>
<g>
</g>
<g>
</g>
</svg>
