<?xml version="1.0" encoding="iso-8859-1"?>
<!-- Generator: Adobe Illustrator 27.0.0, SVG Export Plug-In . SVG Version: 6.00 Build 0)  -->
<svg version="1.1" id="Capa_1" xmlns="http://www.w3.org/2000/svg" xmlns:xlink="http://www.w3.org/1999/xlink" x="0px" y="0px"
	 viewBox="0 0 512 512" style="enable-background:new 0 0 512 512;" xml:space="preserve">
<g>
	<g>
		<g>
			<g>
				<g>
					<rect x="32.79" y="99.439" style="fill:#FDCB50;" width="276.07" height="72.61"/>
				</g>
				<g>
					<path style="fill:#FD8F01;" d="M127.784,99.439H32.79v72.61h56.725C98.605,145.794,111.59,121.361,127.784,99.439z"/>
				</g>
				<g>
					<rect x="32.79" y="350.519" style="fill:#B1D952;" width="328.012" height="72.61"/>
				</g>
				<g>
					<path style="fill:#91B706;" d="M89.516,350.519H32.79v72.61h94.994C111.59,401.207,98.605,376.774,89.516,350.519z"/>
				</g>
				<g>
					<rect x="32.79" y="224.979" style="fill:#FD6050;" width="169.127" height="72.61"/>
				</g>
				<g>
					<path style="fill:#BC3C85;" d="M74.562,261.284c0-12.311,0.831-24.426,2.411-36.305H32.79v72.61h44.183
						C75.393,285.71,74.562,273.595,74.562,261.284z"/>
				</g>
			</g>
			<g>
				<g>
					<circle style="fill:#FFFFFF;" cx="32.79" cy="32.79" r="22.79"/>
				</g>
				<g>
					<circle style="fill:#FFFFFF;" cx="479.21" cy="479.21" r="22.79"/>
				</g>
			</g>
		</g>
	</g>
	<g>
		<g>
			<g>
				<g>
					<g>
						<path style="fill:#052A75;" d="M308.861,182.049H36.106c-5.523,0-10-4.477-10-10s4.477-10,10-10h262.755v-52.609H36.99
							c-5.523,0-10-4.477-10-10s4.477-10,10-10h271.871c5.523,0,10,4.477,10,10v72.609
							C318.861,177.572,314.384,182.049,308.861,182.049z"/>
					</g>
				</g>
				<g>
					<g>
						<path style="fill:#052A75;" d="M360.802,433.129H36.106c-5.523,0-10-4.477-10-10s4.477-10,10-10h314.696v-52.61H36.106
							c-5.523,0-10-4.477-10-10s4.477-10,10-10h324.696c5.523,0,10,4.477,10,10v72.61
							C370.802,428.652,366.325,433.129,360.802,433.129z"/>
					</g>
				</g>
				<g>
					<g>
						<path style="fill:#052A75;" d="M201.918,307.589H36.106c-5.523,0-10-4.477-10-10s4.477-10,10-10h155.812v-52.61H36.106
							c-5.523,0-10-4.477-10-10s4.477-10,10-10h165.812c5.523,0,10,4.477,10,10v72.61
							C211.918,303.112,207.441,307.589,201.918,307.589z"/>
					</g>
				</g>
			</g>
			<g>
				<g>
					<path style="fill:#93B2F4;" d="M455.408,469.209H42.791V56.592c0-5.523-4.477-10-10-10s-10,4.477-10,10v84.605h-6.292
						c-5.523,0-10,4.477-10,10s4.477,10,10,10h6.292v90.086h-6.292c-5.523,0-10,4.477-10,10s4.477,10,10,10h6.292v90.086h-6.292
						c-5.523,0-10,4.477-10,10s4.477,10,10,10h6.292v87.839H10c-5.523,0-10,4.477-10,10s4.477,10,10,10h12.791V502
						c0,5.523,4.477,10,10,10s10-4.477,10-10v-12.791h87.839v6.292c0,5.523,4.477,10,10,10s10-4.477,10-10v-6.292h90.086v6.292
						c0,5.523,4.477,10,10,10s10-4.477,10-10v-6.292h90.086v6.292c0,5.523,4.477,10,10,10s10-4.477,10-10v-6.292h84.605
						c5.523,0,10-4.477,10-10S460.931,469.209,455.408,469.209z"/>
				</g>
				<g>
					<g>
						<path style="fill:#052A75;" d="M32.791,65.581C14.71,65.581,0,50.871,0,32.791S14.71,0,32.791,0s32.79,14.71,32.79,32.791
							S50.871,65.581,32.791,65.581z M32.791,20C25.738,20,20,25.738,20,32.791c0,7.052,5.738,12.79,12.791,12.79
							c7.052,0,12.79-5.738,12.79-12.79C45.581,25.738,39.843,20,32.791,20z"/>
					</g>
				</g>
				<g>
					<g>
						<path style="fill:#052A75;" d="M479.209,512c-18.081,0-32.79-14.71-32.79-32.791s14.709-32.79,32.79-32.79
							S512,461.129,512,479.209S497.29,512,479.209,512z M479.209,466.419c-7.052,0-12.79,5.738-12.79,12.79
							c0,7.053,5.738,12.791,12.79,12.791c7.053,0,12.791-5.738,12.791-12.791C492,472.157,486.262,466.419,479.209,466.419z"/>
					</g>
				</g>
			</g>
		</g>
		<g>
			<g>
				<path style="fill:#FD8F01;" d="M426.565,168.518l-26.856-71.161c-1.787-4.736-6.388-7.917-11.449-7.917
					c-5.044,0-9.64,3.167-11.436,7.882L349.72,168.49c-1.966,5.161,0.625,10.938,5.786,12.904c1.171,0.446,2.374,0.658,3.557,0.658
					c4.03,0,7.828-2.454,9.347-6.444l4.434-11.642h30.626l4.383,11.614c1.95,5.167,7.721,7.773,12.887,5.825
					C425.908,179.455,428.516,173.685,426.565,168.518z M380.461,143.966l7.766-20.391l7.696,20.391H380.461z"/>
			</g>
			<g>
				<path style="fill:#BC3C85;" d="M296.084,255.53c2.448-4.039,3.859-8.774,3.859-13.833c0-14.732-11.985-26.718-26.718-26.718
					h-21.104c-5.523,0-10,4.477-10,10v72.61c0,5.523,4.477,10,10,10h24.789c16.297,0,29.556-13.278,29.556-29.599
					C306.467,269.007,302.432,260.954,296.084,255.53z M262.122,234.979h11.104c3.704,0,6.718,3.014,6.718,6.718
					c0,3.72-3.014,6.746-6.718,6.746h-11.104V234.979z M276.911,287.589h-14.789v-19.146h14.789c5.27,0,9.556,4.283,9.556,9.547
					C286.467,283.283,282.181,287.589,276.911,287.589z"/>
			</g>
			<g>
				<path style="fill:#91B706;" d="M475.489,405.161c-4.263-3.511-10.565-2.901-14.076,1.362c-3.615,4.39-8.58,6.603-14.746,6.605
					c-14.149,0-25.66-11.8-25.66-26.305c0-14.505,11.511-26.305,25.66-26.305c5.114,0,10.048,1.535,14.271,4.439
					c4.55,3.131,10.777,1.979,13.906-2.572c3.13-4.55,1.978-10.776-2.572-13.906c-7.572-5.208-16.426-7.961-25.605-7.961
					c-25.177,0-45.66,20.772-45.66,46.305s20.483,46.305,45.66,46.305c12.098,0.019,22.806-4.906,30.185-13.892
					C480.362,414.974,479.752,408.672,475.489,405.161z"/>
			</g>
		</g>
	</g>
</g>
<g>
</g>
<g>
</g>
<g>
</g>
<g>
</g>
<g>
</g>
<g>
</g>
<g>
</g>
<g>
</g>
<g>
</g>
<g>
</g>
<g>
</g>
<g>
</g>
<g>
</g>
<g>
</g>
<g>
</g>
</svg>
