<?xml version="1.0" encoding="iso-8859-1"?>
<!-- Generator: Adobe Illustrator 27.2.0, SVG Export Plug-In . SVG Version: 6.00 Build 0)  -->
<svg version="1.1" id="Capa_1" xmlns="http://www.w3.org/2000/svg" xmlns:xlink="http://www.w3.org/1999/xlink" x="0px" y="0px"
	 viewBox="0 0 510 510" style="enable-background:new 0 0 510 510;" xml:space="preserve">
<g>
	<g id="Blog">
		<path style="fill:#FFFFFF;" d="M10,469.502C10,486.346,23.654,500,40.498,500c0,0,429.004,0,429.004,0
			C486.346,500,500,486.346,500,469.502c0.035-67.397-0.025-368.091,0-429.004C500,23.654,486.346,10,469.502,10
			c0,0-429.004,0-429.004,0C23.654,10,10,23.654,10,40.498C10,40.498,10,469.502,10,469.502z"/>
		<path style="fill:#D2DCFD;" d="M131.963,162.49c0-52.763,7.016-103.886,20.167-152.49H40.498C23.654,10,10,23.654,10,40.498
			v429.004C10,486.346,23.654,500,40.498,500h199.179C171.855,404.785,131.963,288.296,131.963,162.49z"/>
		<path style="fill:#FD6050;" d="M500,134.005V40.498C500,23.654,486.346,10,469.502,10H40.498C23.654,10,10,23.654,10,40.498
			v93.507H500z"/>
		<path style="fill:#DB4B86;" d="M152.13,10H40.498C23.654,10,10,23.654,10,40.498v93.507h122.654
			C134.711,91.303,141.359,49.805,152.13,10z"/>
		<path style="fill:#D2DCFD;" d="M383.293,317.012c22.486-38.222,26.739-77.227,25.213-121.992
			c-102.958,22.036-160.176,110.746-152.49,213.485c40.734-8.147,76.225-28.982,102.693-57.896l-11.199-33.598H383.293z"/>
	</g>
	<g id="Blog_00000070820661609715940300000014929256651517631390_">
		<path style="fill:#052A75;" d="M439.004,80.996H286.515c-5.522,0-10-4.477-10-10c0-5.523,4.478-10,10-10h152.489
			C452.211,61.466,452.291,80.493,439.004,80.996z"/>
		<path style="fill:#6864F7;" d="M256.017,449.004H70.996c-5.522,0-10-4.477-10-10c0-5.523,4.478-10,10-10h185.021
			C269.213,429.469,269.313,448.498,256.017,449.004z"/>
		<path style="fill:#052A75;" d="M70.97,81c-14.376-0.27-12.191-22.364,1.951-19.81C84.5,63.213,82.726,81.266,70.97,81z"/>
		<path style="fill:#052A75;" d="M131.96,81c-14.371-0.279-12.182-22.368,1.961-19.81C145.5,63.222,143.706,81.27,131.96,81z"/>
		<path style="fill:#052A75;" d="M192.96,81c-14.375-0.273-12.191-22.36,1.951-19.81C206.489,63.212,204.711,81.269,192.96,81z"/>
		<path style="fill:#052A75;" d="M414.846,187.287c-2.318-1.9-5.366-2.66-8.301-2.073
			c-91.347,16.901-161.873,102.927-160.527,195.814c-0.001,14.36-0.001,43.553-0.001,57.975c0.476,13.21,19.494,13.286,20,0
			c0,0,0-22.471,0-22.471c38.636-9.361,73.097-29.705,100.069-59.17c2.45-2.677,3.259-6.471,2.111-9.914l-6.812-20.436
			c0,0,21.908,0,21.908,0c3.578,0,6.884-1.912,8.668-5.014c23.522-39.985,28.151-81.437,26.544-126.978
			C418.506,192.025,417.163,189.187,414.846,187.287z M398.506,222.499c0,29.492-7.281,58.588-21.104,84.514h-29.892
			c-3.215,0-6.232,1.545-8.112,4.153c-1.88,2.608-2.391,5.96-1.375,9.009l9.307,27.92c-22.499,23.065-50.328,39.403-81.314,47.794
			c-5.71-86.012,49.442-166.112,132.489-188.241V222.499z"/>
		<path style="fill:#052A75;" d="M469.502,510H40.498C18.167,510,0,491.833,0,469.502V40.498C0,18.167,18.167,0,40.498,0h429.004
			C491.833,0,510,18.167,510,40.498v429.004C510,491.833,491.833,510,469.502,510z M40.498,20C29.195,20,20,29.195,20,40.498
			v429.004C20,480.805,29.195,490,40.498,490h429.004c11.303,0,20.498-9.195,20.498-20.498V40.498C490,29.195,480.805,20,469.502,20
			H40.498z"/>
	</g>
</g>
<g>
</g>
<g>
</g>
<g>
</g>
<g>
</g>
<g>
</g>
<g>
</g>
<g>
</g>
<g>
</g>
<g>
</g>
<g>
</g>
<g>
</g>
<g>
</g>
<g>
</g>
<g>
</g>
<g>
</g>
</svg>
