<?xml version="1.0" encoding="iso-8859-1"?>
<!-- Generator: Adobe Illustrator 27.2.0, SVG Export Plug-In . SVG Version: 6.00 Build 0)  -->
<svg version="1.1" id="Capa_1" xmlns="http://www.w3.org/2000/svg" xmlns:xlink="http://www.w3.org/1999/xlink" x="0px" y="0px"
	 viewBox="0 0 509.976 509.976" style="enable-background:new 0 0 509.976 509.976;" xml:space="preserve">
<g>
	<g>
		<g>
			<path style="fill:#F7B073;" d="M418.338,304V42.667c0-8.665-3.438-16.978-9.571-23.103C402.642,13.438,394.336,10,385.671,10
				c-56.562,0-172.104,0-228.667,0c-18.04,0-32.667,14.618-32.667,32.667V304H418.338z"/>
		</g>
		<g>
			<path style="fill:#D46B5C;" d="M233.482,222.477c-39.642,0-76.864-10.335-109.144-28.438V304h294V124.604
				C378.121,183.678,310.335,222.477,233.482,222.477z"/>
		</g>
		<g>
			<polygon style="fill:#D46B5C;" points="222.338,10 222.338,99.833 246.838,116.167 271.338,99.833 295.838,116.167 
				320.338,99.833 320.338,10 			"/>
		</g>
		<g>
			<path style="fill:#FDBEB9;" d="M158.164,304c-21.658,0-42.434,8.6-57.746,23.912c-33.516,33.524-90.413,90.421-90.413,90.421
				L91.671,500l49-49h147l212.333-212.333c-39-19.517-86.135-11.866-116.979,18.971C359.44,281.231,336.671,304,336.671,304H158.164
				z"/>
		</g>
	</g>
	<g>
		<path style="fill:#052A75;" d="M189.671,248.667h65.334c13.247-0.519,13.277-19.468,0-20c0,0-65.333,0-65.333,0
			c-5.523,0-10,4.477-10,10C179.671,244.189,184.148,248.667,189.671,248.667z"/>
		<path style="fill:#052A75;" d="M504.307,229.634c-24.143-12.022-51.03-14.616-75.97-8.543V42.667
			c0-11.409-4.441-22.127-12.5-30.175C407.782,4.437,397.068,0,385.672,0H157.005c-23.526,0-42.667,19.141-42.667,42.667
			c0.698,1.276-0.576,261.303,0.061,262.418c-7.64,4.162-14.731,9.434-21.053,15.757c-33.516,33.524-90.412,90.42-90.412,90.42
			c-1.875,1.876-2.929,4.419-2.929,7.071c0,2.652,1.054,5.195,2.929,7.071L84.6,507.071c3.722,3.869,10.42,3.876,14.143,0
			c0,0,46.071-46.071,46.071-46.071h142.858c2.652,0,5.195-1.054,7.071-2.929l212.333-212.333
			C511.962,241.034,510.414,232.37,504.307,229.634z M134.338,42.667c0-12.499,10.168-22.667,22.667-22.667h228.667
			c6.055,0,11.745,2.356,16.028,6.64c4.28,4.274,6.638,9.966,6.638,16.027v185.372c-11.809,5.41-22.802,12.95-32.385,22.53
			c-18.523,18.529-36.542,36.55-43.424,43.432H158.164c-8.16,0-16.149,1.082-23.826,3.133V42.667z M283.529,441H140.671
			c-2.652,0-5.196,1.054-7.071,2.929l-41.929,41.929l-67.524-67.524c16.279-16.278,57.021-57.023,83.342-83.35
			C121.02,321.452,139.017,314,158.164,314h154.365l-45.334,45.333h-61.19c-5.523,0-10,4.477-10,10c0,5.522,4.477,10,10,10h65.333
			c2.652,0,5.195-1.054,7.071-2.929l65.334-65.333c0,0,22.768-22.77,46.353-46.361c24.434-24.427,60.049-32.712,92.205-22.481
			L283.529,441z"/>
	</g>
</g>
<g>
</g>
<g>
</g>
<g>
</g>
<g>
</g>
<g>
</g>
<g>
</g>
<g>
</g>
<g>
</g>
<g>
</g>
<g>
</g>
<g>
</g>
<g>
</g>
<g>
</g>
<g>
</g>
<g>
</g>
</svg>
