<?xml version="1.0" encoding="iso-8859-1"?>
<!-- Generator: Adobe Illustrator 27.2.0, SVG Export Plug-In . SVG Version: 6.00 Build 0)  -->
<svg version="1.1" id="Capa_1" xmlns="http://www.w3.org/2000/svg" xmlns:xlink="http://www.w3.org/1999/xlink" x="0px" y="0px"
	 viewBox="0 0 510 510" style="enable-background:new 0 0 510 510;" xml:space="preserve">
<g>
	<g>
		<g>
			<polygon style="fill:#FFFFFF;" points="253.983,174.689 500,174.689 500,439.004 131.992,439.004 131.992,174.689 
				192.988,174.689 			"/>
			<g>
				<path style="fill:#D2DCFD;" d="M131.787,439.004V174.689h0.205c0-33.687-27.309-60.996-60.996-60.996
					C37.309,113.693,10,141.002,10,174.689v264.315H131.787z"/>
			</g>
			<path style="fill:#93B2F4;" d="M131.992,439.004c0-33.687-27.309-60.996-60.996-60.996C37.309,378.008,10,405.317,10,439.004
				C10,472.691,37.309,500,70.996,500h365.975v-60.996H131.992z"/>
		</g>
		<g>
			<path style="fill:#FD6050;" d="M223.485,337.344L223.485,337.344L223.485,337.344c-19.796-26.395-30.498-58.5-30.498-91.494
				V30.332c0-11.229,9.103-20.332,20.332-20.332h20.332c11.229,0,20.332,9.103,20.332,20.332v215.519
				C253.983,278.845,243.282,310.949,223.485,337.344z"/>
			<path style="fill:#FDCB50;" d="M233.651,10h-20.332c-11.229,0-20.332,9.103-20.332,20.332v40.664h60.996V30.332
				C253.983,19.103,244.88,10,233.651,10z"/>
		</g>
	</g>
	<g>
		<g>
			<path style="fill:#052A75;" d="M500,164.69H263.98V81h30.83v40.83c0,5.52,4.48,10,10,10c5.53,0,10-4.48,10-10V71
				c0-5.53-4.47-10-10-10h-40.83V30.33c0-16.72-13.6-30.33-30.33-30.33h-20.33c-16.73,0-30.33,13.61-30.33,30.33v134.36h-41.71
				c-4.87-34.43-34.53-61-70.28-61c-38.98,0-70.72,31.57-70.99,70.49C0,174.35,0,174.52,0,174.69V439c0,0.17,0,0.34,0.01,0.51
				C0.28,478.43,32.02,510,71,510h365.97c5.52,0,10-4.48,10-10v-51H500c5.52,0,10-4.47,10-10V174.69
				C510,169.17,505.52,164.69,500,164.69z M202.99,30.33c0-5.7,4.63-10.33,10.33-10.33h20.33c5.7,0,10.33,4.63,10.33,10.33v215.52
				c0,25.85-7.2,51.5-20.49,73.61c-13.3-22.11-20.5-47.76-20.5-73.61V30.33z M20,174.69c0-28.12,22.88-51,51-51
				s50.99,22.88,50.99,51v214.98c-12.91-13.35-31-21.66-50.99-21.66c-20,0-38.09,8.31-51,21.66V174.69z M426.97,490H71
				c-28.12,0-51-22.88-51-51s22.88-50.99,51-50.99s50.99,22.87,50.99,50.99c0,5.53,4.48,10,10,10h294.98V490z M490,429H141.99
				V184.69h41v61.16c0,33.8,10.81,67.31,30.5,94.76v17.07c0,5.52,4.47,10,10,10c5.52,0,10-4.48,10-10v-17.07
				c19.68-27.45,30.49-60.96,30.49-94.76v-61.16H490V429z"/>
		</g>
		<g>
			<path style="fill:#052A75;" d="M436.971,245.685H314.979c-5.523,0-10-4.477-10-10c0-5.523,4.477-10,10-10h121.992
				c5.523,0,10,4.477,10,10C446.971,241.208,442.494,245.685,436.971,245.685z"/>
		</g>
		<g>
			<path style="fill:#052A75;" d="M436.971,306.681H314.979c-5.523,0-10-4.477-10-10c0-5.523,4.477-10,10-10h121.992
				c5.523,0,10,4.477,10,10C446.971,302.204,442.494,306.681,436.971,306.681z"/>
		</g>
		<g>
			<path style="fill:#052A75;" d="M436.971,388.008h-60.996c-5.523,0-10-4.477-10-10s4.477-10,10-10h60.996c5.523,0,10,4.477,10,10
				S442.494,388.008,436.971,388.008z"/>
		</g>
	</g>
</g>
<g>
</g>
<g>
</g>
<g>
</g>
<g>
</g>
<g>
</g>
<g>
</g>
<g>
</g>
<g>
</g>
<g>
</g>
<g>
</g>
<g>
</g>
<g>
</g>
<g>
</g>
<g>
</g>
<g>
</g>
</svg>
