<?xml version="1.0" encoding="iso-8859-1"?>
<!-- Generator: Adobe Illustrator 27.0.0, SVG Export Plug-In . SVG Version: 6.00 Build 0)  -->
<svg version="1.1" id="Capa_1" xmlns="http://www.w3.org/2000/svg" xmlns:xlink="http://www.w3.org/1999/xlink" x="0px" y="0px"
	 viewBox="0 0 512 512" style="enable-background:new 0 0 512 512;" xml:space="preserve">
<g>
	<g>
		<path style="fill:#67CCD1;" d="M339.646,73.822l-0.086-0.001c0.004-0.288,0.022-0.573,0.022-0.862
			c0-34.771-28.188-62.959-62.959-62.959c-34.771,0-62.959,28.188-62.959,62.959l0.768,0.768
			c-53.252,6.349-94.544,51.66-94.544,106.621l0,0c0,28.481,11.314,55.796,31.453,75.935l34.518,34.517h181.528l34.518-34.517
			c20.139-20.139,31.453-47.454,31.453-75.935l0,0C433.357,125.672,392.496,80.54,339.646,73.822z"/>
		<path style="fill:#FDE0BE;" d="M227.409,340.9v46.146h0c-62.008,0-112.275,50.275-112.275,112.283l0,2.672H438.11v-2.679
			c0-62.008-50.267-112.275-112.275-112.275h0V340.9H227.409z"/>
		<path style="fill:#F7B073;" d="M227.409,385.464c15.467,6.078,32.094,9.264,49.213,9.264s33.746-3.186,49.213-9.264V340.9h-98.426
			V385.464z"/>
		<path style="fill:#FDE0BE;" d="M371.027,230.323v29.999c0,52.138-42.267,94.405-94.405,94.405h0
			c-52.138,0-94.405-42.267-94.405-94.405v-29.999c0-52.138,42.267-94.405,94.405-94.405h0
			C328.76,135.919,371.027,178.185,371.027,230.323z"/>
		<path style="fill:#D2DCFD;" d="M194.429,255.098c0.347-1.749,0.532-3.556,0.532-5.407c0-15.269-12.378-27.648-27.648-27.648
			c-14.419,0-26.255,11.04-27.528,25.128C129.785,252.634,123,263.247,123,275.445c0,17.782,14.415,32.198,32.198,32.198
			c7.95,0,15.222-2.887,20.838-7.662c1.331,0.22,2.696,0.341,4.09,0.341c13.739,0,24.876-11.137,24.876-24.876
			C205.003,267.032,200.822,259.6,194.429,255.098z"/>
		<path style="fill:#D2DCFD;" d="M411.242,254.636c0.452-1.83,0.696-3.743,0.696-5.713c0-10.841-7.265-19.979-17.19-22.828
			c-5.599-6.899-14.143-11.311-23.72-11.311c-16.866,0-30.539,13.673-30.539,30.539c0,8.146,3.196,15.541,8.394,21.017
			c-3.865,4.081-6.24,9.587-6.24,15.651c0,12.576,10.195,22.771,22.771,22.771c8.93,0,16.655-5.143,20.386-12.627
			c2.163,0.648,4.453,1.001,6.827,1.001c13.119,0,23.754-10.635,23.754-23.754C416.38,263.808,414.455,258.687,411.242,254.636z"/>
		<circle style="fill:#D2DCFD;" cx="450.753" cy="330.964" r="22.09"/>
		<circle style="fill:#D2DCFD;" cx="61.247" cy="240.32" r="22.09"/>
	</g>
	<g>
		<path style="fill:#052A75;" d="M335.835,377.451v-31.097c11.896-8.191,22.127-18.882,29.893-31.601
			c9.758-0.092,18.722-4.413,24.793-11.683c0.7,0.043,1.401,0.065,2.104,0.065c18.612,0,33.754-15.142,33.754-33.754
			c0-5.984-1.618-11.885-4.617-17.027c0.116-1.14,0.175-2.286,0.175-3.432c0-0.318-0.028-0.63-0.037-0.947
			c13.854-19.68,21.457-43.536,21.457-67.628c0-56.146-39.939-104.219-94.186-115.093C345.309,28.634,314.249,0,276.622,0
			c-37.632,0-68.695,28.64-72.551,65.267c-53.652,10.801-94.184,58.294-94.184,115.081c0,22.434,6.286,43.977,18.211,62.769
			C118.638,251.049,113,262.826,113,275.445c0,23.268,18.93,42.198,42.198,42.198c8.505,0,16.796-2.582,23.773-7.341
			c0.386,0.013,0.771,0.02,1.155,0.02c1.58,0,3.133-0.116,4.657-0.32c7.971,14.727,19.231,27.076,32.625,36.296v31.154
			c-62.764,5.104-112.275,57.817-112.275,121.877V502c0,5.523,4.477,10,10,10H438.11c5.522,0,10-4.477,10-10v-2.679
			C448.11,435.265,398.599,382.555,335.835,377.451z M392.626,283.135c-1.342,0-2.672-0.195-3.955-0.58
			c-4.657-1.396-9.648,0.762-11.82,5.117c-2.181,4.373-6.562,7.089-11.438,7.089c-7.042,0-12.771-5.729-12.771-12.771
			c0-3.275,1.243-6.391,3.5-8.774c3.655-3.86,3.651-9.905-0.008-13.761c-3.642-3.835-5.646-8.854-5.646-14.132
			c0-11.325,9.214-20.539,20.539-20.539c6.214,0,12.029,2.774,15.955,7.612c1.29,1.59,3.038,2.746,5.006,3.311
			c5.858,1.681,9.949,7.116,9.949,13.216c0,1.113-0.136,2.228-0.404,3.315c-0.743,3.006-0.051,6.187,1.873,8.612
			c1.945,2.452,2.974,5.402,2.974,8.531C406.38,276.965,400.21,283.135,392.626,283.135z M423.357,180.348
			c0,15.652-3.869,31.184-11.064,45.028c-3.287-3.377-7.274-6.101-11.787-7.875c-6.041-6.412-13.915-10.616-22.5-12.106
			c-5.176-21.064-16.878-40.165-33.517-54.411c-8.377-7.172-17.786-12.906-27.833-17.076c16.459-10.848,28.275-28.172,31.807-48.32
			C391.802,95.828,423.357,134.89,423.357,180.348z M227.275,82.959h22.509c5.523,0,10-4.477,10-10s-4.477-10-10-10h-22.509
			c-0.889,0-1.775,0.014-2.659,0.034C229.293,38.541,250.827,20,276.622,20c29.202,0,52.959,23.757,52.959,52.959
			c0,29.202-23.757,52.959-52.959,52.959l0,0c0,0,0,0,0,0c-27.134,0-52.842,10.359-72.388,29.17
			c-16.219,15.609-26.787,35.672-30.513,57.511c-2.084-0.359-4.222-0.556-6.406-0.556c-10.734,0-20.418,4.414-27.277,11.607
			c-6.666-13.381-10.15-28.095-10.15-43.302C129.887,126.648,173.575,82.959,227.275,82.959z M177.669,290.115
			c-2.902-0.482-5.868,0.342-8.109,2.247c-4.006,3.406-9.106,5.281-14.361,5.281c-12.24,0-22.198-9.958-22.198-22.198
			c0-8.125,4.437-15.596,11.579-19.498c2.928-1.599,4.865-4.553,5.166-7.875c0.826-9.138,8.379-16.028,17.569-16.028
			c9.731,0,17.648,7.917,17.648,17.647c0,1.155-0.115,2.32-0.341,3.463c-0.769,3.877,0.819,7.844,4.051,10.12
			c3.964,2.792,6.331,7.342,6.331,12.171C195.003,284.452,186.94,291.648,177.669,290.115z M203.045,301.7
			c7.32-6.398,11.957-15.792,11.957-26.255c0-9.231-3.679-18.022-10.062-24.496c0.014-0.42,0.021-0.839,0.021-1.259
			c0-11.012-4.753-20.934-12.315-27.824c4.236-42.97,40.202-75.948,83.975-75.948c20.119,0,39.603,7.195,54.861,20.258
			c12.628,10.812,21.734,25.074,26.266,40.852c-15.85,5.511-27.262,20.591-27.262,38.295c0,7.588,2.096,14.902,6.008,21.24
			c-2.516,4.703-3.854,9.979-3.854,15.427c0,10.815,5.269,20.42,13.373,26.392c-6.682,9.658-15.196,17.688-24.94,23.721
			c-0.318,0.172-0.623,0.365-0.919,0.569c-12.893,7.757-27.863,12.055-43.535,12.055C245.929,344.728,217.893,328.082,203.045,301.7
			z M125.393,492c3.77-52.991,48.085-94.954,102.016-94.954c5.523,0,10-4.477,10-10v-29.978c12.237,4.963,25.508,7.659,39.213,7.659
			c13.706,0,26.975-2.667,39.213-7.614v29.933c0,5.523,4.478,10,10,10c53.934,0,98.251,41.962,102.016,94.954H125.393z"/>
		<path style="fill:#052A75;" d="M317.349,269.381c0-5.523-4.478-10-10-10s-10,4.477-10,10c0,11.43-9.299,20.729-20.728,20.729
			c-11.43,0-20.729-9.299-20.729-20.729c0-5.523-4.477-10-10-10s-10,4.477-10,10c0,22.458,18.271,40.729,40.729,40.729
			C299.079,310.11,317.349,291.839,317.349,269.381z"/>
		<path style="fill:#D2DCFD;" d="M83.338,313.5c-5.363,0.117-10.1-4.636-10-10c0.052-10.839,15.056-13.826,19.23-3.82
			C95.407,305.958,90.228,313.714,83.338,313.5z"/>
		<path style="fill:#D2DCFD;" d="M462.248,271.35c-6.888,0.214-12.074-7.544-9.23-13.82c3.198-8.142,15.266-8.143,18.46,0
			C474.334,263.801,469.131,271.566,462.248,271.35z"/>
	</g>
</g>
<g>
</g>
<g>
</g>
<g>
</g>
<g>
</g>
<g>
</g>
<g>
</g>
<g>
</g>
<g>
</g>
<g>
</g>
<g>
</g>
<g>
</g>
<g>
</g>
<g>
</g>
<g>
</g>
<g>
</g>
</svg>
