<?xml version="1.0" encoding="iso-8859-1"?>
<!-- Generator: Adobe Illustrator 27.0.0, SVG Export Plug-In . SVG Version: 6.00 Build 0)  -->
<svg version="1.1" id="Capa_1" xmlns="http://www.w3.org/2000/svg" xmlns:xlink="http://www.w3.org/1999/xlink" x="0px" y="0px"
	 viewBox="0 0 512 512" style="enable-background:new 0 0 512 512;" xml:space="preserve">
<g>
	<g>
		<path style="fill:#D2DCFD;" d="M202.412,109.491c-12.2,0-22.09-9.89-22.09-22.09v0c0-12.2,9.89-22.09,22.09-22.09h95.699v44.18
			H202.412z"/>
		<path style="fill:#FFFFFF;" d="M298.111,65.311h-95.789c-12.15,0-22-9.85-22-22v-0.18c0-12.15,9.85-22,22-22h95.789V65.311z"/>
		<path style="fill:#67CCD1;" d="M110.574,109.491v171.712c0,11.091-8.991,20.082-20.082,20.082H55.81
			c-11.091,0-20.082-8.991-20.082-20.082V109.491H110.574z"/>
		<rect x="161.616" y="244.383" style="fill:#B1D952;" width="155.201" height="150.849"/>
		<path style="fill:#91B706;" d="M212.847,332.066c0-36.401,18.299-68.523,46.196-87.683h-97.427v150.849h72.03
			C220.578,377.571,212.847,355.723,212.847,332.066z"/>
		<path style="fill:#FD6050;" d="M213.488,244.383v-51.659c0-11.091,8.991-20.082,20.082-20.082h11.293
			c11.091,0,20.082,8.991,20.082,20.082v51.659H213.488z"/>
		<rect x="161.616" y="244.383" style="fill:#91B706;" width="155.201" height="51.457"/>
		<polygon style="fill:#FD6050;" points="487.966,279.998 476.272,395.232 393.915,395.232 382.735,279.467 		"/>
		<rect x="136.303" y="395.232" style="fill:#93B2F4;" width="365.697" height="44.18"/>
		<circle style="fill:#6864F7;" cx="187.76" cy="465.14" r="25.728"/>
		<circle style="fill:#6864F7;" cx="450.543" cy="465.14" r="25.728"/>
	</g>
	<g>
		<path style="fill:#F7B073;" d="M458.496,287.129c-0.411,0-0.825-0.025-1.243-0.077c-5.481-0.679-9.373-5.673-8.693-11.154
			l26.455-213.386c0.679-5.481,5.673-9.372,11.154-8.693c5.481,0.679,9.373,5.673,8.693,11.154l-26.455,213.386
			C467.779,283.421,463.469,287.129,458.496,287.129z"/>
		<path style="fill:#052A75;" d="M502,385.232h-14.662l9.719-95.765h4.857c5.523,0,10-4.477,10-10s-4.477-10-10-10h-133.64
			c-5.523,0-10,4.477-10,10s4.477,10,10,10h5.029l9.601,95.765h-56.087V119.491h15.729c5.523,0,10-4.477,10-10s-4.477-10-10-10
			h-34.434V21.132c0-5.523-4.477-10-10-10h-95.789c-17.645,0-32,14.355-32,32v0.18c0,8.53,3.361,16.285,8.821,22.027
			c-5.46,5.756-8.821,13.522-8.821,22.063c0,4.276,0.847,8.356,2.372,12.09H10c-5.523,0-10,4.477-10,10s4.477,10,10,10h15.729
			v161.711c0,16.587,13.495,30.082,30.082,30.082h34.683c16.587,0,30.082-13.495,30.082-30.082V119.491h31.457v265.741h-15.729
			c-5.523,0-10,4.477-10,10v44.18c0,5.523,4.477,10,10,10h19.386c-2.339,4.749-3.658,10.086-3.658,15.728
			c0,19.701,16.027,35.729,35.728,35.729s35.729-16.028,35.729-35.729c0-5.642-1.319-10.979-3.658-15.728h198.643
			c-2.339,4.749-3.658,10.086-3.658,15.728c0,19.701,16.028,35.729,35.729,35.729s35.728-16.028,35.728-35.729
			c0-5.642-1.319-10.979-3.658-15.728H502c5.523,0,10-4.477,10-10v-44.18C512,389.709,507.523,385.232,502,385.232z
			 M393.748,289.467h82.748c-4.512,18.679-21.357,32.599-41.402,32.599c-19.895,0-36.645-13.711-41.306-32.18L393.748,289.467z
			 M397.622,329.581c10.455,7.837,23.43,12.485,37.472,12.485c14.199,0,27.302-4.759,37.817-12.756l-5.676,55.922h-64.239
			L397.622,329.581z M172.031,254.383h134.785v31.457H172.031V254.383z M233.569,182.643h11.293c5.559,0,10.082,4.522,10.082,10.082
			v41.659h-31.457v-41.659C223.488,187.165,228.01,182.643,233.569,182.643z M190.322,43.132c0-6.617,5.383-12,12-12h85.789v24.18
			h-85.699h-0.09c-6.617,0-12-5.383-12-12V43.132z M190.322,87.401c0-6.667,5.423-12.09,12.09-12.09h85.699v24.18h-85.699
			C195.745,99.491,190.322,94.068,190.322,87.401z M100.575,281.203c0,5.559-4.523,10.082-10.082,10.082H55.81
			c-5.559,0-10.082-4.522-10.082-10.082V119.491h54.846V281.203z M306.816,119.491v114.892h-31.872v-41.659
			c0-15.108-11.197-27.646-25.729-29.763v-16.047c0-5.523-4.477-10-10-10s-10,4.477-10,10v16.047
			c-14.531,2.116-25.729,14.654-25.729,29.763v41.659h-31.457V119.491H306.816z M172.031,305.84h134.785v79.392H172.031V305.84z
			 M203.488,465.14c0,8.673-7.056,15.729-15.729,15.729c-8.672,0-15.728-7.056-15.728-15.729c0-8.672,7.056-15.728,15.728-15.728
			C196.432,449.412,203.488,456.467,203.488,465.14z M466.271,465.14c0,8.673-7.056,15.729-15.728,15.729
			c-8.673,0-15.729-7.056-15.729-15.729c0-8.672,7.056-15.728,15.729-15.728C459.216,449.412,466.271,456.467,466.271,465.14z
			 M492,429.412H146.303v-24.18H492V429.412z"/>
	</g>
</g>
<g>
</g>
<g>
</g>
<g>
</g>
<g>
</g>
<g>
</g>
<g>
</g>
<g>
</g>
<g>
</g>
<g>
</g>
<g>
</g>
<g>
</g>
<g>
</g>
<g>
</g>
<g>
</g>
<g>
</g>
</svg>
