<?xml version="1.0" encoding="iso-8859-1"?>
<!-- Generator: Adobe Illustrator 26.5.3, SVG Export Plug-In . SVG Version: 6.00 Build 0)  -->
<svg version="1.1" id="Capa_1" xmlns="http://www.w3.org/2000/svg" xmlns:xlink="http://www.w3.org/1999/xlink" x="0px" y="0px"
	 viewBox="0 0 511.474 511.474" style="enable-background:new 0 0 511.474 511.474;" xml:space="preserve">
<g>
	<g>
		<g>
			<path style="fill:#D66B59;" d="M486.489,297.537h-66.928h-81.912v-84.616c0-8.275-6.709-14.984-14.984-14.984h-66.928v-89.611
				c0-5.517-4.472-9.989-9.989-9.989H91.912H24.984c-8.275,0-14.984,6.709-14.984,14.984v84.616v99.6v99.6v84.616
				c0,8.275,6.709,14.984,14.984,14.984h148.84h163.824h148.84c8.276,0,14.984-6.709,14.984-14.984v-84.616v-84.616
				C501.473,304.245,494.765,297.537,486.489,297.537z"/>
		</g>
		<g>
			<path style="fill:#B75245;" d="M149.327,238.63c0-50.981,13.349-98.837,36.717-140.293H91.912H24.984
				c-8.275,0-14.984,6.709-14.984,14.984v84.616v99.6v99.6v84.616c0,8.275,6.709,14.984,14.984,14.984h148.84h137.982
				C215.691,450.603,149.327,352.369,149.327,238.63z"/>
		</g>
		<g>
			<path style="fill:#675EFB;" d="M491.483,73.297L491.483,73.297c0,12.697-10.293,22.99-22.99,22.99H381.36
				c-5.143,0-9.312-4.169-9.312-9.312V59.619c0-5.143,4.169-9.312,9.312-9.312h87.133C481.19,50.307,491.483,60.6,491.483,73.297z"
				/>
		</g>
	</g>
	<path style="fill:#022777;" d="M486.474,287.537H347.648v-74.6c0-13.785-11.215-25-25-25h-56.912v-76.45h-20v76.45H101.912v-79.6
		h107.7v-20H25c-13.785,0-25,11.215-25,25v368.4c0,13.785,11.215,25,25,25h461.474c13.785,0,25-11.215,25-25v-169.2
		C511.474,298.752,500.259,287.537,486.474,287.537z M491.474,312.537v74.6h-61.912v-79.6h56.912
		C489.23,307.537,491.474,309.78,491.474,312.537z M409.562,387.137H265.736v-79.6h143.825V387.137z M101.912,387.137v-79.6h143.824
		v79.6H101.912z M20,387.137v-79.6h61.912v79.6H20z M322.648,207.937c2.757,0,5,2.243,5,5v74.6H183.824v-79.6H322.648z
		 M163.824,207.937v79.6H20v-79.6H163.824z M20,113.337c0-2.757,2.243-5,5-5h56.912v79.6H20V113.337z M20,481.737v-74.6h143.824
		v79.6H25C22.243,486.737,20,484.494,20,481.737z M183.824,407.137h143.824v79.6H183.824V407.137z M491.474,481.737
		c0,2.757-2.243,5-5,5H347.648v-79.6h143.825V481.737z"/>
	<g>
		<path style="fill:#63CCD2;" d="M137.996,89.026l111.696,50.013c12.351,5.53,26.84,2.768,36.29-6.917l33.417-34.248
			c13.338-13.67,13.338-35.484,0-49.153l-33.417-34.248c-9.451-9.686-23.94-12.447-36.29-6.917L137.996,57.568
			C124.408,63.652,124.408,82.942,137.996,89.026z"/>
	</g>
	<path style="fill:#022777;" d="M468.493,40.307H381.36c-10.649,0-19.312,8.663-19.312,19.312v3.679h-78.206
		c-5.522,0-10,4.477-10,10s4.478,10,10,10h78.206v3.678c0,10.649,8.663,19.312,19.312,19.312h87.133
		c18.19,0,32.99-14.799,32.99-32.99S486.684,40.307,468.493,40.307z M468.493,86.288h-86.445v-25.98h86.445
		c7.163,0,12.99,5.828,12.99,12.99S475.656,86.288,468.493,86.288z"/>
</g>
<g>
</g>
<g>
</g>
<g>
</g>
<g>
</g>
<g>
</g>
<g>
</g>
<g>
</g>
<g>
</g>
<g>
</g>
<g>
</g>
<g>
</g>
<g>
</g>
<g>
</g>
<g>
</g>
<g>
</g>
</svg>
