<?xml version="1.0" encoding="iso-8859-1"?>
<!-- Generator: Adobe Illustrator 28.1.0, SVG Export Plug-In . SVG Version: 6.00 Build 0)  -->
<svg version="1.1" id="Layer_1" xmlns="http://www.w3.org/2000/svg" xmlns:xlink="http://www.w3.org/1999/xlink" x="0px" y="0px"
	 viewBox="0 0 512 512" style="enable-background:new 0 0 512 512;" xml:space="preserve">
<g>
	<g>
		<g>
			<rect x="88.831" y="213.481" style="fill:#FDCB50;" width="132.698" height="134.102"/>
			<path style="fill:#FD8F01;" d="M123.664,243.862c0-10.562,1.558-20.761,4.457-30.38h-39.29v134.102H210.81
				C161.294,338.913,123.664,295.774,123.664,243.862z"/>
		</g>
		<g>
			<rect x="290.471" y="213.481" style="fill:#FDCB50;" width="132.698" height="134.102"/>
			<path style="fill:#FD8F01;" d="M325.303,243.862c0-10.562,1.558-20.761,4.457-30.38h-39.29v134.102H412.45
				C362.933,338.913,325.303,295.774,325.303,243.862z"/>
		</g>
		<g>
			<rect x="23.532" y="25" style="fill:#FD6050;" width="464.936" height="48.489"/>
			<path style="fill:#DB4B86;" d="M107.405,25H23.532v48.489h107.836C117.824,61.369,108.863,44.232,107.405,25z"/>
		</g>
		<circle style="fill:#67CCD1;" cx="356.82" cy="106.426" r="32.936"/>
		<g>
			<path style="fill:#BC9AF4;" d="M432.292,487H79.708C41.209,487,10,455.791,10,417.292v0c0-38.499,31.209-69.708,69.708-69.708
				h352.583c38.499,0,69.708,31.209,69.708,69.708v0C502,455.791,470.791,487,432.292,487z"/>
			<path style="fill:#6864F7;" d="M150.021,397.322c0-18.081,4.746-35.053,13.06-49.739H79.708
				C41.209,347.583,10,378.793,10,417.292v0C10,455.791,41.209,487,79.708,487H204.39
				C172.078,470.125,150.021,436.299,150.021,397.322z"/>
		</g>
		<path style="fill:#FFFFFF;" d="M202.37,443L202.37,443c-14.198,0-25.709-11.51-25.709-25.708v0
			c0-14.198,11.51-25.708,25.708-25.708h0c14.198,0,25.708,11.51,25.708,25.708v0C228.079,431.49,216.569,443,202.37,443z"/>
		<path style="fill:#FFFFFF;" d="M309.63,443L309.63,443c-14.198,0-25.709-11.51-25.709-25.708v0
			c0-14.198,11.51-25.708,25.708-25.708h0c14.198,0,25.708,11.51,25.708,25.708v0C335.338,431.49,323.828,443,309.63,443z"/>
		<path style="fill:#FFFFFF;" d="M416.889,443L416.889,443c-14.198,0-25.709-11.51-25.709-25.708v0
			c0-14.198,11.51-25.708,25.708-25.708h0c14.198,0,25.708,11.51,25.708,25.708v0C442.597,431.49,431.087,443,416.889,443z"/>
		<path style="fill:#D2DCFD;" d="M95.111,443L95.111,443c-14.198,0-25.709-11.51-25.709-25.708v0
			c0-14.198,11.51-25.708,25.708-25.708h0c14.198,0,25.708,11.51,25.708,25.708v0C120.82,431.49,109.31,443,95.111,443z"/>
	</g>
	<g>
		<g>
			<path style="fill:#FD6050;" d="M165.902,271.784h-21.443c-5.523,0-10-4.478-10-10s4.477-10,10-10h21.443c5.523,0,10,4.478,10,10
				S171.425,271.784,165.902,271.784z"/>
		</g>
		<g>
			<path style="fill:#FD6050;" d="M367.541,271.784h-21.442c-5.523,0-10-4.478-10-10s4.477-10,10-10h21.442c5.523,0,10,4.478,10,10
				S373.064,271.784,367.541,271.784z"/>
		</g>
		<g>
			<g>
				<g>
					<path style="fill:#6864F7;" d="M432.366,177.26c-5.523,0-10-4.478-10-10v-20.714l-36.372-11.265
						c-5.276-1.635,0.095-4.962,1.729-10.239c1.634-5.275-1.089-10.498,4.188-8.867l43.413,13.446
						c4.187,1.297,7.042,5.17,7.042,9.553v28.085C442.366,172.782,437.889,177.26,432.366,177.26z"/>
				</g>
			</g>
			<g>
				<path style="fill:#6864F7;" d="M281.273,177.26c-5.523,0-10-4.478-10-10v-28.085c0-4.383,2.854-8.256,7.042-9.553l43.413-13.446
					c5.277-1.63,4.872,1.294,6.506,6.569c1.634,5.276,4.687,10.902-0.589,12.537l-36.372,11.265v20.714
					C291.273,172.782,286.796,177.26,281.273,177.26z"/>
			</g>
		</g>
		<g>
			<path style="fill:#052A75;" d="M433.168,337.588V213.481c0-5.522-4.477-10-10-10H290.471c-5.523,0-10,4.478-10,10v124.102
				h-48.941V213.481c0-5.522-4.477-10-10-10H88.832c-5.523,0-10,4.478-10,10v124.107C35.283,338.06,0,373.633,0,417.292
				C0,461.243,35.757,497,79.708,497h352.583C476.243,497,512,461.243,512,417.292C512,373.633,476.717,338.06,433.168,337.588z
				 M300.471,223.481h112.698v114.102H300.471V223.481z M211.529,223.481v114.102H98.832V223.481H211.529z M432.292,477H79.708
				C46.785,477,20,450.215,20,417.292c0-32.924,26.785-59.709,59.708-59.709h352.583c32.923,0,59.708,26.785,59.708,59.709
				C492,450.215,465.215,477,432.292,477z"/>
			<path style="fill:#052A75;" d="M23.532,83.489h297.006c-4.212,6.64-6.654,14.508-6.654,22.937
				c0,23.675,19.261,42.936,42.937,42.936c23.675,0,42.936-19.261,42.936-42.936c0-8.428-2.442-16.297-6.654-22.937h95.367
				c5.523,0,10-4.478,10-10V25c0-5.522-4.477-10-10-10H23.532c-5.523,0-10,4.478-10,10v48.489
				C13.532,79.012,18.009,83.489,23.532,83.489z M379.756,106.426c0,12.646-10.289,22.936-22.936,22.936
				c-12.647,0-22.937-10.289-22.937-22.936c0-12.647,10.289-22.937,22.937-22.937C369.467,83.489,379.756,93.778,379.756,106.426z
				 M33.532,35h444.937v28.489H33.532V35z"/>
		</g>
	</g>
</g>
<g>
</g>
<g>
</g>
<g>
</g>
<g>
</g>
<g>
</g>
<g>
</g>
<g>
</g>
<g>
</g>
<g>
</g>
<g>
</g>
<g>
</g>
<g>
</g>
<g>
</g>
<g>
</g>
<g>
</g>
</svg>
