<?xml version="1.0" encoding="iso-8859-1"?>
<!-- Generator: Adobe Illustrator 29.5.1, SVG Export Plug-In . SVG Version: 9.03 Build 0)  -->
<svg version="1.1" id="Layer_1" xmlns="http://www.w3.org/2000/svg" xmlns:xlink="http://www.w3.org/1999/xlink" x="0px" y="0px"
	 viewBox="0 0 512 512" style="enable-background:new 0 0 512 512;" xml:space="preserve">
<g>
	<g>
		<path style="fill:#FDBEB9;" d="M275.926,195.02v68.516c0,44.144-35.786,79.931-79.931,79.931h0
			c-44.144,0-79.931-35.786-79.931-79.931V195.02l79.931-31.631L275.926,195.02z"/>
		<path style="fill:#D46B5C;" d="M116.065,195.02v-6.689c0-44.144,35.786-79.931,79.931-79.931h0
			c44.144,0,79.931,35.786,79.931,79.931v6.689h-52.502c-10.288,0-20.154-4.087-27.429-11.361v0l0,0
			c-7.275,7.275-17.141,11.361-27.429,11.361H116.065z"/>
		<path style="fill:#6864F7;" d="M275.926,195.02h24.937c16.52,0,29.911,13.392,29.911,29.911v20.202
			c0,16.52-13.392,29.911-29.911,29.911h-24.937V195.02z"/>
		<path style="fill:#6864F7;" d="M116.065,275.045H91.128c-16.52,0-29.911-13.392-29.911-29.911v-20.202
			c0-16.52,13.392-29.911,29.911-29.911h24.937V275.045z"/>
		<path style="fill:#BC9AF4;" d="M54.182,501.999V357.551c0-16.636,13.486-30.122,30.122-30.122h223.381
			c16.636,0,30.122,13.486,30.122,30.122v144.449H54.182z"/>
		<path style="fill:#6864F7;" d="M141.954,383.326c0-19.569,3.275-38.371,9.296-55.897H84.305
			c-16.636,0-30.122,13.486-30.122,30.122v144.449h135.275C160.025,471.135,141.954,429.341,141.954,383.326z"/>
		<path style="fill:#FD6050;" d="M54.182,501.999H10v-59.798c0-23.625,13.808-45.069,35.315-54.845l8.867-4.03V501.999z"/>
		<path style="fill:#FD6050;" d="M337.808,501.999h44.182v-59.798c0-23.625-13.808-45.069-35.315-54.845l-8.867-4.03V501.999z"/>
		<path style="fill:#B1D952;" d="M471.877,10H362.281c-16.636,0-30.122,13.486-30.122,30.122v39.926
			c0,16.636,13.486,30.122,30.122,30.122h13.517l21.198,21.198l21.198-21.198h53.683c16.636,0,30.122-13.486,30.122-30.122V40.123
			C502,23.486,488.514,10,471.877,10z"/>
		<circle style="fill:#FDCB50;" cx="195.995" cy="414.714" r="22.09"/>
	</g>
	<g>
		<path style="fill:#6864F7;" d="M232.48,295.991h-25.317c-5.523,0-10-4.477-10-10s4.477-10,10-10h25.317
			c15.081,0,28.54-9.563,33.49-23.797c1.814-5.216,7.506-7.977,12.73-6.161c5.216,1.814,7.974,7.514,6.16,12.73
			C277.117,281.03,256.067,295.991,232.48,295.991z"/>
		<path style="fill:#93B2F4;" d="M330.109,202.04h-20v-13.709c0-62.922-51.191-114.113-114.113-114.113
			c-62.922,0-114.113,51.191-114.113,114.113v13.709h-20v-13.709c0-73.95,60.163-134.113,134.113-134.113
			c73.951,0,134.114,60.163,134.114,134.113V202.04z"/>
		<path style="fill:#052A75;" d="M350.813,378.252l-3.005-1.366v-19.335c0-22.124-17.999-40.123-40.122-40.123h-39.632
			c7.253-9.645,12.449-20.626,15.307-32.383h17.502c22.007,0,39.911-17.904,39.911-39.912v-20.202
			c0-22.007-17.904-39.912-39.911-39.912h-15.004c-1.749-48.059-41.384-86.62-89.864-86.62c-48.479,0-88.114,38.56-89.863,86.62
			H91.128c-22.007,0-39.911,17.904-39.911,39.912v20.202c0,22.007,17.904,39.912,39.911,39.912h17.502
			c2.858,11.757,8.053,22.738,15.307,32.383H84.305c-22.124,0-40.123,17.999-40.123,40.123v19.336l-3.005,1.366
			C16.163,389.623,0,414.724,0,442.201v59.798c0,5.523,4.477,10,10,10h371.991c5.522,0,10-4.477,10-10v-59.798
			C391.991,414.724,375.828,389.623,350.813,378.252z M320.774,224.931v20.202c0,10.979-8.932,19.912-19.911,19.912h-14.958
			c0.008-0.503,0.022-1.005,0.022-1.509V205.02h14.937C311.842,205.02,320.774,213.952,320.774,224.931z M91.128,265.045
			c-10.979,0-19.911-8.932-19.911-19.912v-20.202c0-10.979,8.932-19.912,19.911-19.912h14.937v58.516
			c0,0.504,0.013,1.006,0.022,1.509H91.128z M126.064,263.536v-75.205c0-38.56,31.371-69.931,69.931-69.931
			s69.931,31.371,69.931,69.931v75.205c0,21.088-9.209,40.548-25.371,53.892h-89.118
			C135.274,304.083,126.064,284.624,126.064,263.536z M20,442.201c0-17.648,9.325-33.92,24.182-42.948v92.746H20V442.201z
			 M327.808,491.999H64.182V357.551c0-11.096,9.027-20.123,20.123-20.123h223.381c11.096,0,20.122,9.027,20.122,20.123V491.999z
			 M371.991,491.999h-24.183v-92.746c14.857,9.027,24.183,25.3,24.183,42.948V491.999z"/>
		<path style="fill:#052A75;" d="M471.877,0H362.281c-22.124,0-40.123,17.999-40.123,40.123v39.926
			c0,22.124,17.999,40.123,40.123,40.123h9.375l18.27,18.27c1.953,1.952,4.512,2.929,7.071,2.929s5.118-0.977,7.071-2.929
			l18.27-18.27h49.54C494,120.171,512,102.172,512,80.049V40.123C512,17.999,494,0,471.877,0z M492,80.049
			c0,11.096-9.026,20.123-20.122,20.123h-53.683c-2.652,0-5.195,1.054-7.071,2.929l-14.127,14.127L382.87,103.1
			c-1.876-1.875-4.419-2.929-7.071-2.929h-13.518c-11.096,0-20.123-9.027-20.123-20.123V40.123c0-11.096,9.027-20.123,20.123-20.123
			h109.597C482.973,20,492,29.027,492,40.123V80.049z"/>
		<path style="fill:#FFFFFF;" d="M452.724,70.086h-71.29c-5.522,0-10-4.477-10-10s4.478-10,10-10h71.29c5.522,0,10,4.477,10,10
			S458.247,70.086,452.724,70.086z"/>
	</g>
</g>
<g>
</g>
<g>
</g>
<g>
</g>
<g>
</g>
<g>
</g>
<g>
</g>
<g>
</g>
<g>
</g>
<g>
</g>
<g>
</g>
<g>
</g>
<g>
</g>
<g>
</g>
<g>
</g>
<g>
</g>
</svg>
