<?xml version="1.0" encoding="iso-8859-1"?>
<!-- Generator: Adobe Illustrator 26.5.3, SVG Export Plug-In . SVG Version: 6.00 Build 0)  -->
<svg version="1.1" id="Capa_1" xmlns="http://www.w3.org/2000/svg" xmlns:xlink="http://www.w3.org/1999/xlink" x="0px" y="0px"
	 viewBox="0 0 512.008 512.008" style="enable-background:new 0 0 512.008 512.008;" xml:space="preserve">
<g>
	<g>
		<path style="fill-rule:evenodd;clip-rule:evenodd;fill:#67CCD1;" d="M38.401,150.576c43.408,11.632,87.299,17.381,132.236,17.381
			c44.937,0,88.829-5.75,132.237-17.381V30.086c-43.408,11.632-87.3,17.382-132.237,17.382c-44.938,0-88.828-5.75-132.236-17.382
			V150.576z"/>
		<path style="fill-rule:evenodd;clip-rule:evenodd;fill:#67CCD1;" d="M170.637,265.043c-44.938,0-88.828-5.75-132.236-17.382
			c-12.038-3.216-24.406,3.935-27.622,15.973c-3.217,12.039,3.934,24.406,15.973,27.622c21.07,5.646,42.645,10.065,64.42,13.212
			c26.375,3.812,53.043,5.758,79.465,5.758c26.422,0,53.091-1.946,79.465-5.758c21.775-3.147,43.35-7.566,64.421-13.212
			c12.038-3.217,19.189-15.584,15.973-27.622c-3.216-12.038-15.583-19.189-27.622-15.973
			C259.466,259.293,215.575,265.043,170.637,265.043z"/>
		<polygon style="fill-rule:evenodd;clip-rule:evenodd;fill:#FDCB50;" points="406.54,291.256 366.377,502.004 502.008,502.004 
			461.844,291.256 		"/>
		<path style="fill-rule:evenodd;clip-rule:evenodd;fill:#27A2CC;" d="M147.01,100.124c0-18.932,4.366-36.843,12.146-52.783
			c-40.943-0.898-81.051-6.617-120.755-17.256v120.491c42.526,11.396,85.516,17.146,129.499,17.374
			C154.718,148.631,147.01,125.277,147.01,100.124z"/>
		<path style="fill-rule:evenodd;clip-rule:evenodd;fill:#FD8F01;" d="M495.602,468.39c-51.375-4.833-93.369-41.924-105.514-90.806
			l-23.712,124.421h135.631L495.602,468.39z"/>
	</g>
	<g>
		<path style="fill:#052A75;" d="M317.105,300.918c17.346-4.635,27.688-22.518,23.053-39.865
			c-3.505-13.118-14.586-22.229-27.283-23.887V10.004c0-5.523-4.477-10-10-10s-10,4.477-10,10v12.348
			c-39.828,10.03-80.944,15.115-122.237,15.115c-41.289,0-82.401-5.085-122.236-15.115V10.004c0-5.523-4.477-10-10-10
			s-10,4.477-10,10v227.162c-12.696,1.659-23.778,10.769-27.283,23.887c-2.245,8.403-1.084,17.177,3.27,24.707
			s11.38,12.913,19.776,15.156c20.649,5.533,41.57,9.888,62.654,13.051l68.726,60.782L20.127,494.513
			c-4.137,3.659-4.524,9.979-0.866,14.116c1.977,2.234,4.729,3.375,7.495,3.375c2.354,0,4.719-0.827,6.621-2.509l137.261-121.396
			l137.261,121.396c1.903,1.683,4.267,2.509,6.621,2.509c2.766,0,5.519-1.141,7.495-3.375c3.659-4.137,3.271-10.457-0.866-14.116
			L185.732,374.749l68.726-60.782C275.54,310.804,296.459,306.45,317.105,300.918z M48.401,163.442
			c39.908,9.634,80.988,14.515,122.236,14.515c41.249,0,82.33-4.881,122.237-14.516v76.485
			c-39.885,10.033-80.968,15.116-122.237,15.116c-41.267,0-82.347-5.083-122.236-15.116V163.442z M170.637,57.467
			c41.253,0,82.341-4.882,122.237-14.516v99.891c-39.84,10.03-80.949,15.115-122.237,15.115c-41.287,0-82.395-5.085-122.236-15.115
			V42.951C88.304,52.586,129.387,57.467,170.637,57.467z M21.701,275.748c-1.68-2.905-2.127-6.29-1.261-9.532
			c1.499-5.611,6.591-9.322,12.138-9.322c1.019,0,2.053,0.125,3.083,0.387c0.112,0.032,0.224,0.061,0.338,0.089
			c43.828,11.727,89.126,17.673,134.638,17.673c45.513,0,90.812-5.946,134.639-17.673c0.115-0.028,0.229-0.058,0.342-0.09
			c6.641-1.681,13.443,2.298,15.217,8.935c1.788,6.692-2.202,13.592-8.9,15.382c-46.133,12.361-93.672,18.629-141.298,18.629
			c-47.625,0-95.165-6.268-141.304-18.631C26.092,280.729,23.381,278.652,21.701,275.748z M170.638,361.399l-48.962-43.303
			c16.277,1.418,32.614,2.13,48.962,2.13c16.348,0,32.685-0.713,48.963-2.131L170.638,361.399z"/>
		<path style="fill:#052A75;" d="M511.831,500.132l-40.163-210.748c-0.899-4.716-5.022-8.128-9.823-8.128H406.54
			c-4.801,0-8.924,3.412-9.823,8.128l-7.889,41.395l-8.888-1.694c-19.304-3.679-37.997,9.033-41.676,28.333
			c-3.677,19.301,9.033,37.996,28.333,41.674l8.889,1.694l-18.933,99.344c-0.558,2.927,0.219,5.951,2.119,8.247
			s4.725,3.625,7.705,3.625h135.631c2.98,0,5.805-1.329,7.705-3.625S512.389,503.059,511.831,500.132z M370.342,379.447
			c-8.468-1.614-14.045-9.816-12.432-18.284c1.614-8.468,9.812-14.044,18.286-12.431l8.888,1.693l-5.854,30.715L370.342,379.447z
			 M378.463,492.004l36.352-190.748h38.755l36.352,190.748H378.463z"/>
	</g>
</g>
<g>
</g>
<g>
</g>
<g>
</g>
<g>
</g>
<g>
</g>
<g>
</g>
<g>
</g>
<g>
</g>
<g>
</g>
<g>
</g>
<g>
</g>
<g>
</g>
<g>
</g>
<g>
</g>
<g>
</g>
</svg>
