<?xml version="1.0" encoding="iso-8859-1"?>
<!-- Generator: Adobe Illustrator 26.5.1, SVG Export Plug-In . SVG Version: 6.00 Build 0)  -->
<svg version="1.1" id="Capa_1" xmlns="http://www.w3.org/2000/svg" xmlns:xlink="http://www.w3.org/1999/xlink" x="0px" y="0px"
	 viewBox="0 0 510 510" style="enable-background:new 0 0 510 510;" xml:space="preserve">
<g>
	<g>
		<polygon style="fill-rule:evenodd;clip-rule:evenodd;fill:#93B2F4;" points="500,500 500,450 474.895,450 359.896,450 
			289.895,450 174.896,450 10,450 10,500 		"/>
		<polygon style="fill-rule:evenodd;clip-rule:evenodd;fill:#FD6050;" points="125.105,277.5 170.105,277.5 170.105,232.5 
			125.105,232.5 125.105,187.5 80.105,187.5 80.105,232.5 35.105,232.5 35.105,277.5 80.105,277.5 80.105,322.5 125.105,322.5 		"/>
		<path style="fill-rule:evenodd;clip-rule:evenodd;fill:#D46B5C;" d="M234.896,191.212c0,38.994,25.133,72.403,60,84.828
			c9.394,3.347,19.495,5.172,30,5.172c10.506,0,20.606-1.824,30-5.172c34.867-12.425,60-45.834,60-84.828v-10.001v-50h-6.261
			c-22.822,0-40.536-11.723-52.426-29.443c-10.634,17.606-29.961,29.443-51.919,29.443h-69.394v50V191.212z"/>
		<path style="fill-rule:evenodd;clip-rule:evenodd;fill:#B55348;" d="M414.896,166.711v-35.5h-6.261
			c-22.822,0-40.536-11.723-52.426-29.443c-10.634,17.606-29.961,29.443-51.919,29.443h-69.394v35.5h69.394
			c18.705,0,36.647-5.216,52.092-14.597c15.292,9.394,32.982,14.597,52.253,14.597H414.896z"/>
		<path style="fill-rule:evenodd;clip-rule:evenodd;fill:#B55348;" d="M214.896,181.211h20v-50h-20c-13.75,0-25,11.25-25,25
			S201.145,181.211,214.896,181.211z"/>
		<path style="fill-rule:evenodd;clip-rule:evenodd;fill:#B55348;" d="M414.896,131.211v50h20c13.75,0,25-11.25,25-25
			s-11.25-25-25-25H414.896z"/>
		<path style="fill-rule:evenodd;clip-rule:evenodd;fill:#FDE0BE;" d="M408.635,131.211h6.261h20v-54.78
			c0-25.4-20.781-46.181-46.181-46.181H363.27C359.213,18.5,348.02,10,334.936,10h-59.435c-33.333,0-60.606,27.273-60.606,60.606
			v60.606h20h69.394c21.958,0,41.284-11.836,51.919-29.443C368.098,119.488,385.813,131.211,408.635,131.211z"/>
		<path style="fill-rule:evenodd;clip-rule:evenodd;fill:#D46B5C;" d="M354.895,303.074V276.04c-9.394,3.347-19.494,5.172-30,5.172
			c-10.506,0-20.606-1.824-30-5.172v27.035c-27.466,5.632-52.842,18.996-73.21,38.368c-8.836,8.404-16.657,17.867-23.253,28.18
			c-14.882,23.268-23.529,50.862-23.536,80.377c99.999,0,199.999,0,299.998,0c-0.008-29.515-8.654-57.109-23.536-80.377
			c-6.596-10.313-14.417-19.776-23.253-28.18C407.753,322.085,382.399,308.715,354.895,303.074z"/>
		<path style="fill-rule:evenodd;clip-rule:evenodd;fill:#B55348;" d="M354.895,303.074V276.04c-9.394,3.347-19.494,5.172-30,5.172
			c-10.506,0-20.606-1.824-30-5.172v27.035c-7.904,1.621-15.634,3.883-23.121,6.743c3.16,1.421,6.393,2.724,9.694,3.901
			c13.944,4.969,28.625,7.493,43.427,7.493c14.802,0,29.483-2.524,43.427-7.492c3.302-1.177,6.535-2.481,9.696-3.902
			C370.534,306.958,362.804,304.696,354.895,303.074z"/>
		<path style="fill-rule:evenodd;clip-rule:evenodd;fill:#BC9AF4;" d="M474.895,450c-0.008-29.515-8.654-57.109-23.536-80.377
			c-6.596-10.313-14.417-19.776-23.253-28.18c-16.506-15.698-36.554-27.701-58.782-34.645c-0.653,9.218-4.079,17.616-9.428,24.402
			c-8.182,10.381-20.864,16.99-35,16.99c-14.136,0-26.817-6.609-35-16.99c-5.349-6.786-8.776-15.184-9.429-24.403
			c-22.227,6.944-42.276,18.947-58.781,34.645c-8.836,8.404-16.657,17.867-23.253,28.18c-14.882,23.268-23.529,50.862-23.536,80.377
			C274.896,450,374.895,450,474.895,450z"/>
		<path style="fill-rule:evenodd;clip-rule:evenodd;fill:#D2DCFD;" d="M359.896,450h114.999
			c-0.008-29.515-8.654-57.109-23.536-80.377c-6.596-10.313-14.417-19.776-23.253-28.18c-16.506-15.698-36.554-27.701-58.782-34.645
			c-0.653,9.218-4.079,17.616-9.428,24.402V450z"/>
		<path style="fill-rule:evenodd;clip-rule:evenodd;fill:#D2DCFD;" d="M221.686,341.442c-8.836,8.404-16.657,17.867-23.253,28.18
			c-14.882,23.268-23.529,50.862-23.536,80.377l114.999,0V331.2c-5.349-6.786-8.776-15.184-9.429-24.403
			C258.24,313.741,238.191,325.744,221.686,341.442z"/>
		<path style="fill-rule:evenodd;clip-rule:evenodd;fill:#FFFFFF;" d="M289.896,450V331.2c-5.349-6.786-8.776-15.184-9.429-24.403
			c-22.227,6.944-42.276,18.947-58.781,34.645l23.209,28.908l-14.25,27.75L289.896,450z"/>
		<path style="fill-rule:evenodd;clip-rule:evenodd;fill:#FFFFFF;" d="M359.896,331.2V450l59.25-51.9l-14.25-27.75l23.21-28.907
			c-16.506-15.698-36.554-27.701-58.782-34.645C368.671,316.016,365.245,324.414,359.896,331.2z"/>
	</g>
	<g>
		<path style="fill:#052A75;" d="M500,440h-15.423c-2.153-33.812-15.203-66.444-37.165-92.597
			c-21.487-25.587-50.548-43.939-82.516-52.265v-12.277c35.287-15.46,60-50.723,60-91.65v0h10c19.299,0,35-15.701,35-35
			c0-15.826-10.558-29.231-25-33.544V76.431c0-30.979-25.203-56.182-56.181-56.182h-19.036C362.66,7.9,349.47,0,334.937,0h-59.435
			c-38.932,0-70.605,31.673-70.605,70.605v52.061c-14.442,4.313-25,17.719-25,33.544c0,19.299,15.701,35,35,35h10v0
			c0,40.926,24.713,76.189,60,91.65v12.277c-31.778,8.278-60.709,26.478-82.154,51.835c-22.167,26.212-35.367,59.034-37.528,93.026
			H10c-5.523,0-10,4.477-10,10v50c0,5.523,4.477,10,10,10h490c5.523,0,10-4.477,10-10v-50C510,444.477,505.522,440,500,440z
			 M464.531,440h-94.635V334.527c2.994-4.368,5.373-9.207,7.008-14.402C425.85,339.922,460.643,386.605,464.531,440z M299.896,440
			v-87.838c7.505,3.862,16.012,6.029,25,6.029c8.988,0,17.495-2.166,25-6.029V440H299.896z M449.896,156.211c0,8.271-6.729,15-15,15
			h-10v-30h10C443.167,141.211,449.896,147.94,449.896,156.211z M224.896,70.605c0-27.904,22.702-50.605,50.605-50.605h59.435
			c8.503,0,16.09,5.43,18.88,13.513c1.392,4.032,5.188,6.737,9.453,6.737h25.444c19.95,0,36.181,16.231,36.181,36.182v44.78h-16.26
			c-22.594,0-36.465-13.603-44.123-25.015c-1.86-2.772-4.976-4.428-8.303-4.428c-0.08,0-0.16,0.001-0.239,0.003
			c-3.417,0.082-6.555,1.902-8.322,4.827c-9.169,15.182-25.784,24.613-43.359,24.613h-79.394V70.605z M214.896,171.211
			c-8.271,0-15-6.729-15-15s6.729-15,15-15h10v30H214.896z M244.896,191.211v-50h59.394c19.865,0,38.839-8.61,52.119-23.106
			c13.091,14.061,29.858,22.069,48.487,23.012v50.094c0,44.112-35.888,80-80,80S244.896,235.324,244.896,191.211z M324.896,291.211
			c6.847,0,13.536-0.692,20-2.009v13.873c0,4.749,3.339,8.842,7.991,9.796c1.67,0.342,3.328,0.715,4.975,1.117
			c-4.417,14.179-17.579,24.202-32.966,24.202s-28.55-10.023-32.966-24.202c1.647-0.402,3.305-0.775,4.975-1.117
			c4.652-0.954,7.991-5.048,7.991-9.796v-13.873C311.36,290.519,318.048,291.211,324.896,291.211z M272.891,320.135
			c1.635,5.191,4.013,10.027,7.005,14.392V440h-94.636C189.148,386.669,224.027,339.939,272.891,320.135z M490,490H20v-30h470V490z"
			/>
		<path style="fill:#052A75;" d="M284.899,171.211h-0.007c-5.523,0-9.997,4.477-9.997,10s4.481,10,10.004,10s10-4.477,10-10
			S290.422,171.211,284.899,171.211z"/>
		<path style="fill:#052A75;" d="M364.899,191.211c5.523,0,10-4.477,10-10s-4.477-10-10-10h-0.007c-5.523,0-9.997,4.477-9.997,10
			S359.376,191.211,364.899,191.211z"/>
		<path style="fill:#052A75;" d="M345.146,226.794c4.783-2.761,6.422-8.877,3.66-13.66c-2.761-4.784-8.878-6.422-13.66-3.66
			c-3.112,1.796-6.656,2.746-10.25,2.746s-7.138-0.95-10.25-2.746c-4.782-2.761-10.898-1.123-13.66,3.66
			c-2.762,4.783-1.123,10.899,3.66,13.66c6.148,3.55,13.15,5.426,20.25,5.426S338.998,230.344,345.146,226.794z"/>
		<path style="fill:#052A75;" d="M35.104,287.5h35v35c0,5.523,4.477,10,10,10h45c5.523,0,10-4.477,10-10v-35h35
			c5.523,0,10-4.477,10-10v-45c0-5.523-4.477-10-10-10h-35v-35c0-5.523-4.477-10-10-10h-45c-5.523,0-10,4.477-10,10v35h-35
			c-5.523,0-10,4.477-10,10v45C25.104,283.022,29.582,287.5,35.104,287.5z M45.104,242.5h35c5.523,0,10-4.477,10-10v-35h25v35
			c0,5.523,4.477,10,10,10h35v25h-35c-5.523,0-10,4.477-10,10v35h-25v-35c0-5.523-4.477-10-10-10h-35V242.5z"/>
	</g>
</g>
<g>
</g>
<g>
</g>
<g>
</g>
<g>
</g>
<g>
</g>
<g>
</g>
<g>
</g>
<g>
</g>
<g>
</g>
<g>
</g>
<g>
</g>
<g>
</g>
<g>
</g>
<g>
</g>
<g>
</g>
</svg>
