<?xml version="1.0" encoding="iso-8859-1"?>
<!-- Generator: Adobe Illustrator 29.8.1, SVG Export Plug-In . SVG Version: 9.03 Build 0)  -->
<svg version="1.1" id="Layer_1" xmlns="http://www.w3.org/2000/svg" xmlns:xlink="http://www.w3.org/1999/xlink" x="0px" y="0px"
	 viewBox="0 0 510 510" style="enable-background:new 0 0 510 510;" xml:space="preserve">
<g>
	<g>
		<g>
			<g>
				<path style="fill:#FDCB50;" d="M332.795,96v240.291c0,42.965-34.83,77.795-77.795,77.795l0,0
					c-42.965,0-77.795-34.83-77.795-77.795V96H10v382h490V96H332.795z"/>
			</g>
			<g>
				<path style="fill:#FD8F01;" d="M109.546,229.553c0-47.717,10.562-92.961,29.443-133.553H10v382h219.634
					C156.473,419.921,109.546,330.222,109.546,229.553z"/>
			</g>
			<g>
				<g>
					<polygon style="fill:#D46B5C;" points="177.205,304.5 177.205,96 10,96 10,304.5 68.562,280.362 118.481,304.5 					"/>
				</g>
				<g>
					<path style="fill:#B55348;" d="M109.546,229.553c0-47.717,10.562-92.961,29.443-133.553H10v208.5h108.481
						C112.656,280.468,109.546,255.375,109.546,229.553z"/>
				</g>
				<g>
					<rect x="332.795" y="96" style="fill:#D46B5C;" width="167.205" height="208.5"/>
				</g>
			</g>
			<g>
				<g>
					<polygon style="fill:#B1D952;" points="177.205,96 10,96 10,168 65.746,148.029 115.538,168 177.205,168 					"/>
				</g>
				<g>
					<path style="fill:#91B706;" d="M138.989,96H10v72h105.538C120.497,142.799,128.442,118.674,138.989,96z"/>
				</g>
				<g>
					<rect x="332.795" y="96" style="fill:#B1D952;" width="167.205" height="72"/>
				</g>
			</g>
		</g>
		<g>
			<polygon style="fill:#93B2F4;" points="255,353 277,331 277,32 233,32 233,331 			"/>
		</g>
	</g>
	<g>
		<g>
			<path style="fill:#052A75;" d="M500,86H332.795c-5.522,0-10,4.477-10,10v240.292c0,37.382-30.413,67.794-67.795,67.794
				s-67.795-30.413-67.795-67.794V96c0-5.523-4.478-10-10-10H10C4.478,86,0,90.477,0,96v382c0,5.523,4.478,10,10,10h490
				c5.522,0,10-4.477,10-10V96C510,90.477,505.522,86,500,86z M490,468H20V106h147.205v230.292c0,48.41,39.385,87.794,87.795,87.794
				s87.795-39.384,87.795-87.794V106H490V468z"/>
			<path style="fill:#052A75;" d="M216,296.831c-4.783,2.761-6.422,8.877-3.66,13.66c1.853,3.208,5.213,5.001,8.67,5.001
				c0.664,0,1.329-0.087,1.99-0.222V331c0,2.652,1.054,5.196,2.929,7.071l22,22C249.882,362.024,252.44,363,255,363
				s5.118-0.976,7.071-2.929l22-22c1.875-1.875,2.929-4.419,2.929-7.071v-52.068l7-4.042c4.783-2.761,6.422-8.877,3.66-13.66
				c-2.207-3.824-6.559-5.631-10.66-4.793v-33.813l7-4.042c4.783-2.761,6.422-8.877,3.66-13.66c-2.207-3.824-6.559-5.63-10.66-4.792
				v-33.813l7-4.042c4.783-2.761,6.422-8.877,3.66-13.66c-2.207-3.824-6.559-5.631-10.66-4.793v-33.813l7-4.042
				c4.783-2.761,6.422-8.877,3.66-13.66c-2.207-3.824-6.559-5.63-10.66-4.792V32c0-5.523-4.478-10-10-10h-44
				c-5.522,0-10,4.477-10,10v91.866l-7,4.042c-4.783,2.761-6.422,8.877-3.66,13.66c1.853,3.208,5.213,5.001,8.67,5.001
				c0.664,0,1.329-0.087,1.99-0.222v33.826l-7,4.042c-4.783,2.761-6.422,8.877-3.66,13.66c1.853,3.208,5.213,5.001,8.67,5.001
				c0.664,0,1.329-0.087,1.99-0.222v33.826l-7,4.042c-4.783,2.761-6.422,8.877-3.66,13.66c1.853,3.208,5.213,5.001,8.67,5.001
				c0.664,0,1.329-0.087,1.99-0.222v33.826L216,296.831z M243,42h24v56.463l-24,13.857V42z M243,135.413l24-13.857v33.214
				l-24,13.857V135.413z M243,191.721l24-13.857v33.214l-24,13.857V191.721z M243,248.028l24-13.857v33.214l-24,13.857V248.028z
				 M243,304.336l24-13.857v36.379l-12,12l-12-12V304.336z"/>
		</g>
		<g>
			<g>
				<path style="fill:#B55348;" d="M54,361.973c-2.56,0-5.118-0.976-7.071-2.929c-3.905-3.905-3.905-10.237,0-14.143l3.473-3.473
					c3.906-3.905,10.236-3.905,14.143,0c3.905,3.905,3.905,10.237,0,14.143l-3.473,3.473C59.118,360.997,56.56,361.973,54,361.973z"
					/>
			</g>
			<g>
				<path style="fill:#B55348;" d="M54,444c-2.56,0-5.118-0.976-7.071-2.929c-3.905-3.905-3.905-10.237,0-14.143l3.473-3.473
					c3.906-3.905,10.236-3.905,14.143,0c3.905,3.905,3.905,10.237,0,14.143l-3.473,3.473C59.118,443.024,56.56,444,54,444z"/>
			</g>
			<g>
				<path style="fill:#B55348;" d="M173.732,444c-2.56,0-5.118-0.976-7.071-2.929c-3.905-3.905-3.905-10.237,0-14.143l3.473-3.473
					c3.906-3.905,10.236-3.905,14.143,0c3.905,3.905,3.905,10.237,0,14.143l-3.473,3.473C178.851,443.024,176.292,444,173.732,444z"
					/>
			</g>
			<g>
				<path style="fill:#B55348;" d="M95.084,404.824c-2.56,0-5.118-0.976-7.071-2.929c-3.905-3.905-3.905-10.237,0-14.143
					l3.473-3.473c3.906-3.905,10.236-3.905,14.143,0c3.905,3.905,3.905,10.237,0,14.143l-3.473,3.473
					C100.202,403.848,97.644,404.824,95.084,404.824z"/>
			</g>
			<g>
				<path style="fill:#B55348;" d="M129.84,361.973c-2.56,0-5.118-0.976-7.071-2.929c-3.905-3.905-3.905-10.237,0-14.143
					l3.473-3.473c3.906-3.905,10.236-3.905,14.143,0c3.905,3.905,3.905,10.237,0,14.143l-3.473,3.473
					C134.958,360.997,132.399,361.973,129.84,361.973z"/>
			</g>
		</g>
		<g>
			<g>
				<path style="fill:#B55348;" d="M452.7,361.973c-2.56,0-5.118-0.976-7.071-2.929c-3.905-3.905-3.905-10.237,0-14.143l3.473-3.473
					c3.906-3.905,10.236-3.905,14.143,0c3.905,3.905,3.905,10.237,0,14.143l-3.473,3.473
					C457.818,360.997,455.26,361.973,452.7,361.973z"/>
			</g>
			<g>
				<path style="fill:#B55348;" d="M328.691,444c-2.56,0-5.118-0.976-7.071-2.929c-3.905-3.905-3.905-10.237,0-14.143l3.473-3.473
					c3.906-3.905,10.236-3.905,14.143,0c3.905,3.905,3.905,10.237,0,14.143l-3.473,3.473C333.81,443.024,331.251,444,328.691,444z"
					/>
			</g>
			<g>
				<path style="fill:#B55348;" d="M452.527,444c-2.56,0-5.118-0.976-7.071-2.929c-3.905-3.905-3.905-10.237,0-14.143l3.473-3.473
					c3.906-3.905,10.236-3.905,14.143,0c3.905,3.905,3.905,10.237,0,14.143l-3.473,3.473C457.646,443.024,455.087,444,452.527,444z"
					/>
			</g>
			<g>
				<path style="fill:#B55348;" d="M409.65,404.824c-2.559,0-5.117-0.976-7.07-2.928c-3.905-3.905-3.906-10.236-0.002-14.143
					l3.472-3.473c3.905-3.905,10.235-3.907,14.143-0.002c3.905,3.905,3.906,10.236,0.002,14.143l-3.472,3.473
					C414.77,403.848,412.21,404.824,409.65,404.824z"/>
			</g>
			<g>
				<path style="fill:#B55348;" d="M376.211,361.973c-2.56,0-5.118-0.976-7.071-2.929c-3.905-3.905-3.905-10.237,0-14.143
					l3.473-3.473c3.906-3.905,10.236-3.905,14.143,0c3.905,3.905,3.905,10.237,0,14.143l-3.473,3.473
					C381.329,360.997,378.771,361.973,376.211,361.973z"/>
			</g>
		</g>
	</g>
</g>
<g>
</g>
<g>
</g>
<g>
</g>
<g>
</g>
<g>
</g>
<g>
</g>
<g>
</g>
<g>
</g>
<g>
</g>
<g>
</g>
<g>
</g>
<g>
</g>
<g>
</g>
<g>
</g>
<g>
</g>
</svg>
