<?xml version="1.0" encoding="iso-8859-1"?>
<!-- Generator: Adobe Illustrator 26.5.3, SVG Export Plug-In . SVG Version: 6.00 Build 0)  -->
<svg version="1.1" id="Capa_1" xmlns="http://www.w3.org/2000/svg" xmlns:xlink="http://www.w3.org/1999/xlink" x="0px" y="0px"
	 viewBox="0 0 512 512" style="enable-background:new 0 0 512 512;" xml:space="preserve">
<g>
	<g>
		<path style="fill:#B1D952;" d="M202.723,303.81c49.994,0,92.223,33.218,105.839,78.785l29.89-63.766l52.812,24.756
			l-59.411,126.745H10v-56.064c0-61.003,49.452-110.455,110.455-110.455H202.723z"/>
		<path style="fill:#FD7DA0;" d="M201.201,258.147v46.357c0,21.877-17.735,39.613-39.613,39.613h0
			c-21.877,0-39.613-17.735-39.613-39.613v-46.357H201.201z"/>
		<path style="fill:#FDBEB9;" d="M85.6,107.701v41.606c-13.124,0-23.763,10.639-23.763,23.763c0,13.124,10.639,23.763,23.763,23.763
			v5.586c0,41.968,34.021,75.989,75.989,75.989h0c41.968,0,75.989-34.021,75.989-75.989v-5.586
			c13.124,0,23.763-10.639,23.763-23.763c0-13.124-10.639-23.763-23.763-23.763v-21.606L85.6,107.701z"/>
		<path style="fill:#FDBEB9;" d="M338.452,318.829v-4.32c0-11.931,9.672-21.602,21.602-21.602h101.831v10.716
			c0,22.071-17.892,39.962-39.962,39.962h-30.659L338.452,318.829z"/>
		<path style="fill:#FFFFFF;" d="M472,57.352H337.037c-16.569,0-30,13.431-30,30v131.511c0,16.569,13.431,30,30,30H472
			c16.569,0,30-13.431,30-30V87.352C502,70.784,488.569,57.352,472,57.352z"/>
		<path style="fill:#D46B5C;" d="M119.178,41.671L119.178,41.671l-12.653,0c-23.756,0-43.015,19.258-43.015,43.015v0
			c0,23.756,19.258,43.015,43.015,43.015h131.053v-24.098c0-16.636-13.486-30.122-30.122-30.122h-56.468
			C133.42,73.481,119.178,59.239,119.178,41.671z"/>
		<polygon style="fill:#FDCB50;" points="404.519,111.573 422.912,137.728 453.47,147.138 434.279,172.713 434.772,204.684 
			404.519,194.335 374.265,204.684 374.758,172.713 355.567,147.138 386.126,137.728 		"/>
		<path style="fill:#91B706;" d="M103.469,377.994c0-25.994,4.488-50.939,12.732-74.103C57.17,306.126,10,354.687,10,414.265v56.064
			h113.626C110.686,442.232,103.469,410.956,103.469,377.994z"/>
	</g>
	<g>
		<path style="fill:#052A75;" d="M161.589,241.47c21.289,0,38.608-17.32,38.608-38.608c0-5.523-4.477-10-10-10s-10,4.477-10,10
			c0,10.261-8.348,18.608-18.608,18.608s-18.608-8.348-18.608-18.608c0-5.523-4.477-10-10-10s-10,4.477-10,10
			C122.98,224.15,140.3,241.47,161.589,241.47z"/>
		<path style="fill:#052A75;" d="M461.885,282.906H360.054c-17.425,0-31.602,14.177-31.602,31.602v2.093l-19.328,41.234
			c-8.223-15.427-19.798-29.099-33.807-39.695c-18.78-14.206-40.795-22.434-64.115-24.039v-21.485
			c21.253-15.064,35.398-39.526,36.327-67.28c13.775-4.257,23.812-17.111,23.812-32.266c0-15.136-10.013-27.979-23.763-32.251
			v-37.215c0-22.124-17.999-40.123-40.122-40.123h-56.468c-12.026,0-21.81-9.784-21.81-21.81c0-5.523-4.477-10-10-10h-12.653
			c-29.232,0-53.015,23.783-53.015,53.015c0,17.701,8.72,33.403,22.09,43.038v13.095c-13.75,4.272-23.763,17.115-23.763,32.251
			c0,15.155,10.037,28.009,23.812,32.266c0.929,27.754,15.074,52.216,36.328,67.28v21.489C49.498,298.471,0,350.696,0,414.265
			v56.064c0,5.523,4.477,10,10,10h321.853c3.879,0,7.408-2.243,9.055-5.756l56.713-120.989h24.303
			c27.549,0,49.962-22.413,49.962-49.962v-10.716C471.885,287.383,467.408,282.906,461.885,282.906z M106.525,51.671h3.862
			c4.494,18.24,20.993,31.81,40.601,31.81h56.468c11.095,0,20.122,9.027,20.122,20.123v14.098H106.525
			c-18.205,0-33.015-14.811-33.015-33.015S88.32,51.671,106.525,51.671z M95.6,202.419v-5.586c0-5.523-4.477-10-10-10
			c-7.589,0-13.763-6.174-13.763-13.763s6.174-13.763,13.763-13.763c5.523,0,10-4.477,10-10v-12.738
			c3.527,0.742,7.181,1.132,10.925,1.132h121.053v11.606c0,5.523,4.477,10,10,10c7.589,0,13.763,6.174,13.763,13.763
			s-6.174,13.763-13.763,13.763c-5.523,0-10,4.477-10,10v5.586c0,36.386-29.603,65.989-65.989,65.989
			C125.202,268.407,95.6,238.805,95.6,202.419z M161.589,288.407c10.401,0,20.376-1.856,29.613-5.255v21.35
			c0,16.329-13.284,29.613-29.613,29.613s-29.613-13.284-29.613-29.613v-21.35C141.212,286.551,151.188,288.407,161.589,288.407z
			 M325.496,460.329h-60.645v-46.064c0-5.523-4.477-10-10-10s-10,4.477-10,10v46.064H78.33v-46.064c0-5.523-4.477-10-10-10
			s-10,4.477-10,10v46.064H20v-46.064c0-52.852,41.028-96.302,92.907-100.174c4.479,22.784,24.605,40.025,48.682,40.025
			c24.079,0,44.206-17.243,48.683-40.029c19.271,1.417,37.454,8.259,52.98,20.004c16.98,12.844,29.668,31.087,35.729,51.368
			c1.188,3.974,4.706,6.803,8.842,7.109c4.134,0.306,8.033-1.973,9.794-5.729l25.646-54.711l34.703,16.267L325.496,460.329z
			 M451.885,303.622c0,16.521-13.441,29.962-29.962,29.962h-28.432l-44.873-21.034c0.933-5.468,5.706-9.644,11.436-9.644h91.832
			V303.622z"/>
		<path style="fill:#052A75;" d="M472,47.352h-8.53v-4.707c0-5.523-4.477-10-10-10s-10,4.477-10,10v4.707h-28.952v-4.707
			c0-5.523-4.477-10-10-10s-10,4.477-10,10v4.707h-28.951v-4.707c0-5.523-4.477-10-10-10s-10,4.477-10,10v4.707h-8.53
			c-22.056,0-40,17.944-40,40v131.511c0,22.056,17.944,40,40,40H472c22.056,0,40-17.944,40-40V87.352
			C512,65.296,494.056,47.352,472,47.352z M492,218.864c0,11.028-8.972,20-20,20H337.038c-11.028,0-20-8.972-20-20V87.352
			c0-11.028,8.972-20,20-20h8.53v4.707c0,5.523,4.477,10,10,10s10-4.477,10-10v-4.707h28.951v4.707c0,5.523,4.477,10,10,10
			s10-4.477,10-10v-4.707h28.952v4.707c0,5.523,4.477,10,10,10s10-4.477,10-10v-4.707H472c11.028,0,20,8.972,20,20V218.864z"/>
	</g>
</g>
<g>
</g>
<g>
</g>
<g>
</g>
<g>
</g>
<g>
</g>
<g>
</g>
<g>
</g>
<g>
</g>
<g>
</g>
<g>
</g>
<g>
</g>
<g>
</g>
<g>
</g>
<g>
</g>
<g>
</g>
</svg>
