<?xml version="1.0" encoding="iso-8859-1"?>
<!-- Generator: Adobe Illustrator 27.0.0, SVG Export Plug-In . SVG Version: 6.00 Build 0)  -->
<svg version="1.1" id="Capa_1" xmlns="http://www.w3.org/2000/svg" xmlns:xlink="http://www.w3.org/1999/xlink" x="0px" y="0px"
	 viewBox="0 0 512 512" style="enable-background:new 0 0 512 512;" xml:space="preserve">
<g>
	<g>
		<path style="fill:#FDCB50;" d="M402.657,46.576c-60.389,0-109.344,48.993-109.344,109.429c0,24.035,7.743,46.261,20.869,64.315
			l-16.009,27.538l48.354,2.078c16.408,9.842,35.609,15.499,56.13,15.499c60.389,0,109.343-48.993,109.343-109.429
			S463.045,46.576,402.657,46.576z"/>
		<path style="fill:#67CCD1;" d="M298.177,414.585v43.827H10v-43.827c0-35.435,28.737-63.963,64.19-63.963h159.808
			C269.44,350.622,298.177,379.15,298.177,414.585z"/>
		<path style="fill:#27A2CC;" d="M139.4,350.622H74.19c-35.453,0-64.19,28.528-64.19,63.963v43.827h197.418
			C172.348,433.18,147.301,394.874,139.4,350.622z"/>
		<rect x="127.66" y="281.178" style="fill:#F7B073;" width="52.857" height="93.909"/>
		<polygon style="fill:#FFFFFF;" points="154.088,374.605 184.798,337.844 222.907,350.622 188.674,407.696 		"/>
		<polygon style="fill:#D2DCFD;" points="154.088,374.605 123.379,337.844 85.27,350.622 119.503,407.696 		"/>
		<path style="fill:#FDE0BE;" d="M261.408,212.731c0-10.96-8.038-20.042-18.537-21.662v-56.475H65.305v56.475
			c-10.498,1.62-18.537,10.702-18.537,21.662c0,11.032,8.144,20.161,18.744,21.693c3.139,46.22,41.596,77.842,88.576,77.842h0
			c46.98,0,85.437-31.622,88.576-77.842C253.264,232.892,261.408,223.764,261.408,212.731z"/>
		<path style="fill:#F7B073;" d="M116.637,156.005c0-7.202,0.265-14.342,0.786-21.411H65.305v56.475
			c-10.498,1.62-18.537,10.702-18.537,21.662c0,11.032,8.144,20.161,18.744,21.693c3.139,46.22,41.596,77.842,88.576,77.842h0
			c2.855,0,5.679-0.117,8.465-0.347C133.504,267.015,116.637,213.481,116.637,156.005z"/>
		<path style="fill:#BC9AF4;" d="M242.872,172.244c15.019-26.08,9.963-72.734-9.34-91.31c-15.155-14.584-39.105-9.175-59.173-18.941
			c-34.709-16.891-80.143-8.464-97.497,26.025c-0.089,0.177-0.135,0.27-0.135,0.27c-41.71,13.684-11.421,74.189-11.421,74.189
			l71.855-0.183c36.499,0,65.736-32.421,65.736-32.421C218.649,165.852,242.872,172.244,242.872,172.244z"/>
		<path style="fill:#6864F7;" d="M116.637,156.005c0-36.075,6.645-70.597,18.776-102.407c-24.269,0.664-47.306,12.069-58.552,34.418
			c-0.089,0.177-0.135,0.27-0.135,0.27c-41.71,13.684-11.421,74.189-11.421,74.189l51.401-0.131
			C116.66,160.237,116.637,158.124,116.637,156.005z"/>
	</g>
	<g>
		<path style="fill:#FFFFFF;" d="M413.103,147.529c-9.75-3.446-15.417-5.709-17.306-6.601c-3.752-1.77-4.034-4.037-3.918-5.589
			c0.199-2.69,2.072-5.314,4.263-5.974c8.711-2.625,14.417-0.1,15.966,2.107c3.173,4.52,9.409,5.614,13.93,2.44
			c4.521-3.173,5.613-9.41,2.44-13.93c-3.404-4.849-9.286-8.981-16.897-10.777c-0.437-5.12-4.73-9.139-9.963-9.139
			c-5.453,0-9.885,4.364-9.997,9.79c-0.414,0.113-0.83,0.232-1.247,0.358c-10.049,3.026-17.632,12.75-18.44,23.646
			c-0.804,10.847,4.928,20.252,15.334,25.158c3.183,1.501,10.17,4.186,19.171,7.368c6.627,2.342,9.582,7.6,9.076,11.583
			c-0.645,5.077-6.47,6.336-9.885,6.634c-6.253,0.546-14.478-1.253-18.1-5.749c-3.464-4.3-9.759-4.979-14.061-1.514
			c-4.301,3.465-4.979,9.76-1.514,14.061c5.133,6.371,12.435,10.046,19.749,11.857c0.643,4.902,4.836,8.687,9.914,8.687
			c4.829,0,8.859-3.423,9.795-7.976c13.183-2.517,22.41-11.414,23.942-23.48C437.151,166.347,428,152.793,413.103,147.529z"/>
		<g>
			<path style="fill:#052A75;" d="M233.998,340.622h-9.081c-0.119,0-0.238,0.003-0.356,0.007l-34.044-11.415v-13.153
				c11.387-4.068,21.846-10.069,30.828-17.808c16.732-14.418,27.423-34.142,30.558-56.117c11.526-4.904,19.506-16.415,19.506-29.405
				c0-12.823-7.423-23.95-18.537-29.019v-8.681c0-0.081-0.001-0.161-0.003-0.241c7.2-13.963,10.165-32.741,8.15-52.054
				c-2.155-20.649-9.646-38.513-20.553-49.009c-11.001-10.587-24.667-12.674-37.881-14.693c-8.581-1.311-16.687-2.548-23.85-6.035
				c-19.146-9.318-41.737-11.863-61.976-6.985c-20.699,4.99-37.282,17.088-47.08,34.244c-10.033,4.268-17.379,11.493-21.376,21.085
				c-9.825,23.578,2.871,54.526,7.003,63.458c-0.018,0.247,0,18.91,0,18.91c-11.114,5.069-18.537,16.196-18.537,29.019
				c0,12.99,7.98,24.501,19.506,29.405c3.135,21.975,13.826,41.699,30.558,56.117c8.981,7.739,19.44,13.741,30.828,17.808v13.153
				l-34.271,11.491c-0.424-0.055-0.856-0.083-1.294-0.083H74.19c-40.909,0-74.19,33.18-74.19,73.963v43.827c0,5.523,4.477,10,10,10
				h288.177c5.523,0,10-4.477,10-10v-43.827C308.177,373.802,274.9,340.622,233.998,340.622z M188.094,349.497l19.838,6.651
				l-21.393,35.666l-18.783-17.972L188.094,349.497z M66.774,109.011c2.293-5.484,6.446-9.051,13.069-11.224
				c2.552-0.837,4.663-2.672,5.852-5.08l0.098-0.196c15.604-31.009,55.85-35.319,84.189-21.528
				c9.894,4.815,20.353,6.413,29.582,7.822c11.057,1.689,20.605,3.147,27.033,9.333c14.399,13.856,19.188,47.766,11.38,70.668
				c-7.018-4.549-17.658-14.074-25.921-32.946c-1.362-3.111-4.209-5.318-7.562-5.861c-0.534-0.086-1.068-0.128-1.599-0.128
				c-2.806,0-5.514,1.183-7.426,3.303c-0.263,0.291-26.625,29.118-58.335,29.118l-65.351,0.166
				C67.267,141.314,61.503,121.613,66.774,109.011z M75.49,233.747c-0.319-4.703-3.88-8.545-8.546-9.219
				c-5.801-0.839-10.175-5.91-10.175-11.796c0-5.83,4.326-10.894,10.062-11.779c4.876-0.752,8.475-4.949,8.475-9.883v-18.62
				l61.854-0.157c27.176,0,50.243-15.441,62.869-26.034c11.287,19.208,24.685,28.448,32.843,32.605v12.206
				c0,4.934,3.599,9.13,8.475,9.883c5.736,0.886,10.062,5.95,10.062,11.779c0,5.886-4.374,10.957-10.175,11.796
				c-4.666,0.674-8.227,4.516-8.546,9.219c-2.696,39.703-35.751,68.519-78.599,68.519S78.186,273.449,75.49,233.747z
				 M154.088,322.266c5.564,0,11.056-0.409,16.428-1.211v18.288l-16.428,19.665l-16.428-19.665v-18.288
				C143.033,321.856,148.524,322.266,154.088,322.266z M120.083,349.497l20.338,24.346l-18.783,17.972l-21.393-35.666
				L120.083,349.497z M288.177,448.413H20v-33.827c0-29.755,24.31-53.963,54.19-53.963h5.417l31.321,52.218
				c1.564,2.608,4.23,4.362,7.244,4.767c0.445,0.06,0.89,0.089,1.333,0.089c2.558,0,5.04-0.982,6.913-2.774l27.672-26.477
				l27.672,26.477c1.873,1.792,4.354,2.774,6.913,2.774c0.443,0,0.888-0.029,1.333-0.089c3.014-0.405,5.68-2.159,7.244-4.767
				l31.32-52.218h5.428c29.875,0,54.179,24.208,54.179,53.963V448.413z"/>
			<path style="fill:#052A75;" d="M187.9,226.511c5.523,0,10-4.477,10-10v-14.939c0-5.523-4.477-10-10-10s-10,4.477-10,10v14.939
				C177.9,222.034,182.377,226.511,187.9,226.511z"/>
			<path style="fill:#052A75;" d="M130.277,216.511v-14.939c0-5.523-4.477-10-10-10s-10,4.477-10,10v14.939c0,5.523,4.477,10,10,10
				S130.277,222.034,130.277,216.511z"/>
			<path style="fill:#052A75;" d="M178.496,269.25c3.906-3.904,3.906-10.236,0.001-14.142c-3.905-3.906-10.236-3.907-14.142-0.001
				c-5.661,5.659-14.873,5.659-20.534,0c-3.905-3.904-10.237-3.904-14.142,0.001c-3.905,3.906-3.904,10.238,0.001,14.142
				c6.729,6.728,15.568,10.091,24.408,10.091S171.767,275.978,178.496,269.25z"/>
		</g>
	</g>
</g>
<g>
</g>
<g>
</g>
<g>
</g>
<g>
</g>
<g>
</g>
<g>
</g>
<g>
</g>
<g>
</g>
<g>
</g>
<g>
</g>
<g>
</g>
<g>
</g>
<g>
</g>
<g>
</g>
<g>
</g>
</svg>
