<?xml version="1.0" encoding="iso-8859-1"?>
<!-- Generator: Adobe Illustrator 27.0.0, SVG Export Plug-In . SVG Version: 6.00 Build 0)  -->
<svg version="1.1" id="Capa_1" xmlns="http://www.w3.org/2000/svg" xmlns:xlink="http://www.w3.org/1999/xlink" x="0px" y="0px"
	 viewBox="0 0 511 511" style="enable-background:new 0 0 511 511;" xml:space="preserve">
<g>
	<g>
		<path style="fill:#BC9AF4;" d="M187.519,245.179c56.478,0,102.262,45.784,102.262,102.262v41.906H10.5V347.44
			c0-56.478,45.784-102.262,102.262-102.262h1.409H187.519z"/>
		<path style="fill:#D46B5C;" d="M58.115,122.793V79.001C58.115,40.893,89.008,10,127.116,10c17.542,0,33.546,6.558,45.72,17.341
			c7.159-4.613,15.676-7.3,24.826-7.3c25.356,0,45.912,20.555,45.912,45.912v56.84L58.115,122.793z"/>
		<path style="fill:#6864F7;" d="M289.781,347.44c0-44.262-28.122-81.952-67.472-96.187l-0.409,0.408
			c-11.442,11.439-14.866,28.643-8.677,43.591l1.753,4.233c-0.586,1.359-1.151,2.725-1.699,4.099l-4.197,1.738
			c-14.947,6.189-24.695,20.773-24.697,36.951l-0.006,41.355c0,1.932,0.143,3.841,0.413,5.716h104.99V347.44z"/>
		<polygon style="fill:#F7B073;" points="114.17,201.355 114.17,245.179 150.845,278.495 187.519,245.179 187.519,201.355 		"/>
		<path style="fill:#FDE0BE;" d="M220.67,102.137L220.67,102.137c-15.58,0-30.464-6.45-41.118-17.818l-6.739-7.19l0,0
			c-27.467,16.367-58.848,25.008-90.822,25.008h-0.971c-11.929,0-22.089,9.276-22.513,21.198
			c-0.445,12.516,9.569,22.802,21.986,22.802v5.172c0,38.855,31.498,70.352,70.352,70.352h0c38.855,0,70.352-31.498,70.352-70.352
			v-5.172c12.417,0,22.431-10.286,21.986-22.802C242.759,111.413,232.599,102.137,220.67,102.137z"/>
		<path style="fill:#67CCD1;" d="M500.494,383.598l0.006-41.355l-21.186-8.779c-2.901-11.538-7.464-22.411-13.422-32.357
			l8.776-21.179l-29.239-29.247l-21.203,8.779c-9.948-5.953-20.823-10.512-32.362-13.407l-8.766-21.169l-41.355-0.006l-8.779,21.186
			c-11.538,2.901-22.411,7.465-32.358,13.422l-21.179-8.776l-29.247,29.239l8.78,21.203c-5.953,9.948-10.512,20.823-13.407,32.362
			l-21.169,8.766l-0.006,41.355l21.186,8.779c2.901,11.538,7.464,22.411,13.422,32.357l-8.776,21.179l29.239,29.247l21.203-8.779
			c9.949,5.953,20.823,10.512,32.362,13.407l8.766,21.169L383.135,501l8.779-21.186c11.538-2.901,22.411-7.465,32.358-13.422
			l21.179,8.776l29.247-29.239l-8.78-21.203c5.953-9.948,10.512-20.823,13.407-32.362L500.494,383.598z"/>
		<circle style="fill:#FDCB50;" cx="362.439" cy="362.939" r="79.663"/>
	</g>
	<g>
		<path style="fill:#052A75;" d="M150.812,188.205c10.379,0,20.105-4.611,26.683-12.651c3.497-4.275,2.867-10.575-1.407-14.072
			c-4.275-3.497-10.575-2.867-14.072,1.407c-2.764,3.378-6.847,5.316-11.204,5.316c-4.333,0-8.402-1.92-11.164-5.267
			c-3.516-4.261-9.819-4.863-14.078-1.348c-4.26,3.515-4.863,9.818-1.348,14.078C130.797,183.635,140.489,188.205,150.812,188.205z"
			/>
		<path style="fill:#FFFFFF;" d="M362.439,352.939c-3.331,0-6.041-2.71-6.041-6.041s2.71-6.041,6.041-6.041h16.964
			c5.523,0,10-4.477,10-10s-4.477-10-10-10h-6.964v-2.436c0-5.523-4.477-10-10-10s-10,4.477-10,10v4.435
			c-9.41,3.929-16.041,13.224-16.041,24.041c0,14.359,11.682,26.041,26.041,26.041c3.331,0,6.041,2.71,6.041,6.041
			c0,3.331-2.71,6.041-6.041,6.041h-16.963c-5.523,0-10,4.477-10,10s4.477,10,10,10h6.963v2.436c0,5.523,4.477,10,10,10
			s10-4.477,10-10v-4.435c9.41-3.929,16.041-13.224,16.041-24.041C388.48,364.621,376.798,352.939,362.439,352.939z"/>
		<path style="fill:#052A75;" d="M504.328,333.004l-16.657-6.902c-2.62-8.92-6.192-17.53-10.662-25.702l6.897-16.645
			c1.548-3.737,0.693-8.038-2.167-10.898L452.5,243.611c-2.859-2.86-7.159-3.718-10.897-2.169l-16.672,6.903
			c-8.174-4.467-16.784-8.035-25.705-10.651l-6.889-16.636c-1.547-3.737-5.193-6.174-9.238-6.174l-41.355-0.006c0,0-0.001,0-0.001,0
			c-4.044,0-7.69,2.436-9.238,6.172l-6.902,16.657c-8.918,2.619-17.53,6.191-25.703,10.662l-16.645-6.896
			c-3.734-1.547-8.037-0.694-10.898,2.166l-14.893,14.889c-17.321-13.372-38.097-21.355-59.944-23.018v-18.92
			c19.713-14.042,32.875-36.711,33.9-62.458c4.938-1.599,9.437-4.398,13.158-8.253c6.019-6.237,9.196-14.424,8.98-23.087h0.017
			v-56.84c0-30.83-25.082-55.912-55.912-55.912c-8.272,0-16.368,1.819-23.774,5.307C160.375,5.406,144.019,0,127.116,0
			c-43.561,0-79,35.439-79,79.001v43.792h0.017c-0.215,8.664,2.962,16.851,8.981,23.087c3.72,3.855,8.22,6.655,13.157,8.253
			c1.025,25.746,14.187,48.415,33.9,62.458v18.913C46.267,239.907,0.5,288.429,0.5,347.44v41.906c0,5.523,4.477,10,10,10h225.671
			l1.037,0.43c2.62,8.92,6.192,17.53,10.662,25.702l-6.896,16.645c-1.548,3.736-0.693,8.038,2.166,10.898l29.239,29.247
			c2.86,2.86,7.161,3.717,10.898,2.169l16.671-6.903c8.174,4.467,16.784,8.035,25.705,10.651l6.889,16.636
			c1.547,3.737,5.193,6.174,9.238,6.174L383.134,511c0,0,0.001,0,0.001,0c4.044,0,7.69-2.436,9.238-6.172l6.902-16.657
			c8.919-2.62,17.529-6.192,25.702-10.662l16.645,6.896c3.736,1.548,8.038,0.694,10.898-2.167L481.768,453
			c2.86-2.859,3.716-7.161,2.169-10.897l-6.903-16.671c4.466-8.172,8.034-16.785,10.651-25.705l16.636-6.889
			c3.737-1.547,6.174-5.193,6.174-9.238l0.006-41.355C510.5,338.199,508.064,334.553,504.328,333.004z M68.115,79.001
			c0-32.533,26.467-59.001,59-59.001c14.412,0,28.295,5.266,39.091,14.827c3.355,2.972,8.279,3.347,12.046,0.92
			c5.794-3.733,12.506-5.706,19.41-5.706c19.802,0,35.912,16.11,35.912,35.912v28.019c-3.879-1.586-8.141-2.463-12.619-2.463
			c-12.829,0-25.218-5.368-33.99-14.729l-6.766-7.219c-3.213-3.429-8.379-4.157-12.416-1.752c-26.02,15.505-55.784,23.7-86.074,23.7
			h-0.975c-4.478,0-8.74,0.877-12.619,2.463V79.001z M90.205,150.881v-5.193c0-5.523-4.477-10-10-10
			c-3.311,0-6.401-1.312-8.701-3.696c-2.298-2.381-3.499-5.522-3.381-8.843c0.229-6.418,5.886-11.64,12.611-11.64h0.975
			c31.193,0,61.888-7.768,89.277-22.53l1.385,1.479c12.539,13.379,30.247,21.052,48.583,21.052c6.726,0,12.383,5.222,12.611,11.64
			c0.118,3.322-1.082,6.462-3.38,8.843c-2.3,2.384-5.39,3.696-8.701,3.696c-5.523,0-10,4.477-10,10v5.193
			c0,33.437-27.203,60.64-60.64,60.64C117.408,211.521,90.205,184.318,90.205,150.881z M150.845,264.985l-26.674-24.232v-13.775
			c8.354,2.937,17.329,4.542,26.674,4.542s18.32-1.606,26.674-4.542v13.775L150.845,264.985z M214.384,342.279l-0.005,37.067H74.5
			V347.44c0-5.523-4.477-10-10-10s-10,4.477-10,10v31.906h-34V347.44c0-50.064,40.082-90.942,89.841-92.23l30.076,27.322v27.204
			c0,5.523,4.477,10,10,10s10-4.477,10-10v-26.428l30.904-28.075c18.781,0.483,36.787,6.629,51.842,17.59l-0.053,0.053
			c-2.86,2.86-3.716,7.161-2.169,10.898l6.904,16.672c-4.467,8.174-8.035,16.784-10.651,25.705l-16.636,6.889
			C216.821,334.588,214.384,338.234,214.384,342.279z M490.495,376.915l-14.996,6.209c-2.924,1.211-5.103,3.735-5.874,6.805
			c-2.618,10.429-6.752,20.408-12.289,29.661c-1.625,2.714-1.869,6.038-0.658,8.96l6.223,15.029l-19.796,19.791l-15.007-6.218
			c-2.924-1.212-6.25-0.968-8.966,0.66c-9.253,5.542-19.231,9.682-29.657,12.303c-3.067,0.771-5.589,2.948-6.8,5.87l-6.221,15.013
			l-27.991-0.004L342.254,476c-1.211-2.925-3.735-5.103-6.805-5.874c-10.428-2.617-20.407-6.751-29.661-12.289
			c-2.713-1.625-6.039-1.868-8.96-0.658l-15.029,6.223l-19.791-19.796l6.218-15.007c1.212-2.925,0.967-6.25-0.66-8.966
			c-5.542-9.251-9.681-19.229-12.303-29.657c-0.771-3.067-2.948-5.589-5.87-6.8l-15.013-6.221l0.003-27.991l14.996-6.209
			c2.925-1.211,5.103-3.735,5.874-6.805c2.617-10.427,6.751-20.406,12.289-29.661c1.625-2.715,1.869-6.038,0.658-8.96l-6.224-15.029
			l19.796-19.791l15.007,6.218c2.924,1.212,6.25,0.968,8.966-0.659c9.254-5.543,19.232-9.682,29.658-12.303
			c3.068-0.771,5.59-2.948,6.8-5.871l6.221-15.013l27.992,0.004l6.209,14.996c1.211,2.925,3.735,5.103,6.805,5.874
			c10.427,2.617,20.406,6.751,29.661,12.289c2.713,1.625,6.038,1.868,8.96,0.658l15.029-6.223l19.791,19.796l-6.218,15.006
			c-1.212,2.925-0.967,6.251,0.66,8.967c5.542,9.252,9.681,19.23,12.303,29.657c0.771,3.067,2.948,5.589,5.871,6.8l15.013,6.221
			L490.495,376.915z"/>
	</g>
</g>
<g>
</g>
<g>
</g>
<g>
</g>
<g>
</g>
<g>
</g>
<g>
</g>
<g>
</g>
<g>
</g>
<g>
</g>
<g>
</g>
<g>
</g>
<g>
</g>
<g>
</g>
<g>
</g>
<g>
</g>
</svg>
