<?xml version="1.0" encoding="iso-8859-1"?>
<!-- Generator: Adobe Illustrator 27.8.1, SVG Export Plug-In . SVG Version: 6.00 Build 0)  -->
<svg version="1.1" id="Layer_1" xmlns="http://www.w3.org/2000/svg" xmlns:xlink="http://www.w3.org/1999/xlink" x="0px" y="0px"
	 viewBox="0 0 512 512" style="enable-background:new 0 0 512 512;" xml:space="preserve">
<g>
	<g>
		<g>
			<g>
				<path style="fill:#67CCD1;" d="M428.679,452.284H83.321c-17.419,0-31.54-14.121-31.54-31.54V133.947h408.438v286.797
					C460.219,438.163,446.098,452.284,428.679,452.284z"/>
			</g>
			<g>
				<path style="fill:#27A2CC;" d="M149.717,201.371c0-23.114,2.4-45.667,6.964-67.424h-104.9v286.792
					c0,17.422,14.119,31.545,31.535,31.545h183.825C195.377,392.355,149.717,302.197,149.717,201.371z"/>
			</g>
		</g>
		<g>
			<g>
				
					<rect x="170.772" y="162.821" transform="matrix(-1.836970e-16 1 -1 -1.836970e-16 573.3816 61.3816)" style="fill:#FFFFFF;" width="170.456" height="309.121"/>
			</g>
			<g>
				<path style="fill:#D2DCFD;" d="M151.148,232.153h-49.709V402.61h117.575C181.535,354.728,157.124,296.119,151.148,232.153z"/>
			</g>
		</g>
		<g>
			<g>
				<rect x="51.781" y="133.947" style="fill:#FFFFFF;" width="408.438" height="48.533"/>
			</g>
			<g>
				<path style="fill:#D2DCFD;" d="M156.681,133.947h-104.9v48.533h98.473C151.197,165.943,153.369,149.735,156.681,133.947z"/>
			</g>
		</g>
		<g>
			<g>
				<path style="fill:#BC9AF4;" d="M460.219,133.947H51.781V41.54c0-17.419,14.121-31.54,31.54-31.54h345.358
					c17.419,0,31.54,14.121,31.54,31.54V133.947z"/>
			</g>
			<g>
				<path style="fill:#6864F7;" d="M211.586,10H83.316C65.9,10,51.781,24.123,51.781,41.545v92.402h104.9
					C166.229,88.426,185.25,46.391,211.586,10z"/>
			</g>
		</g>
		<g>
			<g>
				<polygon style="fill:#6864F7;" points="129.854,502 77.11,502 77.11,452.284 149.717,452.284 				"/>
			</g>
			<g>
				<polygon style="fill:#BC9AF4;" points="382.146,502 434.89,502 434.89,452.284 362.283,452.284 				"/>
			</g>
		</g>
		<g>
			<g>
				<ellipse style="fill:#FFFFFF;" cx="367.845" cy="71.973" rx="20.793" ry="20.8"/>
			</g>
			<g>
				<ellipse style="fill:#FFFFFF;" cx="144.155" cy="71.973" rx="20.793" ry="20.8"/>
			</g>
		</g>
	</g>
	<g>
		<g>
			<path style="fill:#FFFFFF;" d="M277.554,81.973h-43.107c-5.523,0-10-4.477-10-10s4.477-10,10-10h43.107c5.523,0,10,4.477,10,10
				S283.077,81.973,277.554,81.973z"/>
		</g>
		<g>
			<path style="fill:#052A75;" d="M428.684,0H83.316C60.414,0,41.781,18.637,41.781,41.545v379.193
				c0,17.16,10.456,31.924,25.329,38.252V502c0,5.523,4.477,10,10,10h52.744c3.922,0,7.482-2.292,9.104-5.863l19.863-43.716
				c0.021-0.045,0.04-0.091,0.06-0.137h194.236c0.02,0.046,0.039,0.091,0.06,0.137l19.863,43.716
				c1.623,3.571,5.183,5.863,9.104,5.863h52.744c5.523,0,10-4.477,10-10v-43.01c14.873-6.328,25.329-21.092,25.329-38.252V41.545
				C470.219,18.637,451.586,0,428.684,0z M123.414,492H87.11v-29.716h49.805L123.414,492z M388.586,492l-13.502-29.716h49.805V492
				H388.586z M450.219,420.738c0,11.88-9.661,21.545-21.535,21.545H83.316c-11.875,0-21.535-9.665-21.535-21.545V41.545
				C61.781,29.665,71.442,20,83.316,20h345.367c11.875,0,21.535,9.665,21.535,21.545V420.738z"/>
			<path style="fill:#052A75;" d="M410.561,222.153H101.439c-5.523,0-10,4.477-10,10V402.61c0,5.523,4.477,10,10,10h309.121
				c5.523,0,10-4.477,10-10V232.153C420.561,226.63,416.083,222.153,410.561,222.153z M400.561,392.61H111.439V242.153h289.121
				V392.61z"/>
		</g>
		<g>
			<g>
				<path style="fill:#27A2CC;" d="M326.747,301.509H185.253c-5.523,0-10-4.477-10-10s4.477-10,10-10h141.494
					c5.523,0,10,4.477,10,10S332.27,301.509,326.747,301.509z"/>
			</g>
			<g>
				<path style="fill:#27A2CC;" d="M326.747,353.254H185.253c-5.523,0-10-4.477-10-10s4.477-10,10-10h141.494
					c5.523,0,10,4.477,10,10S332.27,353.254,326.747,353.254z"/>
			</g>
		</g>
	</g>
</g>
<g>
</g>
<g>
</g>
<g>
</g>
<g>
</g>
<g>
</g>
<g>
</g>
<g>
</g>
<g>
</g>
<g>
</g>
<g>
</g>
<g>
</g>
<g>
</g>
<g>
</g>
<g>
</g>
<g>
</g>
</svg>
