<svg id="Layer_1" viewBox="0 0 64 64" xmlns="http://www.w3.org/2000/svg"><path d="m19 42 1 4-7 3-3-5z" fill="#b5895d"/><path d="m12 59h10v4h-10z" fill="#b5895d"/><path d="m22 57v2h-10v-2c0-1.11.89-2 2-2h6c1.11 0 2 .89 2 2z" fill="#c69c6d"/><path d="m8 63h-7v-8c0-5.67 3.63-9.21 9-11l3 5 7-3c2 4 7 4 7 4v13h-5v-6c0-1.11-.89-2-2-2h-6c-1.11 0-2 .89-2 2v6z" fill="#d8b493"/><path d="m41 53v2h-7c-1.11 0-2 .89-2 2v6h-5v-13s5 0 7-4l7 3z" fill="#c69c6d"/><path d="m32 59h9v4h-9z" fill="#b5895d"/><path d="m41 55v4h-9v-2c0-1.11.89-2 2-2z" fill="#d8b493"/><path d="m47 56c0 1.66 1.34 3 3 3h-9v-6h9c-.83 0-1.58.34-2.12.88s-.88 1.29-.88 2.12z" fill="#ef6b07"/><path d="m63 59v4h-22v-4h9 4z" fill="#f7a539"/><path d="m54 53c1.66 0 3 1.34 3 3 0 .83-.34 1.58-.88 2.12s-1.29.88-2.12.88h-4c-1.66 0-3-1.34-3-3 0-.83.34-1.58.88-2.12s1.29-.88 2.12-.88z" fill="#d74c4c"/><path d="m57 56c0-1.66-1.34-3-3-3h9v6h-9c.83 0 1.58-.34 2.12-.88s.88-1.29.88-2.12z" fill="#ef6b07"/><path d="m48.06 45.94-3.06 3.06h-4l3-5c1.5.5 2.87 1.14 4.06 1.94z" fill="#c69c6d"/><path d="m59 49-5-5h-2-2l-1.94 1.94-3.06 3.06h-4v4h9 2 2 9v-4z" fill="#ae672b"/><path d="m44 44-3 5-7-3 1-4z" fill="#b5895d"/><path d="m35 36.55v5.45l-1 4c-2 4-7 4-7 4v-5l4.15-5.81c1.47-.6 2.78-1.5 3.85-2.64z" fill="#d8b493"/><path d="m31.15 39.19-4.15 5.81-4.15-5.81c1.28.52 2.68.81 4.15.81s2.87-.29 4.15-.81z" fill="#e09b8d"/><path d="m27 45v5s-5 0-7-4l-1-4v-5.45c.07.08 2.48 2.08 3.85 2.64z" fill="#c69c6d"/><path d="m16 20v9s-5-1-5-6v-3z" fill="#e09b8d"/><path d="m35 36.55c-1.07 1.14-2.38 2.04-3.85 2.64-1.28.52-2.68.81-4.15.81s-2.87-.29-4.15-.81c-1.37-.56-3.78-2.56-3.85-2.64-1.86-1.97-3-4.63-3-7.55v-9h22v9c0 2.92-1.14 5.58-3 7.55z" fill="#f4baa6"/><path d="m43 20v3c0 5-5 6-5 6v-9z" fill="#e09b8d"/><path d="m43 18v2h-32v-2c0-.55.22-1.05.59-1.41.36-.37.86-.59 1.41-.59h28c1.1 0 2 .9 2 2z" fill="#ccc"/><path d="m41 16h-14c2.21 0 4-1.79 4-4h9.49c.33 1.23.51 2.56.51 4z" fill="#ef6b07"/><path d="m40.49 12h-9.49v-9c4.67 1.21 8.21 4.34 9.49 9z" fill="#e6e6e6"/><path d="m31 3v9c0-2.21-1.79-4-4-4s-4 1.79-4 4v-9s0-2 1.99-2h4.02c1.99 0 1.99 2 1.99 2z" fill="#ccc"/><circle cx="27" cy="12" fill="#f7a539" r="4"/><path d="m23 12c0 2.21 1.79 4 4 4h-14c0-1.44.18-2.77.52-4z" fill="#ef6b07"/><path d="m23 3v9h-9.48c1.27-4.66 4.81-7.79 9.48-9z" fill="#e6e6e6"/><g fill="#252525"><path d="m63 48h-3.586l-4.707-4.707c-.188-.188-.442-.293-.707-.293h-4c-.265 0-.519.105-.707.293l-1.382 1.382c-1.067-.634-2.273-1.183-3.611-1.628l-.084-.023-8.217-1.825v-4.28c1.761-1.998 2.794-4.495 2.964-7.146 2.075-.691 5.036-2.705 5.036-6.772v-5c0-1.311-.851-2.417-2.026-2.824-.055-1.188-.225-2.343-.52-3.441-.011-.041-1.802-7.165-9.561-9.496-.269-1.081-1.119-2.24-2.884-2.24h-4.02c-1.764 0-2.614 1.158-2.884 2.24-4.775 1.446-8.22 4.815-9.508 9.371 0 0-.516 2.365-.572 3.562-.428.146-.819.377-1.133.7-.576.561-.893 1.315-.893 2.127v5c0 4.067 2.962 6.081 5.036 6.772.17 2.662 1.209 5.167 2.964 7.148v4.278l-8.259 1.835c-6.372 2.105-9.741 6.245-9.741 11.967v8c0 .552.448 1 1 1h62c.552 0 1-.448 1-1v-14c0-.552-.448-1-1-1zm-4.707 1.707c.188.188.441.293.707.293h3v2h-9v-7h.586zm-2.293 6.293c0 .532-.208 1.034-.587 1.413s-.881.587-1.413.587h-4c-1.103 0-2-.897-2-2 0-.532.208-1.034.587-1.413s.881-.587 1.413-.587h4c1.103 0 2 .897 2 2zm-5.586-11h.586v7h-1c-1.066 0-2.071.416-2.827 1.173-.757.756-1.173 1.761-1.173 2.827 0 .732.212 1.409.556 2h-4.556v-4h2c.553 0 1-.447 1-1s-.447-1-1-1h-2v-2h3c.266 0 .52-.105.707-.293zm-29.472.646-.942-3.768v-3.268c.711.519 1.509 1.042 2.183 1.366l3.817 5.344v3.576c-1.385-.225-3.849-.944-5.058-3.25zm13.058-3.768-.942 3.768c-1.209 2.307-3.674 3.025-5.058 3.25v-3.577l3.814-5.338c.778-.342 1.509-.756 2.186-1.244zm-7 1.401-1.727-2.418c.57.082 1.145.138 1.727.138s1.157-.055 1.727-.138zm1 7.643c1.571-.203 4.613-.947 6.418-3.656l5.582 2.392v4.341h-6c-1.654 0-3 1.346-3 3v5h-3zm5 7.077v-1c0-.561.439-1 1-1h6v2zm0 2h7v2h-7zm11.586-12h-1.82l1.666-2.777c.722.274 1.395.58 2.014.917l-1.861 1.861zm-2.157-3.325-1.837 3.062-5.416-2.321.557-2.229 6.695 1.488zm-3.429-17.081v-6.594h3v2c0 2.709-1.757 4.01-3 4.594zm-24.691-14.593h7.792c.152.743.482 1.416.924 2h-8.993c.045-.689.139-1.356.277-2zm9.691-1c0-1.654 1.346-3 3-3s3 1.346 3 3-1.346 3-3 3-3-1.346-3-3zm7.899 1h7.797c.135.648.227 1.315.271 2h-8.993c.442-.584.773-1.257.924-2zm7.19-2h-7.089v-6.631c3.387 1.204 5.848 3.503 7.089 6.631zm-14.099-9h4.02c.798 0 .979.55.99 1v5.026c-.838-.635-1.87-1.026-3-1.026s-2.162.391-3 1.026v-5.026c0-.301.097-1 .99-1zm-2.99 2.369v6.631h-7.081c1.236-3.129 3.694-5.428 7.081-6.631zm-10 13.631c0-.267.103-.514.307-.713.18-.185.427-.287.693-.287h28c.552 0 1 .448 1 1v1h-30zm0 5v-2h3v6.603c-1.242-.576-3-1.869-3-4.603zm5-2h20v8c0 2.563-.969 5.001-2.729 6.865-.979 1.044-2.156 1.851-3.496 2.398-2.408.977-5.144.976-7.546 0-1.109-.454-3.256-2.181-3.502-2.401-1.758-1.862-2.727-4.3-2.727-6.863v-8zm1.267 22.188.557 2.229-5.416 2.321-1.837-3.062 6.695-1.488zm-16.267 11.812c0-5.622 3.951-8.41 7.564-9.783l2.579 4.298c.186.31.516.485.857.485.132 0 6.582-2.733 6.582-2.733 1.805 2.709 4.846 3.453 6.418 3.656v11.077h-3v-5c0-1.654-1.346-3-3-3h-6c-1.654 0-3 1.346-3 3v5h-2v-6c0-.553-.447-1-1-1s-1 .447-1 1v6h-5zm19 3h-8v-1c0-.561.439-1 1-1h6c.561 0 1 .439 1 1zm-8 2h8v2h-8zm29 2v-2h12c1.066 0 2.071-.416 2.827-1.173.757-.756 1.173-1.761 1.173-2.827 0-.732-.212-1.409-.556-2h4.556v4h-2c-.553 0-1 .447-1 1s.447 1 1 1h2v2z"/><path d="m27 31c.553 0 1-.447 1-1v-3c0-.553-.447-1-1-1s-1 .447-1 1v3c0 .553.447 1 1 1z"/><path d="m29.305 32.281c-.031.029-.786.719-2.305.719-1.497 0-2.251-.67-2.303-.717-.39-.38-1.017-.378-1.404.01-.391.391-.391 1.023 0 1.414.132.133 1.36 1.293 3.707 1.293s3.575-1.16 3.707-1.293c.386-.386.385-1.004.006-1.396-.381-.393-1.01-.403-1.408-.029z"/><circle cx="30.5" cy="24.5" r="1.5"/><circle cx="23.5" cy="24.5" r="1.5"/></g></svg>