<?xml version="1.0" encoding="iso-8859-1"?>
<!-- Generator: Adobe Illustrator 29.5.1, SVG Export Plug-In . SVG Version: 9.03 Build 0)  -->
<svg version="1.1" id="Layer_1" xmlns="http://www.w3.org/2000/svg" xmlns:xlink="http://www.w3.org/1999/xlink" x="0px" y="0px"
	 viewBox="0 0 512 512" style="enable-background:new 0 0 512 512;" xml:space="preserve">
<g>
	<g>
		<path style="fill:#FDE0BE;" d="M193.728,376.358l-60.796-60.796c-15.685-15.685-41.115-15.685-56.8,0l-8.38,8.38
			c-3.562-4.565-5.533-10.208-5.533-16.059v-39.657c0-22.182-17.982-40.163-40.163-40.163H10l0,79.82
			c0,20.774,8.253,40.697,22.942,55.387l90.315,90.315v48.377h96.939v-61.705C220.196,416.291,210.675,393.305,193.728,376.358z"/>
		<path style="fill:#FDE0BE;" d="M502,228.064h-12.056c-22.181,0-40.163,17.982-40.163,40.163v39.657
			c0,5.851-1.97,11.495-5.533,16.059l-8.38-8.381c-15.685-15.685-41.115-15.685-56.8,0l-60.796,60.796
			c-16.947,16.947-26.468,39.932-26.468,63.899v61.705h96.939v-48.377l90.315-90.315c14.69-14.69,22.942-34.613,22.942-55.387
			V228.064z"/>
		<path style="fill:#F7B073;" d="M296.12,412.737c-2.821,8.819-4.316,18.09-4.316,27.521v61.705h96.939v-48.377l90.315-90.315
			c14.547-14.547,22.769-34.229,22.927-54.786C449.087,364.925,376.997,403.144,296.12,412.737z"/>
		<path style="fill:#F7B073;" d="M10.015,308.485c0.158,20.557,8.38,40.238,22.927,54.786l90.315,90.315v48.377h96.939v-61.705
			c0-9.431-1.495-18.702-4.316-27.521C135.003,403.144,62.913,364.925,10.015,308.485z"/>
		<path style="fill:#67CCD1;" d="M223.736,170.014c0.621,21.02-9.879,41.778-29.016,53.13
			c-22.144,13.136-49.129,10.247-67.871-4.928l40.112-22.418l-2.012-24.181l-19.542-14.384l-40.112,22.418
			c-3.041-23.426,8.105-47.412,29.985-59.641c20.11-11.239,43.926-9.546,61.902,2.34l91.081-50.904
			c-0.621-21.02,9.879-41.778,29.016-53.13c22.144-13.136,49.129-10.247,67.871,4.928l-40.112,22.418l2.012,24.181l19.542,14.384
			l40.112-22.418c3.041,23.426-8.105,47.412-29.985,59.641c-20.11,11.239-43.926,9.546-61.902-2.34L223.736,170.014z"/>
		<path style="fill:#27A2CC;" d="M279.327,138.945c-17.049-9.033-31.046-23.054-40.048-40.121l-42.096,23.527
			c-17.976-11.887-41.793-13.579-61.902-2.34c-21.88,12.228-33.026,36.215-29.985,59.641l40.112-22.418l19.542,14.384l2.012,24.181
			l-40.112,22.418c18.741,15.174,45.727,18.063,67.871,4.928c19.137-11.352,29.638-32.11,29.016-53.13L279.327,138.945z"/>
	</g>
	<g>
		<path style="fill:#FDCB50;" d="M248.999,235.759c-2.215-5.059-8.113-7.366-13.171-5.149c-5.059,2.215-7.364,8.112-5.149,13.171
			c9.689,22.128-0.43,48.015-22.559,57.705c-5.059,2.215-7.364,8.112-5.149,13.171c1.644,3.754,5.314,5.991,9.166,5.991
			c1.339,0,2.701-0.271,4.006-0.842C248.373,305.692,263.112,267.989,248.999,235.759z"/>
		<path style="fill:#FDCB50;" d="M299.823,213.503c-2.216-5.06-8.113-7.366-13.172-5.149c-5.059,2.215-7.364,8.112-5.148,13.171
			c10.639,24.295,11.18,51.279,1.523,75.981c-9.657,24.702-28.355,44.165-52.651,54.804c-5.059,2.215-7.364,8.112-5.149,13.171
			c1.644,3.754,5.314,5.991,9.166,5.991c1.339,0,2.701-0.271,4.006-0.842c29.189-12.781,51.654-36.165,63.255-65.842
			C313.255,275.111,312.605,242.692,299.823,213.503z"/>
		<path style="fill:#052A75;" d="M140.003,308.491c-18.538-18.537-48.095-19.504-67.784-2.901v-37.363
			c0-27.66-22.503-50.163-50.163-50.163H10c-5.523,0-10,4.477-10,10v79.82c0,23.593,9.188,45.775,25.871,62.458l87.387,87.386
			v44.235c0,5.523,4.477,10,10,10h96.938c5.523,0,10-4.477,10-10v-61.706c0-26.809-10.44-52.014-29.397-70.971L140.003,308.491z
			 M210.196,491.963h-76.938v-38.377c0-2.652-1.054-5.196-2.929-7.071l-90.315-90.315C27.107,343.294,20,326.135,20,307.884v-69.82
			h2.056c16.632,0,30.163,13.531,30.163,30.163v39.657c0,9.645,3.756,18.713,10.576,25.533l52.855,52.856
			c3.906,3.905,10.238,3.905,14.142,0c3.905-3.905,3.905-10.237,0-14.142L81.75,324.087l1.453-1.454
			c11.761-11.76,30.897-11.761,42.658,0l60.796,60.796c15.18,15.179,23.539,35.361,23.539,56.828V491.963z"/>
		<path style="fill:#052A75;" d="M502,218.064h-12.056c-27.66,0-50.164,22.503-50.164,50.163v37.363
			c-19.688-16.603-49.245-15.635-67.783,2.901l-60.796,60.796c-18.957,18.958-29.397,44.162-29.397,70.971v61.706
			c0,5.523,4.478,10,10,10h96.939c5.522,0,10-4.477,10-10v-44.235l87.386-87.386C502.812,353.658,512,331.477,512,307.884v-79.82
			C512,222.541,507.522,218.064,502,218.064z M492,307.884c0,18.251-7.107,35.41-20.014,48.316l-90.314,90.315
			c-1.875,1.875-2.929,4.419-2.929,7.071v38.377h-76.939v-51.706c0-21.466,8.36-41.648,23.54-56.828l60.796-60.796
			c11.759-11.761,30.895-11.762,42.657,0l1.453,1.454l-48.044,48.043c-3.905,3.905-3.905,10.237,0,14.143
			c3.906,3.905,10.236,3.905,14.143,0l52.856-52.856c6.819-6.82,10.575-15.888,10.575-25.534v-39.657
			c0-16.632,13.531-30.163,30.164-30.163H492V307.884z"/>
		<path style="fill:#052A75;" d="M381.599,130.18c24.957-13.949,38.705-41.291,35.022-69.657c-0.428-3.291-2.459-6.155-5.424-7.646
			c-2.964-1.491-6.476-1.415-9.372,0.205l-34.491,19.276l-10.694-7.872l-1.102-13.234l34.491-19.277
			c2.896-1.619,4.801-4.569,5.085-7.875c0.283-3.306-1.092-6.538-3.671-8.626C368.941-2.745,337.086-5.06,312.179,9.717
			c-19.891,11.798-32.472,32.793-33.82,55.811l-81.008,45.274c-20.865-11.29-45.987-11.236-66.948,0.479
			c-24.958,13.948-38.706,41.291-35.023,69.657c0.427,3.291,2.459,6.155,5.423,7.646c2.963,1.49,6.475,1.415,9.372-0.205
			l34.492-19.276l10.695,7.873l1.101,13.234l-34.491,19.277c-2.897,1.619-4.802,4.569-5.085,7.875s1.092,6.538,3.671,8.626
			c12.624,10.222,28.19,15.437,43.824,15.436c12.232,0,24.506-3.193,35.44-9.68c19.89-11.798,32.471-32.793,33.821-55.811
			l81.008-45.274C335.513,141.948,360.634,141.897,381.599,130.18z M218.858,161.285c-3.255,1.819-5.228,5.297-5.117,9.024
			c0.536,18.14-8.708,35.09-24.123,44.234c-13.042,7.737-28.757,8.899-42.534,3.82l24.756-13.835
			c3.423-1.914,5.412-5.651,5.087-9.559l-2.012-24.181c-0.239-2.878-1.711-5.512-4.037-7.225l-19.542-14.384
			c-3.158-2.325-7.384-2.588-10.807-0.676l-24.824,13.874c2.732-14.017,11.459-26.375,24.453-33.638
			c16.232-9.07,35.968-8.323,51.508,1.953c3.12,2.063,7.13,2.213,10.394,0.388l91.081-50.903c3.255-1.819,5.227-5.297,5.117-9.024
			c-0.536-18.141,8.707-35.09,24.122-44.234c13.041-7.737,28.757-8.9,42.534-3.82l-24.757,13.836
			c-3.423,1.913-5.412,5.65-5.087,9.559l2.013,24.181c0.24,2.878,1.712,5.512,4.038,7.224l19.541,14.384
			c3.158,2.325,7.383,2.588,10.807,0.676l24.823-13.874c-2.731,14.017-11.459,26.375-24.453,33.638
			c-16.23,9.071-35.968,8.324-51.508-1.953c-3.12-2.062-7.129-2.213-10.395-0.388L218.858,161.285z"/>
	</g>
</g>
<g>
</g>
<g>
</g>
<g>
</g>
<g>
</g>
<g>
</g>
<g>
</g>
<g>
</g>
<g>
</g>
<g>
</g>
<g>
</g>
<g>
</g>
<g>
</g>
<g>
</g>
<g>
</g>
<g>
</g>
</svg>
