<?xml version="1.0" encoding="iso-8859-1"?>
<!-- Generator: Adobe Illustrator 27.2.0, SVG Export Plug-In . SVG Version: 6.00 Build 0)  -->
<svg version="1.1" id="Capa_1" xmlns="http://www.w3.org/2000/svg" xmlns:xlink="http://www.w3.org/1999/xlink" x="0px" y="0px"
	 viewBox="0 0 510 510" style="enable-background:new 0 0 510 510;" xml:space="preserve">
<g>
	<g>
		<g>
			<path style="fill:#D2DCFD;" d="M456.765,325.137v-53.804H344.17c18.493,58.273-27.769,121.053-89.171,120.023
				C193.611,392.39,147.32,329.6,165.83,271.333H53.235v53.804l43.603,5.45c4.186,20.546,12.281,39.677,23.471,56.579
				l-27.001,34.715l38.045,38.045l34.715-27.001c16.906,11.189,36.035,19.283,56.579,23.471L228.098,500h53.804l5.45-43.603
				c20.546-4.185,39.677-12.281,56.579-23.471l34.716,27.001l38.045-38.045l-27.001-34.715
				c11.189-16.905,19.283-36.035,23.471-56.579L456.765,325.137z"/>
		</g>
		<g>
			<path style="fill:#93B2F4;" d="M343.171,328.243h88.748l24.846-3.106v-53.804H344.17
				C349.746,289.244,349.356,310.612,343.171,328.243z"/>
		</g>
		<g>
			<path style="fill:#93B2F4;" d="M166.828,328.243c-6.185-17.631-6.574-38.999-0.999-56.909H53.235v53.804l24.846,3.106H166.828z"
				/>
		</g>
		<g>
			<path style="fill:#FDCB50;" d="M304,32.519V10h-98v22.519C131.813,51.64,74.576,113.163,61.715,189.667h386.569
				C435.425,113.163,378.187,51.64,304,32.519z"/>
		</g>
		<g>
			<path style="fill:#FD8F01;" d="M285.497,140.13c-61.042,0-115.484-28.223-151.017-72.322
				C96.7,97.327,69.999,140.387,61.715,189.667h386.569c-5.798-34.49-20.618-65.933-41.942-91.821
				C373.203,124.304,331.201,140.13,285.497,140.13z"/>
		</g>
		<g>
			<polygon style="fill:#FDCB50;" points="483.667,269.333 467.333,189.667 42.667,189.667 26.333,269.333 			"/>
		</g>
	</g>
	<path style="fill:#052A75;" d="M500,260.333h-7.97l-14.9-72.675c-0.954-4.652-5.048-7.992-9.796-7.992H456.56
		C441.027,105.997,386.221,46.476,314,24.923V10c0-5.523-4.477-10-10-10h-98c-5.523,0-10,4.477-10,10v14.923
		C123.779,46.476,68.973,105.997,53.44,179.667H42.667c-4.749,0-8.842,3.34-9.796,7.992l-14.9,72.675H10
		c-13.25,0.49-13.248,19.512,0,20c0,0,33.235,0,33.235,0v44.804c0,5.043,3.755,9.297,8.76,9.923l36.637,4.579
		c4.105,16.558,10.632,32.29,19.471,46.933l-22.688,29.17c-3.096,3.98-2.744,9.644,0.823,13.21l38.045,38.045
		c3.566,3.565,9.229,3.918,13.211,0.822l29.17-22.689c14.644,8.838,30.375,15.365,46.932,19.471l4.58,36.637
		c0.626,5.004,4.879,8.76,9.923,8.76h53.804c5.043,0,9.297-3.755,9.923-8.76l4.58-36.636c16.558-4.105,32.289-10.632,46.932-19.472
		l29.171,22.688c3.982,3.098,9.644,2.744,13.211-0.822l38.045-38.045c3.566-3.566,3.919-9.23,0.823-13.21l-22.688-29.171
		c8.837-14.643,15.364-30.375,19.471-46.932l36.637-4.579c5.004-0.625,8.76-4.879,8.76-9.923v-44.804H500
		C513.249,279.844,513.248,260.822,500,260.333z M196,45.899v29.434c0,5.523,4.477,10,10,10c5.523,0,10-4.477,10-10V20h78v55.334
		c0,5.523,4.477,10,10,10c5.523,0,10-4.477,10-10V45.899c61.035,20.382,107.36,71.111,122.069,133.767H73.931
		C88.64,117.011,134.965,66.282,196,45.899z M50.824,199.667c0.074,0,10.871,0,10.936,0c-0.007,0,386.54,0,386.548,0
		c0,0,10.868,0,10.868,0l12.438,60.667H38.387L50.824,199.667z M338.122,298.235c0,45.834-37.289,83.122-83.122,83.122
		c-52.356,0.634-92.98-50.107-81.184-101.024h162.367C337.469,286.183,338.122,292.18,338.122,298.235z M446.765,316.31
		l-34.843,4.355c-4.258,0.532-7.701,3.721-8.558,7.925c-3.871,18.987-11.276,36.839-22.011,53.058
		c-2.369,3.579-2.189,8.271,0.445,11.658l21.58,27.746l-25.561,25.561l-27.748-21.581c-3.388-2.636-8.08-2.814-11.66-0.444
		c-16.218,10.737-34.067,18.143-53.054,22.01c-4.205,0.857-7.395,4.3-7.927,8.559L273.074,490h-36.148l-4.355-34.843
		c-0.532-4.258-3.721-7.701-7.925-8.558c-18.987-3.871-36.838-11.276-53.058-22.012c-3.578-2.369-8.27-2.19-11.659,0.445
		l-27.747,21.581l-25.561-25.561l21.58-27.746c2.635-3.388,2.814-8.08,0.445-11.659c-10.736-16.218-18.142-34.068-22.01-53.056
		c-0.857-4.205-4.301-7.394-8.559-7.926l-34.843-4.355v-35.976h90.209c-11.532,62.178,38.242,121.648,101.557,121.023
		c63.305,0.627,113.099-58.85,101.556-121.023h90.208V316.31z"/>
</g>
<g>
</g>
<g>
</g>
<g>
</g>
<g>
</g>
<g>
</g>
<g>
</g>
<g>
</g>
<g>
</g>
<g>
</g>
<g>
</g>
<g>
</g>
<g>
</g>
<g>
</g>
<g>
</g>
<g>
</g>
</svg>
