<?xml version="1.0" encoding="iso-8859-1"?>
<!-- Generator: Adobe Illustrator 27.9.4, SVG Export Plug-In . SVG Version: 9.03 Build 54784)  -->
<svg version="1.1" id="Layer_1" xmlns="http://www.w3.org/2000/svg" xmlns:xlink="http://www.w3.org/1999/xlink" x="0px" y="0px"
	 viewBox="0 0 510 510" style="enable-background:new 0 0 510 510;" xml:space="preserve">
<g>
	<g>
		<rect x="32.657" y="264.193" style="fill:#D46B5C;" width="444.204" height="162.488"/>
	</g>
	<g>
		<path style="fill:#B55348;" d="M103.025,264.193H32.657v162.488h276.461C223.286,397.448,150.763,339.457,103.025,264.193z"/>
	</g>
	<g>
		<path style="fill:#67CCD1;" d="M122.547,190.421L122.547,190.421c-38.955,0-70.534,31.579-70.534,70.534h141.069
			C193.081,222,161.502,190.421,122.547,190.421z"/>
	</g>
	<g>
		<ellipse style="fill:#67CCD1;" cx="122.547" cy="139.494" rx="49.416" ry="50.927"/>
	</g>
	<g>
		<g>
			<path style="fill:#FFFFFF;" d="M409.236,59.998H255.032c-7.977,0-14.444,6.462-14.444,14.432v114.115
				c0,7.971,6.467,14.432,14.444,14.432h30.545v16.012l30.96-16.012h92.699c7.977,0,14.444-6.462,14.444-14.432V74.43
				C423.68,66.459,417.213,59.998,409.236,59.998z"/>
		</g>
	</g>
	<g>
		<g>
			<path style="fill:#D2DCFD;" d="M365.65,202.972h-49.11l-30.96,16.02v-16.02h-30.55c-7.98,0-14.44-6.46-14.44-14.43V74.432
				c0-7.97,6.46-14.43,14.44-14.43h52.84c-5.86,13.14-9.09,27.5-9.09,42.54C298.78,146.142,325.89,184.002,365.65,202.972z"/>
		</g>
	</g>
</g>
<g>
	<g>
		<g>
			<g>
				<path style="fill:#052A75;" d="M285.577,228.99c-1.805,0-3.606-0.488-5.199-1.458c-2.981-1.814-4.801-5.052-4.801-8.542v-6.012
					h-20.545c-13.479,0-24.444-10.96-24.444-24.433V74.43c0-13.472,10.966-24.432,24.444-24.432h154.203
					c13.479,0,24.444,10.96,24.444,24.432v114.115c0,13.472-10.966,24.433-24.444,24.433H318.97l-28.799,14.895
					C288.728,228.618,287.151,228.99,285.577,228.99z M255.032,69.998c-2.451,0-4.444,1.988-4.444,4.432v114.115
					c0,2.444,1.994,4.433,4.444,4.433h30.545c5.385,0,9.774,4.255,9.991,9.586l16.375-8.469c1.42-0.734,2.995-1.118,4.594-1.118
					h92.698c2.45,0,4.444-1.988,4.444-4.433V74.43c0-2.444-1.994-4.432-4.444-4.432H255.032z"/>
			</g>
		</g>
	</g>
	<path style="fill:#FFFFFF;" d="M304.96,358.452c8.7-4.08,14.71-12.72,14.71-22.7c0-13.9-11.65-25.2-25.97-25.2
		c0,0-15.457,0-15.46,0c-5.394,0-10.02,4.615-10.02,10v58.47c0,5.52,4.48,10,10,10c5.52,0,10-4.48,10-10v-9.32l13.93,15.91
		c1.98,2.25,4.75,3.41,7.53,3.41c2.34,0,4.69-0.82,6.58-2.48c4.16-3.64,4.57-9.96,0.94-14.11L304.96,358.452z M293.7,330.552
		c3.18,0,5.97,2.43,5.97,5.2c0,2.76-2.79,5.19-5.97,5.19c-1.33,0-3.31,0.01-5.41,0.02c-0.01-2.03-0.01-3.94-0.01-5.21
		c0-1.11-0.01-3.06-0.01-5.2H293.7z"/>
	<path style="fill:#FFFFFF;" d="M250.59,321.882v58.47c0,5.52-4.48,10-10,10c-5.53,0-10-4.48-10-10v-20.24h-20.26v20.24
		c0,5.52-4.48,10-10,10c-5.53,0-10-4.48-10-10v-58.47c0-5.52,4.47-10,10-10c5.52,0,10,4.48,10,10v18.23h20.26v-18.23
		c0-5.52,4.47-10,10-10C246.11,311.882,250.59,316.362,250.59,321.882z"/>
	<g>
		<g>
			<path style="fill:#93B2F4;" d="M360.104,121.553h-55.941c-5.522,0-10-4.477-10-10s4.478-10,10-10h55.941c5.522,0,10,4.477,10,10
				S365.627,121.553,360.104,121.553z"/>
		</g>
		<g>
			<path style="fill:#93B2F4;" d="M360.104,160.204h-55.941c-5.522,0-10-4.477-10-10s4.478-10,10-10h55.941c5.522,0,10,4.477,10,10
				S365.627,160.204,360.104,160.204z"/>
		</g>
	</g>
	<path style="fill:#052A75;" d="M500,254.192H202.8c-2.41-28.89-20.15-53.51-45.04-65.66c14.67-11.1,24.2-28.95,24.2-49.04
		c0-33.59-26.65-60.93-59.41-60.93s-59.42,27.34-59.42,60.93c0,20.09,9.53,37.94,24.21,49.04c-24.89,12.15-42.64,36.76-45.05,65.66
		H10c-5.52,0-10,4.48-10,10s4.48,10,10,10h10.87v175.81c0,5.53,4.48,10,10,10c5.53,0,10-4.47,10-10v-13.32h428.26v13.32
		c0,5.53,4.47,10,10,10c5.52,0,10-4.47,10-10v-175.81H500c5.52,0,10-4.48,10-10S505.52,254.192,500,254.192z M83.13,139.492
		c0-22.57,17.68-40.93,39.42-40.93c21.73,0,39.41,18.36,39.41,40.93s-17.68,40.93-39.41,40.93
		C100.81,180.422,83.13,162.062,83.13,139.492z M122.55,200.422c31.09,0,56.78,23.56,60.15,53.77H62.39
		C65.76,223.982,91.46,200.422,122.55,200.422z M40.87,416.682v-142.49h428.26v142.49H40.87z"/>
</g>
<g>
</g>
<g>
</g>
<g>
</g>
<g>
</g>
<g>
</g>
<g>
</g>
<g>
</g>
<g>
</g>
<g>
</g>
<g>
</g>
<g>
</g>
<g>
</g>
<g>
</g>
<g>
</g>
<g>
</g>
</svg>
