<?xml version="1.0" encoding="iso-8859-1"?>
<!-- Generator: Adobe Illustrator 28.1.0, SVG Export Plug-In . SVG Version: 6.00 Build 0)  -->
<svg version="1.1" id="Layer_1" xmlns="http://www.w3.org/2000/svg" xmlns:xlink="http://www.w3.org/1999/xlink" x="0px" y="0px"
	 viewBox="0 0 512 512" style="enable-background:new 0 0 512 512;" xml:space="preserve">
<g>
	<g>
		<ellipse style="fill:#B1D952;" cx="351.95" cy="123.551" rx="56.967" ry="57.012"/>
		<g>
			<rect x="122.308" y="288.513" style="fill:#FDCB50;" width="133.692" height="135.152"/>
			<path style="fill:#FD8F01;" d="M157.402,319.131c0-10.645,1.57-20.923,4.49-30.618h-39.584v135.152h122.893
				C195.313,414.927,157.402,371.45,157.402,319.131z"/>
		</g>
		<g>
			<rect x="256" y="288.513" style="fill:#FDCB50;" width="133.692" height="135.152"/>
			<path style="fill:#FD8F01;" d="M291.094,319.131c0-10.645,1.57-20.923,4.49-30.618H256v135.152h122.893
				C329.005,414.927,291.094,371.45,291.094,319.131z"/>
		</g>
		<g>
			<rect x="122.308" y="84.652" style="fill:#FDCB50;" width="133.692" height="135.152"/>
			<path style="fill:#FD8F01;" d="M157.402,115.27c0-10.645,1.57-20.923,4.49-30.618h-39.584v135.152h122.893
				C195.313,211.066,157.402,167.589,157.402,115.27z"/>
		</g>
		<rect x="444.782" y="34.191" style="fill:#BC9AF4;" width="57.218" height="443.618"/>
		<rect x="10" y="34.191" style="fill:#6864F7;" width="57.218" height="443.618"/>
	</g>
	<g>
		<g>
			<path style="fill:#052A75;" d="M351.95,190.563c-36.926,0-66.968-30.062-66.968-67.012S315.024,56.54,351.95,56.54
				c36.926,0,66.967,30.062,66.967,67.012S388.876,190.563,351.95,190.563z M351.95,76.54c-25.898,0-46.968,21.089-46.968,47.012
				s21.07,47.012,46.968,47.012s46.967-21.089,46.967-47.012S377.848,76.54,351.95,76.54z"/>
		</g>
		<g>
			<path style="fill:#FFFFFF;" d="M350.315,144.214c-2.171,0-4.352-0.704-6.175-2.137l-12.305-9.667
				c-4.343-3.412-5.098-9.698-1.686-14.041s9.698-5.099,14.041-1.686l5.24,4.117l11.941-12.246
				c3.856-3.955,10.187-4.034,14.141-0.178c3.954,3.856,4.034,10.187,0.178,14.141l-18.214,18.678
				C355.529,143.194,352.928,144.214,350.315,144.214z"/>
		</g>
		<g>
			<path style="fill:#FD6050;" d="M199.956,347.193h-21.603c-5.523,0-10-4.477-10-10s4.477-10,10-10h21.603c5.523,0,10,4.477,10,10
				S205.479,347.193,199.956,347.193z"/>
		</g>
		<g>
			<path style="fill:#FD6050;" d="M333.648,347.193h-21.604c-5.523,0-10-4.477-10-10s4.477-10,10-10h21.604c5.523,0,10,4.477,10,10
				S339.171,347.193,333.648,347.193z"/>
		</g>
		<g>
			<path style="fill:#FD6050;" d="M199.956,143.333h-21.603c-5.523,0-10-4.477-10-10s4.477-10,10-10h21.603c5.523,0,10,4.477,10,10
				S205.479,143.333,199.956,143.333z"/>
		</g>
		<path style="fill:#052A75;" d="M502,24.191h-57.218c-5.523,0-10,4.477-10,10v175.613H266V84.652c0-5.523-4.477-10-10-10H122.308
			c-5.523,0-10,4.477-10,10v125.152h-35.09V34.191c0-5.523-4.477-10-10-10H10c-5.523,0-10,4.477-10,10v443.618
			c0,5.523,4.477,10,10,10h57.218c5.523,0,10-4.477,10-10v-44.145h357.564v44.145c0,5.523,4.477,10,10,10H502
			c5.523,0,10-4.477,10-10V34.191C512,28.668,507.523,24.191,502,24.191z M132.308,94.652H246v115.152H132.308V94.652z
			 M57.218,467.809H20V44.191h37.218V467.809z M379.692,413.665H266V298.513h113.692V413.665z M246,413.665H132.308V298.513H246
			V413.665z M399.692,413.665V288.513c0-5.523-4.477-10-10-10H122.308c-5.523,0-10,4.477-10,10v125.152h-35.09V229.804h357.564
			v183.861H399.692z M492,467.809h-37.218V44.191H492V467.809z"/>
	</g>
</g>
<g>
</g>
<g>
</g>
<g>
</g>
<g>
</g>
<g>
</g>
<g>
</g>
<g>
</g>
<g>
</g>
<g>
</g>
<g>
</g>
<g>
</g>
<g>
</g>
<g>
</g>
<g>
</g>
<g>
</g>
</svg>
