<?xml version="1.0" encoding="iso-8859-1"?>
<!-- Generator: Adobe Illustrator 26.5.3, SVG Export Plug-In . SVG Version: 6.00 Build 0)  -->
<svg version="1.1" id="Capa_1" xmlns="http://www.w3.org/2000/svg" xmlns:xlink="http://www.w3.org/1999/xlink" x="0px" y="0px"
	 viewBox="0 0 510 510" style="enable-background:new 0 0 510 510;" xml:space="preserve">
<g>
	<g>
		<path style="fill:#67CCD1;" d="M249.039,245.023v50.906l76.541,11.887c33.28,5.168,57.826,33.822,57.826,67.5V444H10v-68.684
			c0-33.679,24.547-62.332,57.826-67.5l76.541-11.887v-50.906H249.039z"/>
		<path style="fill:#27A2CC;" d="M118.065,336.942c0-12.862,1.331-25.412,3.853-37.526l-54.091,8.4
			C34.547,312.984,10,341.637,10,375.316V444h142.588C130.869,413.883,118.065,376.91,118.065,336.942z"/>
		<path style="fill:#F7B073;" d="M144.397,295.473l27.217,27.217c13.739,13.739,36.014,13.739,49.753,0l27.217-27.217v-75.291
			H144.397V295.473z"/>
		<path style="fill:#FDE0BE;" d="M110.076,182.502c0,47.843,38.784,86.627,86.627,86.627h0c47.842,0,86.627-38.784,86.627-86.627
			v-53.211H110.076V182.502z"/>
		<path style="fill:#FDCB50;" d="M219.81,22.511V10h-46.213v12.511c-40.897,11.263-71.171,51.415-71.171,95.511v11.269h188.556
			v-11.269C290.981,73.926,260.706,33.774,219.81,22.511z"/>
		<path style="fill:#FD7DA0;" d="M311.406,305.634C311.406,305.634,311.406,305.634,311.406,305.634l0,81.01
			c0,55.575,39.65,103.239,94.297,113.355h0h0C460.35,489.884,500,442.22,500,386.645v-81.01c-36.294,0-69.37-13.767-94.297-36.363
			C380.776,291.867,347.7,305.634,311.406,305.634z"/>
	</g>
	<g>
		<g>
			<path style="fill:#FD7DA0;" d="M196.83,222.03c-8.172,0-16.343-3.11-22.564-9.331c-3.905-3.905-3.905-10.237,0-14.143
				c3.906-3.904,10.236-3.904,14.143,0c4.643,4.645,12.201,4.645,16.844,0c3.906-3.904,10.236-3.904,14.143,0
				c3.905,3.905,3.905,10.237,0,14.143C213.173,218.919,205.002,222.03,196.83,222.03z"/>
		</g>
		<path style="fill:#052A75;" d="M500,295.634c-32.452,0-63.556-11.994-87.581-33.772c-3.811-3.454-9.621-3.454-13.432,0
			c-23.819,21.592-54.597,33.559-86.747,33.762l-53.201-8.263v-31.093c20.959-17.739,34.291-44.223,34.291-73.766v-43.211h25.373
			c5.522,0,10-4.477,10-10s-4.478-10-10-10H300.98v-1.27c0-45.649-29.55-87.749-71.171-102.797V10c0-5.523-4.478-10-10-10h-46.213
			c-5.522,0-10,4.477-10,10v5.223c-41.631,15.048-71.172,57.124-71.172,102.798v1.27H74.703c-5.522,0-10,4.477-10,10s4.478,10,10,10
			h25.373v43.211c0,29.543,13.332,56.028,34.291,73.766v31.093l-68.075,10.573c-18.452,2.865-35.305,12.253-47.453,26.434
			S0,356.643,0,375.316V444c0,5.523,4.478,10,10,10h311.055c18.172,28.471,47.64,49.319,82.827,55.833
			c0.602,0.111,1.211,0.167,1.82,0.167s1.219-0.056,1.82-0.167C466.902,498.841,510,447.032,510,386.645v-81.01
			C510,300.111,505.522,295.634,500,295.634z M163.597,36.828v14.908c0,5.523,4.478,10,10,10s10-4.477,10-10V20h26.213v31.735
			c0,5.523,4.478,10,10,10s10-4.477,10-10V36.83c30.27,14.126,51.171,46.379,51.171,81.191v1.27H112.425v-1.27
			C112.425,83.189,133.321,50.95,163.597,36.828z M120.076,182.502v-43.211H273.33v43.211c0,42.252-34.375,76.626-76.627,76.626
			S120.076,224.754,120.076,182.502z M92,434v-27.094c0-5.523-4.478-10-10-10s-10,4.477-10,10V434H20v-58.684
			c0-28.944,20.759-53.176,49.361-57.619l76.54-11.887c4.872-0.756,8.466-4.951,8.466-9.881v-26.582
			c12.792,6.261,27.16,9.782,42.336,9.782s29.544-3.521,42.336-9.782v26.582c0,4.93,3.594,9.125,8.465,9.881l53.902,8.371v72.463
			c0,16.665,3.288,32.674,9.289,47.355H92z M490,386.645c0,50.128-35.34,93.221-84.297,103.169
			c-48.957-9.948-84.297-53.041-84.297-103.169v-71.34c30.85-2.041,60.214-13.49,84.297-32.884
			c24.083,19.394,53.447,30.843,84.297,32.884V386.645z"/>
		<g>
			<path style="fill:#FFFFFF;" d="M398.743,418.349c-2.56,0-5.118-0.976-7.071-2.929l-26.62-26.62
				c-3.905-3.905-3.905-10.237,0-14.142c3.906-3.905,10.236-3.906,14.143,0l19.549,19.549l35.765-35.765
				c3.906-3.904,10.236-3.904,14.143,0c3.905,3.905,3.905,10.237,0,14.143l-42.836,42.836
				C403.861,417.373,401.303,418.349,398.743,418.349z"/>
		</g>
	</g>
</g>
<g>
</g>
<g>
</g>
<g>
</g>
<g>
</g>
<g>
</g>
<g>
</g>
<g>
</g>
<g>
</g>
<g>
</g>
<g>
</g>
<g>
</g>
<g>
</g>
<g>
</g>
<g>
</g>
<g>
</g>
</svg>
