<?xml version="1.0" encoding="iso-8859-1"?>
<!-- Generator: Adobe Illustrator 27.2.0, SVG Export Plug-In . SVG Version: 6.00 Build 0)  -->
<svg version="1.1" id="Capa_1" xmlns="http://www.w3.org/2000/svg" xmlns:xlink="http://www.w3.org/1999/xlink" x="0px" y="0px"
	 viewBox="0 0 509.951 509.951" style="enable-background:new 0 0 509.951 509.951;" xml:space="preserve">
<g>
	<g>
		<path style="fill:#D2DCFD;" d="M438.726,288.194v211.757h-367.5V288.194c0-18.36,14.883-33.243,33.243-33.243h301.014
			C423.843,254.951,438.726,269.834,438.726,288.194z"/>
		<path style="fill:#93B2F4;" d="M113.63,281.265c0-8.93,0.629-17.711,1.818-26.314h-10.979c-18.36,0-33.243,14.883-33.243,33.243
			v211.757h367.5v-83.859C321.114,534.931,113.116,450.533,113.63,281.265z"/>
		<path style="fill:#93B2F4;" d="M285.601,408.076h-61.25c-16.914,0-30.625-13.711-30.625-30.625l0,0
			c0-16.914,13.711-30.625,30.625-30.625h61.25c16.914,0,30.625,13.711,30.625,30.625l0,0
			C316.226,394.365,302.515,408.076,285.601,408.076z"/>
		<path style="fill:#FDE0BE;" d="M319.937,36.861c-56.702-57.374-157.066-16.724-156.83,64.962
			c-0.001-0.001-0.001,77.606-0.001,77.606c0,31.301,15.656,58.952,39.566,75.523H307.28c23.91-16.571,39.566-44.222,39.566-75.523
			v-77.607C346.846,76.457,336.568,53.482,319.937,36.861z"/>
		<path style="fill:#D46B5C;" d="M319.937,36.861c-56.703-57.384-157.075-16.71-156.831,64.966h56.039
			c9.605,0,18.575-4.795,23.911-12.782l11.92-17.843l11.92,17.843c5.335,7.987,14.306,12.782,23.911,12.782h56.039
			C346.847,76.461,336.569,53.483,319.937,36.861z"/>
		<path style="fill:#F7B073;" d="M204.813,158.574v-56.748h-41.707v77.602c0,31.301,15.656,58.952,39.566,75.523H307.28
			c8.266-5.729,15.544-12.783,21.531-20.854h-84.432C220.469,217.527,204.813,189.876,204.813,158.574z"/>
		<path style="fill:#B55348;" d="M204.813,80.972c-0.002-27.537,12.116-52.242,31.307-69.08
			c-41.694,8.698-73.016,45.658-73.014,89.934h41.707V80.972z"/>
	</g>
	<g>
		<path style="fill:#052A75;" d="M254.976,216.228c-11.051,0-21.397-4.544-29.131-12.794c-8.685-10.033,5.135-22.999,14.591-13.678
			c7.73,8.572,21.349,8.572,29.079,0c9.445-9.312,23.281,3.634,14.591,13.678C276.373,211.684,266.027,216.228,254.976,216.228z"/>
		<path style="fill:#052A75;" d="M469.351,489.951h-20.625V288.194c0-23.845-19.398-43.243-43.243-43.243h-72.526
			c15.242-18.146,23.889-41.281,23.889-65.523c0,0,0-77.505,0-77.505c0.024-27.246-10.572-52.883-29.838-72.134
			c-63.448-63.963-174.196-17.992-173.901,72.135c-0.001-0.001-0.001,77.504-0.001,77.504c0,24.243,8.647,47.378,23.889,65.523
			h-72.526c-23.844,0-43.243,19.398-43.243,43.243v201.757c0,0-20.625,0-20.625,0c-13.15,0.48-13.378,19.417,0,20
			c0,0,30.625,0,30.625,0s367.5,0,367.5,0s30.625,0,30.625,0C482.456,509.493,482.771,490.552,469.351,489.951z M254.976,19.951
			c40.287-0.789,77.132,31.943,81.246,71.875h-45.415c-6.278,0-12.108-3.116-15.596-8.337l-11.919-17.843
			c-1.855-2.777-4.975-4.445-8.315-4.445s-6.46,1.668-8.315,4.445l-11.92,17.843c-3.488,5.22-9.318,8.337-15.596,8.337h-45.408
			C178.686,51.383,213.218,19.951,254.976,19.951z M173.106,179.428v-67.602h46.04c12.972,0,25.019-6.44,32.226-17.228l3.605-5.396
			l3.604,5.396c7.206,10.787,19.253,17.228,32.226,17.228h46.039v67.602c0,25.824-12.203,50.094-32.792,65.523h-98.157
			C185.309,229.522,173.106,205.252,173.106,179.428z M81.226,489.951c0,0,0-201.757,0-201.757
			c0-12.816,10.427-23.243,23.243-23.243c89.316,0.007,211.706-0.005,301.015,0c12.816,0,23.243,10.427,23.243,23.243v201.757
			H81.226z"/>
	</g>
</g>
<g>
</g>
<g>
</g>
<g>
</g>
<g>
</g>
<g>
</g>
<g>
</g>
<g>
</g>
<g>
</g>
<g>
</g>
<g>
</g>
<g>
</g>
<g>
</g>
<g>
</g>
<g>
</g>
<g>
</g>
</svg>
