<?xml version="1.0" encoding="iso-8859-1"?>
<!-- Generator: Adobe Illustrator 27.5.0, SVG Export Plug-In . SVG Version: 6.00 Build 0)  -->
<svg version="1.1" id="Layer_1" xmlns="http://www.w3.org/2000/svg" xmlns:xlink="http://www.w3.org/1999/xlink" x="0px" y="0px"
	 viewBox="0 0 510 510" style="enable-background:new 0 0 510 510;" xml:space="preserve">
<g>
	<g>
		<rect id="XMLID_5_" x="129.512" y="126" style="fill:#67CCD1;" width="370.488" height="346"/>
		<path style="fill:#27A2CC;" d="M243.811,287.546c0-66.332,32.27-125.119,81.958-161.546H129.512v346h236.558
			C294.223,441.608,243.811,370.464,243.811,287.546z"/>
		<rect id="XMLID_4_" x="129.512" y="38" style="fill:#93B2F4;" width="370.488" height="88"/>
		<rect id="XMLID_3_" x="129.512" y="38" style="fill:#D2DCFD;" width="125.419" height="88"/>
		<path style="fill:#FFFFFF;" d="M289.649,415.034c8.093,1.743,16.493,2.661,25.107,2.661c65.553,0,118.695-53.141,118.695-118.695
			s-53.141-118.695-118.695-118.695c-15.981,0-31.224,3.158-45.139,8.884l-49.787,71.298L255,390.005L289.649,415.034z"/>
		<path style="fill:#D2DCFD;" d="M289.651,415.025c-28.63-34.625-45.84-79.041-45.84-127.479c0-35.75,9.387-69.301,25.81-98.348
			c-43.166,17.763-73.559,60.23-73.559,109.802C196.061,355.938,236.157,403.505,289.651,415.025z"/>
		<circle style="fill:#27A2CC;" cx="314.756" cy="299" r="74.695"/>
		<path style="fill:#FFFFFF;" d="M339.192,299L339.192,299c0,14.083,11.417,25.5,25.5,25.5h20.289
			c2.89-7.958,4.471-16.544,4.471-25.5s-1.58-17.542-4.471-25.5h-20.289C350.608,273.5,339.192,284.917,339.192,299z"/>
		<path style="fill:#FDCB50;" d="M10,384h142.589v56.681c0,17.297-14.022,31.319-31.319,31.319H41.319
			C24.022,472,10,457.978,10,440.681V384z"/>
		<path style="fill:#FD7DA0;" d="M130.589,384H32c-12.15,0-22-9.85-22-22v0c0-12.15,9.85-22,22-22h98.589c12.15,0,22,9.85,22,22v0
			C152.589,374.15,142.739,384,130.589,384z"/>
		<path style="fill:#B1D952;" d="M130.589,340H32c-12.15,0-22-9.85-22-22v0c0-12.15,9.85-22,22-22h98.589c12.15,0,22,9.85,22,22v0
			C152.589,330.15,142.739,340,130.589,340z"/>
	</g>
	<g>
		<path style="fill:#052A75;" d="M500,28H129.512c-5.523,0-10,4.478-10,10v248H32c-17.645,0-32,14.355-32,32
			c0,8.517,3.351,16.26,8.795,22C3.351,345.74,0,353.483,0,362c0,5.196,1.253,10.103,3.46,14.446C1.344,378.28,0,380.98,0,384
			v56.682C0,463.465,18.535,482,41.318,482H500c5.523,0,10-4.478,10-10V38C510,32.478,505.523,28,500,28z M490,116H264.931V48H490
			V116z M139.512,48h105.419v68H139.512V48z M32,306h98.588c6.617,0,12,5.383,12,12s-5.383,12-12,12H32c-6.617,0-12-5.383-12-12
			S25.383,306,32,306z M20,362c0-6.617,5.383-12,12-12h98.588c6.617,0,12,5.383,12,12s-5.383,12-12,12H32
			C25.383,374,20,368.617,20,362z M41.318,462C29.563,462,20,452.437,20,440.682V394h122.588v46.682
			c0,11.755-9.563,21.318-21.318,21.318H41.318z M490,462H156.65c3.767-6.228,5.938-13.524,5.938-21.318V384
			c0-3.02-1.344-5.72-3.46-7.554c2.207-4.343,3.46-9.25,3.46-14.446c0-8.517-3.351-16.26-8.795-22c5.444-5.74,8.795-13.483,8.795-22
			c0-14.547-9.762-26.851-23.076-30.724V136H490V462z"/>
		<g>
			<path style="fill:#052A75;" d="M456,72h-69.069c-5.523,0-10,4.478-10,10s4.477,10,10,10H456c5.523,0,10-4.478,10-10
				S461.523,72,456,72z"/>
			<circle style="fill:#052A75;" cx="342.93" cy="82.001" r="10"/>
			<circle style="fill:#052A75;" cx="298.93" cy="82.001" r="10"/>
		</g>
		<path style="fill:#052A75;" d="M314.756,383.694c46.701,0,84.695-37.994,84.695-84.694s-37.994-84.694-84.695-84.694
			S230.062,252.3,230.062,299S268.055,383.694,314.756,383.694z M314.756,234.306c35.673,0,64.695,29.021,64.695,64.694
			s-29.022,64.694-64.695,64.694c-35.672,0-64.694-29.021-64.694-64.694S279.083,234.306,314.756,234.306z"/>
	</g>
</g>
<g>
</g>
<g>
</g>
<g>
</g>
<g>
</g>
<g>
</g>
<g>
</g>
<g>
</g>
<g>
</g>
<g>
</g>
<g>
</g>
<g>
</g>
<g>
</g>
<g>
</g>
<g>
</g>
<g>
</g>
</svg>
