<?xml version="1.0" encoding="iso-8859-1"?>
<!-- Generator: Adobe Illustrator 26.5.1, SVG Export Plug-In . SVG Version: 6.00 Build 0)  -->
<svg version="1.1" id="Capa_1" xmlns="http://www.w3.org/2000/svg" xmlns:xlink="http://www.w3.org/1999/xlink" x="0px" y="0px"
	 viewBox="0 0 512 512" style="enable-background:new 0 0 512 512;" xml:space="preserve">
<g>
	<g>
		<path style="fill:#67CCD1;" d="M10,377.155v52.118h108.464L98.809,275.412C48.662,282.184,10,325.152,10,377.155z"/>
		<path style="fill:#27A2CC;" d="M253.295,296.968c-14.166-11.346-31.406-19.007-50.269-21.555l-19.655,153.859h64.162
			L253.295,296.968z"/>
		<polygon style="fill:#FFFFFF;" points="98.809,284.517 118.464,429.273 183.371,429.273 203.026,284.519 203.026,284.517 		"/>
		<path style="fill:#D46B5C;" d="M229.758,42.078C224.43,23.555,207.371,10,187.135,10h-72.434
			c-20.345,0-37.479,13.701-42.708,32.377c-17.137,13.077-26.916,35.04-22.885,58.256l9.081,52.306h185.459l9.341-51.949
			C257.217,77.476,247.239,55.188,229.758,42.078z"/>
		<path style="fill:#FDE0BE;" d="M221.557,130.85v-5.025c0-20.52-8.758-38.989-22.73-51.895
			c-13.692,9.204-30.172,14.578-47.91,14.578s-34.218-5.374-47.91-14.578c-13.972,12.906-22.73,31.374-22.73,51.895v5.025
			c-12.2,0-22.09,9.89-22.09,22.09c0,12.2,9.89,22.09,22.09,22.09v5.193c0,25.52,13.535,47.874,33.816,60.288v33.966l36.824,43.493
			l36.824-43.493V240.51c20.28-12.414,33.816-34.768,33.816-60.288v-5.193c12.2,0,22.09-9.89,22.09-22.09
			C243.647,140.74,233.757,130.85,221.557,130.85z"/>
		<circle style="fill:#FDCB50;" cx="370.321" cy="370.321" r="131.679"/>
		<path style="fill:#F7B073;" d="M187.892,238.05c0,0-24.609,8.734-36.975,8.734c-0.18,0-0.357-0.001-0.538-0.002
			c-12.088-0.09-36.437-8.732-36.437-8.732v29.356c11.389,4.521,23.618,6.932,36.213,7.025c0.259,0.002,0.508,0.003,0.761,0.003
			c13.044,0,25.518-2.485,36.975-7.005V238.05z"/>
	</g>
	<g>
		<path style="fill:#052A75;" d="M150.917,217.229c20.178,0,36.595-16.416,36.595-36.594c0-5.523-4.477-10-10-10s-10,4.477-10,10
			c0,9.15-7.444,16.594-16.595,16.594c-9.15,0-16.594-7.444-16.594-16.594c0-5.523-4.477-10-10-10s-10,4.477-10,10
			C114.323,200.812,130.739,217.229,150.917,217.229z"/>
		<path style="fill:#052A75;" d="M457.817,349.275h-12.09v-34.182c0-5.523-4.477-10-10-10h-55.406v-6.389c0-5.523-4.477-10-10-10
			s-10,4.477-10,10v6.389h-55.406c-5.523,0-10,4.477-10,10v34.182h-12.09c-5.523,0-10,4.477-10,10v22.093
			c0,17.694,14.396,32.09,32.09,32.09s32.09-14.396,32.09-32.09v-22.093c0-5.523-4.477-10-10-10h-12.09v-24.182h45.406v110.448
			c0,0.014,0.002,0.028,0.002,0.042h-26.84c-5.523,0-10,4.477-10,10s4.477,10,10,10h73.677c5.523,0,10-4.477,10-10s-4.477-10-10-10
			h-26.841c0-0.014,0.002-0.027,0.002-0.042V325.093h45.406v24.182h-12.09c-5.523,0-10,4.477-10,10v22.093
			c0,17.694,14.396,32.09,32.09,32.09s32.09-14.396,32.09-32.09v-22.093C467.817,353.752,463.34,349.275,457.817,349.275z
			 M317.005,381.368c0,6.667-5.423,12.09-12.09,12.09s-12.09-5.423-12.09-12.09v-12.093h24.18V381.368z M447.817,381.368
			c0,6.667-5.423,12.09-12.09,12.09s-12.09-5.423-12.09-12.09v-12.093h24.18V381.368z"/>
		<path style="fill:#052A75;" d="M370.321,228.643c-46.8,0-88.366,22.815-114.179,57.901c-16.989-12.559-37.336-20.115-58.4-21.738
			v-18.979c19.635-14.054,32.734-36.684,33.752-62.373c12.495-4.078,21.617-15.64,22.107-29.362l9.23-51.334
			c4.535-25.218-4.821-50.457-24.496-66.657C230.688,14.686,210.1,0,187.135,0h-72.434C91.555,0,70.91,14.836,63.37,36.471
			c-19.217,16.104-28.426,41.042-24.116,65.872l8.979,51.721c0.479,13.734,9.604,25.309,22.108,29.39
			c1.018,25.689,14.117,48.319,33.751,62.373V264.8C45.959,269.203,0,317.914,0,377.155v52.117c0,5.523,4.477,10,10,10h236.593
			C270.848,482.624,317.215,512,370.321,512C448.443,512,512,448.443,512,370.321C512,292.2,448.443,228.643,370.321,228.643z
			 M126.987,419.272l-10.834-67.509l34.765-21.966l34.765,21.966l-10.834,67.509H126.987z M82.166,419.272L63.033,300.051
			c-0.054-0.337-0.125-0.668-0.211-0.991c7.048-4.515,14.746-8.099,22.918-10.586l20.991,130.799H82.166z M109.508,284.536
			l26.349,31.12l-23.151,14.628l-7.306-45.523C106.761,284.655,108.131,284.583,109.508,284.536z M189.13,330.284l-23.151-14.628
			l26.344-31.115c1.377,0.045,2.748,0.118,4.113,0.222L189.13,330.284z M78.059,50.327c1.727-1.317,2.978-3.162,3.563-5.253
			C85.756,30.311,99.358,20,114.701,20h72.434c15.23,0,28.805,10.215,33.013,24.842c0.602,2.091,1.87,3.93,3.611,5.236
			c15.341,11.504,22.77,30.334,19.388,49.142l-4.75,26.417c-2.15-1.331-4.465-2.418-6.911-3.216
			c-0.905-21.188-10.22-41.38-25.872-55.837c-3.403-3.144-8.52-3.538-12.364-0.954c-12.532,8.425-27.17,12.877-42.331,12.877
			c-15.162,0-29.799-4.453-42.331-12.877c-3.845-2.585-8.961-2.191-12.364,0.953c-15.652,14.457-24.967,34.649-25.872,55.837
			c-2.392,0.78-4.66,1.835-6.769,3.126l-4.622-26.624C55.743,80.392,63.061,61.771,78.059,50.327z M90.278,180.222v-5.192
			c0-5.523-4.477-10-10-10c-6.667,0-12.09-5.423-12.09-12.09s5.423-12.09,12.09-12.09c5.523,0,10-4.477,10-10v-5.025
			c0-14.371,5.171-28.292,14.38-39.184c14.123,7.786,29.954,11.867,46.259,11.867c16.305,0,32.137-4.081,46.26-11.867
			c9.21,10.892,14.38,24.812,14.38,39.184v5.025c0,5.523,4.477,10,10,10c6.667,0,12.09,5.423,12.09,12.09s-5.423,12.09-12.09,12.09
			c-5.523,0-10,4.477-10,10v5.192c0,33.437-27.203,60.64-60.64,60.64S90.278,213.659,90.278,180.222z M150.917,260.862
			c9.401,0,18.428-1.622,26.824-4.592v14.542l-26.824,31.682l-26.824-31.682v-14.542
			C132.489,259.24,141.517,260.862,150.917,260.862z M20,377.155c0-24.427,9.503-46.672,25.001-63.245L61.91,419.272H20V377.155z
			 M195.104,419.272l21-130.853c10.507,3.177,20.378,8.26,29.307,15.101c-10.693,19.914-16.768,42.66-16.768,66.801
			c0,17.198,3.083,33.688,8.72,48.951H195.104z M370.321,492c-67.094,0-121.678-54.585-121.678-121.679
			s54.584-121.678,121.678-121.678S492,303.228,492,370.321S437.415,492,370.321,492z"/>
	</g>
</g>
<g>
</g>
<g>
</g>
<g>
</g>
<g>
</g>
<g>
</g>
<g>
</g>
<g>
</g>
<g>
</g>
<g>
</g>
<g>
</g>
<g>
</g>
<g>
</g>
<g>
</g>
<g>
</g>
<g>
</g>
</svg>
