<?xml version="1.0" encoding="iso-8859-1"?>
<!-- Generator: Adobe Illustrator 27.0.0, SVG Export Plug-In . SVG Version: 6.00 Build 0)  -->
<svg version="1.1" id="Capa_1" xmlns="http://www.w3.org/2000/svg" xmlns:xlink="http://www.w3.org/1999/xlink" x="0px" y="0px"
	 viewBox="0 0 512 512" style="enable-background:new 0 0 512 512;" xml:space="preserve">
<g>
	<g>
		<path style="fill:#FDCB50;" d="M277.023,176.044v-54.665c0-37.016-29.919-67.024-66.826-67.024h-34.518
			c-11.571,0-22.719,4.36-31.237,12.215l-5.535,5.105h-5.825c-28.237,0-51.127,22.958-51.127,51.279v53.09H277.023z"/>
		<path style="fill:#93B2F4;" d="M348.978,502l-15.533-76.723l-8.01-39.562c-3.614-17.85-16.918-31.608-33.704-34.855l-19.86-3.841
			c0,0-10.994-1.902-21.982-3.802c-13.368-2.312-24.164-12.204-27.635-25.321l-9.225-34.856l-67.082,0l-9.947,35.389
			c-3.607,12.834-14.245,22.468-27.372,24.787l-21.522,3.803l-19.86,3.841c-16.786,3.247-30.09,17.005-33.704,34.855l-8.01,39.562
			L10,502C10,502,348.978,502,348.978,502z"/>
		<path style="fill:#D46B5C;" d="M232.755,334.951l-53.317,57.564l-53.819-57.514c4.468-3.956,7.912-9.067,9.87-14.921
			c0.181-0.542,0.352-1.094,0.512-1.657l9.95-35.384h67.073l9.228,34.852c0.201,0.743,0.412,1.476,0.663,2.189
			C224.873,325.904,228.297,331.005,232.755,334.951z"/>
		<path style="fill:#6864F7;" d="M348.978,502H238.037c-0.08-0.994-0.11-1.998-0.11-3.012V395.527
			c0-23.807,19.369-43.176,43.176-43.176h16.166c14.127,4.91,24.961,17.531,28.165,33.366l8.013,39.561L348.978,502z"/>
		<path style="fill:#FDCB50;" d="M476.643,420.006H368.562v-96.931c0-1.657,1.343-3,3-3h102.081c1.657,0,3,1.343,3,3V420.006z"/>
		<rect x="368.557" y="352.352" style="fill:#FD8F01;" width="108.089" height="67.655"/>
		<path style="fill:#FDCB50;" d="M499,502H281.088c-1.657,0-3-1.343-3-3V395.519c0-1.657,1.343-3,3-3H499c1.657,0,3,1.343,3,3V499
			C502,500.657,500.657,502,499,502z"/>
		<path style="fill:#FFFFFF;" d="M454.423,457.526h-38.961c-1.657,0-3-1.343-3-3v-62.007h44.961v62.007
			C457.423,456.183,456.079,457.526,454.423,457.526z"/>
		<path style="fill:#D46B5C;" d="M268.385,175.194c17.627,0,31.916,14.332,31.916,32.011v0c0,17.679-14.289,32.011-31.916,32.011
			H90.998c-17.627,0-31.916-14.332-31.916-32.011v0c0-17.679,14.289-32.011,31.916-32.011H268.385z"/>
		<path style="fill:#B55348;" d="M224.371,323.705c-13.977,6.356-29.339,9.699-44.682,9.699c-15.634,0-31.297-3.474-45.485-10.061
			c0.482-1.054,0.914-2.149,1.285-3.263c0.181-0.542,0.352-1.094,0.512-1.657l9.95-35.384h67.073l9.228,34.852
			c0.201,0.743,0.412,1.476,0.663,2.189C223.327,321.326,223.819,322.53,224.371,323.705z"/>
		<path style="fill:#D46B5C;" d="M212.316,290.536L212.316,290.536c-20.538,10.299-44.712,10.299-65.25,0l0,0
			c-24.715-12.394-40.327-37.729-40.327-65.443l0.456-49.898l2.547-0.781c33.16-10.168,59.311-35.887,70.098-68.939l0,0l0.027,0.083
			c10.82,33.005,36.964,58.672,70.095,68.817l2.681,0.821v49.898C252.643,252.806,237.031,278.142,212.316,290.536z"/>
		<path style="fill:#FD8F01;" d="M284.287,126.72H74.614v-0.442c0-57.426,46.985-104.41,104.41-104.41h0.853
			c57.426,0,104.41,46.985,104.41,104.41V126.72z"/>
		<path style="fill:#FDCB50;" d="M202.033,17.859v33.923c0,12.433-10.079,22.512-22.512,22.512h-0.184
			c-12.433,0-22.512-10.079-22.512-22.512V17.859c0-4.323,3.537-7.859,7.859-7.859h29.489C198.497,10,202.033,13.537,202.033,17.859
			z"/>
	</g>
	<g>
		<path style="fill:#052A75;" d="M499,382.519h-12.356v-59.431c0-7.175-5.838-13.012-13.013-13.012H371.575
			c-7.175,0-13.013,5.837-13.013,13.012v59.431h-23.676c-4.782-21.305-20.881-37.522-41.33-41.478
			c-10.43-2.125-31.482-5.941-42.024-7.679c-9.483-1.641-17.202-8.716-19.666-18.026l-5.665-21.409
			c15.927-10.779,27.42-26.565,32.853-44.71h9.263c23.108,0,41.908-18.846,41.908-42.011c0-16.456-9.492-30.724-23.271-37.613
			V136.72h12.969c5.522,0,10-4.477,10-10s-4.478-10-10-10h-6.154c-1.986-22.419-10.623-44.028-24.827-61.72
			c-14.682-18.287-34.734-31.735-56.971-38.375C211.332,7.353,203.605,0,194.174,0h-29.488c-9.427,0-17.151,7.347-17.796,16.612
			c-22.214,6.623-42.249,20.034-56.937,38.286C75.705,72.604,67.04,94.238,65.046,116.72H58.89c-5.522,0-10,4.477-10,10
			s4.478,10,10,10h13.047v33.079c-13.56,6.965-22.868,21.111-22.868,37.406c0,23.165,18.8,42.011,41.908,42.011h9.263
			c5.373,17.946,16.669,33.591,32.325,44.36l-6.223,22.146c-2.552,9.078-10.197,16.004-19.479,17.645
			c-10.427,1.772-31.199,5.59-41.53,7.674c-20.836,4.031-37.164,20.787-41.597,42.689L0.199,500.016
			c-0.596,2.94,0.161,5.993,2.06,8.315C4.158,510.653,7,512,10,512l489,0c7.168,0,13-5.832,13-13V395.519
			C512,388.351,506.168,382.519,499,382.519z M378.562,330.076h88.081v52.443h-88.081V330.076z M270.001,356.854l19.757,3.822
			c11.203,2.167,20.331,10.51,24.357,21.842h-33.026c-7.168,0-13,5.832-13,13V492l-78.644,0v-95.568l44.717-48.286
			c4.284,2.371,8.986,4.062,13.96,4.923L270.001,356.854z M150.688,303.009c9.309,3.465,19.133,5.205,28.959,5.205
			c9.605,0,19.21-1.658,28.332-4.968l4.552,17.207c1.385,5.234,3.69,10.077,6.722,14.357l-39.853,43.034l-40.326-43.094
			c2.891-4.086,5.13-8.67,6.521-13.617L150.688,303.009z M254.077,165.194c-17.481-5.117-33.081-15.02-45.036-28.474h57.913v28.474
			H254.077z M268.317,229.216h-5.849c0.066-1.369,0.112-2.742,0.112-4.124v-39.898h5.737c12.08,0,21.908,9.874,21.908,22.011
			C290.226,219.342,280.397,229.216,268.317,229.216z M166.826,20h25.207v31.782c0,6.899-5.612,12.512-12.512,12.512h-0.184
			c-6.899,0-12.512-5.613-12.512-12.512V20z M105.534,67.437c10.866-13.503,25.252-23.809,41.292-29.75v14.096
			c0,17.927,14.585,32.512,32.512,32.512h0.184c17.927,0,32.512-14.584,32.512-32.512V37.707
			c16.054,5.957,30.452,16.287,41.312,29.814c11.354,14.144,18.405,31.309,20.331,49.199H85.132
			C87.058,98.811,94.133,81.605,105.534,67.437z M106.984,164.791l-1.55,0.403H91.936V136.72h58.643
			C138.946,149.812,123.927,159.554,106.984,164.791z M90.976,229.216c-12.08,0-21.908-9.874-21.908-22.011
			c0-12.137,9.828-22.011,21.908-22.011h5.737v39.898c0,1.382,0.046,2.755,0.112,4.124H90.976z M116.714,225.092v-42.447
			c24.202-8.403,44.892-24.513,59.015-45.925h8.152c14.066,21.302,34.64,37.351,58.699,45.774v42.598
			c0,24.086-13.335,45.737-34.8,56.505c-17.616,8.836-38.65,8.835-56.267,0C130.049,270.83,116.714,249.178,116.714,225.092z
			 M43.338,387.698c2.82-13.929,12.944-24.535,25.794-27.021c10.201-2.058,30.922-5.867,41.212-7.615
			c4.925-0.87,9.583-2.583,13.841-4.954l45.261,48.367V492l-78.644,0v-34.594c0-5.523-4.478-10-10-10s-10,4.477-10,10V492l-48.575,0
			L43.338,387.698z M492,492H288.089v-89.481H492V492z"/>
		<g>
			<path style="fill:#FD8F01;" d="M355.378,467.526h-33.073c-5.522,0-10-4.477-10-10s4.478-10,10-10h33.073c5.522,0,10,4.477,10,10
				S360.9,467.526,355.378,467.526z"/>
		</g>
		<g>
			<path style="fill:#6864F7;" d="M132.91,422.63h-30.918c-5.522,0-10-4.477-10-10s4.478-10,10-10h30.918c5.522,0,10,4.477,10,10
				S138.433,422.63,132.91,422.63z"/>
		</g>
	</g>
</g>
<g>
</g>
<g>
</g>
<g>
</g>
<g>
</g>
<g>
</g>
<g>
</g>
<g>
</g>
<g>
</g>
<g>
</g>
<g>
</g>
<g>
</g>
<g>
</g>
<g>
</g>
<g>
</g>
<g>
</g>
</svg>
