<?xml version="1.0" encoding="iso-8859-1"?>
<!-- Generator: Adobe Illustrator 27.0.0, SVG Export Plug-In . SVG Version: 6.00 Build 0)  -->
<svg version="1.1" id="Capa_1" xmlns="http://www.w3.org/2000/svg" xmlns:xlink="http://www.w3.org/1999/xlink" x="0px" y="0px"
	 viewBox="0 0 512 512" style="enable-background:new 0 0 512 512;" xml:space="preserve">
<g>
	<g>
		<path style="fill:#67CCD1;" d="M388.431,128.869h-42.295c-5.72,0-10.358,4.645-10.358,10.374v26.481
			c0,8.329-9.889,12.68-16.013,7.046l-39.824-36.634c-5.08-4.673-11.727-7.267-18.625-7.267h-32.431
			c-14.514,0-26.28-11.784-26.28-26.321V36.321c0-14.537,11.766-26.321,26.28-26.321h159.547c12.365,0,22.389,10.04,22.389,22.425
			v74.019C410.821,118.829,400.797,128.869,388.431,128.869z"/>
		<path style="fill:#27A2CC;" d="M336.457,135.54c-0.442,1.155-0.683,2.4-0.683,3.705v26.478c0,8.334-9.88,12.681-16.005,7.049
			l-39.832-36.639c-5.081-4.669-11.728-7.259-18.626-7.259H228.88c-14.509,0-26.277-11.788-26.277-26.327V36.317
			C202.603,21.788,214.371,10,228.88,10h27.241c-1.315,6.697-1.998,13.625-1.998,20.714
			C254.122,81.501,289.205,124.084,336.457,135.54z"/>
		<path style="fill:#B1D952;" d="M153.292,371.244l0,33.34c0,5.056,4.093,9.156,9.141,9.156h23.333
			c7.339,0,11.173,8.741,6.209,14.155l-32.28,35.202c-4.118,4.491-6.403,10.366-6.403,16.464l0,2.93
			c0,10.775-8.721,19.51-19.48,19.51l-103.882,0c-10.758,0-19.48-8.735-19.48-19.51l0-111.246c0-10.775,8.721-19.51,19.48-19.51
			l103.882,0C144.571,351.733,153.292,360.468,153.292,371.244z"/>
		<path style="fill:#91B706;" d="M152.971,486.055c-1.677,9.067-9.619,15.945-19.158,15.945H29.931
			c-10.754,0-19.479-8.735-19.479-19.509V371.249c0-10.784,8.726-19.519,19.479-19.519h25.534
			c-2.169,8.535-3.324,17.471-3.324,26.678C52.141,435.61,96.682,482.42,152.971,486.055z"/>
		<path style="fill:#FDE0BE;" d="M183.556,167.139v118.592c0,6.627-5.422,12.049-12.049,12.049H22.059
			c-6.627,0-12.049-5.422-12.049-12.049V167.139c0-5.583,4.518-10.111,10.101-10.111h153.343
			C179.037,157.028,183.556,161.556,183.556,167.139z"/>
		<path style="fill:#F7B073;" d="M120.288,297.78H22.059c-6.627,0-12.049-5.422-12.049-12.049V167.139
			c0-5.583,4.518-10.111,10.101-10.111h58.006c-7.109,14.379-11.105,30.574-11.105,47.704
			C67.012,244.383,88.409,279.044,120.288,297.78z"/>
		<path style="fill:#FFFFFF;" d="M108.255,435.273L75.07,452.465c-6.29,3.259-13.791-1.314-13.791-8.406v-34.384
			c0-7.093,7.501-11.665,13.791-8.406l33.185,17.192C115.066,421.989,115.066,431.745,108.255,435.273z"/>
		<g>
			<path style="fill:#6864F7;" d="M342.196,430.153l-29.322,29.36c-9.707,9.719-9.707,25.478,0,35.197l0,0
				c9.707,9.719,25.445,9.719,35.152,0l37.69-37.738L342.196,430.153z"/>
			<path style="fill:#6864F7;" d="M251.921,313.091l7.784,7.794l68.775-68.864l-7.784-7.794c-18.015-18.038-47.493-18.038-65.508,0
				l-3.267,3.271C233.906,265.536,233.906,295.053,251.921,313.091z"/>
		</g>
		<g>
			<path style="fill:#D2DCFD;" d="M492.98,450.14l-36.38,36.44c-11.42,11.43-29.94,11.43-41.35,0l-47.12-47.18l-149.47-71.25
				l156.11-156.14l71.09,149.56l0.01-0.01l47.11,47.18C504.4,420.17,504.4,438.71,492.98,450.14z"/>
			<path style="fill:#93B2F4;" d="M393.686,413.808l2.663,7.662l-19.238,18.655l-8.976-0.727l-149.47-71.252l96.956-96.969
				C317.349,330.442,347.871,382.485,393.686,413.808z"/>
			<path style="fill:#93B2F4;" d="M368.132,439.4l47.115,47.176c11.418,11.433,29.931,11.433,41.349,0l36.387-36.434
				c11.418-11.433,11.418-29.97,0-41.403l-47.115-47.176L368.132,439.4z"/>
			<path style="fill:#6864F7;" d="M497.112,444.94c-1.144,1.856-2.53,3.598-4.131,5.199l-36.382,36.433
				c-11.416,11.441-29.937,11.441-41.353,0l-47.111-47.175l25.552-25.59c28.742,19.653,63.51,31.145,100.96,31.145
				C495.472,444.953,496.299,444.953,497.112,444.94z"/>
		</g>
	</g>
	<g>
		<g>
			<path style="fill:#B55348;" d="M190.01,278.625l-57.365-48.435l56.528-38.348c4.57-3.101-6.658-19.65-11.229-16.551
				l-81.16,55.058l-81.16-55.058c-4.569-3.101-15.799,13.45-11.229,16.551l56.528,38.348L3.559,278.625
				c-4.22,3.563,11.025,16.866,12.902,15.281l61.653-52.055l13.056,8.857c1.695,1.15,3.654,1.725,5.614,1.725
				s3.919-0.575,5.614-1.725l13.056-8.857l61.653,52.055C178.985,295.492,194.23,282.188,190.01,278.625z"/>
			<g>
				<circle style="fill:#FFFFFF;" cx="261.54" cy="72.49" r="10"/>
				<circle style="fill:#FFFFFF;" cx="307.55" cy="72.49" r="10"/>
				<circle style="fill:#FFFFFF;" cx="353.56" cy="72.49" r="10"/>
			</g>
		</g>
		<g>
			<path style="fill:#052A75;" d="M500.551,401.94l-45.74-45.814l-69.44-146.094l6.704-6.714c3.902-3.908,3.897-10.24-0.011-14.142
				c-3.907-3.902-10.24-3.897-14.142,0.011l-49.379,49.457l-1.595-1.597c-10.567-10.583-24.665-16.412-39.698-16.412
				s-29.131,5.829-39.698,16.412l-3.292,3.298c-21.879,21.912-21.879,57.565-0.001,79.477l1.617,1.62L199.2,368.191
				c-3.902,3.908-3.897,10.24,0.011,14.142c1.952,1.949,4.509,2.923,7.065,2.923c2.562,0,5.124-0.979,7.076-2.935l3.994-4
				l110.895,52.876l-21.35,21.385c-13.549,13.569-13.549,35.647,0,49.216c6.567,6.578,15.3,10.2,24.59,10.201c0,0,0,0,0.001,0
				c9.289,0,18.023-3.623,24.592-10.201l30.481-30.53l22.365,22.401c7.394,7.405,17.225,11.483,27.683,11.483
				s20.289-4.078,27.683-11.483l36.265-36.323C515.803,442.071,515.803,417.216,500.551,401.94z M258.412,305.691
				c-14.098-14.12-14.098-37.095,0.001-51.215l3.293-3.298c6.787-6.799,15.859-10.543,25.544-10.543s18.757,3.744,25.545,10.543
				l1.617,1.62l-54.405,54.491L258.412,305.691z M341.921,487.668c-2.79,2.793-6.497,4.332-10.439,4.332
				c-3.941,0-7.648-1.539-10.438-4.332c-5.768-5.777-5.768-15.176,0.001-20.954l26.344-26.386l15.792,7.53l9.243,9.258
				L341.921,487.668z M486.398,443.216l-36.265,36.323c-3.615,3.62-8.42,5.614-13.529,5.614s-9.914-1.994-13.528-5.614
				l-46.957-47.032c-0.806-0.807-1.744-1.47-2.773-1.961l-141.011-67.236l138.035-138.253l67.118,141.209
				c0.488,1.029,1.149,1.966,1.954,2.772l46.957,47.032C493.87,423.555,493.87,435.732,486.398,443.216z"/>
			<path style="fill:#052A75;" d="M228.884,138.869h32.432c4.401,0,8.611,1.643,11.854,4.627l39.825,36.634
				c3.72,3.421,8.379,5.202,13.146,5.202c2.66,0,5.354-0.555,7.937-1.688c7.217-3.167,11.7-10.034,11.7-17.92v-26.481
				c0-0.206,0.16-0.374,0.357-0.374h42.295c17.859,0,32.39-14.546,32.39-32.425v-74.02C420.821,14.546,406.29,0,388.431,0H228.884
				c-20.005,0-36.279,16.293-36.279,36.321v66.227C192.605,122.576,208.879,138.869,228.884,138.869z M212.605,36.321
				c0-9,7.303-16.321,16.279-16.321h159.547c6.832,0,12.39,5.574,12.39,12.425v74.02c0,6.851-5.558,12.425-12.39,12.425h-42.295
				c-11.226,0-20.357,9.14-20.357,20.374l-0.001,25.471l-39.066-35.938c-6.944-6.389-15.964-9.908-25.396-9.908h-32.432
				c-8.977,0-16.279-7.321-16.279-16.321V36.321z"/>
			<path style="fill:#052A75;" d="M185.767,403.739h-22.475v-32.496c0-16.272-13.225-29.51-29.479-29.51H29.931
				c-16.255,0-29.479,13.238-29.479,29.51v111.246C0.451,498.762,13.676,512,29.931,512h103.882
				c16.255,0,29.479-13.238,29.479-29.511v-2.93c0-3.605,1.34-7.052,3.773-9.706l32.279-35.201
				c5.021-5.474,6.281-13.099,3.29-19.899C199.648,407.959,193.184,403.739,185.767,403.739z M152.325,456.337
				c-5.825,6.352-9.033,14.6-9.033,23.223v2.93c0,5.244-4.253,9.511-9.479,9.511H29.931c-5.227,0-9.479-4.267-9.479-9.511V371.244
				c0-5.244,4.253-9.51,9.479-9.51h103.882c5.227,0,9.479,4.266,9.479,9.51v33.34c0,10.562,8.587,19.156,19.141,19.156h19.784
				L152.325,456.337z"/>
			<path style="fill:#052A75;" d="M22.01,307.775h149.549c12.131,0,22-9.869,22-22v-116.75c0-12.131-9.869-22-22-22H22.01
				c-12.131,0-22,9.869-22,22v116.75C0.01,297.906,9.879,307.775,22.01,307.775z M20.01,169.025c0-1.103,0.897-2,2-2h149.549
				c1.103,0,2,0.897,2,2v116.75c0,1.084-0.916,2-2,2H22.01c-1.084,0-2-0.916-2-2V169.025z"/>
			<path style="fill:#052A75;" d="M112.855,409.581l-33.184-17.191c-6.078-3.148-13.196-2.904-19.042,0.651
				c-5.854,3.56-9.35,9.778-9.35,16.634v34.384c0,6.855,3.495,13.074,9.349,16.634c3.119,1.897,6.599,2.852,10.091,2.852
				c3.054,0,6.116-0.731,8.952-2.2l33.185-17.192c6.48-3.358,10.507-9.981,10.507-17.285
				C123.364,419.563,119.337,412.939,112.855,409.581z M71.28,443.167v-32.601l31.463,16.3L71.28,443.167z"/>
		</g>
	</g>
</g>
<g>
</g>
<g>
</g>
<g>
</g>
<g>
</g>
<g>
</g>
<g>
</g>
<g>
</g>
<g>
</g>
<g>
</g>
<g>
</g>
<g>
</g>
<g>
</g>
<g>
</g>
<g>
</g>
<g>
</g>
</svg>
