<?xml version="1.0" encoding="iso-8859-1"?>
<!-- Generator: Adobe Illustrator 29.1.0, SVG Export Plug-In . SVG Version: 9.03 Build 55587)  -->
<svg version="1.1" id="Capa_1" xmlns="http://www.w3.org/2000/svg" xmlns:xlink="http://www.w3.org/1999/xlink" x="0px" y="0px"
	 viewBox="0 0 512 512" style="enable-background:new 0 0 512 512;" xml:space="preserve">
<g>
	<g>
		<path style="fill-rule:evenodd;clip-rule:evenodd;fill:#FDCB50;" d="M30.082,352.392h451.837c11.045,0,20.082,9.037,20.082,20.082
			v35.143h-492v-35.143C10.001,361.428,19.037,352.392,30.082,352.392z"/>
		<path style="fill-rule:evenodd;clip-rule:evenodd;fill:#FDBEB9;" d="M70.244,351.388c22.121,0,40.163-18.042,40.163-40.163
			c0-22.121-18.042-40.163-40.163-40.163c-22.121,0-40.163,18.042-40.163,40.163C30.081,333.345,48.123,351.388,70.244,351.388z"/>
		<path style="fill-rule:evenodd;clip-rule:evenodd;fill:#FFFFFF;" d="M150.57,272.065h226.174c10.355,0,18.826,8.472,18.826,18.826
			v61.5H131.996c-11.873,0-21.589-9.715-21.589-21.588v-18.575C110.407,290.139,128.481,272.065,150.57,272.065z"/>
		<path style="fill-rule:evenodd;clip-rule:evenodd;fill:#FDBEB9;" d="M395.571,352.392h61.499
			c13.668,0,24.851-11.183,24.851-24.851v-0.001c0-13.668-11.183-24.85-24.851-24.85h-61.499V352.392z"/>
		<path style="fill-rule:evenodd;clip-rule:evenodd;fill:#D46B5C;" d="M351.988,90.327c22.121,0,40.163-18.042,40.163-40.163
			c0-22.121-18.042-40.163-40.163-40.163s-40.163,18.042-40.163,40.163C311.824,72.284,329.866,90.327,351.988,90.327z"/>
		<rect x="30.08" y="407.616" style="fill-rule:evenodd;clip-rule:evenodd;fill:#D46B5C;" width="45.184" height="94.384"/>
		<rect x="436.736" y="407.616" style="fill-rule:evenodd;clip-rule:evenodd;fill:#D46B5C;" width="45.184" height="94.384"/>
		<rect x="75.265" y="407.616" style="fill-rule:evenodd;clip-rule:evenodd;fill:#B55348;" width="361.472" height="47.192"/>
		<path style="fill-rule:evenodd;clip-rule:evenodd;fill:#67CCD1;" d="M340.815,195.295l10.037,37.457l-8.89,39.313h34.782
			c10.355,0,18.826,8.472,18.826,18.827v11.798h45.184v-47.374c0-13.756-2.795-30.997-6.006-42.979
			c-0.172-0.642-0.344-1.284-0.516-1.926c-8.007-29.883-16.015-59.767-24.022-89.651c-10.937-40.82-75.876-41.114-86.58-1.166
			l-10.612,39.605l-30.915,30.915c-8.821,8.822-8.821,23.125,0,31.947c8.822,8.822,23.125,8.822,31.947,0L340.815,195.295z"/>
		<path style="fill-rule:evenodd;clip-rule:evenodd;fill:#6864F7;" d="M434.233,210.41l-83.381,22.341l-8.89,39.313h34.782
			c10.355,0,18.826,8.472,18.826,18.827v11.798h45.184v-47.374c0-13.756-2.795-30.997-6.006-42.979
			C434.577,211.695,434.405,211.052,434.233,210.41z"/>
		<path style="fill-rule:evenodd;clip-rule:evenodd;fill:#D2DCFD;" d="M207.952,312.969c0-14.36,2.512-28.133,7.121-40.904H150.57
			c-22.09,0-40.163,18.073-40.163,40.163v18.575c0,11.874,9.715,21.589,21.589,21.589h82.554
			C210.274,340.039,207.952,326.775,207.952,312.969z"/>
		<path style="fill-rule:evenodd;clip-rule:evenodd;fill:#FD8F01;" d="M214.549,352.392h-82.554H30.082
			c-11.045,0-20.081,9.037-20.081,20.081v35.143h20.08h45.184H253.87C235.962,393.487,222.161,374.384,214.549,352.392z"/>
	</g>
	<g>
		<path style="fill:#052A75;" d="M488.267,343.066c2.337-4.678,3.653-9.951,3.653-15.525c0-19.217-15.634-34.851-34.851-34.851
			h-6.314v-37.374c0-16.153-3.419-34.642-6.347-45.567l-24.538-91.577c-4.227-15.777-15.756-27.987-30.988-34.056
			c8.234-8.94,13.269-20.869,13.269-33.952C402.151,22.503,379.647,0,351.987,0s-50.163,22.503-50.163,50.164
			c0,18.93,10.54,35.444,26.06,43.983c-6.631,6.092-11.506,13.88-13.913,22.859l-9.919,37.017l-29.021,29.021
			c-12.706,12.707-12.706,33.382,0,46.089c12.707,12.706,33.383,12.707,46.09,0l14.517-14.518l4.914,18.341l-6.583,29.11H150.57
			c-16.188,0-30.608,7.707-39.787,19.645c-9.131-12.508-23.903-20.649-40.539-20.649c-27.66,0-50.163,22.503-50.163,50.164
			c0,11.768,4.074,22.602,10.884,31.167h-0.883C13.495,342.392,0,355.886,0,372.473v35.143c0,5.523,4.477,10,10,10h10.08V502
			c0,5.523,4.477,10,10,10h45.184c5.523,0,10-4.477,10-10v-37.192h341.472V502c0,5.523,4.478,10,10,10h45.184
			c5.522,0,10-4.477,10-10v-84.384H502c5.522,0,10-4.477,10-10v-35.143C512,358.063,501.816,345.988,488.267,343.066z
			 M471.92,327.541c0,8.188-6.662,14.851-14.851,14.851H405.57V312.69h51.499C465.258,312.69,471.92,319.352,471.92,327.541z
			 M351.987,20c16.633,0,30.164,13.531,30.164,30.164c0,16.632-13.531,30.163-30.164,30.163c-16.632,0-30.163-13.531-30.163-30.163
			C321.824,33.531,335.355,20,351.987,20z M360.512,230.163l-8.542-31.88l4.309-4.309c3.939-3.94,7.511-9.119,9.796-14.207
			l10.135-22.548c2.264-5.038,0.016-10.957-5.021-13.221c-5.039-2.265-10.957-0.016-13.221,5.021l-10.136,22.55
			c-1.291,2.875-3.474,6.041-5.695,8.263l-35.156,35.156c-4.907,4.909-12.896,4.909-17.805,0c-4.909-4.908-4.909-12.896,0-17.804
			l30.915-30.916c1.241-1.241,2.134-2.787,2.588-4.482l10.612-39.604c4.41-16.458,20.55-22.297,33.031-22.296
			c12.891,0,29.591,6.145,34.23,23.462l24.538,91.577c2.819,10.522,5.665,27.092,5.665,40.391v37.374H405.57v-1.798
			c0-15.895-12.932-28.827-28.826-28.827h-22.268l6.13-27.108C360.964,233.375,360.932,231.73,360.512,230.163z M150.57,282.065
			h226.174c4.867,0,8.826,3.959,8.826,8.827v51.5H131.996c-6.39,0-11.589-5.199-11.589-11.588v-18.575
			C120.407,295.596,133.938,282.065,150.57,282.065z M70.244,281.061c16.632,0,30.164,13.531,30.164,30.164
			c0,16.632-13.531,30.163-30.164,30.163c-16.632,0-30.163-13.531-30.163-30.163C40.081,294.592,53.612,281.061,70.244,281.061z
			 M40.081,492v-74.384h25.184V492H40.081z M85.265,444.808v-27.192h341.472v27.192H85.265z M471.92,492h-25.184v-74.384h25.184V492
			z M492,397.616H20v-25.143c0-5.559,4.522-10.082,10.082-10.082h451.837c5.559,0,10.081,4.522,10.081,10.082V397.616z"/>
		<g>
			<g>
				<path style="fill:#FDCB50;" d="M174.665,236.881h-24.495c-5.523,0-10-4.477-10-10s4.477-10,10-10h24.495c5.523,0,10,4.477,10,10
					S180.188,236.881,174.665,236.881z"/>
			</g>
			<g>
				<path style="fill:#FDCB50;" d="M193.38,191.698c-2.56,0-5.118-0.976-7.071-2.929l-17.32-17.321
					c-3.905-3.905-3.905-10.237,0-14.142c3.905-3.904,10.237-3.905,14.142,0l17.32,17.321c3.905,3.905,3.905,10.237,0,14.142
					C198.499,190.721,195.939,191.698,193.38,191.698z"/>
			</g>
			<g>
				<path style="fill:#FDCB50;" d="M238.564,172.982c-5.523,0-10-4.477-10-10v-24.495c0-5.523,4.477-10,10-10s10,4.477,10,10v24.495
					C248.564,168.505,244.087,172.982,238.564,172.982z"/>
			</g>
		</g>
	</g>
</g>
<g>
</g>
<g>
</g>
<g>
</g>
<g>
</g>
<g>
</g>
<g>
</g>
<g>
</g>
<g>
</g>
<g>
</g>
<g>
</g>
<g>
</g>
<g>
</g>
<g>
</g>
<g>
</g>
<g>
</g>
</svg>
