<?xml version="1.0" encoding="iso-8859-1"?>
<!-- Generator: Adobe Illustrator 28.0.0, SVG Export Plug-In . SVG Version: 6.00 Build 0)  -->
<svg version="1.1" id="Layer_1" xmlns="http://www.w3.org/2000/svg" xmlns:xlink="http://www.w3.org/1999/xlink" x="0px" y="0px"
	 viewBox="0 0 510 510" style="enable-background:new 0 0 510 510;" xml:space="preserve">
<g>
	<g>
		<g>
			<path style="fill:#D2DCFD;" d="M499.997,296.209c0-40.427-25.291-74.946-60.913-88.601v78.586l-33.941,21.466l-33.941-21.466
				v-78.586c-35.623,13.655-60.913,48.174-60.913,88.601c0,42.513,27.98,78.469,66.521,90.521v106.256h56.667V386.73
				C472.018,374.678,499.997,338.722,499.997,296.209z"/>
		</g>
		<g>
			<rect x="376.809" y="388.353" style="fill:#93B2F4;" width="56.579" height="43.385"/>
		</g>
		<g>
			<path style="fill:#FDE0BE;" d="M31.824,140.789v46.725c-10.781,1.507-19.079,10.765-19.079,21.962
				c0,11.949,9.45,21.691,21.284,22.159c8.625,43.1,41.694,77.35,84.106,87.625v44.234h53.293V319.26
				c42.412-10.274,75.481-44.525,84.106-87.625c11.834-0.468,21.284-10.21,21.284-22.159c0-11.197-8.297-20.455-19.079-21.962
				v-5.992l0-40.733H31.824z"/>
		</g>
		<g>
			<path style="fill:#F7B073;" d="M203.378,306.609c-8.991,4.84-18.747,8.55-29.037,10.94v38.13l-54.116,4.78v-42.91
				c-43.063-9.97-76.642-43.19-85.403-85c-12.017-0.46-21.605-9.91-21.605-21.5c0-10.86,8.416-19.84,19.365-21.3v-43.16h41.723
				c-0.398,4.19-0.597,8.43-0.597,12.72C73.708,230.939,129.049,290.929,203.378,306.609z"/>
		</g>
		<g>
			<g>
				<g>
					<path style="fill:#FDCB50;" d="M279.566,492.986H9.997v-26.429c0-56.92,46.143-103.063,103.063-103.063h63.442
						c56.92,0,103.063,46.143,103.063,103.063V492.986z"/>
				</g>
			</g>
		</g>
		<g>
			<rect x="76.605" y="425.568" style="fill:#6864F7;" width="134.834" height="67.418"/>
		</g>
		<g>
			<path style="fill:#67CCD1;" d="M178.184,17.011H111.38c-45.296,0-82.015,36.719-82.015,82.015v23.935v0
				c0,30.28,21.801,54.826,52.081,54.826h126.913c30.28,0,51.841-24.546,51.841-54.826v0V99.026
				C260.199,53.731,223.48,17.011,178.184,17.011z"/>
		</g>
		<g>
			<path style="fill:#27A2CC;" d="M179.477,177.789h-98.03c-15.14,0-28.16-6.14-37.39-16.06c-9.24-9.92-14.69-23.63-14.69-38.77
				v-23.93c0-45.3,36.72-82.02,82.01-82.02h4.58c-15.99,17.35-25.4,38.57-25.4,61.48
				C90.557,123.909,127.517,162.659,179.477,177.789z"/>
		</g>
	</g>
	<g>
		<g>
			<path style="fill:#6864F7;" d="M77.605,496.925c-5.522,0-10-4.477-10-10V373.49c0-5.523,4.478-10,10-10s10,4.477,10,10v113.435
				C87.605,492.448,83.127,496.925,77.605,496.925z"/>
		</g>
		<g>
			<path style="fill:#6864F7;" d="M212.439,502.986c-5.522,0-10-4.477-10-10V375.549c0-5.523,4.478-10,10-10s10,4.477,10,10v117.438
				C222.439,498.509,217.961,502.986,212.439,502.986z"/>
		</g>
		<g>
			<g>
				<path style="fill:#052A75;" d="M491.09,236.134c-12.08-17.26-28.83-30.35-48.43-37.86c-3.07-1.18-6.53-0.77-9.24,1.09
					c-2.71,1.87-4.34,4.95-4.34,8.24v73.08l-23.94,15.14l-23.94-15.14v-73.08c0-3.29-1.62-6.37-4.33-8.24
					c-2.72-1.86-6.17-2.27-9.25-1.09c-19.6,7.51-36.34,20.6-48.43,37.86c-12.36,17.67-18.9,38.44-18.9,60.08
					c0,44.29,27.61,82.25,66.52,97.59v99.18c0,5.53,4.48,10,10,10h56.67c5.52,0,10-4.47,10-10v-99.18
					c38.91-15.34,66.52-53.3,66.52-97.59C510,274.574,503.46,253.804,491.09,236.134z M423.48,482.984h-36.67v-83.53
					c5.95,1.06,12.08,1.61,18.33,1.61s12.38-0.55,18.34-1.61V482.984z M405.14,381.064c-46.79,0-84.85-38.07-84.85-84.85
					c0-29.81,15.96-57.39,40.91-72.6v62.58c0,3.43,1.76,6.62,4.66,8.45l33.94,21.47c3.26,2.06,7.42,2.06,10.69,0l33.94-21.47
					c2.9-1.83,4.65-5.02,4.65-8.45v-62.58c24.96,15.21,40.92,42.79,40.92,72.6C490,342.994,451.93,381.064,405.14,381.064z"/>
			</g>
		</g>
		<g>
			<g>
				<g>
					<path style="fill:#052A75;" d="M181.43,353.954v-27.09c40.36-12.61,71.7-45.51,82.36-86.52c13.39-3.93,23.03-16.25,23.03-30.87
						c0-12.89-7.77-24.31-19.08-29.38v-38.51c1.58-5.78,2.41-11.87,2.45-18.11c0.01-0.17,0.01-0.34,0.01-0.51v-23.94
						c0-50.73-41.28-92.01-92.02-92.01h-66.8c-50.74,0-92.02,41.28-92.02,92.01v23.94c0,0.17,0,0.34,0.01,0.51
						c0.04,6.22,0.87,12.29,2.45,18.07v38.55c-11.31,5.07-19.07,16.49-19.07,29.38c0,14.62,9.63,26.94,23.02,30.87
						c10.66,41.01,42.01,73.91,82.36,86.52v27.09C47.63,359.184,0,410.094,0,471.944v21.04c0,5.53,4.47,10,10,10h269.57
						c5.52,0,10-4.47,10-10v-21.04C289.57,410.094,241.93,359.184,181.43,353.954z M39.36,99.024c0-39.71,32.31-72.01,72.02-72.01
						h66.8c39.71,0,72.02,32.3,72.02,72.01v13.94H39.36V99.024z M249.24,132.964c-4.02,20.42-20.26,34.82-40.88,34.82H81.45
						c-20.75,0-37.08-14.4-41.12-34.82H249.24z M43.84,229.674c-0.91-4.53-4.8-7.85-9.42-8.03c-6.54-0.26-11.67-5.6-11.67-12.17
						c0-6.04,4.49-11.22,10.46-12.06c4.94-0.69,8.61-4.91,8.61-9.9v-14.1c10.93,9.32,24.76,14.37,39.63,14.37h126.91
						c14.79,0,28.52-5.01,39.38-14.25v13.98c0,4.99,3.68,9.21,8.62,9.9c5.96,0.84,10.46,6.02,10.46,12.06
						c0,6.57-5.13,11.91-11.68,12.17c-4.62,0.18-8.51,3.5-9.41,8.03c-7.83,39.13-37.92,70.48-76.66,79.87
						c-4.48,1.08-7.64,5.1-7.64,9.72v34.23h-33.3v-34.23c0-4.62-3.15-8.64-7.64-9.72C81.76,300.154,51.67,268.804,43.84,229.674z
						 M269.57,482.984H20v-11.04c0-54.29,44.16-98.45,98.44-98.45h52.68c54.28,0,98.45,44.16,98.45,98.45V482.984z"/>
				</g>
			</g>
		</g>
	</g>
</g>
<g>
</g>
<g>
</g>
<g>
</g>
<g>
</g>
<g>
</g>
<g>
</g>
<g>
</g>
<g>
</g>
<g>
</g>
<g>
</g>
<g>
</g>
<g>
</g>
<g>
</g>
<g>
</g>
<g>
</g>
</svg>
