<?xml version="1.0" encoding="iso-8859-1"?>
<!-- Generator: Adobe Illustrator 27.2.0, SVG Export Plug-In . SVG Version: 6.00 Build 0)  -->
<svg version="1.1" id="Capa_1" xmlns="http://www.w3.org/2000/svg" xmlns:xlink="http://www.w3.org/1999/xlink" x="0px" y="0px"
	 viewBox="0 0 509.297 509.297" style="enable-background:new 0 0 509.297 509.297;" xml:space="preserve">
<g>
	<g>
		<g>
			<path style="fill:#DB4B86;" d="M74.919,156.763c-36.08,0-65.333,29.245-65.333,65.333l0,0c0,36.08,29.253,65.333,65.333,65.333
				V156.763z"/>
		</g>
		<g>
			<polygon style="fill:#FFFFFF;" points="303.584,75.096 140.252,156.763 74.919,156.763 74.919,287.429 140.252,287.429 
				303.584,369.095 			"/>
		</g>
		<g>
			<path style="fill:#D2DCFD;" d="M74.919,164.82v122.609h65.333l163.333,81.666V266.573
				C212.832,266.573,131.261,227.295,74.919,164.82z"/>
		</g>
		<g>
			<path style="fill:#D2DCFD;" d="M368.918,156.763L368.918,156.763c36.08,0,65.333,29.245,65.333,65.333l0,0
				c0,36.08-29.253,65.333-65.333,65.333l0,0V156.763z"/>
		</g>
		<g>
			<path style="fill:#FD6050;" d="M336.251,42.43c-17.552-0.334-33.015,15.108-32.666,32.667c0,68.33,0,225.66,0,293.998
				c0,8.657,3.438,16.97,9.571,23.095c6.125,6.125,14.43,9.571,23.095,9.571c16.333,0,32.667,0,32.667,0V42.43H336.251z"/>
		</g>
		<g>
			<path style="fill:#6864F7;" d="M140.252,287.429H74.919v146.999c0,18.04,14.626,32.667,32.667,32.667
				s32.666-14.626,32.666-32.667V287.429z"/>
		</g>
	</g>
	<g>
		<path style="fill:#052A75;" d="M444.251,222.096c0-38.147-28.507-69.74-65.333-74.649V42.43c0-5.523-4.477-10-10-10h-32.667
			c-20.565-0.391-39.484,15.958-42.189,36.247l-156.172,78.086H74.919c-93.924,2.955-102.084,134.961-10,149.982v137.683
			c2.341,56.598,82.996,56.592,85.333,0c0,0,0-55.333,0-55.333h22.666c23.086,0.441,43.085-19.784,42.667-42.82l78.5,39.25
			c2.816,20.34,21.575,36.616,42.167,36.236c0,0,32.666,0,32.666,0c5.523,0,10-4.477,10-10V296.745
			C415.743,291.836,444.251,260.242,444.251,222.096z M19.586,222.096c0-30.511,24.822-55.333,55.333-55.333h65.333
			c1.552,0,3.083-0.361,4.472-1.056l148.86-74.43v261.638c-1.211-0.503-148.882-74.639-150.07-74.931
			c-1.052-0.358-2.15-0.552-3.263-0.555c0,0-65.333,0-65.333,0C44.408,277.429,19.586,252.606,19.586,222.096z M130.252,434.428
			c0,12.499-10.168,22.667-22.667,22.667s-22.667-10.168-22.667-22.667V297.429h45.333V434.428z M195.585,336.429
			c0.179,12.205-10.44,22.9-22.667,22.666c0,0-22.666,0-22.666,0v-55.486l45.333,22.667V336.429z M358.918,391.762h-22.667
			c-12.224,0.222-22.846-10.449-22.667-22.667c0,0,0-293.999,0-293.999c-0.251-12.181,10.478-22.922,22.667-22.666
			c0,0,22.666,0,22.666,0V391.762z M378.918,276.506V167.685C439.058,179.903,439.015,264.312,378.918,276.506z"/>
		<g>
			<path style="fill:#FDCB50;" d="M458.987,330.095c-8.901,0.025-13.317-10.912-7.062-17.08h0
				c49.84-47.823,49.888-133.854,0.113-181.734c-1.878-1.818-3.045-4.365-3.045-7.185c0-5.526,4.478-10.005,10.004-10
				c2.652,0,5.196,1.054,7.071,2.929c57.641,55.305,57.64,154.829,0,210.133C464.255,328.972,461.753,330.095,458.987,330.095z"/>
		</g>
	</g>
</g>
<g>
</g>
<g>
</g>
<g>
</g>
<g>
</g>
<g>
</g>
<g>
</g>
<g>
</g>
<g>
</g>
<g>
</g>
<g>
</g>
<g>
</g>
<g>
</g>
<g>
</g>
<g>
</g>
<g>
</g>
</svg>
