<?xml version="1.0" encoding="iso-8859-1"?>
<!-- Generator: Adobe Illustrator 27.9.1, SVG Export Plug-In . SVG Version: 6.00 Build 0)  -->
<svg version="1.1" id="Layer_1" xmlns="http://www.w3.org/2000/svg" xmlns:xlink="http://www.w3.org/1999/xlink" x="0px" y="0px"
	 viewBox="0 0 510 510" style="enable-background:new 0 0 510 510;" xml:space="preserve">
<g>
	<g>
		<path style="fill:#FDBEB9;" d="M274.828,111.043l19.7,20.385c21.246,21.246,31.757,52.274,23.647,81.206
			c-3.896,13.9-7.077,30.717,1.545,51.811c10.696,26.169,22.452,46.01,43.907,60.376l-36.781-30.591
			c-10.382-8.306-42.74-33.802-89.957-33.57c-53.178,0.261-103.436,43.137-103.436,43.137C118.851,286.79,78.821,255,29.27,255
			H10.445v211.452l19.695,7.303C76.954,491.113,126.484,500,176.413,500h0c52.231,0,104.006-9.725,152.677-28.679l85.335-33.232
			c33.654-13.105,60.886-38.792,75.934-71.623v0c6.646-14.499,10.086-30.262,10.086-46.212v0c0-16.197-3.547-32.197-10.393-46.876
			l-34.605-74.206c-35.039-75.136-90.425-138.955-159.879-184.224l0,0C290.614,11.719,284.828,10,278.914,10h-53.287
			c-11.62,0-22.23,6.603-27.362,17.028l-24.148,49.051l56.93,56.929L274.828,111.043z"/>
	</g>
	<g>
		<path style="fill:#FD7DA0;" d="M500.44,320.258c0,7.97-0.86,15.9-2.55,23.65c-1.69,7.74-4.21,15.31-7.53,22.56
			c-15.05,32.83-42.28,58.52-75.94,71.62l-85.33,33.23c-24.34,9.48-49.45,16.65-75,21.45c-25.56,4.8-51.56,7.23-77.68,7.23
			c-49.93,0-99.46-8.88-146.27-26.24l-19.7-7.31v-187.75c46.86,82.07,142.02,138.23,251.81,138.23
			c99.03,0,186.16-45.7,236.68-114.89C499.93,308.038,500.44,314.138,500.44,320.258z"/>
	</g>
</g>
<g>
	<g>
		<path style="fill:#052A75;" d="M498.67,269.15l-34.61-74.2C428.2,118.04,371.67,52.9,300.58,6.57C293.99,2.27,286.34,0,278.47,0
			h-53.29c-15.54,0-29.46,8.66-36.33,22.61L164.7,71.66c-1.89,3.84-1.13,8.46,1.9,11.49l56.93,56.93c3.04,3.04,7.69,3.8,11.54,1.87
			l37.27-18.63l14.55,15.06c0.04,0.04,0.08,0.08,0.12,0.12c18.93,18.93,26.77,45.83,20.96,71.96c-4.16,18.7-3.57,38.32,1.69,56.73
			c0.47,1.64,0.97,3.27,1.52,4.88c-22.38-12.32-47.72-18.94-73.43-18.94c-26.18,0-52.06,6.82-74.84,19.72
			c-9.63,5.45-18.61,11.94-26.79,19.31C108.56,262.11,69.85,245,28.83,245H10c-5.52,0-10,4.48-10,10v211.45
			c0,4.18,2.6,7.92,6.52,9.38l19.7,7.3C74.3,500.96,124.68,510,175.97,510c53.69,0,106.27-9.88,156.3-29.36l85.34-33.23
			c36.27-14.13,65.18-41.39,81.39-76.78c7.3-15.92,11-32.87,11-50.38C510,302.72,506.08,285.05,498.67,269.15z M370.59,344.01
			c1.87,1.56,4.14,2.32,6.4,2.32c2.86,0,5.71-1.23,7.68-3.6c3.54-4.24,2.97-10.55-1.28-14.08l-23.85-19.88
			c-14.77-12.31-25.37-28.59-30.65-47.07c-4.35-15.23-4.83-31.44-1.4-46.9c7.29-32.81-2.53-66.6-26.28-90.38l-10.12-10.48l9.05-4.52
			c4.94-2.47,6.94-8.48,4.47-13.42c-2.47-4.94-8.48-6.94-13.42-4.47l-58.61,29.31l-46.77-46.77l20.98-42.63
			C210.27,24.39,217.31,20,225.18,20h53.29c3.98,0,7.85,1.15,11.19,3.33c67.96,44.29,122,106.55,156.28,180.07l34.6,74.2
			c6.19,13.27,9.46,28.02,9.46,42.65c0,14.62-3.09,28.76-9.18,42.05c-14.04,30.64-39.06,54.24-70.47,66.47L325.02,462
			c-47.71,18.58-97.86,28-149.05,28c-48.9,0-96.95-8.62-142.8-25.62L20,459.49V265h8.83c35.76,0,69.5,15.07,93.31,41.52
			c-5.43,6.36-10.34,13.17-14.65,20.36l-7.45,12.44c-2.85,4.73-1.31,10.87,3.42,13.72c1.62,0.96,3.39,1.42,5.14,1.42
			c3.4,0,6.71-1.73,8.59-4.85l7.45-12.44c23.71-39.5,67.05-64.04,113.11-64.04c29.81,0,59.04,10.25,82.33,28.85L370.59,344.01z"/>
	</g>
	<g>
		<path style="fill:#FDCB50;" d="M189.938,216.203c-2.56,0-5.118-0.976-7.071-2.929l-16.266-16.265
			c-3.905-3.905-3.905-10.237,0-14.142c3.906-3.905,10.236-3.906,14.143,0l16.266,16.265c3.905,3.905,3.905,10.237,0,14.142
			C195.056,215.227,192.497,216.203,189.938,216.203z"/>
	</g>
	<g>
		<path style="fill:#FDCB50;" d="M255,216.203c-2.56,0-5.118-0.976-7.071-2.929c-3.905-3.905-3.905-10.237,0-14.142l16.266-16.265
			c3.908-3.904,10.238-3.905,14.143,0c3.905,3.905,3.905,10.237,0,14.142l-16.266,16.265
			C260.118,215.227,257.559,216.203,255,216.203z"/>
	</g>
</g>
<g>
</g>
<g>
</g>
<g>
</g>
<g>
</g>
<g>
</g>
<g>
</g>
<g>
</g>
<g>
</g>
<g>
</g>
<g>
</g>
<g>
</g>
<g>
</g>
<g>
</g>
<g>
</g>
<g>
</g>
</svg>
