<?xml version="1.0" encoding="iso-8859-1"?>
<!-- Generator: Adobe Illustrator 27.2.0, SVG Export Plug-In . SVG Version: 6.00 Build 0)  -->
<svg version="1.1" id="Capa_1" xmlns="http://www.w3.org/2000/svg" xmlns:xlink="http://www.w3.org/1999/xlink" x="0px" y="0px"
	 viewBox="0 0 510 510" style="enable-background:new 0 0 510 510;" xml:space="preserve">
<g>
	<g>
		<g>
			<rect x="336.328" y="295.664" style="fill:#6864F7;" width="81.328" height="65.062"/>
			<path style="fill:#67CCD1;" d="M457.259,405.678l-17.604,71.149C436.287,490.439,424.072,500,410.049,500h-66.116
				c-14.022,0-26.237-9.561-29.605-23.173l-17.604-71.149c-5.65-22.835,11.647-44.952,35.185-44.952h90.163
				C445.57,360.726,462.919,382.799,457.259,405.678z"/>
			<path style="fill:#27A2CC;" d="M444.12,458.78l-4.47,18.05c-3.36,13.61-15.58,23.17-29.6,23.17h-66.12
				c-14.02,0-26.23-9.56-29.6-23.17l-17.61-71.15c-5.64-22.84,11.65-44.95,35.19-44.95h0.9c5.52,55.08,52.02,98.09,108.55,98.09
				C442.28,458.82,443.2,458.81,444.12,458.78z"/>
		</g>
		<g>
			<path style="fill:#FDBEB9;" d="M220.117,129.791c1.539,6.242,2.352,12.768,2.352,19.483V500H10V149.274
				c0-29.542,15.757-55.405,39.322-69.647L220.117,129.791z"/>
			<path style="fill:#FD7DA0;" d="M222.469,448.962V500H10V158.543c0-31.742,12.462-60.125,32.012-78.916
				c-4.232,25.7-6.505,52.853-6.505,80.944c0,160.586,74.196,290.762,165.713,290.762
				C208.422,451.333,215.511,450.526,222.469,448.962z"/>
			<path style="fill:#67CCD1;" d="M184.312,77.818l1.519-18.29C188.047,32.863,166.993,10,140.247,10H93.239
				c-26.747,0-47.8,22.863-45.584,49.529l7.452,89.938c2.664,32.064,29.461,56.736,61.636,56.736s58.973-24.673,61.636-56.736
				l0.623-7.511L184.312,77.818z"/>
		</g>
		<g>
			<path style="fill:#FDCB50;" d="M500,77.883v61.453c0,15.07-11.006,27.88-25.904,30.15l-80.839,12.318V35.415l80.839,12.318
				C488.994,50.003,500,62.814,500,77.883z"/>
			<rect x="336.328" y="51.681" style="fill:#6864F7;" width="56.93" height="113.859"/>
			<polygon style="fill:#27A2CC;" points="222.469,124.876 141.141,149.274 141.141,67.946 222.469,92.344 			"/>
		</g>
	</g>
	<g>
		<path style="fill:#1C2E72;" d="M458.49,368.479c-7.669-9.799-18.692-15.961-30.834-17.414v-55.401c0-5.522-4.477-10-10-10h-81.328
			c-5.523,0-10,4.478-10,10v55.401c-12.141,1.452-23.161,7.612-30.827,17.407c-8.828,11.279-11.92,25.716-8.483,39.607l17.604,71.15
			C309.104,497.347,325.271,510,343.934,510h66.115c18.664,0,34.83-12.653,39.313-30.772l17.603-71.149
			C470.402,394.188,467.314,379.752,458.49,368.479z M346.328,305.664h61.328v45.062h-61.328V305.664z M447.551,403.275
			c0,0,0,0,0,0.001l-17.603,71.148c-2.27,9.171-10.452,15.575-19.899,15.575h-66.115c-9.447,0-17.629-6.404-19.898-15.574
			l-17.604-71.15c-1.95-7.881-0.194-16.073,4.817-22.477c5.011-6.401,12.541-10.072,20.661-10.072h4.417h81.328h4.417
			c8.121,0,15.654,3.674,20.667,10.08C447.748,387.204,449.501,395.394,447.551,403.275z"/>
		<path style="fill:#1C2E72;" d="M116.234,343.853c-15.842,0-31.679-4.237-45.809-12.715c-4.736-2.842-6.271-8.984-3.43-13.72
			c2.841-4.736,8.985-6.269,13.72-3.431c21.909,13.145,49.129,13.145,71.038,0c4.735-2.841,10.878-1.308,13.72,3.431
			c2.841,4.735,1.306,10.878-3.43,13.72C147.917,339.614,132.073,343.853,116.234,343.853z"/>
		<path style="fill:#1C2E72;" d="M475.603,37.848l-80.839-12.318c-2.883-0.443-5.812,0.401-8.023,2.301
			c-2.211,1.899-3.483,4.67-3.483,7.585v6.266h-46.93c-5.523,0-10,4.478-10,10v46.93h-93.859v-6.266c0-4.416-2.896-8.31-7.126-9.578
			l-30.644-9.193l1.098-13.217c1.287-15.485-4.011-30.925-14.536-42.36C170.735,6.56,155.786,0,140.247,0H93.239
			C77.699,0,62.75,6.56,52.225,17.996C41.7,29.432,36.402,44.871,37.689,60.354l1.173,14.161C14.415,91.625,0,119.127,0,149.273V500
			c0,5.522,4.477,10,10,10h212.469c5.523,0,10-4.478,10-10V149.273c0-6.257-0.642-12.479-1.896-18.546
			c1.201-1.663,1.896-3.694,1.896-5.851v-6.266h93.859v46.929c0,5.522,4.477,10,10,10h46.93v6.266c0,2.915,1.272,5.685,3.483,7.584
			c2.15,1.847,5.222,2.727,8.024,2.301l80.838-12.318C495.534,176.336,510,159.499,510,139.337V77.883
			C510,57.722,495.534,40.884,475.603,37.848z M212.469,117.436l-61.328,18.397V81.387l61.328,18.398V117.436z M66.941,31.54
			C73.79,24.099,83.129,20,93.239,20h47.008c10.11,0,19.449,4.099,26.298,11.54c6.848,7.44,10.158,17.086,9.32,27.16l-0.747,8.999
			l-31.103-9.331c-3.027-0.91-6.307-0.333-8.843,1.555c-2.536,1.888-4.031,4.862-4.031,8.023v81.327
			c0,3.161,1.495,6.136,4.031,8.022c2.437,1.813,5.861,2.451,8.843,1.556l24.05-7.215c-3.6,25.221-25.576,44.566-51.322,44.566
			c-26.758,0-49.455-20.893-51.67-47.562L57.621,58.7C56.783,48.626,60.093,38.98,66.941,31.54z M212.469,490H20V149.273
			c0-19.327,7.594-37.259,20.875-50.459l4.265,51.481c1.497,18.015,9.645,34.679,22.944,46.921
			c13.3,12.244,30.58,18.987,48.658,18.987c18.077,0,35.357-6.743,48.658-18.987c13.299-12.243,21.447-28.906,22.944-46.923
			l0.403-4.861l22.921-6.876c0.532,3.529,0.8,7.115,0.8,10.717V490z M346.328,155.539V61.681h36.93v93.858H346.328z M403.257,47.055
			l69.333,10.564C482.678,59.156,490,67.678,490,77.883v61.454c0,10.205-7.322,18.727-17.41,20.264l-69.332,10.564V47.055z"/>
	</g>
</g>
<g>
</g>
<g>
</g>
<g>
</g>
<g>
</g>
<g>
</g>
<g>
</g>
<g>
</g>
<g>
</g>
<g>
</g>
<g>
</g>
<g>
</g>
<g>
</g>
<g>
</g>
<g>
</g>
<g>
</g>
</svg>
