<?xml version="1.0" encoding="iso-8859-1"?>
<!-- Generator: Adobe Illustrator 26.5.1, SVG Export Plug-In . SVG Version: 6.00 Build 0)  -->
<svg version="1.1" id="Capa_1" xmlns="http://www.w3.org/2000/svg" xmlns:xlink="http://www.w3.org/1999/xlink" x="0px" y="0px"
	 viewBox="0 0 510 510" style="enable-background:new 0 0 510 510;" xml:space="preserve">
<g>
	<g>
		<g>
			<path style="fill-rule:evenodd;clip-rule:evenodd;fill:#FDBEB9;" d="M346.518,489.196v-19.081
				c0-22.256,10.525-41.721,63.733-41.721c20.006,0,31.768-4.731,38.418-11.385c16.712-16.719-0.528-32.208,3.955-49.093
				c6.385-7.429,8.085-17.354,2.069-25.299l8.442-14.882c-7.396-27.856,8.503-33.68,24.718-43.129
				c13.641-7.948,17.099-23.844,3.585-37.482c-17.796-17.961-52.777-31.587-52.777-62.949c0-233.608-378.375-210.151-378.375,28.641
				c0,41.538,13.414,81.399,37.356,113.909c25.163,34.167,31.355,41.402,31.355,81.886v70.586l147.017,10H346.518z"/>
			<path style="fill-rule:evenodd;clip-rule:evenodd;fill:#FD7DA0;" d="M231.031,23.379
				C142.969,36.633,60.287,101.191,60.287,212.816c0,41.538,13.414,81.399,37.356,113.909
				c25.163,34.167,31.355,41.402,31.355,81.886v80.586h147.017c-72.491-61.631-118.497-153.477-118.497-256.081
				C157.518,153.771,185.038,80.864,231.031,23.379z"/>
			<path style="fill-rule:evenodd;clip-rule:evenodd;fill:#6864F7;" d="M126.35,376.494l46.077-48.71
				c-14.972-10.053-27.872-22.953-37.922-37.928l-37.723,35.685l-77.55,73.358c-12.476,11.801-12.143,32.013,0,44.156
				c12.143,12.143,32.355,12.475,44.156,0L126.35,376.494z"/>
			<circle style="fill-rule:evenodd;clip-rule:evenodd;fill:#67CCD1;" cx="249.475" cy="212.811" r="138.386"/>
			<path style="fill-rule:evenodd;clip-rule:evenodd;fill:#27A2CC;" d="M170.711,326.6c-36.025-24.984-59.623-66.627-59.623-113.788
				c0-55.375,32.529-103.145,79.517-125.266c-21.204,44.043-33.087,93.419-33.087,145.571
				C157.518,265.558,162.131,296.921,170.711,326.6z"/>
		</g>
	</g>
	<g>
		<path style="fill:#052A75;" d="M498.543,240.084c-5.541-5.592-12.42-10.683-19.073-15.606
			c-15.843-11.724-30.808-22.798-30.808-40.306c0-50.934-17.496-94.196-50.596-125.109c-36.715-34.29-91.112-51.673-149.229-47.699
			c-51.876,3.571-100.223,23.448-136.135,55.971c-40.832,36.977-62.415,87.282-62.415,145.479c0,39.901,11.525,78.269,33.39,111.36
			L12.36,391.634c-7.815,7.393-12.204,17.505-12.356,28.475c-0.156,11.194,4.275,22.136,12.157,30.018
			c7.748,7.748,18.452,12.161,29.447,12.161c0.19,0,0.381-0.002,0.572-0.004c10.969-0.153,21.081-4.541,28.473-12.356l48.196-50.95
			c0.101,2.944,0.15,6.139,0.15,9.63v80.587c0,5.522,4.477,10,10,10c5.523,0,10-4.478,10-10v-80.587
			c0-12.351-0.559-21.286-1.845-28.982l36.931-39.042c22.107,13.094,47.886,20.615,75.389,20.615
			c81.82,0,148.386-66.566,148.386-148.387S331.295,64.426,249.475,64.426s-148.386,66.566-148.386,148.387
			c0,27.503,7.521,53.282,20.615,75.389l-23.25,21.993c-18.455-29.13-28.166-62.609-28.166-97.382
			c0-116.19,93.267-175.531,179.919-181.496c52.607-3.602,101.529,11.842,134.209,42.363
			c28.946,27.034,44.247,65.241,44.247,110.492c0,27.589,21.575,43.554,38.911,56.383c6.326,4.681,12.301,9.103,16.763,13.606
			c4.176,4.214,6.105,8.546,5.58,12.527c-0.474,3.591-2.994,6.885-7.095,9.274c-1.405,0.819-2.808,1.609-4.192,2.39
			c-14.45,8.146-32.282,18.195-26.126,47.859l-6.506,11.469c-1.97,3.474-1.685,7.786,0.726,10.97
			c4.03,5.322-0.267,11.101-1.68,12.744c-0.983,1.144-1.695,2.495-2.082,3.952c-2.414,9.09-0.418,17.183,1.341,24.322
			c2.471,10.021,3.236,14.324-2.705,20.268c-5.527,5.531-16.366,8.454-31.345,8.454c-49.615,0-73.733,16.918-73.733,51.722v19.082
			c0,5.522,4.477,10,10,10s10-4.478,10-10v-19.082c0-11.086,0-31.722,53.733-31.722c20.692,0,35.998-4.816,45.491-14.315
			c14.15-14.156,10.583-28.628,7.978-39.194c-1.17-4.744-2.202-8.932-1.761-12.648c6.723-9.146,8.206-20.177,4.22-29.597l5.655-9.97
			c1.292-2.276,1.639-4.97,0.967-7.5c-4.75-17.893,1.221-21.259,15.648-29.391c1.466-0.827,2.952-1.664,4.44-2.531
			c9.429-5.495,15.572-14.221,16.854-23.939C511.089,259.109,507.111,248.731,498.543,240.084z M249.475,84.426
			c70.792,0,128.386,57.594,128.386,128.387S320.267,341.2,249.475,341.2s-128.386-57.594-128.386-128.387
			S178.682,84.426,249.475,84.426z M157.411,329.108L56.123,436.183c-3.649,3.858-8.7,6.025-14.221,6.103
			c-5.836,0.075-11.513-2.216-15.599-6.302c-4.086-4.085-6.382-9.771-6.301-15.598c0.077-5.521,2.244-10.573,6.102-14.223
			l107.075-101.287C140.299,313.852,148.435,321.988,157.411,329.108z"/>
		<g>
			<g>
				<path style="fill:#FFFFFF;" d="M218.473,242.958c-5.523,0-10-4.478-10-10c0-18.169,3.501-22.412,22.094-41.893
					c2.98-3.122,4.621-7.22,4.621-11.538c0-9.217-7.499-16.715-16.715-16.715s-16.715,7.498-16.715,16.715c0,5.522-4.477,10-10,10
					s-10-4.478-10-10c0-20.244,16.47-36.715,36.715-36.715s36.715,16.471,36.715,36.715c0,9.485-3.606,18.487-10.153,25.347
					c-16.562,17.353-16.562,17.353-16.562,28.084C228.473,238.481,223.996,242.958,218.473,242.958z"/>
			</g>
			<g>
				<path style="fill:#FFFFFF;" d="M218.472,282.813c-5.523,0-10.003-4.478-10.003-10s4.474-10,9.997-10h0.007
					c5.523,0,10,4.478,10,10S223.995,282.813,218.472,282.813z"/>
			</g>
			<g>
				<path style="fill:#FFFFFF;" d="M287.188,242.958c-5.523,0-10-4.478-10-10v-80.146c0-5.522,4.477-10,10-10s10,4.478,10,10v80.146
					C297.188,238.481,292.711,242.958,287.188,242.958z"/>
			</g>
			<g>
				<path style="fill:#FFFFFF;" d="M287.192,282.813c-5.523,0-10.004-4.478-10.004-10s4.474-10,9.997-10h0.007
					c5.523,0,10,4.478,10,10S292.715,282.813,287.192,282.813z"/>
			</g>
		</g>
	</g>
</g>
<g>
</g>
<g>
</g>
<g>
</g>
<g>
</g>
<g>
</g>
<g>
</g>
<g>
</g>
<g>
</g>
<g>
</g>
<g>
</g>
<g>
</g>
<g>
</g>
<g>
</g>
<g>
</g>
<g>
</g>
</svg>
