<?xml version="1.0" encoding="iso-8859-1"?>
<!-- Generator: Adobe Illustrator 28.7.6, SVG Export Plug-In . SVG Version: 9.03 Build 56771)  -->
<svg version="1.1" id="Layer_1" xmlns="http://www.w3.org/2000/svg" xmlns:xlink="http://www.w3.org/1999/xlink" x="0px" y="0px"
	 viewBox="0 0 512 512" style="enable-background:new 0 0 512 512;" xml:space="preserve">
<g>
	<g>
		<path style="fill:#6864F7;" d="M88.586,221.031H73.693c-20.346,0-36.84-16.494-36.84-36.84v0c0-20.346,16.494-36.84,36.84-36.84
			h14.893V221.031z"/>
		<path style="fill:#6864F7;" d="M246.568,221.031h14.893c20.346,0,36.84-16.494,36.84-36.84v0c0-20.346-16.494-36.84-36.84-36.84
			h-14.893V221.031z"/>
		<path style="fill:#FDCB50;" d="M124.818,305.744C61.406,305.744,10,357.149,10,420.562v37.229h315.154v-37.229
			c0-63.412-51.406-114.818-114.818-114.818H124.818z"/>
		<polygon style="fill:#FD7DA0;" points="126.4,251.944 126.4,305.744 167.577,354.379 208.755,305.744 208.755,251.944 		"/>
		<path style="fill:#FDBEB9;" d="M167.577,52.1L167.577,52.1c43.626,0,78.991,35.365,78.991,78.991v78.824
			c0,43.626-35.365,78.991-78.991,78.991h0c-43.625,0-78.991-35.365-78.991-78.991v-78.824C88.586,87.466,123.952,52.1,167.577,52.1
			z"/>
		<path style="fill:#D46B5C;" d="M163.669,138.744l0.199,0.073c21.442,7.862,44.101,11.885,66.939,11.885h15.762v-19.611
			c0-43.625-35.365-78.991-78.991-78.991h0c-43.143,0-78.184,34.593-78.955,77.552h23.84
			C129.933,129.652,147.266,132.73,163.669,138.744z"/>
		<path style="fill:#FD8F01;" d="M230.975,307.597v150.194h94.18v-37.229C325.154,364.196,284.537,317.319,230.975,307.597z"/>
		<path style="fill:#FFFFFF;" d="M481.918,291.156c11.091,0,20.082,8.991,20.082,20.082v170.681
			c0,11.091-8.991,20.082-20.082,20.082H301.056c-11.091,0-20.082-8.991-20.082-20.082V311.237c0-11.091,8.991-20.082,20.082-20.082
			H481.918z"/>
		<path style="fill:#FD6050;" d="M502,311.237c0-11.091-8.991-20.082-20.082-20.082H301.057c-11.091,0-20.082,8.991-20.082,20.082
			v51.71H502V311.237z"/>
		<rect x="325.154" y="263.544" style="fill:#D2DCFD;" width="44.18" height="55.224"/>
		<rect x="413.514" y="263.544" style="fill:#D2DCFD;" width="44.18" height="55.224"/>
	</g>
	<g>
		<path style="fill:#67CCD1;" d="M56.486,159.355h-20v-32.431C36.486,56.938,93.424,0,163.41,0h8.335
			c69.986,0,126.924,56.938,126.924,126.924v31.988h-20v-31.988C278.668,67.966,230.703,20,171.745,20h-8.335
			C104.452,20,56.486,67.966,56.486,126.924V159.355z"/>
		<path style="fill:#93B2F4;" d="M369.334,462.82h-44.18c-5.523,0-10-4.477-10-10s4.477-10,10-10h44.18c5.523,0,10,4.477,10,10
			S374.857,462.82,369.334,462.82z"/>
		<path style="fill:#93B2F4;" d="M369.334,412.127h-44.18c-5.523,0-10-4.477-10-10s4.477-10,10-10h44.18c5.523,0,10,4.477,10,10
			S374.857,412.127,369.334,412.127z"/>
		<path style="fill:#93B2F4;" d="M457.82,462.82h-44.307c-5.523,0-10-4.477-10-10s4.477-10,10-10h44.307c5.523,0,10,4.477,10,10
			S463.343,462.82,457.82,462.82z"/>
		<path style="fill:#93B2F4;" d="M457.82,412.127h-44.307c-5.523,0-10-4.477-10-10s4.477-10,10-10h44.307c5.523,0,10,4.477,10,10
			S463.343,412.127,457.82,412.127z"/>
		<path style="fill:#052A75;" d="M481.918,281.156h-14.225v-17.612c0-5.523-4.477-10-10-10h-44.18c-5.523,0-10,4.477-10,10v17.612
			h-24.18v-17.612c0-5.523-4.477-10-10-10h-44.18c-5.523,0-10,4.477-10,10v17.612h-14.098c-16.587,0-30.082,13.495-30.082,30.082
			v0.186c-16.016-8.951-33.702-14.19-52.22-15.405v-13.342c17.32-12.218,30.099-30.457,35.276-51.646h7.43
			c25.828,0,46.84-21.012,46.84-46.84s-21.012-46.84-46.84-46.84h-4.893v-6.26c0-49.07-39.921-88.991-88.991-88.991
			s-88.991,39.921-88.991,88.991v6.26h-4.893c-25.828,0-46.84,21.012-46.84,46.84s21.012,46.84,46.84,46.84h7.43
			c5.176,21.189,17.956,39.428,35.276,51.646v13.348C51.482,300.366,0,354.564,0,420.562v37.229c0,5.523,4.477,10,10,10h260.975
			v14.127c0,16.587,13.495,30.082,30.082,30.082h180.862C498.505,512,512,498.505,512,481.918V311.237
			C512,294.65,498.505,281.156,481.918,281.156z M423.514,273.543h24.18v35.225h-24.18V273.543z M335.154,273.543h24.18v35.225
			h-24.18V273.543z M261.461,157.351c14.799,0,26.84,12.041,26.84,26.84s-12.041,26.84-26.84,26.84h-4.907
			c0.005-0.372,0.014-0.743,0.014-1.116v-52.564H261.461z M73.693,211.031c-14.799,0-26.84-12.041-26.84-26.84
			s12.041-26.84,26.84-26.84h4.893v52.564c0,0.373,0.01,0.744,0.014,1.116H73.693z M98.586,209.915v-78.824
			c0-38.042,30.949-68.991,68.991-68.991s68.991,30.949,68.991,68.991v60.1c-0.036,0.085-0.079,0.165-0.112,0.252
			c-6.897,17.817-24.372,29.788-43.483,29.788h-20.52c-5.523,0-10,4.477-10,10s4.477,10,10,10h20.52
			c15.343,0,29.947-5.401,41.548-14.648c-7.475,30.014-34.648,52.324-66.944,52.324C129.535,278.906,98.586,247.957,98.586,209.915z
			 M77.412,447.791v-36.797c0-5.523-4.477-10-10-10s-10,4.477-10,10v36.797H20v-27.229c0-57.797,47.021-104.818,104.818-104.818
			h1.582c5.523,0,10-4.477,10-10v-12.479c9.708,3.643,20.213,5.641,31.177,5.641c10.965,0,21.47-1.998,31.178-5.641v12.479
			c0,5.523,4.477,10,10,10h1.582c22.014,0,42.875,6.666,60.639,19.315v112.732H77.412z M492,481.918
			c0,5.559-4.522,10.082-10.082,10.082H301.057c-5.559,0-10.082-4.522-10.082-10.082V311.237c0-5.559,4.522-10.082,10.082-10.082
			h14.098v17.612c0,5.523,4.477,10,10,10h44.18c5.523,0,10-4.477,10-10v-17.612h24.18v17.612c0,5.523,4.477,10,10,10h44.18
			c5.523,0,10-4.477,10-10v-17.612h14.225c5.559,0,10.082,4.522,10.082,10.082V481.918z"/>
	</g>
</g>
<g>
</g>
<g>
</g>
<g>
</g>
<g>
</g>
<g>
</g>
<g>
</g>
<g>
</g>
<g>
</g>
<g>
</g>
<g>
</g>
<g>
</g>
<g>
</g>
<g>
</g>
<g>
</g>
<g>
</g>
</svg>
