<?xml version="1.0" encoding="iso-8859-1"?>
<!-- Generator: Adobe Illustrator 27.5.0, SVG Export Plug-In . SVG Version: 6.00 Build 0)  -->
<svg version="1.1" id="Layer_1" xmlns="http://www.w3.org/2000/svg" xmlns:xlink="http://www.w3.org/1999/xlink" x="0px" y="0px"
	 viewBox="0 0 512 512" style="enable-background:new 0 0 512 512;" xml:space="preserve">
<g>
	<g>
		<path style="fill:#D46B5C;" d="M344.401,42.875c22.182,0,40.163,17.982,40.163,40.163v378.799
			c0,22.182-17.982,40.163-40.163,40.163H50.163C27.982,502,10,484.018,10,461.837V83.038c0-22.182,17.982-40.163,40.163-40.163
			H344.401z"/>
		<path style="fill:#B55348;" d="M384.565,401.997V142.878c-6.282,1.629-12.455,3.718-18.494,6.272
			c-15.942,6.743-30.248,16.385-42.522,28.659c-12.274,12.274-21.916,26.581-28.659,42.522
			c-6.992,16.531-10.537,34.062-10.537,52.106s3.545,35.575,10.537,52.106c6.743,15.942,16.385,30.248,28.659,42.522
			c12.274,12.274,26.581,21.916,42.522,28.659C372.109,398.278,378.283,400.367,384.565,401.997z"/>
		<polygon style="fill:#FFFFFF;" points="340.385,87.055 340.385,163.53 330.385,271.005 340.385,381.345 340.385,457.82 
			54.18,457.82 54.18,87.055 		"/>
		<path style="fill:#D2DCFD;" d="M340.385,163.53c-5.962,4.266-11.587,9.03-16.836,14.28
			c-12.274,12.274-21.916,26.581-28.659,42.522c-6.992,16.531-10.537,34.062-10.537,52.106s3.545,35.575,10.537,52.106
			c6.743,15.942,16.385,30.248,28.659,42.522c5.25,5.25,10.874,10.014,16.836,14.28V163.53z"/>
		<path style="fill:#D2DCFD;" d="M227.405,42.875v-2.752c0-16.636-13.486-30.122-30.122-30.122S167.16,23.486,167.16,40.122v2.752
			h-32.892v44.18h126.029v-44.18H227.405z"/>
		<polygon style="fill:#FD6050;" points="185.192,325.282 131.013,325.282 131.013,256.891 175.192,256.891 185.192,269.602 		"/>
		<polygon style="fill:#FDCB50;" points="229.372,325.282 175.192,325.282 175.192,236.81 219.372,236.81 228.89,247.292 		"/>
		<rect x="219.372" y="216.728" style="fill:#B1D952;" width="44.18" height="108.554"/>
		<circle style="fill:#B1D952;" cx="418.176" cy="272.437" r="83.824"/>
	</g>
	<g>
		<path style="fill:#93B2F4;" d="M263.552,379.461H142.539c-5.523,0-10-4.477-10-10s4.477-10,10-10h121.013c5.522,0,10,4.477,10,10
			S269.074,379.461,263.552,379.461z"/>
		<path style="fill:#93B2F4;" d="M263.552,423.641H142.539c-5.523,0-10-4.477-10-10s4.477-10,10-10h121.013c5.522,0,10,4.477,10,10
			S269.074,423.641,263.552,423.641z"/>
		<path style="fill:#6864F7;" d="M286.379,335.282H108.186c-5.523,0-10-4.477-10-10s4.477-10,10-10h178.193c5.522,0,10,4.477,10,10
			S291.901,335.282,286.379,335.282z"/>
		<path style="fill:#FFFFFF;" d="M412.405,301.949c-2.56,0-5.118-0.976-7.071-2.929l-27.48-27.48
			c-3.905-3.905-3.905-10.237,0-14.142c3.906-3.905,10.236-3.906,14.143,0l20.409,20.409l31.951-31.952
			c3.906-3.905,10.236-3.905,14.143,0c3.905,3.905,3.905,10.237,0,14.143l-39.022,39.022
			C417.523,300.972,414.965,301.949,412.405,301.949z"/>
		<path style="fill:#67CCD1;" d="M255.771,121.234h-28.163c-5.523,0-10,4.477-10,10s4.477,10,10,10h4.021l-20.038,20.038
			l-13.152-13.153c-3.905-3.904-10.237-3.904-14.142,0l-54.221,54.22c-3.905,3.905-3.906,10.237,0,14.142
			c1.953,1.953,4.512,2.929,7.071,2.929c2.559,0,5.119-0.977,7.071-2.929l47.149-47.149l13.152,13.153
			c3.906,3.905,10.238,3.905,14.142,0l27.109-27.108v4.02c0,5.523,4.477,10,10,10c5.522,0,10-4.477,10-10v-28.163
			C265.771,125.711,261.294,121.234,255.771,121.234z"/>
		<path style="fill:#6864F7;" d="M98.36,379.46c-6.881,0.206-12.085-7.54-9.23-13.82c3.2-8.143,15.26-8.143,18.46,0
			C110.435,371.926,105.25,379.66,98.36,379.46z"/>
		<path style="fill:#6864F7;" d="M98.36,423.64c-6.879,0.2-12.09-7.54-9.23-13.82c3.2-8.143,15.26-8.143,18.46,0
			C110.434,416.104,105.249,423.837,98.36,423.64z"/>
		<path style="fill:#052A75;" d="M418.176,178.614c-8.153,0-16.065,1.047-23.611,3.011V83.038c0-27.66-22.503-50.163-50.163-50.163
			H236.749C233.328,14.199,216.932,0,197.282,0s-36.046,14.199-39.467,32.875H50.163C22.503,32.875,0,55.378,0,83.038v378.799
			C0,489.497,22.503,512,50.163,512h294.238c27.66,0,50.163-22.503,50.163-50.163V363.25c7.547,1.963,15.459,3.011,23.611,3.011
			c51.735,0,93.824-42.089,93.824-93.824S469.911,178.614,418.176,178.614z M144.268,52.875h22.892c5.523,0,10-4.477,10-10v-2.752
			c0-11.096,9.027-20.123,20.123-20.123s20.123,9.027,20.123,20.123v2.752c0,5.523,4.477,10,10,10h22.892v24.18H144.268V52.875z
			 M374.564,461.837c0,16.632-13.531,30.163-30.163,30.163H50.163C33.531,492,20,478.469,20,461.837V83.038
			c0-16.632,13.531-30.163,30.163-30.163h74.105v34.18c0,5.523,4.477,10,10,10h126.029c5.522,0,10-4.477,10-10v-34.18h74.104
			c16.632,0,30.163,13.531,30.163,30.163v106.349c-29.828,15.727-50.212,47.051-50.212,83.05s20.384,67.323,50.212,83.05V461.837z
			 M418.176,346.261c-40.706,0-73.823-33.117-73.823-73.824s33.117-73.824,73.823-73.824c40.707,0,73.824,33.117,73.824,73.824
			S458.883,346.261,418.176,346.261z"/>
	</g>
</g>
<g>
</g>
<g>
</g>
<g>
</g>
<g>
</g>
<g>
</g>
<g>
</g>
<g>
</g>
<g>
</g>
<g>
</g>
<g>
</g>
<g>
</g>
<g>
</g>
<g>
</g>
<g>
</g>
<g>
</g>
</svg>
