<?xml version="1.0" encoding="iso-8859-1"?>
<!-- Generator: Adobe Illustrator 28.0.0, SVG Export Plug-In . SVG Version: 6.00 Build 0)  -->
<svg version="1.1" id="Layer_1" xmlns="http://www.w3.org/2000/svg" xmlns:xlink="http://www.w3.org/1999/xlink" x="0px" y="0px"
	 viewBox="0 0 510 510" style="enable-background:new 0 0 510 510;" xml:space="preserve">
<g>
	<g>
		<g>
			<path style="fill:#FFFFFF;" d="M439.332,320.662h-146.57c-14.142,0-25.606-11.464-25.606-25.606V234.14
				c0-14.142,11.464-25.606,25.606-25.606h146.57c14.142,0,25.606,11.464,25.606,25.606v60.916
				C464.938,309.198,453.474,320.662,439.332,320.662z"/>
		</g>
		<g>
			<path style="fill:#D2DCFD;" d="M364.565,287.99c-37.498,0-71.67-14.236-97.409-37.596v44.662
				c0,14.142,11.464,25.606,25.606,25.606h146.57c14.142,0,25.606-11.464,25.606-25.606v-47.433
				C438.887,272.622,403.522,287.99,364.565,287.99z"/>
		</g>
		<g>
			<path style="fill:#FDE0BE;" d="M227.469,182.627v-14.409h-43.46c-22.753,0-53.372-28.537-55.695-30.692
				c-2.264,1.788-32.942,30.692-55.695,30.692h-43.46v0v14.409c-9.464,1.323-16.747,9.45-16.747,19.278
				c0,10.489,8.296,19.04,18.684,19.451c7.571,37.833,36.599,67.899,73.828,76.917v38.829h46.781v-38.829
				c37.229-9.019,66.257-39.084,73.828-76.917c10.388-0.411,18.683-8.962,18.683-19.451
				C244.217,192.077,236.933,183.95,227.469,182.627z"/>
		</g>
		<g>
			<path style="fill:#F7B073;" d="M192.443,282.044c-11.46,9.12-24.91,15.84-39.59,19.4v37.38l-48.42,2.81v-40.19
				c-38.53-9.34-68.58-40.46-76.42-79.62c-10.75-0.43-19.33-9.28-19.33-20.13c0-10.18,7.53-18.59,17.33-19.96v-14.91h40.58
				c-0.67,4.47-1.01,9.02-1.01,13.65c0,56.48,50.84,102.27,113.55,102.27C183.633,282.744,188.083,282.504,192.443,282.044z"/>
		</g>
		<g>
			<rect x="345.423" y="391.781" style="fill:#D2DCFD;" width="41.248" height="58.991"/>
		</g>
		<g>
			<g>
				<path style="fill:#B1D952;" d="M152.088,450.771H10v-45.396c0-37.706,30.567-68.273,68.273-68.273h100.083
					c37.706,0,68.273,30.567,68.273,68.273v45.396h-45.136"/>
			</g>
		</g>
		<g>
			<g>
				<path style="fill:#91B706;" d="M139.951,450.771H10v-42.898c0-37,27.39-67.59,62.99-72.61c-4.14,9.58-6.36,19.7-6.36,30.17
					C66.63,403.694,100.563,434.205,139.951,450.771z"/>
			</g>
		</g>
		<g>
			<path style="fill:#FFFFFF;" d="M205.771,431.491c0,15.592-12.638,28.232-28.228,28.232s-28.229-12.64-28.229-28.232
				c0-15.592,28.229-44.256,28.229-44.256S205.771,415.899,205.771,431.491z"/>
		</g>
		<g>
			<path style="fill:#FD8F01;" d="M229.002,110.332c-4.096-24.383-16.972-47.836-53.246-58.217
				c-16.869-4.828-35.035,0.03-47.442,12.437l0,0l0,0c-12.407-12.407-30.573-17.265-47.442-12.437
				C44.598,62.496,31.723,85.95,27.626,110.332c-1.293,7.694-1.554,15.527-1.022,23.311l2.555,34.574h43.46
				c22.754,0,53.431-28.904,55.695-30.692c2.323,2.155,32.942,30.692,55.695,30.692h43.46l2.555-34.574
				C230.557,125.859,230.295,118.027,229.002,110.332z"/>
		</g>
	</g>
	<g>
		<g>
			<g>
				<path style="fill:#052A75;" d="M178.36,327.104H161.7v-21.26c35.2-11.33,62.54-40.07,72.09-75.87
					c11.92-3.8,20.43-14.93,20.43-28.07c0-11.53-6.79-21.77-16.75-26.57v-6.79l2.53-34.22c0.19-2.74,0.28-5.46,0.28-8.14
					c0-6.03-0.47-11.89-1.42-17.51c-5.72-34.09-26.03-56.35-60.35-66.17c-17.29-4.95-35.79-1.51-50.2,8.94
					c-14.4-10.45-32.9-13.89-50.19-8.94c-34.32,9.82-54.63,32.08-60.36,66.17c-1.36,8.12-1.74,16.75-1.13,25.71l2.53,34.16v6.79
					c-9.96,4.8-16.75,15.04-16.75,26.57c0,13.14,8.51,24.27,20.43,28.07c9.55,35.8,36.89,64.54,72.08,75.87v21.26H78.27
					c-43.16,0-78.27,35.11-78.27,78.27v45.4c0,5.52,4.48,10,10,10h142.09c0.29,0,0.57-0.01,0.85-0.04
					c6.65,5.61,15.24,8.99,24.6,8.99c9.34,0,17.91-3.37,24.55-8.95h44.54c5.52,0,10-4.48,10-10v-45.4
					C256.63,362.214,221.52,327.104,178.36,327.104z M37.49,111.994c4.46-26.56,19.12-42.53,46.13-50.26
					c13.3-3.81,27.72-0.02,37.62,9.89c3.91,3.9,10.24,3.9,14.15,0c9.9-9.91,24.32-13.7,37.61-9.89
					c13.51,3.87,23.93,9.79,31.53,18.07c7.6,8.28,12.38,18.91,14.61,32.19c1.1,6.57,1.41,13.62,0.91,20.91l-1.87,25.31h-34.17
					c-12.92,0-33.84-14.05-48.89-28.02c-1.91-1.77-4.36-2.67-6.81-2.67c-2.18,0-4.37,0.71-6.19,2.15c-0.27,0.22-0.85,0.71-1.69,1.45
					c-27.88,24.45-42.72,27.09-47.81,27.09H38.45l-1.87-25.25C36.08,125.614,36.38,118.564,37.49,111.994z M40.9,219.394
					c-0.9-4.53-4.79-7.85-9.41-8.03c-5.09-0.2-9.08-4.36-9.08-9.46c0-4.69,3.5-8.72,8.13-9.37c4.94-0.69,8.62-4.92,8.62-9.91v-4.41
					h33.46c15.01,0,33.69-9.22,55.6-27.44c12.47,10.5,35.71,27.44,55.79,27.44h33.46v4.41c0,4.99,3.68,9.22,8.61,9.91
					c4.64,0.65,8.14,4.68,8.14,9.37c0,5.1-3.99,9.26-9.08,9.46c-4.62,0.18-8.51,3.5-9.41,8.03c-6.78,33.89-32.84,61.04-66.38,69.16
					c-4.49,1.09-7.65,5.1-7.65,9.72v28.83h-26.78v-28.83c0-4.62-3.16-8.63-7.64-9.72C73.74,280.434,47.68,253.284,40.9,219.394z
					 M177.54,449.724c-10.05,0-18.23-8.18-18.23-18.23c0-5.53,8.52-18.25,18.24-29.5c9.71,11.24,18.22,23.96,18.22,29.5
					C195.77,441.544,187.59,449.724,177.54,449.724z M236.63,440.774h-22c0.74-2.97,1.14-6.08,1.14-9.28
					c0-8.86-5.3-20.01-16.21-34.1c-7.33-9.48-14.59-16.87-14.89-17.18c-0.94-0.95-2.05-1.69-3.27-2.2
					c-1.21-0.51-2.52-0.78-3.86-0.78c-2.68,0-5.24,1.08-7.12,2.98c-0.31,0.31-7.56,7.7-14.9,17.18
					c-10.9,14.09-16.21,25.24-16.21,34.1c0,3.2,0.4,6.31,1.15,9.28H20v-35.4c0-32.13,26.14-58.27,58.27-58.27h100.09
					c32.13,0,58.27,26.14,58.27,58.27V440.774z"/>
			</g>
		</g>
		<g>
			<path style="fill:#93B2F4;" d="M366.047,401.693c-5.523,0-10-4.477-10-10v-31.622c0-5.523,4.477-10,10-10H490v-75.474h-24.975
				c-5.523,0-10-4.477-10-10s4.477-10,10-10H500c5.523,0,10,4.477,10,10v95.474c0,5.523-4.477,10-10,10H376.047v21.622
				C376.047,397.216,371.57,401.693,366.047,401.693z"/>
		</g>
		<g>
			<path style="fill:#052A75;" d="M439.332,330.662h-146.57c-19.633,0-35.606-15.973-35.606-35.606V234.14
				c0-19.633,15.973-35.606,35.606-35.606h146.57c19.633,0,35.606,15.973,35.606,35.606v60.916
				C474.938,314.689,458.965,330.662,439.332,330.662z M292.762,218.533c-8.605,0-15.606,7.001-15.606,15.606v60.916
				c0,8.605,7.001,15.606,15.606,15.606h146.57c8.605,0,15.606-7.001,15.606-15.606V234.14c0-8.605-7.001-15.606-15.606-15.606
				H292.762z"/>
		</g>
		<g>
			<path style="fill:#052A75;" d="M386.671,460.771h-41.248c-5.523,0-10-4.477-10-10v-58.99c0-5.523,4.477-10,10-10h41.248
				c5.523,0,10,4.477,10,10v58.99C396.671,456.294,392.194,460.771,386.671,460.771z M355.423,440.771h21.248v-38.99h-21.248
				V440.771z"/>
		</g>
	</g>
</g>
<g>
</g>
<g>
</g>
<g>
</g>
<g>
</g>
<g>
</g>
<g>
</g>
<g>
</g>
<g>
</g>
<g>
</g>
<g>
</g>
<g>
</g>
<g>
</g>
<g>
</g>
<g>
</g>
<g>
</g>
</svg>
