<?xml version="1.0" encoding="iso-8859-1"?>
<!-- Generator: Adobe Illustrator 29.5.1, SVG Export Plug-In . SVG Version: 9.03 Build 0)  -->
<svg version="1.1" id="Capa_1" xmlns="http://www.w3.org/2000/svg" xmlns:xlink="http://www.w3.org/1999/xlink" x="0px" y="0px"
	 viewBox="0 0 512 512" style="enable-background:new 0 0 512 512;" xml:space="preserve">
<g>
	<g>
		<g>
			<path style="fill:#D2DCFD;" d="M408.497,323.97H364.39V188.419h44.108c18.804,0,34.048,15.244,34.048,34.048v67.455
				C442.545,308.726,427.301,323.97,408.497,323.97z"/>
		</g>
		<g>
			<path style="fill:#93B2F4;" d="M142.795,435.39V76.61c0-13.92,11.284-25.204,25.204-25.204h204.116
				c13.92,0,25.204,11.284,25.204,25.204V435.39c0,13.92-11.284,25.204-25.204,25.204H167.999
				C154.079,460.594,142.795,449.309,142.795,435.39z"/>
		</g>
		<g>
			<path style="fill:#D2DCFD;" d="M10,476.796V35.204C10,21.284,21.284,10,35.204,10h288.958c13.92,0,25.204,11.284,25.204,25.204
				v441.592c0,13.92-11.284,25.204-25.204,25.204H35.204C21.284,502,10,490.716,10,476.796z"/>
		</g>
		<g>
			<path style="fill:#93B2F4;" d="M300.18,502H35.303C21.326,502,10,490.674,10,476.697V35.303C10,21.326,21.326,10,35.303,10
				h79.794c-7.34,33.436-11.216,68.187-11.216,103.832C103.882,273.069,181.116,414.263,300.18,502z"/>
		</g>
		<g>
			<ellipse style="fill:#BC9AF4;" cx="478.19" cy="94.473" rx="23.81" ry="23.778"/>
		</g>
		<g>
			<ellipse style="fill:#BC9AF4;" cx="478.19" cy="418.866" rx="23.81" ry="23.778"/>
		</g>
		<g>
			<path style="fill:#FDCB50;" d="M155.454,107.354l-93.65,162.001c-10.488,18.142,2.604,40.833,23.56,40.833h187.3
				c20.955,0,34.048-22.691,23.56-40.833l-93.65-162.001C192.096,89.229,165.932,89.229,155.454,107.354z"/>
		</g>
		<g>
			<path style="fill:#FD8F01;" d="M145.581,310.19H85.557c-21.046,0-34.189-22.783-23.656-41.007l47.503-82.174
				C115.991,230.225,128.311,271.553,145.581,310.19z"/>
		</g>
	</g>
	<g>
		<g>
			<path style="fill:#93B2F4;" d="M475.173,234.773h-30.758c-5.523,0-10-4.477-10-10s4.477-10,10-10h23.774v-95.518
				c0-5.523,4.477-10,10-10s10,4.477,10,10v102.506C488.19,228.936,482.351,234.773,475.173,234.773z"/>
		</g>
		<g>
			<path style="fill:#93B2F4;" d="M478.19,404.083c-5.523,0-10-4.477-10-10v-95.519h-23.774c-5.523,0-10-4.477-10-10s4.477-10,10-10
				h30.758c7.177,0,13.017,5.837,13.017,13.012v102.506C488.19,399.606,483.713,404.083,478.19,404.083z M475.173,298.565h0.01
				H475.173z"/>
		</g>
		<g>
			<path style="fill:#052A75;" d="M478.19,128.251c-18.643,0-33.811-15.153-33.811-33.778c0-18.625,15.167-33.778,33.811-33.778
				S512,75.848,512,94.473C512,113.098,496.833,128.251,478.19,128.251z M478.19,80.695c-7.615,0-13.811,6.181-13.811,13.778
				s6.195,13.778,13.811,13.778c7.615,0,13.81-6.181,13.81-13.778S485.805,80.695,478.19,80.695z"/>
		</g>
		<g>
			<path style="fill:#052A75;" d="M478.19,452.644c-18.643,0-33.811-15.153-33.811-33.778c0-18.625,15.167-33.778,33.811-33.778
				S512,400.241,512,418.866C512,437.491,496.833,452.644,478.19,452.644z M478.19,405.088c-7.615,0-13.811,6.181-13.811,13.778
				s6.195,13.778,13.811,13.778c7.615,0,13.81-6.181,13.81-13.778S485.805,405.088,478.19,405.088z"/>
		</g>
		<g>
			<g>
				<path style="fill:#052A75;" d="M408.358,178.419h-1.04V76.713c0-19.468-15.838-35.307-35.307-35.307h-12.647v-6.203
					C359.365,15.792,343.573,0,324.162,0H35.204C15.792,0,0,15.792,0,35.204v441.593C0,496.208,15.792,512,35.204,512h288.958
					c19.411,0,35.204-15.792,35.204-35.204v-6.203h12.647c19.468,0,35.307-15.839,35.307-35.307V333.97h1.04
					c24.365,0,44.187-19.822,44.187-44.187v-67.178C452.545,198.241,432.723,178.419,408.358,178.419z M339.365,476.796
					c0,8.383-6.82,15.204-15.204,15.204H35.204C26.82,492,20,485.18,20,476.796V35.204C20,26.82,26.82,20,35.204,20h288.958
					c8.383,0,15.204,6.82,15.204,15.204V476.796z M387.319,435.287c0,8.44-6.867,15.307-15.307,15.307h-12.647V61.406h12.647
					c8.44,0,15.307,6.867,15.307,15.307V435.287z M432.545,289.783c0,13.336-10.85,24.187-24.187,24.187h-1.04V198.419h1.04
					c13.336,0,24.187,10.85,24.187,24.187V289.783z"/>
				<path style="fill:#052A75;" d="M211.231,102.349c-6.729-11.64-18.772-18.589-32.217-18.589s-25.489,6.949-32.217,18.589
					l-93.65,162c-6.735,11.651-6.741,25.566-0.015,37.223c6.726,11.656,18.775,18.615,32.232,18.615h187.3
					c13.458,0,25.507-6.959,32.232-18.615c6.726-11.656,6.72-25.571-0.015-37.223L211.231,102.349z M287.573,291.577
					c-3.111,5.392-8.685,8.611-14.909,8.611h-187.3c-6.225,0-11.798-3.219-14.909-8.611c-3.111-5.392-3.109-11.828,0.007-17.217
					l93.65-162c3.112-5.384,8.684-8.599,14.902-8.599s11.79,3.214,14.902,8.599l93.65,162
					C290.682,279.749,290.685,286.185,287.573,291.577z"/>
			</g>
			<g>
				<path style="fill:#FFFFFF;" d="M166.534,276.274c-1.968,0-3.956-0.58-5.695-1.787c-4.536-3.15-5.66-9.381-2.51-13.917
					l20.54-29.582h-24.998c-3.757,0-7.196-2.105-8.905-5.451c-1.709-3.346-1.399-7.367,0.803-10.41l33.557-46.39
					c3.237-4.475,9.489-5.478,13.963-2.242c4.475,3.237,5.479,9.489,2.242,13.963l-22.084,30.529h24.54
					c3.722,0,7.136,2.067,8.861,5.365c1.725,3.298,1.476,7.281-0.647,10.338l-31.444,45.285
					C172.814,274.774,169.699,276.274,166.534,276.274z"/>
			</g>
			<g>
				<g>
					<path style="fill:#6864F7;" d="M254.145,373.465H103.884c-5.523,0-10-4.477-10-10s4.477-10,10-10h150.261
						c5.523,0,10,4.477,10,10S259.667,373.465,254.145,373.465z"/>
				</g>
				<g>
					<path style="fill:#6864F7;" d="M229.936,422.416H128.093c-5.523,0-10-4.477-10-10s4.477-10,10-10h101.843
						c5.523,0,10,4.477,10,10S235.458,422.416,229.936,422.416z"/>
				</g>
			</g>
		</g>
		<g>
			<circle style="fill:#FFFFFF;" cx="55.99" cy="59.695" r="10"/>
			<circle style="fill:#FFFFFF;" cx="305.1" cy="59.695" r="10"/>
			<circle style="fill:#FFFFFF;" cx="55.99" cy="452.309" r="10"/>
			<circle style="fill:#FFFFFF;" cx="305.1" cy="452.309" r="10"/>
		</g>
	</g>
</g>
<g>
</g>
<g>
</g>
<g>
</g>
<g>
</g>
<g>
</g>
<g>
</g>
<g>
</g>
<g>
</g>
<g>
</g>
<g>
</g>
<g>
</g>
<g>
</g>
<g>
</g>
<g>
</g>
<g>
</g>
</svg>
