<?xml version="1.0" encoding="iso-8859-1"?>
<!-- Generator: Adobe Illustrator 27.5.0, SVG Export Plug-In . SVG Version: 6.00 Build 0)  -->
<svg version="1.1" id="Layer_1" xmlns="http://www.w3.org/2000/svg" xmlns:xlink="http://www.w3.org/1999/xlink" x="0px" y="0px"
	 viewBox="0 0 512 512" style="enable-background:new 0 0 512 512;" xml:space="preserve">
<g>
	<g>
		<path style="fill:#FFFFFF;" d="M195.675,465.518c-22.191,0-40.181-17.953-40.181-40.099V104.458h335.195v320.961
			c0,22.146-17.99,40.099-40.181,40.099H195.675z"/>
		<path style="fill:#D2DCFD;" d="M295.515,334.892l-15.943-8.304l5.382-17.1c1.831-5.816,0.27-12.167-4.047-16.473l-50.177-50.04
			c-4.3-4.288-10.623-5.838-16.418-4.023l-17.244,5.399l-8.359-15.964c-2.819-5.385-8.395-8.759-14.474-8.759h-18.742v205.792
			c0,22.146,17.99,40.099,40.181,40.099H285.7c0.052-1.794-0.19-3.61-0.746-5.378l-5.382-17.101l15.943-8.304
			c5.402-2.814,8.79-8.399,8.79-14.49v-70.864C304.306,343.291,300.917,337.705,295.515,334.892z"/>
		<rect x="233.639" y="235.419" style="fill:#FDCB50;" width="59.635" height="87.369"/>
		<path style="fill:#FD8F01;" d="M284.954,309.488c1.831-5.816,0.27-12.167-4.047-16.473l-47.268-47.139v76.912h47.129
			L284.954,309.488z"/>
		<path style="fill:#BC9AF4;" d="M155.494,104.458V50.099c0-22.146,17.99-40.099,40.181-40.099h254.834
			c22.191,0,40.181,17.953,40.181,40.099v54.359H155.494z"/>
		<rect x="352.909" y="194.971" style="fill:#FD7DA0;" width="59.635" height="127.816"/>
		<rect x="293.274" y="158.541" style="fill:#67CCD1;" width="59.635" height="164.247"/>
		<ellipse style="fill:#FFFFFF;" cx="138.808" cy="384.813" rx="56.935" ry="56.836"/>
		<path style="fill:#BC9AF4;" d="M239.168,359.664c-2.46-9.808-6.339-19.142-11.567-27.833l5.794-18.409l-23.006-22.943
			l-18.456,5.779c-8.713-5.214-18.073-9.084-27.908-11.537l-8.95-17.093h-32.532l-8.95,17.093
			c-9.835,2.454-19.196,6.323-27.907,11.537l-18.457-5.779l-23.004,22.943l5.793,18.409c-5.227,8.688-9.106,18.024-11.566,27.834
			l-17.138,8.927v32.447l17.138,8.926c2.461,9.81,6.34,19.145,11.566,27.833l-5.793,18.409l23.004,22.943l18.457-5.778
			c8.711,5.213,18.07,9.082,27.907,11.536l8.95,17.093h32.532l8.95-17.093c9.834-2.453,19.196-6.323,27.908-11.536l18.456,5.778
			l23.006-22.943l-5.794-18.409c5.227-8.691,9.107-18.026,11.567-27.833l17.138-8.926V368.59L239.168,359.664z M138.808,428.949
			c-24.44,0-44.252-19.76-44.252-44.136c0-24.375,19.812-44.135,44.252-44.135s44.253,19.76,44.253,44.135
			C183.061,409.189,163.248,428.949,138.808,428.949z"/>
	</g>
	<g>
		<g>
			<path style="fill:#FFFFFF;" d="M282.657,47.229h-67.566c-5.522,0-10,4.477-10,10s4.478,10,10,10h67.566c5.522,0,10-4.477,10-10
				S288.18,47.229,282.657,47.229z"/>
			<path style="fill:#FFFFFF;" d="M394.6,53.4c-1.637-3.929-5.694-6.456-9.948-6.148c-4.15,0.3-7.748,3.238-8.897,7.232
				c-1.152,4.007,0.393,8.447,3.788,10.871c3.364,2.403,7.936,2.46,11.378,0.185C394.862,62.934,396.382,57.747,394.6,53.4z"/>
			<path style="fill:#FFFFFF;" d="M348.88,53.4c-1.635-3.924-5.705-6.444-9.949-6.138c-4.156,0.3-7.745,3.221-8.896,7.222
				c-1.15,3.999,0.384,8.455,3.783,10.871c3.371,2.396,7.924,2.463,11.371,0.185C349.133,62.934,350.665,57.754,348.88,53.4z"/>
			<path style="fill:#FFFFFF;" d="M440.899,55.27c-0.842-4.086-4.223-7.355-8.38-7.937c-4.188-0.586-8.379,1.567-10.316,5.329
				c-1.911,3.711-1.266,8.353,1.589,11.403c2.818,3.01,7.324,3.961,11.127,2.394C439.271,64.667,441.829,59.884,440.899,55.27z"/>
		</g>
		<g>
			<path style="fill:#FD6050;" d="M412.544,377.135H255.128c-5.522,0-10-4.477-10-10s4.478-10,10-10h157.416c5.522,0,10,4.477,10,10
				S418.066,377.135,412.544,377.135z"/>
		</g>
		<g>
			<path style="fill:#FD6050;" d="M412.544,421.965H239.639c-5.522,0-10-4.477-10-10s4.478-10,10-10h172.905c5.522,0,10,4.477,10,10
				S418.066,421.965,412.544,421.965z"/>
		</g>
		<path style="fill:#052A75;" d="M450.509,0H195.675c-27.67,0-50.181,22.474-50.181,50.099v207.528h-22.952
			c-3.721,0-7.133,2.065-8.859,5.361l-6.925,13.226c-7.723,2.263-15.175,5.343-22.245,9.197l-14.299-4.477
			c-3.547-1.11-7.418-0.162-10.049,2.463l-23.004,22.943c-2.643,2.635-3.598,6.522-2.478,10.082l4.478,14.231
			c-3.857,7.045-6.941,14.468-9.207,22.16l-13.263,6.908c-3.307,1.722-5.381,5.141-5.381,8.869v32.447
			c0,3.728,2.074,7.147,5.381,8.869l13.263,6.908c2.266,7.689,5.351,15.112,9.207,22.159l-4.478,14.232
			c-1.12,3.559-0.165,7.446,2.478,10.082l23.004,22.943c2.632,2.625,6.504,3.573,10.049,2.463l14.299-4.477
			c7.072,3.854,14.523,6.935,22.245,9.197l6.925,13.226c1.727,3.296,5.139,5.361,8.859,5.361h32.532
			c3.721,0,7.133-2.065,8.859-5.361l6.925-13.226c7.721-2.262,15.173-5.343,22.245-9.197l14.297,4.476
			c3.548,1.111,7.418,0.162,10.05-2.462l10.741-10.712h222.318c27.67,0,50.181-22.474,50.181-50.098V50.099
			C500.689,22.474,478.179,0,450.509,0z M195.675,20h254.834c16.642,0,30.181,13.502,30.181,30.099v44.359H165.494V50.099
			C165.494,33.502,179.033,20,195.675,20z M207.607,467.799l-12.687-3.972c-2.72-0.851-5.676-0.502-8.122,0.962
			c-7.855,4.7-16.332,8.204-25.195,10.415c-2.771,0.691-5.113,2.534-6.438,5.064L149.022,492h-20.429l-6.143-11.732
			c-1.325-2.53-3.668-4.373-6.438-5.064c-8.865-2.211-17.341-5.715-25.193-10.415c-2.447-1.464-5.401-1.813-8.122-0.962
			L70.008,467.8l-14.424-14.386l3.97-12.616c0.859-2.731,0.507-5.701-0.97-8.155c-4.709-7.831-8.221-16.279-10.436-25.111
			c-0.695-2.773-2.544-5.116-5.08-6.437l-11.758-6.124v-20.313l11.758-6.124c2.536-1.321,4.385-3.664,5.08-6.437
			c2.216-8.835,5.727-17.284,10.436-25.111c1.477-2.455,1.829-5.424,0.97-8.156l-3.97-12.615l14.424-14.386l12.689,3.973
			c2.718,0.851,5.677,0.502,8.123-0.963c7.85-4.698,16.325-8.202,25.191-10.414c2.771-0.691,5.114-2.534,6.439-5.064l6.143-11.732
			h20.429l6.143,11.732c1.325,2.53,3.669,4.373,6.439,5.064c8.862,2.21,17.339,5.714,25.192,10.415
			c2.447,1.465,5.403,1.813,8.124,0.962l12.687-3.972l14.425,14.385l-3.971,12.615c-0.859,2.732-0.507,5.702,0.971,8.157
			c4.709,7.828,8.221,16.276,10.437,25.111c0.695,2.773,2.544,5.116,5.08,6.437l11.757,6.124v20.314l-11.757,6.124
			c-2.536,1.321-4.385,3.663-5.08,6.436c-2.215,8.83-5.727,17.279-10.438,25.112c-1.477,2.455-1.829,5.424-0.97,8.156l3.971,12.616
			L207.607,467.799z M480.689,425.419c0,16.596-13.539,30.098-30.181,30.098H243.371c-0.053-0.776-0.198-1.552-0.438-2.314
			l-4.479-14.232c3.858-7.048,6.942-14.47,9.209-22.158l13.262-6.908c3.307-1.722,5.381-5.141,5.381-8.869V368.59
			c0-3.728-2.074-7.147-5.381-8.869l-13.262-6.908c-2.039-6.918-4.741-13.62-8.071-20.025h172.952c5.522,0,10-4.477,10-10V194.971
			c0-5.523-4.478-10-10-10h-49.635v-26.431c0-5.523-4.478-10-10-10h-59.635c-5.522,0-10,4.477-10,10v66.878h-49.636
			c-5.522,0-10,4.477-10,10v54.151l-6.188-6.172c-2.632-2.625-6.5-3.574-10.05-2.462l-14.296,4.476
			c-7.073-3.855-14.525-6.936-22.246-9.197l-5.364-10.245V114.458h315.195V425.419z M362.909,204.971h39.635v107.816h-39.635
			V204.971z M342.909,312.788h-39.635V168.541h39.635V312.788z M283.274,312.788h-39.636v-67.369h39.636V312.788z"/>
	</g>
</g>
<g>
</g>
<g>
</g>
<g>
</g>
<g>
</g>
<g>
</g>
<g>
</g>
<g>
</g>
<g>
</g>
<g>
</g>
<g>
</g>
<g>
</g>
<g>
</g>
<g>
</g>
<g>
</g>
<g>
</g>
</svg>
