<?xml version="1.0" encoding="iso-8859-1"?>
<!-- Generator: Adobe Illustrator 28.0.0, SVG Export Plug-In . SVG Version: 6.00 Build 0)  -->
<svg version="1.1" id="Layer_1" xmlns="http://www.w3.org/2000/svg" xmlns:xlink="http://www.w3.org/1999/xlink" x="0px" y="0px"
	 viewBox="0 0 510 510" style="enable-background:new 0 0 510 510;" xml:space="preserve">
<g>
	<g>
		<g>
			<path style="fill:#FDCB50;" d="M152.073,42.657h0.016c78.465,0,142.073,63.608,142.073,142.073v83.531
				c0,48.048-38.95,86.998-86.998,86.998H96.998C48.95,355.259,10,316.309,10,268.261V184.73
				C10,106.265,73.608,42.657,152.073,42.657z"/>
		</g>
		<g>
			<path style="fill:#FDBEB9;" d="M223.486,168.544l-13.099-21.834h0c-16.803,23.105-43.649,36.776-72.22,36.776h-83.88
				l0.015,38.283c0,46.133,31.843,84.817,74.714,95.202v38.288l46.133-1.718v-36.569c42.871-10.385,74.714-49.068,74.714-95.202
				l0.015-38.283C239.066,183.486,229.047,177.814,223.486,168.544z"/>
		</g>
		<g>
			<path style="fill:#FD7DA0;" d="M197.619,311.84c-7.05,3.69-14.61,6.56-22.53,8.48v38.97h-46.95v-38.97
				c-43.64-10.57-76.04-49.94-76.04-96.89v-42.82h0.55c15.56-0.03,30.6,0.02,44.18-2.3c-0.97,6.1-1.47,12.37-1.47,18.76
				C95.359,257.62,140.409,307.26,197.619,311.84z"/>
		</g>
		<g>
			<path style="fill:#FFFFFF;" d="M458.716,297.593h-0.003c-22.801,0-41.284,18.484-41.284,41.284v87.181
				c0,22.801,18.484,41.284,41.284,41.284h0.003c22.801,0,41.284-18.484,41.284-41.284v-87.181
				C500,316.077,481.516,297.593,458.716,297.593z"/>
		</g>
		<g>
			<path style="fill:#FD6050;" d="M458.716,297.593h-0.003c-22.801,0-41.284,18.484-41.284,41.284v42.952H500v-42.952
				C500,316.077,481.516,297.593,458.716,297.593z"/>
		</g>
		<g>
			<ellipse style="fill:#67CCD1;" cx="358.595" cy="408.514" rx="58.833" ry="58.829"/>
		</g>
		<g>
			<path style="fill:#FFFFFF;" d="M201.429,355.259h-98.695c-37.183,0-67.327,30.141-67.327,67.322v44.763h233.348V422.58
				C268.756,385.4,238.613,355.259,201.429,355.259z"/>
		</g>
		<g>
			<g>
				<path style="fill:#D2DCFD;" d="M165.281,468.268H35.329V425.37c0-37,27.39-67.59,62.99-72.61c-4.14,9.58-6.36,19.7-6.36,30.17
					C91.959,421.19,125.893,451.702,165.281,468.268z"/>
			</g>
		</g>
		<g>
			<polygon style="fill:#67CCD1;" points="111.228,357.784 152.289,412.589 196.309,355.259 			"/>
		</g>
	</g>
	<g>
		<g>
			<path style="fill:#052A75;" d="M458.71,287.59c-28.28,0-51.28,23.01-51.28,51.29V360l-0.16-0.16
				c-26.84-26.83-70.51-26.83-97.35,0c-13,13-20.16,30.29-20.16,48.67c0,9.19,1.79,18.11,5.2,26.36
				c3.42,8.24,8.46,15.81,14.96,22.31c13.42,13.42,31.05,20.13,48.68,20.13c17.62,0,35.25-6.71,48.67-20.13
				c2.23-2.23,4.29-4.59,6.17-7.06c8.63,16.19,25.68,27.22,45.27,27.22h0.01c28.27,0,51.28-23,51.28-51.28v-87.18
				C510,310.6,486.99,287.59,458.71,287.59z M393.13,443.04c-19.04,19.04-50.03,19.04-69.07,0c-9.22-9.22-14.3-21.48-14.3-34.53
				c0-13.04,5.08-25.3,14.3-34.52c19.04-19.04,50.02-19.04,69.07,0c9.22,9.22,14.3,21.48,14.3,34.52
				C407.43,421.56,402.35,433.82,393.13,443.04z M490,426.06c0,17.25-14.03,31.28-31.28,31.28h-0.01
				c-17.25,0-31.28-14.03-31.28-31.28v-87.18c0-17.25,14.03-31.29,31.29-31.29c17.25,0,31.28,14.04,31.28,31.29V426.06z"/>
		</g>
		<g>
			<path style="fill:#27A2CC;" d="M373.022,432.94c-2.559,0-5.118-0.976-7.071-2.929l-28.854-28.852
				c-3.905-3.905-3.906-10.237,0-14.142s10.237-3.906,14.142,0l28.854,28.852c3.905,3.905,3.906,10.237,0,14.142
				C378.141,431.964,375.582,432.94,373.022,432.94z"/>
		</g>
		<g>
			<path style="fill:#052A75;" d="M304.16,268.26v-83.53c0-83.85-68.22-152.07-152.07-152.07h-0.02C68.22,32.66,0,100.88,0,184.73
				v83.53c0,40.49,24.93,75.26,60.24,89.75c-20.97,13.84-34.83,37.61-34.83,64.57v44.76c0,5.53,4.47,10,10,10h233.35
				c5.52,0,10-4.47,10-10v-44.76c0-26.95-13.86-50.72-34.83-64.56C279.24,343.51,304.16,308.74,304.16,268.26z M258.76,422.58v34.76
				H45.41v-34.76c0-31.61,25.71-57.32,57.32-57.32h98.7C233.04,365.26,258.76,390.97,258.76,422.58z M131.37,307.25
				c-39.49-9.56-67.07-44.72-67.07-85.48l-0.01-28.28h73.88c26.73,0,52.28-10.9,70.8-29.7l5.94,9.9
				c5.57,9.29,14.66,15.9,24.96,18.53l-0.01,29.55c0,40.76-27.58,75.92-67.07,85.48c-4.48,1.09-7.64,5.1-7.64,9.72v28.29h-26.13
				v-28.29C139.02,312.35,135.86,308.34,131.37,307.25z M207.17,345.26h-22.02v-20.73c20.04-6.49,38.03-18.91,51.26-35.53
				c15.12-19,23.45-42.88,23.45-67.23l0.02-38.28c0-2.65-1.06-5.2-2.93-7.07c-1.88-1.88-4.42-2.93-7.07-2.93
				c-7.26,0-14.09-3.87-17.82-10.09l-13.1-21.83c-1.73-2.88-4.78-4.7-8.13-4.85c-3.37-0.15-6.56,1.4-8.53,4.11
				c-14.87,20.45-38.85,32.66-64.13,32.66H54.29c-2.66,0-5.2,1.05-7.08,2.93c-1.87,1.87-2.92,4.42-2.92,7.07l0.01,38.28
				c0,24.35,8.33,48.23,23.46,67.23c13.23,16.62,31.21,29.04,51.26,35.53v20.73H97c-42.46,0-77-34.54-77-77v-83.53
				C20,111.9,79.25,52.66,152.07,52.66h0.02c72.83,0,132.07,59.24,132.07,132.07v83.53C284.16,310.72,249.62,345.26,207.17,345.26z"
				/>
		</g>
		<g>
			<path style="fill:#67CCD1;" d="M219.471,432.981h-20.477c-5.523,0-10-4.477-10-10s4.477-10,10-10h20.477c5.523,0,10,4.477,10,10
				S224.994,432.981,219.471,432.981z"/>
		</g>
	</g>
</g>
<g>
</g>
<g>
</g>
<g>
</g>
<g>
</g>
<g>
</g>
<g>
</g>
<g>
</g>
<g>
</g>
<g>
</g>
<g>
</g>
<g>
</g>
<g>
</g>
<g>
</g>
<g>
</g>
<g>
</g>
</svg>
