<?xml version="1.0" encoding="iso-8859-1"?>
<!-- Generator: Adobe Illustrator 26.5.3, SVG Export Plug-In . SVG Version: 6.00 Build 0)  -->
<svg version="1.1" id="Capa_1" xmlns="http://www.w3.org/2000/svg" xmlns:xlink="http://www.w3.org/1999/xlink" x="0px" y="0px"
	 viewBox="0 0 512.005 512.005" style="enable-background:new 0 0 512.005 512.005;" xml:space="preserve">
<g>
	<g>
		<g>
			<path style="fill:#FDCB50;" d="M74.399,350.571c-18.083,0-32.743-14.659-32.743-32.743V42.748
				c0-18.084,14.66-32.744,32.744-32.744h363.14c18.083,0,32.743,14.659,32.743,32.743v275.082
				c0,18.083-14.659,32.743-32.743,32.743H74.399z"/>
			<path style="fill:#FD8F01;" d="M121.705,169.265c0-61.045,22.696-116.782,60.096-159.261H74.4
				c-18.084,0-32.744,14.66-32.744,32.744v275.081c0,18.083,14.659,32.743,32.743,32.743h129.482
				C153.512,306.377,121.705,241.539,121.705,169.265z"/>
			<rect x="85.835" y="54.184" style="fill:#93B2F4;" width="340.267" height="252.208"/>
			<path style="fill:#6864F7;" d="M150.908,54.184H85.835v252.208h78.668c-26.974-38.932-42.798-86.176-42.798-137.127
				C121.705,127.585,132.292,88.384,150.908,54.184z"/>
		</g>
		<polygon style="fill:#B1D952;" points="426.204,201.199 375.126,136.464 281.125,255.596 281.125,306.392 426.102,306.392 		"/>
		<polygon style="fill:#91B706;" points="309.824,219.223 281.125,255.596 281.125,306.392 377.826,306.392 		"/>
		<polygon style="fill:#D46B5C;" points="320.752,306.392 249.107,214.552 221.171,223.293 136.812,116.38 85.835,179.48 
			85.835,306.392 		"/>
		<path style="fill:#B55348;" d="M124.673,131.405L85.835,179.48v126.912h78.668c-26.974-38.932-42.798-86.176-42.798-137.127
			C121.705,156.383,122.727,143.74,124.673,131.405z"/>
		<g>
			<rect x="70.625" y="440.617" style="fill:#FD8F01;" width="45.101" height="61.384"/>
			<rect x="396.279" y="435.333" style="fill:#FD8F01;" width="45.101" height="66.669"/>
			<circle style="fill:#FDCB50;" cx="93.176" cy="426.42" r="31.5"/>
			<circle style="fill:#FDCB50;" cx="418.83" cy="426.42" r="31.5"/>
		</g>
		<circle style="fill:#FDCB50;" cx="255.969" cy="130.367" r="31.999"/>
		<polygon style="fill:#B1D952;" points="218.125,306.392 135.123,201.199 85.835,263.664 85.835,306.392 		"/>
		<path style="fill:#91B706;" d="M85.835,263.664v42.728h78.668c-19.042-27.484-32.516-59.11-38.796-93.261L85.835,263.664z"/>
	</g>
	<g>
		<g>
			<path style="fill:#FD7DA0;" d="M379.338,420.093c-34.451,29.059-78.247,45.06-123.335,45.06c-0.02,0-0.043,0-0.062-0.001
				c-45.11-0.015-88.925-16.047-123.373-45.146c-4.221-3.564-10.528-3.033-14.093,1.187c-3.563,4.22-3.032,10.528,1.187,14.093
				c38.051,32.141,86.447,49.851,136.272,49.866c0.024,0.001,0.045,0.001,0.069,0.001c49.798,0,98.179-17.676,136.229-49.772
				c4.222-3.561,4.758-9.869,1.196-14.091C389.868,417.065,383.556,416.533,379.338,420.093z"/>
			<path style="fill:#FD7DA0;" d="M55.713,425.691c-14.93,11.554-31.462,20.681-49.137,27.128c-5.188,1.893-7.86,7.633-5.968,12.821
				c1.48,4.058,5.313,6.576,9.396,6.576c1.138,0,2.295-0.196,3.426-0.608c19.615-7.155,37.96-17.282,54.523-30.101
				c4.367-3.38,5.168-9.66,1.788-14.028C66.363,423.112,60.08,422.309,55.713,425.691z"/>
			<path style="fill:#FD7DA0;" d="M505.429,452.819c-17.269-6.3-33.458-15.163-48.117-26.345
				c-4.394-3.352-10.667-2.505-14.016,1.887c-3.35,4.391-2.505,10.666,1.887,14.016c16.264,12.405,34.228,22.24,53.393,29.231
				c1.131,0.412,2.288,0.608,3.426,0.608c4.082,0,7.915-2.519,9.396-6.576C513.29,460.452,510.618,454.712,505.429,452.819z"/>
		</g>
		<g>
			<path style="fill:#052A75;" d="M93.176,384.92c-22.883,0-41.5,18.617-41.5,41.5c0,9.764,3.397,18.744,9.061,25.839
				c-0.065,0.462-0.111,0.93-0.111,1.41v48.333c0,5.522,4.478,10,10,10h45.101c5.522,0,10-4.478,10-10v-48.333
				c0-0.48-0.045-0.948-0.111-1.41c5.663-7.096,9.061-16.076,9.061-25.839C134.677,403.537,116.059,384.92,93.176,384.92z
				 M93.176,404.92c11.855,0,21.501,9.645,21.501,21.5s-9.646,21.501-21.501,21.501s-21.5-9.646-21.5-21.501
				S81.32,404.92,93.176,404.92z M80.626,492.002v-26.025c3.961,1.26,8.177,1.944,12.55,1.944c4.374,0,8.589-0.685,12.551-1.945
				v26.026H80.626z"/>
			<path style="fill:#052A75;" d="M418.83,384.92c-22.884,0-41.501,18.617-41.501,41.5c0,9.764,3.397,18.744,9.061,25.839
				c-0.065,0.462-0.111,0.93-0.111,1.41v48.333c0,5.522,4.478,10,10,10h45.101c5.522,0,10-4.478,10-10v-48.333
				c0-0.48-0.045-0.948-0.111-1.41c5.664-7.095,9.061-16.076,9.061-25.839C460.33,403.537,441.713,384.92,418.83,384.92z
				 M418.83,404.92c11.855,0,21.5,9.645,21.5,21.5s-9.645,21.501-21.5,21.501s-21.501-9.646-21.501-21.501
				S406.974,404.92,418.83,404.92z M406.279,492.002v-26.026c3.962,1.26,8.177,1.945,12.551,1.945c4.373,0,8.588-0.685,12.55-1.944
				v26.025H406.279z"/>
			<path style="fill:#052A75;" d="M437.539,0.004H74.399c-23.568,0-42.743,19.175-42.743,42.744v275.081
				c0,23.568,19.174,42.742,42.742,42.742h363.141c23.568,0,42.743-19.174,42.743-42.742V42.747
				C480.282,19.179,461.107,0.004,437.539,0.004z M436.102,302.249V58.326l22.948-22.947c0.794,2.312,1.232,4.79,1.232,7.368
				v275.082c0,2.579-0.438,5.055-1.232,7.368L436.102,302.249z M325.633,296.391l-31.797-40.761l81.29-103.023l40.977,51.933v91.851
				H325.633z M52.888,325.197c-0.794-2.312-1.232-4.789-1.232-7.368V42.748c0-2.579,0.438-5.056,1.232-7.369l22.947,22.947v243.923
				L52.888,325.197z M416.102,64.183v108.069l-33.126-41.983c-1.896-2.403-4.789-3.806-7.851-3.806s-5.954,1.402-7.851,3.806
				L281.17,239.395l-24.178-30.994c-2.563-3.284-6.892-4.636-10.871-3.393l-21.365,6.685l-80.094-101.508
				c-1.896-2.403-4.789-3.806-7.851-3.806s-5.954,1.402-7.851,3.806l-33.126,41.983V64.183H416.102z M95.835,296.391v-29.257
				l39.288-49.791l62.373,79.049H95.835z M222.972,296.391l-79.999-101.387c-1.896-2.403-4.789-3.806-7.851-3.806
				s-5.954,1.402-7.851,3.806l-31.438,39.842v-50.39l40.977-51.933l76.509,96.964c2.568,3.256,6.878,4.587,10.837,3.35l21.326-6.672
				l54.785,70.227H222.972z M437.539,20.004c2.579,0,5.056,0.438,7.369,1.232L421.96,44.183H89.977L67.03,21.236
				c2.313-0.795,4.79-1.232,7.369-1.232H437.539z M74.398,340.571c-2.579,0-5.055-0.438-7.368-1.232l22.947-22.948H421.96
				l22.948,22.948c-2.313,0.794-4.79,1.232-7.369,1.232H74.398z"/>
		</g>
	</g>
</g>
<g>
</g>
<g>
</g>
<g>
</g>
<g>
</g>
<g>
</g>
<g>
</g>
<g>
</g>
<g>
</g>
<g>
</g>
<g>
</g>
<g>
</g>
<g>
</g>
<g>
</g>
<g>
</g>
<g>
</g>
</svg>
