<?xml version="1.0" encoding="iso-8859-1"?>
<!-- Generator: Adobe Illustrator 28.1.0, SVG Export Plug-In . SVG Version: 6.00 Build 0)  -->
<svg version="1.1" id="Layer_1" xmlns="http://www.w3.org/2000/svg" xmlns:xlink="http://www.w3.org/1999/xlink" x="0px" y="0px"
	 viewBox="0 0 512 512" style="enable-background:new 0 0 512 512;" xml:space="preserve">
<g>
	<g>
		<path style="fill:#FDCB50;" d="M365.868,410.386c-81.416,81.538-213.4,81.538-294.816,0c-81.405-81.527-81.405-213.719,0-295.246
			c49.158-49.22,116.735-68.729,180.497-58.515c41.845,6.711,82.061,26.209,114.319,58.515
			c33.089,33.138,52.721,74.652,58.919,117.73C433.817,295.764,414.184,361.997,365.868,410.386z"/>
		<path style="fill:#FD8F01;" d="M424.787,232.87H406.5l-118.057,54.278V232.87h-36.893V56.625
			c41.845,6.711,82.061,26.209,114.319,58.515C398.957,148.278,418.59,189.792,424.787,232.87z"/>
		<path style="fill:#FD8F01;" d="M76.319,171.887c0-24.185,3.188-47.625,9.165-69.921c-4.963,4.125-9.779,8.517-14.431,13.174
			c-81.405,81.527-81.405,213.719,0,295.246c69.784,69.889,176.72,79.872,257.12,29.953
			C187.632,431.699,76.319,314.812,76.319,171.887z"/>
		<path style="fill:#FD6050;" d="M218.461,471.538c53.35,0,106.7-20.383,147.404-61.148L218.461,262.765L218.461,471.538z"/>
		<path style="fill:#DB4B86;" d="M218.461,409.248v62.29c38.107,0,76.214-10.4,109.713-31.199
			C288.689,437.912,251.512,426.94,218.461,409.248z"/>
		<path style="fill:#B1D952;" d="M365.868,410.386L218.46,262.768l33.089-33.138l114.319-114.49
			c33.089,33.138,52.721,74.652,58.919,117.73C433.817,295.764,414.184,361.997,365.868,410.386z"/>
		<path style="fill:#91B706;" d="M424.787,232.87H406.5l-118.057,54.278V232.87h-36.893v-3.24l114.319-114.49
			C398.957,148.278,418.59,189.792,424.787,232.87z"/>
		<polygon style="fill:#FFFFFF;" points="502,40.462 296.292,40.462 296.292,185.114 335.123,185.114 335.123,212.832 
			395.416,185.114 502,185.114 		"/>
		<path style="fill:#D2DCFD;" d="M328.174,53.992c0-4.558,0.195-9.071,0.576-13.53h-32.459v144.652h38.832v27.717l60.292-27.717
			h3.553C356.328,157.092,328.174,108.83,328.174,53.992z"/>
	</g>
	<g>
		<path style="fill:#052A75;" d="M502,30.462H296.292c-5.522,0-10,4.477-10,10v14.295c-36.502-11.916-75.482-14.008-113.23-6.014
			c-41.349,8.758-79.068,29.274-109.081,59.331C22.722,149.395,0,204.332,0,262.765s22.722,113.371,63.98,154.691
			c41.263,41.324,96.125,64.082,154.48,64.082s113.218-22.758,154.48-64.082c58.141-58.228,78.533-144.5,53.321-222.342H502
			c5.522,0,10-4.477,10-10V40.462C512,34.939,507.522,30.462,502,30.462z M78.133,122.206
			c54.302-54.383,135.961-72.53,208.159-46.296v104.77c0,0-75.203,75.327-75.252,75.382c0,0-0.001,0.001-0.001,0.001
			c-1.506,1.541-2.426,3.567-2.531,5.719c-0.027,0.554-0.046,0.959-0.046,0.982v198.526c-49.252-2.432-95.21-22.797-130.328-57.967
			C0.744,325.82,0.744,199.71,78.133,122.206z M228.461,286.933l123.1,123.284c-34.084,30.935-77.16,48.807-123.1,51.075V286.933z
			 M365.687,396.058L232.593,262.765l67.55-67.651h24.98v17.717c0,3.408,1.735,6.581,4.604,8.419
			c1.636,1.048,3.512,1.581,5.396,1.581c1.42,0,2.846-0.302,4.176-0.914l58.305-26.803h7.523
			C430.064,264.276,414.648,341.794,365.687,396.058z M492,175.114h-96.584c-1.442,0-2.867,0.312-4.177,0.914l-46.116,21.2v-12.114
			c0-5.523-4.478-10-10-10h-28.831V50.462H492V175.114z"/>
		<g>
			<g>
				<path style="fill:#FD6050;" d="M435.404,96.957h-72.517c-5.522,0-10-4.477-10-10s4.478-10,10-10h72.517c5.522,0,10,4.477,10,10
					S440.927,96.957,435.404,96.957z"/>
			</g>
			<g>
				<path style="fill:#FD6050;" d="M435.404,145.343h-72.517c-5.522,0-10-4.477-10-10s4.478-10,10-10h72.517c5.522,0,10,4.477,10,10
					S440.927,145.343,435.404,145.343z"/>
			</g>
		</g>
	</g>
</g>
<g>
</g>
<g>
</g>
<g>
</g>
<g>
</g>
<g>
</g>
<g>
</g>
<g>
</g>
<g>
</g>
<g>
</g>
<g>
</g>
<g>
</g>
<g>
</g>
<g>
</g>
<g>
</g>
<g>
</g>
</svg>
