<?xml version="1.0" encoding="iso-8859-1"?>
<!-- Generator: Adobe Illustrator 26.5.1, SVG Export Plug-In . SVG Version: 6.00 Build 0)  -->
<svg version="1.1" id="Capa_1" xmlns="http://www.w3.org/2000/svg" xmlns:xlink="http://www.w3.org/1999/xlink" x="0px" y="0px"
	 viewBox="0 0 512 512" style="enable-background:new 0 0 512 512;" xml:space="preserve">
<g>
	<g>
		<path style="fill:#67CCD1;" d="M317.147,321.45v86.342L256,371.39l-61.147,36.402V321.45
			c-58.846,7.947-104.214,58.368-104.214,119.392V502h330.723v-61.158C421.361,379.818,375.993,329.398,317.147,321.45z"/>
		<path style="fill:#27A2CC;" d="M173.464,394.873c0-26.018,5.909-50.654,16.452-72.646c-56.426,10.024-99.277,59.31-99.277,118.615
			V502h121.332C187.917,472.901,173.464,435.576,173.464,394.873z"/>
		<path style="fill:#27A2CC;" d="M256,371.39l-43.212-51.037h-1.66c-5.521,0-10.952,0.379-16.276,1.098v86.342L256,371.39z"/>
		<path style="fill:#27A2CC;" d="M317.147,321.45c-5.324-0.719-10.755-1.098-16.276-1.098h-1.66L256,371.39l61.147,36.402V321.45z"
			/>
		<polygon style="fill:#FDBEB9;" points="299.212,320.352 299.212,320.352 299.212,282.437 212.788,282.437 212.788,320.352 
			256,371.39 		"/>
		<path style="fill:#FD7DA0;" d="M292.975,288.777h-2.865c-10.122,5.563-21.744,8.734-34.109,8.734c-0.18,0-0.357-0.001-0.538-0.002
			c-12.088-0.09-23.423-3.255-33.323-8.732h-3.114v26.484c11.389,4.521,23.618,6.932,36.213,7.025
			c0.259,0.002,0.508,0.003,0.761,0.003c13.044,0,25.518-2.485,36.975-7.005V288.777z"/>
		<path style="fill:#FDBEB9;" d="M338.893,151.812V97.041H173.107v54.772c-14.316,0-25.922,11.606-25.922,25.922
			c0,14.316,11.605,25.922,25.922,25.922v6.093c0,45.781,37.112,82.893,82.893,82.893h0c45.781,0,82.893-37.112,82.893-82.893
			v-6.093c14.316,0,25.922-11.605,25.922-25.922C364.815,163.418,353.209,151.812,338.893,151.812z"/>
		<polygon style="fill:#67CCD1;" points="354.773,42.458 256,10 157.227,42.458 173.216,97.041 251.684,117.123 338.784,97.041 		
			"/>
		<polygon style="fill:#6864F7;" points="270.159,413.566 287.696,394.214 254.442,380.453 224.304,394.214 243.957,415.902 
			231.02,499.051 281.644,499.051 270.159,413.566 		"/>
		<path style="fill:#6864F7;" d="M173.216,97.041l0.065,0.22c23.613,29.812,39.508,47.219,82.719,47.219
			c43.105,0,59.169-17.409,82.719-47.22l0.064-0.22H173.216z"/>
		<path style="fill:#FD7DA0;" d="M321.184,157.256c6.48-4.239,12.27-9.067,17.709-14.356V97.041h-0.109l-0.064,0.22
			c-23.551,29.81-39.615,47.22-82.719,47.22c-43.212,0-59.107-17.407-82.719-47.219l-0.065-0.22h-0.109v45.842
			c5.445,5.305,11.225,10.136,17.673,14.362c18.071,11.843,38.795,17.358,65.22,17.358
			C282.383,174.602,303.096,169.09,321.184,157.256z"/>
	</g>
	<g>
		<path style="fill:#052A75;" d="M309.212,310.616v-24.765c23.339-16.368,38.841-43.184,39.647-73.602
			c14.975-4.331,25.955-18.165,25.955-34.515c0-16.339-10.964-30.165-25.922-34.506V98.103l15.478-52.834
			c1.517-5.179-1.349-10.627-6.475-12.312L259.122,0.5c-2.029-0.667-4.216-0.667-6.244,0l-98.773,32.458
			c-5.126,1.685-7.992,7.133-6.475,12.311l15.477,52.833v45.126c-14.958,4.341-25.921,18.167-25.921,34.506
			c0,16.351,10.98,30.185,25.955,34.515c0.807,30.417,16.309,57.234,39.648,73.602v24.765
			c-68.081,4.315-122.15,61.076-122.15,130.226V502c0,5.523,4.477,10,10,10h330.723c5.522,0,10-4.477,10-10v-61.158
			C431.361,371.692,377.293,314.931,309.212,310.616z M204.853,330.534c1.107-0.062,2.218-0.113,3.333-0.142l32.551,38.446
			l-35.884,21.363V330.534z M248.59,432.438c1.896,2.092,4.587,3.285,7.41,3.285c2.823,0,5.515-1.193,7.41-3.285l0.79-0.872
			L270.633,492h-29.266l6.433-60.433L248.59,432.438z M256,410.831l-16.366-18.06L256,383.028l16.366,9.743L256,410.831z
			 M271.263,368.838l32.551-38.446c1.116,0.029,2.226,0.08,3.333,0.142v59.667L271.263,368.838z M256,20.526l86.455,28.41
			l-12.786,43.646c-21.831,27.538-35.68,41.897-73.669,41.897c-37.987,0-51.781-14.361-73.671-41.904l-12.784-43.64L256,20.526z
			 M183.107,209.749v-6.093c0-5.523-4.477-10-10-10c-8.779,0-15.921-7.142-15.921-15.921s7.142-15.922,15.921-15.922
			c5.523,0,10-4.477,10-10v-27.527c18.19,19.14,37.476,30.194,72.893,30.194c35.403,0,54.719-11.041,72.893-30.167v27.5
			c0,5.523,4.478,10,10,10c8.779,0,15.922,7.143,15.922,15.922s-7.143,15.921-15.922,15.921c-5.522,0-10,4.477-10,10v6.093
			c0,40.193-32.699,72.893-72.893,72.893S183.107,249.942,183.107,209.749z M256,302.642c11.697,0,22.894-2.176,33.212-6.139v20.185
			L256,355.914l-33.211-39.227v-20.184C233.107,300.466,244.304,302.642,256,302.642z M100.639,440.842
			c0-51.872,35.934-95.502,84.214-107.324v74.274c0,3.597,1.931,6.916,5.058,8.693c1.533,0.872,3.238,1.307,4.942,1.307
			c1.771,0,3.541-0.47,5.115-1.407l22.133-13.176l7.7,8.497L221.255,492h-70.408v-51.158c0-5.523-4.477-10-10-10s-10,4.477-10,10
			V492h-30.208V440.842z M411.361,492h-30.207v-51.158c0-5.523-4.478-10-10-10s-10,4.477-10,10V492h-70.409l-8.548-80.295
			l7.701-8.498l22.134,13.177c1.575,0.938,3.345,1.407,5.115,1.407c1.704,0,3.409-0.435,4.942-1.307
			c3.126-1.777,5.058-5.097,5.058-8.693v-74.274c48.28,11.823,84.214,55.452,84.214,107.324V492z"/>
		<path style="fill:#052A75;" d="M256,251.44c22.722,0,41.208-18.486,41.208-41.208c0-5.523-4.478-10-10-10s-10,4.477-10,10
			c0,11.694-9.514,21.208-21.208,21.208c-11.694,0-21.208-9.514-21.208-21.208c0-5.523-4.477-10-10-10s-10,4.477-10,10
			C214.793,232.954,233.278,251.44,256,251.44z"/>
		<circle style="fill:#052A75;" cx="256" cy="53.523" r="10"/>
	</g>
</g>
<g>
</g>
<g>
</g>
<g>
</g>
<g>
</g>
<g>
</g>
<g>
</g>
<g>
</g>
<g>
</g>
<g>
</g>
<g>
</g>
<g>
</g>
<g>
</g>
<g>
</g>
<g>
</g>
<g>
</g>
</svg>
