<?xml version="1.0" encoding="iso-8859-1"?>
<!-- Generator: Adobe Illustrator 26.5.3, SVG Export Plug-In . SVG Version: 6.00 Build 0)  -->
<svg version="1.1" id="Capa_1" xmlns="http://www.w3.org/2000/svg" xmlns:xlink="http://www.w3.org/1999/xlink" x="0px" y="0px"
	 viewBox="0 0 510 510" style="enable-background:new 0 0 510 510;" xml:space="preserve">
<g>
	<g>
		<g>
			<g>
				<path style="fill:#FDBEB9;" d="M256.349,148.413v69.003c0,40.523-32.851,73.374-73.374,73.374h0
					c-40.523,0-73.374-32.851-73.374-73.374v-69.003H256.349z"/>
				<path style="fill:#FD7DA0;" d="M101.855,178.573h37.16h0c16.657,0,30.16-13.503,30.16-30.16v0v0
					c0,16.657,13.503,30.16,30.16,30.16h0c0,0,64.761,0,64.761,0v-16.607c0-44.801-36.319-81.12-81.12-81.12h0
					c-44.801,0-81.12,36.319-81.12,81.12V178.573z"/>
			</g>
		</g>
		<path style="fill:#67CCD1;" d="M284.394,255.33H81.557c-25.316,0-45.838,20.522-45.838,45.838V456h294.513V301.168
			C330.232,275.852,309.71,255.33,284.394,255.33z"/>
		<path style="fill:#27A2CC;" d="M155.665,355.665c0-38.247,13.824-73.26,36.736-100.335H81.557
			c-25.316,0-45.838,20.522-45.838,45.838V456h156.683C169.489,428.925,155.665,393.912,155.665,355.665z"/>
		<rect x="10" y="456" style="fill:#27A2CC;" width="345.951" height="44"/>
		<g>
			<path style="fill-rule:evenodd;clip-rule:evenodd;fill:#FDCB50;" d="M487.054,108.09c0-6.006-0.628-11.864-1.809-17.519
				L500,82.052l-26.566-46.014l-14.774,8.53c-8.688-7.786-18.983-13.805-30.325-17.522V10h-53.132v17.046
				c-11.342,3.716-21.637,9.735-30.325,17.522l-14.774-8.53l-26.566,46.014l14.755,8.519c-1.181,5.655-1.809,11.513-1.809,17.519
				s0.628,11.864,1.809,17.519l-14.755,8.519l26.566,46.013l14.774-8.53c8.688,7.786,18.983,13.805,30.325,17.521v17.046h53.132
				v-17.046c11.342-3.716,21.637-9.735,30.325-17.521l14.774,8.53L500,134.128l-14.755-8.519
				C486.426,119.954,487.054,114.096,487.054,108.09z"/>
			
				<ellipse transform="matrix(0.7071 -0.7071 0.7071 0.7071 41.2445 315.7523)" style="fill-rule:evenodd;clip-rule:evenodd;fill:#FFFFFF;" cx="401.769" cy="108.09" rx="37.679" ry="37.679"/>
		</g>
	</g>
	<g>
		<g>
			<g>
				<g>
					<g>
						<path style="fill:#FFFFFF;" d="M232.158,389.828c-2.463,0-4.931-0.904-6.863-2.729c-4.016-3.792-4.197-10.121-0.405-14.136
							l16.332-17.297l-16.332-17.298c-3.792-4.016-3.61-10.345,0.405-14.136c4.017-3.792,10.346-3.61,14.136,0.406l22.815,24.163
							c3.64,3.854,3.64,9.877,0,13.73l-22.815,24.163C237.464,388.776,234.813,389.828,232.158,389.828z"/>
					</g>
					<g>
						<path style="fill:#FFFFFF;" d="M133.793,389.828c-2.656,0-5.306-1.051-7.272-3.135l-22.815-24.163
							c-3.64-3.854-3.64-9.877,0-13.73l22.815-24.163c3.792-4.015,10.12-4.197,14.136-0.406s4.197,10.121,0.405,14.136
							l-16.332,17.298l16.332,17.297c3.792,4.015,3.61,10.344-0.405,14.136C138.725,388.923,136.256,389.828,133.793,389.828z"/>
					</g>
					<g id="XMLID_100_">
						<path style="fill:#FFFFFF;" d="M177.803,393.8c-0.602,0-1.212-0.055-1.824-0.167c-5.432-1.001-9.022-6.215-8.021-11.647
							l10.369-56.266c1-5.432,6.217-9.021,11.646-8.022c5.432,1.001,9.022,6.215,8.021,11.647l-10.369,56.266
							C186.737,390.429,182.532,393.8,177.803,393.8z"/>
					</g>
				</g>
			</g>
		</g>
		<g>
			<path style="fill:#052A75;" d="M355.95,446h-15.718V301.167c0-30.789-25.049-55.838-55.839-55.838h-22.857
				c3.167-8.917,4.813-18.356,4.813-27.914v-29.108c4.436-1.023,7.746-4.989,7.746-9.735v-16.607c0-50.244-40.876-91.12-91.12-91.12
				s-91.121,40.876-91.121,91.12v16.607c0,4.747,3.311,8.713,7.747,9.736v29.107c0,9.558,1.646,18.997,4.813,27.914H81.557
				c-30.789,0-55.838,25.049-55.838,55.838V446H10c-5.522,0-10,4.477-10,10v44c0,5.523,4.478,10,10,10h345.95
				c5.522,0,10-4.477,10-10v-44C365.95,450.477,361.473,446,355.95,446z M111.854,161.965c0-39.216,31.905-71.12,71.121-71.12
				s71.12,31.904,71.12,71.12v6.607h-54.761c-11.116,0-20.16-9.044-20.16-20.16c0-5.523-4.478-10-10-10s-10,4.477-10,10
				c0,11.116-9.044,20.16-20.16,20.16h-27.16V161.965z M119.602,217.416v-28.843h19.413c12.004,0,22.795-5.294,30.16-13.669
				c7.365,8.375,18.156,13.669,30.16,13.669h47.015v28.843c0,9.715-2.235,19.264-6.484,27.914h-113.78
				C121.836,236.68,119.602,227.131,119.602,217.416z M45.719,301.167c0-19.761,16.077-35.838,35.838-35.838h202.837
				c19.762,0,35.839,16.077,35.839,35.838V446H45.719V301.167z M345.95,490H20v-24h325.95V490z"/>
			<path style="fill:#052A75;" d="M505,125.467l-8.744-5.048c0.53-4.087,0.798-8.212,0.798-12.329s-0.268-8.242-0.798-12.33
				L505,90.712c2.297-1.326,3.973-3.51,4.659-6.072c0.687-2.562,0.327-5.292-0.999-7.588l-26.566-46.014
				c-1.326-2.297-3.511-3.973-6.072-4.659c-2.561-0.685-5.291-0.327-7.588,0.999l-8.75,5.052
				c-6.568-5.042-13.711-9.169-21.349-12.336V10c0-5.523-4.478-10-10-10h-53.132c-5.522,0-10,4.477-10,10v10.094
				c-7.638,3.167-14.78,7.293-21.349,12.336l-8.751-5.052c-4.784-2.762-10.899-1.123-13.66,3.66l-26.565,46.014
				c-2.762,4.783-1.123,10.899,3.66,13.66l8.744,5.048c-0.53,4.087-0.798,8.213-0.798,12.33s0.268,8.242,0.798,12.329l-8.744,5.048
				c-4.783,2.761-6.422,8.877-3.66,13.66l26.565,46.014c2.762,4.782,8.875,6.423,13.66,3.66l8.751-5.052
				c6.567,5.042,13.71,9.169,21.349,12.336v10.094c0,5.523,4.478,10,10,10h53.132c5.522,0,10-4.477,10-10v-10.094
				c7.638-3.167,14.78-7.294,21.349-12.336l8.75,5.052c2.296,1.326,5.025,1.685,7.588,0.999c2.562-0.687,4.746-2.362,6.072-4.659
				l26.566-46.014c1.326-2.297,1.686-5.026,0.999-7.588C508.973,128.978,507.297,126.793,505,125.467z M475.456,92.614
				c1.061,5.078,1.598,10.285,1.598,15.476c0,5.191-0.537,10.398-1.598,15.476c-0.883,4.228,1.049,8.544,4.789,10.704l6.095,3.519
				l-16.566,28.693l-6.113-3.53c-3.743-2.161-8.454-1.673-11.674,1.213c-7.815,7.004-16.82,12.207-26.765,15.465
				c-4.108,1.346-6.887,5.18-6.887,9.503v7.046h-33.132v-7.046c0-4.323-2.778-8.157-6.887-9.503
				c-9.945-3.258-18.95-8.462-26.765-15.465c-3.22-2.887-7.93-3.375-11.674-1.213l-6.114,3.53l-16.565-28.693l6.095-3.519
				c3.74-2.159,5.672-6.476,4.789-10.704c-1.061-5.078-1.598-10.285-1.598-15.476c0-5.191,0.537-10.398,1.598-15.476
				c0.883-4.228-1.049-8.544-4.789-10.704l-6.095-3.519l16.565-28.693l6.114,3.53c3.743,2.162,8.454,1.672,11.674-1.213
				c7.815-7.004,16.82-12.208,26.765-15.465c4.108-1.346,6.887-5.18,6.887-9.503V20h33.132v7.046c0,4.323,2.778,8.157,6.887,9.503
				c9.944,3.258,18.949,8.461,26.765,15.465c3.22,2.888,7.931,3.375,11.674,1.213l6.113-3.53l16.566,28.693l-6.095,3.519
				C476.505,84.069,474.573,88.386,475.456,92.614z"/>
		</g>
	</g>
</g>
<g>
</g>
<g>
</g>
<g>
</g>
<g>
</g>
<g>
</g>
<g>
</g>
<g>
</g>
<g>
</g>
<g>
</g>
<g>
</g>
<g>
</g>
<g>
</g>
<g>
</g>
<g>
</g>
<g>
</g>
</svg>
