<?xml version="1.0" encoding="iso-8859-1"?>
<!-- Generator: Adobe Illustrator 27.0.0, SVG Export Plug-In . SVG Version: 6.00 Build 0)  -->
<svg version="1.1" id="Capa_1" xmlns="http://www.w3.org/2000/svg" xmlns:xlink="http://www.w3.org/1999/xlink" x="0px" y="0px"
	 viewBox="0 0 512 512" style="enable-background:new 0 0 512 512;" xml:space="preserve">
<g>
	<g>
		<path style="fill:#FFFFFF;" d="M302.781,333.558c69.376,0,125.617,56.241,125.617,125.617V502H83.602v-42.824
			c0-69.376,56.241-125.617,125.617-125.617H302.781z"/>
		<path style="fill:#D2DCFD;" d="M160.77,391.681c0-18.183,3.182-35.621,9.007-51.797c-50.052,16.541-86.174,63.695-86.174,119.292
			V502H207.82C178.824,474.178,160.77,435.039,160.77,391.681z"/>
		<path style="fill:#6864F7;" d="M301.687,10h-48.225c-19.98,0-37.162,11.932-44.842,29.053h-10.002h0
			c-45.877,0-79.833,42.671-69.531,87.377l13.468,58.442h226.89l16.033-69.575C397.893,61.422,356.973,10,301.687,10z"/>
		<polygon style="fill:#B55348;" points="301.051,284.858 301.051,333.558 256,386.768 210.95,333.558 210.95,282.009 		"/>
		<path style="fill:#D46B5C;" d="M342.421,157.847v-29.148c0-25.032-24.422-42.78-48.23-35.051L256,106.045l-38.19-12.398
			c-23.809-7.729-48.23,10.019-48.23,35.051v29.148c-14.925,0-27.025,12.099-27.025,27.025c0,14.925,12.099,27.025,27.025,27.025
			v6.353c0,47.729,38.692,86.42,86.42,86.42h0c47.729,0,86.42-38.692,86.42-86.42v-6.353c14.925,0,27.025-12.099,27.025-27.025
			C369.445,169.946,357.346,157.847,342.421,157.847z"/>
		<path style="fill:#FD6050;" d="M268.09,428.939h-24.18c-5.523,0-10-4.477-10-10v-24.18c0-5.523,4.477-10,10-10h24.18
			c5.523,0,10,4.477,10,10v24.18C278.09,424.462,273.613,428.939,268.09,428.939z"/>
		<path style="fill:#DB4B86;" d="M278.09,421.27l38.064,8.1c6.247,1.329,12.131-3.434,12.131-9.821V394.15
			c0-6.387-5.884-11.15-12.131-9.821l-38.064,8.1V421.27z"/>
		<path style="fill:#DB4B86;" d="M233.91,421.27l-38.064,8.1c-6.247,1.329-12.131-3.434-12.131-9.821V394.15
			c0-6.387,5.884-11.15,12.131-9.821l38.064,8.1V421.27z"/>
	</g>
	<g>
		<path style="fill:#B55348;" d="M256,270.325c-13.83,0-26.728-7.442-33.662-19.422c-2.766-4.78-1.134-10.897,3.646-13.664
			c4.78-2.766,10.897-1.133,13.664,3.646c3.37,5.823,9.635,9.44,16.351,9.44c6.715,0,12.979-3.616,16.35-9.438
			c2.767-4.779,8.885-6.413,13.664-3.644c4.78,2.767,6.412,8.885,3.645,13.665C282.725,262.885,269.827,270.325,256,270.325z"/>
		<path style="fill:#052A75;" d="M311.051,323.818v-26.449c24.407-17.033,40.601-45.058,41.343-76.837
			c15.202-4.257,26.478-17.999,27.025-34.411l15.804-68.579c6.606-28.664-0.11-58.305-18.427-81.323
			C358.479,13.201,331.103,0,301.687,0h-48.225c-21.904,0-41.05,11.98-51.269,29.722c-1.111-0.426-2.313-0.669-3.575-0.669
			c-24.932,0-48.134,11.188-63.658,30.697c-15.524,19.508-21.217,44.63-15.618,68.925l13.238,57.448
			c0.549,16.411,11.823,30.152,27.025,34.409c0.741,31.78,16.936,59.805,41.343,76.838v26.448
			c-70.943,4.289-127.348,63.355-127.348,135.358V502c0,5.523,4.477,10,10,10h344.795c5.522,0,10-4.477,10-10v-42.824
			C438.398,387.174,381.993,328.108,311.051,323.818z M321.559,374.381c-2.448-0.409-4.982-0.367-7.485,0.167l-31.313,6.664
			c-1.553-1.68-3.379-3.098-5.423-4.169l28.319-33.447c7.115,0.175,14.072,0.998,20.815,2.408L321.559,374.381z M288.09,400.532
			l30.195-6.382l-0.05,25.439l-30.146-6.415V400.532z M243.91,418.939v-24.18h24.18l0.013,24.179c0,0-0.004,0-0.013,0H243.91z
			 M193.715,419.549l0.049-25.439l30.146,6.415v12.642L193.715,419.549z M229.241,381.212l-31.314-6.664
			c-2.503-0.532-5.037-0.574-7.485-0.165l-4.913-28.379c6.744-1.41,13.7-2.234,20.816-2.408l28.319,33.447
			C232.62,378.113,230.793,379.531,229.241,381.212z M253.462,20h48.225c23.287,0,44.959,10.451,59.46,28.673
			c14.5,18.221,19.816,41.686,14.588,64.378l-9.94,43.133c-3.885-3.171-8.42-5.574-13.375-6.965v-20.52
			c0-15.168-7.037-28.983-19.308-37.9c-12.271-8.917-27.585-11.345-42.011-6.662L256,95.532l-35.102-11.396
			c-2.175-0.706-4.37-1.23-6.572-1.615V59.136C214.326,37.556,231.883,20,253.462,20z M150.611,72.203
			c10.992-13.813,27.089-22.093,44.576-23.054c-0.555,3.249-0.86,6.582-0.86,9.987v24.261c-5.45,1.47-10.675,3.94-15.438,7.401
			c-12.271,8.917-19.308,22.732-19.308,37.9v20.52c-4.955,1.392-9.489,3.794-13.374,6.965l-7.374-32
			C134.61,105.862,138.903,86.916,150.611,72.203z M179.58,218.249v-6.353c0-5.523-4.477-10-10-10
			c-9.388,0-17.025-7.637-17.025-17.025c0-9.387,7.637-17.024,17.025-17.024c5.523,0,10-4.477,10-10v-29.148
			c0-8.693,4.033-16.611,11.066-21.722c4.683-3.403,10.137-5.157,15.702-5.157c2.792,0,5.613,0.442,8.375,1.339l38.19,12.398
			c2.007,0.651,4.168,0.651,6.176,0l38.189-12.398c8.269-2.683,17.044-1.292,24.077,3.818c7.032,5.111,11.065,13.028,11.065,21.722
			v29.148c0,5.523,4.478,10,10,10c9.388,0,17.025,7.637,17.025,17.024c0,9.388-7.638,17.025-17.025,17.025c-5.522,0-10,4.477-10,10
			v6.353c0,42.138-34.282,76.42-76.42,76.42C213.862,294.669,179.58,260.387,179.58,218.249z M256,314.669
			c12.359,0,24.182-2.339,35.051-6.595v21.82L256,371.292l-35.05-41.398v-21.82C231.819,312.33,243.641,314.669,256,314.669z
			 M93.602,459.176c0-48.571,30.109-90.237,72.641-107.329l7.472,43.163v24.54c0,6.076,2.708,11.753,7.431,15.576
			c3.611,2.924,8.038,4.47,12.579,4.47c1.397,0,2.805-0.146,4.203-0.444l31.314-6.664c3.656,3.956,8.871,6.452,14.669,6.452H246V492
			h-93.445v-32.824c0-5.523-4.477-10-10-10s-10,4.477-10,10V492H93.602V459.176z M418.398,492h-38.952v-32.824
			c0-5.523-4.478-10-10-10s-10,4.477-10,10V492H266v-53.061h2.09c5.799,0,11.013-2.496,14.67-6.452l31.314,6.664
			c1.398,0.298,2.805,0.444,4.202,0.444c4.54,0,8.968-1.546,12.579-4.47c4.723-3.823,7.431-9.5,7.431-15.576V395.01l7.472-43.163
			c42.531,17.092,72.64,58.758,72.64,107.329V492z"/>
	</g>
</g>
<g>
</g>
<g>
</g>
<g>
</g>
<g>
</g>
<g>
</g>
<g>
</g>
<g>
</g>
<g>
</g>
<g>
</g>
<g>
</g>
<g>
</g>
<g>
</g>
<g>
</g>
<g>
</g>
<g>
</g>
</svg>
