<?xml version="1.0" encoding="iso-8859-1"?>
<!-- Generator: Adobe Illustrator 27.0.0, SVG Export Plug-In . SVG Version: 6.00 Build 0)  -->
<svg version="1.1" id="Capa_1" xmlns="http://www.w3.org/2000/svg" xmlns:xlink="http://www.w3.org/1999/xlink" x="0px" y="0px"
	 viewBox="0 0 512.427 512.427" style="enable-background:new 0 0 512.427 512.427;" xml:space="preserve">
<g>
	<g>
		<polygon style="fill:#FFFFFF;" points="316.08,149.352 316.08,308.153 40.386,308.153 40.386,148.785 177.781,62.47 		"/>
		<polygon style="fill:#D2DCFD;" points="270.933,67.066 270.933,23.043 316.079,23.043 316.079,95.828 		"/>
		<rect x="136.996" y="216.551" style="fill:#D46B5C;" width="81.57" height="91.602"/>
		<circle style="fill:#93B2F4;" cx="180.183" cy="147.934" r="18.823"/>
		<polygon style="fill:#FD6050;" points="177.781,10 10.213,115.269 10.213,167.74 177.781,62.47 346.251,168.307 346.251,115.837 
					"/>
		<path style="fill:#D2DCFD;" d="M316.08,201.225l-2.793,1.233c-28.859,12.737-48.616,39.004-52.847,70.264
			c-1.639,12.107-0.824,24.108,2.197,35.432h53.443V201.225z"/>
		<path style="fill:#D2DCFD;" d="M502.213,162.799l-172.776,76.253c-34.14,15.068-40.341,60.87-11.435,84.472l63.565,51.903
			c28.905,23.602,72.543,8.369,80.48-28.095L502.213,162.799z"/>
		<path style="fill:#FD6050;" d="M194.104,493.975l-0.235-0.235c-11.293-11.293-11.293-29.603,0-40.897l88.223-88.223l41.131,41.131
			l-88.223,88.223C223.708,505.269,205.397,505.269,194.104,493.975z"/>
	</g>
	<g>
		<path style="fill:#052A75;" d="M180.183,119.111c-15.893,0-28.822,12.93-28.822,28.822s12.93,28.822,28.822,28.822
			c15.893,0,28.823-12.93,28.823-28.822S196.076,119.111,180.183,119.111z M180.183,156.756c-4.865,0-8.822-3.958-8.822-8.822
			s3.958-8.822,8.822-8.822s8.823,3.958,8.823,8.822S185.048,156.756,180.183,156.756z"/>
		<path style="fill:#052A75;" d="M508.538,155.053c-2.914-2.379-6.919-2.92-10.362-1.402l-172.096,75.954v-62.161l14.853,9.331
			c1.623,1.02,3.469,1.532,5.32,1.532c1.663,0,3.329-0.414,4.837-1.248c3.186-1.761,5.163-5.112,5.163-8.752v-52.47
			c0-3.439-1.768-6.638-4.68-8.468l-25.492-16.014V23.043c0-5.522-4.477-10-10-10h-45.146c-5.523,0-10,4.478-10,10v27.386
			L183.1,1.532c-3.253-2.043-7.387-2.043-10.64,0L4.893,106.802c-2.913,1.83-4.68,5.028-4.68,8.468v52.47
			c0,3.64,1.977,6.991,5.163,8.752c3.185,1.761,7.075,1.651,10.157-0.284l14.853-9.331v141.277c0,5.522,4.477,10,10,10h259.325
			c3.263,4.854,7.27,9.281,11.967,13.117l16.93,13.824l-25.95,25.95l-13.495-13.495c-1.875-1.875-4.419-2.929-7.071-2.929
			s-5.196,1.054-7.071,2.929l-88.222,88.223c-7.351,7.351-11.399,17.124-11.399,27.52s4.048,20.169,11.384,27.505l0.234,0.235
			c0.005,0.005,0.01,0.01,0.015,0.015c7.587,7.587,17.553,11.38,27.519,11.38c9.966,0,19.933-3.793,27.52-11.38l88.223-88.223
			c3.905-3.905,3.905-10.237,0-14.143L316.8,385.187l27.378-27.378l31.064,25.365c10.929,8.923,24.238,13.571,37.811,13.571
			c6.658,0,13.379-1.118,19.914-3.399c19.855-6.932,34.379-23.337,38.851-43.886l40.167-184.534
			C512.785,161.248,511.453,157.434,508.538,155.053z M227.93,486.904c-7.373,7.373-19.365,7.375-26.744,0.012l-0.246-0.247
			c-3.573-3.573-5.541-8.323-5.541-13.377s1.968-9.804,5.542-13.377l81.151-81.151l26.989,26.989L227.93,486.904z M280.933,33.043
			h25.146V78.79l-25.146-15.797V33.043z M208.566,298.153h-61.57v-71.602h61.57V298.153z M306.079,243.452
			c-8.542,8.968-14.179,20.502-15.911,33.295c-0.986,7.286-0.641,14.516,0.917,21.407h-62.52v-81.602c0-5.522-4.477-10-10-10h-81.57
			c-5.523,0-10,4.478-10,10v81.602h-76.61V154.312L177.781,74.28l128.299,80.599V243.452z M183.1,54.003
			c-1.626-1.021-3.473-1.532-5.319-1.532s-3.693,0.511-5.319,1.532L20.213,149.647v-28.851L177.781,21.81l158.471,99.555v28.851
			L183.1,54.003z M452.276,345.206c-2.982,13.699-12.665,24.636-25.901,29.257c-13.237,4.621-27.623,2.087-38.483-6.781
			l-29.499-24.087l46.029-46.03c3.905-3.905,3.905-10.237,0-14.143c-3.905-3.904-10.237-3.904-14.142,0l-47.458,47.458
			l-18.495-15.102c-10.86-8.867-16.22-22.456-14.339-36.349c1.881-13.894,10.661-25.567,23.488-31.229l154.784-68.313
			L452.276,345.206z"/>
	</g>
</g>
<g>
</g>
<g>
</g>
<g>
</g>
<g>
</g>
<g>
</g>
<g>
</g>
<g>
</g>
<g>
</g>
<g>
</g>
<g>
</g>
<g>
</g>
<g>
</g>
<g>
</g>
<g>
</g>
<g>
</g>
</svg>
