<?xml version="1.0" encoding="iso-8859-1"?>
<!-- Generator: Adobe Illustrator 26.5.1, SVG Export Plug-In . SVG Version: 6.00 Build 0)  -->
<svg version="1.1" id="Capa_1" xmlns="http://www.w3.org/2000/svg" xmlns:xlink="http://www.w3.org/1999/xlink" x="0px" y="0px"
	 viewBox="0 0 510 510" style="enable-background:new 0 0 510 510;" xml:space="preserve">
<g>
	<g>
		<g>
			<path style="fill-rule:evenodd;clip-rule:evenodd;fill:#FDCB50;" d="M120.5,10c-33.222,57.542-17.335,141.24,40,141.24
				c21.5,0,169,0,190,0c54.5-31.465,38-108.008-17.5-108.008c0-18.278-14.957-33.233-33.233-33.233H120.5z"/>
			<path style="fill-rule:evenodd;clip-rule:evenodd;fill:#FDBEB9;" d="M350.501,151.24v53.509c0,52.25-42.75,95-95,95l0,0
				c-52.25,0-95-42.75-95-95V151.24c0-12.426,10.074-22.5,22.5-22.5h65c21.999,0,40-18,40-40
				C322.376,88.74,350.501,116.865,350.501,151.24z"/>
			<path style="fill-rule:evenodd;clip-rule:evenodd;fill:#FD7DA0;" d="M160.5,168.74v-17.5c0-12.426,10.074-22.5,22.5-22.5h65
				c21.999,0,40-18,40-40c14.64,0,28.144,5.104,38.827,13.617c-6.513,37.573-39.466,66.383-78.827,66.383H160.5z"/>
		</g>
		<g>
			<path style="fill-rule:evenodd;clip-rule:evenodd;fill:#BC9AF4;" d="M255,310L255,310c88,0,160,72,160,160v30h-86.842
				L255,470.251L182.844,500H95v-30C95,382,167,310,255,310z"/>
			<path style="fill-rule:evenodd;clip-rule:evenodd;fill:#6864F7;" d="M255,310L255,310c30.753,0,59.546,8.802,84.001,23.998
				v18.132c8.477,8.185,13.75,19.666,13.75,32.371v56c0,16.805-9.226,31.467-22.887,39.195L328.158,500h-45.654L255,470.251
				L227.496,500h-44.652l-1.706-20.303c-13.66-7.728-22.887-22.391-22.887-39.195v-56c0-12.705,5.274-24.185,13.75-32.37v-18.759
				C196.238,318.556,224.668,310,255,310z"/>
			<path style="fill-rule:evenodd;clip-rule:evenodd;fill:#FD6050;" d="M255.501,282.001L255.501,282.001
				c21.175,0,38.5,17.325,38.5,38.5v33.5c0,21.175-17.325,38.5-38.5,38.5h0c-21.175,0-38.5-17.325-38.5-38.5v-33.5
				C217.001,299.326,234.326,282.001,255.501,282.001z"/>
			<rect x="203.251" y="384.501" style="fill-rule:evenodd;clip-rule:evenodd;fill:#FDCB50;" width="104.5" height="56"/>
			<polygon style="fill-rule:evenodd;clip-rule:evenodd;fill:#D2DCFD;" points="222.496,440.501 227.496,500 282.503,500 
				287.504,440.501 			"/>
		</g>
	</g>
	<g>
		<path style="fill:#052A75;" d="M225.501,210.87c5.522,0,10-4.477,10-10v-10.001c0-5.523-4.478-10-10-10s-10,4.477-10,10v10.001
			C215.501,206.393,219.979,210.87,225.501,210.87z"/>
		<path style="fill:#052A75;" d="M285.5,210.87c5.522,0,10-4.477,10-10v-10.001c0-5.523-4.478-10-10-10s-10,4.477-10,10v10.001
			C275.5,206.393,279.978,210.87,285.5,210.87z"/>
		<path style="fill:#052A75;" d="M238.906,243.976c5.039,2.908,10.776,4.446,16.594,4.446s11.556-1.538,16.595-4.446
			c4.782-2.761,6.422-8.877,3.66-13.66c-2.76-4.783-8.874-6.421-13.66-3.661c-4.002,2.312-9.183,2.313-13.188,0
			c-4.785-2.762-10.9-1.122-13.66,3.661C232.485,235.099,234.124,241.214,238.906,243.976z"/>
		<path style="fill:#052A75;" d="M301.987,306.655c-0.679-2.276-1.521-4.482-2.512-6.605c36.91-17.073,61.026-54.101,61.026-95.3
			v-47.96c30.501-20.425,37.809-53.566,31.153-78.401c-6.556-24.466-25.578-41.211-49.679-44.545
			C337.676,14.504,320.384,0,299.768,0H120.5c-3.572,0-6.874,1.906-8.66,5c-11.107,19.237-17.467,41.479-18.392,64.321
			c-0.905,22.348,3.705,43.506,12.983,59.575c10.238,17.734,25.653,28.693,44.068,31.578v44.276
			c0,41.113,24.14,78.212,61.027,95.296c-0.947,2.028-1.757,4.131-2.42,6.299c-34.328,9.703-65.322,30.441-87.62,58.715
			C97.617,395.327,85,431.615,85,470v30c0,5.523,4.478,10,10,10h319.999c5.522,0,10-4.477,10-10v-30
			C424.999,394.299,374.599,327.644,301.987,306.655z M237.193,490l-3.32-39.499h43.255L273.809,490H237.193z M297.751,394.501v36
			H213.25v-36H297.751z M235.772,374.501c-5.593-5.385-8.772-12.77-8.772-20.5v-33.5c0-15.715,12.785-28.5,28.5-28.5
			s28.5,12.785,28.5,28.5v33.5c0,7.702-3.186,15.118-8.772,20.5H235.772z M123.752,118.896
			c-15.021-26.019-13.72-66.754,2.691-98.896h173.324c12.811,0,23.233,10.422,23.233,23.233c0,5.523,4.478,10,10,10
			c23.009,0,35.405,15.669,39.334,30.333c4.058,15.144,0.703,34.695-14.163,49.419C350.058,101.816,321.674,78.74,288,78.74
			c-5.522,0-10,4.477-10,10c0,16.542-13.458,30-30,30h-65c-14.156,0-26.227,9.097-30.674,21.753
			C137.615,137.699,128.769,127.586,123.752,118.896z M170.5,204.75v-53.509c0-6.893,5.607-12.5,12.5-12.5h65
			c23.883,0,43.909-16.832,48.838-39.256c24.726,4.208,43.617,25.767,43.662,51.664c-0.001,0.082-0.001,0.165,0,0.247v53.355
			c0,34.834-21.316,65.992-53.496,78.905c-8.481-7.262-19.489-11.654-31.504-11.654c-12.014,0-23.022,4.392-31.503,11.653
			C191.839,270.736,170.5,239.512,170.5,204.75z M105,470c0-64.675,41.404-121.559,102-142.073v26.075
			c0,7.164,1.594,14.148,4.573,20.5h-8.323c-5.522,0-10,4.477-10,10v56c0,5.523,4.478,10,10,10h10.552L217.122,490H105V470z
			 M404.999,490H293.88l3.319-39.499h10.552c5.522,0,10-4.477,10-10v-56c0-5.523-4.478-10-10-10h-8.335
			c2.985-6.363,4.584-13.356,4.584-20.5v-25.728c59.992,20.82,100.999,77.596,100.999,141.726V490z"/>
	</g>
</g>
<g>
</g>
<g>
</g>
<g>
</g>
<g>
</g>
<g>
</g>
<g>
</g>
<g>
</g>
<g>
</g>
<g>
</g>
<g>
</g>
<g>
</g>
<g>
</g>
<g>
</g>
<g>
</g>
<g>
</g>
</svg>
