<svg enable-background="new 0 0 512 512" viewBox="0 0 512 512" xmlns="http://www.w3.org/2000/svg"><g id="_x32_2_Rooftiles"><g><path d="m112.774 77.605v96.354c-23.855-31.807-71.566-31.807-95.484 0v-96.354c23.917-31.807 71.628-31.807 95.484 0z" fill="#85dafa"/><path d="m112.774 172.018v96.354c-23.855-31.807-71.566-31.807-95.484 0v-96.354c23.917-31.807 71.628-31.807 95.484 0z" fill="#fff"/><path d="m112.774 267.565v96.354c-23.855-31.807-71.566-31.807-95.484 0v-96.354c23.917-31.807 71.628-31.807 95.484 0z" fill="#c2d5ea"/><path d="m112.774 363.111v96.354c-23.855-31.807-71.566-31.807-95.484 0v-96.354c23.917-31.807 71.628-31.807 95.484 0z" fill="#fff"/><path d="m208.258 76.472v96.354c-23.855-31.807-71.566-31.807-95.484 0v-96.354c23.918-31.807 71.629-31.807 95.484 0z" fill="#fff"/><path d="m208.258 173.152v96.354c-23.855-31.807-71.566-31.807-95.484 0v-96.354c23.918-31.808 71.629-31.808 95.484 0z" fill="#85dafa"/><path d="m208.258 267.565v96.354c-23.855-31.807-71.566-31.807-95.484 0v-96.354c23.918-31.807 71.629-31.807 95.484 0z" fill="#fff"/><path d="m208.258 363.111v96.354c-23.855-31.807-71.566-31.807-95.484 0v-96.354c23.918-31.807 71.629-31.807 95.484 0z" fill="#c2d5ea"/><path d="m303.741 80.41v96.354c-23.855-31.807-71.566-31.807-95.484 0v-96.354c23.917-31.807 71.628-31.807 95.484 0z" fill="#c2d5ea"/><path d="m303.742 172.018v96.354c-23.855-31.807-71.566-31.807-95.484 0v-96.354c23.918-31.807 71.629-31.807 95.484 0z" fill="#fff"/><path d="m303.742 268.698v96.354c-23.855-31.807-71.566-31.807-95.484 0v-96.354c23.918-31.807 71.629-31.807 95.484 0z" fill="#85dafa"/><path d="m303.742 363.111v96.354c-23.855-31.807-71.566-31.807-95.484 0v-96.354c23.918-31.807 71.629-31.807 95.484 0z" fill="#fff"/><path d="m399.227 76.472v96.354c-23.855-31.807-71.566-31.807-95.484 0v-96.354c23.917-31.807 71.628-31.807 95.484 0z" fill="#fff"/><path d="m399.227 172.018v96.354c-23.855-31.807-71.566-31.807-95.484 0v-96.354c23.917-31.807 71.628-31.807 95.484 0z" fill="#c2d5ea"/><path d="m399.227 267.565v96.354c-23.855-31.807-71.566-31.807-95.484 0v-96.354c23.917-31.807 71.628-31.807 95.484 0z" fill="#fff"/><path d="m399.227 363.111v96.354c-23.855-31.807-71.566-31.807-95.484 0v-96.354c23.917-31.807 71.628-31.807 95.484 0z" fill="#85dafa"/><path d="m494.711 76.472v96.354c-23.855-31.807-71.566-31.807-95.484 0v-96.354c23.918-31.807 71.629-31.807 95.484 0z" fill="#85dafa"/><path d="m494.711 172.018v96.354c-23.855-31.807-71.566-31.807-95.484 0v-96.354c23.918-31.807 71.629-31.807 95.484 0z" fill="#fff"/><path d="m494.711 267.565v96.354c-23.855-31.807-71.566-31.807-95.484 0v-96.354c23.918-31.807 71.629-31.807 95.484 0z" fill="#c2d5ea"/><path d="m494.711 363.111v96.354c-23.855-31.807-71.566-31.807-95.484 0v-96.354c23.918-31.807 71.629-31.807 95.484 0z" fill="#fff"/><g fill="#404f7c"><path d="m14.849 466.771c3.136 1.06 6.602-.023 8.595-2.677 9.934-13.205 25.098-20.777 41.611-20.777h.034c16.495.008 31.629 7.58 41.525 20.77 2.019 2.696 5.517 3.725 8.595 2.685 3.143-1.045 5.264-3.986 5.264-7.302 0-72.532 0-310.454 0-382.995 0-1.669-.541-3.286-1.542-4.617-12.825-17.108-32.448-26.929-53.83-26.937-.019-.008-.03-.008-.045-.008-21.402 0-41.051 9.821-53.921 26.936-1.004 1.331-1.545 2.955-1.545 4.625v382.995c-.001 3.316 2.119 6.257 5.259 7.302zm10.141-121.944v-73.654c20.82-25.243 59.267-25.306 80.083-.008v73.644c-23.644-17.588-56.162-17.77-80.083.018zm80.082-95.566c-23.644-17.588-56.161-17.77-80.083.018v-73.654c20.82-25.243 59.267-25.306 80.083-.008zm-39.971 178.655c-.019 0-.03 0-.045 0-14.731 0-28.636 4.647-40.066 13.13v-74.326c20.82-25.243 59.267-25.306 80.083-.008v74.311c-11.401-8.46-25.271-13.1-39.972-13.107zm-.046-367.602c.011 0 .023 0 .034.008 15.66.008 30.095 6.836 39.983 18.815v74.583c-23.45-17.447-55.971-17.917-80.083.018v-74.594c9.923-11.994 24.387-18.83 40.066-18.83z"/><path d="m371.968 64.48c3.884 1.669 8.426-.113 10.118-4.016 1.688-3.91-.113-8.437-4.019-10.122-25.721-11.099-55.022-5.033-74.331 14.46-12.549-12.691-29.446-19.875-47.668-19.882-.015-.008-.03-.008-.045-.008-18.249 0-35.189 7.196-47.775 19.915-19.253-19.494-48.572-25.54-74.378-14.411-3.903 1.684-5.704 6.219-4.016 10.122 1.684 3.903 6.2 5.685 10.122 4.016 21.353-9.234 45.901-3.211 60.55 14.604v75.206c-16.615-12.363-38.254-16.431-59.148-10.325-4.08 1.196-6.418 5.474-5.223 9.558 1.188 4.083 5.478 6.407 9.554 5.226 20.374-5.992 41.619.704 54.846 16.908v73.461c-16.63-12.404-38.254-16.564-59.178-10.44-4.08 1.196-6.418 5.474-5.223 9.558 1.188 4.083 5.478 6.399 9.554 5.226 20.322-5.978 41.581.572 54.816 16.672v75.199c-16.623-12.355-38.254-16.438-59.148-10.325-4.08 1.196-6.418 5.474-5.223 9.558 1.188 4.083 5.478 6.407 9.554 5.226 20.386-5.987 41.584.701 54.816 16.869v74.234c-16.615-12.363-38.254-16.438-59.148-10.325-4.08 1.196-6.418 5.474-5.223 9.558 1.188 4.083 5.478 6.399 9.554 5.226 21.12-6.204 43.262 1.105 56.346 18.627.052.07.14.094.195.162 3.266 4.13 9.216 3.783 12.161-.125 9.934-13.205 25.098-20.777 41.611-20.777h.034c16.427.008 31.499 7.526 41.398 20.615.01.014.023.025.034.04.031.04.066.074.097.115.024.032.065.043.09.075 3.402 4.352 9.685 3.55 12.37-.295 13.21-17.326 35.233-24.606 56.201-18.512 4.087 1.188 8.355-1.166 9.546-5.241 1.184-4.083-1.162-8.355-5.245-9.543-20.824-6.057-42.439-1.936-59.102 10.438v-74.296c13.327-16.113 34.523-22.807 54.801-16.921 4.087 1.196 8.355-1.166 9.546-5.241 1.184-4.083-1.162-8.355-5.245-9.543-20.824-6.065-42.439-1.929-59.102 10.438v-74.221c13.326-16.119 34.509-22.807 54.801-16.913 4.087 1.196 8.355-1.166 9.546-5.241 1.184-4.083-1.162-8.355-5.245-9.543-20.824-6.065-42.446-1.936-59.102 10.431v-74.286c13.317-16.123 34.521-22.818 54.801-16.923 4.087 1.203 8.355-1.166 9.546-5.241.314-1.085.348-2.172.198-3.222-.099-3.248-2.154-6.214-5.443-7.171-20.842-6.068-42.437-1.87-59.102 10.527v-74.509c14.715-17.785 39.229-23.85 60.526-14.652zm-156.011 111.145c20.794-25.213 59.212-25.324 80.053-.047v73.66c-23.775-17.662-56.273-17.638-80.053.04zm0 95.547c20.794-25.212 59.212-25.324 80.053-.047v73.66c-23.775-17.662-56.273-17.638-80.053.04zm40.066-210.858c.011 0 .023 0 .034.008 15.647.008 30.066 6.823 39.953 18.778v74.596c-23.729-17.633-56.225-17.681-80.053.042v-74.594c9.926-11.994 24.387-18.83 40.066-18.83zm.045 367.602c-.015 0-.03 0-.045 0-14.728 0-28.636 4.647-40.066 13.13v-74.326c20.794-25.212 59.212-25.324 80.053-.047v74.337c-11.395-8.453-25.251-13.087-39.942-13.094z"/><path d="m447.031 44.921c-.011-.008-.026-.008-.041-.008-21.398 0-41.047 9.821-53.917 26.936-1.004 1.331-1.545 2.955-1.545 4.625v382.995c0 3.316 2.117 6.257 5.26 7.302 3.136 1.06 6.606-.023 8.595-2.677 9.934-13.205 25.094-20.777 41.607-20.777h.034c16.495.008 31.632 7.58 41.529 20.77 1.481 1.978 3.782 3.083 6.159 3.083.812 0 1.636-.128 2.436-.399 3.143-1.045 5.264-3.986 5.264-7.302 0-127.488 0-255.338 0-382.995 0-1.669-.541-3.286-1.542-4.617-12.829-17.107-32.452-26.928-53.839-26.936zm39.979 204.342c-23.548-17.516-56.068-17.843-80.083.016v-73.655c20.821-25.245 59.267-25.304 80.083-.007zm-80.082 95.564v-73.655c20.821-25.245 59.267-25.304 80.083-.007v73.646c-23.549-17.517-56.068-17.843-80.083.016zm40.062-284.513c.011 0 .023 0 .034.008 15.66.008 30.098 6.836 39.987 18.815v74.585c-23.353-17.375-55.876-17.99-80.083.016v-74.594c9.922-12.002 24.387-18.83 40.062-18.83zm.041 367.602c-.011 0-.026 0-.041 0-14.731 0-28.632 4.647-40.062 13.13v-74.326c20.821-25.245 59.267-25.304 80.083-.007v74.318c-11.404-8.468-25.275-13.108-39.98-13.115z"/></g></g></g><g id="Layer_1"/></svg>