<?xml version="1.0" encoding="iso-8859-1"?>
<!-- Generator: Adobe Illustrator 26.5.1, SVG Export Plug-In . SVG Version: 6.00 Build 0)  -->
<svg version="1.1" id="Capa_1" xmlns="http://www.w3.org/2000/svg" xmlns:xlink="http://www.w3.org/1999/xlink" x="0px" y="0px"
	 viewBox="0 0 510 510" style="enable-background:new 0 0 510 510;" xml:space="preserve">
<g>
	<g>
		<path style="fill-rule:evenodd;clip-rule:evenodd;fill:#BC9AF4;" d="M328.531,53.669c-12.575-7.778-26.472-13.625-41.279-17.116
			L284.5,10h-59l-2.752,26.553c-14.807,3.491-28.703,9.339-41.279,17.117l-20.737-16.843l-41.719,41.719l16.837,20.73
			c-7.781,12.576-13.624,26.477-17.116,41.286l-26.548,2.751v59l26.553,2.752c3.492,14.807,9.339,28.703,17.117,41.279
			l-16.843,20.737l41.719,41.719l20.73-16.837c12.576,7.781,26.477,13.624,41.286,17.116l2.751,26.549h59l2.752-26.554
			c14.807-3.491,28.703-9.339,41.279-17.116l20.737,16.843l41.719-41.719l-16.837-20.73c7.78-12.576,13.624-26.477,17.116-41.286
			l26.548-2.751v-59l-26.554-2.752c-3.492-14.807-9.338-28.703-17.116-41.279l16.842-20.737l-41.719-41.719L328.531,53.669z"/>
		<path style="fill-rule:evenodd;clip-rule:evenodd;fill:#FDBEB9;" d="M165.862,410.34c0-16.41-13.303-29.713-29.712-29.713
			c-16.41,0-29.712,13.303-29.712,29.713c0,16.41,13.303,29.712,29.712,29.712C152.559,440.052,165.862,426.75,165.862,410.34z"/>
		<path style="fill-rule:evenodd;clip-rule:evenodd;fill:#D46B5C;" d="M255,380.627c-16.41,0-29.712,13.303-29.712,29.713
			c0,16.41,13.302,29.712,29.712,29.712c16.41,0,29.712-13.302,29.712-29.712C284.712,393.93,271.409,380.627,255,380.627z"/>
		<path style="fill-rule:evenodd;clip-rule:evenodd;fill:#FDBEB9;" d="M373.849,380.627c-16.41,0-29.712,13.303-29.712,29.713
			c0,16.41,13.303,29.712,29.712,29.712c16.41,0,29.713-13.302,29.713-29.712C403.562,393.93,390.259,380.627,373.849,380.627z"/>
		<path style="fill-rule:evenodd;clip-rule:evenodd;fill:#FD6050;" d="M373.849,440.576c-32.82,0-59.424,26.605-59.424,59.424
			h118.85C433.275,467.18,406.669,440.576,373.849,440.576z"/>
		<path style="fill-rule:evenodd;clip-rule:evenodd;fill:#BC9AF4;" d="M314.425,500c0-32.819-26.605-59.424-59.425-59.424
			c-32.82,0-59.425,26.605-59.425,59.424H314.425z"/>
		<path style="fill-rule:evenodd;clip-rule:evenodd;fill:#FDCB50;" d="M195.575,500c0-32.819-26.605-59.424-59.425-59.424
			c-32.82,0-59.425,26.605-59.425,59.424H195.575z"/>
		<path style="fill-rule:evenodd;clip-rule:evenodd;fill:#6864F7;" d="M197.963,44.932c-5.71,2.552-11.218,5.475-16.494,8.738
			l-20.737-16.843l-41.719,41.719l16.837,20.73c-7.781,12.576-13.624,26.477-17.116,41.286l-26.548,2.751v59l26.553,2.752
			c3.492,14.807,9.339,28.703,17.117,41.279l-16.843,20.737l41.719,41.719l20.73-16.837c12.576,7.781,26.477,13.624,41.286,17.116
			l2.751,26.549h47.707c-51.43-59.026-82.584-136.182-82.584-220.619C190.623,90.974,193.167,67.537,197.963,44.932z"/>
		<path style="fill-rule:evenodd;clip-rule:evenodd;fill:#FFFFFF;" d="M350,172.813c0-52.467-42.533-95-95-95
			c-24.731,0-47.253,9.453-64.156,24.94c-39.499,59.459-21.463,132.336,34.019,160.177c9.47,3.165,19.602,4.883,30.137,4.883
			C307.467,267.813,350,225.281,350,172.813z"/>
		<g>
			<path style="fill:#FD6050;" d="M255,232.813c-5.522,0-10-4.477-10-10v-4.288c-0.939-0.279-1.868-0.608-2.785-0.988l-4.899-2.03
				c-5.103-2.114-7.525-7.964-5.411-13.066c2.114-5.103,7.967-7.524,13.065-5.412l4.898,2.029c1.982,0.822,4.184,0.814,6.196-0.021
				c2.014-0.833,3.574-2.384,4.395-4.366c1.711-4.13-0.257-8.882-4.387-10.592l-9.798-4.058c-6.918-2.865-12.312-8.27-15.191-15.219
				c-2.878-6.949-2.885-14.586-0.019-21.503c2.686-6.486,7.604-11.633,13.936-14.623v-5.864c0-5.523,4.478-10,10-10s10,4.477,10,10
				v4.288c0.939,0.279,1.868,0.608,2.785,0.988l4.9,2.029c5.102,2.113,7.525,7.963,5.412,13.065
				c-2.114,5.104-7.961,7.527-13.066,5.412l-4.898-2.029c-1.982-0.821-4.183-0.814-6.196,0.02c-2.014,0.833-3.574,2.384-4.395,4.367
				c-0.821,1.983-0.814,4.184,0.02,6.197c0.833,2.014,2.384,3.574,4.365,4.395l9.799,4.058
				c14.318,5.931,21.142,22.405,15.212,36.723c-2.687,6.487-7.605,11.634-13.938,14.624v5.864
				C265,228.336,260.522,232.813,255,232.813z"/>
		</g>
		<path style="fill-rule:evenodd;clip-rule:evenodd;fill:#D2DCFD;" d="M190.87,102.729C171.898,120.098,160,145.065,160,172.813
			c0,41.938,27.176,77.526,64.878,90.121c-21.924-44.637-34.254-94.838-34.254-147.926
			C190.623,110.895,190.723,106.806,190.87,102.729z"/>
	</g>
	<g>
		<path style="fill:#052A75;" d="M403.183,437.081c6.444-7.062,10.379-16.451,10.379-26.742c0-21.897-17.815-39.712-39.713-39.712
			s-39.712,17.815-39.712,39.712c0,10.304,3.945,19.703,10.403,26.769c-12.453,5.844-22.948,15.288-30.077,27.02
			c-3.085-5.1-6.849-9.83-11.237-14.068c-5.61-5.417-11.985-9.785-18.872-13.001c6.432-7.06,10.358-16.439,10.358-26.719
			c0-21.897-17.815-39.712-39.713-39.712s-39.713,17.815-39.713,39.712c0,10.28,3.926,19.66,10.358,26.719
			c-6.887,3.216-13.262,7.584-18.872,13.001c-4.364,4.215-8.109,8.914-11.185,13.981c-7.102-11.746-17.578-21.176-30.072-26.995
			c6.424-7.058,10.346-16.433,10.346-26.706c0-21.897-17.814-39.712-39.712-39.712s-39.713,17.815-39.713,39.712
			c0,10.291,3.935,19.68,10.379,26.742C83.155,448.156,66.725,472.196,66.725,500c0,5.523,4.478,10,10,10h356.55
			c2.652,0,5.195-1.054,7.071-2.929c1.875-1.875,2.929-4.419,2.929-7.071C443.274,472.195,426.844,448.156,403.183,437.081z
			 M136.15,390.627c10.869,0,19.712,8.843,19.712,19.712s-8.843,19.712-19.712,19.712c-10.87,0-19.713-8.843-19.713-19.712
			S125.28,390.627,136.15,390.627z M87.742,490c4.637-22.476,24.58-39.425,48.408-39.425c23.837,0,43.783,16.782,48.413,39.425
			H87.742z M255,390.627c10.87,0,19.713,8.843,19.713,19.712S265.87,430.052,255,430.052s-19.713-8.843-19.713-19.712
			S244.129,390.627,255,390.627z M206.58,490c4.605-22.67,24.486-39.425,48.42-39.425c23.933,0,43.814,16.754,48.42,39.425H206.58z
			 M373.849,390.627c10.87,0,19.713,8.843,19.713,19.712s-8.843,19.712-19.713,19.712c-10.869,0-19.712-8.843-19.712-19.712
			S362.98,390.627,373.849,390.627z M325.448,490c4.675-22.573,24.781-39.425,48.402-39.425c23.827,0,43.771,16.949,48.408,39.425
			H325.448z"/>
		<path style="fill:#052A75;" d="M91.156,212.26l19.664,2.038c3.107,10.82,7.43,21.242,12.906,31.119l-12.475,15.359
			c-3.229,3.977-2.932,9.752,0.691,13.375l41.719,41.72c3.623,3.623,9.399,3.92,13.376,0.691l15.351-12.469
			c9.872,5.475,20.294,9.796,31.128,12.906l2.037,19.659c0.527,5.097,4.822,8.969,9.946,8.969h59c5.124,0,9.419-3.873,9.946-8.969
			l2.038-19.664c10.821-3.108,21.242-7.43,31.119-12.906l15.359,12.475c3.978,3.23,9.752,2.933,13.376-0.691l41.719-41.72
			c3.623-3.623,3.921-9.398,0.691-13.375l-12.469-15.351c5.475-9.872,9.796-20.296,12.906-31.127l19.657-2.037
			c5.097-0.528,8.97-4.823,8.97-9.947v-59c0-5.124-3.873-9.418-8.97-9.947l-19.663-2.038c-3.108-10.823-7.431-21.245-12.906-31.12
			l12.475-15.359c3.229-3.977,2.932-9.752-0.691-13.375l-41.719-41.72c-3.624-3.624-9.398-3.92-13.376-0.691l-15.357,12.474
			c-9.875-5.476-20.296-9.797-31.121-12.906l-2.038-19.664C293.918,3.873,289.624,0,284.5,0h-59c-5.124,0-9.419,3.873-9.947,8.969
			l-2.037,19.664c-10.822,3.108-21.242,7.43-31.119,12.906l-15.358-12.475c-3.978-3.23-9.752-2.932-13.376,0.691l-41.719,41.72
			c-3.623,3.623-3.921,9.398-0.691,13.375l12.469,15.351c-5.474,9.871-9.796,20.294-12.906,31.127l-19.658,2.037
			c-5.097,0.528-8.97,4.823-8.97,9.947v59C82.186,207.438,86.059,211.732,91.156,212.26z M102.186,152.331l17.579-1.821
			c4.234-0.438,7.726-3.509,8.703-7.651c3.196-13.556,8.541-26.448,15.887-38.32c2.24-3.62,1.942-8.262-0.741-11.566l-11.152-13.73
			l28.966-28.967l13.737,11.158c3.304,2.684,7.944,2.982,11.564,0.743c11.887-7.351,24.777-12.696,38.314-15.889
			c4.143-0.977,7.213-4.469,7.651-8.702L234.517,20h40.965l1.823,17.584c0.438,4.233,3.509,7.726,7.651,8.702
			c13.542,3.193,26.433,8.539,38.313,15.888c3.619,2.238,8.261,1.942,11.565-0.742l13.736-11.157l28.967,28.967l-11.157,13.738
			c-2.683,3.304-2.981,7.944-0.742,11.564c7.35,11.883,12.694,24.774,15.888,38.314c0.978,4.143,4.47,7.213,8.703,7.651
			l17.583,1.822v40.966l-17.578,1.821c-4.234,0.438-7.726,3.509-8.703,7.651c-3.195,13.553-8.541,26.446-15.887,38.32
			c-2.24,3.62-1.942,8.261,0.741,11.566l11.152,13.73l-28.967,28.967l-13.737-11.158c-3.304-2.684-7.945-2.98-11.564-0.743
			c-11.888,7.352-24.778,12.697-38.313,15.889c-4.143,0.977-7.213,4.469-7.651,8.702l-1.823,17.584h-40.965l-1.822-17.579
			c-0.438-4.233-3.509-7.726-7.651-8.702c-13.555-3.197-26.447-8.542-38.319-15.887c-3.621-2.239-8.262-1.943-11.566,0.742
			l-13.73,11.152l-28.966-28.967l11.157-13.738c2.683-3.304,2.981-7.943,0.742-11.563c-7.352-11.889-12.697-24.78-15.888-38.314
			c-0.977-4.143-4.469-7.213-8.703-7.652l-17.584-1.822V152.331z"/>
	</g>
</g>
<g>
</g>
<g>
</g>
<g>
</g>
<g>
</g>
<g>
</g>
<g>
</g>
<g>
</g>
<g>
</g>
<g>
</g>
<g>
</g>
<g>
</g>
<g>
</g>
<g>
</g>
<g>
</g>
<g>
</g>
</svg>
