<?xml version="1.0" encoding="iso-8859-1"?>
<!-- Generator: Adobe Illustrator 27.2.0, SVG Export Plug-In . SVG Version: 6.00 Build 0)  -->
<svg version="1.1" id="Capa_1" xmlns="http://www.w3.org/2000/svg" xmlns:xlink="http://www.w3.org/1999/xlink" x="0px" y="0px"
	 viewBox="0 0 510 510" style="enable-background:new 0 0 510 510;" xml:space="preserve">
<g>
	<g>
		<g>
			<path style="fill:#27A2CC;" d="M500,393.226v65.062H305.599c-5.771,0-10.733,4.088-11.838,9.751
				c-3.6,18.452-19.772,31.929-38.761,31.929c-18.8,0-35.124-13.291-38.761-31.929c-1.105-5.663-6.067-9.751-11.838-9.751H10
				v-65.062h186.097c21.53,0,42.887,8.383,58.903,24.398c15.224-15.224,36.253-24.398,58.903-24.398H500z"/>
		</g>
		<g>
			<path style="fill:#D2DCFD;" d="M255,417.625v-57.881c0-31.001-25.148-55.978-55.978-55.978c-10.566,0-16.809,2.575-26.342,5.752
				c-37.049,12.35-75.846,18.646-114.899,18.646c-16.843,0-30.498,13.655-30.498,30.498v34.564h168.815
				C217.627,393.226,238.984,401.609,255,417.625z"/>
		</g>
		<g>
			<path style="fill:#FFFFFF;" d="M313.903,393.226h168.815v-34.564c0-16.843-13.654-30.498-30.498-30.498
				c-39.053,0-77.851-6.296-114.899-18.646c-9.533-3.178-15.777-5.752-26.342-5.752c-30.83,0-55.978,24.977-55.978,55.978v57.881
				C270.224,402.4,291.253,393.226,313.903,393.226z"/>
		</g>
	</g>
	<g>
		<path style="fill:#052A75;" d="M500,383.226h-7.282v-24.563c0-22.331-18.167-40.498-40.498-40.498
			c-38.048,0-75.642-6.101-111.737-18.133c-31.625-13.493-67.059-4.514-85.482,24.849c-18.496-29.395-53.792-38.331-85.482-24.848
			c-36.096,12.031-73.69,18.132-111.737,18.132c-22.331,0-40.498,18.167-40.498,40.498c0,0,0,24.563,0,24.563H10
			c-5.523,0-10,4.478-10,10v65.062c0,5.522,4.477,10,10,10h194.4c0.984,0,1.835,0.701,2.024,1.667
			c4.523,23.186,24.953,40.014,48.575,40.014c23.624,0,44.053-16.828,48.575-40.013c0.189-0.967,1.04-1.668,2.024-1.668H500
			c5.522,0,10-4.478,10-10v-65.062C510,387.703,505.522,383.226,500,383.226z M310.978,313.766c7.723,0,12.612,1.66,20.016,4.173
			c39.066,13.403,79.921,20.232,121.226,20.226c11.303,0,20.498,9.195,20.498,20.498v24.563H313.902
			c-17.543,0-34.343,4.814-48.902,13.808v-37.29C265,334.391,285.626,313.766,310.978,313.766z M37.282,358.662
			c0-11.303,9.195-20.498,20.498-20.498c41.304,0.006,82.16-6.823,121.226-20.226c7.403-2.513,12.293-4.173,20.016-4.173
			c25.352,0,45.979,20.625,45.979,45.977v37.29c-14.559-8.994-31.359-13.808-48.902-13.808H37.282V358.662z M490,448.288H305.6
			c-10.53,0-19.637,7.501-21.654,17.837c-2.694,13.816-14.868,23.844-28.945,23.844c-14.076,0-26.25-10.027-28.946-23.845
			c-2.018-10.335-11.124-17.836-21.653-17.836H20v-45.062h176.098c19.579,0,37.986,7.625,51.831,21.47
			c3.906,3.904,10.236,3.904,14.143,0c13.845-13.845,32.252-21.47,51.831-21.47H490V448.288z"/>
		<path style="fill:#B1D952;" d="M340.74,141.11c58.826-91.017,5.12-144.496-85.741-85.74
			c-91.017-58.829-144.495-5.118-85.739,85.74c-59.947,93.761-2.607,143.271,85.74,85.739
			C343.528,284.465,400.606,234.69,340.74,141.11z M295.241,56.896c61.679-23.614,58.638,22.695,32.997,66.379
			c-15.291-20.05-35.354-40.111-55.403-55.402C280.432,63.445,287.948,59.75,295.241,56.896z M316.588,141.11
			c-16.069,22.417-39.171,45.518-61.588,61.588c-22.417-16.069-45.519-39.171-61.588-61.588
			c16.069-22.417,39.171-45.518,61.588-61.588C277.417,95.592,300.519,118.693,316.588,141.11z M170.785,100.868
			c-24.902-66.049,28.777-55.403,66.379-32.996c-20.049,15.291-40.111,35.353-55.402,55.403
			C177.335,115.677,173.639,108.161,170.785,100.868z M214.759,225.324c-63.632,24.291-57.172-25.63-32.997-66.379
			c15.291,20.049,35.354,40.112,55.403,55.402C229.567,218.775,222.051,222.471,214.759,225.324z M339.94,226.051
			c-12.308,13.27-48.294-0.019-67.105-11.703c20.049-15.29,40.112-35.354,55.403-55.402
			C339.923,177.741,353.208,213.771,339.94,226.051z"/>
		<g>
			<path style="fill:#052A75;" d="M255.02,151.109c-5.522,0-10.005-4.478-10.005-10c0.488-13.255,19.518-13.245,20.005,0
				C265.02,146.632,260.543,151.109,255.02,151.109z"/>
		</g>
		<g>
			<path style="fill:#FDCB50;" d="M433.94,19.969c-5.522,0-10.005-4.477-10.005-10c0.488-13.255,19.518-13.245,20.005,0
				C443.94,15.491,439.464,19.969,433.94,19.969z"/>
		</g>
		<g>
			<path style="fill:#FDCB50;" d="M76.099,248.703c-5.522,0-10.005-4.478-10.005-10c0.488-13.255,19.518-13.245,20.005,0
				C86.099,244.226,81.622,248.703,76.099,248.703z"/>
		</g>
		<g>
			<path style="fill:#FDCB50;" d="M43.567,102.314c-5.523,0-10.005-4.478-10.005-10c0.488-13.255,19.518-13.245,20.005,0
				C53.567,97.836,49.091,102.314,43.567,102.314z"/>
		</g>
		<g>
			<path style="fill:#FDCB50;" d="M417.675,224.305c-5.522,0-10.005-4.477-10.005-10c0.488-13.255,19.518-13.245,20.005,0
				C427.675,219.827,423.198,224.305,417.675,224.305z"/>
		</g>
	</g>
</g>
<g>
</g>
<g>
</g>
<g>
</g>
<g>
</g>
<g>
</g>
<g>
</g>
<g>
</g>
<g>
</g>
<g>
</g>
<g>
</g>
<g>
</g>
<g>
</g>
<g>
</g>
<g>
</g>
<g>
</g>
</svg>
