<?xml version="1.0" encoding="iso-8859-1"?>
<!-- Generator: Adobe Illustrator 27.2.0, SVG Export Plug-In . SVG Version: 6.00 Build 0)  -->
<svg version="1.1" id="Capa_1" xmlns="http://www.w3.org/2000/svg" xmlns:xlink="http://www.w3.org/1999/xlink" x="0px" y="0px"
	 viewBox="0 0 510.001 510.001" style="enable-background:new 0 0 510.001 510.001;" xml:space="preserve">
<g>
	<g>
		<path style="fill:#FBDEBC;" d="M163.507,347.51l30.498,29.639l30.498-29.639v-1.961c0-17.958,8.11-35.016,22.02-46.372
			c23.633-19.294,38.976-52.141,38.976-75.692c16.843,0,30.498-13.654,30.498-30.498c0-16.843-13.654-30.498-30.498-30.498h-8.181
			c-10.548,18.226-30.242,30.498-52.815,30.498h-60.996c-22.573,0-42.268-12.272-52.815-30.498h-8.18
			c-16.843,0-30.498,13.654-30.498,30.498c0,16.843,13.655,30.498,30.498,30.498c0,30.052,14.322,58.686,36.607,75.346
			C154.468,310.308,163.507,328.344,163.507,347.51h-60.996"/>
		<path style="fill:#67CCD1;" d="M226.632,346.309l-32.627,31.7l-29.945-30.678c-0.361,0.057-0.552,0.117-0.552,0.18h-60.996
			c-33.687,0-60.996,27.309-60.996,60.996V500h304.979v-30.498l-30.498-30.498v-92.795
			C315.996,346.209,287.46,346.125,226.632,346.309z"/>
		<polygon style="fill:#BA98F2;" points="315.996,439.004 346.494,469.502 346.494,500 437.988,500 437.988,469.502 
			468.486,439.004 468.486,347.51 315.996,347.51 		"/>
		<path style="fill:#27A2CC;" d="M315.996,439.004V347.51h-58.213v70.472c0,13.46,5.347,26.369,14.865,35.886l0.769,0.769
			c9.518,9.518,14.865,22.426,14.865,35.886V500h58.213v-30.498L315.996,439.004z"/>
		<polygon style="fill:#65CACF;" points="285.498,131.992 315.996,40.498 194.004,10 72.013,40.498 102.511,131.992 		"/>
		<polygon style="fill:#27A2CC;" points="85.443,80.787 102.511,131.992 285.498,131.992 302.566,80.787 		"/>
		<path style="fill:#65CACF;" d="M224.502,192.988h-60.996c-33.687,0-60.996-27.309-60.996-60.996l182.987,0
			C285.498,165.679,258.19,192.988,224.502,192.988z"/>
		<path style="fill:#F5AE74;" d="M285.498,162.49h-8.181c-10.548,18.226-30.242,30.498-52.815,30.498h-60.996
			c-22.573,0-42.268-12.272-52.815-30.498h-8.18c-16.843,0-30.498,13.654-30.498,30.498c0,16.843,13.655,30.498,30.498,30.498
			c0,1.063,0.023,2.124,0.058,3.183c12.593,4.409,26.572,6.864,41.292,6.864h100.287c14.704,0,28.668-2.449,41.25-6.849
			c0.06-1.081,0.101-2.151,0.101-3.198c16.843,0,30.498-13.654,30.498-30.498C315.996,176.144,302.342,162.49,285.498,162.49z"/>
	</g>
	<g>
		<path style="fill:#052A75;" d="M407.49,418.506h-30.498c-5.523,0-10-4.477-10-10c0-5.523,4.477-10,10-10h30.498
			C420.747,399.029,420.759,417.979,407.49,418.506z"/>
		<path style="fill:#052A75;" d="M133.009,449.004h-30.498c-5.523,0-10-4.477-10-10c0-5.523,4.477-10,10-10h30.498
			C146.266,429.527,146.277,448.476,133.009,449.004z"/>
		<path style="fill:#052A75;" d="M468.486,337.51h-35.747v-20.498c0-5.523-4.477-10-10-10c-5.523,0-10,4.477-10,10v20.498h-40.996
			V192.988c0-5.523-4.477-10-10-10c-5.523,0-10,4.477-10,10V337.51c-23.198,0-92.393,0-116.595,0
			c1.935-11.933,8.148-22.79,17.698-30.587c22.173-18.102,38.891-48.207,42.095-74.55c42.561-10.959,40.616-71.171-2.638-79.301
			c1.909-6.128,2.986-12.615,3.15-19.325l30.029-90.088c1.896-5.331-1.534-11.61-7.062-12.863c0,0-121.992-30.498-121.992-30.498
			c-1.593-0.398-3.259-0.398-4.851,0c0,0-121.992,30.498-121.992,30.498c-5.511,1.254-8.975,7.533-7.061,12.863
			c0,0,30.029,90.088,30.029,90.088c0.164,6.71,1.241,13.197,3.15,19.325c-43.187,8.12-45.2,68.159-2.817,79.258
			c2.517,29.51,17.454,57.474,40.241,74.51c10.05,7.514,16.91,18.543,19.371,30.67c0,0-49.99,0-49.99,0
			c-39.147,0-70.996,31.849-70.996,70.996c0,0,0,91.494,0,91.494c0,5.523,4.477,10,10,10c67.081,0.002,334.723-0.002,396.473,0
			c5.523,0,10-4.477,10-10c0,0,0-26.356,0-26.356l27.569-27.569c1.875-1.875,2.929-4.418,2.929-7.071V347.51
			C478.486,341.987,474.009,337.51,468.486,337.51z M305.996,357.51v81.494c0,2.652,1.054,5.196,2.929,7.071l27.569,27.569V490
			h-132.49V382.151l24.641-24.641H305.996z M194.004,20.308l109.09,27.273l-24.804,74.411H109.718L84.914,47.581L194.004,20.308z
			 M274.514,141.992c-4.661,23.347-25.315,40.996-50.012,40.996h-60.996c-24.697,0-45.351-17.649-50.012-40.996H274.514z
			 M145.105,290.822c-20.105-15.031-32.595-40.833-32.595-67.336c0-5.523-4.477-10-10-10c-11.303,0-20.498-9.195-20.498-20.498
			c0-11.303,9.195-20.498,20.498-20.498c0.865,0,1.699-0.122,2.5-0.328c12.814,18.602,34.25,30.826,58.496,30.826h60.996
			c24.246,0,45.682-12.224,58.496-30.826c0.8,0.206,1.635,0.328,2.5,0.328c11.303,0,20.498,9.195,20.498,20.498
			c0,11.303-9.195,20.498-20.498,20.498c-5.523,0-10,4.477-10,10c0,19.233-13.204,49.906-35.301,67.946
			c-15.747,12.856-24.992,31.663-25.633,51.874l-20.56,20.561l-20.63-20.631C172.108,322.613,161.744,303.261,145.105,290.822z
			 M51.515,408.506c0-28.119,22.876-50.996,50.996-50.996h56.854l24.64,24.64V490H51.515V408.506z M458.486,434.862l-27.569,27.569
			c-1.875,1.875-2.929,4.418-2.929,7.071V490h-71.494v-20.498c0-2.652-1.054-5.196-2.929-7.071l-27.569-27.569V357.51h132.489
			V434.862z"/>
		<path style="fill:#052A75;" d="M224.502,80.996h-60.996c-13.249-0.519-13.276-19.469,0-20c0,0,60.996,0,60.996,0
			c5.523,0,10,4.477,10,10C234.502,76.519,230.025,80.996,224.502,80.996z"/>
	</g>
</g>
<g>
</g>
<g>
</g>
<g>
</g>
<g>
</g>
<g>
</g>
<g>
</g>
<g>
</g>
<g>
</g>
<g>
</g>
<g>
</g>
<g>
</g>
<g>
</g>
<g>
</g>
<g>
</g>
<g>
</g>
</svg>
