<?xml version="1.0" encoding="iso-8859-1"?>
<!-- Generator: Adobe Illustrator 28.1.0, SVG Export Plug-In . SVG Version: 6.00 Build 0)  -->
<svg version="1.1" id="Capa_1" xmlns="http://www.w3.org/2000/svg" xmlns:xlink="http://www.w3.org/1999/xlink" x="0px" y="0px"
	 viewBox="0 0 510 510" style="enable-background:new 0 0 510 510;" xml:space="preserve">
<g>
	<g>
		<g>
			<path style="fill:#FDBEB9;" d="M233.907,289.552c6.287,3.571,13.394,5.448,20.625,5.448h0c6.872,0,13.639-1.696,19.699-4.937
				l26.64-14.249l9.656-5.165c-10.161-4.161-17.997-12.848-20.94-23.714l-11.737-42.472h-45.269l-11.737,42.472
				c-2.903,10.719-10.571,19.314-20.531,23.539l7.796,4.427L233.907,289.552z"/>
			<path style="fill:#FD7DA0;" d="M232.581,204.463l-10.783,39.021c10.4,3.926,21.661,6.081,33.418,6.081s23.018-2.155,33.418-6.081
				l-10.783-39.021H232.581z"/>
			<path style="fill:#67CCD1;" d="M378.887,306.224c-3.062-14.126-14.336-25.015-28.561-27.584l-32.611-5.891
				c-2.496-0.451-4.9-1.163-7.189-2.1l-9.656,5.165l-26.64,14.249c-6.06,3.241-12.826,4.937-19.699,4.937h0
				c-7.231,0-14.337-1.877-20.625-5.448l-25.799-14.652l-7.796-4.427c-2.411,1.023-4.953,1.797-7.598,2.275l-32.611,5.891
				c-14.224,2.569-25.498,13.458-28.56,27.584L109.68,407.073h291.07L378.887,306.224z"/>
			<g>
				<circle style="fill:#D2DCFD;" cx="102.927" cy="407.073" r="92.927"/>
			</g>
			<path style="fill:#93B2F4;" d="M136.93,465.997c-51.322,0-92.927-41.605-92.927-92.927c0-16.933,4.531-32.807,12.444-46.479
				C28.681,342.661,10,372.685,10,407.073C10,458.395,51.605,500,102.927,500c34.389,0,64.412-18.681,80.482-46.448
				C169.737,461.465,153.863,465.997,136.93,465.997z"/>
			<g>
				<path style="fill:#B55348;" d="M320.108,121.926c21.804,3.885,44.032,19.046,44.032,46.003
					c0,25.728-20.857,46.584-46.584,46.584c-9.406,0-18.162-2.788-25.485-7.583L320.108,121.926z"/>
			</g>
			<g>
				<path style="fill:#B55348;" d="M190.321,121.926c-21.804,3.885-44.032,19.046-44.032,46.003
					c0,25.728,20.857,46.584,46.584,46.584c9.406,0,18.162-2.788,25.485-7.583L190.321,121.926z"/>
			</g>
			<path style="fill:#D46B5C;" d="M320.108,121.926c13.829-12.487,22.725-23.224,22.725-41.264C342.833,41.637,303.509,10,255,10
				s-87.833,31.637-87.833,70.663c0,17.66,9.842,28.877,23.154,41.264l4.715,6.688H315.78L320.108,121.926z"/>
			<path style="fill:#FDBEB9;" d="M320.108,121.926v32.744c0,35.84-29.053,64.894-64.894,64.894s-64.894-29.053-64.894-64.894
				v-32.744c34.53,0,64.894-38.84,64.894-38.84S284.387,121.926,320.108,121.926z"/>
			<g>
				<circle style="fill:#B1D952;" cx="407.073" cy="407.073" r="92.927"/>
			</g>
			<path style="fill:#91B706;" d="M441.077,465.997c-51.322,0-92.927-41.605-92.927-92.927c0-16.933,4.531-32.807,12.444-46.479
				c-27.766,16.07-46.448,46.094-46.448,80.482c0,51.322,41.605,92.927,92.927,92.927c34.389,0,64.412-18.681,80.482-46.448
				C473.884,461.465,458.01,465.997,441.077,465.997z"/>
		</g>
	</g>
	<g>
		<path style="fill:#052A75;" d="M407.073,304.146c-6.16,0-12.194,0.546-18.059,1.588c-3.437-18.811-18.051-33.573-36.909-36.936
			l-32.611-5.891c-9.722-1.756-17.672-9.053-20.269-18.637l-6.809-24.641c0.317-0.182,0.635-0.36,0.949-0.546
			c7.528,3.559,15.797,5.429,24.191,5.429c31.2,0,56.584-25.384,56.584-56.584c0-20.979-12.636-43.249-34.119-52.073
			c7.397-9.115,12.812-20.114,12.812-35.194C352.833,36.186,308.945,0,255,0s-97.833,36.186-97.833,80.663
			c0,14.602,5.623,25.64,13.262,35.013c-21.756,8.696-34.569,31.129-34.569,52.254c0,31.2,25.384,56.584,56.584,56.584
			c8.481,0,16.835-1.91,24.426-5.542c0.377,0.226,0.763,0.439,1.144,0.659l-6.823,24.69c-2.583,9.535-10.533,16.832-20.255,18.588
			l-32.611,5.891c-18.886,3.366-33.51,18.17-36.926,37.011c-5.995-1.091-12.168-1.664-18.473-1.664
			C46.173,304.146,0,350.319,0,407.073S46.173,510,102.927,510c53.38,0,97.395-40.848,102.44-92.927h99.267
			c5.045,52.079,49.06,92.927,102.44,92.927C463.827,510,510,463.827,510,407.073S463.827,304.146,407.073,304.146z M354.14,167.93
			c0,20.173-16.411,36.584-36.584,36.584c-2.037,0-4.059-0.189-6.051-0.522c11.568-13.186,18.604-30.442,18.604-49.321v-21.113
			C345.179,138.459,354.14,153.656,354.14,167.93z M265,20.518c38.208,3.839,67.833,29.337,67.833,60.145
			c0,12.755-5.322,20.636-16.426,31.074c-24.192-2.204-45.293-25.174-51.407-32.451V20.518z M245,20.518v59.174
			c-2.971,3.385-8.597,9.392-15.918,15.321c-8.717,7.059-21.562,15.335-34.998,16.697c-11.215-10.836-16.917-19.104-16.917-31.048
			C177.167,49.855,206.792,24.357,245,20.518z M192.444,204.514c-20.173,0-36.584-16.411-36.584-36.584
			c0-14.409,9.131-29.759,24.461-34.509v21.25c0,18.849,7.014,36.08,18.55,49.258C196.758,204.305,194.61,204.514,192.444,204.514z
			 M200.321,154.671v-23.62c23.773-4.115,44.099-21.78,54.782-32.806c10.517,11.117,30.622,28.827,55.005,32.851v23.575
			c0,30.269-24.625,54.894-54.894,54.894S200.321,184.939,200.321,154.671z M291.409,269.533l-21.895,11.712
			c-4.593,2.456-9.773,3.755-14.981,3.755c-5.49,0-10.914-1.433-15.687-4.144l-19.862-11.279c5.393-5.49,9.427-12.33,11.499-19.979
			l6.179-22.362c5.935,1.518,12.151,2.329,18.553,2.329s12.618-0.811,18.553-2.329l6.166,22.313
			C282.007,257.204,286.031,264.043,291.409,269.533z M164.808,417.073h20.422c-4.56,37.743-34.559,67.742-72.302,72.302v-20.422
			c0-5.522-4.478-10-10-10s-10,4.478-10,10v20.422c-37.743-4.56-67.742-34.559-72.302-72.302h20.422c5.522,0,10-4.478,10-10
			s-4.478-10-10-10H20.624c4.56-37.743,34.559-67.742,72.302-72.302v20.422c0,5.522,4.478,10,10,10s10-4.478,10-10v-20.422
			c37.743,4.56,67.742,34.559,72.302,72.302h-20.422c-5.522,0-10,4.478-10,10S159.285,417.073,164.808,417.073z M205.366,397.073
			c-3.786-39.086-29.521-71.846-64.695-85.759l0.644-2.971c2.213-10.209,10.285-18.006,20.564-19.862l32.611-5.891
			c1.651-0.298,3.273-0.688,4.862-1.161l29.615,16.818c7.778,4.418,16.618,6.753,25.564,6.753c8.487,0,16.93-2.116,24.415-6.119
			l32.454-17.359c1.485,0.43,2.998,0.79,4.537,1.068l32.611,5.891c11.401,1.956,19.615,11.387,21.175,22.682
			c-35.376,13.823-61.291,46.679-65.092,85.911H205.366z M407.073,490c-45.726,0-82.927-37.201-82.927-82.927
			s37.201-82.927,82.927-82.927S490,361.348,490,407.073S452.799,490,407.073,490z"/>
		<path style="fill:#052A75;" d="M419.153,398.978c-3.43-1.475-6.345-2.532-8.917-3.466c-5.205-1.888-7.608-2.815-10.021-5.02
			c-1.2-1.096-1.662-3.181-1.177-5.31c0.319-1.402,1.303-3.891,4.306-4.795c7.368-2.217,12.049,1.467,12.559,1.895
			c-0.107-0.09-0.159-0.144-0.159-0.144l0.008-0.008c1.79,1.688,4.197,2.729,6.851,2.729c5.523,0,10-4.477,10-10
			c0-2.945-1.281-5.585-3.307-7.415l0.007-0.008c-2.772-2.464-6.799-4.976-12.52-6.553v-3.008c0-5.522-4.478-10-10-10
			s-10,4.478-10,10v3.629c-8.734,2.93-15.155,10.055-17.245,19.237c-2.087,9.165,0.667,18.559,7.188,24.517
			c5.448,4.977,10.908,6.957,16.689,9.055c2.429,0.881,4.94,1.792,7.835,3.037c6.951,2.99,6.629,8.61,6.168,10.889
			c-0.784,3.871-4.057,8.408-10.702,8.452c-7.358,0.056-9.265-0.252-14.724-3.823c-4.623-3.023-10.82-1.727-13.843,2.894
			c-3.023,4.622-1.729,10.819,2.894,13.843c5.986,3.916,10.549,5.735,15.739,6.53v2.132c0,5.522,4.478,10,10,10s10-4.478,10-10
			v-3.213c10.213-3.408,18.018-11.876,20.238-22.845C439.867,418.153,432.687,404.799,419.153,398.978z"/>
		<path style="fill:#052A75;" d="M119.223,376.635l-16.296,16.296l-27.645-27.645c-3.906-3.904-10.236-3.904-14.143,0
			c-3.905,3.905-3.905,10.237,0,14.143l34.716,34.716c1.953,1.952,4.512,2.929,7.071,2.929s5.118-0.977,7.071-2.929l23.367-23.367
			c3.905-3.905,3.905-10.237,0-14.143C129.459,372.73,123.129,372.73,119.223,376.635z"/>
	</g>
</g>
<g>
</g>
<g>
</g>
<g>
</g>
<g>
</g>
<g>
</g>
<g>
</g>
<g>
</g>
<g>
</g>
<g>
</g>
<g>
</g>
<g>
</g>
<g>
</g>
<g>
</g>
<g>
</g>
<g>
</g>
</svg>
