<?xml version="1.0" encoding="iso-8859-1"?>
<!-- Generator: Adobe Illustrator 27.0.0, SVG Export Plug-In . SVG Version: 6.00 Build 0)  -->
<svg version="1.1" id="Capa_1" xmlns="http://www.w3.org/2000/svg" xmlns:xlink="http://www.w3.org/1999/xlink" x="0px" y="0px"
	 viewBox="0 0 510.021 510.021" style="enable-background:new 0 0 510.021 510.021;" xml:space="preserve">
<g>
	<g>
		<path style="fill-rule:evenodd;clip-rule:evenodd;fill:#BC9AF4;" d="M230.101,10c-5.478,0-9.058,4.556-9.959,9.959l-4.95,29.696
			c-28.167,5.429-54.329,16.495-77.243,31.999l-24.501-17.501c-4.457-3.183-10.211-3.873-14.084,0.001L64.153,99.365
			c-3.873,3.873-3.184,9.626,0,14.084l17.501,24.501c-15.501,22.918-26.57,49.077-31.999,77.243l-29.696,4.95
			c-5.402,0.9-9.958,4.481-9.958,9.958v49.798c0,5.477,4.557,9.058,9.958,9.958l29.696,4.95
			c5.429,28.166,16.498,54.325,31.999,77.243l-17.501,24.501c-3.183,4.458-3.873,10.211,0,14.085l35.212,35.211
			c3.873,3.874,9.627,3.184,14.084,0l24.501-17.501c22.915,15.504,49.076,26.57,77.243,31.999l4.95,29.696
			c0.901,5.403,4.481,9.96,9.959,9.96c16.599,0,33.198,0,49.797,0c5.478,0,9.058-4.556,9.959-9.96l4.95-29.696
			c28.167-5.428,54.328-16.495,77.243-31.999l56.296-56.296c15.501-22.918,26.57-49.077,31.999-77.243l29.696-4.95
			c5.402-0.9,9.958-4.481,9.958-9.958v-49.798c0-5.477-4.556-9.058-9.958-9.958l-29.696-4.95
			c-5.429-28.166-16.498-54.325-31.999-77.243l17.501-24.501c3.183-4.458,3.873-10.211,0-14.084l-35.212-35.212
			c-3.873-3.874-9.627-3.184-14.084-0.001L372.05,81.653c-22.915-15.503-49.076-26.57-77.243-31.999l-4.95-29.696
			c-0.9-5.403-4.481-9.959-9.959-9.959H230.101L230.101,10z M255,392.34c-75.851,0-137.34-61.488-137.34-137.34
			c0-75.851,61.489-137.34,137.34-137.34S392.34,179.149,392.34,255C392.34,330.851,330.851,392.34,255,392.34z"/>
		<path style="fill-rule:evenodd;clip-rule:evenodd;fill:#6864F7;" d="M340.052,446.118c11.223-4.998,21.924-10.956,31.998-17.772
			l56.296-56.296c6.815-10.075,12.772-20.777,17.771-32l-56.711-56.711c-11.142,53.107-52.961,94.924-106.066,106.066
			L340.052,446.118z"/>
		<path style="fill-rule:evenodd;clip-rule:evenodd;fill:#D2DCFD;" d="M328.528,279.03c2.471-7.565,3.812-15.641,3.812-24.031
			c0-42.714-34.626-77.34-77.34-77.34c-8.39,0-16.465,1.341-24.03,3.812l41.693,41.693l-3.536,45.962l-45.962,3.536l-41.694-41.694
			c-2.471,7.565-3.812,15.641-3.812,24.031c0,42.714,34.626,77.34,77.34,77.34c8.39,0,16.466-1.341,24.03-3.812l45.128,45.128
			l51.291,51.291l64.844,64.844c13.611,13.611,35.885,13.612,49.498,0c13.612-13.612,13.611-35.886,0-49.497l-64.844-64.844
			l-51.291-51.29L328.528,279.03z"/>
	</g>
	<path style="fill:#052A75;" d="M496.862,433.222l-58.37-58.37c14.342-21.908,24.495-45.85,30.24-71.305l22.952-3.826
		c10.784-1.796,18.315-9.948,18.315-19.823v-49.797c0-9.875-7.531-18.026-18.314-19.823l-22.953-3.826
		c-5.48-24.277-14.968-47.179-28.276-68.252l13.529-18.94c6.354-8.896,5.915-19.985-1.067-26.967l-35.211-35.21
		c-6.981-6.983-18.071-7.422-26.968-1.067L371.8,69.543c-21.068-13.308-43.971-22.795-68.253-28.275l-3.826-22.953
		C297.924,7.531,289.773,0,279.898,0h-49.797c-9.874,0-18.025,7.531-19.822,18.315l-3.826,22.953
		c-24.282,5.48-47.185,14.968-68.253,28.275l-18.939-13.528c-8.897-6.354-19.987-5.914-26.967,1.067L57.082,92.294
		c-6.982,6.981-7.421,18.07-1.066,26.967l13.528,18.939c-13.309,21.075-22.797,43.978-28.276,68.253l-22.952,3.825
		C7.532,212.075,0,220.227,0,230.102v49.797c0,9.875,7.531,18.026,18.314,19.822l22.953,3.826
		c5.479,24.276,14.968,47.179,28.276,68.252l-13.529,18.94c-6.354,8.896-5.915,19.985,1.067,26.968l35.211,35.21
		c6.981,6.983,18.071,7.422,26.968,1.067l18.938-13.528c21.067,13.308,43.97,22.795,68.254,28.276l3.826,22.953
		c1.797,10.784,9.948,18.315,19.822,18.315h49.797c9.874,0,18.025-7.531,19.823-18.315l3.826-22.953
		c25.461-5.746,49.404-15.899,71.305-30.24l58.37,58.37c8.773,8.773,20.296,13.159,31.82,13.159s23.047-4.386,31.82-13.159
		C514.407,479.316,514.407,450.768,496.862,433.222z M292.914,450.526c-4.104,0.791-7.284,4.052-7.971,8.175l-4.949,29.695
		c-0.132,0.79-0.376,1.319-0.549,1.604h-48.889c-0.173-0.285-0.417-0.814-0.549-1.604l-4.95-29.696
		c-0.687-4.124-3.867-7.384-7.971-8.175c-26.453-5.098-51.192-15.347-73.533-30.462c-3.462-2.344-8.015-2.285-11.416,0.145
		l-24.501,17.501c-0.65,0.465-1.197,0.667-1.521,0.745l-34.57-34.569c0.079-0.324,0.28-0.871,0.745-1.522l17.501-24.501
		c2.429-3.401,2.487-7.953,0.146-11.415c-15.117-22.35-25.366-47.09-30.463-73.533c-0.791-4.104-4.052-7.284-8.175-7.971
		l-29.697-4.95c-0.789-0.131-1.317-0.375-1.602-0.548v-48.889c0.285-0.173,0.813-0.417,1.603-0.549l29.696-4.95
		c4.124-0.687,7.384-3.867,8.175-7.971c5.096-26.442,15.346-51.183,30.463-73.534c2.341-3.462,2.283-8.014-0.146-11.415l-17.5-24.5
		c-0.465-0.651-0.667-1.198-0.746-1.521l34.57-34.57c0.324,0.079,0.87,0.28,1.521,0.745l24.5,17.5
		c3.4,2.429,7.954,2.487,11.416,0.146c22.342-15.115,47.082-25.364,73.533-30.462c4.104-0.791,7.284-4.052,7.971-8.175l4.95-29.696
		c0.132-0.79,0.375-1.318,0.549-1.603h48.89c0.173,0.285,0.417,0.813,0.549,1.603l4.95,29.696c0.687,4.124,3.867,7.384,7.971,8.175
		c26.451,5.098,51.191,15.347,73.532,30.462c3.462,2.342,8.016,2.284,11.416-0.146l24.501-17.5c0.651-0.465,1.197-0.667,1.521-0.745
		l34.57,34.569c-0.079,0.324-0.28,0.871-0.745,1.521l-17.501,24.501c-2.429,3.401-2.487,7.954-0.146,11.415
		c15.116,22.349,25.366,47.089,30.463,73.534c0.791,4.105,4.052,7.284,8.175,7.971l29.696,4.949
		c0.789,0.132,1.317,0.375,1.602,0.549v48.89c-0.285,0.173-0.813,0.417-1.603,0.549l-29.696,4.95
		c-4.124,0.687-7.384,3.867-8.175,7.971c-4.64,24.072-13.55,46.731-26.512,67.46l-37.986-37.986
		c10.677-20.768,16.313-44.03,16.313-67.388c0-81.244-66.096-147.34-147.34-147.34S107.66,173.756,107.66,255
		S173.756,402.34,255,402.34c23.337,0,46.633-5.64,67.387-16.313l37.987,37.987C339.652,436.976,316.993,445.885,292.914,450.526z
		 M255,167.66c-9.256,0-18.386,1.449-27.135,4.306c-3.305,1.079-5.812,3.798-6.621,7.179c-0.809,3.381,0.196,6.94,2.654,9.398
		l38.441,38.441l-2.525,32.83l-32.83,2.525l-38.441-38.441c-2.458-2.458-6.016-3.462-9.398-2.655
		c-3.381,0.809-6.1,3.316-7.179,6.621c-2.857,8.748-4.307,17.878-4.307,27.136c0,48.16,39.181,87.34,87.34,87.34
		c7.156,0,14.235-0.866,21.122-2.579l31.29,31.29c-16.416,7.401-34.4,11.288-52.412,11.288c-70.215,0-127.34-57.125-127.34-127.34
		S184.785,127.66,255,127.66S382.34,184.785,382.34,255c0,18.029-3.885,35.992-11.289,52.412l-31.29-31.29
		c1.713-6.887,2.579-13.966,2.579-21.122C342.34,206.84,303.16,167.66,255,167.66z M482.72,482.72
		c-9.747,9.748-25.607,9.748-35.355,0L286.102,321.457c-1.906-1.905-4.461-2.929-7.072-2.929c-1.038,0-2.085,0.162-3.104,0.495
		c-6.74,2.202-13.781,3.318-20.925,3.318c-37.131,0-67.34-30.209-67.34-67.34c0-1.206,0.032-2.408,0.095-3.606l28.339,28.34
		c2.064,2.064,4.929,3.125,7.838,2.899l45.962-3.536c4.917-0.378,8.825-4.286,9.204-9.204l3.536-45.962
		c0.224-2.911-0.835-5.774-2.899-7.838l-28.339-28.339c1.198-0.063,2.4-0.095,3.605-0.095c37.131,0,67.34,30.209,67.34,67.34
		c0,7.145-1.116,14.185-3.318,20.925c-1.169,3.58-0.228,7.513,2.435,10.176L482.72,447.365
		C492.467,457.112,492.467,472.972,482.72,482.72z"/>
</g>
<g>
</g>
<g>
</g>
<g>
</g>
<g>
</g>
<g>
</g>
<g>
</g>
<g>
</g>
<g>
</g>
<g>
</g>
<g>
</g>
<g>
</g>
<g>
</g>
<g>
</g>
<g>
</g>
<g>
</g>
</svg>
