<?xml version="1.0" encoding="iso-8859-1"?>
<!-- Generator: Adobe Illustrator 27.9.4, SVG Export Plug-In . SVG Version: 9.03 Build 54784)  -->
<svg version="1.1" id="Layer_1" xmlns="http://www.w3.org/2000/svg" xmlns:xlink="http://www.w3.org/1999/xlink" x="0px" y="0px"
	 viewBox="0 0 510 510" style="enable-background:new 0 0 510 510;" xml:space="preserve">
<g>
	<g>
		<polygon style="fill:#D2DCFD;" points="361.74,407.49 453.233,407.49 483.731,500 26.262,500 26.262,407.49 		"/>
	</g>
	<g>
		<path style="fill:#FFFFFF;" d="M148.254,194.004V407.49H26.262V102.51c0-16.843,13.654-30.498,30.498-30.498h365.975
			c16.843,0,30.498,13.655,30.498,30.498v91.494H148.254z"/>
	</g>
	<g>
		<path style="fill:#93B2F4;" d="M340.377,500H26.267v-92.51h175.09C240.217,447.51,287.517,479.3,340.377,500z"/>
	</g>
	<g>
		<path style="fill:#D2DCFD;" d="M148.257,339.28v68.21H26.267V102.51c0-16.84,13.65-30.5,30.49-30.5h37.94
			c-3.1,19.87-4.7,40.25-4.7,60.99C89.997,208.63,111.307,279.28,148.257,339.28z"/>
	</g>
	<g>
		<path style="fill:#67CCD1;" d="M148.254,346.494h304.979c16.844,0,30.498,13.654,30.498,30.498v30.498h-30.498H148.254V346.494z"
			/>
	</g>
	<g>
		<path style="fill:#FD6050;" d="M239.748,346.494l69.928,69.928c11.91,11.91,31.22,11.91,43.131,0l69.929-69.928H239.748z"/>
	</g>
	<g>
		<path style="fill:#FDCB50;" d="M361.74,194.004v30.498c0,16.843-13.654,30.498-30.498,30.498l0,0
			c-16.844,0-30.498-13.654-30.498-30.498v-30.498H361.74z"/>
	</g>
	<g>
		<polygon style="fill:#D2DCFD;" points="331.242,72.012 300.744,133.008 148.254,133.008 117.756,72.012 		"/>
	</g>
</g>
<g>
	<g>
		<path style="fill:#93B2F4;" d="M331.241,356.494c-5.523,0-10-4.477-10-10V255c0-5.523,4.477-10,10-10s10,4.477,10,10v91.494
			C341.241,352.017,336.764,356.494,331.241,356.494z"/>
	</g>
	<g>
		<path style="fill:#93B2F4;" d="M331.241,82.012c-5.523,0-10-4.477-10-10V10c0-5.523,4.477-10,10-10s10,4.477,10,10v62.012
			C341.241,77.535,336.764,82.012,331.241,82.012z"/>
	</g>
	<g>
		<path style="fill:#93B2F4;" d="M117.756,82.012c-5.523,0-10-4.477-10-10V10c0-5.523,4.477-10,10-10s10,4.477,10,10v62.012
			C127.756,77.535,123.279,82.012,117.756,82.012z"/>
	</g>
	<g>
		<path style="fill:#1C2E72;" d="M493.727,407.49v-30.5c0-22.33-18.16-40.5-40.49-40.5h-294.98V204h132.49v20.5
			c0,22.33,18.16,40.5,40.49,40.5c22.34,0,40.5-18.17,40.5-40.5V204h81.5c5.52,0,10-4.47,10-10v-91.49c0-22.33-18.17-40.5-40.5-40.5
			H56.757c-22.33,0-40.49,18.17-40.49,40.5V500c0,5.52,4.47,10,10,10h457.46c3.21,0,6.23-1.54,8.11-4.14
			c1.88-2.6,2.4-5.94,1.39-8.99l-26.17-79.38h16.67C489.257,417.49,493.727,413.01,493.727,407.49z M398.597,356.49l-52.86,52.86
			c-7.99,7.99-21,7.99-28.99,0l-52.86-52.86H398.597z M235.607,356.49l41,41h-118.35v-41H235.607z M351.737,224.5
			c0,11.3-9.19,20.5-20.5,20.5c-11.3,0-20.49-9.2-20.49-20.5V204h40.99V224.5z M36.267,102.51c0-11.3,9.19-20.5,20.49-20.5h365.98
			c11.3,0,20.5,9.2,20.5,20.5V184h-294.98c-5.53,0-10,4.48-10,10v203.49H36.267V102.51z M469.907,490H36.267v-72.51h260.34l6,6
			c7.89,7.9,18.26,11.85,28.64,11.85c10.37,0,20.74-3.95,28.63-11.85l6-6h80.12L469.907,490z M473.727,397.49h-87.85l41-41h26.36
			c11.3,0,20.49,9.2,20.49,20.5V397.49z"/>
	</g>
</g>
<g>
</g>
<g>
</g>
<g>
</g>
<g>
</g>
<g>
</g>
<g>
</g>
<g>
</g>
<g>
</g>
<g>
</g>
<g>
</g>
<g>
</g>
<g>
</g>
<g>
</g>
<g>
</g>
<g>
</g>
</svg>
