<?xml version="1.0" encoding="iso-8859-1"?>
<!-- Generator: Adobe Illustrator 27.2.0, SVG Export Plug-In . SVG Version: 6.00 Build 0)  -->
<svg version="1.1" id="Capa_1" xmlns="http://www.w3.org/2000/svg" xmlns:xlink="http://www.w3.org/1999/xlink" x="0px" y="0px"
	 viewBox="0 0 510.011 510.011" style="enable-background:new 0 0 510.011 510.011;" xml:space="preserve">
<g>
	<g>
		<g>
			<path style="fill:#FFFFFF;" d="M460.958,136.246c-0.257-5.644-0.401-11.175-0.482-16.644
				c-0.31-20.849-16.71-37.862-37.529-39.025c-63.67-3.556-113.464-24.735-155.525-65.731c-7.038-6.451-17.594-6.451-24.632,0
				C200.73,55.842,150.936,77.021,87.265,80.577c-20.818,1.163-37.219,18.177-37.529,39.025c-0.081,5.468-0.226,11-0.482,16.644
				c-3.079,122.999-4.059,295.02,201.511,363.331c2.862,0.574,5.811,0.575,8.674,0.002l0,0
				C464.439,431.261,464.026,259.848,460.958,136.246z"/>
		</g>
		<g>
			<path style="fill:#D2DCFD;" d="M343.257,459.068c-22.46,15.21-49.13,28.62-80.8,39.69c-3.74,1.303-7.797,1.6-11.68,0.82h-0.01
				C45.191,431.246,46.186,259.263,49.257,136.248c0.25-5.65,0.4-11.18,0.48-16.65c0.31-20.84,16.71-37.86,37.53-39.02
				c27.68-1.55,52.75-6.43,75.69-14.83C76.931,221.194,172.25,423.79,343.257,459.068z"/>
		</g>
		<g>
			<path style="fill:#B1D952;" d="M369.557,255.008c0,63.215-51.246,114.46-114.46,114.46
				c-151.665-5.611-151.624-223.332,0.001-228.92C318.311,140.548,369.557,191.794,369.557,255.008z"/>
		</g>
		<g>
			<path style="fill:#91B706;" d="M360.737,299.128c-17.27,41.31-58.07,70.34-105.64,70.34
				c-115.435-0.534-156.837-152.032-60.2-211.82C152.73,260.4,266.324,356.882,360.737,299.128z"/>
		</g>
	</g>
	<g>
		<g>
			<path style="fill:#052A75;" d="M255.106,510.011c-2.135-0.001-4.275-0.213-6.392-0.646
				C64.393,449.342,31.418,304.952,39.249,136.591c0.189-5.449,0.421-10.87,0.489-17.137c0.385-25.949,21.017-47.411,46.97-48.861
				c61.309-3.417,108.754-23.496,149.325-63.117c10.941-10.047,27.54-9.957,38.37,0.21c40.527,39.5,87.906,59.489,149.103,62.907
				c25.953,1.45,46.585,22.912,46.97,48.861c4.485,102.316,2.323,237.205-83.727,317.11
				c-31.029,30.307-71.738,54.406-120.994,71.632C262.366,509.378,258.69,510.019,255.106,510.011z M252.761,489.779
				c200.066-58.864,201.742-234.642,198.201-353.211c-0.236-5.222-0.395-10.724-0.485-16.816
				c-0.23-15.501-12.567-28.322-28.087-29.189c-64.317-3.705-116.239-24.216-161.817-68.427c-3.187-2.842-7.747-2.842-10.934,0.001
				c-45.585,44.215-97.492,64.718-161.815,68.426c-15.52,0.867-27.858,13.688-28.087,29.189c-0.09,6.079-0.249,11.582-0.485,16.817
				C56.571,256.541,54.636,422.586,252.761,489.779z"/>
		</g>
		<g>
			<path style="fill:#FFFFFF;" d="M232.126,306.587c-8.737,0.091-13.391-10.846-7.071-17.071c0,0,71.059-71.059,71.059-71.059
				c3.905-3.904,10.237-3.904,14.143,0c3.905,3.905,3.905,10.237,0,14.143l-71.059,71.06
				C237.245,305.611,234.685,306.587,232.126,306.587z"/>
		</g>
		<g>
			<path style="fill:#FFFFFF;" d="M232.126,306.587c-2.56,0-5.118-0.977-7.071-2.929l-27.154-27.155
				c-9.017-9.704,4.417-23.166,14.143-14.142c0,0,27.154,27.155,27.154,27.155C245.508,295.727,240.875,306.685,232.126,306.587z"/>
		</g>
	</g>
</g>
<g>
</g>
<g>
</g>
<g>
</g>
<g>
</g>
<g>
</g>
<g>
</g>
<g>
</g>
<g>
</g>
<g>
</g>
<g>
</g>
<g>
</g>
<g>
</g>
<g>
</g>
<g>
</g>
<g>
</g>
</svg>
