<?xml version="1.0" encoding="iso-8859-1"?>
<!-- Generator: Adobe Illustrator 27.2.0, SVG Export Plug-In . SVG Version: 6.00 Build 0)  -->
<svg version="1.1" id="Capa_1" xmlns="http://www.w3.org/2000/svg" xmlns:xlink="http://www.w3.org/1999/xlink" x="0px" y="0px"
	 viewBox="0 0 510 510" style="enable-background:new 0 0 510 510;" xml:space="preserve">
<g>
	<g>
		<g>
			<polygon style="fill:#FD8F01;" points="347.21,70.996 164.223,70.996 143.891,264.149 367.542,264.149 			"/>
			<polygon style="fill:#FDCB50;" points="236.309,203.154 143.891,264.149 367.542,264.149 361.122,203.154 			"/>
			<path style="fill:#FD6050;" d="M234.128,175.362c0-37.092,7.71-72.377,21.589-104.366h-92.21l-13.911,132.158h85.997
				C234.631,194.02,234.128,184.75,234.128,175.362z"/>
			<path style="fill:#FD8F01;" d="M149.595,203.154l-6.421,60.996h106.367c-6.965-19.378-11.719-39.81-13.949-60.996H149.595z"/>
		</g>
		<rect x="10" y="317.012" style="fill:#B1D952;" width="83.361" height="182.988"/>
		<path style="fill:#D46B5C;" d="M453.757,347.841l-96.002,64.001c-6.68,4.453-14.528,6.829-22.556,6.829h-8.02
			c16.844,0,30.498-13.654,30.498-30.498c0-16.844-13.654-30.498-30.498-30.498h-81.328l-14.013-10.51
			c-17.299-12.975-38.34-19.988-59.965-19.988h0c-18.114,0-35.887,4.923-51.419,14.242l-27.093,16.255v121.992h142.324h113.104
			c12.407,0,24.519-3.783,34.72-10.845l103.678-71.777C495.211,391.489,500,382.35,500,372.59v0
			C500,348.833,473.523,334.663,453.757,347.841z"/>
		<path style="fill:#B55348;" d="M147.71,330.15v149.52H93.36V357.68l27.09-16.26c7.77-4.66,16.1-8.22,24.75-10.62
			C146.03,330.57,146.87,330.35,147.71,330.15z"/>
	</g>
	<g>
		<g>
			<path style="fill:#052A75;" d="M489.01,337.55c-12.95-6.93-28.58-6.17-40.8,1.97l-80.88,53.92c0.23-1.72,0.35-3.48,0.35-5.27
				c0-22.33-18.17-40.49-40.5-40.49h-78l-11.34-8.51c-18.91-14.18-42.33-21.99-65.97-21.99c-19.92,0-39.48,5.42-56.56,15.67
				l-11.95,7.17v-23.01c0-5.52-4.48-10-10-10H10c-5.52,0-10,4.48-10,10V500c0,5.52,4.48,10,10,10h83.36c5.52,0,10-4.48,10-10v-10.33
				h245.43c14.51,0,28.48-4.37,40.41-12.63l103.68-71.77c10.72-7.43,17.12-19.64,17.12-32.68C510,357.9,501.96,344.48,489.01,337.55
				z M83.36,490H20V327.01h63.36V490z M481.49,388.82L377.82,460.6c-8.57,5.93-18.61,9.07-29.03,9.07H103.36V363.34L125.6,350
				c13.97-8.39,29.98-12.82,46.27-12.82c19.34,0,38.5,6.39,53.97,17.99l14.01,10.51c1.73,1.29,3.84,2,6,2h81.33
				c11.3,0,20.5,9.19,20.5,20.49c0,11.31-9.2,20.5-20.5,20.5H215.35c-5.52,0-10,4.48-10,10c0,5.53,4.48,10,10,10H335.2
				c10.03,0,19.75-2.94,28.1-8.51l96-64c6.17-4.11,13.74-4.47,20.27-0.98c6.53,3.5,10.43,10,10.43,17.41
				C490,379.07,486.82,385.14,481.49,388.82z"/>
		</g>
		<g>
			<path style="fill:#052A75;" d="M376.77,263.1L356.44,69.95c-0.54-5.09-4.83-8.95-9.95-8.95h-40.83V50.66
				C305.66,22.73,282.94,0,255,0s-50.66,22.73-50.66,50.66V61h-40.83c-5.12,0-9.41,3.86-9.95,8.95L133.23,263.1
				c-0.3,2.82,0.62,5.63,2.51,7.74c1.9,2.11,4.6,3.31,7.43,3.31h223.66c2.83,0,5.53-1.2,7.43-3.31
				C376.15,268.73,377.07,265.92,376.77,263.1z M224.34,50.66C224.34,33.76,238.09,20,255,20s30.66,13.76,30.66,30.66V61h-61.32
				V50.66z M154.28,254.15L172.51,81h31.83v10.33c0,5.52,4.47,10,10,10c5.52,0,10-4.48,10-10V81h61.32v10.33c0,5.52,4.48,10,10,10
				c5.53,0,10-4.48,10-10V81h31.83l18.23,173.15H154.28z"/>
		</g>
	</g>
</g>
<g>
</g>
<g>
</g>
<g>
</g>
<g>
</g>
<g>
</g>
<g>
</g>
<g>
</g>
<g>
</g>
<g>
</g>
<g>
</g>
<g>
</g>
<g>
</g>
<g>
</g>
<g>
</g>
<g>
</g>
</svg>
