<?xml version="1.0" encoding="iso-8859-1"?>
<!-- Generator: Adobe Illustrator 26.5.3, SVG Export Plug-In . SVG Version: 6.00 Build 0)  -->
<svg version="1.1" id="Capa_1" xmlns="http://www.w3.org/2000/svg" xmlns:xlink="http://www.w3.org/1999/xlink" x="0px" y="0px"
	 viewBox="0 0 512 512" style="enable-background:new 0 0 512 512;" xml:space="preserve">
<g>
	<g>
		<g>
			<path style="fill:#FFFFFF;" d="M376.37,378.394l-69.025-24.294L256,394.875l-51.345-40.776l-69.025,24.294
				c-36.996,13.021-61.747,47.972-61.747,87.193v26.372c0,5.546,4.496,10.041,10.041,10.041H256h172.076
				c5.546,0,10.041-4.496,10.041-10.041v-26.372C438.117,426.366,413.366,391.415,376.37,378.394z"/>
		</g>
		<g>
			<path style="fill:#D2DCFD;" d="M153.994,428.05c0-22.012,5.219-42.803,14.475-61.214l-32.839,11.558
				c-36.996,13.021-61.747,47.972-61.747,87.193v26.372c0,5.546,4.495,10.041,10.041,10.041h91.828
				C161.988,480.691,153.994,455.305,153.994,428.05z"/>
		</g>
		<g>
			<polygon style="fill:#27A2CC;" points="272.565,455.312 256,445.311 239.435,455.312 214.523,502 256,502 297.477,502 			"/>
		</g>
		<g>
			<polygon style="fill:#67CCD1;" points="256,394.875 227.778,413.666 239.435,455.312 272.565,455.312 284.223,413.666 			"/>
		</g>
		<g>
			<path style="fill:#D46B5C;" d="M256.956,10v178.619h103.091v-77.797C360.047,53.678,313.978,10.479,256.956,10z"/>
		</g>
		<g>
			<path style="fill:#FDE0BE;" d="M360.046,200.697h12.198c16.56,0,29.985-13.425,29.985-29.985v-3.192
				c0-16.56-13.425-29.985-29.985-29.985h-12.198V200.697z"/>
		</g>
		<g>
			<path style="fill:#D2DCFD;" d="M256,394.875l-22.162,18.002c-9.423,7.654-23.429,5.262-29.778-5.085l-26.989-43.984
				l34.012-26.335L256,394.875z"/>
		</g>
		<g>
			<path style="fill:#D2DCFD;" d="M256,394.875l22.162,18.002c9.423,7.654,23.429,5.262,29.778-5.085l26.989-43.984l-34.012-26.335
				L256,394.875z"/>
		</g>
		<g>
			<path style="fill:#FDE0BE;" d="M341.749,88.953c-17.08-14.057-40.811-16.822-60.727-7.195h0
				c-7.605,3.676-15.826,5.552-24.066,5.648v214.223c57.022-0.479,103.091-43.66,103.091-100.803v-84.457
				C359.193,106.093,351.117,96.664,341.749,88.953z"/>
		</g>
		<g>
			<path style="fill:#F7B073;" d="M341.749,88.953c-17.08-14.057-40.81-16.822-60.727-7.195h0
				c-7.605,3.676-15.826,5.552-24.066,5.648v70.004c8.239-0.095,16.461-1.972,24.066-5.648h0
				c19.917-9.626,43.647-6.861,60.727,7.195c9.369,7.71,17.445,17.139,18.298,27.415v-70.004
				C359.193,106.093,351.117,96.664,341.749,88.953z"/>
		</g>
		<g>
			<path style="fill:#67CCD1;" d="M256.934,226.184c-38.479-0.462-69.533-31.782-69.533-70.37s31.054-69.908,69.533-70.37V10
				h-25.431c-6.983,0-12.644,5.661-12.644,12.644v9.16c0,5.468-3.516,10.314-8.715,12.011c-5.772,1.884-11.349,4.201-16.69,6.913
				c-4.882,2.48-10.801,1.551-14.673-2.322l-6.478-6.478c-4.938-4.938-12.944-4.938-17.882,0l-21.559,21.559
				c-4.938,4.938-4.938,12.944,0,17.882l6.478,6.478c3.872,3.872,4.801,9.791,2.322,14.673c-2.713,5.342-5.029,10.918-6.913,16.69
				c-1.696,5.198-6.543,8.715-12.011,8.715h-9.16c-6.983,0-12.644,5.661-12.644,12.644v30.489c0,6.983,5.661,12.644,12.644,12.644
				h9.16c5.468,0,10.314,3.516,12.011,8.715c1.884,5.772,4.201,11.349,6.913,16.69c2.48,4.882,1.551,10.801-2.321,14.673
				l-6.478,6.478c-4.938,4.938-4.938,12.944,0,17.882l21.559,21.559c4.938,4.938,12.944,4.938,17.882,0l6.478-6.478
				c3.872-3.872,9.791-4.801,14.673-2.322c5.342,2.713,10.918,5.03,16.69,6.913c5.198,1.696,8.715,6.543,8.715,12.011v9.16
				c0,6.983,5.661,12.644,12.644,12.644h25.431V226.184z"/>
		</g>
	</g>
	<g>
		<path style="fill:#052A75;" d="M379.69,368.961l-39.916-14.049l-32.734-25.345c-4.342-3.362-10.577-2.588-13.97,1.717
			c-0.008,0.01-0.019,0.017-0.027,0.028L256,378.648l-37.042-47.338c-0.008-0.011-0.019-0.018-0.028-0.028
			c-3.395-4.305-9.629-5.079-13.97-1.716l-32.734,25.345l-39.916,14.049c-40.929,14.405-68.427,53.236-68.427,96.626v26.372
			c0,11.051,8.99,20.041,20.041,20.041h344.152c11.051,0,20.041-8.99,20.041-20.041v-26.372
			C448.117,422.197,420.618,383.366,379.69,368.961z M428.076,492H256l-172.117-0.041v-26.372c0-34.918,22.13-66.167,55.067-77.76
			l41.44-14.586c1.033-0.364,1.964-0.885,2.787-1.519c0.004-0.003,0.011-0.003,0.015-0.007l26.146-20.244l38.786,49.567
			c3.768,5.054,11.983,5.054,15.751,0l38.786-49.567l26.146,20.244c0.004,0.003,0.011,0.003,0.015,0.007
			c0.822,0.635,1.754,1.156,2.787,1.519l41.44,14.586c32.937,11.593,55.067,42.842,55.067,77.76L428.076,492z"/>
		<path style="fill:#052A75;" d="M113.577,193.703h9.16c1.143,0,2.149,0.73,2.504,1.817c2.023,6.201,4.548,12.296,7.504,18.116
			c0.523,1.03,0.332,2.265-0.477,3.073l-6.479,6.479c-8.828,8.829-8.828,23.195,0,32.024l21.559,21.559
			c8.829,8.828,23.195,8.829,32.024,0l6.478-6.478c0.808-0.808,2.043-1,3.074-0.477c5.819,2.955,11.914,5.48,18.116,7.504
			c1.087,0.355,1.817,1.361,1.817,2.504v9.16c0,12.486,10.158,22.644,22.644,22.644h25.431c0.004,0,0.007-0.001,0.011-0.001
			c0.004,0,0.007,0.001,0.011,0.001c0.028,0,0.056,0,0.084,0c59.942-0.503,107.59-44.082,112.569-100.93h2.636
			c22.048,0,39.985-17.937,39.985-39.985v-3.192c0-22.048-17.937-39.985-39.985-39.985h-2.198v-11.167c0-0.004,0-0.008,0-0.012
			v-5.535C370.047,49.211,320.408,0.532,257.04,0c-0.017,0-0.034,0.002-0.051,0.002C256.97,0.003,231.503,0,231.503,0
			c-12.486,0-22.644,10.158-22.644,22.644v9.16c0,1.143-0.73,2.149-1.818,2.504c-6.203,2.025-12.298,4.549-18.115,7.504
			c-1.031,0.524-2.267,0.332-3.074-0.477l-6.479-6.479c-8.829-8.829-23.194-8.828-32.024,0L125.79,56.417
			c-8.828,8.829-8.828,23.195,0,32.024l6.478,6.478c0.809,0.808,1,2.044,0.477,3.074c-2.955,5.819-5.48,11.914-7.504,18.116
			c-0.354,1.087-1.361,1.817-2.504,1.817h-9.16c-12.486,0-22.644,10.158-22.644,22.644v30.489
			C90.933,183.545,101.092,193.703,113.577,193.703z M246.956,215.191c-28.098-5.151-49.555-29.927-49.555-59.377
			s21.457-54.226,49.555-59.377V215.191z M322.94,265.281c-15.042,14.52-34.635,23.481-55.984,25.769V96.548
			c6.385-1.034,12.625-2.987,18.417-5.786c16.393-7.923,36.027-5.602,50.021,5.913c8.935,7.354,13.992,14.317,14.652,20.168v83.855
			c0,0.003,0,0.006,0,0.01v0.119C350.047,225.517,340.42,248.407,322.94,265.281z M372.245,147.536
			c11.02,0,19.985,8.965,19.985,19.985v3.192c0,11.02-8.965,19.985-19.985,19.985h-2.198v-43.162H372.245z M322.939,46.355
			c9.394,9.07,16.495,19.888,21.077,31.778c-19.615-13.732-45.503-15.936-67.346-5.378c-3.131,1.513-6.377,2.66-9.714,3.437V20.579
			C288.302,22.868,307.897,31.832,322.939,46.355z M110.933,140.57c0-1.458,1.186-2.644,2.644-2.644h9.16
			c9.823,0,18.47-6.274,21.517-15.612c1.706-5.226,3.833-10.361,6.323-15.265c4.453-8.769,2.779-19.327-4.167-26.272l-6.478-6.478
			c-1.031-1.031-1.031-2.709,0-3.74L161.491,49c1.031-1.031,2.709-1.031,3.74,0l6.479,6.478c6.946,6.946,17.504,8.619,26.272,4.167
			c4.901-2.49,10.038-4.617,15.264-6.323c9.338-3.047,15.613-11.694,15.613-21.517v-9.16c0-1.458,1.186-2.644,2.644-2.644h15.431
			v56.163c-17.515,2.353-33.685,10.377-46.305,23.136c-14.979,15.143-23.228,35.213-23.228,56.515
			c0,21.301,8.249,41.372,23.228,56.515c12.621,12.759,28.79,20.783,46.305,23.136v56.163h-15.431c-1.458,0-2.644-1.186-2.644-2.644
			v-9.16c0-9.822-6.274-18.469-15.612-21.517c-5.226-1.705-10.362-3.833-15.265-6.323c-3.272-1.662-6.792-2.47-10.282-2.47
			c-5.862,0-11.637,2.283-15.991,6.637l-6.478,6.478c-1.031,1.031-2.709,1.031-3.74,0l-21.559-21.559
			c-1.031-1.031-1.031-2.709,0-3.74l6.479-6.479c6.946-6.946,8.62-17.504,4.167-26.272c-2.491-4.905-4.618-10.04-6.323-15.265
			c-3.047-9.338-11.695-15.612-21.518-15.612h-9.16c-1.458,0-2.644-1.186-2.644-2.644V140.57z"/>
	</g>
</g>
<g>
</g>
<g>
</g>
<g>
</g>
<g>
</g>
<g>
</g>
<g>
</g>
<g>
</g>
<g>
</g>
<g>
</g>
<g>
</g>
<g>
</g>
<g>
</g>
<g>
</g>
<g>
</g>
<g>
</g>
</svg>
