<svg id="Layer_1" enable-background="new 0 0 512 512" viewBox="0 0 512 512" xmlns="http://www.w3.org/2000/svg"><g clip-rule="evenodd" fill-rule="evenodd"><g><g><path d="m27.501 317.19h247.784c6.766 0 11.774-6.131 10.423-12.761-12.739-62.523-68.031-109.572-134.315-109.572-66.286 0-121.577 47.049-134.316 109.573-1.35 6.629 3.659 12.76 10.424 12.76z" fill="#8ac9fe"/><path d="m251.059 317.19h24.226c6.766 0 11.775-6.131 10.424-12.76-12.739-62.524-68.031-109.572-134.315-109.572-4.082 0-8.122.18-12.113.53 60.819 5.326 110.248 50.369 122.202 109.042 1.35 6.629-3.658 12.76-10.424 12.76z" fill="#60b7ff"/><ellipse cx="151.394" cy="125.548" fill="#f6dccd" rx="69.308" ry="69.308" transform="matrix(.707 -.707 .707 .707 -44.434 143.824)"/><path d="m151.394 56.24c38.277 0 69.308 31.031 69.308 69.308 0 38.278-31.031 69.308-69.308 69.308-3.277 0-6.5-.233-9.656-.673 33.706-4.7 59.653-33.635 59.653-68.635s-25.946-63.936-59.653-68.635c3.155-.44 6.379-.673 9.656-.673z" fill="#f1cbbc"/></g><g><path d="m76.643 133.597h149.503c5.51 0 10.019-4.508 10.019-10.018s-4.508-10.018-10.019-10.018h-2.02c.146-1.881.222-3.781.222-5.699 0-32.452-21.192-59.946-50.49-69.42 1.1-11.481-13.009-15.084-22.464-15.08-9.455-.004-23.565 3.599-22.464 15.08-29.298 9.473-50.49 36.968-50.49 69.42 0 1.918.076 3.818.222 5.699h-2.02c-5.51 0-10.019 4.508-10.019 10.018.001 5.51 4.51 10.018 10.02 10.018z" fill="#ffe177"/><path d="m215.597 133.597h10.548c5.51 0 10.019-4.508 10.019-10.018s-4.508-10.018-10.019-10.018h-2.02c.146-1.881.222-3.781.222-5.699 0-32.452-21.192-59.947-50.49-69.42 1.101-11.481-13.009-15.084-22.464-15.08-1.652-.001-3.447.109-5.277.351 8.645 1.144 18.095 5.253 17.187 14.729 29.298 9.473 50.49 36.968 50.49 69.42 0 1.918-.076 3.818-.222 5.699h2.02c5.51 0 10.019 4.508 10.019 10.018 0 5.508-4.505 10.015-10.013 10.018z" fill="#ffd064"/><path d="m144.674 77.321h13.44c6.159 0 11.29-4.508 12.083-10.615l3.608-27.788c1.542-11.876-12.849-14.903-22.412-15.555-9.563.651-23.953 3.679-22.412 15.555l3.609 27.788c.794 6.108 5.925 10.615 12.084 10.615z" fill="#ffd064"/><path d="m144.674 77.321h13.44c6.159 0 11.29-4.508 12.083-10.616l3.608-27.788c.728-5.608-2.097-9.241-6.287-11.585.331 1.309.42 2.765.209 4.387l-3.608 27.788c-.793 6.108-5.924 10.616-12.083 10.616-3.581 0-8.061 0-13.44 0-1.994 0-3.879-.473-5.545-1.318 1.565 5.014 6.194 8.516 11.623 8.516z" fill="#ffc338"/><path d="m76.643 113.561c-5.51 0-10.019 4.508-10.019 10.018s4.508 10.018 10.019 10.018h149.503c5.51 0 10.019-4.508 10.019-10.018s-4.508-10.018-10.019-10.018c-49.835 0-99.669 0-149.503 0z" fill="#ffc338"/><path d="m66.624 123.579c0 5.51 4.508 10.018 10.019 10.018h149.503c5.51 0 10.019-4.508 10.019-10.018z" fill="#ffd064"/></g><g><path d="m94.49 288.599h113.806c15.726 0 28.593 12.867 28.593 28.594v142.847c0 15.727-12.867 28.594-28.593 28.594h-113.806c-15.727 0-28.593-12.867-28.593-28.594v-142.848c0-15.726 12.867-28.593 28.593-28.593z" fill="#6cf5c2"/><path d="m220.469 291.338c9.683 4.593 16.42 14.474 16.42 25.854v142.848c0 15.727-12.867 28.594-28.593 28.594h-113.806c-11.38 0-21.26-6.738-25.854-16.42 3.699 1.755 7.826 2.739 12.173 2.739h113.806c15.726 0 28.593-12.866 28.593-28.594v-142.847c.001-4.347-.984-8.475-2.739-12.174z" fill="#00e499"/><path d="m138.897 397.009 46.264-46.725c5.476-5.531 14.411-5.547 19.925-.062 5.514 5.483 5.531 14.392.061 19.913-18.76 18.934-37.394 37.993-56.241 56.841-5.51 5.51-14.447 5.51-19.957 0l-31.269-31.269c-5.51-5.51-5.51-14.447 0-19.957s14.448-5.51 19.958 0z" fill="#eceff1"/></g><g><path d="m380.278 23.361h44.404c3.357 0 6.104 2.747 6.104 6.104v36.052c0 3.357-2.747 6.104-6.104 6.104h-44.404c-3.357 0-6.104-2.747-6.104-6.104v-36.052c0-3.357 2.747-6.104 6.104-6.104z" fill="#ffe177"/><path d="m380.278 23.361h44.404c3.357 0 6.104 2.747 6.104 6.104v36.052c0 3.357-2.747 6.104-6.104 6.104h-3.896v-32.155c0-3.357-2.747-6.104-6.104-6.104h-40.508v-3.896c0-3.358 2.747-6.105 6.104-6.105z" fill="#ffd064"/><path d="m381.47 205.113h42.021v82.809h-42.021z" fill="#8d9ca8"/><path d="m409.505 205.113h13.986v82.809h-13.986z" fill="#8192a5"/><path d="m391.926 267.736-34.496-9.243-47.57 215.944 15.291 4.097 60.381-190.613 9.033 200.713h15.83l9.033-200.713 60.381 190.613 15.291-4.097-47.57-215.944-34.496 9.243z" fill="#8d9ca8"/><path d="m391.926 267.736-34.496-9.243-.557 2.53 25.053 6.713zm-75.993 208.328 9.218 2.47 51.625-162.971-1.244-27.642zm84.462 12.57h10l7.789-173.071-8.757-27.642zm78.632-12.57.782 2.47 15.291-4.097-47.57-215.944-9.443 2.53 47.013 213.414z" fill="#8192a5"/><path d="m467.58 258.493c0 35.953-29.147 65.1-65.1 65.1s-65.1-29.147-65.1-65.1z" fill="#ffe177"/><path d="m467.58 258.493c0 35.953-29.147 65.1-65.1 65.1-20.524 0-38.826-9.501-50.758-24.341 11.156 8.97 25.329 14.341 40.758 14.341 32.552 0 59.524-23.894 64.335-55.1z" fill="#ffd064"/><path d="m355.693 48.815h93.574c10.072 0 18.313 8.241 18.313 18.313v132.81c0 10.072-8.241 18.313-18.313 18.313h-93.574c-10.072 0-18.313-8.241-18.313-18.313v-132.81c0-10.072 8.241-18.313 18.313-18.313z" fill="#837683"/><path d="m456.205 50.189c6.658 2.748 11.375 9.319 11.375 16.938v132.81c0 10.072-8.241 18.313-18.313 18.313h-93.574c-7.62 0-14.19-4.717-16.938-11.374 2.143.885 4.486 1.374 6.938 1.374h93.574c10.072 0 18.313-8.241 18.313-18.313v-132.81c-.001-2.452-.49-4.795-1.375-6.938z" fill="#685e68"/><path d="m402.48 167.895c18.926 0 34.363-15.436 34.363-34.363 0-18.926-15.436-34.362-34.363-34.362-18.926 0-34.363 15.436-34.363 34.362s15.437 34.363 34.363 34.363z" fill="#d8ecfe"/><path d="m402.48 99.17c1.447 0 2.874.091 4.274.265-16.96 2.104-30.088 16.568-30.088 34.098s13.128 31.993 30.088 34.098c-1.401.174-2.827.264-4.274.264-18.977 0-34.362-15.385-34.362-34.362s15.384-34.363 34.362-34.363z" fill="#c4e2ff"/></g></g><path d="m403.376 107.18c14.544 0 26.358 11.819 26.358 26.359 0 14.53-11.815 26.359-26.358 26.359-14.544 0-26.359-11.828-26.359-26.359 0-14.54 11.815-26.359 26.359-26.359zm0 68.721c23.346 0 42.362-19.001 42.362-42.362 0-23.36-19.016-42.357-42.362-42.357s-42.362 18.997-42.362 42.357 19.016 42.362 42.362 42.362zm40.95-88.014c-1.553 2.259-4.048 3.474-6.59 3.474-1.553 0-3.154-.452-4.519-1.403-8.802-6.039-19.157-9.24-29.841-9.24-10.732 0-21.04 3.201-29.842 9.24-3.672 2.499-8.614 1.572-11.108-2.071-2.495-3.648-1.6-8.628 2.071-11.127 11.485-7.87 24.899-12.04 38.879-12.04 13.932 0 27.394 4.17 38.879 12.04 3.624 2.499 4.565 7.479 2.071 11.127zm0 91.304c2.494 3.639 1.553 8.618-2.071 11.118-11.485 7.879-24.946 12.04-38.879 12.04-13.98 0-27.394-4.161-38.879-12.04-3.671-2.499-4.566-7.479-2.071-11.118 2.495-3.643 7.484-4.57 11.108-2.071 8.802 6.039 19.11 9.23 29.842 9.23 10.685 0 21.04-3.191 29.841-9.23 3.625-2.499 8.614-1.582 11.109 2.071zm41.703 289.638-46.551-146.831c4.565-2.598 8.849-5.667 12.709-9.16l34.36 155.849zm-82.936 11.809-6.731-149.383c2.307.212 4.66.344 7.014.344 2.353 0 4.66-.132 6.966-.344l-6.731 149.383zm-82.37-11.809-.518-.141 34.313-155.849c3.907 3.492 8.143 6.561 12.709 9.16zm139.183-202.33h-113.107c3.954 27.71 27.818 49.102 56.577 49.102s52.623-21.393 56.53-49.102zm-69.568-40.239h26.029v24.24h-26.029zm-44.057-26.321c0 5.691 4.613 10.318 10.308 10.318h93.573c5.695 0 10.308-4.627 10.308-10.318v-132.81c0-5.681-4.613-10.308-10.308-10.308h-93.572c-5.695 0-10.308 4.627-10.308 10.308v132.81zm36.761-168.568h40.62v9.447h-40.62zm120.779 441.346-38.644-175.279c7.154-11.287 11.297-24.631 11.297-38.94 0-4.42-3.577-7.997-8.002-7.997h-36.102v-24.241h17.792c14.497 0 26.312-11.809 26.312-26.321v-132.81c0-14.511-11.815-26.311-26.312-26.311h-10.496v-11.348c0-7.781-6.307-14.102-14.074-14.102h-44.433c-7.766 0-14.121 6.321-14.121 14.102v11.348h-10.448c-14.497 0-26.311 11.8-26.311 26.311v132.809c0 14.511 11.814 26.321 26.311 26.321h17.745v24.241h-36.055c-4.425 0-8.002 3.577-8.002 7.997 0 14.309 4.142 27.653 11.296 38.94l-38.643 175.279c-.941 4.184 1.6 8.34 5.742 9.451l15.297 4.1c.706.184 1.365.273 2.071.273 3.389 0 6.543-2.194 7.625-5.592l46.786-147.693 7.013 155.741c.188 4.269 3.719 7.639 8.002 7.639h15.815c4.283 0 7.813-3.37 8.002-7.639l7.013-155.741 46.786 147.693c1.035 3.398 4.189 5.592 7.625 5.592.659 0 1.365-.089 2.071-.273l15.25-4.1c4.144-1.11 6.686-5.266 5.792-9.45zm-303.453-108.207c-6.966 7.027-13.932 14.078-20.898 21.12-11.532 11.729-23.487 23.859-35.349 35.688-1.13 1.162-2.683 1.793-4.331 1.793-1.6 0-3.154-.631-4.283-1.793l-31.301-31.268c-2.354-2.382-2.354-6.26 0-8.642 1.224-1.191 2.777-1.789 4.33-1.789s3.154.598 4.33 1.789l21.275 21.261c1.506 1.501 3.53 2.339 5.648 2.339 2.118 0 4.189-.861 5.695-2.368l46.269-46.72c1.13-1.153 2.636-1.794 4.236-1.794h.047c1.6 0 3.154.631 4.283 1.775 2.403 2.358 2.403 6.218.049 8.609zm-4.33-26.382c-.047 0-.047 0-.094 0-5.884.023-11.438 2.339-15.58 6.529l-40.62 41.011-15.58-15.57c-8.614-8.618-22.64-8.618-31.254 0-8.614 8.623-8.614 22.654 0 31.273l31.254 31.268c4.189 4.17 9.743 6.472 15.627 6.472 5.931 0 11.485-2.302 15.674-6.472 11.862-11.88 23.817-24.029 35.396-35.777 6.966-7.032 13.885-14.069 20.851-21.091 8.567-8.642 8.52-22.64-.094-31.221-4.189-4.139-9.697-6.422-15.58-6.422zm48.857-28.928c-3.671-16.342-18.263-28.599-35.725-28.599h-113.812c-17.415 0-32.007 12.257-35.678 28.599h-34.502c10.826-61.213 63.966-106.338 127.086-106.338 63.166 0 116.307 45.115 127.086 106.338zm-15.109 150.85v-142.853c0-11.358-9.226-20.597-20.616-20.597h-113.812c-11.344 0-20.569 9.24-20.569 20.597v142.853c0 11.348 9.225 20.588 20.569 20.588h113.812c11.391 0 20.616-9.239 20.616-20.588zm-136.688-318.453h118.378c-7.108 26.354-31.113 45.261-59.213 45.261-28.052 0-52.104-18.907-59.165-45.261zm-15.58-20.028h149.491c1.13 0 2.024.922 2.024 2.01 0 1.102-.894 2.019-2.024 2.019h-149.491c-1.083 0-2.024-.918-2.024-2.019 0-1.087.942-2.01 2.024-2.01zm45.704-71.798 2.306 17.971c1.318 10.026 9.932 17.59 20.051 17.59h13.415c10.12 0 18.733-7.564 20.004-17.59l2.354-17.971c21.134 10.52 35.019 31.771 35.819 55.8h-129.815c.847-24.029 14.733-45.28 35.866-55.8zm15.015-14.051c-.236.296-.612.758-.424 2.17l3.577 27.789c.282 2.109 2.024 3.648 4.189 3.648h13.415c2.118 0 3.86-1.539 4.142-3.648l3.624-27.789c.188-1.412-.188-1.873-.424-2.17-1.365-1.619-5.789-3.7-14.074-4.33-8.235.631-12.707 2.711-14.025 4.33zm111.318 188.591c-16.803-15.194-36.714-26.09-58.13-32.082 18.357-10.779 31.96-28.919 36.525-50.669 9.508-.48 17.086-8.341 17.086-17.98 0-7.761-4.895-14.389-11.814-16.921-.47-32.939-20.663-61.947-50.975-73.997-.659-2.584-1.836-4.97-3.577-7.089-4.848-5.921-13.556-9.352-25.841-10.195-.377-.019-.706-.019-1.083 0-12.332.843-21.04 4.274-25.888 10.195-1.742 2.118-2.918 4.504-3.53 7.089-30.359 12.05-50.505 41.058-50.976 73.997-6.919 2.532-11.861 9.16-11.861 16.921 0 9.64 7.625 17.5 17.133 17.98 4.566 21.75 18.169 39.891 36.526 50.669-21.416 5.992-41.326 16.889-58.13 32.082-26.5 23.967-43.209 56.647-46.975 92.038-.235 2.25.471 4.509 1.977 6.199 1.553 1.68 3.718 2.65 5.978 2.65h42.785v134.852c0 20.169 16.427 36.586 36.573 36.586h113.812c20.193 0 36.62-16.417 36.62-36.586v-134.852h42.786c2.259 0 4.424-.97 5.931-2.659 1.553-1.68 2.259-3.94 2.024-6.189-3.767-35.392-20.476-68.071-46.976-92.039z" fill="#242222"/></g></svg>