<?xml version="1.0" encoding="iso-8859-1"?>
<!-- Generator: Adobe Illustrator 27.2.0, SVG Export Plug-In . SVG Version: 6.00 Build 0)  -->
<svg version="1.1" id="Capa_1" xmlns="http://www.w3.org/2000/svg" xmlns:xlink="http://www.w3.org/1999/xlink" x="0px" y="0px"
	 viewBox="0 0 510.002 510.002" style="enable-background:new 0 0 510.002 510.002;" xml:space="preserve">
<g>
	<g>
		<g>
			<path style="fill:#FFCC43;" d="M499.944,305.819c0,62.191-50.416,112.607-112.607,112.607
				c-149.211-5.521-149.17-219.717,0.001-225.215C449.528,193.211,499.944,243.628,499.944,305.819z"/>
		</g>
		<g>
			<path style="fill:#FF9000;" d="M488.62,355.081c-52.037,105.804-212.845,70.417-213.89-49.262
				c0-48.658,30.87-90.118,74.1-105.848C304.74,290.23,394.124,389.593,488.62,355.081z"/>
		</g>
	</g>
	<g>
		<g>
			<g>
				<path style="fill:#C99BF7;" d="M264.091,132.976c16.844,0,30.498,13.655,30.498,30.498v307.013
					c0,16.844-13.654,30.498-30.498,30.498H40.439c-16.844,0-30.498-13.654-30.498-30.498V163.474
					c0-16.843,13.654-30.498,30.498-30.498H264.091z"/>
			</g>
			<g>
				<path style="fill:#6A64FB;" d="M183.859,500.98H40.44c-16.84,0-30.5-13.65-30.5-30.49V163.47c0-16.84,13.66-30.49,30.5-30.49
					h85.98C48.507,246.028,76.363,420.657,183.859,500.98z"/>
			</g>
			<g>
				<rect x="60.771" y="253.823" style="fill:#FFFFFF;" width="182.988" height="60.996"/>
			</g>
			<g>
				<path style="fill:#CFDDFE;" d="M81.51,285.471c0,9.92,0.51,19.711,1.51,29.35H60.77v-61h22.49
					C82.1,264.201,81.51,274.761,81.51,285.471z"/>
			</g>
			<g>
				<path style="fill:#FFFFFF;" d="M243.76,253.821v61H83.02c-2.09-19.972-2.004-41.072,0.24-61H243.76z"/>
			</g>
		</g>
		<g>
			<g>
				<path style="fill:#FFFFFF;" d="M233.903,191.072H71.247V38.582c0-16.844,13.654-30.498,30.498-30.498h162.656
					c-16.844,0-30.498,13.654-30.498,30.498C233.903,38.582,233.903,191.072,233.903,191.072z"/>
			</g>
			<g>
				<path style="fill:#85B3F7;" d="M293.898,70.997h-60.996V40.499c0-16.844,13.654-30.498,30.498-30.498
					c16.844,0,30.498,13.654,30.498,30.498C293.898,40.499,293.898,70.997,293.898,70.997z"/>
			</g>
		</g>
	</g>
</g>
<g>
	<g>
		<g>
			<g>
				<path style="fill:#85B3F7;" d="M177.739,80.997h-50.83c-13.237-0.484-13.26-19.507,0-20c0,0,50.83,0,50.83,0
					c5.523,0,10,4.477,10,10S183.262,80.997,177.739,80.997z"/>
			</g>
			<g>
				<path style="fill:#85B3F7;" d="M177.739,141.993h-50.83c-13.237-0.484-13.26-19.507,0-20c0,0,50.83,0,50.83,0
					c5.523,0,10,4.477,10,10S183.262,141.993,177.739,141.993z"/>
			</g>
		</g>
		<g>
			<path style="fill:#002678;" d="M388.174,182.989c-31.494,0-61.178,12.052-83.526,33.14v-53.638
				c0-22.331-18.167-40.498-40.498-40.498h-20.498V80.997h50.996c5.522,0,10-4.477,10-10V40.499
				c0-22.331-18.167-40.498-40.498-40.498H101.494c-22.331,0-40.498,18.167-40.498,40.498v81.494H40.498
				C18.167,121.993,0,140.16,0,162.491v307.012c0,22.331,18.167,40.498,40.498,40.498h223.651c22.331,0,40.498-18.167,40.498-40.498
				V393.5c76.036,72.93,206.102,17.104,205.352-88.687C510,237.64,455.349,182.989,388.174,182.989z M284.647,40.499v20.498h-40.996
				c0,0,0-20.498,0-20.498C244.681,13.342,283.622,13.352,284.647,40.499z M80.996,40.499c0-11.303,9.195-20.498,20.498-20.498
				h127.738c-3.637,6.185-5.58,13.318-5.581,20.498c0,20.203,0,120.264,0,142.49H80.996V40.499z M264.149,490.001H40.498
				c-11.303,0-20.498-9.195-20.498-20.498V162.491c0-11.303,9.195-20.498,20.498-20.498h20.498v50.996c0,5.523,4.477,10,10,10
				h162.655c5.523,0,10-4.477,10-10v-50.996c0,0,20.498,0,20.498,0c11.303,0,20.498,9.195,20.498,20.498
				c0.008,47.641-0.006,154.979,0,203.503c0,0.022,0,103.484,0,103.51C284.647,480.806,275.452,490.001,264.149,490.001z
				 M388.174,406.64c-33.432,0-64.437-16.242-83.526-43.591V246.58C361.38,165.448,489.728,205.732,490,304.816
				C490,360.962,444.321,406.64,388.174,406.64z"/>
			<path style="fill:#002678;" d="M243.817,365.976h-20.332c-13.245,0.488-13.252,19.51,0,20c0,0,20.332,0,20.332,0
				C257.063,385.489,257.069,366.466,243.817,365.976z"/>
			<path style="fill:#002678;" d="M162.49,365.976h-20.332c-13.245,0.488-13.252,19.51,0,20c0,0,20.332,0,20.332,0
				C175.735,385.489,175.742,366.466,162.49,365.976z"/>
			<path style="fill:#002678;" d="M81.162,365.976H60.83c-13.245,0.488-13.252,19.51,0,20c0,0,20.331,0,20.331,0
				C94.407,385.489,94.414,366.466,81.162,365.976z"/>
			<path style="fill:#002678;" d="M243.817,426.972h-20.332c-13.245,0.488-13.252,19.51,0,20c0,0,20.332,0,20.332,0
				C257.063,446.485,257.069,427.462,243.817,426.972z"/>
			<path style="fill:#002678;" d="M162.49,426.972h-20.332c-13.245,0.488-13.252,19.51,0,20c0,0,20.332,0,20.332,0
				C175.735,446.485,175.742,427.462,162.49,426.972z"/>
			<path style="fill:#002678;" d="M81.162,426.972H60.83c-13.245,0.488-13.252,19.51,0,20c0,0,20.331,0,20.331,0
				C94.407,446.485,94.414,427.462,81.162,426.972z"/>
		</g>
	</g>
	<path style="fill:#FFFFFF;" d="M400.791,294.815h-24.907c-10.919,0.07-16.53-13.516-8.714-21.145
		c2.357-2.339,5.475-3.643,8.879-3.589l23.826,0c4.704,0.035,9.349,2.132,12.743,5.754c9.403,9.329,23.302-3.666,14.594-13.676
		c-7.497-8.025-18.086-12.412-28.875-12.078V238.38c0-5.523-4.478-10-10-10s-10,4.477-10,10v11.701
		c-18.498-1.377-35.049,13.706-34.821,32.366c0,17.847,14.52,32.367,32.368,32.367h24.907c10.915-0.075,16.53,13.519,8.713,21.145
		c-2.355,2.339-5.492,3.616-8.879,3.589c0,0-25.998,0-25.998,0c-3.334-0.025-6.861-1.211-9.931-3.341
		c-4.536-3.146-10.768-2.021-13.917,2.517c-3.147,4.538-2.021,10.769,2.517,13.917c6.436,4.463,13.76,6.852,21.257,6.907h3.784
		v11.701c0,5.523,4.478,10,10,10s10-4.477,10-10v-11.701c18.502,1.35,35.049-13.694,34.821-32.366
		C433.158,309.335,418.639,294.815,400.791,294.815z"/>
</g>
<g>
</g>
<g>
</g>
<g>
</g>
<g>
</g>
<g>
</g>
<g>
</g>
<g>
</g>
<g>
</g>
<g>
</g>
<g>
</g>
<g>
</g>
<g>
</g>
<g>
</g>
<g>
</g>
<g>
</g>
</svg>
