<?xml version="1.0" encoding="iso-8859-1"?>
<!-- Generator: Adobe Illustrator 28.2.0, SVG Export Plug-In . SVG Version: 6.00 Build 0)  -->
<svg version="1.1" id="Capa_1" xmlns="http://www.w3.org/2000/svg" xmlns:xlink="http://www.w3.org/1999/xlink" x="0px" y="0px"
	 viewBox="0 0 512 512" style="enable-background:new 0 0 512 512;" xml:space="preserve">
<g>
	<g>
		<path style="fill:#67CCD1;" d="M277.686,274.817h204.321c11.042,0,19.993-8.976,19.993-20.049V30.049
			C502,18.976,493.049,10,482.007,10H157.296c-11.042,0-19.993,8.976-19.993,20.049V53.98L277.686,274.817z"/>
		<path style="fill:#27A2CC;" d="M330.643,138.181v136.635h-52.955L137.307,53.979V30.051c0-11.075,8.946-20.051,19.991-20.051
			h97.004C299.757,34.58,330.643,82.766,330.643,138.181z"/>
		<path style="fill:#D46B5C;" d="M60.95,358.424l0.742-207.795c0-53.378,43.15-96.65,96.379-96.65h26.118
			c53.229,0,96.379,43.272,96.379,96.65l-3.883,205.784L60.95,358.424z"/>
		<path style="fill:#FDBEB9;" d="M204.051,297.284l5.661,22.44c1.517,6.014,4.193,11.475,7.748,16.108l1.797,1.753
			c7.771,7.582,17.631,12.652,28.305,14.555l6.416,1.144l23.885,4.632c15.96,3.095,28.609,16.211,32.045,33.228l8.252,40.867
			L332.294,502L10,501.999l14.769-73.141l7.616-37.715c3.436-17.016,16.085-30.132,32.045-33.228l24.119-4.677l5.746-0.971
			c11.694-1.976,22.419-7.746,30.529-16.423h0c3.56-4.635,6.24-10.101,7.758-16.121l5.927-23.498L204.051,297.284z"/>
		<path style="fill:#FFFFFF;" d="M332.29,502H10l14.77-73.137l7.611-37.723c3.444-17.009,16.085-30.133,32.05-33.225l24.118-4.679
			l5.743-0.964c6.677-1.125,13.033-3.494,18.766-6.928l17.25,29.51h81.752l17.29-29.52c5.583,3.344,11.748,5.653,18.214,6.808
			l6.416,1.145l23.887,4.629c15.955,3.093,28.606,16.216,32.04,33.225l8.254,40.866L332.29,502z"/>
		<path style="fill:#B1D952;" d="M332.29,502H10l14.77-73.137l7.611-37.723c3.444-17.009,16.085-30.133,32.05-33.225l24.118-4.679
			l5.743-0.964c6.677-1.125,13.033-3.494,18.766-6.928l58.086,99.384l58.207-99.394c5.583,3.344,11.748,5.653,18.214,6.808
			l6.416,1.145l23.887,4.629c15.955,3.093,28.606,16.216,32.04,33.225l8.254,40.866L332.29,502z"/>
		<path style="fill:#FDBEB9;" d="M258.889,181.088c17.441,0,31.58,14.179,31.58,31.669v0c0,17.49-14.139,31.669-31.58,31.669H83.37
			c-17.441,0-31.58-14.179-31.58-31.669v0c0-17.49,14.139-31.669,31.58-31.669H258.889z"/>
		<path style="fill:#FDBEB9;" d="M203.411,295.197L203.411,295.197c-20.322,10.189-44.241,10.189-64.563,0l0,0
			c-24.455-12.262-39.902-37.326-39.902-64.744l0.451-49.365l2.521-0.773c32.811-10.06,58.686-35.504,69.359-68.203l0,0l0.027,0.082
			c10.706,32.652,36.575,58.046,69.356,68.082l2.653,0.812v49.365C243.313,257.87,227.865,282.935,203.411,295.197z"/>
		<path style="fill:#FDBEB9;" d="M380.564,330.519h-0.999c-16.428,0-29.745,13.317-29.745,29.745V402.4h60.488v-42.137
			C410.309,343.836,396.991,330.519,380.564,330.519z"/>
		<polygon style="fill:#B1D952;" points="332.294,502 410.309,502 410.309,399.113 349.82,399.113 		"/>
		<path style="fill:#FD7DA0;" d="M209.934,321.371c-10.906,7.423-23.908,11.731-37.87,11.731c-14.639,0-28.217-4.731-39.444-12.827
			l5.792-24.049l65.739,1.115l5.673,23.587C209.861,321.073,209.897,321.227,209.934,321.371z"/>
	</g>
	<g>
		<g>
			<path style="fill:#91B706;" d="M77.334,508.423c-5.522,0-10-4.477-10-10v-74.912c0-5.523,4.478-10,10-10s10,4.477,10,10v74.912
				C87.334,503.946,82.856,508.423,77.334,508.423z"/>
		</g>
		<g>
			<path style="fill:#91B706;" d="M265.22,508.423c-5.522,0-10-4.477-10-10v-74.912c0-5.523,4.478-10,10-10s10,4.477,10,10v74.912
				C275.22,503.946,270.742,508.423,265.22,508.423z"/>
		</g>
		<g>
			<path style="fill:#FFFFFF;" d="M430.302,103.224H262.988c-5.522,0-10-4.477-10-10s4.478-10,10-10h167.313c5.522,0,10,4.477,10,10
				S435.824,103.224,430.302,103.224z"/>
		</g>
		<g>
			<path style="fill:#FFFFFF;" d="M369.294,158.58h-86.597c-5.522,0-10-4.477-10-10s4.478-10,10-10h86.597c5.522,0,10,4.477,10,10
				S374.816,158.58,369.294,158.58z"/>
		</g>
		<g>
			<path style="fill:#B55348;" d="M171.277,122.112c-5.522,0-10-4.477-10-10V53.98c0-5.523,4.478-10,10-10s10,4.477,10,10v58.132
				C181.277,117.635,176.8,122.112,171.277,122.112z"/>
		</g>
		<path style="fill:#052A75;" d="M482.007,0H157.296c-16.538,0-29.992,13.48-29.992,30.049v18.485
			c-43.703,13.262-75.612,54.01-75.612,102.095v35.18c-6.168,7.271-9.901,16.678-9.901,26.947c0,10.146,3.642,19.454,9.678,26.689
			c-0.332,0.995-0.518,2.055-0.518,3.161v109.309c-14.32,6.811-24.977,20.454-28.367,37.248L0.198,500.02
			c-0.594,2.94,0.163,5.991,2.062,8.312c1.899,2.321,4.74,3.667,7.739,3.667c58.022,0,349.084,0.001,400.309,0.001
			c5.522,0,10-4.477,10-10c0-27.687,0-115.459,0-141.615c0.038-22.391-18.644-40.516-41.015-39.856v-35.712h102.713
			c16.538,0,29.993-13.48,29.993-30.049V30.049C512,13.48,498.545,0,482.007,0z M158.07,63.98h26.118
			c47.63,0,86.379,38.871,86.379,86.649v22.143c-3.708-1.089-7.624-1.685-11.679-1.685h-14.079l-1.222-0.374
			c-29.633-9.072-53.103-32.113-62.79-61.662c-1.327-4.127-5.162-6.93-9.498-6.94c-0.008,0-0.015,0-0.022,0
			c-4.326,0-8.163,2.783-9.506,6.897c-9.652,29.568-33.123,52.651-62.783,61.745l-1.089,0.333H83.37
			c-4.055,0-7.971,0.595-11.679,1.685v-22.143C71.691,102.851,110.44,63.98,158.07,63.98z M266.684,345.562
			c-10.407-2.372-22.992-2.961-32.165-8.777c-7.518-4.186-13.253-10.89-15.111-19.506l-4.339-17.201
			c16.9-10.671,29.086-26.886,34.726-45.651h9.093c2.665,0,5.269-0.263,7.796-0.745V345.562z M258.889,191.087
			c11.899,0,21.58,9.721,21.58,21.669c0,11.948-9.681,21.669-21.58,21.669h-5.681c0.062-1.319,0.105-2.642,0.105-3.973v-39.365
			H258.889z M233.312,230.453c0,23.788-13.175,45.17-34.384,55.805c-17.407,8.726-38.193,8.727-55.599,0
			c-21.209-10.635-34.384-32.018-34.384-55.714l0.385-42.144c26.341-9.274,48.274-27.785,61.953-51.746
			c13.699,23.968,35.665,42.478,62.028,51.731V230.453z M89.051,234.426H83.37c-11.899,0-21.58-9.721-21.58-21.669
			c0-11.948,9.681-21.669,21.58-21.669h5.935l-0.359,39.365C88.946,231.784,88.989,233.107,89.051,234.426z M83.37,254.426h9.093
			c5.643,18.776,17.841,35,34.756,45.67l-4.334,17.182c-1.125,4.458-3.043,8.525-5.705,12.095
			c-6.537,6.838-15.236,11.46-24.553,13.034c-3.992,0.581-17.496,3.248-21.678,4.059v-93.939
			C74.874,253.759,79.046,254.426,83.37,254.426z M132.129,342.673c0.22-0.235,0.429-0.481,0.625-0.736
			c4.483-5.837,7.688-12.488,9.524-19.767l3.381-13.403c8.255,2.682,16.863,4.026,25.471,4.026c8.619,0,17.238-1.347,25.502-4.036
			l3.383,13.414c1.835,7.271,5.034,13.915,9.511,19.749c1.941,2.231,4.33,4.349,6.567,6.26l-44.938,76.745l-44.856-76.76
			C128.351,346.46,130.301,344.628,132.129,342.673z M22.221,491.999l19.967-98.876c2.643-13.092,12.12-23.058,24.146-25.39
			l24.001-4.655l5.626-0.951c4.514-0.763,8.924-2.027,13.155-3.729l53.397,91.376c1.792,3.067,5.077,4.953,8.629,4.955
			c0.002,0,0.003,0,0.005,0c3.551,0,6.835-1.883,8.63-4.947l53.506-91.377c4.016,1.601,8.205,2.81,12.525,3.58l6.346,1.131
			l23.808,4.617c12.024,2.332,21.503,12.298,24.146,25.39L320.073,492L22.221,491.999z M400.309,492h-56.167l14.119-82.887h42.048
			V492z M380.442,340.519c10.954,0,19.866,8.912,19.866,19.866v28.729H359.82v-28.729c0-10.954,8.912-19.866,19.866-19.866H380.442z
			 M359.294,326.146c-11.652,6.966-19.474,19.704-19.474,34.238v37.881l-8.361,49.081l-11.749-58.182
			c-3.749-18.57-16.379-33.291-33.026-39.177v-65.171h72.609V326.146z M492,254.768c0,5.541-4.483,10.049-9.993,10.049H379.294
			v-69.965c0-5.523-4.478-10-10-10s-10,4.477-10,10v69.965h-72.609v-21.101c8.457-7.633,13.784-18.683,13.784-30.959
			c0-10.334-3.781-19.794-10.02-27.083c0.07-0.478,0.118-0.962,0.118-1.459v-33.584c0-58.807-47.722-106.649-106.379-106.649H158.07
			c-3.634,0-7.225,0.185-10.767,0.543V30.049c0-5.541,4.482-10.049,9.992-10.049h324.711c5.51,0,9.993,4.508,9.993,10.049V254.768z"
			/>
	</g>
</g>
<g>
</g>
<g>
</g>
<g>
</g>
<g>
</g>
<g>
</g>
<g>
</g>
<g>
</g>
<g>
</g>
<g>
</g>
<g>
</g>
<g>
</g>
<g>
</g>
<g>
</g>
<g>
</g>
<g>
</g>
</svg>
