<?xml version="1.0" encoding="iso-8859-1"?>
<!-- Generator: Adobe Illustrator 27.2.0, SVG Export Plug-In . SVG Version: 6.00 Build 0)  -->
<svg version="1.1" id="Capa_1" xmlns="http://www.w3.org/2000/svg" xmlns:xlink="http://www.w3.org/1999/xlink" x="0px" y="0px"
	 viewBox="0 0 510.173 510.173" style="enable-background:new 0 0 510.173 510.173;" xml:space="preserve">
<g>
	<g>
		<g>
			<rect x="10.106" y="136.876" style="fill:#93B2F4;" width="489.96" height="292.206"/>
			<path style="fill:#D2DCFD;" d="M372.798,500.129c-20.04,1.007-36.285-15.238-36.285-35.278c0-20.04,16.245-36.285,36.285-35.77
				H137.375c20.04-0.515,36.285,15.73,36.285,35.77c0,20.039-16.245,36.285-36.285,35.278H372.798z"/>
			<path style="fill:#6864F7;" d="M500.067,169.446v-32.569H80.695c-0.001,70.314-0.003,158.705-0.003,158.705
				c0.024,22.267,10.462,43.013,29.45,58.646c39.243,30.026,90.087,36.792,144.943,37.888c68.75-0.641,169.675-16.55,174.377-95.118
				c0.011-0.471,0.017-0.942,0.017-1.416c0,0-0.001-63.415-0.001-63.415C459.433,219.744,484.299,197.481,500.067,169.446z"/>
		</g>
		<g>
			<path style="fill:#FDCB50;" d="M374.478,53.66l-11.57-0.081c1.349-12.468-9.416-25.052-29.834-33.144
				c-20.921-6.284-48.178-10.085-77.988-10.085c-65.989,0.034-119.49,18.547-119.385,41.651h-0.004l-0.004,243.579h0.004
				c4.1,54.813,234.773,54.734,238.779,0h0.004L374.478,53.66z"/>
			<path style="fill:#B1D952;" d="M374.514,188.081c-49.049,0-88.954-39.904-88.954-88.954
				c4.886-118.009,173.039-117.975,177.908,0.001C463.468,148.177,423.563,188.081,374.514,188.081z"/>
		</g>
	</g>
	<g>
		<path style="fill:#052A75;" d="M500.066,126.876h-30.565C493.384,45.255,408.637-26.763,332.079,9.747
			C278.001-8.407,126.696-2.146,125.697,51.884c-0.07,0.133,0.05,74.854-0.001,74.992c0,0-115.589,0-115.589,0
			c-5.523,0-10,4.478-10,10c0,0,0,292.206,0,292.206c0,5.522,4.477,10,10,10c0,0,128.932,0,128.932,0
			c6.31,0.174,12.244,2.686,16.812,7.14c15.481,14.871,6.575,42.591-15.342,43.908H91.432c-5.523,0-10,4.477-10,10
			c0,5.522,4.477,10,10,10h45.945c1.231,0.058,2.464,0.057,3.691,0h228.036c1.228,0.057,2.46,0.058,3.692,0h45.945
			c5.523,0,10-4.478,10-10c0-5.523-4.477-10-10-10h-49.097c-12.92-0.511-23.357-12.386-23.13-25.279
			c-0.286-13.475,11.116-25.635,24.604-25.769c0,0,128.949,0,128.949,0c5.523,0,10-4.478,10-10c0,0,0-292.206,0-292.206
			C510.066,131.353,505.589,126.876,500.066,126.876z M453.468,99.128c0,43.535-35.418,78.953-78.954,78.953
			c-104.743-4.337-104.712-153.586,0.001-157.907C418.049,20.174,453.468,55.592,453.468,99.128z M364.48,295.283
			c0.124,5.447-8.576,13.264-28.258,20.221c-42.085,15.363-120.186,15.363-162.271-0.001c-19.518-6.789-28.254-14.898-28.254-19.922
			c-0.101-0.245,0.065-53.46-0.003-53.732c48.576,30.168,170.21,30.168,218.785,0L364.48,295.283z M275.635,102.796
			c0.808,22.054,8.866,42.287,21.86,58.383c-38.223,5.604-91.659,2.742-123.544-8.818c-19.518-6.79-28.254-14.898-28.254-19.923
			h-0.001l0.001-51.7C173.176,98.403,231.636,105.882,275.635,102.796z M364.478,197.575l0,15.42h-0.003
			c0,5.024-8.736,13.133-28.254,19.922c-21.521,7.486-50.335,11.609-81.135,11.609c-30.8,0-59.615-4.123-81.136-11.609
			c-19.518-6.789-28.254-14.897-28.254-19.922h-0.003l0.001-51.702c37.344,23.537,119.528,27.675,169.753,17.178
			C329.419,188.898,346.223,195.728,364.478,197.575z M173.951,31.961c35.119-12.711,94.796-14.804,135.099-6.969
			c-16.626,14.699-28.287,34.887-32.117,57.7c-34.006,2.534-76.777-1.39-102.982-10.888c-19.518-6.789-28.254-14.897-28.254-19.922
			S154.433,38.75,173.951,31.961z M334.086,490.13H176.087c10.114-14.895,10.035-36.323-0.264-51.048h158.526
			C324.05,453.806,323.972,475.235,334.086,490.13z M490.066,419.082H20.106V146.876h105.589
			c0.006,0.355-0.015,148.732,0.004,149.058c0.451,33.603,65.313,51.18,129.387,51.18c64.059,0,128.904-17.571,129.387-51.157
			c0.331-0.32-0.226-98.017,0.005-98.374c33.036-3.318,61.329-22.956,76.682-50.706h28.906V419.082z"/>
		<path style="fill:#052A75;" d="M404.109,89.127h-19.596V69.532c0-5.522-4.477-10-10-10c-5.523,0-10,4.477-10,10v19.595h-19.595
			c-5.523,0-10,4.478-10,10c0,5.522,4.477,10,10,10h19.595v19.596c0,5.523,4.477,10,10,10c5.523,0,10-4.477,10-10v-19.596h19.596
			C417.374,108.6,417.37,89.651,404.109,89.127z"/>
	</g>
</g>
<g>
</g>
<g>
</g>
<g>
</g>
<g>
</g>
<g>
</g>
<g>
</g>
<g>
</g>
<g>
</g>
<g>
</g>
<g>
</g>
<g>
</g>
<g>
</g>
<g>
</g>
<g>
</g>
<g>
</g>
</svg>
