<?xml version="1.0" encoding="iso-8859-1"?>
<!-- Generator: Adobe Illustrator 28.1.0, SVG Export Plug-In . SVG Version: 6.00 Build 0)  -->
<svg version="1.1" id="Layer_1" xmlns="http://www.w3.org/2000/svg" xmlns:xlink="http://www.w3.org/1999/xlink" x="0px" y="0px"
	 viewBox="0 0 512 512" style="enable-background:new 0 0 512 512;" xml:space="preserve">
<g>
	<g>
		<g>
			<rect x="14.865" y="451.339" style="fill:#B1D952;" width="482.269" height="50.661"/>
			<path style="fill:#91B706;" d="M122.875,451.339H14.866V502h135.552C138.692,486.835,129.328,469.766,122.875,451.339z"/>
		</g>
		<g>
			<polygon style="fill:#FD6050;" points="466.02,451.339 45.98,451.339 45.98,96.922 256,10 466.02,96.922 			"/>
			<path style="fill:#DB4B86;" d="M161.157,197.321c0-59.168,14.217-115.031,39.435-164.389L45.98,96.922v354.417h219.293
				C200.865,385.857,161.157,296.205,161.157,197.321z"/>
		</g>
		<g>
			<rect x="108.042" y="169.822" style="fill:#FFFFFF;" width="295.916" height="46.506"/>
			<path style="fill:#D2DCFD;" d="M181.157,197.321c0-9.251,0.348-18.422,1.031-27.499h-74.146v46.506h73.606
				C181.322,210.033,181.157,203.696,181.157,197.321z"/>
		</g>
		<g>
			<rect x="128.159" y="216.328" style="fill:#FFFFFF;" width="255.682" height="235.011"/>
			<path style="fill:#D2DCFD;" d="M161.648,216.328h-33.489v235.011h137.114C205.017,390.079,166.38,307.665,161.648,216.328z"/>
		</g>
		<g>
			<path style="fill:#FDCB50;" d="M307.846,451.339H204.154c-11.625,0-21.049-9.424-21.049-21.049v-94.492
				c0-11.625,9.424-21.049,21.049-21.049h103.692c11.625,0,21.049,9.424,21.049,21.049v94.492
				C328.895,441.915,319.471,451.339,307.846,451.339z"/>
		</g>
		<polygon style="fill:#FFFFFF;" points="281.778,376.246 256,367.11 230.222,376.246 230.222,314.749 281.778,314.749 		"/>
	</g>
	<g>
		<g>
			<path style="fill:#6864F7;" d="M377.99,276.659H134.01c-5.522,0-10-4.477-10-10s4.478-10,10-10h243.98c5.522,0,10,4.477,10,10
				S383.513,276.659,377.99,276.659z"/>
		</g>
		<path style="fill:#052A75;" d="M497.135,441.339h-21.114V96.922c0-4.046-2.438-7.693-6.176-9.24L259.824,0.76
			c-2.449-1.014-5.199-1.014-7.648,0L42.155,87.683c-3.738,1.547-6.176,5.194-6.176,9.24v344.417H14.865c-5.522,0-10,4.477-10,10
			V502c0,5.523,4.478,10,10,10h482.27c5.522,0,10-4.477,10-10v-50.661C507.135,445.816,502.657,441.339,497.135,441.339z
			 M55.979,103.606L256,20.823l200.021,82.784v337.732h-62.18V226.328h10.117c5.522,0,10-4.477,10-10v-46.506
			c0-5.523-4.478-10-10-10H108.042c-5.522,0-10,4.477-10,10v46.506c0,5.523,4.478,10,10,10h10.117v215.011h-62.18V103.606z
			 M204.154,441.339c-6.093,0-11.049-4.957-11.049-11.049v-94.493c0-6.092,4.956-11.048,11.049-11.048h103.691
			c6.093,0,11.049,4.956,11.049,11.048v94.493c0,6.092-4.956,11.049-11.049,11.049H204.154z M307.846,304.749H204.154
			c-17.12,0-31.049,13.928-31.049,31.048v94.493c0,3.89,0.719,7.615,2.031,11.049h-36.978V226.328h235.682v215.011h-36.978
			c1.312-3.434,2.031-7.159,2.031-11.049v-94.493C338.895,318.677,324.966,304.749,307.846,304.749z M118.042,206.328v-26.506
			h275.916v26.506H118.042z M487.135,492H24.865v-30.661h462.27V492z"/>
		<g>
			<path style="fill:#FFFFFF;" d="M298.806,115.185h-85.611c-5.522,0-10-4.477-10-10s4.478-10,10-10h85.611c5.522,0,10,4.477,10,10
				S304.328,115.185,298.806,115.185z"/>
		</g>
	</g>
</g>
<g>
</g>
<g>
</g>
<g>
</g>
<g>
</g>
<g>
</g>
<g>
</g>
<g>
</g>
<g>
</g>
<g>
</g>
<g>
</g>
<g>
</g>
<g>
</g>
<g>
</g>
<g>
</g>
<g>
</g>
</svg>
