<?xml version="1.0" encoding="iso-8859-1"?>
<!-- Generator: Adobe Illustrator 27.5.0, SVG Export Plug-In . SVG Version: 6.00 Build 0)  -->
<svg version="1.1" id="Layer_1" xmlns="http://www.w3.org/2000/svg" xmlns:xlink="http://www.w3.org/1999/xlink" x="0px" y="0px"
	 viewBox="0 0 512 512" style="enable-background:new 0 0 512 512;" xml:space="preserve">
<g>
	<g>
		<g>
			
				<rect x="-138.145" y="256.613" transform="matrix(6.123234e-17 -1 1 6.123234e-17 -197.5038 363.8554)" style="fill:#D2DCFD;" width="442.641" height="48.133"/>
			<path style="fill:#93B2F4;" d="M107.242,90.007c-5.212,1.653-10.176,4.092-14.746,7.277L59.11,120.542v118.752
				c1.264,0.088,2.534,0.145,3.811,0.145c11.236,0,22.055-3.4,31.29-9.833l13.031-9.078V90.007z"/>
			
				<rect x="207.493" y="256.613" transform="matrix(4.378193e-11 -1 1 4.378193e-11 148.1338 709.4929)" style="fill:#D2DCFD;" width="442.641" height="48.133"/>
			<path style="fill:#93B2F4;" d="M452.88,120.542l-33.383-23.256c-4.573-3.186-9.537-5.625-14.75-7.278v130.521l13.034,9.079
				c9.234,6.432,20.054,9.832,31.289,9.832c1.277,0,2.546-0.057,3.81-0.145V120.542z"/>
		</g>
		<g>
			<path style="fill:#FFFFFF;" d="M449.07,207.44c-4.494,0-9.033-1.327-13-4.09l-55.038-38.341H130.958L75.919,203.35
				c-10.322,7.19-24.519,4.652-31.709-5.67s-4.652-24.519,5.67-31.709l60.907-42.429c3.82-2.661,8.364-4.088,13.02-4.088h264.377
				c4.656,0,9.2,1.427,13.02,4.088l60.906,42.429c10.322,7.191,12.86,21.387,5.67,31.709
				C463.352,204.035,456.269,207.44,449.07,207.44z"/>
		</g>
		<g>
			<rect x="40.12" y="10" style="fill:#FFFFFF;" width="431.749" height="49.359"/>
			<path style="fill:#DB4B86;" d="M342.613,440.546H169.377c-5.545,0-10.041-4.495-10.041-10.041v-14.578
				c0-13.828,11.21-25.038,25.038-25.038h143.243c13.828,0,25.038,11.21,25.038,25.038v14.578
				C352.654,436.05,348.158,440.546,342.613,440.546z"/>
			<path style="fill:#BC3C85;" d="M228.815,390.89h-44.442c-13.828,0-25.038,11.21-25.038,25.038v14.578
				c0,5.545,4.495,10.041,10.041,10.041h74.664C237.356,424.744,232.227,408.125,228.815,390.89z"/>
			<path style="fill:#FD7DA0;" d="M325.682,388.684H186.308V232.005c0-6.566,5.323-11.889,11.889-11.889h115.595
				c6.566,0,11.889,5.323,11.889,11.889V388.684z"/>
			<path style="fill:#DB4B86;" d="M223.921,340.905c0-43.686,10.956-84.808,30.252-120.789h-55.976
				c-6.566,0-11.889,5.323-11.889,11.889v156.679h42.085C225.469,373.203,223.921,357.236,223.921,340.905z"/>
		</g>
	</g>
	<g>
		<g>
			<path style="fill:#93B2F4;" d="M255.995,188.477c-5.523,0-10-4.477-10-10v-3.467l-2-2.387v-16.161l2-1.451v-25.56l-2-2.049
				V111.24l2-1.79V59.359c0-5.523,4.477-10,10-10c5.522,0,10,4.477,10,10v50.091l2,1.641v16.161l-2,2.197v25.56l2,1.748v16.606
				l-2,1.646v3.467C265.995,184,261.517,188.477,255.995,188.477z"/>
		</g>
		<path style="fill:#052A75;" d="M471.875,69.36c5.52,0,10-4.48,10-10V10c0-5.52-4.48-10-10-10H40.125c-5.53,0-10,4.48-10,10v49.36
			c0,5.52,4.47,10,10,10h8.98v84.96l-4.94,3.45c-14.83,10.33-18.49,30.8-8.16,45.63c3.44,4.93,8,8.62,13.1,10.98V492h-8.98
			c-5.53,0-10,4.48-10,10s4.47,10,10,10h431.75c5.52,0,10-4.48,10-10s-4.48-10-10-10h-9V214.38c5.2-2.41,9.75-6.16,13.11-10.98
			c5.01-7.19,6.91-15.89,5.37-24.51c-1.54-8.62-6.35-16.12-13.53-21.12l-4.95-3.45V69.36H471.875z M97.245,492h-28.14V216.83
			c4.38-0.83,8.65-2.57,12.53-5.27l15.61-10.88V492z M303.655,492h-95.32v-41.45h95.32V492z M327.615,400.89
			c8.29,0,15.04,6.75,15.04,15.04l-0.02,14.61c0,0-0.01,0.01-0.02,0.01l-173.28-0.05v-14.57c0-8.29,6.75-15.04,15.04-15.04H327.615z
			 M196.305,380.89V232c0-1.04,0.85-1.88,1.89-1.88h115.6c1.04,0,1.89,0.84,1.89,1.88v148.89H196.305z M442.875,492h-28.13V200.68
			l15.61,10.88c3.8,2.64,8.06,4.41,12.52,5.27V492z M459.575,191.96c-2.39,3.43-6.32,5.48-10.5,5.48c-2.61,0-5.13-0.79-7.29-2.3
			l-55.04-38.34c-1.67-1.17-3.67-1.79-5.71-1.79h-115.04v20h111.9l16.85,11.74V492h-71.09v-41.45h18.96
			c11.05,0,20.04-8.99,20.04-20.05v-14.57c0-16.55-11.53-30.44-26.97-34.09V232c0-12.06-9.82-21.88-21.89-21.88h-115.6
			c-12.07,0-21.89,9.82-21.89,21.88v149.84c-15.44,3.65-26.97,17.54-26.97,34.09v14.57c0,11.06,8.99,20.05,20.04,20.05h18.96V492
			h-71.09V186.75l16.85-11.74h111.9v-20h-115.04c-2.04,0-4.04,0.62-5.71,1.79l-55.04,38.34c-5.78,4.03-13.76,2.6-17.79-3.18
			c-1.95-2.8-2.69-6.19-2.09-9.55c0.6-3.36,2.47-6.28,5.27-8.23l60.91-42.43c2.15-1.5,4.68-2.3,7.3-2.3h122.19v-20h-122.19
			c-2.22,0-4.42,0.25-6.56,0.68V69.36h277.5v40.77c-2.14-0.43-4.34-0.68-6.56-0.68h-122.19v20h122.19c2.62,0,5.15,0.8,7.3,2.3
			l60.91,42.43c2.8,1.95,4.67,4.87,5.27,8.23C462.265,185.77,461.525,189.16,459.575,191.96z M69.105,140.39V69.36h28.14v51.43
			L69.105,140.39z M414.745,120.79V69.36h28.13v71.03L414.745,120.79z M461.875,49.36H50.125V20h411.75V49.36z"/>
	</g>
</g>
<g>
</g>
<g>
</g>
<g>
</g>
<g>
</g>
<g>
</g>
<g>
</g>
<g>
</g>
<g>
</g>
<g>
</g>
<g>
</g>
<g>
</g>
<g>
</g>
<g>
</g>
<g>
</g>
<g>
</g>
</svg>
