<?xml version="1.0" encoding="iso-8859-1"?>
<!-- Generator: Adobe Illustrator 27.5.0, SVG Export Plug-In . SVG Version: 6.00 Build 0)  -->
<svg version="1.1" id="Layer_1" xmlns="http://www.w3.org/2000/svg" xmlns:xlink="http://www.w3.org/1999/xlink" x="0px" y="0px"
	 viewBox="0 0 510 510" style="enable-background:new 0 0 510 510;" xml:space="preserve">
<g>
	<g>
		<g>
			<g>
				<circle style="fill:#6864F7;" cx="309.471" cy="241.267" r="68.372"/>
			</g>
			<g>
				<circle style="fill:#93B2F4;" cx="255" cy="111.697" r="101.697"/>
			</g>
			<g>
				<path style="fill:#FDE0BE;" d="M221.445,266.238v10.776c0,16.224-11.779,30.049-27.797,32.625l-77.667,12.49
					C83.721,327.316,60,355.157,60,387.831V500h390V387.831c0-32.674-23.721-60.515-55.981-65.703l-77.667-12.49
					c-16.019-2.576-27.797-16.4-27.797-32.625v-10.776H221.445z"/>
			</g>
			<g>
				<path style="fill:#F7B073;" d="M221.445,266.238v10.776c0,11.863-6.302,22.437-15.949,28.274
					c13.181,11.678,30.509,18.78,49.504,18.78h0c18.995,0,36.323-7.102,49.504-18.78c-9.648-5.838-15.949-16.411-15.949-28.275
					v-10.776H221.445z"/>
			</g>
			<g>
				<g>
					<path style="fill:#FDE0BE;" d="M180.302,155.059L180.302,155.059c0-35.896,29.099-64.995,64.995-64.995h19.405
						c35.896,0,64.995,29.099,64.995,64.995v0v42.206c0,41.255-33.443,74.698-74.698,74.698h0
						c-41.255,0-74.698-33.443-74.698-74.698V155.059z"/>
				</g>
				<g>
					<path style="fill:#F7B073;" d="M264.703,90.064h-19.405c-35.896,0-64.995,29.099-64.995,64.995v0v42.206
						c0,1.722,0.079,3.424,0.194,5.116c2.451-33.66,30.516-60.212,64.801-60.212h19.405c34.285,0,62.35,26.552,64.802,60.212
						c0.115-1.693,0.194-3.395,0.194-5.116v-42.206v0C329.698,119.163,300.599,90.064,264.703,90.064z"/>
				</g>
			</g>
		</g>
		<g>
			<g>
				<path style="fill:#FD7DA0;" d="M394.019,322.128l-77.667-12.49l0,0V500H450V387.831
					C450,355.157,426.279,327.316,394.019,322.128z"/>
			</g>
			<g>
				<path style="fill:#FD7DA0;" d="M115.981,322.128l77.667-12.49l0,0V500H60V387.831C60,355.157,83.722,327.316,115.981,322.128z"
					/>
			</g>
			<g>
				<path style="fill:#DB4B86;" d="M121.103,321.305l-5.122,0.824C83.722,327.316,60,355.157,60,387.831V500h133.648v-18.742
					C151.233,440.484,123.965,384.078,121.103,321.305z"/>
			</g>
			<g>
				<path style="fill:#D46B5C;" d="M193.648,369.869l0,130.131h122.704V369.869C282.468,403.753,227.532,403.753,193.648,369.869z"
					/>
			</g>
		</g>
	</g>
	<g>
		<g>
			<g>
				<path style="fill:#DB4B86;" d="M255,223.394c-7.48,0-14.512-2.913-19.801-8.202c-3.905-3.905-3.905-10.237,0-14.143
					c3.905-3.905,10.237-3.905,14.143,0c1.511,1.512,3.521,2.344,5.659,2.344s4.146-0.833,5.658-2.344
					c3.904-3.905,10.236-3.906,14.143,0c3.905,3.905,3.905,10.237,0,14.142C269.512,220.481,262.479,223.394,255,223.394z"/>
			</g>
			<g>
				<path style="fill:#FDBEB9;" d="M371.416,143.735L371.416,143.735L371.416,143.735c18.357,2.667,25.686,25.226,12.403,38.173l0,0
					l0,0c3.136,18.282-16.054,32.224-32.472,23.592l0,0l0,0c-16.419,8.632-35.608-5.31-32.472-23.592l0,0l0,0
					c-13.283-12.948-5.953-35.506,12.403-38.173h0l0,0C339.488,127.101,363.207,127.101,371.416,143.735z"/>
			</g>
		</g>
		<path style="fill:#052A75;" d="M441.719,338.187c-11.789-13.836-28.166-23.045-46.112-25.931l-41.409-6.659
			c4.593-3.198,8.878-6.89,12.754-11.068c13.473-14.524,20.892-33.439,20.892-53.261c0-10.373-2.077-20.643-6.042-30.158
			c8.022-6.311,12.508-15.814,12.347-25.845c6.276-8.353,8.153-19.208,4.846-29.387s-11.206-17.859-21.194-20.928
			c-3.09-4.401-7.176-7.889-11.869-10.247c0.506-4.325,0.767-8.674,0.767-13.005c0-61.547-50.038-111.625-111.568-111.695V0
			c-0.014,0-0.029,0.001-0.043,0.001C255.057,0.001,255.029,0,255,0c-61.59,0-111.697,50.107-111.697,111.697
			c0,26.845,9.563,52.536,26.999,72.799v12.77c0,30.785,16.513,57.779,41.143,72.609v7.14c0,11.376-8.153,20.945-19.385,22.751
			l-77.667,12.49c-17.947,2.886-34.323,12.095-46.112,25.931C56.492,352.023,50,369.654,50,387.831V500c0,5.523,4.477,10,10,10h390
			c5.522,0,10-4.477,10-10V387.831C460,369.654,453.508,352.023,441.719,338.187z M203.648,390.569
			c15.245,9.582,32.904,14.713,51.353,14.713c18.449,0,36.108-5.131,51.352-14.713V490H203.648V390.569z M315.666,299.275
			c-10.04-2.652-17.112-11.669-17.112-22.261v-7.116c4.756-2.856,9.263-6.179,13.432-9.972
			c12.456-11.335,21.147-25.967,25.171-42.055c4.731,0.558,9.571,0.071,14.19-1.511c3.405,1.167,6.93,1.746,10.444,1.746
			c0.412,0,0.824-0.033,1.236-0.048c3.16,7.291,4.815,15.208,4.815,23.21C367.843,270.974,345.038,296.166,315.666,299.275z
			 M379.972,162.057c1.489,4.583,0.318,9.327-3.132,12.69c-2.357,2.297-3.433,5.607-2.877,8.852
			c0.815,4.75-1.026,9.276-4.925,12.108c-3.899,2.833-8.773,3.184-13.038,0.942c-1.457-0.766-3.055-1.148-4.653-1.148
			s-3.197,0.383-4.653,1.149c-4.267,2.242-9.139,1.89-13.037-0.942s-5.74-7.359-4.925-12.108c0.556-3.244-0.52-6.554-2.877-8.852
			c-3.45-3.363-4.621-8.107-3.132-12.69c1.488-4.583,5.225-7.733,9.994-8.426c3.257-0.473,6.072-2.519,7.529-5.47
			c2.132-4.321,6.282-6.901,11.101-6.901c4.819,0,8.97,2.58,11.102,6.901c1.457,2.951,4.272,4.997,7.529,5.47
			C374.747,154.323,378.483,157.474,379.972,162.057z M346.697,111.697c0,3.326-0.202,6.664-0.566,9.989
			c-4.376,0.702-8.494,2.277-12.146,4.595c-11.349-27.549-38.298-46.217-69.282-46.217h-9.574c-16.56,0-30.032-13.473-30.032-30.032
			c0-16.545,13.449-30.007,29.989-30.031C305.609,20.048,346.697,61.164,346.697,111.697z M208.112,32.925
			c-1.949,5.34-3.015,11.101-3.015,17.107c0,13.483,5.371,25.729,14.073,34.735c-26.304,9.809-45.666,33.976-48.502,62.924
			c-4.812-11.267-7.365-23.474-7.365-35.995C163.303,78.257,181.299,48.946,208.112,32.925z M190.302,197.265V155.06
			c0-30.325,24.671-54.996,54.995-54.996h19.406c24.396,0,45.38,15.779,52.452,38.452c-6.254,3.948-11.06,9.994-13.454,17.361
			c-3.308,10.179-1.431,21.034,4.846,29.387c-0.145,9.032,3.476,17.64,10.055,23.873c-5.594,30.465-32.044,52.827-63.602,52.827
			C219.326,261.963,190.302,232.94,190.302,197.265z M231.41,278.596c7.494,2.177,15.403,3.368,23.59,3.368
			c8.063,0,15.994-1.148,23.591-3.347c0.638,17.601,11.731,32.642,27.762,38.658v48.299c-14.118,12.737-32.198,19.709-51.352,19.709
			c-19.154,0-37.235-6.972-51.353-19.709v-48.299C219.685,311.257,230.78,296.206,231.41,278.596z M70,387.831
			c0-27.917,20.005-51.397,47.569-55.83l66.079-10.626V490H70V387.831z M440,490H326.353V321.375l66.078,10.626
			c27.563,4.433,47.569,27.912,47.569,55.83V490z"/>
	</g>
</g>
<g>
</g>
<g>
</g>
<g>
</g>
<g>
</g>
<g>
</g>
<g>
</g>
<g>
</g>
<g>
</g>
<g>
</g>
<g>
</g>
<g>
</g>
<g>
</g>
<g>
</g>
<g>
</g>
<g>
</g>
</svg>
