<?xml version="1.0" encoding="iso-8859-1"?>
<!-- Generator: Adobe Illustrator 27.0.0, SVG Export Plug-In . SVG Version: 6.00 Build 0)  -->
<svg version="1.1" id="Capa_1" xmlns="http://www.w3.org/2000/svg" xmlns:xlink="http://www.w3.org/1999/xlink" x="0px" y="0px"
	 viewBox="0 0 512 512" style="enable-background:new 0 0 512 512;" xml:space="preserve">
<g>
	<g>
		<g>
			<g>
				<g>
					<g>
						<path style="fill:#FFFFFF;" d="M415.981,88.365L415.981,88.365c-29.583,0-53.564,23.981-53.564,53.564v1.488h107.128v-1.488
							C469.545,112.346,445.564,88.365,415.981,88.365z"/>
					</g>
					<g>
						<path style="fill:#D46B5C;" d="M415.981,88.365L415.981,88.365c-18.468,0-33.44-14.972-33.44-33.44V43.44
							c0-18.468,14.972-33.44,33.44-33.44h0c18.468,0,33.44,14.972,33.44,33.44v11.485
							C449.421,73.393,434.449,88.365,415.981,88.365z"/>
					</g>
				</g>
				<g>
					<g>
						<path style="fill:#FFFFFF;" d="M415.981,446.948L415.981,446.948c-29.583,0-53.564,23.981-53.564,53.564V502h107.128v-1.488
							C469.545,470.929,445.564,446.948,415.981,446.948z"/>
					</g>
					<g>
						<path style="fill:#FDBEB9;" d="M415.981,446.948L415.981,446.948c-18.468,0-33.44-14.972-33.44-33.44v-11.485
							c0-18.468,14.972-33.44,33.44-33.44h0c18.468,0,33.44,14.972,33.44,33.44v11.485
							C449.421,431.976,434.449,446.948,415.981,446.948z"/>
					</g>
				</g>
				<g>
					<g>
						<path style="fill:#FFFFFF;" d="M415.981,268.159L415.981,268.159c-29.583,0-53.564,23.981-53.564,53.564v1.488h107.128v-1.488
							C469.545,292.141,445.564,268.159,415.981,268.159z"/>
					</g>
					<g>
						<path style="fill:#FDE0BE;" d="M415.981,268.159L415.981,268.159c-18.468,0-33.44-14.972-33.44-33.44v-11.485
							c0-18.468,14.972-33.44,33.44-33.44h0c18.468,0,33.44,14.972,33.44,33.44v11.485
							C449.421,253.188,434.449,268.159,415.981,268.159z"/>
					</g>
				</g>
			</g>
			<g>
				<g>
					<path style="fill:#FD6050;" d="M96.81,39.598L96.81,39.598C96.81,23.252,110.062,10,126.408,10h15.358
						c16.347,0,29.598,13.252,29.598,29.598v0c0,16.347-13.252,29.598-29.598,29.598h-15.358
						C110.062,69.197,96.81,55.945,96.81,39.598z"/>
				</g>
				<g>
					<polygon style="fill:#FDBEB9;" points="77.317,307.425 93.098,502 134.087,502 134.087,365.566 					"/>
				</g>
				<g>
					<polygon style="fill:#FDBEB9;" points="134.087,341.436 134.087,502 175.076,502 189.459,322.21 					"/>
				</g>
				<g>
					<polygon style="fill:#67CCD1;" points="185.793,189.795 204.767,401.013 134.087,401.013 63.408,401.013 82.382,189.795 					
						"/>
				</g>
				<g>
					<path style="fill:#27A2CC;" d="M114.488,252.218c0-21.752,3.351-42.72,9.554-62.423h-41.66L63.408,401.013h70.68h43.228
						C138.565,363.289,114.488,310.57,114.488,252.218z"/>
				</g>
				<g>
					<path style="fill:#FDBEB9;" d="M98.07,210.367l-13.603,105.06c-1.361,10.515-10.316,18.385-20.919,18.385h0
						c-12.6,0-22.39-10.974-20.957-23.493l13.646-119.201c3.195-27.906,26.815-48.977,54.904-48.977h45.893
						c28.089,0,51.709,21.071,54.904,48.977l13.646,119.201c1.433,12.518-8.357,23.493-20.957,23.493h0
						c-10.603,0-19.558-7.87-20.919-18.385l-13.603-105.06H98.07z"/>
				</g>
				<g>
					<path style="fill:#FDBEB9;" d="M134.087,142.142L134.087,142.142c-20.318,0-36.79-16.471-36.79-36.79V86.263
						c0-20.318,16.471-36.79,36.79-36.79h0c20.318,0,36.79,16.471,36.79,36.79v19.089
						C170.877,125.67,154.406,142.142,134.087,142.142z"/>
				</g>
				<g>
					<g>
						<path style="fill:#FD8F01;" d="M164.041,91.035l6.835,2.895v-7.668c0-20.318-16.471-36.79-36.79-36.79h0
							c-20.318,0-36.79,16.471-36.79,36.79v7.562l4.996-2.011C121.863,82.937,144.255,82.654,164.041,91.035z"/>
					</g>
				</g>
				<g>
					<g>
						<polygon style="fill:none;" points="98.07,210.367 87.233,294.069 180.942,294.069 170.104,210.367 						"/>
					</g>
					<g>
						<path style="fill:#67CCD1;" d="M211.937,191.118c-3.195-27.906-26.815-48.977-54.904-48.977h-45.893
							c-28.089,0-51.709,21.071-54.904,48.977L44.452,294.069h42.781l10.065-77.735l73.579-0.001l10.065,77.736h42.781
							L211.937,191.118z"/>
					</g>
					<g>
						<path style="fill:#27A2CC;" d="M146.048,142.142h-34.907c-28.089,0-51.709,21.071-54.904,48.977L44.452,294.069h42.781
							l10.065-77.735l20.289,0C122.265,189.476,132.108,164.396,146.048,142.142z"/>
					</g>
				</g>
				<g>
					<path style="fill:#FFFFFF;" d="M134.087,502H79.844v-13.235c0-14.979,12.143-27.122,27.122-27.122h0
						c14.979,0,27.122,12.143,27.122,27.122V502z"/>
				</g>
				<g>
					<path style="fill:#FFFFFF;" d="M188.331,502h-54.244v-13.235c0-14.979,12.143-27.122,27.122-27.122h0
						c14.979,0,27.122,12.143,27.122,27.122V502z"/>
				</g>
			</g>
		</g>
	</g>
	<g>
		<g>
			<path style="fill:#052A75;" d="M446.246,86.043c8.118-7.897,13.174-18.926,13.174-31.119V43.44
				c0-23.953-19.487-43.44-43.44-43.44s-43.44,19.487-43.44,43.44v11.485c0,12.193,5.057,23.222,13.175,31.119
				c-19.817,10.775-33.299,31.785-33.299,55.885v1.488c0,5.523,4.477,10,10,10h107.128c5.523,0,10-4.477,10-10v-1.488
				C479.545,117.829,466.064,96.819,446.246,86.043z M392.541,54.925V43.44c0-12.925,10.515-23.44,23.44-23.44
				s23.44,10.515,23.44,23.44v11.485c0,12.925-10.515,23.44-23.44,23.44S392.541,67.85,392.541,54.925z M373.252,133.417
				c3.969-19.961,21.62-35.052,42.729-35.052c21.11,0,38.761,15.091,42.729,35.052H373.252z"/>
			<path style="fill:#052A75;" d="M446.246,444.627c8.118-7.897,13.175-18.926,13.175-31.119v-11.485
				c0-23.953-19.487-43.44-43.44-43.44s-43.44,19.487-43.44,43.44v11.485c0,12.193,5.057,23.222,13.175,31.119
				c-19.817,10.775-33.299,31.785-33.299,55.885V502c0,5.523,4.477,10,10,10h107.128c5.523,0,10-4.477,10-10v-1.488
				C479.545,476.412,466.064,455.402,446.246,444.627z M392.541,413.508v-11.485c0-12.925,10.515-23.44,23.44-23.44
				s23.44,10.515,23.44,23.44v11.485c0,12.925-10.515,23.44-23.44,23.44S392.541,426.433,392.541,413.508z M373.252,492
				c3.969-19.961,21.62-35.052,42.729-35.052c21.11,0,38.761,15.091,42.729,35.052H373.252z"/>
			<path style="fill:#052A75;" d="M446.246,265.838c8.118-7.897,13.175-18.926,13.175-31.119v-11.485
				c0-23.953-19.487-43.439-43.44-43.439s-43.44,19.487-43.44,43.439v11.485c0,12.193,5.057,23.222,13.175,31.119
				c-19.817,10.775-33.299,31.786-33.299,55.885v1.488c0,5.523,4.477,10,10,10h107.128c5.523,0,10-4.477,10-10v-1.488
				C479.545,297.624,466.064,276.614,446.246,265.838z M392.541,234.719v-11.485c0-12.925,10.515-23.439,23.44-23.439
				s23.44,10.515,23.44,23.439v11.485c0,12.925-10.515,23.44-23.44,23.44S392.541,247.644,392.541,234.719z M373.252,313.211
				c3.969-19.961,21.62-35.052,42.729-35.052c21.11,0,38.761,15.091,42.729,35.052H373.252z"/>
			<path style="fill:#052A75;" d="M221.872,189.981c-3.22-28.125-23.977-50.337-50.607-56.266
				c6.022-7.875,9.611-17.706,9.611-28.363V86.263c0-8.767-2.429-16.975-6.641-23.996c4.628-6.597,7.129-14.431,7.129-22.669
				C181.365,17.764,163.601,0,141.766,0h-15.357C104.574,0,86.81,17.764,86.81,39.598c0,8.242,2.499,16.075,7.128,22.67
				c-4.212,7.021-6.64,15.229-6.64,23.995v19.089c0,10.657,3.589,20.488,9.611,28.363c-26.629,5.928-47.387,28.141-50.607,56.266
				L32.656,309.183c-1.007,8.795,1.795,17.628,7.688,24.234c4.77,5.347,11.219,8.846,18.198,9.987l-5.095,56.715
				c-0.251,2.796,0.685,5.57,2.579,7.642c1.895,2.072,4.573,3.252,7.381,3.252h12.278l4.246,52.35
				c-6.248,6.646-10.088,15.581-10.088,25.401V502c0,5.523,4.477,10,10,10c27.04,0,81.454,0,108.487,0c5.523,0,10-4.477,10-10
				v-13.235c0-9.841-3.857-18.793-10.128-25.444l4.184-52.308h12.38c2.808,0,5.486-1.18,7.38-3.252
				c1.895-2.072,2.831-4.846,2.58-7.642l-5.095-56.715c6.979-1.141,13.428-4.64,18.198-9.987c5.893-6.606,8.695-15.439,7.688-24.234
				L221.872,189.981z M107.298,105.352V86.263c0-14.772,12.018-26.79,26.79-26.79s26.79,12.018,26.79,26.79v19.089
				c0,14.772-12.018,26.79-26.79,26.79S107.298,120.124,107.298,105.352z M126.409,20h15.357c10.807,0,19.599,8.792,19.599,19.598
				c0,2.664-0.529,5.243-1.532,7.622c-7.391-4.89-16.239-7.747-25.745-7.747c-9.507,0-18.355,2.857-25.746,7.748
				c-1.004-2.379-1.531-4.958-1.531-7.623C106.81,28.792,115.602,20,126.409,20z M124.087,455.843
				c-5.127-2.677-10.948-4.201-17.122-4.201c-2.693,0-5.318,0.296-7.85,0.843l-3.364-41.472h28.336V455.843z M89.844,488.765
				c0-9.441,7.681-17.122,17.122-17.122s17.122,7.681,17.122,17.122V492H89.844V488.765z M178.331,492h-34.244v-3.235
				c0-9.441,7.681-17.122,17.122-17.122s17.122,7.681,17.122,17.122V492z M169.006,452.473c-2.516-0.54-5.122-0.831-7.797-0.831
				c-6.174,0-11.995,1.523-17.122,4.201v-44.83h28.235L169.006,452.473z M212.905,320.104c-2.133,2.392-5.074,3.709-8.279,3.709
				c-5.559,0-10.288-4.157-11.002-9.669l-13.603-105.061c-0.709-5.477-5.72-9.346-11.201-8.633
				c-5.477,0.709-9.342,5.724-8.633,11.201l13.604,105.06c1.285,9.926,7.22,18.278,15.428,22.986l4.61,51.316H74.346l4.61-51.317
				c8.208-4.708,14.143-13.059,15.428-22.985l13.604-105.061c0.709-5.477-3.156-10.492-8.633-11.201
				c-5.477-0.708-10.492,3.156-11.201,8.633L74.55,314.143c-0.714,5.513-5.443,9.669-11.002,9.669c-3.205,0-6.145-1.317-8.279-3.709
				c-2.133-2.392-3.107-5.462-2.743-8.646l13.646-119.202c2.618-22.869,21.951-40.114,44.969-40.114h45.893
				c23.018,0,42.351,17.245,44.969,40.114l13.646,119.202C216.013,314.641,215.038,317.712,212.905,320.104z"/>
		</g>
		<path style="fill:#93B2F4;" d="M334.104,278.247c5.523,0,10-4.477,10-10s-4.477-10-10-10h-30.163V106.975
			c0-4.65,3.783-8.433,8.433-8.433h21.73c5.523,0,10-4.477,10-10s-4.477-10-10-10h-21.73c-15.678,0-28.433,12.755-28.433,28.433
			v151.272h-27.023c-5.523,0-10,4.477-10,10s4.477,10,10,10h27.023V429.52c0,15.678,12.755,28.433,28.433,28.433h21.73
			c5.523,0,10-4.477,10-10s-4.477-10-10-10h-21.73c-4.65,0-8.433-3.783-8.433-8.433V278.247H334.104z"/>
	</g>
</g>
<g>
</g>
<g>
</g>
<g>
</g>
<g>
</g>
<g>
</g>
<g>
</g>
<g>
</g>
<g>
</g>
<g>
</g>
<g>
</g>
<g>
</g>
<g>
</g>
<g>
</g>
<g>
</g>
<g>
</g>
</svg>
