<?xml version="1.0" encoding="iso-8859-1"?>
<!-- Generator: Adobe Illustrator 27.5.0, SVG Export Plug-In . SVG Version: 6.00 Build 0)  -->
<svg version="1.1" id="Layer_1" xmlns="http://www.w3.org/2000/svg" xmlns:xlink="http://www.w3.org/1999/xlink" x="0px" y="0px"
	 viewBox="0 0 510.001 510.001" style="enable-background:new 0 0 510.001 510.001;" xml:space="preserve">
<g>
	<g>
		<path style="fill:#B1D952;" d="M359.615,287.758l-75.339-12.3h-58.549l-75.339,12.3c-21.557,3.519-37.386,22.143-37.386,43.985
			v89.258h284v-89.258C397.001,309.901,381.171,291.278,359.615,287.758z"/>
		<path style="fill:#91B706;" d="M397.001,331.743c0-21.842-15.83-40.466-37.386-43.985l-25.91-4.23
			c-15.219,12.494-24.947,31.444-24.947,52.626v84.848h88.243V331.743z"/>
		<path style="fill:#91B706;" d="M140.971,290.381c-16.594,6.65-27.97,22.848-27.97,41.363v89.258h61v-88
			C174.001,312.489,159.964,295.255,140.971,290.381z"/>
		<circle style="fill:#DB4B86;" cx="255.153" cy="55.577" r="45.576"/>
		<path style="fill:#FD7DA0;" d="M189.813,150.607v-14.241c0-36.086,29.254-65.34,65.34-65.34h0c36.086,0,65.34,29.254,65.34,65.34
			v14.241H189.813z"/>
		<path style="fill:#F7B073;" d="M284.275,268.822v-27.601h-58.549v27.601c11.432,11.432,17.842,17.842,29.274,29.274h0
			C266.433,286.664,272.843,280.254,284.275,268.822z"/>
		<path style="fill:#FDE0BE;" d="M189.813,150.607v29.188c0,36.086,29.254,65.34,65.34,65.34h0c36.086,0,65.34-29.254,65.34-65.34
			v-29.188H189.813z"/>
		<path style="fill:#F7B073;" d="M189.813,150.607v29.188c0,5.137,0.612,10.128,1.732,14.923H318.76
			c1.121-4.795,1.732-9.786,1.732-14.923v-29.188H189.813z"/>
		<polygon style="fill:#FFFFFF;" points="255.001,298.096 214.367,338.73 183.54,282.292 225.726,265.586 		"/>
		<polygon style="fill:#FFFFFF;" points="255.001,298.096 295.634,338.73 326.461,282.292 284.275,265.586 		"/>
		<rect x="10.001" y="421.001" style="fill:#FDCB50;" width="490" height="79"/>
		<rect x="10.001" y="377.001" style="fill:#FFFFFF;" width="120" height="44"/>
		<rect x="10.001" y="333.001" style="fill:#FFFFFF;" width="120" height="44"/>
		<path style="fill:#BC9AF4;" d="M475.931,312.084h-99.103c-13.294,0-24.07,10.777-24.07,24.07v84.848h147.243v-84.848
			C500.001,322.86,489.224,312.084,475.931,312.084z"/>
		<path style="fill:#6864F7;" d="M417.761,348.23c0-13.076,3.289-25.382,9.075-36.146h-50.008c-13.293,0-24.07,10.776-24.07,24.07
			v84.848h117.981C440.003,411.089,417.761,382.263,417.761,348.23z"/>
		<circle style="fill:#67CCD1;" cx="80.959" cy="80.96" r="70.958"/>
		<path style="fill:#27A2CC;" d="M141.999,115.166c-37.631,0-68.137-30.506-68.137-68.137c0-13.613,4.008-26.283,10.886-36.925
			c-1.255-0.066-2.518-0.103-3.789-0.103c-39.189,0-70.958,31.769-70.958,70.958s31.769,70.958,70.958,70.958
			c26.796,0,50.116-14.858,62.19-36.781C142.765,115.144,142.385,115.166,141.999,115.166z"/>
	</g>
	<g>
		<g>
			<path style="fill:#FFFFFF;" d="M66.765,105.154c-2.56,0-5.118-0.976-7.071-2.929c-3.905-3.905-3.905-10.237,0-14.142
				l11.265-11.265V54.001c0-5.523,4.478-10,10-10s10,4.477,10,10V80.96c0,2.652-1.054,5.196-2.929,7.071l-14.193,14.194
				C71.884,104.177,69.325,105.154,66.765,105.154z"/>
		</g>
		<path style="fill:#052A75;" d="M80.959,161.918c44.641,0,80.959-36.317,80.959-80.958S125.599,0.001,80.959,0.001
			S0.001,36.319,0.001,80.96S36.318,161.918,80.959,161.918z M80.959,20.001c33.613,0,60.959,27.346,60.959,60.958
			c0,33.612-27.346,60.958-60.959,60.958c-33.612,0-60.958-27.346-60.958-60.958C20.001,47.347,47.346,20.001,80.959,20.001z"/>
		<circle style="fill:#FFFFFF;" cx="426.379" cy="366.542" r="10"/>
		<path style="fill:#052A75;" d="M475.93,302.083h-77.709c-8.32-12.824-21.75-21.705-36.996-24.194l-31.855-5.201l-35.095-13.897
			v-14.633c21.7-13.239,36.218-37.136,36.218-64.363v-43.429c0-22.405-9.842-42.546-25.418-56.358
			c3.898-7.921,5.836-16.639,5.64-25.66c-0.638-29.359-24.114-53.214-53.446-54.308c-15.282-0.576-29.701,4.939-40.672,15.509
			c-10.976,10.575-17.021,24.79-17.021,40.028c0,8.576,1.942,16.871,5.657,24.427c-15.577,13.812-25.421,33.954-25.421,56.361
			v43.429c0,27.097,14.385,50.89,35.913,64.167v14.829l-35.093,13.897l-31.857,5.201c-23.59,3.851-41.413,22.196-45.072,45.112
			H10.001c-5.522,0-10,4.477-10,10v167c0,5.523,4.478,10,10,10h490c5.522,0,10-4.477,10-10V336.154
			C510.001,317.367,494.717,302.083,475.93,302.083z M312.263,287.425l-19.002,34.789l-24.479-24.479l18.273-20.293L312.263,287.425
			z M255.001,283.152l-19.274-21.405v-9.165c6.201,1.657,12.71,2.553,19.427,2.553c6.606,0,13.013-0.862,19.122-2.466v9.078
			L255.001,283.152z M219.577,55.578c0-9.754,3.87-18.854,10.896-25.625c7.023-6.765,16.278-10.292,26.05-9.926
			c18.768,0.7,33.789,15.966,34.196,34.755c0.105,4.836-0.746,9.536-2.489,13.912c-9.992-4.904-21.217-7.669-33.079-7.669
			c-11.855,0-23.075,2.761-33.063,7.661C220.443,64.551,219.577,60.129,219.577,55.578z M199.813,136.366
			c0-30.515,24.825-55.34,55.34-55.34s55.34,24.825,55.34,55.34v4.241h-40.546c2.996-5.465,4.702-11.732,4.702-18.392
			c0-5.523-4.478-10-10-10s-10,4.477-10,10c0,10.141-8.25,18.392-18.392,18.392h-36.444V136.366z M199.813,179.795v-19.188h110.68
			v19.188c0,30.515-24.826,55.34-55.341,55.34C224.638,235.135,199.813,210.31,199.813,179.795z M222.946,277.443l18.273,20.293
			l-24.479,24.479l-19.002-34.789L222.946,277.443z M151.999,297.627l26.188-4.276l27.404,50.172
			c1.511,2.765,4.235,4.657,7.354,5.105c0.476,0.068,0.95,0.102,1.424,0.102c2.632,0,5.182-1.041,7.07-2.929l33.563-33.563
			l33.562,33.563c1.889,1.888,4.438,2.929,7.07,2.929c0.474,0,0.949-0.034,1.424-0.102c3.118-0.448,5.843-2.34,7.354-5.105
			l27.404-50.171l26.188,4.275c4.675,0.763,9.075,2.484,12.975,4.969c-16.007,2.783-28.22,16.766-28.22,33.557v74.848H140.001v-78
			c0-5.523-4.478-10-10-10h-5.887C127.472,310.003,138.172,299.885,151.999,297.627z M20.001,343.001h100v24h-100V343.001z
			 M20.001,387.001h100v24h-100V387.001z M490.001,490.001h-470v-59h470V490.001z M490.001,411.001H362.758v-74.848
			c0-7.758,6.312-14.07,14.07-14.07h99.103c7.759,0,14.07,6.312,14.07,14.07V411.001z"/>
	</g>
</g>
<g>
</g>
<g>
</g>
<g>
</g>
<g>
</g>
<g>
</g>
<g>
</g>
<g>
</g>
<g>
</g>
<g>
</g>
<g>
</g>
<g>
</g>
<g>
</g>
<g>
</g>
<g>
</g>
<g>
</g>
</svg>
