<?xml version="1.0" encoding="iso-8859-1"?>
<!-- Generator: Adobe Illustrator 28.1.0, SVG Export Plug-In . SVG Version: 6.00 Build 0)  -->
<svg version="1.1" id="Capa_1" xmlns="http://www.w3.org/2000/svg" xmlns:xlink="http://www.w3.org/1999/xlink" x="0px" y="0px"
	 viewBox="0 0 510 510" style="enable-background:new 0 0 510 510;" xml:space="preserve">
<g>
	<g>
		<g>
			<g>
				<path style="fill:#D46B5C;" d="M394.49,174.844v175.283c0,11.528-9.345,20.873-20.873,20.873H48.335
					c-11.528,0-20.873-9.345-20.873-20.873V175.314L394.49,174.844z"/>
				<path style="fill:#B55348;" d="M74.638,226.995c0-17.806,2.066-35.129,5.958-51.749l-53.134,0.068v174.813
					c0,11.528,9.345,20.874,20.873,20.874h78.091C94.078,331.89,74.638,281.713,74.638,226.995z"/>
				<path style="fill:#D46B5C;" d="M170.259,250.892L24.111,213.297C15.859,211.417,10,204.024,10,195.494v-94.4
					c0-10.08,8.104-18.252,18.101-18.252h365.75c9.997,0,18.101,8.172,18.101,18.252v94.4c0,8.53-5.859,15.922-14.111,17.803
					l-145.375,37.396L170.259,250.892z"/>
				<path style="fill:#B55348;" d="M126.55,82.842H28.101C18.104,82.842,10,91.014,10,101.094v94.4
					c0,8.53,5.859,15.922,14.111,17.803l50.536,13C74.811,171.781,94.267,121.807,126.55,82.842z"/>
				<path style="fill:#FDCB50;" d="M252.198,279.102h-82.444c-5.77,0-10.447-4.677-10.447-10.447v-39.512
					c0-5.77,4.677-10.447,10.447-10.447h82.444c5.77,0,10.447,4.677,10.447,10.447v39.512
					C262.645,274.425,257.967,279.102,252.198,279.102z"/>
			</g>
			<g>
				<circle style="fill:#D2DCFD;" cx="394.49" cy="371" r="105"/>
			</g>
			<path style="fill:#93B2F4;" d="M432.911,437.578c-57.99,0-105-47.01-105-105c0-19.133,5.12-37.069,14.061-52.518
				C310.598,298.219,289.49,332.143,289.49,371c0,57.99,47.01,105,105,105c38.857,0,72.781-21.108,90.939-52.482
				C469.98,432.458,452.044,437.578,432.911,437.578z"/>
		</g>
	</g>
	<g>
		<path style="fill:#052A75;" d="M476.53,289.895c-19.489-19.591-44.792-31.294-72.04-33.506v-34.75
			c10.472-4.269,17.461-14.442,17.461-26.145v-94.4c0-15.578-12.606-28.251-28.101-28.251H272.645V56.267
			C272.645,38.475,258.17,24,240.378,24h-58.805c-17.792,0-32.267,14.475-32.267,32.267v16.576H28.101
			C12.606,72.843,0,85.516,0,101.094v94.4c0,11.703,6.99,21.877,17.461,26.145v128.488c0,17.023,13.85,30.873,30.874,30.873h232.099
			c2.296,26.837,13.813,51.78,33.036,71.104C335.134,473.882,363.982,485.92,394.7,486c0.104,0,0.201,0,0.305,0
			c63.268-0.004,114.829-51.393,114.995-114.699C510.08,340.583,498.193,311.673,476.53,289.895z M169.307,56.267
			c0-6.764,5.503-12.267,12.267-12.267h58.805c6.764,0,12.267,5.503,12.267,12.267v16.576h-83.338V56.267z M20,101.094
			c0-4.55,3.634-8.251,8.101-8.251h365.75c4.467,0,8.101,3.701,8.101,8.251v94.4c0,3.892-2.604,7.203-6.332,8.053
			c-0.09,0.021-0.18,0.042-0.27,0.065l-122.705,31.565v-6.034c0-11.274-9.172-20.447-20.447-20.447h-82.444
			c-11.274,0-20.447,9.173-20.447,20.447v6.034L26.602,203.612c-0.089-0.023-0.18-0.045-0.27-0.065
			c-3.729-0.85-6.332-4.161-6.332-8.053V101.094z M252.645,229.144v39.512c0,0.247-0.2,0.447-0.447,0.447h-82.444
			c-0.247,0-0.447-0.2-0.447-0.447v-39.512c0-0.247,0.2-0.447,0.447-0.447h82.444C252.444,228.696,252.645,228.896,252.645,229.144z
			 M37.461,350.127v-123.07l111.845,28.771v12.827c0,11.274,9.172,20.447,20.447,20.447h82.444c11.274,0,20.447-9.173,20.447-20.447
			v-12.827l111.845-28.771v29.428c-55.18,5.024-99.263,49.211-104.051,104.515H48.335C42.339,361,37.461,356.122,37.461,350.127z
			 M404.753,465.503l0.064-24.556c0.015-5.523-4.451-10.012-9.974-10.026c-0.009,0-0.018,0-0.027,0c-5.51,0-9.985,4.46-10,9.974
			l-0.064,24.558c-21.589-2.301-41.58-11.847-57.104-27.452s-24.965-35.646-27.153-57.247l24.557,0.064c0.009,0,0.018,0,0.027,0
			c5.51,0,9.985-4.46,10-9.974c0.015-5.523-4.451-10.012-9.974-10.026l-24.553-0.064c4.784-44.401,40.268-79.704,84.694-84.256
			l-0.064,24.556c-0.015,5.523,4.451,10.012,9.974,10.026c0.009,0,0.018,0,0.027,0c5.51,0,9.985-4.46,10-9.974l0.064-24.558
			c21.589,2.301,41.58,11.847,57.104,27.452s24.965,35.646,27.153,57.247l-24.557-0.064c-0.009,0-0.018,0-0.027,0
			c-5.51,0-9.985,4.46-10,9.974c-0.015,5.523,4.451,10.012,9.974,10.026l24.553,0.064
			C484.664,425.649,449.179,460.953,404.753,465.503z"/>
		<path style="fill:#052A75;" d="M414.419,337.576l-19.382,19.281l-32.071-32.238c-3.895-3.916-10.227-3.932-14.142-0.037
			c-3.915,3.896-3.932,10.227-0.037,14.143l39.124,39.328c1.87,1.88,4.411,2.94,7.063,2.947c0.009,0,0.017,0,0.026,0
			c2.643,0,5.179-1.046,7.053-2.91l26.472-26.334c3.915-3.896,3.932-10.227,0.037-14.143
			C424.667,333.697,418.334,333.682,414.419,337.576z"/>
	</g>
</g>
<g>
</g>
<g>
</g>
<g>
</g>
<g>
</g>
<g>
</g>
<g>
</g>
<g>
</g>
<g>
</g>
<g>
</g>
<g>
</g>
<g>
</g>
<g>
</g>
<g>
</g>
<g>
</g>
<g>
</g>
</svg>
