<svg width="25" height="24" viewBox="0 0 25 24" fill="none" xmlns="http://www.w3.org/2000/svg">
<path opacity="0.12" d="M12.4761 14.5C13.8568 14.5 14.9761 13.3807 14.9761 12C14.9761 10.6193 13.8568 9.5 12.4761 9.5C11.0954 9.5 9.97607 10.6193 9.97607 12C9.97607 13.3807 11.0954 14.5 12.4761 14.5Z" fill="currentColor"/>
<path d="M6.4762 11V15M18.4762 9V13M17.4762 4C19.9249 4 21.2493 4.37476 21.9083 4.66544C21.9961 4.70415 22.04 4.72351 22.1666 4.84437C22.2425 4.91682 22.3811 5.12939 22.4167 5.22809C22.4762 5.39274 22.4762 5.48274 22.4762 5.66274V16.4111C22.4762 17.3199 22.4762 17.7743 22.3399 18.0079C22.2013 18.2454 22.0676 18.3559 21.8081 18.4472C21.5531 18.5369 21.0382 18.438 20.0084 18.2401C19.2876 18.1017 18.4327 18 17.4762 18C14.4762 18 11.4762 20 7.4762 20C5.02749 20 3.70306 19.6252 3.04408 19.3346C2.95632 19.2958 2.91244 19.2765 2.7858 19.1556C2.70988 19.0832 2.57131 18.8706 2.53567 18.7719C2.4762 18.6073 2.4762 18.5173 2.4762 18.3373L2.4762 7.58885C2.4762 6.68009 2.4762 6.2257 2.61247 5.99214C2.7511 5.75456 2.88479 5.64412 3.14426 5.55281C3.39933 5.46305 3.91423 5.56198 4.94403 5.75985C5.66481 5.89834 6.51968 6 7.4762 6C10.4762 6 13.4762 4 17.4762 4ZM14.9762 12C14.9762 13.3807 13.8569 14.5 12.4762 14.5C11.0955 14.5 9.9762 13.3807 9.9762 12C9.9762 10.6193 11.0955 9.5 12.4762 9.5C13.8569 9.5 14.9762 10.6193 14.9762 12Z" stroke="currentColor" stroke-width="2" stroke-linecap="round" stroke-linejoin="round"/>
</svg>
