<?xml version="1.0" encoding="iso-8859-1"?>
<!-- Generator: Adobe Illustrator 27.0.0, SVG Export Plug-In . SVG Version: 6.00 Build 0)  -->
<svg version="1.1" id="Capa_1" xmlns="http://www.w3.org/2000/svg" xmlns:xlink="http://www.w3.org/1999/xlink" x="0px" y="0px"
	 viewBox="0 0 512.001 512.001" style="enable-background:new 0 0 512.001 512.001;" xml:space="preserve">
<g>
	<g>
		<path style="fill:#67CCD1;" d="M377.198,501.996l-16.827-83.195l-8.677-42.9c-3.915-19.355-18.327-34.275-36.51-37.795
			l-21.513-4.165c0,0-48.518-22.601-48.518-22.601c-3.449-4.901-6.065-10.534-7.616-16.676l-7.605-30.099l-72.666,0l-7.605,30.099
			c-1.552,6.141-4.167,11.775-7.616,16.675l-48.518,22.601l-21.513,4.165c-18.183,3.521-32.595,18.44-36.51,37.795l-8.677,42.9
			L10,501.996C10,501.996,377.198,501.997,377.198,501.996z"/>
		<path style="fill:#FDBEB9;" d="M245.156,311.342l-51.559,38.065l-51.55-38.065c3.444-4.9,6.065-10.533,7.611-16.678l7.611-30.102
			h72.666l7.601,30.102C239.091,300.809,241.702,306.442,245.156,311.342z"/>
		<ellipse style="fill:#FFFFFF;" cx="394.839" cy="149.677" rx="107.162" ry="107.287"/>
		<path style="fill:#D2DCFD;" d="M365.395,179.847c0,24.209-11.507,45.786-29.339,59.532
			c-29.219-19.218-48.477-52.363-48.377-89.986c0.09-37.241,19.128-69.995,47.955-89.152c9.619,20.473,14.68,42.945,14.68,66.199
			v7.322c0,0.638,0.208,1.255,0.586,1.77C360.013,147.956,365.395,163.29,365.395,179.847z"/>
		<path style="fill:#D46B5C;" d="M77.046,147.881v-21.446c0-32.609,13.599-62.198,35.413-83.378
			c17.204-16.726,39.521-28.214,64.308-31.836c5.494-0.803,11.118-1.224,16.833-1.224c7.121,0,14.101,0.642,20.87,1.886
			c23.381,4.264,44.382,15.572,60.722,31.605c21.543,21.151,34.961,50.559,34.961,82.947v19.437L77.046,147.881z"/>
		<path style="fill:#FDBEB9;" d="M290.307,144.885c19.287,0,34.922,15.653,34.922,34.962v0c0,19.309-15.635,34.962-34.922,34.962
			H96.891c-19.287,0-34.922-15.653-34.922-34.962v0c0-19.309,15.635-34.962,34.922-34.962H290.307z"/>
		<polygon style="fill:#DB4B86;" points="233.417,373.33 207.273,421.684 179.925,421.684 153.713,373.203 193.597,349.407 		"/>
		<path style="fill:#FFFFFF;" d="M126.924,387.466l-30.166-46.089c-6.955-10.627-0.281-24.863,12.328-26.296l32.953-3.744
			l51.559,38.065L126.924,387.466z"/>
		<path style="fill:#FFFFFF;" d="M260.274,387.466l29.872-45.64c7.09-10.832,0.286-25.345-12.567-26.805l-32.421-3.684
			l-51.559,38.065L260.274,387.466z"/>
		<polyline style="fill:#DB4B86;" points="157.076,499.802 179.925,421.684 207.273,421.684 230.122,499.802 		"/>
		<path style="fill:#FD7DA0;" d="M240.347,302.817c-14.278,6.386-30.082,9.93-46.7,9.93c-16.648,0-32.482-3.554-46.78-9.961
			c1.145-2.591,2.078-5.301,2.791-8.123l7.611-30.102h72.666l7.601,30.102C238.248,297.496,239.192,300.227,240.347,302.817z"/>
		<path style="fill:#FDBEB9;" d="M113.804,144.865c17.727-7.134,31.391-22.947,35.006-42.161l11.248,5.356
			c21.478,10.227,46.432,10.139,67.837-0.239l11.567-5.608c3.485,19.445,16.137,35.458,34.024,42.652v52.811
			c0,44.147-35.746,79.935-79.841,79.935h0c-44.095,0-79.841-35.788-79.841-79.935V144.865z"/>
		<path style="fill:#27A2CC;" d="M377.193,501.997h-66.58c-1.597-5.231-2.46-10.784-2.46-16.537V364.498
			c0-9.559,2.38-18.565,6.577-26.478l0.452,0.09c18.184,3.514,32.603,18.435,36.519,37.794l8.675,42.894L377.193,501.997z"/>
		<path style="fill:#93B2F4;" d="M439.811,501.997h-75.017c-9.099,0-16.475-7.376-16.475-16.475V364.431
			c0-9.099,7.376-16.475,16.475-16.475h75.017c9.099,0,16.475,7.376,16.475,16.475v121.091
			C456.285,494.621,448.909,501.997,439.811,501.997z"/>
	</g>
	<g>
		<g>
			<path style="fill:#6864F7;" d="M394.994,83.884c0.011,0,0.021,0,0.031,0c5.508,0,9.982-4.458,9.999-9.97l0.088-29.206
				c0.017-5.523-4.447-10.014-9.97-10.03c-0.011,0-0.021,0-0.031,0c-5.508,0-9.982,4.458-9.999,9.97l-0.088,29.206
				C385.008,79.377,389.472,83.868,394.994,83.884z"/>
			<path style="fill:#6864F7;" d="M394.535,264.676c0.01,0,0.02,0,0.03,0c5.508,0,9.982-4.458,9.999-9.97l0.087-29.206
				c0.017-5.523-4.447-10.013-9.971-10.03c-0.01,0-0.02,0-0.03,0c-5.508,0-9.982,4.458-9.999,9.97l-0.087,29.206
				C384.548,260.169,389.012,264.659,394.535,264.676z"/>
			<path style="fill:#6864F7;" d="M497.739,139.951l-27.164-0.087c-0.011,0-0.021,0-0.033,0c-5.507,0-9.981,4.456-9.999,9.968
				c-0.018,5.523,4.445,10.015,9.968,10.032l27.164,0.087c0.011,0,0.021,0,0.033,0c5.507,0,9.981-4.456,9.999-9.968
				C507.724,144.46,503.261,139.969,497.739,139.951z"/>
			<path style="fill:#6864F7;" d="M414.799,115.684l-19.924,19.842l-32.872-33.083c-3.894-3.918-10.224-3.938-14.143-0.045
				c-3.917,3.893-3.938,10.225-0.045,14.142l39.929,40.185c1.871,1.883,4.413,2.945,7.067,2.952c0.009,0,0.018,0,0.026,0
				c2.645,0,5.183-1.048,7.057-2.915l27.018-26.907c3.913-3.897,3.926-10.229,0.029-14.142
				C425.044,111.799,418.712,111.786,414.799,115.684z"/>
			<path style="fill:#6864F7;" d="M412.43,382.346h-20.256c-5.522,0-10,4.477-10,10s4.478,10,10,10h20.256c5.522,0,10-4.477,10-10
				S417.952,382.346,412.43,382.346z"/>
		</g>
		<path style="fill:#052A75;" d="M279.304,224.81h11.003c4.518,0,8.879-0.678,12.996-1.926
			c22.089,27.626,55.703,43.986,91.23,44.079c0.106,0,0.205,0,0.312,0C459.3,266.959,511.831,214.549,512,149.983
			c0.168-64.672-52.253-117.424-116.855-117.593c-0.104,0-0.206,0-0.31,0c-33.67,0-65.219,14.344-87.294,39.062
			c-6.268-12.867-14.779-24.726-25.346-35.101c-18.248-17.904-41.047-29.767-65.919-34.303c-13.306-2.446-27.347-2.709-40.957-0.722
			c-26.395,3.857-50.542,15.808-69.827,34.557C80.7,59.955,67.045,92.115,67.045,126.435v19.847
			c-9.241,8.241-15.075,20.232-15.075,33.565c0,24.792,20.151,44.962,44.921,44.962h11.096c6.349,20.04,19.535,37.059,36.805,48.304
			l-4.826,19.101c-0.87,3.441-2.154,6.699-3.826,9.728l-28.18,3.202c-9.392,1.067-17.398,6.814-21.418,15.375
			c-0.754,1.605-1.342,3.256-1.767,4.93l-14.66,2.839c-22.243,4.307-39.676,22.218-44.412,45.63L0.199,500.014
			c-0.595,2.94,0.162,5.992,2.062,8.314S7,511.996,10,511.996l429.811,0.001c14.599,0,26.475-11.876,26.475-26.475V364.431
			c0-14.598-11.876-26.475-26.475-26.475h-75.018c-6.947,0-13.273,2.693-18.001,7.085c-7.967-8.58-18.329-14.55-29.706-16.753
			l-14.982-2.901c-0.424-1.608-0.991-3.195-1.717-4.74c-4.069-8.665-12.174-14.482-21.68-15.562l-27.646-3.142
			c-1.672-3.03-2.959-6.287-3.828-9.729l-4.813-19.048C259.728,261.923,272.945,244.881,279.304,224.81z M283.204,204.81
			c0.185-2.355,0.282-4.734,0.282-7.135v-42.79h6.82c13.742,0,24.922,11.198,24.922,24.963c0,13.764-11.18,24.962-24.922,24.962
			H283.204z M394.836,52.39c0.084,0,0.172,0,0.256,0c53.575,0.14,97.048,43.897,96.908,97.541
			c-0.141,53.559-43.699,97.033-97.157,97.033c-0.085,0-0.173,0-0.258,0c-28.435-0.074-55.396-12.719-73.714-34.206
			c8.823-8.215,14.358-19.925,14.358-32.91c0-13.343-5.843-25.341-15.096-33.583c0.005-0.131,0.02-0.26,0.02-0.392v-19.437
			c0-11.384-1.514-22.535-4.433-33.237C333.987,67.57,363.291,52.39,394.836,52.39z M87.045,126.435
			c0-28.867,11.499-55.93,32.384-76.208c16.253-15.8,36.58-25.867,58.782-29.111c11.462-1.674,23.271-1.453,34.464,0.605
			c20.936,3.818,40.132,13.813,55.511,28.903c20.614,20.239,31.967,47.163,31.967,75.811v9.551
			c-3.171-0.713-6.463-1.101-9.846-1.101h-14.68c-13.745-6.162-23.536-18.898-26.321-34.437c-0.552-3.082-2.515-5.727-5.305-7.147
			c-2.791-1.421-6.086-1.453-8.9-0.087l-11.567,5.608c-18.774,9.102-40.341,9.176-59.176,0.209l-11.247-5.356
			c-2.803-1.334-6.064-1.292-8.83,0.113c-2.767,1.406-4.724,4.016-5.297,7.065c-2.796,14.856-13.199,27.735-27.316,34.031H96.891
			c-3.383,0-6.675,0.388-9.846,1.101V126.435z M96.891,204.81c-13.741,0-24.921-11.198-24.921-24.963
			c0-13.764,11.18-24.962,24.921-24.962h6.913v42.79c0,2.401,0.097,4.781,0.282,7.135H96.891z M104.643,329.022
			c0.503-1.071,2.053-3.604,5.573-4.004l29.047-3.301l36.046,26.611l-45.171,25.789l-25.012-38.216
			C103.175,332.92,104.138,330.098,104.643,329.022z M193.599,360.917l26.868,15.339l-19.155,35.428h-15.426l-19.155-35.428
			L193.599,360.917z M187.419,431.684h12.36l17.641,60.312h-47.643L187.419,431.684z M45.305,377.884
			c3.123-15.439,14.353-27.199,28.61-29.959l13.534-2.621c1.747,3.016,29.501,45.058,31.107,47.639
			c1.911,2.92,5.104,4.525,8.375,4.525c1.685,0,3.39-0.426,4.95-1.316l17.475-9.977l19.816,36.649l-20.233,69.172l-52.224,0v-47.115
			c0-5.523-4.478-10-10-10s-10,4.477-10,10v47.115H22.225L45.305,377.884z M358.319,364.431c0-3.57,2.904-6.475,6.475-6.475h75.018
			c3.57,0,6.475,2.904,6.475,6.475v121.091c0,3.57-2.904,6.475-6.475,6.475h-74.94c-0.003,0-0.007,0-0.01,0h-0.077
			c-3.566-0.005-6.465-2.907-6.465-6.474V364.431z M338.319,367.548v117.974c0,2.233,0.281,4.401,0.804,6.474h-28.641v-47.115
			c0-5.523-4.478-10-10-10s-10,4.477-10,10v47.115l-52.224,0l-20.233-69.173l19.815-36.649l17.476,9.977
			c1.561,0.891,3.266,1.316,4.95,1.316c3.271,0,6.464-1.605,8.375-4.524l29.872-45.641c0.429-0.656,0.816-1.329,1.185-2.009
			l13.587,2.631C323.869,349.974,333.148,357.282,338.319,367.548z M282.284,329.15c0.528,1.125,1.537,4.079-0.506,7.2
			l-24.719,37.767l-45.171-25.789l36.046-26.611l28.515,3.24C280.135,325.376,281.758,328.029,282.284,329.15z M227.842,297.115
			c1.011,4.003,2.416,7.842,4.172,11.496l-38.416,28.361l-38.415-28.361c1.757-3.654,3.161-7.494,4.172-11.496l3.754-14.857
			c9.537,3.461,19.82,5.352,30.536,5.352c10.684,0,20.937-1.88,30.45-5.322L227.842,297.115z M193.645,267.61
			c-38.511,0-69.841-31.373-69.841-69.935v-46.44c14.195-7.494,25.341-19.868,31.25-34.482c24.74,12.056,53.368,11.933,78.006-0.323
			c5.7,15.018,16.425,27.342,30.427,34.794v46.451C263.487,236.237,232.156,267.61,193.645,267.61z"/>
	</g>
</g>
<g>
</g>
<g>
</g>
<g>
</g>
<g>
</g>
<g>
</g>
<g>
</g>
<g>
</g>
<g>
</g>
<g>
</g>
<g>
</g>
<g>
</g>
<g>
</g>
<g>
</g>
<g>
</g>
<g>
</g>
</svg>
