<?xml version="1.0" encoding="iso-8859-1"?>
<!-- Generator: Adobe Illustrator 27.2.0, SVG Export Plug-In . SVG Version: 6.00 Build 0)  -->
<svg version="1.1" id="Capa_1" xmlns="http://www.w3.org/2000/svg" xmlns:xlink="http://www.w3.org/1999/xlink" x="0px" y="0px"
	 viewBox="0 0 510.01 510.01" style="enable-background:new 0 0 510.01 510.01;" xml:space="preserve">
<g>
	<g>
		<path style="fill:#B1D952;" d="M10.009,71.001v429.004h213.486V317.017h-30.498c-16.844,0-30.498-13.654-30.498-30.498V71.001"/>
		<path style="fill:#91B706;" d="M106.415,71.001H10.009v429.004h96.406C37.91,373.279,37.912,197.725,106.415,71.001z"/>
		<path style="fill:#FD8F01;" d="M192.997,71.001H10.009V10.005h213.486v30.498C223.495,57.346,209.84,71.001,192.997,71.001z"/>
		<path style="fill:#6864F7;" d="M500.009,225.524v274.481H347.52v-91.494c0-16.843,13.654-30.498,30.498-30.498h60.996V256.022
			c0-16.843,13.654-30.498,30.498-30.498H500.009z"/>
		<path style="fill:#6864F7;" d="M500.009,164.528h-30.498c-16.844,0-30.498-13.654-30.498-30.498v-30.498
			c0-16.844,13.654-30.498,30.498-30.498h30.498V164.528z"/>
	</g>
	<g>
		<path style="fill:#052A75;" d="M71.009,388.015c-7.834,0.117-12.795-9.095-8.32-15.55c4.291-6.611,14.631-5.578,17.55,1.72
			C83.053,380.538,77.949,388.168,71.009,388.015z"/>
		<path style="fill:#052A75;" d="M71.009,449.015c-8.798,0.05-13.364-10.893-7.07-17.08c4.793-5.011,13.818-3.221,16.299,3.25
			C83.061,441.529,77.93,449.167,71.009,449.015z"/>
		<path style="fill:#052A75;" d="M500.009,63.034h-30.498c-22.331,0-40.498,18.168-40.498,40.498v30.498
			c0,22.331,18.167,40.498,40.498,40.498h20.498v40.996h-20.498c-22.331,0-40.498,18.167-40.498,40.498v111.992
			c0,0-50.996,0-50.996,0c-22.33,0-40.497,18.168-40.497,40.498v91.494c0,5.523,4.478,10,10,10c0,0,152.489,0,152.489,0
			c5.522,0,10-4.477,10-10c-0.004-102.473,0.003-327.398,0-426.971C510.009,67.511,505.532,63.034,500.009,63.034z M449.013,134.03
			v-30.498c0-11.303,9.195-20.498,20.498-20.498h20.498v71.494h-20.498C458.208,154.528,449.013,145.333,449.013,134.03z
			 M490.009,490.005H357.52v-81.494c0-11.303,9.195-20.498,20.497-20.498h60.996c5.523,0,10-4.477,10-10V256.022
			c0-11.303,9.195-20.498,20.498-20.498h20.498V490.005z"/>
		<path style="fill:#052A75;" d="M322.06,279.448l-60.996-60.996c-9.71-9.021-23.167,4.424-14.143,14.143
			c0,0,23.427,23.427,23.427,23.427l-50.996,50.996h-26.355c-11.303,0-20.498-9.195-20.498-20.498V81.001h20.498
			c22.331,0,40.498-18.167,40.498-40.498c0,0,0-30.498,0-30.498c0-5.523-4.478-10-10-10H10.009c-5.523,0-10,4.477-10,10
			c0.051,20.008-0.037,454.517,0,490c0,5.523,4.477,10,10,10c0,0,213.485,0,213.485,0c3.268,0,6.161-1.575,7.986-4h52.528
			c5.522,0,10-4.477,10-10v-30c-0.488-13.243-19.509-13.254-20,0c0,0,0,20,0,20h-40.515V321.16l50.996-50.996l23.427,23.427
			c1.953,1.953,4.512,2.929,7.071,2.929C323.733,296.616,328.375,285.664,322.06,279.448z M20.009,20.005h193.485v20.498
			c0,11.303-9.195,20.498-20.498,20.498H20.009V20.005z M213.495,490.005H20.009V81.001h132.489V286.52
			c0,22.331,18.167,40.498,40.498,40.498h20.498V490.005z"/>
	</g>
</g>
<g>
</g>
<g>
</g>
<g>
</g>
<g>
</g>
<g>
</g>
<g>
</g>
<g>
</g>
<g>
</g>
<g>
</g>
<g>
</g>
<g>
</g>
<g>
</g>
<g>
</g>
<g>
</g>
<g>
</g>
</svg>
