<?xml version="1.0" encoding="iso-8859-1"?>
<!-- Generator: Adobe Illustrator 26.5.3, SVG Export Plug-In . SVG Version: 6.00 Build 0)  -->
<svg version="1.1" id="Capa_1" xmlns="http://www.w3.org/2000/svg" xmlns:xlink="http://www.w3.org/1999/xlink" x="0px" y="0px"
	 viewBox="0 0 512 512" style="enable-background:new 0 0 512 512;" xml:space="preserve">
<g>
	<g>
		<g>
			<g>
				<rect x="188.937" y="22.381" style="fill:#F7B073;" width="134.126" height="134.126"/>
			</g>
			<g>
				<rect x="10" y="22.381" style="fill:#F7B073;" width="134.126" height="134.126"/>
			</g>
			<g>
				<rect x="367.874" y="22.381" style="fill:#F7B073;" width="134.126" height="134.126"/>
			</g>
			<g>
				<path style="fill:#D2DCFD;" d="M130.533,350.315v52.434h20.047c2.635,10.632,6.833,20.647,12.343,29.784l-14.179,14.18
					l37.076,37.076l14.18-14.179c9.137,5.509,19.152,9.707,29.784,12.342V502h52.434v-20.047
					c10.632-2.635,20.647-6.833,29.784-12.342l14.18,14.179l37.076-37.076l-14.179-14.18c5.509-9.137,9.707-19.152,12.342-29.784
					h20.047v-52.434H361.42c-2.635-10.632-6.833-20.647-12.342-29.784l14.179-14.18l-37.076-37.076l-14.18,14.179
					c-9.137-5.509-19.152-9.707-29.784-12.343v-20.047h-52.434v20.047c-10.632,2.635-20.647,6.833-29.784,12.343l-14.18-14.179
					l-37.076,37.076l14.179,14.18c-8.553,15.029-12.879,25.292-12.343,29.784H130.533z"/>
				<path style="fill:#93B2F4;" d="M199.224,327.303c0-16.442,2.435-32.313,6.945-47.284c-2.095,1.084-4.158,2.222-6.171,3.436
					l-14.179-14.179l-37.077,37.076l14.179,14.18c-8.553,15.029-12.879,25.292-12.343,29.784h-20.047v52.434h20.047
					c2.635,10.632,6.833,20.647,12.343,29.784l-14.179,14.18l37.077,37.076l14.179-14.179c9.137,5.509,19.152,9.707,29.784,12.343
					V502h52.434v-20.047c5.063-1.255,9.98-2.875,14.734-4.811C231.043,440.021,199.224,398.66,199.224,327.303z"/>
				<g>
					<circle style="fill:#FFFFFF;" cx="256" cy="376.533" r="47.457"/>
				</g>
			</g>
		</g>
		<g>
			<path style="fill:#D2DCFD;" d="M278.936,72.162L256,59.792l-22.936,12.37V16.67c0-3.684,2.986-6.67,6.67-6.67h32.532
				c3.684,0,6.67,2.986,6.67,6.67V72.162z"/>
			<path style="fill:#D2DCFD;" d="M99.999,72.162l-22.936-12.37l-22.936,12.37V16.67c0-3.684,2.986-6.67,6.67-6.67h32.532
				c3.684,0,6.67,2.986,6.67,6.67V72.162z"/>
			<path style="fill:#D2DCFD;" d="M457.874,72.162l-22.936-12.37l-22.936,12.37V16.67c0-3.684,2.986-6.67,6.67-6.67h32.532
				c3.684,0,6.67,2.986,6.67,6.67V72.162z"/>
		</g>
	</g>
	<g>
		<path style="fill:#BC9AF4;" d="M434.937,148.556c-5.523,0-10,4.477-10,10v26.137c0,5.559-4.522,10.082-10.082,10.082H266v-36.769
			c0-5.523-4.477-10-10-10s-10,4.477-10,10v36.769H97.145c-5.559,0-10.082-4.522-10.082-10.082v-25.063c0-5.523-4.477-10-10-10
			s-10,4.477-10,10v25.063c0,16.587,13.495,30.082,30.082,30.082H246v33.983c0,5.523,4.477,10,10,10s10-4.477,10-10v-33.983h148.855
			c16.587,0,30.082-13.495,30.082-30.082v-26.137C444.937,153.033,440.46,148.556,434.937,148.556z"/>
		<g>
			<path style="fill:#052A75;" d="M188.937,166.507h134.126c5.523,0,10-4.477,10-10V22.381c0-5.523-4.477-10-10-10h-34.706
				C286.457,5.265,279.973,0,272.266,0h-32.532c-7.707,0-14.191,5.265-16.09,12.381h-34.706c-5.523,0-10,4.477-10,10v134.126
				C178.937,162.03,183.414,166.507,188.937,166.507z M243.063,20h25.873v35.407l-8.189-4.417c-1.481-0.799-3.114-1.198-4.747-1.198
				s-3.266,0.399-4.747,1.198l-8.189,4.417V20z M198.937,32.381h24.126v39.781c0,3.521,1.852,6.782,4.875,8.587
				c3.023,1.804,6.772,1.885,9.872,0.215L256,71.154l18.189,9.81c1.484,0.8,3.116,1.198,4.747,1.198
				c1.775,0,3.549-0.473,5.125-1.413c3.023-1.805,4.875-5.066,4.875-8.587V32.381h24.126v114.126H198.937V32.381z"/>
			<path style="fill:#052A75;" d="M154.125,156.507V22.381c0-5.523-4.477-10-10-10H109.42C107.52,5.265,101.036,0,93.329,0H60.797
				c-7.707,0-14.191,5.265-16.09,12.381H10c-5.523,0-10,4.477-10,10v134.126c0,5.523,4.477,10,10,10h134.125
				C149.648,166.507,154.125,162.03,154.125,156.507z M64.126,20H90v35.407L81.81,50.99c-1.481-0.799-3.114-1.198-4.747-1.198
				s-3.266,0.399-4.747,1.198l-8.189,4.417V20z M134.125,146.507H20V32.381h24.126v39.781c0,3.521,1.852,6.782,4.875,8.587
				c3.024,1.804,6.772,1.885,9.872,0.215l18.189-9.81l18.189,9.81c1.484,0.8,3.116,1.198,4.747,1.198
				c1.775,0,3.549-0.473,5.125-1.413c3.023-1.805,4.875-5.066,4.875-8.587V32.381h24.126V146.507z"/>
			<path style="fill:#052A75;" d="M502,12.381h-34.706C465.394,5.265,458.91,0,451.203,0h-32.532
				c-7.707,0-14.191,5.265-16.09,12.381h-34.706c-5.523,0-10,4.477-10,10v134.126c0,5.523,4.477,10,10,10H502
				c5.523,0,10-4.477,10-10V22.381C512,16.858,507.523,12.381,502,12.381z M422,20h25.873v35.407l-8.189-4.417
				c-1.481-0.799-3.114-1.198-4.747-1.198s-3.266,0.399-4.747,1.198L422,55.407V20z M492,146.507H377.875V32.381H402v39.781
				c0,3.521,1.852,6.782,4.875,8.587c3.024,1.804,6.772,1.885,9.872,0.215l18.189-9.81l18.189,9.81
				c1.484,0.8,3.116,1.198,4.747,1.198c1.775,0,3.549-0.473,5.125-1.413c3.023-1.805,4.875-5.066,4.875-8.587V32.381H492V146.507z"
				/>
			<path style="fill:#052A75;" d="M381.467,340.315h-12.495c-1.99-6.214-4.491-12.25-7.482-18.055l8.838-8.837
				c1.875-1.875,2.929-4.419,2.929-7.071s-1.054-5.196-2.929-7.071l-37.077-37.077c-3.905-3.904-10.237-3.904-14.142,0l-8.838,8.838
				c-5.804-2.991-11.838-5.492-18.054-7.482v-12.495c0-5.523-4.477-10-10-10h-52.435c-5.523,0-10,4.477-10,10v12.495
				c-6.216,1.99-12.25,4.491-18.054,7.482l-8.838-8.838c-3.905-3.905-10.237-3.904-14.142,0l-37.077,37.077
				c-1.875,1.875-2.929,4.419-2.929,7.071s1.054,5.196,2.929,7.071l8.838,8.837c-2.991,5.804-5.493,11.84-7.482,18.055h-12.495
				c-5.523,0-10,4.477-10,10v52.434c0,5.523,4.477,10,10,10h12.495c1.99,6.216,4.491,12.25,7.482,18.055l-8.838,8.838
				c-1.875,1.875-2.929,4.418-2.929,7.071s1.054,5.196,2.929,7.071l37.077,37.076c3.905,3.905,10.237,3.905,14.142,0l8.838-8.838
				c5.804,2.991,11.838,5.492,18.054,7.482V502c0,5.523,4.477,10,10,10h52.435c5.523,0,10-4.477,10-10v-12.495
				c6.216-1.99,12.25-4.491,18.054-7.482l8.838,8.838c3.905,3.905,10.237,3.905,14.142,0l37.077-37.076
				c1.875-1.875,2.929-4.419,2.929-7.071s-1.054-5.196-2.929-7.071l-8.838-8.838c2.992-5.804,5.493-11.839,7.482-18.055h12.495
				c5.523,0,10-4.477,10-10v-52.434C391.467,344.792,386.99,340.315,381.467,340.315z M371.467,392.75H361.42
				c-4.596,0-8.601,3.133-9.707,7.594c-2.36,9.522-6.128,18.615-11.2,27.026c-2.374,3.937-1.758,8.984,1.492,12.235l7.109,7.108
				l-22.935,22.934l-7.109-7.108c-3.25-3.251-8.298-3.866-12.234-1.492c-8.41,5.071-17.503,8.839-27.026,11.2
				c-4.461,1.105-7.594,5.11-7.594,9.706V492h-32.435v-10.047c0-4.596-3.133-8.601-7.594-9.706
				c-9.523-2.361-18.616-6.129-27.026-11.2c-3.937-2.374-8.985-1.758-12.234,1.492l-7.109,7.108l-22.935-22.934l7.109-7.108
				c3.25-3.25,3.866-8.298,1.492-12.235c-5.072-8.411-8.84-17.504-11.2-27.026c-1.106-4.461-5.11-7.594-9.707-7.594h-10.047v-32.434
				h10.047c4.596,0,8.601-3.133,9.707-7.594c2.36-9.521,6.128-18.614,11.2-27.026c2.374-3.937,1.757-8.984-1.493-12.235
				l-7.108-7.108l22.935-22.935l7.109,7.108c3.251,3.25,8.299,3.866,12.234,1.492c8.411-5.071,17.503-8.839,27.026-11.199
				c4.461-1.106,7.594-5.11,7.594-9.707v-10.047h32.435v10.047c0,4.596,3.133,8.601,7.594,9.707
				c9.522,2.36,18.615,6.128,27.026,11.199c3.937,2.374,8.984,1.758,12.234-1.492l7.109-7.108l22.935,22.935l-7.108,7.108
				c-3.25,3.25-3.867,8.298-1.493,12.235c5.072,8.412,8.84,17.505,11.2,27.026c1.106,4.461,5.11,7.594,9.707,7.594h10.047V392.75z"
				/>
		</g>
	</g>
</g>
<g>
</g>
<g>
</g>
<g>
</g>
<g>
</g>
<g>
</g>
<g>
</g>
<g>
</g>
<g>
</g>
<g>
</g>
<g>
</g>
<g>
</g>
<g>
</g>
<g>
</g>
<g>
</g>
<g>
</g>
</svg>
