<?xml version="1.0" encoding="iso-8859-1"?>
<!-- Generator: Adobe Illustrator 26.5.3, SVG Export Plug-In . SVG Version: 6.00 Build 0)  -->
<svg version="1.1" id="Capa_1" xmlns="http://www.w3.org/2000/svg" xmlns:xlink="http://www.w3.org/1999/xlink" x="0px" y="0px"
	 viewBox="0 0 512 512" style="enable-background:new 0 0 512 512;" xml:space="preserve">
<g>
	<g>
		<polygon style="fill-rule:evenodd;clip-rule:evenodd;fill:#D2DCFD;" points="396.571,10 115.428,10 115.428,100.367 
			138.858,100.367 373.142,100.367 396.571,100.367 		"/>
		<rect x="138.858" y="100.367" style="fill-rule:evenodd;clip-rule:evenodd;fill:#6864F7;" width="234.284" height="45.184"/>
		<polygon style="fill-rule:evenodd;clip-rule:evenodd;fill:#D2DCFD;" points="373.142,145.551 138.858,145.551 115.428,145.551 
			115.428,195.756 138.858,195.756 373.142,195.756 396.571,195.756 396.571,145.551 		"/>
		<rect x="138.858" y="195.756" style="fill-rule:evenodd;clip-rule:evenodd;fill:#6864F7;" width="234.284" height="45.184"/>
		<polygon style="fill-rule:evenodd;clip-rule:evenodd;fill:#D2DCFD;" points="373.142,240.94 138.858,240.94 115.428,240.94 
			115.428,291.144 396.571,291.144 396.571,240.94 		"/>
		<rect x="135.51" y="366.449" style="fill-rule:evenodd;clip-rule:evenodd;fill:#FD6050;" width="240.98" height="135.551"/>
		<path style="fill-rule:evenodd;clip-rule:evenodd;fill:#93B2F4;" d="M212.374,100.367c5.25-32.729,16.957-63.3,33.771-90.367
			H115.428l0,90.367h23.429H212.374z"/>
		<path style="fill-rule:evenodd;clip-rule:evenodd;fill:#93B2F4;" d="M209.327,145.551h-70.47h-23.43l0,50.204h23.429h76.831
			C211.913,179.576,209.734,162.783,209.327,145.551z"/>
		<path style="fill-rule:evenodd;clip-rule:evenodd;fill:#93B2F4;" d="M231.02,240.94h-92.162h-23.43v50.204h146.011
			C249.406,275.773,239.162,258.933,231.02,240.94z"/>
	</g>
	<g>
		<g>
			<g>
				<path style="fill:#93B2F4;" d="M256,371.429c-5.522,0-10-4.477-10-10v-65.264c0-5.523,4.478-10,10-10s10,4.477,10,10v65.264
					C266,366.952,261.522,371.429,256,371.429z"/>
			</g>
			<g>
				<path style="fill:#93B2F4;" d="M130.49,444.225H35.102c-5.522,0-10-4.477-10-10s4.478-10,10-10h95.388c5.522,0,10,4.477,10,10
					S136.012,444.225,130.49,444.225z"/>
			</g>
			<g>
				<path style="fill:#93B2F4;" d="M476.898,444.224H381.51c-5.522,0-10-4.477-10-10s4.478-10,10-10h95.388c5.522,0,10,4.477,10,10
					S482.42,444.224,476.898,444.224z"/>
			</g>
		</g>
		<g>
			<path style="fill:#052A75;" d="M351.387,45.184h-0.007c-5.522,0-9.996,4.477-9.996,10s4.48,10,10.003,10s10-4.477,10-10
				S356.91,45.184,351.387,45.184z"/>
			<path style="fill:#052A75;" d="M306.205,45.184h-0.008c-5.522,0-9.996,4.477-9.996,10s4.481,10,10.004,10s10-4.477,10-10
				S311.727,45.184,306.205,45.184z"/>
			<path style="fill:#052A75;" d="M261.021,45.184h-0.008c-5.522,0-9.996,4.477-9.996,10s4.481,10,10.004,10s10-4.477,10-10
				S266.543,45.184,261.021,45.184z"/>
			<path style="fill:#052A75;" d="M376.49,356.449H135.51c-5.522,0-10,4.477-10,10V502c0,5.523,4.478,10,10,10H376.49
				c5.522,0,10-4.477,10-10V366.449C386.49,360.926,382.012,356.449,376.49,356.449z M366.49,492H145.51V376.449H366.49V492z"/>
			<path style="fill:#052A75;" d="M396.571,110.367c5.522,0,10-4.477,10-10V10c0-5.523-4.478-10-10-10H115.428
				c-5.522,0-10,4.477-10,10v90.367c0,5.523,4.478,10,10,10h13.43v25.184h-13.43c-5.522,0-10,4.477-10,10v50.205
				c0,5.523,4.478,10,10,10h13.43v25.184h-13.43c-5.522,0-10,4.477-10,10v50.205c0,5.523,4.478,10,10,10h281.143
				c5.522,0,10-4.477,10-10v-50.205c0-5.523-4.478-10-10-10h-13.429v-25.184h13.429c5.522,0,10-4.477,10-10v-50.205
				c0-5.523-4.478-10-10-10h-13.429v-25.184H396.571z M125.428,20h261.143v70.367H125.428V20z M386.571,281.144H125.428v-30.205
				h261.143V281.144z M363.142,230.939H148.858v-25.184h214.284V230.939z M386.571,185.756H125.428v-30.205h261.143V185.756z
				 M363.142,135.551H148.858v-25.184h214.284V135.551z"/>
		</g>
		<g>
			<g>
				<path style="fill:#FFFFFF;" d="M242.947,466.818c-1.696,0-3.415-0.432-4.99-1.341c-4.783-2.761-6.422-8.877-3.66-13.66
					l26.087-45.184c2.762-4.783,8.876-6.422,13.66-3.66c4.783,2.761,6.422,8.877,3.66,13.66l-26.087,45.184
					C249.765,465.024,246.403,466.818,242.947,466.818z"/>
			</g>
			<g>
				<path style="fill:#FFFFFF;" d="M207.813,466.816c-2.56,0-5.118-0.976-7.071-2.929l-22.592-22.592
					c-3.905-3.905-3.905-10.237,0-14.143l22.592-22.592c3.906-3.905,10.236-3.905,14.143,0c3.905,3.905,3.905,10.237,0,14.143
					l-15.521,15.521l15.521,15.521c3.905,3.905,3.905,10.237,0,14.143C212.931,465.84,210.373,466.816,207.813,466.816z"/>
			</g>
			<g>
				<path style="fill:#FFFFFF;" d="M304.186,466.816c-2.56,0-5.118-0.976-7.071-2.929c-3.905-3.905-3.905-10.237,0-14.143
					l15.521-15.521l-15.521-15.521c-3.905-3.905-3.905-10.237,0-14.143c3.906-3.905,10.236-3.905,14.143,0l22.592,22.592
					c3.905,3.905,3.905,10.237,0,14.143l-22.592,22.592C309.304,465.84,306.746,466.816,304.186,466.816z"/>
			</g>
		</g>
	</g>
</g>
<g>
</g>
<g>
</g>
<g>
</g>
<g>
</g>
<g>
</g>
<g>
</g>
<g>
</g>
<g>
</g>
<g>
</g>
<g>
</g>
<g>
</g>
<g>
</g>
<g>
</g>
<g>
</g>
<g>
</g>
</svg>
