<?xml version="1.0" encoding="iso-8859-1"?>
<!-- Generator: Adobe Illustrator 26.5.3, SVG Export Plug-In . SVG Version: 6.00 Build 0)  -->
<svg version="1.1" id="Capa_1" xmlns="http://www.w3.org/2000/svg" xmlns:xlink="http://www.w3.org/1999/xlink" x="0px" y="0px"
	 viewBox="0 0 510.099 510.099" style="enable-background:new 0 0 510.099 510.099;" xml:space="preserve">
<g>
	<g>
		<g>
			<path style="fill:#FFFFFF;" d="M254.356,267.885v44.487l75.036,11.094c36.1,5.337,62.838,36.32,62.838,72.812V500h-378V396.278
				c0-36.492,26.738-67.474,62.838-72.812l75.036-11.094v-44.487H254.356z"/>
		</g>
		<path style="fill:#D2DCFD;" d="M447.869,290.902h-30.48c-26.51,0-48,21.49-48,48v0h126.48v0
			C495.869,312.392,474.378,290.902,447.869,290.902z"/>
		<path style="fill:#D2DCFD;" d="M495.869,338.902l-18.612,161.197h-89.256l-18.612-161.197H495.869z"/>
		<g>
			<path style="fill:#FDE0BE;" d="M300.027,139.529v45.637c0,53.46-43.338,96.797-96.797,96.797h0
				c-53.46,0-96.797-43.338-96.797-96.797v-45.637l120.635-59.77L300.027,139.529z"/>
		</g>
		<path style="fill:#FDCB50;" d="M246.108,22.477C231.567,14.525,214.886,10,197.145,10C140.696,10,94.934,55.762,94.934,112.211
			c0,9.461,1.285,18.622,3.691,27.317c51.521,0,97.629-23.175,128.468-59.669l-0.026-0.101
			c11.207,31.784,39.833,55.349,74.423,59.207c6.391-11.415,10.034-24.576,10.034-38.588
			C311.526,61.36,283.269,28.963,246.108,22.477z"/>
		<path style="fill:#D2DCFD;" d="M130.144,315.619l-53.076,7.848c-36.1,5.337-62.838,36.32-62.838,72.812V500h198.602
			C162.161,454.718,130.232,388.902,130.144,315.619z"/>
		<g>
			<polygon style="fill:#FD7DA0;" points="274.281,315.318 203.23,456 132.179,315.318 81.071,322.874 90.01,423.49 81.071,500 
				325.389,500 325.389,322.874 			"/>
		</g>
		<path style="fill:#DB4B86;" d="M105.993,319.19l-24.921,3.685V500h107.224C140.785,457.541,109.751,388.097,105.993,319.19z"/>
		<g>
			<path style="fill:#FD7DA0;" d="M205.786,314.19l-61.535,29.677c-6.531,3.15-14.11-1.609-14.11-8.86v-59.355
				c0-7.251,7.579-12.01,14.11-8.86l61.535,29.678C213.204,300.047,213.204,310.612,205.786,314.19z"/>
			<path style="fill:#FD7DA0;" d="M200.928,314.19l61.535,29.677c6.531,3.15,14.11-1.609,14.11-8.86v-59.355
				c0-7.251-7.579-12.01-14.11-8.86l-61.535,29.678C193.51,300.047,193.51,310.612,200.928,314.19z"/>
			<path style="fill:#FD7DA0;" d="M217.725,328.932h-28.736c-5.03,0-9.108-4.078-9.108-9.108v-28.736
				c0-5.03,4.078-9.108,9.108-9.108h28.736c5.03,0,9.108,4.078,9.108,9.108v28.736C226.833,324.854,222.755,328.932,217.725,328.932
				z"/>
		</g>
	</g>
	<g>
		<g>
			<path style="fill:#FD7DA0;" d="M202.987,237.861c-7.785,0-15.57-2.964-21.498-8.891c-3.905-3.905-3.905-10.237,0-14.143
				c3.906-3.904,10.236-3.904,14.143,0c4.058,4.057,10.656,4.056,14.712,0c3.906-3.904,10.236-3.904,14.143,0
				c3.905,3.905,3.905,10.237,0,14.143C218.558,234.897,210.773,237.861,202.987,237.861z"/>
		</g>
		<path style="fill:#052A75;" d="M447.869,280.901h-5.24v-8.914c0-5.522-4.478-10-10-10s-10,4.478-10,10v8.914h-5.239
			c-26.956,0-49.673,18.484-56.148,43.442c-9.266-5.497-19.539-9.166-30.386-10.771l-44.282-6.546v-31.375
			c0-6.093-2.738-11.719-7.415-15.462c19.074-19.301,30.869-45.81,30.869-75.024v-41.005c0.063-0.104,0.13-0.204,0.189-0.311
			c7.398-13.216,11.31-28.248,11.31-43.473c0-42.84-30.205-79.355-72.066-87.452C233.422,4.465,215.372,0,197.145,0
			C135.272,0,84.934,50.338,84.934,112.212c0,10.177,1.364,20.265,4.054,29.984c0.999,3.609,3.904,6.287,7.444,7.083v35.887
			c0,29.271,11.84,55.825,30.978,75.136c-4.591,3.743-7.27,9.319-7.27,15.351v31.337l-44.535,6.584
			c-19.831,2.933-37.966,12.905-51.064,28.082C11.443,356.833,4.23,376.231,4.23,396.278V500c0,5.522,4.478,10,10,10l463.026,0.099
			c5.079,0,9.352-3.808,9.934-8.853l18.612-161.197c0.044-0.381,0.066-0.765,0.066-1.147
			C505.869,306.92,479.85,280.901,447.869,280.901z M417.389,300.901h30.479c17.493,0,32.261,11.883,36.662,28H380.727
			C385.128,312.784,399.896,300.901,417.389,300.901z M140.141,275.912l29.781,14.363c-0.011,0.271-0.041,0.539-0.041,0.813v28.735
			c0,0.191,0.023,0.376,0.029,0.566l-29.77,14.356L140.141,275.912z M189.881,318.933V291.98h26.951v26.952H189.881z
			 M236.791,290.275l29.781-14.362l-0.001,58.833l-29.768-14.356c0.006-0.19,0.029-0.375,0.029-0.566v-28.735
			C236.833,290.814,236.803,290.547,236.791,290.275z M197.145,20c15.433,0,30.705,3.891,44.165,11.251
			c0.96,0.524,2,0.889,3.078,1.077c33.108,5.778,57.138,34.397,57.138,68.05c0,9.518-1.968,18.935-5.73,27.589
			c-27.378-5.497-49.821-25.124-59.153-51.08c-0.077-0.249-0.164-0.496-0.262-0.74c-1.51-4.337-2.656-8.848-3.398-13.495
			c-0.873-5.454-6-9.16-11.454-8.296c-5.453,0.872-9.167,6-8.296,11.454c0.639,3.992,1.515,7.906,2.612,11.723
			c-28.224,31.163-67.446,49.724-109.324,51.802c-1.054-5.619-1.586-11.352-1.586-17.122C104.934,61.366,146.299,20,197.145,20z
			 M116.432,148.641c40.7-4.068,78.685-21.99,107.751-50.888c13.63,24.841,37.542,43.178,65.844,49.425v37.988
			c0,47.86-38.937,86.797-86.797,86.797s-86.798-38.937-86.798-86.797V148.641z M24.23,396.278c0-15.251,5.487-30.01,15.452-41.556
			s23.761-19.134,38.849-21.364l41.609-6.152v7.8c0,6.868,3.473,13.148,9.288,16.8c3.229,2.028,6.874,3.053,10.536,3.053
			c2.934,0,5.879-0.658,8.63-1.985l32.495-15.672c2.411,1.101,5.081,1.73,7.899,1.73h28.736c2.819,0,5.489-0.63,7.9-1.73
			l32.494,15.672c2.752,1.327,5.696,1.985,8.631,1.985c3.661,0,7.307-1.025,10.535-3.053c5.815-3.651,9.288-9.932,9.288-16.8v-7.763
			l41.356,6.114c12.121,1.793,23.305,6.958,32.482,14.971L376.769,490H24.23V396.278z M468.344,490.099h-71.432L380.61,348.901
			h104.037L468.344,490.099z"/>
	</g>
</g>
<g>
</g>
<g>
</g>
<g>
</g>
<g>
</g>
<g>
</g>
<g>
</g>
<g>
</g>
<g>
</g>
<g>
</g>
<g>
</g>
<g>
</g>
<g>
</g>
<g>
</g>
<g>
</g>
<g>
</g>
</svg>
