<?xml version="1.0" encoding="iso-8859-1"?>
<!-- Generator: Adobe Illustrator 27.5.0, SVG Export Plug-In . SVG Version: 6.00 Build 0)  -->
<svg version="1.1" id="Layer_1" xmlns="http://www.w3.org/2000/svg" xmlns:xlink="http://www.w3.org/1999/xlink" x="0px" y="0px"
	 viewBox="0 0 510 510" style="enable-background:new 0 0 510 510;" xml:space="preserve">
<g>
	<g>
		<path style="fill:#FFFFFF;" d="M239.69,141.232h30.621c46.79,0,84.721,37.931,84.721,84.721v22.026H154.969v-22.026
			C154.969,179.163,192.9,141.232,239.69,141.232z"/>
		<path style="fill:#D2DCFD;" d="M229.591,168.098c0-9.265,1.393-18.203,3.975-26.622c-43.928,3.141-78.598,39.748-78.598,84.477
			v22.026h122.375C248.916,232.676,229.591,202.645,229.591,168.098z"/>
		<path style="fill:#FDCB50;" d="M255,418.333L255,418.333c-45.103,0-81.667,36.563-81.667,81.667l0,0h163.333l0,0
			C336.667,454.897,300.103,418.333,255,418.333z"/>
		<circle style="fill:#D46B5C;" cx="255" cy="377.156" r="41.177"/>
		<path style="fill:#67CCD1;" d="M418.333,418.333L418.333,418.333c-45.103,0-81.667,36.563-81.667,81.667l0,0H500l0,0
			C500,454.897,463.437,418.333,418.333,418.333z"/>
		<circle style="fill:#FDE0BE;" cx="418.333" cy="377.156" r="41.177"/>
		<path style="fill:#FD7DA0;" d="M91.667,418.333L91.667,418.333C46.563,418.333,10,454.897,10,500l0,0h163.333l0,0
			C173.333,454.897,136.77,418.333,91.667,418.333z"/>
		<circle style="fill:#FDBEB9;" cx="91.667" cy="377.156" r="41.177"/>
		<path style="fill:#D46B5C;" d="M205.868,69.983v22c0,27.199,22.049,49.249,49.249,49.249h0c27.199,0,49.249-22.049,49.249-49.249
			v-22H205.868z"/>
		<path style="fill:#93B2F4;" d="M205.868,69.983V48.436c0-21.228,17.209-38.436,38.436-38.436h60.061v59.983H205.868z"/>
	</g>
	<g>
		<g>
			<path style="fill:#93B2F4;" d="M91.667,345.979c-5.523,0-10-4.477-10-10v-88c0-5.523,4.477-10,10-10h63.302
				c5.523,0,10,4.477,10,10s-4.477,10-10,10h-53.302v78C101.667,341.502,97.189,345.979,91.667,345.979z"/>
		</g>
		<g>
			<path style="fill:#93B2F4;" d="M418.333,345.979c-5.523,0-10-4.477-10-10v-78h-53.302c-5.523,0-10-4.477-10-10s4.477-10,10-10
				h63.302c5.523,0,10,4.477,10,10v88C428.333,341.502,423.856,345.979,418.333,345.979z"/>
		</g>
		<g>
			<path style="fill:#93B2F4;" d="M255,345.979c-5.523,0-10-4.477-10-10v-88c0-5.523,4.477-10,10-10s10,4.477,10,10v88
				C265,341.502,260.523,345.979,255,345.979z"/>
		</g>
		<g>
			<path style="fill:#052A75;" d="M452.716,415.031c10.311-9.369,16.794-22.879,16.794-37.875c0-28.219-22.958-51.177-51.177-51.177
				s-51.177,22.958-51.177,51.177c0,14.996,6.484,28.506,16.794,37.875c-20.472,8.314-37.285,23.815-47.284,43.36
				c-9.999-19.545-26.812-35.046-47.284-43.36c10.311-9.369,16.794-22.879,16.794-37.875c0-28.219-22.958-51.177-51.177-51.177
				s-51.177,22.958-51.177,51.177c0,14.996,6.484,28.506,16.794,37.875c-20.471,8.314-37.285,23.815-47.284,43.36
				c-9.999-19.545-26.813-35.046-47.284-43.36c10.311-9.369,16.794-22.879,16.794-37.875c0-28.219-22.958-51.177-51.177-51.177
				s-51.177,22.958-51.177,51.177c0,14.996,6.484,28.506,16.794,37.875C23.727,428.66,0,461.609,0,500c0,5.523,4.477,10,10,10h490
				c5.523,0,10-4.477,10-10C510,461.609,486.273,428.66,452.716,415.031z M387.156,377.156c0-17.191,13.986-31.177,31.177-31.177
				s31.177,13.986,31.177,31.177s-13.986,31.177-31.177,31.177S387.156,394.348,387.156,377.156z M223.823,377.156
				c0-17.191,13.986-31.177,31.177-31.177s31.177,13.986,31.177,31.177S272.191,408.333,255,408.333
				S223.823,394.348,223.823,377.156z M60.489,377.156c0-17.191,13.986-31.177,31.177-31.177s31.177,13.986,31.177,31.177
				s-13.986,31.177-31.177,31.177S60.489,394.348,60.489,377.156z M20.695,490c4.88-34.8,34.848-61.667,70.971-61.667
				S157.758,455.2,162.638,490H20.695z M184.029,490c4.88-34.8,34.848-61.667,70.971-61.667S321.091,455.2,325.971,490H184.029z
				 M347.362,490c4.88-34.8,34.848-61.667,70.972-61.667S484.424,455.2,489.305,490H347.362z"/>
			<path style="fill:#052A75;" d="M154.969,257.979h200.063c5.523,0,10-4.477,10-10v-22.026c0-43.32-29.232-79.939-69.006-91.172
				c11.288-10.794,18.34-25.983,18.34-42.798V10c0-5.523-4.477-10-10-10h-60.062c-26.708,0-48.436,21.729-48.436,48.437v43.546
				c0,16.789,7.031,31.957,18.288,42.749c-39.866,11.173-69.188,47.836-69.188,91.221v22.026
				C144.969,253.501,149.446,257.979,154.969,257.979z M215.868,79.983h78.498v12c0,21.642-17.607,39.249-39.249,39.249
				c-21.642,0-39.249-17.607-39.249-39.249V79.983z M215.868,48.437c0-15.68,12.756-28.437,28.436-28.437h50.062v39.983h-78.498
				V48.437z M164.969,225.953c0-41.201,33.52-74.721,74.721-74.721H245v21.748c0,5.523,4.477,10,10,10s10-4.477,10-10v-21.748h5.311
				c41.201,0,74.721,33.52,74.721,74.721v12.026H164.969V225.953z"/>
		</g>
	</g>
</g>
<g>
</g>
<g>
</g>
<g>
</g>
<g>
</g>
<g>
</g>
<g>
</g>
<g>
</g>
<g>
</g>
<g>
</g>
<g>
</g>
<g>
</g>
<g>
</g>
<g>
</g>
<g>
</g>
<g>
</g>
</svg>
