<?xml version="1.0" encoding="iso-8859-1"?>
<!-- Generator: Adobe Illustrator 27.5.0, SVG Export Plug-In . SVG Version: 6.00 Build 0)  -->
<svg version="1.1" id="Layer_1" xmlns="http://www.w3.org/2000/svg" xmlns:xlink="http://www.w3.org/1999/xlink" x="0px" y="0px"
	 viewBox="0 0 510 510" style="enable-background:new 0 0 510 510;" xml:space="preserve">
<g>
	<g>
		<path style="fill:#67CCD1;" d="M264.855,272.493l18.541,1.885c41.602,4.229,73.252,39.26,73.252,81.077v139.069H183.324H10
			V355.455c0-41.817,31.65-76.848,73.252-81.077l18.541-1.885H264.855z"/>
		<path style="fill:#27A2CC;" d="M356.648,355.455c0-41.817-31.65-76.848-73.253-81.077l-18.541-1.885h-19.217
			c-15.216,11.7-25.032,30.076-25.032,50.754v168.522c0,0.924,0.031,1.84,0.07,2.754h135.973V355.455z"/>
		<polygon style="fill:#F7B073;" points="221.005,251.817 221.005,225.176 145.643,225.176 145.643,251.817 183.324,303.298 		"/>
		<polygon style="fill:#FFFFFF;" points="183.324,303.298 142.567,336.285 101.81,272.658 145.643,251.817 		"/>
		<polygon style="fill:#FFFFFF;" points="183.324,303.298 224.081,336.285 264.838,272.658 221.005,251.817 		"/>
		<g>
			<path style="fill:#FDE0BE;" d="M104.702,97.932v55.772c0,43.505,35.267,78.772,78.772,78.772h0
				c43.505,0,78.772-35.267,78.772-78.772V97.932H104.702z"/>
		</g>
		<path style="fill:#F7B073;" d="M104.702,153.704c0,1.429,0.043,2.847,0.118,4.257c35.289-0.404,69.788-5.95,102.967-16.576
			c16.267,9.991,34.998,15.796,54.345,16.525c0.073-1.393,0.114-2.794,0.114-4.206V97.932H104.702V153.704z"/>
		<path style="fill:#D46B5C;" d="M262.246,115.275V72.822c0-31.671-25.674-57.346-57.346-57.346h-42.853
			c-31.671,0-57.346,25.675-57.346,57.346v42.453c39.799,0,77.685-8.176,112.087-22.92
			C227.122,106.24,243.608,115.275,262.246,115.275z"/>
		<g>
			<path style="fill:#FD8F01;" d="M478,494.523H306.606c-12.15,0-22-9.85-22-22V348.001c0-12.15,9.85-22,22-22H478
				c12.15,0,22,9.85,22,22v124.522C500,484.674,490.15,494.523,478,494.523z"/>
			<path style="fill:#FD6050;" d="M356.648,406.318c0-30.539,10.89-58.532,28.994-80.316h-79.036c-12.15,0-22,9.85-22,22v124.522
				c0,12.15,9.85,22,22,22h86.18C370.441,471.826,356.648,440.685,356.648,406.318z"/>
			<path style="fill:#FDCB50;" d="M306.606,326.001H478c12.15,0,22,9.85,22,22v29.964c0,15.659-12.694,28.352-28.352,28.352h-115
				L306.606,326.001z"/>
			<path style="fill:#FD8F01;" d="M312.958,406.318h43.69l0,0c0-30.539,10.89-58.532,28.994-80.316h-79.036c-12.15,0-22,9.85-22,22
				v29.964C284.606,393.624,297.3,406.318,312.958,406.318z"/>
			<path style="fill:#FFFFFF;" d="M392.303,427.88L392.303,427.88c-12.15,0-22-9.85-22-22v-30h44v30
				C414.303,418.03,404.453,427.88,392.303,427.88z"/>
		</g>
	</g>
	<g>
		<g>
			<path style="fill:#DB4B86;" d="M183.474,191.851c-7.019,0-13.617-2.733-18.579-7.696c-3.905-3.905-3.905-10.237,0-14.142
				c3.906-3.904,10.237-3.905,14.142,0c1.185,1.185,2.761,1.838,4.437,1.838c1.676,0,3.252-0.653,4.437-1.838
				c3.905-3.904,10.237-3.904,14.143,0c3.905,3.905,3.905,10.237,0,14.143C197.09,189.117,190.492,191.851,183.474,191.851z"/>
		</g>
		<path style="fill:#052A75;" d="M478,316.001h-39.346v-21.337c0-14.702-11.96-26.663-26.662-26.663h-39.377
			c-14.702,0-26.663,11.961-26.663,26.663v2.764c-15.063-18.443-36.959-30.499-61.545-32.999l-17.283-1.757l-36.119-17.174v-16.851
			c24.772-15.766,41.241-43.467,41.241-74.943V72.822c0-37.135-30.211-67.346-67.346-67.346h-42.853
			c-37.135,0-67.346,30.211-67.346,67.346v80.882c0,31.35,16.335,58.957,40.941,74.755v17.039l-36.119,17.174l-17.283,1.757
			C35.356,269.196,0,308.328,0,355.455v139.069c0,5.523,4.477,10,10,10h468c17.645,0,32-14.355,32-32V348.001
			C510,330.356,495.645,316.001,478,316.001z M372.614,288.001h39.377c3.673,0,6.662,2.989,6.662,6.663v21.337h-52.702v-21.337
			C365.952,290.99,368.94,288.001,372.614,288.001z M224.186,264.402l26.112,12.416l-28.611,44.665l-24.667-19.964L224.186,264.402z
			 M114.702,72.822c0-26.106,21.239-47.346,47.346-47.346H204.9c26.106,0,47.346,21.239,47.346,47.346v31.385
			c-10.875-2.364-20.553-8.574-27.435-17.823c-2.763-3.711-7.71-5.042-11.962-3.221c-31.185,13.366-64.154,20.729-98.147,21.935
			V72.822z M114.702,153.705V125.09c34.227-1.132,67.503-8.063,99.145-20.696c10.273,10.925,23.685,17.941,38.399,20.136v29.175
			c0,37.921-30.851,68.772-68.772,68.772C145.553,222.477,114.702,191.625,114.702,153.705z M183.474,242.477
			c9.607,0,18.859-1.54,27.531-4.376v10.448l-27.681,37.819l-27.681-37.819v-10.545
			C164.401,240.902,173.756,242.477,183.474,242.477z M142.462,264.402l27.166,37.116l-24.667,19.964l-28.611-44.665
			L142.462,264.402z M20,355.455c0-36.825,27.627-67.403,64.264-71.128l12.341-1.255l37.541,58.607
			c1.534,2.395,4.016,4.023,6.824,4.478c0.532,0.086,1.065,0.128,1.597,0.128c2.274,0,4.499-0.776,6.291-2.227l34.466-27.895
			l34.466,27.895c1.792,1.451,4.017,2.227,6.291,2.227c0.531,0,1.065-0.042,1.597-0.128c2.808-0.454,5.29-2.083,6.824-4.478
			l37.541-58.607l12.341,1.255c21.718,2.208,40.749,13.958,52.418,31.675h-28.196c-17.645,0-32,14.355-32,32v124.522
			c0,4.243,0.837,8.292,2.343,12H91.874V377.162c0-5.523-4.477-10-10-10s-10,4.477-10,10v107.362H20V355.455z M490,472.523
			c0,6.617-5.383,12-12,12H306.606c-6.617,0-12-5.383-12-12V348.001c0-6.617,5.383-12,12-12H478c6.617,0,12,5.383,12,12V472.523z"/>
	</g>
	<g>
		<circle style="fill:#FFFFFF;" cx="183.324" cy="383.508" r="10"/>
		<circle style="fill:#FFFFFF;" cx="183.324" cy="439.842" r="10"/>
	</g>
</g>
<g>
</g>
<g>
</g>
<g>
</g>
<g>
</g>
<g>
</g>
<g>
</g>
<g>
</g>
<g>
</g>
<g>
</g>
<g>
</g>
<g>
</g>
<g>
</g>
<g>
</g>
<g>
</g>
<g>
</g>
</svg>
