<?xml version="1.0" encoding="iso-8859-1"?>
<!-- Generator: Adobe Illustrator 27.0.0, SVG Export Plug-In . SVG Version: 6.00 Build 0)  -->
<svg version="1.1" id="Capa_1" xmlns="http://www.w3.org/2000/svg" xmlns:xlink="http://www.w3.org/1999/xlink" x="0px" y="0px"
	 viewBox="0 0 512 512" style="enable-background:new 0 0 512 512;" xml:space="preserve">
<g>
	<g>
		<rect x="286.614" y="60.023" style="fill:#D46B5C;" width="151.637" height="375.708"/>
		<polygon style="fill:#27A2CC;" points="198.255,214.868 176.165,192.779 51.659,192.779 51.659,236.958 157.865,236.958 
			198.255,277.348 		"/>
		<rect x="286.614" y="395.731" style="fill:#B55348;" width="151.637" height="40"/>
		<polygon style="fill:#FDCB50;" points="384.522,185.259 384.522,241.581 362.433,232.781 340.343,241.581 340.343,185.259 		"/>
		<polygon style="fill:#FDCB50;" points="384.522,60.023 384.522,116.345 362.433,107.545 340.343,116.345 340.343,60.023 		"/>
		<polygon style="fill:#FDCB50;" points="384.522,310.495 384.522,366.817 362.433,358.017 340.343,366.817 340.343,310.495 		"/>
		<rect x="263.52" y="435.731" style="fill:#67CCD1;" width="196.821" height="44.18"/>
		<path style="fill:#67CCD1;" d="M242.434,419.737V32.09c0-12.2-9.89-22.09-22.09-22.09h0c-12.2,0-22.09,9.89-22.09,22.09v387.647
			H242.434z"/>
		<rect x="51.659" y="192.779" style="fill:#FD6050;" width="80.327" height="44.18"/>
		<circle style="fill:#D2DCFD;" cx="220.345" cy="457.82" r="44.18"/>
		<path style="fill:#27A2CC;" d="M263.52,479.91h38.043c1.918-7.044,2.961-14.446,2.961-22.09s-1.043-15.045-2.961-22.09H263.52
			V479.91z"/>
		<path style="fill:#27A2CC;" d="M242.435,376.602c-7.045-1.918-14.446-2.961-22.09-2.961s-15.045,1.043-22.09,2.961v43.135h44.18
			V376.602z"/>
	</g>
	<g>
		<path style="fill:#052A75;" d="M460.341,425.73h-12.09V60.023c0-5.523-4.478-10-10-10H286.614c-5.522,0-10,4.477-10,10V425.73
			h-12.649c-3.243-4.397-7.133-8.287-11.53-11.53V32.09c0-17.694-14.396-32.09-32.09-32.09s-32.09,14.396-32.09,32.09v158.636
			l-5.019-5.019c-1.876-1.875-4.419-2.929-7.071-2.929h-34.18V172.08c0-5.523-4.478-10-10-10s-10,4.477-10,10v10.699H51.659
			c-5.522,0-10,4.477-10,10v44.179c0,5.523,4.478,10,10,10h70.326v10.699c0,5.523,4.478,10,10,10s10-4.477,10-10v-10.699h11.737
			l34.532,34.532V414.2c-13.386,9.874-22.09,25.747-22.09,43.62c0,29.875,24.305,54.18,54.18,54.18
			c17.873,0,33.746-8.704,43.62-22.09h196.376c5.522,0,10-4.477,10-10v-44.18C470.341,430.208,465.863,425.73,460.341,425.73z
			 M61.659,226.958v-24.179h60.326v24.179H61.659z M164.937,229.887c-1.876-1.875-4.419-2.929-7.071-2.929h-15.88v-24.179h30.037
			l16.232,16.232v34.194L164.937,229.887z M208.255,32.09c0-6.667,5.424-12.09,12.09-12.09s12.09,5.423,12.09,12.09v372.927
			c-3.89-0.891-7.933-1.377-12.09-1.377s-8.199,0.486-12.09,1.377V32.09z M220.345,492c-18.847,0-34.18-15.333-34.18-34.18
			s15.333-34.18,34.18-34.18s34.18,15.333,34.18,34.18S239.191,492,220.345,492z M296.614,195.259h131.637v105.236H296.614V195.259z
			 M296.614,70.023h131.637v105.236H296.614V70.023z M296.614,320.495h131.637V425.73H296.614V320.495z M450.341,469.91H273.148
			c0.891-3.89,1.377-7.933,1.377-12.09s-0.486-8.199-1.377-12.09h177.193V469.91z"/>
		<path style="fill:#FFFFFF;" d="M229.58,454c-3.207-8.146-15.264-8.145-18.47,0c-2.842,6.287,2.345,14.018,9.23,13.82
			C227.229,468.02,232.417,460.295,229.58,454z"/>
	</g>
</g>
<g>
</g>
<g>
</g>
<g>
</g>
<g>
</g>
<g>
</g>
<g>
</g>
<g>
</g>
<g>
</g>
<g>
</g>
<g>
</g>
<g>
</g>
<g>
</g>
<g>
</g>
<g>
</g>
<g>
</g>
</svg>
