<?xml version="1.0" encoding="iso-8859-1"?>
<!-- Generator: Adobe Illustrator 27.2.0, SVG Export Plug-In . SVG Version: 6.00 Build 0)  -->
<svg version="1.1" id="Capa_1" xmlns="http://www.w3.org/2000/svg" xmlns:xlink="http://www.w3.org/1999/xlink" x="0px" y="0px"
	 viewBox="0 0 509.955 509.955" style="enable-background:new 0 0 509.955 509.955;" xml:space="preserve">
<g>
	<g>
		<path style="fill:#67CCD1;" d="M482.582,379.5c-12.233-49.667-43.387-92.279-97.374-99.077v8.718
			c0,15.556-12.608,28.154-28.154,28.154c-15.547,0-28.154-12.598-28.154-28.154v-8.718h-0.071
			c-9.972,1.262-20.141,3.934-29.219,7.357c1.089,2.062,1.71,4.409,1.71,6.903v100.266c0,8.204-6.65,14.844-14.844,14.844h-56.059
			v41.271h105.526c4.668,0,8.451,3.784,8.451,8.451v31.985c0,4.667-3.784,8.451-8.451,8.451h-0.023l0.023,0.004h148.274
			c5.512,0,9.955-4.513,9.896-10.034C493.696,452.999,491.442,415.473,482.582,379.5z"/>
		<path style="fill:#6864F5;" d="M335.942,451.063c4.668,0,8.451,3.784,8.451,8.451v31.986c0,4.667-3.784,8.451-8.451,8.451H37.05
			c-4.668,0-8.451-3.784-8.451-8.451v-31.985c0-4.668,3.784-8.451,8.451-8.451H335.942z"/>
		<path style="fill:#27A2CC;" d="M317.461,309.644c0-9.456,0.832-18.718,2.42-27.718c-6.997,1.435-13.904,3.453-20.272,5.854
			c1.089,2.062,1.71,4.409,1.71,6.903v100.266c0,8.204-6.65,14.844-14.844,14.844h-56.059v41.271h105.526
			c4.668,0,8.451,3.784,8.451,8.451v31.985c0,4.667-3.784,8.451-8.451,8.451h-0.023l0.023,0.004h148.274
			c5.512,0,9.955-4.513,9.896-10.034c-0.086-7.592-0.256-15.211-0.538-22.835c-5.807,0.645-11.705,0.988-17.684,0.988
			C388.392,468.072,317.461,397.141,317.461,309.644z"/>
		<path style="fill:#6864F5;" d="M79.612,318.621H33.846c-9.944,0-18.004,8.061-18.004,18.004s8.061,18.005,18.004,18.005h45.766
			c9.943,0,18.005-8.061,18.005-18.005S89.556,318.621,79.612,318.621z"/>
		<path style="fill:#91B0F2;" d="M220.778,361.235h-15.126c-5.323,0-9.639,4.315-9.639,9.638v80.144l34.403,0.118v-80.262
			C230.416,365.551,226.101,361.235,220.778,361.235z"/>
		<path style="fill:#D2DCFD;" d="M286.475,279.838h-146.52c-8.204,0-14.844,6.65-14.844,14.844v100.266
			c0,8.204,6.64,14.844,14.844,14.844h56.058v-38.919c0-5.323,4.315-9.638,9.639-9.638h15.126c5.323,0,9.639,4.315,9.639,9.638
			v38.919h56.059c8.194,0,14.844-6.64,14.844-14.844V294.682C301.319,286.489,294.669,279.838,286.475,279.838z"/>
		<path style="fill:#FBBCB7;" d="M445.82,164.204H424.9l-0.002,0.018c-0.415-5.868-1.141-11.374-2.157-16.516
			c-22.788-1.884-45.292-7.013-66.627-15.207c-15.979-6.14-32.094-14.889-43.045-27.588c-13.06,12.301-21.926,31.782-23.869,59.325
			l-0.003-0.033h-20.92c-10.935,0-19.812,8.867-19.812,19.812c0,10.935,8.877,19.812,19.812,19.812h24.65
			c7.331,23.137,23.423,38.487,40.078,46.099l-4.105-0.019v39.233c0,15.556,12.607,28.154,28.154,28.154
			c15.547,0,28.154-12.598,28.154-28.154v-38.978l-4.589-0.021c16.823-7.534,33.155-22.954,40.557-46.314h24.645
			c10.945,0,19.812-8.877,19.812-19.812C465.632,173.071,456.765,164.204,445.82,164.204z"/>
		<path style="fill:#F7B073;" d="M453.005,54.181C414.252,4.483,362.315,4.084,321.428,17.338
			c-43.06,13.958-50.786,55.328-50.786,55.328c-49.747,1.831-29.924,53.017-7.153,90.147l0.712,1.405
			c1.882-0.042,2.557-0.014,4.076-0.014h20.925c1.948-27.526,10.813-46.997,23.867-59.293
			c10.951,12.699,27.066,21.449,43.045,27.588c21.335,8.194,43.84,13.323,66.627,15.207c1.015,5.137,1.74,10.636,2.155,16.498
			h20.923c3.393,0,6.584,0.855,9.375,2.357l0.324-4.036C467.098,141.724,485.8,96.229,453.005,54.181z"/>
		<path style="fill:#FD7DA0;" d="M333.003,249.926c0,0,0.001,0,0.001,0.001l-4.105-0.019v24.227
			c7.411,6.564,17.153,10.556,27.832,10.556c10.99,0,20.99-4.225,28.476-11.134v-23.394l-4.589-0.021
			c-8.052,3.606-16.214,5.41-23.562,5.41C349.558,255.552,341.213,253.678,333.003,249.926z"/>
	</g>
	<g>
		<path style="fill:#052A75;" d="M415.572,387.71h-46.816c-5.523,0-10-4.477-10-10c0-5.523,4.477-10,10-10h46.816
			c5.523,0,10,4.477,10,10C425.572,383.233,421.095,387.71,415.572,387.71z"/>
		<path style="fill:#052A75;" d="M492.292,377.108c-14.213-57.705-49.345-95.537-97.084-105.163v-18.377
			c4.798-3.066,9.359-6.648,13.52-10.717c6.741-6.594,14.199-16.089,19.495-29.023h17.597c16.439,0,29.812-13.374,29.812-29.812
			c0-8.304-3.416-15.823-8.913-21.233c13.417-26.13,27.554-71.95-5.829-114.751C414.091-11.986,351.491-2.92,318.344,7.826
			C281.409,19.798,267.5,49.33,262.86,63.315c-13.819,1.954-23.518,7.994-28.886,18.012c-11.238,20.971,1.63,53.126,16.359,78.9
			c-7.204,5.447-11.868,14.082-11.868,23.789c0,16.438,13.374,29.812,29.812,29.812h17.601c5.297,12.934,12.755,22.43,19.497,29.023
			c4.162,4.07,8.725,7.653,13.524,10.719v18.262c-5.733,1.041-11.129,2.37-16.275,3.995c-4.347-3.728-9.987-5.988-16.149-5.988
			h-146.52c-13.699,0-24.844,11.145-24.844,24.844v100.266c0,13.699,11.145,24.844,24.844,24.844h46.058v21.27H66.729V364.63h12.883
			c15.442,0,28.004-12.562,28.004-28.004s-12.562-28.004-28.004-28.004H33.846c-15.442,0-28.004,12.562-28.004,28.004
			s12.562,28.004,28.004,28.004h12.883v76.433h-9.68c-10.174,0-18.451,8.277-18.451,18.451v31.985
			c0,10.174,8.277,18.452,18.451,18.452h298.815c0.026,0,0.051,0.004,0.077,0.004h148.275c5.35,0,10.37-2.096,14.134-5.901
			c3.773-3.814,5.819-8.872,5.762-14.246C503.755,458.231,502.089,416.885,492.292,377.108z M25.841,336.625
			c0-4.414,3.591-8.004,8.004-8.004h45.767c4.413,0,8.004,3.591,8.004,8.004c0,4.414-3.591,8.004-8.004,8.004H33.846
			C29.432,344.63,25.841,341.039,25.841,336.625z M445.82,193.828h-11.955c0.922-5.516,1.441-11.458,1.441-17.852
			c0-0.595-0.013-1.18-0.019-1.771h10.533c5.41,0,9.812,4.402,9.812,9.812C455.632,189.426,451.23,193.828,445.82,193.828z
			 M251.602,90.774c2.685-5.009,9.214-7.74,19.407-8.115c4.639-0.17,8.559-3.558,9.454-8.112
			c0.287-1.457,7.434-35.828,44.048-47.696c34.412-11.155,83.271-14.402,120.608,33.479c26.905,34.496,14.642,72.487,3.452,94.005
			c-0.907-0.083-1.823-0.132-2.751-0.132h-11.895c-0.382-2.884-0.833-5.704-1.373-8.436c-0.866-4.383-4.534-7.66-8.987-8.027
			c-21.908-1.811-43.396-6.715-63.864-14.576c-17.551-6.744-30.692-15.082-39.059-24.785c-1.782-2.066-4.33-3.314-7.055-3.456
			c-2.726-0.145-5.388,0.836-7.375,2.707c-13.956,13.144-22.79,32.463-26.026,56.572h-10.211
			C252.945,125.51,245.91,101.396,251.602,90.774z M268.276,193.828c-5.41,0-9.812-4.401-9.812-9.812
			c0-5.41,4.401-9.812,9.812-9.812h10.533c-0.006,0.59-0.015,1.177-0.015,1.771c0,6.394,0.519,12.336,1.441,17.852H268.276z
			 M302.528,201.05c-0.046-0.16-0.098-0.316-0.152-0.473c-2.198-7.018-3.582-15.174-3.582-24.602
			c0-23.895,5.063-43.183,14.732-56.486c9.982,8.724,23.049,16.215,39.003,22.346c19.808,7.607,40.49,12.665,61.59,15.071
			c0.789,5.981,1.186,12.367,1.186,19.07c0,9.382-1.37,17.505-3.549,24.5c-0.076,0.213-0.146,0.428-0.207,0.647
			c-4.077,12.665-10.808,21.563-16.806,27.43c-10.72,10.485-25.161,16.999-37.687,16.999c-12.531,0-26.976-6.514-37.697-17
			C313.348,222.674,306.603,213.754,302.528,201.05z M357.056,265.552c5.962,0,12.09-0.97,18.151-2.766v26.355
			c0,10.01-8.144,18.154-18.154,18.154c-10.01,0-18.154-8.144-18.154-18.154v-26.355
			C344.963,264.582,351.092,265.552,357.056,265.552z M139.956,399.792c-2.671,0-4.844-2.173-4.844-4.844V294.683
			c0-2.671,2.173-4.844,4.844-4.844h146.52c2.671,0,4.844,2.173,4.844,4.844v100.266c0,2.671-2.173,4.844-4.844,4.844h-46.063
			l0.004-28.919c0-10.829-8.81-19.638-19.638-19.638h-15.126c-10.829,0-19.638,8.81-19.638,19.638v28.919H139.956z M206.014,409.841
			c0-0.016,0.003-0.032,0.003-0.048c0-0.016-0.002-0.032-0.003-0.048v-38.509h14.402l-0.011,69.827h-14.392V409.841z
			 M38.598,461.062h295.795v28.888H38.598V461.062z M461.6,489.955c-0.384-20.786-1.979-39.281-4.762-55.08
			c-0.957-5.439-6.142-9.073-11.583-8.113c-5.439,0.958-9.072,6.144-8.113,11.583c2.588,14.694,4.079,32.023,4.454,51.61h-87.203
			v-30.441c0-10.174-8.277-18.451-18.452-18.451h-95.537l0.003-21.27h46.067c13.699,0,24.844-11.145,24.844-24.844V294.683
			c0-0.194-0.01-0.386-0.015-0.579c2.493-0.713,5.06-1.357,7.727-1.919c1.558,19.619,18.009,35.11,38.021,35.11
			c19.953,0,36.367-15.398,38.008-34.934c51.236,12.272,70.676,60.567,77.81,89.531c9.299,37.753,10.894,77.571,11.24,108.063H461.6
			z"/>
	</g>
</g>
<g>
</g>
<g>
</g>
<g>
</g>
<g>
</g>
<g>
</g>
<g>
</g>
<g>
</g>
<g>
</g>
<g>
</g>
<g>
</g>
<g>
</g>
<g>
</g>
<g>
</g>
<g>
</g>
<g>
</g>
</svg>
