<?xml version="1.0" encoding="iso-8859-1"?>
<!-- Generator: Adobe Illustrator 29.2.1, SVG Export Plug-In . SVG Version: 9.03 Build 55982)  -->
<svg version="1.1" id="Capa_1" xmlns="http://www.w3.org/2000/svg" xmlns:xlink="http://www.w3.org/1999/xlink" x="0px" y="0px"
	 viewBox="0 0 512 512" style="enable-background:new 0 0 512 512;" xml:space="preserve">
<g>
	<g>
		<rect x="10" y="18.554" style="fill-rule:evenodd;clip-rule:evenodd;fill:#BC9AF4;" width="492" height="361.47"/>
		<path style="fill-rule:evenodd;clip-rule:evenodd;fill:#6864F7;" d="M385.796,380.023H126.162
			c-0.271-2.712-0.367-5.456-0.277-8.219l-0.011-2.072l-2.242-3.931c-11.049-19.373-10.9-43.138,0.244-62.351l1.998-3.505
			l0.023-4.435c0.118-22.11,11.864-42.55,30.961-53.712l3.851-2.251l2.251-3.85c11.608-19.861,33.238-31.716,56.075-30.974
			l2.072-0.011l3.931-2.242c19.374-11.048,43.139-10.9,62.351,0.244l3.504,1.998l4.436,0.023
			c22.134,0.118,42.563,11.887,53.711,30.961l2.251,3.851l3.85,2.25c19.861,11.608,31.716,33.238,30.974,56.076l0.011,2.072
			l2.242,3.932c11.049,19.373,10.899,43.139-0.244,62.351l-1.998,3.504l-0.023,4.435
			C386.092,376.135,385.988,378.088,385.796,380.023z"/>
		<path style="fill-rule:evenodd;clip-rule:evenodd;fill:#FFFFFF;" d="M55.183,108.92v180.736c24.954,0,45.183,20.229,45.183,45.183
			h15.066L256,287.147l140.567,47.693h15.066c0-24.954,20.229-45.183,45.183-45.183V108.92c-24.954,0-45.183-20.229-45.183-45.183
			H100.367C100.367,88.691,80.137,108.92,55.183,108.92z"/>
		<path style="fill-rule:evenodd;clip-rule:evenodd;fill:#D2DCFD;" d="M115.433,334.84h281.134
			c0.002-10.673-2.721-21.357-8.199-30.961l-2.242-3.932l-0.011-2.072c0.742-22.837-11.113-44.468-30.974-56.076l-3.85-2.25
			l-2.251-3.851c-11.148-19.074-31.577-30.843-53.711-30.961l-4.436-0.023l-3.504-1.998c-19.212-11.144-42.977-11.292-62.351-0.244
			l-3.931,2.242l-2.072,0.011c-22.837-0.742-44.468,11.113-56.075,30.974l-2.251,3.85l-3.851,2.251
			c-19.098,11.162-30.843,31.602-30.961,53.712l-0.023,4.435l-1.998,3.505C118.257,313.138,115.435,323.984,115.433,334.84z"/>
		<path style="fill-rule:evenodd;clip-rule:evenodd;fill:#67CCD1;" d="M183.105,385.069l-40.624,70.362l44.139-0.421l21.704,38.436
			l40.639-70.388C222.143,407.763,209.828,400.688,183.105,385.069z"/>
		<path style="fill-rule:evenodd;clip-rule:evenodd;fill:#67CCD1;" d="M328.895,385.069l40.623,70.362l-44.138-0.421l-21.704,38.436
			l-40.639-70.388C289.857,407.763,302.172,400.688,328.895,385.069z"/>
		<path style="fill-rule:evenodd;clip-rule:evenodd;fill:#FD8F01;" d="M262.299,246.201l15.161,8.646l17.602,0.094
			c4.524,0.018,8.505,2.449,10.635,6.09l8.895,15.218l15.217,8.894c4.243,2.477,6.465,7.091,6.096,11.682l0.088,16.555l8.765,15.369
			c2.264,3.989,2.063,8.706-0.118,12.389l-8.646,15.161l-0.094,17.601c-0.018,4.523-2.449,8.505-6.091,10.635l-15.218,8.894
			l-8.894,15.218c-2.477,4.243-7.091,6.465-11.682,6.096l-16.555,0.088l-15.369,8.765c-3.99,2.264-8.707,2.062-12.389-0.118
			l-15.162-8.646l-17.601-0.094c-4.524-0.018-8.505-2.45-10.635-6.091l-8.895-15.218l-15.217-8.894
			c-4.243-2.477-6.465-7.091-6.097-11.682l-0.088-16.555l-8.765-15.369c-2.264-3.99-2.063-8.706,0.118-12.389l8.646-15.162
			l0.093-17.601c0.017-4.368,2.314-8.426,6.091-10.635l15.218-8.895l8.894-15.218c2.477-4.243,7.091-6.464,11.682-6.096
			l16.555-0.088l15.369-8.764C253.899,243.818,258.615,244.02,262.299,246.201z"/>
	</g>
	<g>
		<path style="fill:#052A75;" d="M502,8.554H10c-5.523,0-10,4.477-10,10v361.469c0,5.523,4.477,10,10,10h158.698l-34.876,60.408
			c-1.795,3.109-1.786,6.941,0.024,10.042c1.793,3.073,5.083,4.958,8.636,4.958c0.032,0,0.064,0,0.096,0l38.237-0.365l18.802,33.297
			c1.765,3.126,5.07,5.066,8.66,5.083h0.048c3.571,0,6.873-1.905,8.66-5l36.593-63.382c0.803,0.087,1.611,0.131,2.419,0.131
			c0.81,0,1.62-0.044,2.426-0.132l36.594,63.383c1.787,3.095,5.088,5,8.66,5h0.048c3.589-0.017,6.895-1.957,8.66-5.083
			l18.803-33.297l38.237,0.365c3.566,0.056,6.922-1.858,8.732-4.958c1.81-3.101,1.819-6.933,0.024-10.042l-34.876-60.408H502
			c5.523,0,10-4.477,10-10V18.554C512,13.031,507.522,8.554,502,8.554z M325.993,313.433c0.009,1.719,0.461,3.407,1.313,4.9
			l8.754,15.351c0.623,1.097,0.138,2.082-0.025,2.358c-0.028,0.047-0.056,0.095-0.083,0.143l-8.646,15.161
			c-0.852,1.493-1.304,3.181-1.313,4.9l-0.094,17.615c-0.004,1.017-0.591,1.721-1.137,2.041l-15.218,8.895
			c-1.484,0.867-2.72,2.103-3.588,3.587l-8.896,15.223c-0.555,0.951-1.52,1.229-2.246,1.169c-0.284-0.023-0.568-0.031-0.854-0.032
			l-16.554,0.088c-1.719,0.009-3.407,0.461-4.901,1.313l-15.351,8.754c-1.097,0.624-2.082,0.138-2.358-0.025
			c-0.047-0.028-0.095-0.056-0.142-0.083l-15.162-8.646c-1.494-0.852-3.182-1.304-4.901-1.313l-17.614-0.093
			c-1.017-0.004-1.723-0.592-2.042-1.137l-8.895-15.218c-0.867-1.484-2.103-2.72-3.587-3.587l-15.223-8.897
			c-0.95-0.555-1.227-1.523-1.169-2.246c0.023-0.284,0.034-0.568,0.032-0.853l-0.088-16.555c-0.009-1.719-0.461-3.407-1.313-4.901
			l-8.754-15.35c-0.623-1.097-0.138-2.083,0.026-2.358c0.028-0.047,0.055-0.094,0.083-0.142l8.646-15.162
			c0.852-1.493,1.304-3.181,1.313-4.9l0.094-17.615c0.003-0.85,0.44-1.633,1.137-2.041l15.218-8.895
			c1.484-0.867,2.72-2.103,3.588-3.587l8.896-15.223c0.509-0.872,1.366-1.176,2.062-1.176c0.063,0,0.125,0.002,0.185,0.007
			c0.283,0.023,0.565,0.035,0.853,0.032l16.555-0.088c1.719-0.009,3.407-0.461,4.9-1.313l15.352-8.754
			c1.097-0.624,2.082-0.138,2.358,0.026c0.047,0.028,0.094,0.055,0.142,0.082l15.161,8.646c1.493,0.852,3.181,1.304,4.9,1.313
			l17.616,0.094c1.016,0.004,1.721,0.591,2.041,1.137l8.895,15.218c0.867,1.484,2.103,2.72,3.587,3.587l15.223,8.897
			c0.951,0.555,1.228,1.524,1.17,2.246c-0.023,0.283-0.034,0.568-0.032,0.853L325.993,313.433z M208.42,473.279l-13.093-23.186
			c-1.774-3.143-5.103-5.083-8.707-5.083c-0.032,0-0.064,0-0.096,0l-26.626,0.254l26.84-46.489l3.361,1.964l7.573,12.958
			c3.966,6.779,11.333,11.009,19.213,11.041l14.978,0.079l3.412,1.946L208.42,473.279z M325.476,445.01
			c-3.643-0.065-7.013,1.912-8.803,5.083l-13.093,23.187l-26.856-46.516l3.412-1.946l13.568-0.072
			c8.348,0.484,16.403-3.818,20.626-11.052l7.57-12.954l3.361-1.965l26.84,46.489L325.476,445.01z M492,370.023H345.92l0.059-11.047
			l7.312-12.821c4.028-6.866,4.093-15.417,0.153-22.359l-7.465-13.091l-0.072-13.569c0.482-8.348-3.819-16.402-11.052-20.625
			l-12.954-7.571l-7.573-12.957c-3.966-6.78-11.334-11.011-19.213-11.042l-14.979-0.08l-12.822-7.312
			c-6.866-4.027-15.418-4.092-22.358-0.153l-13.091,7.465l-13.569,0.072c-8.351-0.477-16.403,3.819-20.625,11.052l-7.57,12.954
			l-12.956,7.572c-6.78,3.965-11.012,11.333-11.042,19.214l-0.08,14.979l-7.313,12.824c-4.026,6.866-4.091,15.417-0.152,22.357
			l7.465,13.09l0.058,11.048H20V28.554h472V370.023z"/>
		<g>
			<g>
				<path style="fill:#6864F7;" d="M376.49,141.513H135.51c-5.523,0-10-4.477-10-10s4.477-10,10-10H376.49c5.523,0,10,4.477,10,10
					S382.013,141.513,376.49,141.513z"/>
			</g>
			<g>
				<path style="fill:#6864F7;" d="M333.703,186.696H178.297c-5.523,0-10-4.477-10-10s4.477-10,10-10h155.406
					c5.523,0,10,4.477,10,10S339.226,186.696,333.703,186.696z"/>
			</g>
		</g>
		<g>
			<path style="fill:#FFFFFF;" d="M245.959,364.921L245.959,364.921c-2.652,0-5.196-1.054-7.071-2.929l-20.082-20.082
				c-3.905-3.905-3.905-10.237,0-14.142c3.905-3.904,10.236-3.905,14.142,0l13.01,13.011l33.092-33.093
				c3.905-3.905,10.237-3.905,14.143,0c3.905,3.905,3.905,10.237,0,14.143l-40.164,40.164
				C251.155,363.868,248.611,364.921,245.959,364.921z"/>
		</g>
	</g>
</g>
<g>
</g>
<g>
</g>
<g>
</g>
<g>
</g>
<g>
</g>
<g>
</g>
<g>
</g>
<g>
</g>
<g>
</g>
<g>
</g>
<g>
</g>
<g>
</g>
<g>
</g>
<g>
</g>
<g>
</g>
</svg>
