<?xml version="1.0" encoding="iso-8859-1"?>
<!-- Generator: Adobe Illustrator 29.5.1, SVG Export Plug-In . SVG Version: 9.03 Build 0)  -->
<svg version="1.1" id="Capa_1" xmlns="http://www.w3.org/2000/svg" xmlns:xlink="http://www.w3.org/1999/xlink" x="0px" y="0px"
	 viewBox="0 0 512 512" style="enable-background:new 0 0 512 512;" xml:space="preserve">
<g>
	<g>
		<path style="fill:#D46B5C;" d="M98.378,97.266v-14.28C98.378,42.677,131.055,10,171.364,10h0
			c40.309,0,72.986,32.677,72.986,72.986v14.28l-72.986,20L98.378,97.266z"/>
		<path style="fill:#67CCD1;" d="M210.413,268.455c57.91,0,104.856,46.945,104.856,104.855v19.496H27.46v-19.496
			c0-57.91,46.945-104.855,104.855-104.855H210.413z"/>
		<path style="fill:#27A2CC;" d="M257.328,279.518l-10.102,10.102c-11.379,11.379-15.667,27.774-11.781,42.965
			c-13.49,7.993-22.05,22.618-22.05,38.711v21.511h101.874v-19.496C315.268,332.266,291.682,296.736,257.328,279.518z"/>
		<polygon style="fill:#F7B073;" points="133.76,223.774 133.76,268.455 171.364,312.87 208.969,268.455 208.969,223.773 		"/>
		<path style="fill:#FDE0BE;" d="M98.378,97.266v23.078c-12.605,0-22.824,10.219-22.824,22.824
			c0,12.605,10.218,22.824,22.824,22.824v5.365c0,40.309,32.677,72.986,72.986,72.986h0c40.309,0,72.986-32.677,72.986-72.986
			v-5.365c12.605,0,22.824-10.218,22.824-22.824c0-12.605-10.218-22.824-22.824-22.824V97.266h-45.86
			c-15.432,0-30.339-5.609-41.943-15.783l-7.843-6.876l-9.85,8.123C127.459,92.126,113.149,97.266,98.378,97.266L98.378,97.266z"/>
		<path style="fill:#BC9AF4;" d="M395.614,293.994c8.999,2.28,17.737,5.853,25.919,10.725l17.423-8.214l24.935,24.935l-8.214,17.423
			c4.872,8.181,8.445,16.92,10.725,25.919l0.012,0.003l18.128,6.511l0,35.263l-18.128,6.511l-0.012,0.003
			c-2.28,8.999-5.853,17.737-10.725,25.919l8.214,17.423l-24.935,24.935l-17.423-8.214c-8.181,4.872-16.92,8.445-25.919,10.725
			l-0.003,0.012L389.099,502l-35.263,0l-6.511-18.128l-0.003-0.012c-8.999-2.28-17.737-5.853-25.919-10.725l-17.423,8.214
			l-24.935-24.935l8.214-17.423c-4.872-8.181-8.445-16.92-10.725-25.919l-0.012-0.003l-18.128-6.511l0-35.263l18.128-6.511
			l0.012-0.003c2.28-8.999,5.853-17.737,10.725-25.919l-8.214-17.423l24.935-24.935l17.423,8.214
			c8.181-4.872,16.92-8.445,25.919-10.725l0.003-0.012l6.511-18.128l35.263,0l6.511,18.128L395.614,293.994z"/>
	</g>
	<g>
		<path style="fill:#FFFFFF;" d="M371.468,378.927c-4.957,0-8.989-4.033-8.989-8.989s4.032-8.989,8.989-8.989h20.081
			c5.522,0,10-4.477,10-10s-4.478-10-10-10h-10.081v-4.721c0-5.523-4.478-10-10-10s-10,4.477-10,10v6.5
			c-11.072,4.082-18.989,14.738-18.989,27.21c0,15.985,13.005,28.989,28.989,28.989c4.956,0,8.988,4.032,8.988,8.989
			s-4.032,8.989-8.988,8.989h-20.082c-5.522,0-10,4.477-10,10s4.478,10,10,10h10.082v4.721c0,5.523,4.478,10,10,10s10-4.477,10-10
			v-6.5c11.072-4.082,18.988-14.738,18.988-27.21C400.456,391.932,387.452,378.927,371.468,378.927z"/>
		<path style="fill:#052A75;" d="M487.921,361.884l-13.288-4.773c-1.983-6.453-4.565-12.693-7.714-18.646l6.016-12.761
			c1.8-3.816,1.01-8.352-1.974-11.335l-24.935-24.935c-2.983-2.982-7.518-3.774-11.336-1.974l-12.761,6.017
			c-5.954-3.149-12.193-5.731-18.646-7.715l-4.772-13.288c-1.426-3.972-5.191-6.62-9.411-6.62h-35.264
			c-4.22,0-7.985,2.648-9.411,6.62l-4.773,13.288c-6.452,1.984-12.692,4.565-18.646,7.714l-12.761-6.016
			c-3.816-1.801-8.353-1.009-11.336,1.974l-3.983,3.984c-19.614-20.278-45.829-32.558-73.957-34.637v-19.508
			c20.585-14.472,34.337-38.037,35.324-64.82c13.254-4.222,22.881-16.65,22.881-31.285c0-14.614-9.599-27.027-22.824-31.267V82.986
			C254.35,37.228,217.123,0,171.364,0S88.378,37.228,88.378,82.986v28.915c-13.225,4.239-22.823,16.653-22.823,31.267
			c0,14.635,9.626,27.063,22.88,31.285c0.987,26.783,14.739,50.348,35.325,64.82v19.501c-59.351,4.391-106.3,54.083-106.3,114.537
			v19.496c0,5.523,4.477,10,10,10h220.935v3.752c0,4.219,2.648,7.985,6.619,9.411l13.288,4.773
			c1.983,6.452,4.565,12.692,7.715,18.646l-6.016,12.76c-1.8,3.817-1.01,8.352,1.974,11.335l24.935,24.935
			c2.983,2.983,7.519,3.774,11.336,1.974l12.761-6.016c5.953,3.149,12.193,5.731,18.646,7.715l4.773,13.288
			c1.427,3.971,5.191,6.62,9.411,6.62H389.1c4.22,0,7.985-2.648,9.411-6.62l4.772-13.288c6.453-1.984,12.692-4.565,18.646-7.715
			l12.761,6.017c3.819,1.798,8.352,1.009,11.336-1.974l24.935-24.935c2.983-2.984,3.773-7.519,1.974-11.335l-6.016-12.761
			c3.148-5.953,5.73-12.193,7.714-18.646l13.288-4.773c3.971-1.426,6.619-5.192,6.619-9.411v-35.263
			C494.54,367.076,491.892,363.311,487.921,361.884z M171.364,20c34.731,0,62.986,28.255,62.986,62.986v4.279h-35.86
			c-13.012,0-25.566-4.724-35.35-13.302l-7.842-6.876c-3.688-3.233-9.173-3.315-12.955-0.196l-9.85,8.123
			c-6.98,5.756-15.307,9.617-24.115,11.295v-3.322C108.378,48.255,136.633,20,171.364,20z M108.378,171.356v-5.365
			c0-5.523-4.477-10-10-10c-7.071,0-12.823-5.753-12.823-12.824s5.752-12.824,12.823-12.824c5.523,0,10-4.477,10-10v-13.765
			c13.466-1.855,26.275-7.423,36.839-16.135l3.289-2.712l1.449,1.27c13.433,11.778,30.67,18.264,48.535,18.264h35.86v13.078
			c0,5.523,4.477,10,10,10c7.071,0,12.824,5.753,12.824,12.824s-5.753,12.824-12.824,12.824c-5.523,0-10,4.477-10,10v5.365
			c0,34.73-28.255,62.986-62.986,62.986S108.378,206.087,108.378,171.356z M171.364,254.342c9.674,0,18.964-1.67,27.605-4.727
			v15.175l-27.605,32.604l-27.604-32.604v-15.175C152.4,252.672,161.69,254.342,171.364,254.342z M255.014,361.884
			c-3.971,1.426-6.62,5.191-6.62,9.411v11.511H37.46v-9.496c0-51.252,40.859-93.133,91.713-94.798l34.56,40.819
			c1.9,2.244,4.691,3.538,7.632,3.538s5.732-1.294,7.632-3.538l34.561-40.82c24.813,0.813,48.092,11.224,65.223,29.052l-6.805,6.805
			c-2.983,2.983-3.773,7.519-1.974,11.335l6.016,12.761c-3.149,5.954-5.731,12.194-7.715,18.646L255.014,361.884z M474.54,399.525
			l-11.339,4.073c-3.189,1.076-5.654,3.703-6.494,7.019c-2.078,8.2-5.315,16.025-9.623,23.258c-1.701,2.857-1.871,6.373-0.453,9.381
			l5.214,11.061l-14.987,14.988l-11.061-5.215c-3.009-1.418-6.524-1.249-9.381,0.454c-7.235,4.308-15.061,7.546-23.259,9.623
			c-3.266,0.828-5.874,3.246-6.979,6.383L382.066,492h-21.196l-4.08-11.359c-1.082-3.187-3.71-5.638-7.012-6.475
			c-8.198-2.077-16.022-5.314-23.257-9.623c-2.857-1.701-6.376-1.871-9.382-0.453l-11.061,5.215l-14.987-14.988l5.214-11.061
			c1.418-3.008,1.248-6.523-0.453-9.38c-4.309-7.236-7.547-15.062-9.622-23.258c-0.832-3.285-3.268-5.893-6.41-6.989l-11.425-4.104
			v-21.196l11.347-4.076c3.191-1.08,5.649-3.708,6.488-7.017c2.075-8.196,5.313-16.021,9.622-23.257
			c1.701-2.857,1.871-6.373,0.453-9.381l-5.214-11.061l14.987-14.988l11.061,5.215c3.007,1.418,6.523,1.248,9.382-0.453
			c7.233-4.308,15.059-7.546,23.257-9.623c3.296-0.835,5.901-3.28,6.993-6.422l4.099-11.413h21.196l4.08,11.359
			c1.082,3.187,3.71,5.639,7.012,6.476c8.198,2.077,16.023,5.314,23.259,9.623c2.858,1.703,6.373,1.872,9.381,0.454l11.061-5.215
			l14.987,14.988l-5.214,11.061c-1.418,3.008-1.248,6.524,0.453,9.381c4.308,7.233,7.545,15.058,9.623,23.258
			c0.826,3.263,3.241,5.872,6.378,6.978l11.455,4.114V399.525z"/>
		<path style="fill:#F7B073;" d="M196.683,183.403c-4.274-3.497-10.575-2.867-14.072,1.408c-2.783,3.401-6.895,5.352-11.281,5.352
			c-4.362,0-8.459-1.933-11.242-5.304c-3.516-4.259-9.819-4.863-14.078-1.347c-4.26,3.515-4.863,9.818-1.347,14.078
			c6.595,7.991,16.314,12.574,26.667,12.574c10.41,0,20.164-4.625,26.76-12.688C201.588,193.201,200.958,186.9,196.683,183.403z"/>
	</g>
</g>
<g>
</g>
<g>
</g>
<g>
</g>
<g>
</g>
<g>
</g>
<g>
</g>
<g>
</g>
<g>
</g>
<g>
</g>
<g>
</g>
<g>
</g>
<g>
</g>
<g>
</g>
<g>
</g>
<g>
</g>
</svg>
