<?xml version="1.0" encoding="iso-8859-1"?>
<!-- Generator: Adobe Illustrator 26.5.3, SVG Export Plug-In . SVG Version: 6.00 Build 0)  -->
<svg version="1.1" id="Capa_1" xmlns="http://www.w3.org/2000/svg" xmlns:xlink="http://www.w3.org/1999/xlink" x="0px" y="0px"
	 viewBox="0 0 512.001 512.001" style="enable-background:new 0 0 512.001 512.001;" xml:space="preserve">
<g>
	<g>
		<polygon style="fill-rule:evenodd;clip-rule:evenodd;fill:#FFFFFF;" points="366.948,35.103 434.474,35.103 502.001,102.629 
			502.001,203.918 366.948,203.918 		"/>
		<path style="fill-rule:evenodd;clip-rule:evenodd;fill:#67CCD1;" d="M121.033,58.944c8.735,2.984,16.695,7.641,23.498,13.587
			l21.992-9.635l20.081,34.782l-19.329,14.219c0.859,4.392,1.313,8.93,1.313,13.574s-0.453,9.181-1.313,13.573l19.329,14.22
			l-20.081,34.782l-21.992-9.635c-6.804,5.946-14.762,10.603-23.498,13.587l-2.649,23.841H78.221l-2.649-23.841
			c-8.735-2.984-16.695-7.64-23.499-13.587l-21.991,9.635l-20.081-34.782l19.33-14.221c-0.859-4.392-1.314-8.929-1.314-13.573
			c0-4.644,0.453-9.182,1.313-13.574L10.001,97.677l20.082-34.782l21.991,9.635c6.804-5.946,14.763-10.603,23.498-13.587
			l2.649-23.842h40.163L121.033,58.944z"/>
		
			<ellipse transform="matrix(0.984 -0.1784 0.1784 0.984 -20.8096 19.5529)" style="fill-rule:evenodd;clip-rule:evenodd;fill:#FFFFFF;" cx="98.303" cy="125.471" rx="25.102" ry="25.102"/>
		
			<ellipse transform="matrix(0.1602 -0.9871 0.9871 0.1602 -24.2524 456.2467)" style="fill-rule:evenodd;clip-rule:evenodd;fill:#D46B5C;" cx="256.001" cy="242.376" rx="43.175" ry="43.175"/>
		<path style="fill-rule:evenodd;clip-rule:evenodd;fill:#B1D952;" d="M74.588,317.423c-9.802-9.802-9.802-25.694,0-35.496
			c9.802-9.802,25.694-9.802,35.496,0l41.318,41.318l47.269-32.556c4.185-2.89,9.121-4.515,14.218-4.51h86.224
			c5.999,0,11.505,2.106,15.823,5.616l45.664,31.45l41.318-41.318c9.802-9.802,25.694-9.802,35.496,0
			c9.802,9.802,9.802,25.694,0,35.496l-56.039,56.039c-8.522,8.542-22.06,9.683-31.966,2.843l-28.144-19.383v74.793h-130.53v-74.793
			l-26.543,18.281c-9.858,8.021-24.384,7.441-33.566-1.741L74.588,317.423z"/>
		<rect x="10.001" y="431.714" style="fill-rule:evenodd;clip-rule:evenodd;fill:#D2DCFD;" width="492" height="45.184"/>
		<polygon style="fill-rule:evenodd;clip-rule:evenodd;fill:#D2DCFD;" points="434.475,102.629 502.001,102.629 434.475,35.103 		
			"/>
		<path style="fill-rule:evenodd;clip-rule:evenodd;fill:#91B706;" d="M239.366,349.579c0-23.262,6.592-44.984,18.01-63.401h-44.487
			c-5.097-0.004-10.033,1.621-14.218,4.51l-47.269,32.556l-41.318-41.318c-9.802-9.802-25.694-9.802-35.496,0
			c-9.802,9.802-9.802,25.694,0,35.496l56.039,56.039c9.182,9.182,23.708,9.762,33.566,1.741l26.543-18.281v69.772v5.02h80.963
			C251.639,410.193,239.366,381.319,239.366,349.579z"/>
	</g>
	<g>
		<path style="fill:#052A75;" d="M509.072,95.558l-67.526-67.526c-1.876-1.875-4.419-2.929-7.071-2.929h-67.526
			c-5.522,0-10,4.477-10,10v168.815c0,5.523,4.478,10,10,10h135.053c5.522,0,10-4.477,10-10V102.629
			C512.001,99.977,510.947,97.433,509.072,95.558z M492.001,193.918H376.948V45.103h53.384l61.669,61.668V193.918z"/>
		<path style="fill:#052A75;" d="M1.341,158.264l20.081,34.781c2.547,4.413,8.006,6.205,12.673,4.16l16.437-7.201
			c4.906,3.643,10.18,6.693,15.771,9.121l1.98,17.819c0.562,5.064,4.843,8.896,9.938,8.896h40.162c5.096,0,9.376-3.831,9.938-8.896
			l1.98-17.819c5.589-2.427,10.863-5.477,15.771-9.121l16.438,7.202c4.67,2.047,10.126,0.253,12.673-4.16l20.081-34.781
			c2.548-4.413,1.37-10.036-2.734-13.055l-14.456-10.635c0.342-3.02,0.514-6.064,0.514-9.103c0-3.039-0.172-6.083-0.515-9.103
			l14.457-10.635c4.104-3.02,5.282-8.642,2.734-13.055l-20.081-34.782c-2.547-4.413-8.008-6.204-12.673-4.16l-16.438,7.202
			c-4.906-3.643-10.181-6.693-15.771-9.12l-1.98-17.819c-0.562-5.064-4.843-8.896-9.938-8.896H78.221
			c-5.096,0-9.376,3.832-9.938,8.896l-1.979,17.819c-5.589,2.427-10.863,5.477-15.77,9.12l-16.438-7.201
			c-4.662-2.044-10.125-0.253-12.673,4.159L1.341,92.677c-2.548,4.413-1.37,10.036,2.734,13.055l14.456,10.634
			c-0.342,3.021-0.515,6.065-0.515,9.104c0,3.035,0.173,6.079,0.516,9.103L4.075,145.209
			C-0.029,148.228-1.207,153.851,1.341,158.264z M39.145,137.125c-0.749-3.833-1.129-7.753-1.129-11.655
			c0-3.909,0.379-7.83,1.127-11.653c0.743-3.797-0.771-7.683-3.888-9.976l-12.119-8.916l11.131-19.279l13.794,6.043
			c3.549,1.555,7.676,0.92,10.593-1.629c5.947-5.197,12.727-9.118,20.15-11.653c3.666-1.252,6.278-4.509,6.706-8.359l1.66-14.945
			h22.263l1.661,14.946c0.428,3.85,3.04,7.106,6.705,8.358c7.427,2.537,14.206,6.458,20.15,11.653
			c2.917,2.55,7.045,3.184,10.594,1.63l13.794-6.043l11.131,19.279l-12.119,8.916c-3.116,2.293-4.631,6.178-3.888,9.975
			c0.747,3.821,1.126,7.742,1.126,11.654c0,3.913-0.379,7.833-1.126,11.653c-0.743,3.797,0.771,7.683,3.888,9.976l12.119,8.916
			l-11.131,19.279l-13.794-6.043c-3.548-1.554-7.675-0.919-10.593,1.63c-5.947,5.197-12.727,9.118-20.15,11.654
			c-3.666,1.252-6.278,4.508-6.706,8.358l-1.661,14.946H87.172l-1.661-14.945c-0.428-3.85-3.04-7.106-6.705-8.358
			c-7.429-2.538-14.208-6.458-20.151-11.653c-2.916-2.55-7.043-3.186-10.594-1.631l-13.793,6.043l-11.131-19.279l12.12-8.917
			C38.373,144.806,39.888,140.922,39.145,137.125z"/>
		<path style="fill:#052A75;" d="M502.001,421.715H331.266v-45.763l12.462,8.583c13.973,9.648,32.783,7.961,44.719-4.002
			l56.038-56.038c13.685-13.686,13.685-35.953,0-49.638c-6.629-6.63-15.443-10.281-24.819-10.281
			c-9.375,0-18.189,3.651-24.818,10.28l-35.432,35.431l-38.507-26.521c-6.178-4.896-13.899-7.587-21.796-7.587h-2.093
			c7.591-9.195,12.156-20.976,12.156-33.802c0-29.321-23.854-53.175-53.175-53.175s-53.175,23.854-53.175,53.175
			c0,12.827,4.565,24.607,12.156,33.802h-2.115c-7.052,0-13.925,2.172-19.868,6.275l-40.413,27.833l-35.432-35.431
			c-6.629-6.629-15.442-10.281-24.818-10.281c-9.375,0-18.19,3.651-24.819,10.28c-13.685,13.686-13.685,35.953,0,49.638
			l56.038,56.039c12.67,12.667,32.633,13.797,46.612,2.697l10.569-7.279v45.764H10.001c-5.522,0-10,4.477-10,10v45.184
			c0,5.523,4.478,10,10,10h492c5.522,0,10-4.477,10-10v-45.184C512.001,426.192,507.523,421.715,502.001,421.715z M256.001,209.201
			c18.293,0,33.175,14.882,33.175,33.175s-14.882,33.175-33.175,33.175s-33.175-14.882-33.175-33.175
			S237.708,209.201,256.001,209.201z M195.389,348.069c-3.29-1.729-7.266-1.49-10.324,0.616l-26.544,18.281
			c-0.22,0.151-0.433,0.311-0.64,0.479c-6.011,4.893-14.688,4.439-20.184-1.055l-56.038-56.039c-5.888-5.887-5.888-15.466,0-21.354
			c2.852-2.852,6.644-4.422,10.677-4.422s7.824,1.571,10.676,4.423l41.318,41.318c3.411,3.411,8.771,3.9,12.743,1.165l47.279-32.562
			c2.597-1.793,5.541-2.74,8.524-2.74h86.236c3.509,0,6.799,1.167,9.515,3.375c0.206,0.167,0.418,0.326,0.637,0.477l45.664,31.45
			c3.971,2.735,9.33,2.247,12.743-1.165l41.318-41.318c2.852-2.852,6.644-4.422,10.676-4.422c4.033,0,7.825,1.57,10.677,4.423
			c5.888,5.887,5.888,15.466,0,21.354l-56.046,56.046c-5.113,5.125-13.19,5.831-19.215,1.671l-28.144-19.383
			c-3.059-2.106-7.036-2.345-10.323-0.616c-3.289,1.728-5.349,5.137-5.349,8.852v64.793h-110.53v-64.793
			C200.736,353.207,198.677,349.798,195.389,348.069z M492.001,466.898h-472v-25.184h472V466.898z"/>
	</g>
</g>
<g>
</g>
<g>
</g>
<g>
</g>
<g>
</g>
<g>
</g>
<g>
</g>
<g>
</g>
<g>
</g>
<g>
</g>
<g>
</g>
<g>
</g>
<g>
</g>
<g>
</g>
<g>
</g>
<g>
</g>
</svg>
