<?xml version="1.0" encoding="iso-8859-1"?>
<!-- Generator: Adobe Illustrator 26.5.3, SVG Export Plug-In . SVG Version: 6.00 Build 0)  -->
<svg version="1.1" id="Capa_1" xmlns="http://www.w3.org/2000/svg" xmlns:xlink="http://www.w3.org/1999/xlink" x="0px" y="0px"
	 viewBox="0 0 510 510" style="enable-background:new 0 0 510 510;" xml:space="preserve">
<g>
	<g>
		<g>
			<rect x="24" y="76.415" style="fill:#FDCB50;" width="462" height="269.17"/>
		</g>
		<g>
			<rect x="24" y="76.415" style="fill:#D46B5C;" width="462" height="269.17"/>
		</g>
		<path style="fill:#B55348;" d="M486,345.585V131.074c-11.006-13.133-27.525-21.489-46-21.489H296c-33.137,0-60,26.863-60,60v72
			c-33.137,0-60,26.863-60,60v44H486z"/>
		<g>
			<rect x="236" y="301.585" style="fill:#FDCB50;" width="132" height="132"/>
			<path style="fill:#FD8F01;" d="M296.729,338.703c0-13.129,2.568-25.657,7.219-37.117H236v132h132
				C326.832,421.677,296.729,383.707,296.729,338.703z"/>
			<rect x="280" y="301.585" style="fill:#FFFFFF;" width="44" height="44"/>
			<rect x="368" y="301.585" style="fill:#FDCB50;" width="132" height="132"/>
			<path style="fill:#FD8F01;" d="M428.729,338.703c0-13.129,2.568-25.657,7.219-37.117H368v132h132
				C458.832,421.677,428.729,383.707,428.729,338.703z"/>
			<rect x="412" y="301.585" style="fill:#FFFFFF;" width="44" height="44"/>
			<rect x="302" y="169.585" style="fill:#FDCB50;" width="132" height="132"/>
			<path style="fill:#FD8F01;" d="M362.729,206.703c0-13.129,2.568-25.657,7.219-37.117H302v132h132
				C392.832,289.677,362.729,251.707,362.729,206.703z"/>
			<rect x="346" y="169.585" style="fill:#FFFFFF;" width="44" height="44"/>
		</g>
	</g>
	<g>
		<g>
			<g>
				<path style="fill:#F7B073;" d="M434.001,122.404c-5.522,0-10,4.477-10,10v37.183h20v-37.183
					C444.001,126.881,439.523,122.404,434.001,122.404z"/>
				<path style="fill:#F7B073;" d="M374.377,122.404c-5.522,0-10,4.477-10,10v37.183h20v-37.183
					C384.377,126.881,379.899,122.404,374.377,122.404z"/>
				<path style="fill:#F7B073;" d="M314.752,122.404c-5.522,0-10,4.477-10,10v37.183h20v-37.183
					C324.752,126.881,320.274,122.404,314.752,122.404z"/>
			</g>
			<g>
				<path style="fill:#F7B073;" d="M76.254,299.597c-5.522,0-10-4.477-10-10V132.403c0-5.523,4.478-10,10-10s10,4.477,10,10v157.194
					C86.254,295.12,81.776,299.597,76.254,299.597z"/>
			</g>
			<g>
				<path style="fill:#F7B073;" d="M135.878,299.598c-5.522,0-10-4.477-10-10V132.403c0-5.523,4.478-10,10-10s10,4.477,10,10
					v157.195C145.878,295.121,141.4,299.598,135.878,299.598z"/>
			</g>
			<g>
				<path style="fill:#F7B073;" d="M195.503,299.598c-5.522,0-10-4.477-10-10V132.403c0-5.523,4.478-10,10-10s10,4.477,10,10
					v157.195C205.503,295.121,201.025,299.598,195.503,299.598z"/>
			</g>
			<g>
				<path style="fill:#F7B073;" d="M255.127,299.598c-5.522,0-10-4.477-10-10V132.403c0-5.523,4.478-10,10-10s10,4.477,10,10
					v157.195C265.127,295.121,260.649,299.598,255.127,299.598z"/>
			</g>
		</g>
		<path style="fill:#052A75;" d="M500,291.585h-4V86.415h4c5.522,0,10-4.477,10-10s-4.478-10-10-10H10c-5.522,0-10,4.477-10,10
			s4.478,10,10,10h4v249.17h-4c-5.522,0-10,4.477-10,10s4.478,10,10,10h216v78c0,5.523,4.478,10,10,10h264c5.522,0,10-4.477,10-10
			v-132C510,296.062,505.522,291.585,500,291.585z M226,301.585v34H34V86.415h442v205.17h-32v-122c0-5.523-4.478-10-10-10H302
			c-5.522,0-10,4.477-10,10v122h-56C230.478,291.585,226,296.062,226,301.585z M358,423.585H246v-112h112V423.585z M312,291.585
			v-112h112v112H312z M490,423.585H378v-112h112V423.585z"/>
	</g>
</g>
<g>
</g>
<g>
</g>
<g>
</g>
<g>
</g>
<g>
</g>
<g>
</g>
<g>
</g>
<g>
</g>
<g>
</g>
<g>
</g>
<g>
</g>
<g>
</g>
<g>
</g>
<g>
</g>
<g>
</g>
</svg>
