<?xml version="1.0" encoding="iso-8859-1"?>
<!-- Generator: Adobe Illustrator 27.5.0, SVG Export Plug-In . SVG Version: 6.00 Build 0)  -->
<svg version="1.1" id="Layer_1" xmlns="http://www.w3.org/2000/svg" xmlns:xlink="http://www.w3.org/1999/xlink" x="0px" y="0px"
	 viewBox="0 0 512 512" style="enable-background:new 0 0 512 512;" xml:space="preserve">
<g>
	<g>
		<path style="fill:#BC9AF4;" d="M273.389,434.907H10v-38.695c0-30.17,24.458-54.628,54.628-54.628h154.134
			c30.17,0,54.628,24.458,54.628,54.628V434.907z"/>
		<path style="fill:#6864F7;" d="M115.546,341.585H64.625c-30.169,0-54.625,24.459-54.625,54.63v38.692h169.063
			C151.454,409.157,129.574,377.343,115.546,341.585z"/>
		<path style="fill:#FDCB50;" d="M224.022,186.685l6.604-32.75c3.501-20.792-2.395-42.258-16.653-57.788
			c-10.521-11.459-20.384-3.14-35.95-3.14c0,0-31.772-16.258-61.852-15.9c-26.408,0.314-59.133,16.831-67.042,42.031
			c-1.057,3.369-1.749,6.618-1.914,9.6c-2.02,36.565,11.918,59.617,11.918,59.617L224.022,186.685z"/>
		<path style="fill:#FD8F01;" d="M109.963,163.698c0-30.431,5.869-59.492,16.536-86.112c-3.431-0.344-6.891-0.52-10.328-0.479
			c-26.408,0.314-59.133,16.831-67.042,42.031c-1.057,3.369-1.749,6.618-1.914,9.6c-2.02,36.566,11.918,59.618,11.918,59.618
			l52.073-0.528C110.384,179.897,109.963,171.847,109.963,163.698z"/>
		<path style="fill:#FDE0BE;" d="M169.571,341.585v-39.873h-55.753v39.873l-16.052,0.351c8.913,18.592,34.669,34.901,34.669,34.901
			c3.022,0.443,6.114,0.672,9.259,0.672c25.163,0,46.894-14.676,57.08-35.924H169.571z"/>
		<path style="fill:#FDE0BE;" d="M223.527,194.246v-12.938h-29.067c-9.401,0-18.444-3.607-25.265-10.078l-22.921-21.747
			l-14.912,18.304c-6.971,8.556-17.421,13.522-28.458,13.522H59.864h0v12.938c-11.986,0-21.702,9.695-21.702,21.655
			c0,11.96,9.716,21.655,21.702,21.655c0.052,0,0.102-0.004,0.153-0.004c2.561,42.922,38.147,76.942,81.678,76.942h0
			c43.531,0,79.118-34.019,81.678-76.942c0.051,0,0.102,0.004,0.153,0.004c11.986,0,21.703-9.695,21.703-21.655
			C245.229,203.942,235.513,194.246,223.527,194.246z"/>
		<path style="fill:#F7B073;" d="M110.564,180.501c-2.496,0.533-5.061,0.808-7.66,0.808H59.863v12.937
			c-11.986,0-21.702,9.696-21.702,21.655c0,11.96,9.716,21.655,21.702,21.655c0.052,0,0.102-0.003,0.153-0.004
			c2.561,42.922,38.147,76.942,81.678,76.942h0c7.489,0,14.742-1.007,21.633-2.893C133.351,275.515,114.125,230.176,110.564,180.501
			z"/>
		<rect x="321.471" y="391.911" style="fill:#67CCD1;" width="146.264" height="42.986"/>
		<path style="fill:#67CCD1;" d="M479.007,348.217H310.2c-12.699,0-22.993-10.294-22.993-22.993V201.31
			c0-12.699,10.294-22.993,22.993-22.993h168.807c12.699,0,22.993,10.294,22.993,22.993v123.913
			C502,337.922,491.706,348.217,479.007,348.217z"/>
		<path style="fill:#FDE0BE;" d="M479.404,95.617H333.16l-35.355,20.713l35.355,20.713h146.244c6.627,0,11.998-5.373,11.998-12.001
			v-17.424C491.402,100.99,486.03,95.617,479.404,95.617z"/>
		<path style="fill:#FD7DA0;" d="M479.403,137.042c6.627,0,11.998-5.373,11.998-12.001v-17.424c0-6.628-5.372-12.001-11.998-12.001
			h-36.166v41.425H479.403z"/>
		<rect x="370.056" y="290.795" style="fill:#FFFFFF;" width="49.096" height="101.117"/>
		<path style="fill:#F7B073;" d="M84.614,341.585c8.943,18.654,26.783,32.242,48.032,35.282c-6.565-11.241-12.293-23.03-17.1-35.282
			H84.614z"/>
	</g>
	<g>
		<path style="fill:#052A75;" d="M292.75,124.958l35.354,20.712c1.533,0.898,3.277,1.372,5.055,1.372h146.244
			c12.13,0,21.999-9.87,21.999-22v-17.424c0-12.131-9.869-22-21.999-22H333.159c-1.777,0-3.521,0.474-5.055,1.372l-35.354,20.713
			c-3.063,1.794-4.945,5.079-4.945,8.628S289.687,123.164,292.75,124.958z M335.873,105.617h143.53c1.103,0,1.999,0.897,1.999,2
			v17.424c0,1.103-0.896,2-1.999,2h-143.53l-18.286-10.712L335.873,105.617z"/>
		<path style="fill:#052A75;" d="M218.766,331.585h-39.195V316.31c27.752-12.614,48.264-38.661,52.94-70.048
			c13.119-3.877,22.718-16.021,22.718-30.361c0-13.668-8.719-25.34-20.896-29.761l6.096-30.228c0.021-0.105,0.041-0.211,0.059-0.317
			c4.041-24-3.118-48.751-19.148-66.211c-10.924-11.897-22.484-9.646-31.774-7.838c-3.024,0.589-6.132,1.194-9.378,1.393
			c-8.304-3.919-36.477-16.124-64.135-15.832c-30.133,0.358-66.974,18.798-76.464,49.036c-1.363,4.342-2.156,8.394-2.358,12.043
			c-1.542,27.902,5.552,48.659,9.997,58.683c-11.211,4.883-19.066,16.058-19.066,29.031c0,14.34,9.6,26.483,22.718,30.361
			c4.677,31.386,25.188,57.433,52.939,70.047v15.275H64.623C28.99,331.585,0,360.579,0,396.217v38.68c0,5.523,4.477,10,10,10
			h263.389c5.522,0,10-4.477,10-10v-38.68C283.389,360.579,254.399,331.585,218.766,331.585z M57.2,129.291
			c0.11-1.992,0.605-4.4,1.471-7.158c6.472-20.619,35.018-34.758,57.62-35.026c0.29-0.004,0.58-0.005,0.87-0.005
			c26.922,0,56.021,14.663,56.308,14.809c1.41,0.721,2.971,1.098,4.555,1.098c5.968,0,11.178-1.015,15.365-1.83
			c8.5-1.655,10.093-1.672,13.219,1.733c11.856,12.913,17.152,31.299,14.184,49.212l-3.869,19.185h-22.462
			c-6.87,0-13.398-2.604-18.382-7.333l-22.921-21.747c-2.02-1.916-4.755-2.906-7.522-2.725c-2.777,0.178-5.355,1.505-7.113,3.663
			l-14.913,18.303c-5.094,6.252-12.64,9.838-20.705,9.838H62.65C59.491,161.913,56.2,147.39,57.2,129.291z M70,236.957
			c-0.315-5.287-4.696-9.404-9.98-9.404c-0.032,0-0.064,0-0.096,0l-0.135,0.003c-6.418-0.041-11.627-5.253-11.627-11.655
			c0-6.427,5.25-11.655,11.702-11.655c5.523,0,10-4.477,10-10v-2.938h33.041c14.104,0,27.302-6.271,36.21-17.206l8.1-9.942
			l15.097,14.324c8.715,8.27,20.132,12.824,32.147,12.824h19.067v2.938c0,5.523,4.477,10,10,10c6.453,0,11.703,5.229,11.703,11.655
			c0,6.392-5.193,11.599-11.598,11.655c-0.06-0.001-0.12-0.002-0.163-0.003c-5.321-0.094-9.76,4.085-10.078,9.404
			c-2.259,37.872-33.751,67.538-71.696,67.538S72.259,274.829,70,236.957z M263.389,424.897H20v-28.68
			c0-24.61,20.018-44.632,44.623-44.632h49.195c5.523,0,10-4.477,10-10v-18.84c5.79,1.148,11.768,1.75,17.877,1.75
			c6.109,0,12.087-0.602,17.876-1.75v18.84c0,5.523,4.477,10,10,10h49.195c24.605,0,44.623,20.022,44.623,44.632V424.897z"/>
		<path style="fill:#052A75;" d="M173.426,244.087c5.523,0,10-4.477,10-10v-15.94c0-5.523-4.477-10-10-10s-10,4.477-10,10v15.94
			C163.426,239.61,167.903,244.087,173.426,244.087z"/>
		<path style="fill:#052A75;" d="M119.963,218.146c0-5.523-4.477-10-10-10s-10,4.477-10,10v15.94c0,5.523,4.477,10,10,10
			s10-4.477,10-10V218.146z"/>
		<path style="fill:#052A75;" d="M162.075,274.535c3.905-3.906,3.903-10.238-0.002-14.142c-3.907-3.906-10.238-3.903-14.142,0.002
			c-1.663,1.664-3.874,2.58-6.226,2.58s-4.563-0.916-6.226-2.58c-0.028-0.028-0.077-0.077-0.106-0.104
			c-3.951-3.858-10.273-3.774-14.13,0.177c-3.836,3.927-3.775,10.216,0.106,14.082c5.439,5.435,12.667,8.426,20.356,8.426
			C149.4,282.975,156.634,279.977,162.075,274.535z"/>
		<path style="fill:#052A75;" d="M479.008,168.317H310.199c-18.192,0-32.992,14.801-32.992,32.994v123.911
			c0,18.193,14.8,32.994,32.992,32.994h49.856v23.695h-38.584c-5.522,0-10,4.477-10,10v42.986c0,5.523,4.478,10,10,10h146.264
			c5.522,0,10-4.477,10-10v-42.986c0-5.523-4.478-10-10-10h-38.584v-23.695h49.856c18.192,0,32.992-14.801,32.992-32.994V201.311
			C512,183.119,497.2,168.317,479.008,168.317z M457.735,424.897H331.472v-22.986h126.264V424.897z M380.056,381.911v-81.117h29.096
			v81.117H380.056z M492,325.223c0,7.165-5.828,12.994-12.992,12.994h-49.856v-47.422c0-5.523-4.478-10-10-10h-49.096
			c-5.522,0-10,4.477-10,10v47.422h-49.856c-7.164,0-12.992-5.829-12.992-12.994V201.311c0-7.165,5.828-12.994,12.992-12.994
			h168.809c7.164,0,12.992,5.829,12.992,12.994V325.223z"/>
	</g>
</g>
<g>
</g>
<g>
</g>
<g>
</g>
<g>
</g>
<g>
</g>
<g>
</g>
<g>
</g>
<g>
</g>
<g>
</g>
<g>
</g>
<g>
</g>
<g>
</g>
<g>
</g>
<g>
</g>
<g>
</g>
</svg>
