<?xml version="1.0" encoding="iso-8859-1"?>
<!-- Generator: Adobe Illustrator 27.0.0, SVG Export Plug-In . SVG Version: 6.00 Build 0)  -->
<svg version="1.1" id="Capa_1" xmlns="http://www.w3.org/2000/svg" xmlns:xlink="http://www.w3.org/1999/xlink" x="0px" y="0px"
	 viewBox="0 0 512 512" style="enable-background:new 0 0 512 512;" xml:space="preserve">
<g>
	<g>
		<path style="fill:#FFFFFF;" d="M412.282,502H99.718c-16.842,0-30.495-13.653-30.495-30.495V40.495
			C69.223,23.653,82.876,10,99.718,10h312.564c16.842,0,30.495,13.653,30.495,30.495v431.01
			C442.777,488.347,429.124,502,412.282,502z"/>
		<path style="fill:#D2DCFD;" d="M206.463,240.125c0-81.833,17.113-159.669,47.954-230.125h-154.7
			c-16.842,0-30.495,13.653-30.495,30.495v431.01c0,16.842,13.653,30.495,30.495,30.495h169.778
			C229.202,423.474,206.463,334.455,206.463,240.125z"/>
		<path style="fill:#67CCD1;" d="M256,69.886c-76.817,0-139.09,61.902-139.09,138.262h62.158c0-42.235,34.444-76.474,76.932-76.474
			s76.932,34.239,76.932,76.474h62.158C395.089,131.788,332.817,69.886,256,69.886z"/>
		<path style="fill:#DB4B86;" d="M116.91,208.148h62.158c0-25.756,12.809-48.538,32.439-62.395l-7.71-32.584l-36.587-11.45
			C136.48,127.08,116.91,165.342,116.91,208.148z"/>
		<path style="fill:#FDCB50;" d="M300.492,145.753l44.297-44.034c-24.089-19.88-55.035-31.833-88.79-31.833
			c-7.074,0-11.57,0.216-14.481,0.741c-28.096,2.89-27.069-1.776-47.668,15.224L213,142.277
			c12.559-8.865,26.417-10.602,42.993-10.603H256c0.229,0,0.459,0.001,0.687,0.003c0.077,0.001,0.153,0.002,0.23,0.003
			C273.144,131.868,288.164,137.05,300.492,145.753z"/>
		<path style="fill:#FD8F01;" d="M214.516,143.733c4.133-24.46,9.812-48.394,16.933-71.699
			c-24.142,4.274-46.129,14.739-64.24,29.685l44.297,44.033C212.493,145.057,213.496,144.383,214.516,143.733z"/>
		<ellipse style="fill:#FFFFFF;" cx="256" cy="211.908" rx="21.604" ry="21.476"/>
		<ellipse style="fill:#F7B073;" cx="172.606" cy="301.168" rx="36.682" ry="36.531"/>
		<path style="fill:#91B706;" d="M228.303,427.706c0-30.634-24.936-55.467-55.697-55.467s-55.696,24.833-55.696,55.467
			c0,1.091,0.032,2.174,0.095,3.249h111.202C228.27,429.88,228.303,428.797,228.303,427.706z"/>
		<path style="fill:#67CCD1;" d="M442.777,403.563h-67.942c-16.842,0-30.495,13.653-30.495,30.495V502L442.777,403.563z"/>
	</g>
	<g>
		<g>
			<path style="fill:#6864F7;" d="M395.09,323.681H283.723c-5.522,0-10-4.477-10-10s4.478-10,10-10H395.09c5.522,0,10,4.477,10,10
				S400.612,323.681,395.09,323.681z"/>
		</g>
		<g>
			<path style="fill:#6864F7;" d="M395.09,368.622H283.723c-5.522,0-10-4.477-10-10s4.478-10,10-10H395.09c5.522,0,10,4.477,10,10
				S400.612,368.622,395.09,368.622z"/>
		</g>
		<g>
			<path style="fill:#6864F7;" d="M369.511,413.563h-85.788c-5.522,0-10-4.477-10-10s4.478-10,10-10h89.362
				c5.522,0,3.574,4.477,3.574,10S375.033,413.563,369.511,413.563z"/>
		</g>
		<g>
			<path style="fill:#052A75;" d="M274.081,174.458l-7.755,7.708c-3.238-1.119-6.711-1.734-10.326-1.734
				c-17.426,0-31.604,14.12-31.604,31.476c0,17.355,14.178,31.476,31.604,31.476c17.427,0,31.604-14.12,31.604-31.476
				c0-6.44-1.955-12.431-5.3-17.424l5.877-5.841c3.917-3.894,3.936-10.225,0.042-14.142
				C284.33,170.584,277.997,170.565,274.081,174.458z M256,223.384c-6.398,0-11.604-5.148-11.604-11.476s5.206-11.476,11.604-11.476
				s11.604,5.148,11.604,11.476C267.604,218.236,262.398,223.384,256,223.384z"/>
			<path style="fill:#052A75;" d="M395.09,218.148c5.522,0,10-4.477,10-10c0-81.752-66.882-148.262-149.09-148.262
				s-149.09,66.51-149.09,148.262c0,5.523,4.477,10,10,10h62.157c5.523,0,10-4.477,10-10c0-36.654,30.025-66.475,66.932-66.475
				c36.906,0,66.932,29.82,66.932,66.475c0,5.523,4.478,10,10,10L395.09,218.148L395.09,218.148z M256,121.673
				c-44.535,0-81.355,33.485-86.354,76.475H127.3c5.148-66.071,60.904-118.262,128.7-118.262s123.553,52.19,128.701,118.262h-42.348
				C337.355,155.159,300.534,121.673,256,121.673z"/>
			<path style="fill:#052A75;" d="M172.607,347.699c25.741,0,46.682-20.874,46.682-46.531s-20.941-46.531-46.682-46.531
				s-46.683,20.874-46.683,46.531S146.866,347.699,172.607,347.699z M172.607,274.637c14.712,0,26.682,11.902,26.682,26.531
				s-11.97,26.531-26.682,26.531c-14.713,0-26.683-11.902-26.683-26.531S157.894,274.637,172.607,274.637z"/>
			<path style="fill:#052A75;" d="M172.606,362.239c-36.225,0-65.696,29.369-65.696,65.467c0,1.268,0.038,2.556,0.112,3.829
				c0.307,5.289,4.686,9.419,9.983,9.419h111.203c5.297,0,9.676-4.131,9.983-9.419c0.075-1.279,0.112-2.567,0.112-3.829
				C238.303,391.607,208.831,362.239,172.606,362.239z M127.413,420.955c3.288-21.88,22.302-38.716,45.193-38.716
				c22.892,0,41.906,16.835,45.194,38.716H127.413z"/>
			<path style="fill:#052A75;" d="M412.282,0H99.718C77.389,0,59.223,18.166,59.223,40.495v431.011
				c0,22.329,18.166,40.495,40.495,40.495h312.564c22.329,0,40.495-18.166,40.495-40.495V40.495C452.777,18.166,434.611,0,412.282,0
				z M79.223,471.505V40.495C79.223,29.194,88.417,20,99.718,20h312.564c11.301,0,20.495,9.194,20.495,20.495v353.069h-57.942
				c-22.329,0-40.495,18.166-40.495,40.495V492H99.718C88.417,492,79.223,482.806,79.223,471.505z M418.635,413.563l-64.295,64.294
				v-43.8c0-11.301,9.194-20.495,20.495-20.495L418.635,413.563L418.635,413.563z M412.282,492h-43.8l64.295-64.294v43.8
				C432.777,482.806,423.583,492,412.282,492z"/>
		</g>
	</g>
</g>
</svg>
