<?xml version="1.0" encoding="iso-8859-1"?>
<!-- Generator: Adobe Illustrator 26.5.1, SVG Export Plug-In . SVG Version: 6.00 Build 0)  -->
<svg version="1.1" id="Capa_1" xmlns="http://www.w3.org/2000/svg" xmlns:xlink="http://www.w3.org/1999/xlink" x="0px" y="0px"
	 viewBox="0 0 510 510" style="enable-background:new 0 0 510 510;" xml:space="preserve">
<g>
	<g>
		<path style="fill-rule:evenodd;clip-rule:evenodd;fill:#D46B5C;" d="M151.793,161.172c-5.592,9.732-4.055,22.126,3.907,30.078
			l31.623,31.623c-7.211,15.383-12.971,33.696-17.392,52.935l12.307-3.298c12.001-3.216,24.338,3.907,27.554,15.908
			c3.216,12.002-3.907,24.338-15.908,27.554l-40.975,10.904l5.608,49.246h46.485h50h50h46.486l5.608-49.246l-40.975-10.904
			c-12.001-3.216-19.124-15.552-15.908-27.554c3.216-12.002,15.552-19.124,27.554-15.908l12.307,3.298
			c-4.421-19.239-10.182-37.551-17.393-52.935l31.623-31.623c7.962-7.952,9.499-20.346,3.906-30.078l-32.366-56.06
			c-3.944-8.622-12.645-14.612-22.745-14.612h-96.193c-10.1,0-18.801,5.991-22.745,14.612L151.793,161.172z"/>
		<circle style="fill-rule:evenodd;clip-rule:evenodd;fill:#D46B5C;" cx="255" cy="50" r="40"/>
		<path style="fill-rule:evenodd;clip-rule:evenodd;fill:#67CCD1;" d="M303.097,90.5h-96.193c-10.1,0-18.801,5.991-22.745,14.612
			l-16.898,29.269l43.114,24.892l-5.838,10.112l18.137,18.137c9.762,9.762,9.762,25.589,0,35.351
			c-9.762,9.762-25.589,9.762-35.351,0c-7.211,15.383-12.971,33.696-17.392,52.935l12.307-3.298
			c12.001-3.216,24.338,3.907,27.554,15.908c3.216,12.002-3.907,24.338-15.908,27.554l-40.975,10.904l5.608,49.246h46.485h50h50
			h46.486l5.608-49.246l-40.975-10.904c-12.001-3.216-19.124-15.552-15.908-27.554c3.216-12.002,15.552-19.124,27.554-15.908
			l12.307,3.298c-4.421-19.239-10.182-37.551-17.393-52.935c-9.762,9.762-25.59,9.762-35.351,0c-9.762-9.762-9.762-25.589,0-35.351
			l18.137-18.137l-5.838-10.112l43.114-24.891l-16.898-29.269C321.898,96.491,313.197,90.5,303.097,90.5z"/>
		<path style="fill-rule:evenodd;clip-rule:evenodd;fill:#27A2CC;" d="M181.339,237.143c-4.497,11.956-8.287,25.08-11.409,38.665
			l12.307-3.298c12.001-3.216,24.338,3.907,27.554,15.908c3.216,12.002-3.907,24.338-15.908,27.554l-40.975,10.904l5.608,49.246
			h35.226l-2.641-23.192l11.783-3.135c30.569-8.134,48.9-39.889,40.715-70.435C236.146,251.55,209.163,233.883,181.339,237.143
			L181.339,237.143z M316.26,376.123h35.226l5.608-49.246l-40.975-10.904c-12.001-3.216-19.124-15.552-15.908-27.554
			c3.216-12.002,15.552-19.124,27.554-15.908l12.307,3.298c-3.122-13.585-6.912-26.709-11.409-38.665
			c-27.824-3.26-54.807,14.407-62.259,42.218c-8.185,30.546,10.146,62.301,40.715,70.435l11.783,3.135L316.26,376.123z"/>
		<path style="fill-rule:evenodd;clip-rule:evenodd;fill:#D46B5C;" d="M255,376.123h-50v98.878c0,13.75,11.25,25,25,25
			c13.75,0,25-11.251,25-25V376.123z"/>
		<path style="fill-rule:evenodd;clip-rule:evenodd;fill:#D46B5C;" d="M255,376.123v98.878c0,13.75,11.25,25,25,25
			c13.75,0,25-11.251,25-25v-98.878H255z"/>
		<path style="fill-rule:evenodd;clip-rule:evenodd;fill:#FDCB50;" d="M351.486,376.123l-4.392,38.571h13.909h45h45h13.909
			l-10-87.817l38.5-43.5c8.786-8.786,8.786-23.031,0-31.817s-23.031-8.786-31.817,0l-36.908,36.908h-37.367l-47.248-12.66
			l-12.307-3.298c-12.001-3.216-24.338,3.907-27.554,15.908c-3.216,12.002,3.907,24.338,15.908,27.554l40.975,10.904
			L351.486,376.123z"/>
		<path style="fill-rule:evenodd;clip-rule:evenodd;fill:#FDBEB9;" d="M406.002,414.694h-45v62.807c0,12.375,10.125,22.5,22.5,22.5
			c12.375,0,22.5-10.125,22.5-22.5V414.694z"/>
		<path style="fill-rule:evenodd;clip-rule:evenodd;fill:#FDBEB9;" d="M406.002,414.694v62.807c0,12.375,10.125,22.5,22.5,22.5
			c12.375,0,22.5-10.125,22.5-22.5v-62.807H406.002z"/>
		<circle style="fill-rule:evenodd;clip-rule:evenodd;fill:#FDBEB9;" cx="406.002" cy="257.843" r="30"/>
		
			<ellipse transform="matrix(0.4123 -0.911 0.911 0.4123 -173.7877 246.278)" style="fill-rule:evenodd;clip-rule:evenodd;fill:#D46B5C;" cx="103.998" cy="257.843" rx="30" ry="30"/>
		<path style="fill-rule:evenodd;clip-rule:evenodd;fill:#FDCB50;" d="M122.682,288.468H85.315L48.406,251.56
			c-8.786-8.786-23.031-8.786-31.817,0s-8.786,23.031,0,31.817l38.5,43.5l-10,87.817h13.909h45h45h13.909l-4.392-38.571
			l-5.608-49.246l40.975-10.904c12.001-3.216,19.124-15.552,15.908-27.554c-3.216-12.002-15.553-19.124-27.554-15.908l-12.307,3.298
			L122.682,288.468z"/>
		<path style="fill-rule:evenodd;clip-rule:evenodd;fill:#D46B5C;" d="M103.998,414.694h-45v62.807c0,12.375,10.124,22.5,22.5,22.5
			s22.5-10.124,22.5-22.5V414.694z"/>
		<path style="fill-rule:evenodd;clip-rule:evenodd;fill:#D46B5C;" d="M103.998,414.694v62.807c0,12.375,10.124,22.5,22.5,22.5
			s22.5-10.124,22.5-22.5v-62.807H103.998z"/>
	</g>
	<path style="fill:#052A75;" d="M510,267.468c0-8.681-3.38-16.842-9.518-22.979c-6.138-6.138-14.299-9.518-22.979-9.518
		s-16.841,3.38-22.979,9.518l-8.781,8.781c-2.276-19.91-19.23-35.426-39.74-35.426c-22.056,0-40,17.944-40,40
		c0,5.449,1.096,10.647,3.078,15.385l-20.662-5.536c-3.932-15.966-8.564-30.257-13.807-42.609l26.757-26.757
		c11.12-11.105,13.386-28.432,5.5-42.153l-32.149-55.685c-5.78-12.16-18.135-19.987-31.622-19.987h-8.501
		c6.521-8.446,10.405-19.028,10.405-30.5c0-27.57-22.43-50-50-50s-50,22.43-50,50c0,11.472,3.884,22.053,10.405,30.5h-8.502
		c-13.487,0-25.842,7.828-31.622,19.987l-32.159,55.703c-7.875,13.704-5.609,31.03,5.506,42.131l26.762,26.762
		c-5.243,12.35-9.874,26.641-13.807,42.609l-20.661,5.536c1.982-4.738,3.078-9.936,3.078-15.385c0-22.056-17.944-40-40-40
		c-20.51,0-37.464,15.516-39.74,35.426l-8.781-8.781c-6.138-6.138-14.299-9.518-22.979-9.518s-16.841,3.38-22.979,9.518
		c-6.138,6.138-9.519,14.299-9.519,22.979c0,8.57,3.294,16.633,9.284,22.743l35.365,39.958l-9.496,83.393
		c-0.323,2.831,0.578,5.665,2.475,7.791c1.897,2.125,4.611,3.341,7.46,3.341h3.909V477.5c0,17.92,14.58,32.5,32.5,32.5
		c8.724,0,16.656-3.455,22.5-9.069c5.844,5.614,13.776,9.069,22.5,9.069c17.92,0,32.5-14.58,32.5-32.5v-52.807h3.909
		c2.849,0,5.563-1.215,7.46-3.341c1.897-2.126,2.798-4.96,2.475-7.791l-3.125-27.44h25.283v88.878c0,19.299,15.701,35,35,35
		c9.784,0,18.643-4.035,25-10.529c6.357,6.493,15.216,10.529,25,10.529c19.299,0,35-15.701,35-35v-88.878h25.282l-3.125,27.44
		c-0.322,2.831,0.579,5.665,2.476,7.791c1.897,2.125,4.611,3.341,7.46,3.341h3.909V477.5c0,17.92,14.58,32.5,32.5,32.5
		c8.724,0,16.656-3.455,22.5-9.069c5.844,5.614,13.776,9.069,22.5,9.069c17.92,0,32.5-14.58,32.5-32.5v-52.807h3.909
		c2.849,0,5.563-1.215,7.46-3.341c1.897-2.126,2.798-4.96,2.476-7.791l-9.497-83.393l35.365-39.958
		C506.706,284.101,510,276.038,510,267.468z M255.001,20c16.542,0,30,13.458,30,30c0,16.542-13.458,30-30,30
		c-16.542,0-30-13.458-30-30C225,33.458,238.458,20,255.001,20z M406.002,237.844c11.028,0,20,8.972,20,20s-8.972,20-20,20
		s-20-8.972-20-20S394.974,237.844,406.002,237.844z M103.999,237.844c11.028,0,20,8.972,20,20s-8.972,20-20,20s-20-8.972-20-20
		S92.971,237.844,103.999,237.844z M24.078,276.749c-0.134-0.152-0.274-0.3-0.417-0.444c-2.36-2.36-3.66-5.499-3.66-8.837
		s1.3-6.477,3.661-8.837c4.872-4.873,12.802-4.873,17.674,0l36.908,36.908c1.875,1.875,4.419,2.929,7.071,2.929h37.368
		c0.874,0,1.744-0.115,2.588-0.341l59.554-15.958c3.223-0.863,6.592-0.421,9.484,1.249c2.891,1.669,4.959,4.364,5.823,7.589
		c1.782,6.65-2.174,13.511-8.82,15.302l-40.976,10.903c-4.792,1.275-7.925,5.869-7.365,10.795l8.733,76.686H56.293l8.732-76.686
		c0.321-2.816-0.569-5.636-2.447-7.759L24.078,276.749z M81.498,490c-6.893,0-12.5-5.607-12.5-12.5v-52.807h25V477.5
		C93.998,484.393,88.391,490,81.498,490z M138.998,477.5c0,6.893-5.607,12.5-12.5,12.5s-12.5-5.607-12.5-12.5v-52.807h25V477.5z
		 M230,490c-8.271,0-15-6.729-15-15v-88.878h30v88.878C245,483.272,238.271,490,230,490z M295,475.001c0,8.271-6.729,15-15,15
		s-15-6.729-15-15v-88.878h30V475.001z M167.44,366.123l-3.621-31.802l32.635-8.684l0.018-0.004
		c17.309-4.639,27.616-22.494,22.978-39.801c-2.246-8.385-7.624-15.393-15.141-19.733c-6.298-3.637-13.466-5.036-20.557-4.072
		c2.477-8.816,5.184-16.96,8.103-24.372c4.12,1.668,8.564,2.542,13.143,2.542c9.349,0,18.137-3.641,24.747-10.25
		c6.61-6.61,10.251-15.398,10.251-24.747c0-9.349-3.641-18.137-10.25-24.747l-12.711-12.711l12.839-22.239
		c2.762-4.783,1.123-10.899-3.66-13.66c-4.784-2.76-10.898-1.122-13.66,3.66l-16.676,28.884c-2.263,3.92-1.611,8.871,1.589,12.071
		l18.138,18.138c2.833,2.833,4.393,6.598,4.393,10.604c0,4.006-1.56,7.771-4.393,10.604c-2.833,2.833-6.598,4.393-10.604,4.393
		c-4.006,0-7.772-1.56-10.604-4.393l-31.627-31.628c-4.735-4.729-5.682-12.139-2.313-18.002l32.366-56.06
		c0.158-0.273,0.302-0.553,0.434-0.84c2.438-5.329,7.796-8.772,13.651-8.772h96.193c5.855,0,11.214,3.443,13.651,8.772
		c0.131,0.287,0.276,0.567,0.434,0.84l32.355,56.042c3.379,5.88,2.433,13.291-2.308,18.024l-31.623,31.623
		c-2.833,2.833-6.599,4.393-10.604,4.393c-4.006,0-7.772-1.56-10.605-4.393c-2.833-2.833-4.393-6.598-4.393-10.604
		c0-4.006,1.56-7.772,4.393-10.604l18.137-18.138c3.2-3.2,3.852-8.151,1.589-12.071L297.448,135.5
		c-2.761-4.783-8.878-6.422-13.66-3.66c-4.783,2.761-6.422,8.877-3.66,13.66l12.839,22.239l-12.711,12.711
		c-6.61,6.61-10.251,15.398-10.251,24.747c0,9.348,3.641,18.137,10.25,24.746c6.61,6.61,15.398,10.251,24.747,10.251
		c4.579,0,9.023-0.874,13.143-2.542c2.92,7.414,5.628,15.558,8.104,24.373c-7.091-0.963-14.259,0.437-20.557,4.072
		c-7.518,4.34-12.895,11.349-15.141,19.733c-4.638,17.308,5.67,35.163,22.978,39.802l0.018,0.004l32.635,8.684l-3.622,31.802H167.44
		z M383.502,490c-6.893,0-12.5-5.607-12.5-12.5v-52.807h25V477.5C396.002,484.393,390.395,490,383.502,490z M441.002,477.5
		c0,6.893-5.607,12.5-12.5,12.5s-12.5-5.607-12.5-12.5v-52.807h25V477.5z M486.34,276.305c-0.144,0.144-0.283,0.292-0.417,0.444
		l-38.5,43.5c-1.878,2.123-2.768,4.942-2.447,7.759l8.732,76.686h-95.411l8.732-76.686c0.561-4.926-2.573-9.52-7.364-10.795
		l-40.976-10.903c-6.646-1.792-10.602-8.652-8.82-15.303c0.864-3.225,2.932-5.919,5.823-7.588c2.891-1.669,6.258-2.112,9.483-1.249
		l59.555,15.958c0.844,0.226,1.714,0.341,2.588,0.341h37.367c2.652,0,5.196-1.054,7.071-2.929l36.908-36.908
		c4.872-4.873,12.801-4.874,17.674,0c2.36,2.36,3.66,5.499,3.66,8.837S488.7,273.945,486.34,276.305z"/>
</g>
<g>
</g>
<g>
</g>
<g>
</g>
<g>
</g>
<g>
</g>
<g>
</g>
<g>
</g>
<g>
</g>
<g>
</g>
<g>
</g>
<g>
</g>
<g>
</g>
<g>
</g>
<g>
</g>
<g>
</g>
</svg>
