<?xml version="1.0" encoding="iso-8859-1"?>
<!-- Generator: Adobe Illustrator 27.5.0, SVG Export Plug-In . SVG Version: 6.00 Build 0)  -->
<svg version="1.1" id="Layer_1" xmlns="http://www.w3.org/2000/svg" xmlns:xlink="http://www.w3.org/1999/xlink" x="0px" y="0px"
	 viewBox="0 0 512 512" style="enable-background:new 0 0 512 512;" xml:space="preserve">
<g>
	<g>
		<path style="fill:#FDE0BE;" d="M219.838,200.649H84.071c-1.657,0-3-1.343-3-3V71.722c0-1.657,1.343-3,3-3h135.767
			c1.657,0,3,1.343,3,3v125.927C222.838,199.306,221.495,200.649,219.838,200.649z"/>
		<path style="fill:#FD6050;" d="M151.954,111.548l-20.708,17.161c-1.015,0.841-2.55,0.119-2.55-1.199V62.932
			c0-3.658,2.966-6.624,6.624-6.624h33.268c3.658,0,6.624,2.966,6.624,6.624v64.579c0,1.318-1.535,2.039-2.55,1.199L151.954,111.548
			z"/>
		<ellipse style="fill:#D2DCFD;" cx="428.809" cy="384.07" rx="73.191" ry="71.622"/>
		<path style="fill:#93B2F4;" d="M499.289,364.702c-12.796,7.312-50.441,3.744-65.961,4.412c-0.659,0.028-1.282,0.261-1.791,0.681
			c-6.94,5.721-62.639,48.802-63.993,49.941h-2.219c-21.063-33.659-6.099-82.458,29.923-99.323
			C434.292,299.493,487.848,321.459,499.289,364.702z"/>
		<ellipse style="fill:#93B2F4;" cx="151.732" cy="384.07" rx="73.191" ry="71.622"/>
		<path style="fill:#FFFFFF;" d="M335.372,334.025h143.054c8.741,0,15.828-7.086,15.828-15.828v0
			c0-15.093-12.235-27.328-27.328-27.328H335.372V334.025z"/>
		<path style="fill:#F7B073;" d="M222.835,150.622v47.011c0,1.667-1.346,3.012-3.012,3.012H84.081c-1.657,0-3.012-1.345-3.012-3.012
			v-47.011H222.835z"/>
		<path style="fill:#D46B5C;" d="M74.217,234.776h157.67c6.933,0,12.553-6.184,12.553-13.812v-21.389
			c0-7.628-5.62-13.812-12.553-13.812H74.217c-6.933,0-12.553,6.184-12.553,13.812v21.389
			C61.664,228.592,67.284,234.776,74.217,234.776z"/>
		<path style="fill:#D2DCFD;" d="M467.62,290.892c0.02,14.901-3.173,29.63-9.308,43.135h-122.94v-43.155h131.555
			C467.158,290.872,467.389,290.872,467.62,290.892z"/>
		<path style="fill:#FD6050;" d="M406.104,345.192l-50.623,39.401H30.666v-73.1c0-41.988,34.038-76.026,76.026-76.026h110.936
			c15.487,0,28.042,12.555,28.042,28.042l0,57.127h49.907c23.445,0,41.426-20.814,38.02-44.01L309.226,110.65h53.604l64.393,154.125
			C439.131,293.276,430.479,326.22,406.104,345.192z"/>
		<path style="fill:#DB4B86;" d="M392.435,181.507h-3.414c-39.069,0-70.848-31.789-70.848-70.858h44.662L392.435,181.507z"/>
		<path style="fill:#FDCB50;" d="M399.749,146.36h-10.872c-19.642,0-35.565-15.923-35.565-35.565v-0.29
			c0-19.642,15.923-35.565,35.565-35.565h10.872V146.36z"/>
		<path style="fill:#DB4B86;" d="M191.478,363.015v21.578H30.664v-56.369c2.189-0.231,4.418-0.351,6.667-0.351h119.004
			C175.744,327.872,191.478,343.606,191.478,363.015z"/>
		<path style="fill:#FFFFFF;" d="M156.337,406.17v-43.156H37.328C22.235,363.015,10,375.25,10,390.343v0
			c0,8.741,7.086,15.828,15.828,15.828H156.337z"/>
	</g>
	<g>
		<circle style="fill:#FFFFFF;" cx="428.824" cy="384.07" r="10"/>
		<path style="fill:#052A75;" d="M496.508,336.615c4.775-4.689,7.745-11.212,7.745-18.418c0-20.583-16.745-37.328-37.328-37.328
			h-25.114c-0.885-6.747-2.647-13.455-5.36-19.95l-43.684-104.56h6.983c5.522,0,10-4.477,10-10V74.94c0-5.523-4.478-10-10-10
			h-10.872c-21.741,0-39.963,15.309-44.48,35.71c-17.284,0-51.146,0-68.366,0c-5.522,0-10,4.477-10,10s4.478,10,10,10h24.557
			l23.116,157.427c1.201,8.179-1.21,16.458-6.614,22.714s-13.245,9.844-21.512,9.844h-39.906v-47.127
			c0-9.184-3.272-17.619-8.711-24.2c4.589-4.362,7.48-10.678,7.48-17.694v-21.39c0-12.793-9.606-23.258-21.603-23.786V71.734
			c0-7.175-5.837-13.012-13.012-13.012h-35.174c-1.871-7.131-8.353-12.414-16.063-12.414H135.32
			c-7.709,0-14.191,5.283-16.063,12.414H84.083c-7.175,0-13.013,5.837-13.013,13.012v104.915
			c-10.951,1.622-19.406,11.573-19.406,23.575v21.39c0,7.19,3.038,13.641,7.825,18.011c-23.363,15.397-38.823,41.855-38.823,71.868
			v45.462C8.426,363.087,0,375.746,0,390.343c0,14.241,11.587,25.828,25.828,25.828h49.407c13,29.766,43.271,49.521,76.497,49.521
			c21.604,0,42.078-8.088,57.648-22.774c13.782-12.999,22.44-29.948,24.846-48.326h112.092
			c2.368,18.123,10.808,34.853,24.307,47.815c15.638,15.015,36.301,23.284,58.185,23.284c45.871,0,83.19-36.616,83.19-81.622
			C512,366.856,506.564,350.381,496.508,336.615z M484.253,318.197c0,3.214-2.614,5.828-5.828,5.828h-43.174
			c3.375-7.337,5.605-15.152,6.612-23.156h25.063C476.479,300.87,484.253,308.643,484.253,318.197z M363.312,110.505
			c0-14.097,11.469-25.565,25.565-25.565h0.872v51.42h-0.872c-14.097,0-25.565-11.468-25.565-25.565V110.505z M234.44,200.224v21.39
			c0,2.182-1.349,3.812-2.554,3.812c-33.347,0.081-125.009,0.021-157.67,0c-1.205,0-2.553-1.63-2.553-3.812v-21.39
			c0-2.182,1.348-3.812,2.553-3.812h157.67C233.092,196.412,234.44,198.042,234.44,200.224z M138.696,66.308h26.517v43.24
			l-6.878-5.7c-1.851-1.534-4.115-2.3-6.381-2.3s-4.53,0.767-6.381,2.3l-6.877,5.699V66.308z M118.696,78.722v48.789
			c0,4.457,2.606,8.563,6.641,10.458c4.033,1.896,8.858,1.284,12.29-1.561l14.327-11.873l14.327,11.873
			c2.107,1.746,4.738,2.651,7.39,2.651c1.668,0,3.344-0.358,4.901-1.09c4.034-1.896,6.641-6.001,6.641-10.458V78.722h27.625v97.69
			H91.07v-97.69H118.696z M106.692,245.465h110.937c9.949,0,18.043,8.094,18.043,18.042v57.127c0,5.523,4.478,10,10,10h49.906
			c14.083,0,27.439-6.112,36.646-16.769c9.206-10.657,13.313-24.761,11.267-38.694L320.802,120.65h23.595
			c3.056,13.802,12.38,25.274,24.83,31.25l48.769,116.73c10.143,24.274,2.726,52.513-18.034,68.67l-47.913,37.292H166.337v-11.578
			c0-5.523-4.478-10-10-10H40.666v-41.522C40.666,275.085,70.285,245.465,106.692,245.465z M20,390.343
			c0-9.555,7.773-17.328,17.328-17.328h109.009v23.156H25.828C22.614,396.17,20,393.556,20,390.343z M151.732,445.692
			c-22.178,0-42.605-11.497-53.943-29.521h58.547c5.522,0,10-4.477,10-10v-11.578h47.66
			C208.897,423.818,182.992,445.692,151.732,445.692z M428.81,445.692c-16.694,0-32.438-6.29-44.332-17.71
			c-10.872-10.44-17.392-24.094-18.629-38.786l46.396-36.112c3.558-2.769,6.819-5.805,9.781-9.058h54.802
			C486.632,355.184,492,369.27,492,384.07C492,418.048,463.653,445.692,428.81,445.692z"/>
	</g>
</g>
<g>
</g>
<g>
</g>
<g>
</g>
<g>
</g>
<g>
</g>
<g>
</g>
<g>
</g>
<g>
</g>
<g>
</g>
<g>
</g>
<g>
</g>
<g>
</g>
<g>
</g>
<g>
</g>
<g>
</g>
</svg>
