<?xml version="1.0" encoding="iso-8859-1"?>
<!-- Generator: Adobe Illustrator 26.5.3, SVG Export Plug-In . SVG Version: 6.00 Build 0)  -->
<svg version="1.1" id="Capa_1" xmlns="http://www.w3.org/2000/svg" xmlns:xlink="http://www.w3.org/1999/xlink" x="0px" y="0px"
	 viewBox="0 0 510 510" style="enable-background:new 0 0 510 510;" xml:space="preserve">
<g>
	<g>
		<path style="fill:#FDCB50;" d="M255,110l-97.867,177.688h0C180.697,309.268,196.262,337.228,204,368h102
			c7.738-30.772,23.303-58.732,46.867-80.312h0L255,110z"/>
		<path style="fill:#FD8F01;" d="M246.767,214.026c0-29.657,7.347-57.594,20.305-82.108L255,110l-97.867,177.688h0
			C180.697,309.268,196.262,337.228,204,368h102c1.511-6.009,3.33-11.905,5.44-17.673
			C271.968,318.057,246.767,268.987,246.767,214.026z"/>
		<rect id="XMLID_122_" x="171" y="368" style="fill:#D2DCFD;" width="168" height="44"/>
		<rect id="XMLID_121_" x="204" y="412" style="fill:#67CCD1;" width="102" height="88"/>
		<circle id="XMLID_120_" style="fill:#FFFFFF;" cx="255" cy="268.418" r="24"/>
		<rect x="227" y="10" style="fill:#FD7DA0;" width="56" height="56"/>
		<rect x="10" y="227" style="fill:#FD7DA0;" width="56" height="56"/>
		<rect x="444" y="227" style="fill:#FD7DA0;" width="56" height="56"/>
		<circle style="fill:#27A2CC;" cx="444" cy="38" r="22"/>
		<circle style="fill:#27A2CC;" cx="66" cy="38" r="22"/>
	</g>
	<g>
		<g>
			<path style="fill:#93B2F4;" d="M348.32,48H422V28H284.354v9.229l-1.683,12.603c92.405,12.339,165.418,85.512,177.555,177.943
				l19.83-2.604C469.658,145.98,418.516,79.677,348.32,48z"/>
			<path style="fill:#93B2F4;" d="M226,28H89v20h72.655C91.28,79.745,40.108,146.263,29.872,225.722l19.836,2.556
				c11.941-92.694,84.979-166.073,177.616-178.445L226,39.921V28z"/>
		</g>
		<g>
			<path style="fill:#052A75;" d="M263.759,105.176C262.001,101.983,258.645,100,255,100s-7.001,1.983-8.759,5.176l-97.867,177.688
				c-2.226,4.042-1.397,9.082,2.005,12.199c18.218,16.685,31.972,38.265,40.259,62.938H171c-5.523,0-10,4.477-10,10v44
				c0,5.523,4.477,10,10,10h23v78c0,5.523,4.477,10,10,10h102c5.523,0,10-4.477,10-10v-78h23c5.523,0,10-4.477,10-10v-44
				c0-5.523-4.477-10-10-10h-19.638c8.287-24.673,22.041-46.253,40.259-62.938c3.403-3.117,4.231-8.157,2.005-12.199
				L263.759,105.176z M255,254.418c7.72,0,14,6.28,14,14s-6.28,14-14,14s-14-6.28-14-14S247.28,254.418,255,254.418z M296,490h-82
				v-68h82V490z M329,402H181v-24h148V402z M298.392,358h-86.784c-8.255-27.865-22.622-52.576-42.019-72.199L245,148.884v87.037
				c-13.882,4.281-24,17.229-24,32.497c0,18.748,15.252,34,34,34s34-15.252,34-34c0-15.268-10.118-28.217-24-32.497v-87.037
				l75.411,136.917C321.014,305.424,306.647,330.135,298.392,358z"/>
			<path style="fill:#052A75;" d="M227,76h56c5.523,0,10-4.477,10-10V10c0-5.523-4.477-10-10-10h-56c-5.523,0-10,4.477-10,10v56
				C217,71.523,221.477,76,227,76z M237,20h36v36h-36V20z"/>
			<path style="fill:#052A75;" d="M66,217H10c-5.523,0-10,4.477-10,10v56c0,5.523,4.477,10,10,10h56c5.523,0,10-4.477,10-10v-56
				C76,221.477,71.523,217,66,217z M56,273H20v-36h36V273z"/>
			<path style="fill:#052A75;" d="M500,217h-56c-5.523,0-10,4.477-10,10v56c0,5.523,4.477,10,10,10h56c5.523,0,10-4.477,10-10v-56
				C510,221.477,505.523,217,500,217z M490,273h-36v-36h36V273z"/>
			<path style="fill:#052A75;" d="M476,38c0-17.645-14.355-32-32-32s-32,14.355-32,32s14.355,32,32,32S476,55.645,476,38z M432,38
				c0-6.617,5.383-12,12-12s12,5.383,12,12s-5.383,12-12,12S432,44.617,432,38z"/>
			<path style="fill:#052A75;" d="M66,6C48.355,6,34,20.355,34,38s14.355,32,32,32s32-14.355,32-32S83.645,6,66,6z M66,50
				c-6.617,0-12-5.383-12-12s5.383-12,12-12s12,5.383,12,12S72.617,50,66,50z"/>
		</g>
	</g>
</g>
<g>
</g>
<g>
</g>
<g>
</g>
<g>
</g>
<g>
</g>
<g>
</g>
<g>
</g>
<g>
</g>
<g>
</g>
<g>
</g>
<g>
</g>
<g>
</g>
<g>
</g>
<g>
</g>
<g>
</g>
</svg>
