<?xml version="1.0" encoding="iso-8859-1"?>
<!-- Generator: Adobe Illustrator 28.3.0, SVG Export Plug-In . SVG Version: 6.00 Build 0)  -->
<svg version="1.1" id="Capa_1" xmlns="http://www.w3.org/2000/svg" xmlns:xlink="http://www.w3.org/1999/xlink" x="0px" y="0px"
	 viewBox="0 0 511.994 511.994" style="enable-background:new 0 0 511.994 511.994;" xml:space="preserve">
<g>
	<g>
		<g>
			<path style="fill:#D46B5C;" d="M138.02,172.23V126.28c0-32.566,13.597-62.116,35.408-83.269
				c17.202-16.704,39.515-28.177,64.299-31.795c5.493-0.802,11.117-1.222,16.83-1.222c7.12,0,14.099,0.641,20.867,1.884
				c23.378,4.259,44.375,15.552,60.714,31.564c21.54,21.123,34.956,50.493,34.956,82.838v43.943L138.02,172.23z"/>
			<g>
				<path style="fill:#F7B073;" d="M352.743,151.714c19.294,0,34.935,15.607,34.935,34.86v0c0,19.253-15.641,34.86-34.935,34.86
					H159.251c-19.294,0-34.935-15.607-34.935-34.86v0c0-19.253,15.641-34.86,34.935-34.86H352.743z"/>
				<path style="fill:#FDE0BE;" d="M335.849,151.712c-17.885-7.185-30.945-23.177-34.43-42.597l-2.555,1.237
					c-27.093,13.121-58.695,13.232-85.88,0.302l-2.205-1.049c-3.615,19.189-16.411,34.983-34.136,42.107v-0.002l-0.253,54.22
					c-0.151,30.23,16.908,57.925,44.005,71.444l0,0c22.412,11.182,48.791,11.182,71.203,0l0.245-0.122
					c26.97-13.456,44.006-40.962,44.006-71.05v-54.49V151.712z"/>
				<path style="fill:#F7B073;" d="M301.419,109.115l-2.555,1.238c-27.093,13.121-58.695,13.232-85.88,0.302l-2.204-1.049
					c-3.615,19.189-16.411,34.983-34.136,42.108v-0.002l-0.169,36.183l30.088-18.761c8.22-6.035,15.266-13.483,20.851-21.993
					c9.257,2.069,18.74,3.133,28.195,3.133c9.79,0,19.601-1.138,29.16-3.352c5.624,8.589,12.748,16.106,21.081,22.198l30,18.632
					v-36.038v-0.002C317.964,144.527,304.904,128.535,301.419,109.115z"/>
				<path style="fill:#F7B073;" d="M310.969,321.249c-4.9-5.381-8.572-11.921-10.551-19.215l-9.843-36.691h-71.339l-9.008,36.691
					c-1.99,7.332-5.689,13.902-10.627,19.299l56.466,69.074L310.969,321.249z"/>
				<path style="fill:#27A2CC;" d="M282.37,501.994h160.669L419.43,389.532c-5.131-24.441-24.601-43.337-49.228-47.776
					l-32.879-5.926L282.37,501.994z"/>
				<path style="fill:#27A2CC;" d="M173.322,335.83l-32.507,5.859c-24.813,4.472-44.371,23.615-49.332,48.283L68.955,501.993
					l157.546,0L173.322,335.83z"/>
				<path style="fill:#FFFFFF;" d="M337.323,335.83c-10.357-1.867-19.545-7.102-26.354-14.581l-53.003,44.435
					c-1.102,0.924-2.705,0.936-3.821,0.028l-54.544-44.38c-6.802,7.434-15.96,12.637-26.278,14.497l55.947,166.163l53.101,0.001
					L337.323,335.83z"/>
				<polygon style="fill:#67CCD1;" points="166.043,501.993 145.77,451.814 165.829,411.715 129.253,411.715 129.253,332.011 
					197.712,323.285 229.269,501.993 				"/>
				<polygon style="fill:#67CCD1;" points="282.37,501.994 313.546,323.897 382.881,332.011 382.881,411.715 346.305,411.715 
					366.363,451.814 346.09,501.993 				"/>
			</g>
		</g>
		<path style="fill:#FFFFFF;" d="M215.448,206.926l-39.011-11.023l-0.047,10.028c-0.151,30.23,16.908,57.925,44.005,71.444v0
			c22.412,11.182,48.791,11.182,71.203,0l0.245-0.122c26.97-13.456,44.006-40.961,44.006-71.05v-10.042l-39.023,10.893
			C270.203,214.486,242.048,214.442,215.448,206.926z"/>
	</g>
	<path style="fill:#052A75;" d="M452.826,499.939l-23.609-112.461c-4.324-20.603-17.806-38.437-36.336-48.314v-7.154
		c0-5.073-3.799-9.343-8.838-9.933l-65.796-7.7c-3.853-4.274-6.668-9.396-8.198-15.034l-5.054-18.094
		c18.226-11.741,31.311-29.42,37.261-49.815h10.486c24.777,0,44.936-20.124,44.936-44.86c0-14.012-6.471-26.539-16.583-34.772
		V126.28c0-34.021-13.479-65.976-37.957-89.979C324.894,18.42,302.099,6.572,277.23,2.042c-13.308-2.442-27.342-2.707-40.947-0.721
		c-26.39,3.853-50.534,15.787-69.816,34.512c-24.792,24.043-38.446,56.165-38.446,90.447v28.084
		c-8.442,8.16-13.705,19.58-13.705,32.21c0,24.736,20.158,44.86,44.936,44.86h10.689c5.771,19.918,18.347,37.243,35.892,49.007
		l-5.255,18.974c-1.446,5.327-4.09,10.245-7.689,14.404l-64.9,8.272c-4.993,0.637-8.735,4.886-8.735,9.92v6.503
		C99.886,348.372,86,366.522,81.679,388.001L59.151,500.021c-0.591,2.939,0.168,5.988,2.067,8.308
		c1.898,2.319,4.738,3.664,7.736,3.664l374.084,0.001c3.013,0,5.864-1.358,7.764-3.697
		C452.701,505.958,453.444,502.887,452.826,499.939z M337.361,416.188l18.04,36.063l-16.04,39.703
		c-0.005,0.013-0.008,0.026-0.013,0.039l-45.074,0l27.494-157.067l51.113,5.981v60.807h-26.576c-3.466,0-6.685,1.795-8.507,4.743
		C335.975,409.407,335.81,413.089,337.361,416.188z M237.658,491.993l-29.233-165.55c5.35-6.322,9.272-13.752,11.439-21.74
		l4.116-14.861c10.274,3.908,21.145,5.87,32.019,5.87c10.431,0,20.862-1.803,30.762-5.399l4.006,14.34
		c2.264,8.344,6.396,16.023,12.058,22.493l-28.856,164.847H237.658z M186.63,157.823c14.086-7.549,24.874-19.758,30.594-34.506
		c25.158,9.48,52.672,9.351,77.743-0.371c5.748,14.839,16.768,27.372,30.882,34.954v30.671l-31.712,8.852
		c-24.861,6.94-51.132,6.898-75.97-0.12l-31.69-8.955L186.63,157.823z M352.743,211.434h-7.056c0.099-1.734,0.162-3.477,0.162-5.23
		v-44.49h6.894c13.749,0,24.936,11.152,24.936,24.86S366.492,211.434,352.743,211.434z M148.02,126.28
		c0-28.824,11.496-55.847,32.375-76.095c16.25-15.779,36.574-25.833,58.776-29.073c11.458-1.675,23.267-1.452,34.461,0.604
		c20.935,3.813,40.128,13.796,55.504,28.866c20.609,20.21,31.959,47.094,31.959,75.698v16.223c-2.708-0.51-5.498-0.789-8.353-0.789
		h-14.484c-14.009-6.271-24.289-19.273-26.997-34.364c-0.553-3.08-2.515-5.725-5.304-7.145c-2.788-1.422-6.08-1.453-8.896-0.091
		c-25.709,13.397-56.137,13.603-81.988,0.462c-2.8-1.333-6.061-1.29-8.827,0.116c-2.765,1.405-4.721,4.015-5.295,7.063
		c-2.807,14.903-13.049,27.749-26.902,33.958h-14.8c-3.876,0-7.64,0.493-11.23,1.419V126.28z M159.251,211.434
		c-13.749,0-24.936-11.152-24.936-24.86s11.187-24.86,24.936-24.86h7.359l-0.22,44.168c-0.009,1.863,0.049,3.713,0.151,5.553
		H159.251z M186.452,209.124l26.277,7.425c14.271,4.032,28.953,6.049,43.638,6.049c14.514,0,29.031-1.971,43.147-5.911l26.256-7.329
		c-1.121,25.191-15.61,47.581-38.385,58.944l-0.251,0.125c-19.498,9.728-42.778,9.728-62.274,0
		C201.943,256.994,187.447,234.467,186.452,209.124z M139.253,340.817l50.27-6.407l27.826,157.583l-44.56,0l-16.056-39.741
		l18.04-36.063c1.551-3.1,1.386-6.781-0.437-9.73c-1.822-2.948-5.041-4.743-8.507-4.743h-26.576V340.817z M101.287,391.944
		c2.382-11.842,8.821-22.267,17.966-29.693v49.463c0,5.522,4.478,10,10,10h20.393l-12.818,25.625
		c-1.283,2.565-1.403,5.56-0.328,8.22l14.719,36.434l-70.052,0L101.287,391.944z M360.915,491.994l14.719-36.434
		c1.075-2.66,0.955-5.654-0.328-8.22l-12.818-25.625h20.393c5.522,0,10-4.478,10-10v-48.429c8.435,7.296,14.44,17.239,16.762,28.301
		l21.079,100.407L360.915,491.994z"/>
</g>
<g>
</g>
<g>
</g>
<g>
</g>
<g>
</g>
<g>
</g>
<g>
</g>
<g>
</g>
<g>
</g>
<g>
</g>
<g>
</g>
<g>
</g>
<g>
</g>
<g>
</g>
<g>
</g>
<g>
</g>
</svg>
