<?xml version="1.0" encoding="iso-8859-1"?>
<!-- Generator: Adobe Illustrator 27.5.0, SVG Export Plug-In . SVG Version: 6.00 Build 0)  -->
<svg version="1.1" id="Layer_1" xmlns="http://www.w3.org/2000/svg" xmlns:xlink="http://www.w3.org/1999/xlink" x="0px" y="0px"
	 viewBox="0 0 509.912 509.912" style="enable-background:new 0 0 509.912 509.912;" xml:space="preserve">
<g>
	<g>
		<g>
			<path style="fill:#67CCD1;" d="M215.954,254.41v22.8c0,9.565-6.991,17.695-16.449,19.126l-89.696,13.576
				c-32.114,4.861-55.853,32.463-55.853,64.943v125.057h201h201V374.855c0-32.479-23.739-60.082-55.853-64.943l-89.696-13.576
				c-9.458-1.432-16.449-9.561-16.449-19.126v-22.8H215.954z"/>
		</g>
		<g>
			<path style="fill:#F7B073;" d="M199.505,296.336l-42.332,6.407c19.253,34.218,55.893,57.344,97.952,57.344
				c42.04,0,78.666-23.105,97.925-57.297l-42.643-6.454c-9.458-1.432-16.449-9.561-16.449-19.126v-22.8h-78.005v22.8
				C215.954,286.776,208.962,294.905,199.505,296.336z"/>
		</g>
		<g>
			<path style="fill:#FFFFFF;" d="M455.956,374.855c0-32.479-23.739-60.082-55.853-64.943l-91.463-13.844l-30.288,203.843h177.603
				V374.855z"/>
		</g>
		<g>
			<path style="fill:#FFFFFF;" d="M53.956,374.855c0-32.479,23.739-60.082,55.853-64.943l91.463-13.844l30.288,203.843H53.956
				V374.855z"/>
		</g>
		<g>
			<path style="fill:#D2DCFD;" d="M143.627,369.776c0-23.6,4.456-46.157,12.564-66.884l-46.383,7.02
				c-32.114,4.861-55.853,32.463-55.853,64.943v125.057h143.738C164.299,466.655,143.627,420.631,143.627,369.776z"/>
		</g>
		<g>
			<g>
				<path style="fill:#FDCB50;" d="M168.972,108.144V78.326C168.972,40.59,199.563,10,237.299,10h35.315
					c37.736,0,68.326,30.591,68.326,68.326v29.818H168.972z"/>
			</g>
			<g>
				<path style="fill:#FDE0BE;" d="M168.972,108.133v66.836c0,47.488,38.496,85.984,85.984,85.984h0
					c47.488,0,85.984-38.496,85.984-85.984v-66.836H168.972z"/>
			</g>
			<g>
				<g>
					<rect x="168.972" y="108.155" style="fill:#F7B073;" width="171.968" height="47.319"/>
				</g>
			</g>
		</g>
		<g>
			<path style="fill:#67CCD1;" d="M367.285,437.692L367.285,437.692c-13.807,0-25-11.193-25-25v0c0-13.807,11.193-25,25-25h0
				c13.807,0,25,11.193,25,25v0C392.285,426.499,381.092,437.692,367.285,437.692z"/>
		</g>
	</g>
	<g>
		<g>
			<path style="fill:#DB4B86;" d="M254.969,219.612c-7.84,0-15.681-2.984-21.65-8.953c-3.905-3.905-3.905-10.237,0-14.143
				c3.905-3.904,10.237-3.904,14.143,0c2.005,2.006,4.671,3.11,7.507,3.11c2.836,0,5.502-1.104,7.508-3.11
				c3.905-3.904,10.237-3.904,14.143,0c3.905,3.905,3.905,10.237,0,14.143C270.65,216.628,262.81,219.612,254.969,219.612z"/>
		</g>
		<path style="fill:#27A2CC;" d="M377.285,379.155v-74.045h-20v74.045c-14.44,4.314-25,17.712-25,33.537c0,19.299,15.701,35,35,35
			s35-15.701,35-35C402.285,396.867,391.726,383.469,377.285,379.155z M367.285,427.691c-8.271,0-15-6.729-15-15s6.729-15,15-15
			s15,6.729,15,15S375.556,427.691,367.285,427.691z"/>
		<path style="fill:#27A2CC;" d="M153.627,380.311v-75.668h-20v75.668c-14.44,4.314-25,17.712-25,33.537v13.38
			c0,5.522,4.477,10,10,10s10-4.478,10-10v-13.38c0-8.271,6.729-15,15-15c8.271,0,15,6.729,15,15v13.38c0,5.522,4.477,10,10,10
			s10-4.478,10-10v-13.38C178.627,398.023,168.067,384.625,153.627,380.311z"/>
		<path style="fill:#052A75;" d="M447.654,325.507c-11.802-13.724-28.158-22.772-46.054-25.482l-89.697-13.576
			c-4.604-0.696-7.945-4.581-7.945-9.238v-19.741c28.109-16.759,46.981-47.465,46.981-82.5V78.326
			C350.94,35.137,315.803,0,272.614,0h-35.315c-43.189,0-78.326,35.137-78.326,78.326v96.643c0,35.036,18.872,65.741,46.981,82.5
			v19.741c0,4.657-3.341,8.542-7.945,9.238l-89.696,13.576c-17.896,2.709-34.252,11.759-46.054,25.482
			c-11.802,13.723-18.302,31.248-18.302,49.349v125.057c0,5.522,4.477,10,10,10h402c5.523,0,10-4.478,10-10V374.855
			C465.956,356.756,459.456,339.229,447.654,325.507z M237.298,20h35.315c32.161,0,58.326,26.165,58.326,58.326v19.807h-62.765
			c5.571-7.797,8.863-17.33,8.863-27.622c0-5.522-4.477-10-10-10s-10,4.478-10,10c0,15.082-12.148,27.374-27.171,27.622h-50.895
			V78.326C178.972,46.165,205.137,20,237.298,20z M178.972,174.969v-56.824H330.94v56.824c0,41.897-34.086,75.983-75.984,75.983
			S178.972,216.866,178.972,174.969z M254.956,270.952c10.105,0,19.848-1.574,29.002-4.482v10.74
			c0,10.444,5.355,19.65,13.681,24.858l-27.911,187.844h-29.546l-27.911-187.844c8.326-5.208,13.681-14.414,13.681-24.858v-10.74
			C235.108,269.378,244.851,270.952,254.956,270.952z M63.956,374.855c0-13.316,4.782-26.211,13.466-36.308
			c8.683-10.097,20.717-16.755,33.884-18.748l81.548-12.343l27.11,182.455H63.956V374.855z M445.956,489.912H289.949l27.11-182.455
			l81.548,12.343c13.167,1.993,25.2,8.651,33.884,18.748c8.683,10.097,13.465,22.991,13.465,36.308V489.912z"/>
	</g>
</g>
<g>
</g>
<g>
</g>
<g>
</g>
<g>
</g>
<g>
</g>
<g>
</g>
<g>
</g>
<g>
</g>
<g>
</g>
<g>
</g>
<g>
</g>
<g>
</g>
<g>
</g>
<g>
</g>
<g>
</g>
</svg>
