<?xml version="1.0" encoding="iso-8859-1"?>
<!-- Generator: Adobe Illustrator 28.7.8, SVG Export Plug-In . SVG Version: 9.03 Build 56881)  -->
<svg version="1.1" id="Layer_1" xmlns="http://www.w3.org/2000/svg" xmlns:xlink="http://www.w3.org/1999/xlink" x="0px" y="0px"
	 viewBox="0 0 510.002 510.002" style="enable-background:new 0 0 510.002 510.002;" xml:space="preserve">
<g>
	<g>
		<g>
			<g>
				<rect x="102.002" y="32.001" style="fill:#FFFFFF;" width="306" height="382.046"/>
			</g>
			<g>
				<path style="fill:#D2DCFD;" d="M269.344,315.099l-25.516-44.195c-11.529-19.969-31.411-32.108-52.685-34.553
					c-12.753-17.201-33.208-28.349-56.266-28.349h-32.877v206.046h176.257c1.439-12.338-0.451-24.79-5.333-36.046
					C281.446,358.355,280.874,335.067,269.344,315.099z"/>
			</g>
			<g>
				<path style="fill:#D2DCFD;" d="M325.017,32.001c-47.288,28.323-79.016,80.062-79.016,139.079c0,89.327,72.673,162,162,162
					V32.001H325.017z"/>
			</g>
		</g>
		<g>
			<g>
				<path style="fill:#67CCD1;" d="M196.757,378.001c0-6.776-0.771-13.372-2.231-19.706l14.197-8.197l-25.516-44.195l-14.22,8.21
					c-9.601-8.964-21.222-15.79-34.109-19.718v-16.394H83.846v16.394c-12.887,3.928-24.508,10.754-34.109,19.718l-14.22-8.21
					l-25.516,44.195l14.197,8.197c-1.459,6.333-2.231,12.929-2.231,19.706s0.772,13.372,2.231,19.706l-14.197,8.197l25.516,44.195
					l14.22-8.21c9.601,8.964,21.222,15.79,34.109,19.718v16.394h51.033v-16.394c12.887-3.928,24.508-10.754,34.109-19.718
					l14.22,8.21l25.516-44.195l-14.197-8.197C195.985,391.373,196.757,384.777,196.757,378.001z"/>
			</g>
			<g>
				<path style="fill:#27A2CC;" d="M80.663,295.441c-11.618,4.039-22.122,10.452-30.925,18.672l-14.219-8.21l-25.516,44.195
					l14.197,8.197c-1.459,6.333-2.231,12.929-2.231,19.706s0.772,13.372,2.231,19.706l-14.197,8.197l25.516,44.195l14.219-8.21
					c9.601,8.964,21.222,15.79,34.109,19.718v16.394h51.032v-16.394c12.887-3.928,24.508-10.754,34.109-19.718l14.22,8.21
					l13.044-22.593C133.069,415.059,84.747,361.245,80.663,295.441z"/>
			</g>
			<g>
				<g>
					<path style="fill:#FFFFFF;" d="M138.685,402.172c5.421-6.569,8.677-14.99,8.677-24.172c0-20.987-17.013-38-38-38
						c-6.101,0-11.867,1.438-16.976,3.993v54.162L138.685,402.172z"/>
				</g>
			</g>
			<g>
				<path style="fill:#D2DCFD;" d="M138.753,402.085c-20.115-14.882-36.211-34.883-46.363-58.083
					c-12.465,6.235-21.028,19.113-21.028,33.998c0,20.987,17.013,38,38,38C121.207,416.001,131.784,410.58,138.753,402.085z"/>
			</g>
		</g>
		<g>
			<g>
				<circle style="fill:#FD7DA0;" cx="408.002" cy="171.08" r="92"/>
			</g>
			<g>
				<path style="fill:#DB4B86;" d="M474.814,226.677c-53.758,0-97.338-43.58-97.338-97.338c0-17.693,4.722-34.282,12.972-48.579
					c-42.413,8.195-74.446,45.514-74.446,90.32c0,50.81,41.19,92,92,92c30.023,0,56.685-14.384,73.477-36.634
					C479.276,226.595,477.054,226.677,474.814,226.677z"/>
			</g>
		</g>
	</g>
	<g>
		<g>
			<path style="fill:#FFFFFF;" d="M433.862,181.079h-25.86c-5.522,0-10-4.477-10-10v-44.211c0-5.523,4.478-10,10-10s10,4.477,10,10
				v34.211h15.86c5.522,0,10,4.477,10,10S439.384,181.079,433.862,181.079z"/>
		</g>
		<g>
			<path style="fill:#052A75;" d="M510.002,171.079c0-52.869-40.433-96.468-92-101.509V32.001c0-5.523-4.478-10-10-10h-306
				c-5.523,0-10,4.477-10,10v236h-8.156c-5.523,0-10,4.477-10,10v9.297c-9.063,3.562-17.619,8.509-25.257,14.604l-8.071-4.66
				c-4.784-2.763-10.899-1.124-13.66,3.66L1.342,345.099c-2.762,4.783-1.123,10.899,3.66,13.66l8.055,4.65
				c-0.723,4.815-1.088,9.699-1.088,14.592s0.365,9.776,1.088,14.592l-8.055,4.65c-4.783,2.761-6.422,8.877-3.66,13.66
				l25.516,44.195c2.76,4.782,8.877,6.421,13.66,3.66l8.071-4.66c7.638,6.095,16.193,11.042,25.257,14.604v9.297
				c0,5.523,4.477,10,10,10h51.033c5.523,0,10-4.477,10-10v-9.297c9.063-3.562,17.619-8.509,25.257-14.604l8.071,4.66
				c4.782,2.761,10.898,1.123,13.66-3.66l17.927-31.051h198.207c5.522,0,10-4.477,10-10V272.589
				C469.569,267.547,510.002,223.949,510.002,171.079z M184.781,360.541c1.311,5.688,1.976,11.562,1.976,17.46
				s-0.665,11.771-1.976,17.46c-0.987,4.283,0.938,8.708,4.745,10.906l5.537,3.197l-15.516,26.875l-5.56-3.209
				c-3.81-2.2-8.609-1.652-11.824,1.351c-8.59,8.02-19.033,14.058-30.2,17.462c-4.208,1.283-7.084,5.166-7.084,9.565v6.394H93.846
				v-6.394c0-4.4-2.875-8.283-7.084-9.565c-11.168-3.404-21.611-9.442-30.2-17.462c-3.214-3.001-8.014-3.549-11.824-1.351
				l-5.56,3.209l-15.516-26.875l5.537-3.197c3.806-2.198,5.731-6.623,4.745-10.906c-1.311-5.688-1.976-11.562-1.976-17.46
				s0.665-11.771,1.976-17.46c0.987-4.283-0.938-8.708-4.745-10.906l-5.537-3.197l15.516-26.875l5.56,3.209
				c3.808,2.2,8.609,1.651,11.824-1.351c8.589-8.02,19.032-14.058,30.2-17.462c4.208-1.283,7.084-5.166,7.084-9.565v-6.394h31.033
				v6.394c0,4.4,2.875,8.283,7.084,9.565c11.167,3.404,21.61,9.442,30.2,17.462c3.215,3.002,8.015,3.55,11.824,1.351l5.56-3.209
				l15.516,26.875l-5.537,3.197C185.719,351.833,183.795,356.258,184.781,360.541z M218.541,404.047
				c-0.523-2.761-2.194-5.289-4.819-6.804l-8.054-4.65c0.723-4.815,1.088-9.699,1.088-14.592s-0.365-9.777-1.088-14.592l8.054-4.65
				c4.783-2.761,6.422-8.877,3.66-13.66l-25.516-44.195c-2.761-4.783-8.878-6.422-13.66-3.66l-8.071,4.66
				c-7.638-6.095-16.193-11.042-25.257-14.604v-9.297c0-5.523-4.477-10-10-10h-22.877v-226h286V69.57
				c-51.567,5.041-92,48.64-92,101.509s40.433,96.468,92,101.509v131.458H218.541z M408.002,253.079c-45.215,0-82-36.785-82-82
				s36.785-82,82-82s82,36.785,82,82S453.217,253.079,408.002,253.079z"/>
			<g>
				<path style="fill:#FD7DA0;" d="M256.568,70.001h-26.921c-5.523,0-10,4.477-10,10s4.477,10,10,10h2.779l-17.998,17.998
					l-13.893-13.894c-3.905-3.905-10.237-3.905-14.143,0l-38.462,38.462c-3.905,3.905-3.905,10.237,0,14.143
					c1.953,1.953,4.512,2.929,7.071,2.929s5.119-0.976,7.071-2.929l31.391-31.391l13.893,13.894c3.905,3.905,10.237,3.905,14.143,0
					l25.069-25.069v2.779c0,5.523,4.477,10,10,10c5.522,0,10-4.477,10-10V80.001C266.568,74.478,262.091,70.001,256.568,70.001z"/>
				<g>
					<path style="fill:#6864F7;" d="M302.502,320.047h52.5c5.522,0,10-4.477,10-10s-4.478-10-10-10h-52.5c-5.522,0-10,4.477-10,10
						S296.979,320.047,302.502,320.047z"/>
					<path style="fill:#6864F7;" d="M355.002,348.047h-97.434c-5.523,0-10,4.477-10,10s4.477,10,10,10h97.434
						c5.522,0,10-4.477,10-10S360.524,348.047,355.002,348.047z"/>
					<path style="fill:#6864F7;" d="M155.002,197.836h102.566c5.522,0,10-4.477,10-10s-4.478-10-10-10H155.002
						c-5.523,0-10,4.477-10,10S149.479,197.836,155.002,197.836z"/>
					<path style="fill:#6864F7;" d="M205.785,225.836h-50.783c-5.523,0-10,4.477-10,10s4.477,10,10,10h50.783
						c5.523,0,10-4.477,10-10S211.308,225.836,205.785,225.836z"/>
				</g>
			</g>
		</g>
	</g>
</g>
<g>
</g>
<g>
</g>
<g>
</g>
<g>
</g>
<g>
</g>
<g>
</g>
<g>
</g>
<g>
</g>
<g>
</g>
<g>
</g>
<g>
</g>
<g>
</g>
<g>
</g>
<g>
</g>
<g>
</g>
</svg>
