<?xml version="1.0" encoding="iso-8859-1"?>
<!-- Generator: Adobe Illustrator 29.5.0, SVG Export Plug-In . SVG Version: 9.03 Build 0)  -->
<svg xmlns="http://www.w3.org/2000/svg" xmlns:xlink="http://www.w3.org/1999/xlink" version="1.1" id="Capa_1" x="0px" y="0px" viewBox="0 0 512 512" style="enable-background:new 0 0 512 512;" xml:space="preserve">
<g>
	<g>
		<g>
			<g>
				<g>
					<g>
						<path style="fill:#FFFFFF;" d="M294.482,309.138h-77.021c0,21.815-17.656,39.505-39.461,39.575        c-0.001,0-0.002,0.001-0.002,0.002v31.493c0,39.22,20.346,75.633,53.751,96.199l16.338,10.058        c4.862,2.993,10.994,2.992,15.855-0.001l16.325-10.054c33.395-20.568,53.734-56.976,53.734-96.188v-31.507        C312.169,348.676,294.482,330.973,294.482,309.138z"/>
					</g>
				</g>
			</g>
			<g>
				<circle style="fill:#B1D952;" cx="73.922" cy="350.079" r="63.922"/>
			</g>
			<g>
				<circle style="fill:#B1D952;" cx="438.078" cy="350.079" r="63.922"/>
			</g>
		</g>
		<g>
			<g>
				<g>
					<g>
						<path style="fill:#BC9AF4;" d="M152.314,140.863c-22.402,22.402-22.402,58.724,0,81.126l0,0        c22.402,22.402,58.724,22.402,81.126,0l48.087-48.087l-81.126-81.126L152.314,140.863z"/>
					</g>
					<g>
						<path style="fill:#6864F7;" d="M228.327,120.701c-10.496,15.944-16.614,35.014-16.614,55.488        c0,18.994,5.264,36.779,14.404,51.981c2.565-1.829,5.021-3.88,7.322-6.182l48.087-48.087L228.327,120.701z"/>
					</g>
					<g>
						<path style="fill:#FDCB50;" d="M334.231,40.071L334.231,40.071c-22.402-22.402-58.724-22.402-81.126,0l-52.704,52.704        l81.126,81.126l52.704-52.704C356.633,98.794,356.633,62.473,334.231,40.071z"/>
					</g>
					<g>
						<path style="fill:#FD8F01;" d="M228.327,120.701l53.2,53.2l52.704-52.704c10.74-10.74,16.317-24.681,16.759-38.752        c-11.763-4.796-24.62-7.447-38.086-7.447C277.581,74.998,246.434,93.194,228.327,120.701z"/>
					</g>
					<g>
						<path style="fill:#FFFFFF;" d="M212.927,61.531l99.157,99.157c3.467,3.467,3.021,9.533-0.995,13.548l-23.918,23.918        c-4.016,4.016-10.082,4.461-13.548,0.995l-99.157-99.157c-3.467-3.467-3.021-9.533,0.995-13.548l23.918-23.918        C203.394,58.509,209.46,58.064,212.927,61.531z"/>
					</g>
					<g>
						<path style="fill:#D2DCFD;" d="M312.084,160.688l-62.98-62.98c-14.391,11.721-25.507,27.312-31.751,45.172l56.27,56.27        c3.467,3.467,9.533,3.021,13.549-0.995l23.918-23.918C315.105,170.22,315.551,164.154,312.084,160.688z"/>
					</g>
				</g>
				<g>
					<circle style="fill:#D2DCFD;" cx="312.904" cy="176.189" r="61.191"/>
				</g>
			</g>
		</g>
	</g>
	<g>
		<g>
			<g>
				<path style="fill:#93B2F4;" d="M73.922,294.149c-5.523,0-10-4.477-10-10V221.45c0-18.644,15.168-33.812,33.812-33.812h37.86      c5.523,0,10,4.477,10,10s-4.477,10-10,10h-37.86c-7.616,0-13.812,6.196-13.812,13.812v62.699      C83.922,289.672,79.445,294.149,73.922,294.149z"/>
			</g>
			<g>
				<path style="fill:#93B2F4;" d="M438.078,294.149c-5.523,0-10-4.477-10-10V221.45c0-7.616-6.196-13.812-13.812-13.812h-40.171      c-5.523,0-10-4.477-10-10s4.477-10,10-10h40.171c18.644,0,33.812,15.168,33.812,33.812v62.699      C448.078,289.672,443.601,294.149,438.078,294.149z"/>
			</g>
			<g>
				<path style="fill:#93B2F4;" d="M256,317.13c-5.523,0-10-4.477-10-10V205.489c0-5.523,4.477-10,10-10s10,4.477,10,10V307.13      C266,312.653,261.523,317.13,256,317.13z"/>
			</g>
			<g>
				<g>
					<g>
						<path style="fill:#052A75;" d="M256.014,498.731c-4.554,0-9.107-1.25-13.169-3.75l-16.338-10.059        c-17.84-10.983-32.671-26.455-42.889-44.742c-10.218-18.287-15.619-39.025-15.619-59.972v-31.493        c0-5.523,4.479-10.001,10.001-10.001c16.23-0.052,29.461-13.319,29.461-29.575c0-5.523,4.477-10,10-10h77.021        c5.523,0,10,4.477,10,10c0,16.28,13.25,29.548,29.537,29.576c5.516,0.01,9.982,4.484,9.982,10v31.506        c0,20.943-5.399,41.678-15.614,59.963c-10.214,18.285-25.041,33.755-42.876,44.74l-16.325,10.054        C265.125,497.48,260.569,498.731,256.014,498.731z M187.999,357.671v22.536c0,35.48,18.773,69.078,48.994,87.683        l16.338,10.059c1.655,1.02,3.712,1.019,5.369,0l16.325-10.054c30.211-18.606,48.978-52.201,48.978-87.674v-22.535        c-19.295-4-34.53-19.253-38.504-38.548h-59.052C222.473,338.403,207.261,353.651,187.999,357.671z"/>
					</g>
				</g>
			</g>
			<g>
				<path style="fill:#052A75;" d="M73.922,424.001C33.161,424.001,0,390.84,0,350.079c0-40.76,33.161-73.921,73.922-73.921      c40.76,0,73.921,33.161,73.921,73.921C147.843,390.84,114.682,424.001,73.922,424.001z M73.922,296.157      C44.189,296.157,20,320.346,20,350.079s24.189,53.922,53.922,53.922s53.921-24.189,53.921-53.922      S103.654,296.157,73.922,296.157z"/>
			</g>
			<g>
				<path style="fill:#052A75;" d="M438.078,424.001c-40.76,0-73.921-33.161-73.921-73.922c0-40.76,33.161-73.921,73.921-73.921      c40.761,0,73.922,33.161,73.922,73.921C512,390.84,478.839,424.001,438.078,424.001z M438.078,296.157      c-29.732,0-53.921,24.189-53.921,53.921s24.189,53.922,53.921,53.922S492,379.811,492,350.079S467.811,296.157,438.078,296.157z      "/>
			</g>
		</g>
		<g>
			<g>
				<g>
					<path style="fill:#93B2F4;" d="M312.904,245.372c-5.523,0-10-4.477-10-10V117.006c0-5.523,4.477-10,10-10s10,4.477,10,10       v118.366C322.904,240.895,318.427,245.372,312.904,245.372z"/>
				</g>
				<path style="fill:#052A75;" d="M350.952,116.064c16.128-26.08,12.686-60.728-9.65-83.064      c-12.724-12.723-29.641-19.73-47.634-19.73s-34.91,7.007-47.633,19.73l-23.748,23.748l-2.288-2.288      c-7.361-7.36-19.783-6.914-27.691,0.995l-23.918,23.918c-7.908,7.908-8.354,20.33-0.995,27.691l2.288,2.288l-24.44,24.44      c-12.723,12.724-19.73,29.641-19.73,47.634s7.007,34.911,19.73,47.634c12.724,12.723,29.641,19.73,47.634,19.73      s34.911-7.007,47.634-19.73l13.267-13.267c12.792,19.035,34.519,31.587,59.126,31.587c39.255,0,71.191-31.936,71.191-71.191      C384.095,150.921,370.851,128.702,350.952,116.064z M260.177,47.142c8.946-8.946,20.84-13.873,33.491-13.873      s24.546,4.927,33.492,13.873c16.349,16.349,18.311,42.076,5.334,60.618c-6.228-1.786-12.795-2.763-19.59-2.763      c-12.229,0-23.747,3.102-33.811,8.556L236.429,70.89L260.177,47.142z M182.531,93.515l23.918-23.918      c0.075-0.075,0.147-0.137,0.214-0.187l56.2,56.2c-8.425,8.336-14.774,18.757-18.224,30.414l-62.295-62.294      C182.395,93.662,182.456,93.59,182.531,93.515z M226.368,214.917c-8.946,8.946-20.84,13.873-33.492,13.873      s-24.546-4.927-33.492-13.873c-8.946-8.946-13.873-20.84-13.873-33.492s4.927-24.546,13.873-33.492l24.44-24.44l58.115,58.115      c0.391,5.162,1.326,10.173,2.764,14.972L226.368,214.917z M312.904,227.38c-28.227,0-51.191-22.964-51.191-51.191      c0-28.227,22.964-51.191,51.191-51.191c28.227,0,51.191,22.964,51.191,51.191C364.095,204.416,341.131,227.38,312.904,227.38z"/>
			</g>
			<g>
				<g>
					<path style="fill:#B1D952;" d="M251.015,427.089c-2.716,0-5.32-1.105-7.209-3.07L225.5,404.976       c-3.827-3.981-3.702-10.312,0.279-14.14c3.982-3.828,10.312-3.702,14.14,0.279l10.592,11.019l24.499-29.191       c3.549-4.23,9.856-4.782,14.088-1.231c4.23,3.55,4.782,9.858,1.231,14.088l-31.654,37.717c-1.824,2.174-4.486,3.47-7.323,3.565       C251.24,427.087,251.127,427.089,251.015,427.089z"/>
				</g>
				<g>
					<path style="fill:#FFFFFF;" d="M69.605,377.111c-2.716,0-5.32-1.105-7.209-3.07l-14.764-15.359       c-3.827-3.981-3.702-10.312,0.279-14.14c3.982-3.828,10.312-3.702,14.14,0.279l7.05,7.334l18.375-21.894       c3.549-4.23,9.857-4.782,14.088-1.231c4.23,3.55,4.782,9.858,1.231,14.088l-25.53,30.42c-1.824,2.174-4.486,3.47-7.323,3.565       C69.83,377.109,69.717,377.111,69.605,377.111z"/>
				</g>
				<g>
					<path style="fill:#FFFFFF;" d="M433.762,377.111c-2.715,0-5.32-1.105-7.209-3.07l-14.764-15.359       c-3.827-3.981-3.702-10.312,0.279-14.14c3.982-3.828,10.312-3.702,14.14,0.279l7.05,7.334l18.374-21.894       c3.55-4.231,9.856-4.782,14.089-1.232c4.23,3.55,4.782,9.858,1.231,14.088l-25.529,30.42c-1.825,2.174-4.487,3.47-7.323,3.566       C433.987,377.109,433.874,377.111,433.762,377.111z"/>
				</g>
			</g>
		</g>
	</g>
</g>
<g>
</g>
<g>
</g>
<g>
</g>
<g>
</g>
<g>
</g>
<g>
</g>
<g>
</g>
<g>
</g>
<g>
</g>
<g>
</g>
<g>
</g>
<g>
</g>
<g>
</g>
<g>
</g>
<g>
</g>
</svg>
