<?xml version="1.0" encoding="iso-8859-1"?>
<!-- Generator: Adobe Illustrator 27.5.0, SVG Export Plug-In . SVG Version: 6.00 Build 0)  -->
<svg version="1.1" id="Layer_1" xmlns="http://www.w3.org/2000/svg" xmlns:xlink="http://www.w3.org/1999/xlink" x="0px" y="0px"
	 viewBox="0 0 510 510" style="enable-background:new 0 0 510 510;" xml:space="preserve">
<g>
	<g>
		<polygon style="fill:#D2DCFD;" points="165.735,98.082 87.867,120.082 87.867,233.278 165.735,233.278 		"/>
		<polygon style="fill:#67CCD1;" points="341.735,120.082 500,184.082 500,478 341.735,478 		"/>
		<polygon style="fill:#27A2CC;" points="385.735,140.713 385.735,478 436.754,478 436.754,161.344 		"/>
		<polygon style="fill:#FFFFFF;" points="456,434 436.754,434 407.747,412 436.754,390 456,390 		"/>
		<polygon style="fill:#FFFFFF;" points="456,346 436.754,346 417.508,324 436.754,302 456,302 		"/>
		<polygon style="fill:#FFFFFF;" points="456,258 436.754,258 420.867,236 436.754,214 456,214 		"/>
		<rect x="385.735" y="390" style="fill:#D2DCFD;" width="51.019" height="44"/>
		<rect x="385.735" y="302" style="fill:#D2DCFD;" width="51.019" height="44"/>
		<rect x="385.735" y="214" style="fill:#D2DCFD;" width="51.019" height="44"/>
		<rect x="165.735" y="32" style="fill:#FD7DA0;" width="220" height="446"/>
		<path style="fill:#DB4B86;" d="M257.395,139.701c0-38.657,8.992-75.209,24.978-107.701H165.735v446h220V354.775
			C309.315,313.484,257.395,232.658,257.395,139.701z"/>
		<rect x="209.735" y="98.082" style="fill:#FDCB50;" width="44" height="44"/>
		<rect x="297.735" y="98.082" style="fill:#FDCB50;" width="44" height="44"/>
		<rect x="209.735" y="186.082" style="fill:#D2DCFD;" width="44" height="44"/>
		<rect x="297.735" y="186.082" style="fill:#D2DCFD;" width="44" height="44"/>
		<rect x="209.735" y="274.082" style="fill:#D2DCFD;" width="44" height="44"/>
		<rect x="297.735" y="274.082" style="fill:#FDCB50;" width="44" height="44"/>
		<rect x="209.735" y="362.082" style="fill:#FFFFFF;" width="132" height="115.918"/>
		<rect x="10" y="233.278" style="fill:#B1D952;" width="155.735" height="244.722"/>
		<rect x="114.716" y="233.278" style="fill:#91B706;" width="51.019" height="244.722"/>
	</g>
	<g>
		<g>
			<path style="fill:#93B2F4;" d="M275.734,488c-5.522,0-10-4.477-10-10V363.812c0-5.523,4.478-10,10-10s10,4.477,10,10V478
				C285.734,483.523,281.257,488,275.734,488z"/>
		</g>
		<g>
			<g>
				<path style="fill:#FFFFFF;" d="M121.734,299.639H54c-5.522,0-10-4.477-10-10s4.478-10,10-10h67.734c5.522,0,10,4.477,10,10
					S127.257,299.639,121.734,299.639z"/>
			</g>
			<g>
				<path style="fill:#FFFFFF;" d="M121.734,343.639H54c-5.522,0-10-4.477-10-10s4.478-10,10-10h67.734c5.522,0,10,4.477,10,10
					S127.257,343.639,121.734,343.639z"/>
			</g>
			<g>
				<path style="fill:#FFFFFF;" d="M121.734,387.639H54c-5.522,0-10-4.477-10-10s4.478-10,10-10h67.734c5.522,0,10,4.477,10,10
					S127.257,387.639,121.734,387.639z"/>
			</g>
			<g>
				<path style="fill:#FFFFFF;" d="M121.734,431.639H54c-5.522,0-10-4.477-10-10s4.478-10,10-10h67.734c5.522,0,10,4.477,10,10
					S127.257,431.639,121.734,431.639z"/>
			</g>
		</g>
		<path style="fill:#052A75;" d="M503.749,174.811l-108.015-43.679V32c0-5.523-4.478-10-10-10h-220c-5.522,0-10,4.477-10,10v58.516
			l-70.586,19.943c-4.308,1.217-7.281,5.147-7.281,9.623v103.196H10c-5.522,0-10,4.477-10,10V478c0,5.523,4.478,10,10,10h490
			c5.522,0,10-4.477,10-10V184.082C510,180.006,507.527,176.339,503.749,174.811z M97.867,127.647l57.867-16.349v111.98H97.867
			V127.647z M20,243.278h135.734V468H20V243.278z M175.734,42h200v426h-24V362.082c0-5.523-4.478-10-10-10h-132
			c-5.522,0-10,4.477-10,10V468h-24V42z M331.734,468h-112v-95.918h112V468z M490,468h-94.266V152.705L490,190.824V468z"/>
	</g>
</g>
<g>
</g>
<g>
</g>
<g>
</g>
<g>
</g>
<g>
</g>
<g>
</g>
<g>
</g>
<g>
</g>
<g>
</g>
<g>
</g>
<g>
</g>
<g>
</g>
<g>
</g>
<g>
</g>
<g>
</g>
</svg>
