<?xml version="1.0" encoding="iso-8859-1"?>
<!-- Generator: Adobe Illustrator 29.8.2, SVG Export Plug-In . SVG Version: 9.03 Build 0)  -->
<svg version="1.1" id="Layer_1" xmlns="http://www.w3.org/2000/svg" xmlns:xlink="http://www.w3.org/1999/xlink" x="0px" y="0px"
	 viewBox="0 0 512 512" style="enable-background:new 0 0 512 512;" xml:space="preserve">
<g>
	<g>
		<rect x="10" y="130.489" style="fill-rule:evenodd;clip-rule:evenodd;fill:#67CCD1;" width="492" height="326.327"/>
		<path style="fill-rule:evenodd;clip-rule:evenodd;fill:#27A2CC;" d="M256.109,130.489H502v40.25
			c-15.228,52.166-63.405,90.281-120.49,90.281c-69.317,0-125.51-56.193-125.51-125.51C256,133.828,256.043,132.156,256.109,130.489
			z"/>
		<path style="fill-rule:evenodd;clip-rule:evenodd;fill:#FFFFFF;" d="M381.51,215.837c44.242,0,80.326-36.084,80.326-80.327
			s-36.084-80.326-80.326-80.326s-80.326,36.084-80.326,80.326S337.268,215.837,381.51,215.837z"/>
		<rect x="10" y="406.611" style="fill-rule:evenodd;clip-rule:evenodd;fill:#FDCB50;" width="492" height="50.204"/>
	</g>
	<g>
		<path style="fill:#052A75;" d="M502,120.489h-31.412c-7.174-42.682-44.387-75.306-89.077-75.306
			c-44.69,0-81.904,32.623-89.078,75.306H10c-5.523,0-10,4.477-10,10v326.327c0,5.523,4.477,10,10,10h492c5.522,0,10-4.477,10-10
			V130.489C512,124.966,507.522,120.489,502,120.489z M381.51,65.184c38.778,0,70.326,31.548,70.326,70.327
			c0,38.778-31.548,70.326-70.326,70.326s-70.327-31.548-70.327-70.326C311.183,96.732,342.732,65.184,381.51,65.184z M492,446.816
			H20V140.489h271.319c2.593,47.5,42.055,85.347,90.191,85.347c48.135,0,87.597-37.848,90.19-85.347H492V446.816z"/>
		<g>
			<g>
				<path style="fill:#FFFFFF;" d="M273.186,368.917h-34.373c-5.523,0-10-4.477-10-10s4.477-10,10-10h34.373c5.522,0,10,4.477,10,10
					S278.708,368.917,273.186,368.917z"/>
			</g>
			<g>
				<path style="fill:#FFFFFF;" d="M190.027,368.917h-34.373c-5.523,0-10-4.477-10-10s4.477-10,10-10h34.373c5.523,0,10,4.477,10,10
					S195.55,368.917,190.027,368.917z"/>
			</g>
			<g>
				<path style="fill:#FFFFFF;" d="M106.868,368.917H72.495c-5.523,0-10-4.477-10-10s4.477-10,10-10h34.373c5.523,0,10,4.477,10,10
					S112.391,368.917,106.868,368.917z"/>
			</g>
			<g>
				<path style="fill:#FFFFFF;" d="M273.186,323.734h-34.373c-5.523,0-10-4.477-10-10s4.477-10,10-10h34.373c5.522,0,10,4.477,10,10
					S278.708,323.734,273.186,323.734z"/>
			</g>
			<g>
				<path style="fill:#FFFFFF;" d="M106.868,323.734H72.495c-5.523,0-10-4.477-10-10s4.477-10,10-10h34.373c5.523,0,10,4.477,10,10
					S112.391,323.734,106.868,323.734z"/>
			</g>
			<g>
				<path style="fill:#FFFFFF;" d="M439.504,368.917h-34.372c-5.522,0-10-4.477-10-10s4.478-10,10-10h34.372c5.522,0,10,4.477,10,10
					S445.027,368.917,439.504,368.917z"/>
			</g>
			<g>
				<path style="fill:#FFFFFF;" d="M356.345,368.917h-34.372c-5.522,0-10-4.477-10-10s4.478-10,10-10h34.372c5.522,0,10,4.477,10,10
					S361.868,368.917,356.345,368.917z"/>
			</g>
			<g>
				<path style="fill:#FFFFFF;" d="M439.504,323.734h-34.372c-5.522,0-10-4.477-10-10s4.478-10,10-10h34.372c5.522,0,10,4.477,10,10
					S445.027,323.734,439.504,323.734z"/>
			</g>
			<g>
				<path style="fill:#FFFFFF;" d="M190.027,323.734h-34.373c-5.523,0-10-4.477-10-10s4.477-10,10-10h34.373c5.523,0,10,4.477,10,10
					S195.55,323.734,190.027,323.734z"/>
			</g>
			<g>
				<path style="fill:#FFFFFF;" d="M273.186,278.55h-34.373c-5.523,0-10-4.477-10-10s4.477-10,10-10h34.373c5.522,0,10,4.477,10,10
					S278.708,278.55,273.186,278.55z"/>
			</g>
			<g>
				<path style="fill:#FFFFFF;" d="M106.868,278.55H72.495c-5.523,0-10-4.477-10-10s4.477-10,10-10h34.373c5.523,0,10,4.477,10,10
					S112.391,278.55,106.868,278.55z"/>
			</g>
			<g>
				<path style="fill:#FFFFFF;" d="M356.345,323.734h-34.372c-5.522,0-10-4.477-10-10s4.478-10,10-10h34.372c5.522,0,10,4.477,10,10
					S361.868,323.734,356.345,323.734z"/>
			</g>
			<g>
				<path style="fill:#FFFFFF;" d="M439.504,278.55h-34.372c-5.522,0-10-4.477-10-10s4.478-10,10-10h34.372c5.522,0,10,4.477,10,10
					S445.027,278.55,439.504,278.55z"/>
			</g>
			<g>
				<path style="fill:#FFFFFF;" d="M190.027,278.55h-34.373c-5.523,0-10-4.477-10-10s4.477-10,10-10h34.373c5.523,0,10,4.477,10,10
					S195.55,278.55,190.027,278.55z"/>
			</g>
			<g>
				<path style="fill:#FFFFFF;" d="M273.186,233.367h-34.373c-5.523,0-10-4.477-10-10s4.477-10,10-10h34.373c5.522,0,10,4.477,10,10
					S278.708,233.367,273.186,233.367z"/>
			</g>
			<g>
				<path style="fill:#FFFFFF;" d="M106.868,233.367H72.495c-5.523,0-10-4.477-10-10s4.477-10,10-10h34.373c5.523,0,10,4.477,10,10
					S112.391,233.367,106.868,233.367z"/>
			</g>
			<g>
				<path style="fill:#FFFFFF;" d="M106.868,188.184H72.495c-5.523,0-10-4.477-10-10s4.477-10,10-10h34.373c5.523,0,10,4.477,10,10
					S112.391,188.184,106.868,188.184z"/>
			</g>
		</g>
		<g>
			<path style="fill:#6864F7;" d="M375.551,180.655c-1.696,0-3.415-0.432-4.99-1.341c-4.783-2.761-6.422-8.877-3.66-13.66
				l11.853-20.529l-12.251-3.283c-3.003-0.805-5.461-2.96-6.651-5.833c-1.189-2.872-0.976-6.134,0.579-8.827l18.368-31.815
				c2.761-4.783,8.875-6.422,13.66-3.66c4.783,2.761,6.422,8.877,3.66,13.66l-11.852,20.529l12.251,3.283
				c3.003,0.805,5.461,2.96,6.651,5.833c1.189,2.872,0.976,6.134-0.579,8.827l-18.369,31.815
				C382.369,178.861,379.007,180.655,375.551,180.655z"/>
		</g>
	</g>
</g>
<g>
</g>
<g>
</g>
<g>
</g>
<g>
</g>
<g>
</g>
<g>
</g>
<g>
</g>
<g>
</g>
<g>
</g>
<g>
</g>
<g>
</g>
<g>
</g>
<g>
</g>
<g>
</g>
<g>
</g>
</svg>
