<?xml version="1.0" encoding="iso-8859-1"?>
<!-- Generator: Adobe Illustrator 29.2.1, SVG Export Plug-In . SVG Version: 9.03 Build 55982)  -->
<svg version="1.1" id="Capa_1" xmlns="http://www.w3.org/2000/svg" xmlns:xlink="http://www.w3.org/1999/xlink" x="0px" y="0px"
	 viewBox="0 0 512 512" style="enable-background:new 0 0 512 512;" xml:space="preserve">
<g>
	<g>
		<path style="fill:#93B2F4;" d="M251.848,250.592H92.75v-34.22c0-11.046,8.954-20,20-20h119.098c11.046,0,20,8.954,20,20V250.592z"
			/>
		<path style="fill:#D2DCFD;" d="M479.91,424.069v-12.824c0-88.726-71.927-160.653-160.653-160.653H10v90.367h76.626
			c16.621,29.842,48.483,50.033,85.066,50.033s68.445-20.191,85.066-50.033h62.499c38.818,0,70.286,31.468,70.286,70.286v12.824
			H479.91z"/>
		<path style="fill:#93B2F4;" d="M169.83,275.168c0-8.368,0.685-16.574,1.982-24.576H10v90.367h76.626
			c16.621,29.843,48.483,50.033,85.066,50.033c14.865,0,28.951-3.334,41.552-9.295C186.388,354.216,169.83,316.628,169.83,275.168z"
			/>
		<path style="fill:#93B2F4;" d="M480,468.249h-90.547c-12.15,0-22-9.85-22-22v-0.18c0-12.15,9.85-22,22-22H480
			c12.15,0,22,9.85,22,22v0.18C502,458.399,492.15,468.249,480,468.249z"/>
		<path style="fill:#D2DCFD;" d="M150.209,196.371V65.841c0-12.2,9.89-22.09,22.09-22.09h0c12.2,0,22.09,9.89,22.09,22.09v130.531
			H150.209z"/>
		<path style="fill:#FD6050;" d="M294.626,79.898c-7.906,0-15.097,3.05-20.471,8.033H70.443c-5.374-4.983-12.565-8.033-20.471-8.033
			c-16.636,0-30.122,13.486-30.122,30.122s13.486,30.122,30.122,30.122c7.906,0,15.097-3.05,20.471-8.033h203.712
			c5.374,4.983,12.565,8.033,20.471,8.033c16.636,0,30.122-13.486,30.122-30.122S311.262,79.898,294.626,79.898z"/>
	</g>
	<path style="fill:#052A75;" d="M489.91,415.648v-4.403c0-94.099-76.555-170.653-170.653-170.653h-57.41v-24.22
		c0-16.542-13.458-30-30-30h-27.459V142.11h66.157c6.922,5.206,15.331,8.033,24.08,8.033c22.124,0,40.123-17.999,40.123-40.123
		s-17.999-40.123-40.123-40.123c-8.75,0-17.158,2.827-24.08,8.033h-66.157v-12.09c0-17.694-14.396-32.09-32.09-32.09
		s-32.09,14.396-32.09,32.09v12.09H74.051c-6.922-5.206-15.33-8.033-24.08-8.033c-22.124,0-40.122,17.999-40.122,40.123
		s17.999,40.123,40.122,40.123c8.75,0,17.158-2.827,24.08-8.033h66.158v44.261H112.75c-16.542,0-30,13.458-30,30v24.22H10
		c-5.523,0-10,4.477-10,10v90.367c0,5.523,4.477,10,10,10h70.938c19.6,31.006,53.844,50.034,90.754,50.034
		s71.154-19.027,90.754-50.034h56.812c33.242,0,60.286,27.044,60.286,60.286v4.403c-12.808,4.183-22.09,16.235-22.09,30.422v0.18
		c0,17.645,14.355,32,32,32H480c17.645,0,32-14.355,32-32v-0.18C512,431.883,502.718,419.83,489.91,415.648z M160.209,65.841
		c0-6.667,5.423-12.09,12.09-12.09s12.09,5.423,12.09,12.09v12.09h-24.18V65.841z M70.442,122.11c-2.521,0-4.95,0.953-6.799,2.667
		c-3.732,3.46-8.588,5.366-13.672,5.366c-11.095,0-20.122-9.027-20.122-20.123s9.027-20.123,20.122-20.123
		c5.085,0,9.94,1.906,13.672,5.366c1.849,1.714,4.278,2.667,6.799,2.667h203.712c2.521,0,4.95-0.953,6.799-2.667
		c3.731-3.46,8.587-5.366,13.672-5.366c11.096,0,20.123,9.027,20.123,20.123s-9.027,20.123-20.123,20.123
		c-5.084,0-9.94-1.906-13.672-5.366c-1.849-1.714-4.277-2.667-6.799-2.667H70.442z M160.209,142.11h24.18v44.261h-24.18V142.11z
		 M102.75,216.372c0-5.514,4.486-10,10-10h119.098c5.514,0,10,4.486,10,10v24.22H102.75V216.372z M319.257,330.959h-62.499
		c-3.628,0-6.971,1.965-8.736,5.134c-15.425,27.695-44.673,44.899-76.33,44.899s-60.905-17.205-76.33-44.899
		c-1.765-3.169-5.108-5.134-8.736-5.134H20v-70.367h299.257c83.07,0,150.653,67.583,150.653,150.653v2.824h-70.367v-2.824
		C399.543,366.975,363.527,330.959,319.257,330.959z M492,446.249c0,6.617-5.383,12-12,12h-90.547c-6.617,0-12-5.383-12-12v-0.18
		c0-6.617,5.383-12,12-12H480c6.617,0,12,5.383,12,12V446.249z"/>
</g>
<g>
</g>
<g>
</g>
<g>
</g>
<g>
</g>
<g>
</g>
<g>
</g>
<g>
</g>
<g>
</g>
<g>
</g>
<g>
</g>
<g>
</g>
<g>
</g>
<g>
</g>
<g>
</g>
<g>
</g>
</svg>
