<?xml version="1.0" encoding="iso-8859-1"?>
<!-- Generator: Adobe Illustrator 26.5.3, SVG Export Plug-In . SVG Version: 6.00 Build 0)  -->
<svg version="1.1" id="Capa_1" xmlns="http://www.w3.org/2000/svg" xmlns:xlink="http://www.w3.org/1999/xlink" x="0px" y="0px"
	 viewBox="0 0 512 512" style="enable-background:new 0 0 512 512;" xml:space="preserve">
<g>
	<g>
		<g>
			<path style="fill:#B1D952;" d="M236,502H102.583c-11.046,0-20-8.954-20-20V30c0-11.046,8.954-20,20-20H236
				c11.046,0,20,8.954,20,20v452C256,493.046,247.046,502,236,502z"/>
		</g>
		<g>
			<path style="fill:#91B706;" d="M171.431,179.872c0-65.497,25.123-125.12,66.245-169.783c-0.58-0.05-1.165-0.089-1.758-0.089
				H102.664c-11.091,0-20.082,8.991-20.082,20.082v451.837c0,11.091,8.991,20.082,20.082,20.082h133.255
				c11.091,0,20.082-8.991,20.082-20.082V367.625C204.136,321.687,171.431,254.604,171.431,179.872z"/>
		</g>
		<g>
			<path style="fill:#FFFFFF;" d="M193.243,235.844H145.34c-5.523,0-10-4.477-10-10V81.168c0-5.523,4.477-10,10-10h47.903
				c5.523,0,10,4.477,10,10v144.676C203.243,231.367,198.766,235.844,193.243,235.844z"/>
		</g>
		<g>
			<path style="fill:#D2DCFD;" d="M171.431,179.872c0-38.796,8.817-75.529,24.55-108.315c-0.871-0.248-1.788-0.389-2.739-0.389
				H145.34c-5.523,0-10,4.477-10,10v144.676c0,5.523,4.477,10,10,10h32.381C173.615,217.846,171.431,199.115,171.431,179.872z"/>
		</g>
		<g>
			<path style="fill:#BC9AF4;" d="M409.418,502H276c-11.046,0-20-8.954-20-20V30c0-11.046,8.954-20,20-20h133.418
				c11.046,0,20,8.954,20,20v452C429.418,493.046,420.464,502,409.418,502z"/>
		</g>
		<g>
			<path style="fill:#6864F7;" d="M422.176,430.617c-63.751,0-121.932-23.804-166.176-62.992v114.294
				c0,11.091,8.991,20.082,20.082,20.082h133.255c11.091,0,20.082-8.991,20.082-20.082v-51.413
				C427.012,430.574,424.599,430.617,422.176,430.617z"/>
		</g>
		<g>
			<g>
				<circle style="fill:#FFFFFF;" cx="342.709" cy="403.447" r="43.952"/>
			</g>
			<g>
				<path style="fill:#D2DCFD;" d="M299.062,398.344c-0.194,1.675-0.304,3.376-0.304,5.103c0,24.274,19.678,43.952,43.952,43.952
					c15.592,0,29.278-8.126,37.08-20.367C350.894,422.111,323.686,412.25,299.062,398.344z"/>
			</g>
		</g>
		<g>
			
				<ellipse transform="matrix(0.3827 -0.9239 0.9239 0.3827 -268.2301 405.4593)" style="fill:#FFFFFF;" cx="169.291" cy="403.447" rx="43.952" ry="43.952"/>
		</g>
		<g>
			<circle style="fill:#D2DCFD;" cx="169.291" cy="403.447" r="43.952"/>
		</g>
		<g>
			<path style="fill:#FFFFFF;" d="M366.661,235.844h-47.903c-5.523,0-10-4.477-10-10V81.168c0-5.523,4.477-10,10-10h47.903
				c5.523,0,10,4.477,10,10v144.676C376.661,231.367,372.184,235.844,366.661,235.844z"/>
		</g>
	</g>
	<g>
		<g>
			<path style="fill:#FFFFFF;" d="M203.243,297.222H135.34c-5.522,0-10-4.477-10-10s4.478-10,10-10h67.903c5.522,0,10,4.477,10,10
				S208.766,297.222,203.243,297.222z"/>
		</g>
		<g>
			<path style="fill:#052A75;" d="M193.243,61.168H145.34c-11.028,0-20,8.972-20,20v144.676c0,11.028,8.972,20,20,20h47.903
				c11.028,0,20-8.972,20-20V81.168C213.243,70.14,204.271,61.168,193.243,61.168z M193.243,225.844H145.34V81.168h47.903
				l0.013,144.676C193.256,225.844,193.252,225.844,193.243,225.844z"/>
			<path style="fill:#052A75;" d="M409.418,0H276c-7.678,0-14.688,2.902-20,7.664C250.688,2.902,243.678,0,236,0H102.582
				c-16.542,0-30,13.458-30,30v452c0,16.542,13.458,30,30,30H236c7.678,0,14.688-2.902,20-7.664c5.312,4.761,12.322,7.664,20,7.664
				h133.418c16.542,0,30-13.458,30-30V30C439.418,13.458,425.96,0,409.418,0z M236,492H102.582c-5.514,0-10-4.486-10-10V30
				c0-5.514,4.486-10,10-10H236c5.514,0,10,4.486,10,10v452C246,487.514,241.514,492,236,492z M419.418,482c0,5.514-4.486,10-10,10
				H276c-5.514,0-10-4.486-10-10V30c0-5.514,4.486-10,10-10h133.418c5.514,0,10,4.486,10,10V482z"/>
			<path style="fill:#052A75;" d="M366.661,61.168h-47.903c-11.028,0-20,8.972-20,20v144.676c0,11.028,8.972,20,20,20h47.903
				c11.028,0,20-8.972,20-20V81.168C386.661,70.14,377.689,61.168,366.661,61.168z M366.661,225.844h-47.903V81.168h47.903
				l0.013,144.676C366.674,225.844,366.67,225.844,366.661,225.844z"/>
		</g>
		<g>
			<path style="fill:#FFFFFF;" d="M376.661,297.222h-67.903c-5.522,0-10-4.477-10-10s4.478-10,10-10h67.903c5.522,0,10,4.477,10,10
				S382.184,297.222,376.661,297.222z"/>
		</g>
	</g>
</g>
<g>
</g>
<g>
</g>
<g>
</g>
<g>
</g>
<g>
</g>
<g>
</g>
<g>
</g>
<g>
</g>
<g>
</g>
<g>
</g>
<g>
</g>
<g>
</g>
<g>
</g>
<g>
</g>
<g>
</g>
</svg>
