<?xml version="1.0" encoding="iso-8859-1"?>
<!-- Generator: Adobe Illustrator 27.0.0, SVG Export Plug-In . SVG Version: 6.00 Build 0)  -->
<svg version="1.1" id="Capa_1" xmlns="http://www.w3.org/2000/svg" xmlns:xlink="http://www.w3.org/1999/xlink" x="0px" y="0px"
	 viewBox="0 0 512 512" style="enable-background:new 0 0 512 512;" xml:space="preserve">
<g>
	<g>
		<g>
			<path style="fill:#FFFFFF;" d="M358.778,20.04v403.11c0,5.54-4.5,10.04-10.04,10.04H49.018c-5.55,0-10.05-4.5-10.05-10.04V112.83
				c0-1.45,0.31-2.87,0.91-4.16c0.49-1.09,1.17-2.08,2.04-2.94l92.79-92.79c0.86-0.86,1.86-1.55,2.94-2.04
				c1.3-0.59,2.71-0.9,4.16-0.9h206.93C354.278,10,358.778,14.5,358.778,20.04z"/>
			<path style="fill:#D2DCFD;" d="M358.774,166.03c-26.3,0-52.398,6.67-75.477,19.289c-13.751,7.521-22.968,20.724-25.285,36.225
				c-2.318,15.502,2.633,30.824,13.584,42.039l9.367,9.592c-21.66,21.789-38.618,47.219-50.416,75.608
				c-11.2,26.95-17.229,55.317-17.952,84.407h136.142c5.54,0,10.04-4.5,10.04-10.04V166.03
				C358.776,166.03,358.775,166.03,358.774,166.03z"/>
			<rect x="90.665" y="81.059" style="fill:#93B2F4;" width="216.053" height="79.379"/>
			<path style="fill:#D2DCFD;" d="M137.648,10.9v97.77h-97.77c0.49-1.09,1.17-2.08,2.04-2.94l92.79-92.79
				C135.568,12.08,136.568,11.39,137.648,10.9z"/>
		</g>
		<g>
			<path style="fill:#B1D952;" d="M391.547,273.493l31.51-32.267c8.17-8.366,6.099-22.22-4.162-27.831l0,0
				c-37.463-20.486-82.78-20.486-120.243,0l0,0c-10.26,5.611-12.332,19.464-4.162,27.831L326,273.493H391.547z"/>
			<path style="fill:#B1D952;" d="M410.161,502H307.387c-34.72,0-62.867-28.146-62.867-62.867v0
				c0-54.118,21.564-106.006,59.922-144.183L326,273.493h65.547l21.558,21.457c38.358,38.177,59.922,90.065,59.922,144.183v0
				C473.027,473.854,444.881,502,410.161,502z"/>
		</g>
	</g>
	<g>
		<g>
			<g>
				<path style="fill:#B1D952;" d="M106.719,276.444c-2.898,0-5.658-1.258-7.56-3.455l-16.055-18.546
					c-3.615-4.175-3.16-10.491,1.016-14.105c4.175-3.614,10.491-3.16,14.105,1.016l8.14,9.402l21.571-27.323
					c3.421-4.335,9.709-5.075,14.045-1.652c4.335,3.422,5.075,9.71,1.652,14.045l-29.064,36.815
					c-1.847,2.34-4.642,3.734-7.623,3.801C106.871,276.443,106.794,276.444,106.719,276.444z"/>
			</g>
			<g>
				<path style="fill:#93B2F4;" d="M296.714,258.037H181.65c-5.523,0-10-4.477-10-10s4.477-10,10-10h115.064c5.522,0,10,4.477,10,10
					S302.237,258.037,296.714,258.037z"/>
			</g>
			<g>
				<path style="fill:#B1D952;" d="M106.719,362.704c-2.898,0-5.658-1.258-7.56-3.455l-16.055-18.546
					c-3.615-4.175-3.16-10.491,1.016-14.105c4.176-3.614,10.491-3.16,14.105,1.016l8.14,9.402l21.571-27.323
					c3.421-4.335,9.709-5.075,14.045-1.653c4.335,3.422,5.075,9.711,1.653,14.045L114.568,358.9
					c-1.847,2.34-4.642,3.734-7.623,3.801C106.871,362.703,106.794,362.704,106.719,362.704z"/>
			</g>
			<g>
				<path style="fill:#93B2F4;" d="M272.837,344.296H181.65c-5.523,0-10-4.477-10-10s4.477-10,10-10h91.187c5.522,0,10,4.477,10,10
					S278.36,344.296,272.837,344.296z"/>
			</g>
		</g>
		<g>
			<path style="fill:#052A75;" d="M466.685,357.226c-10.844-26.093-26.497-49.43-46.524-69.364l-14.538-14.469l24.589-25.18
				c6.1-6.246,8.857-14.78,7.566-23.415c-1.291-8.634-6.425-15.988-14.084-20.177c-17.284-9.451-35.996-14.869-54.92-16.283V20.041
				C368.774,8.99,359.784,0,348.733,0h-206.93c-5.352,0-10.385,2.084-14.171,5.87L34.843,98.659
				c-3.786,3.785-5.871,8.817-5.871,14.171v310.317c0,11.05,8.99,20.041,20.041,20.041h185.626
				C236.751,481.487,268.57,512,307.387,512h102.773c40.179,0,72.867-32.688,72.867-72.867
				C483.028,410.876,477.53,383.319,466.685,357.226z M417.998,227.756c0.357,2.391-0.406,4.754-2.095,6.483l-28.567,29.254h-57.123
				l-28.567-29.253c-1.688-1.73-2.452-4.093-2.095-6.484c0.357-2.391,1.779-4.427,3.899-5.587
				c34.642-18.944,76.005-18.944,110.648,0C416.218,223.329,417.64,225.365,417.998,227.756z M127.644,34.157v64.515H63.117
				L127.644,34.157z M48.972,423.147l0.012-304.476h88.659c5.523,0,10-4.477,10-10V20.001l201.13,0.04v168.297
				c-18.924,1.414-37.635,6.831-54.92,16.283c-7.659,4.188-12.793,11.542-14.084,20.176c-1.291,8.634,1.467,17.168,7.566,23.415
				l24.589,25.18l-14.538,14.469c-20.027,19.934-35.681,43.271-46.524,69.364c-8.793,21.16-14.07,43.283-15.752,65.961
				L48.972,423.147z M410.161,492H307.387c-29.15,0-52.867-23.716-52.867-52.867c0-25.609,4.983-50.584,14.811-74.232
				c9.828-23.648,24.014-44.798,42.165-62.864l18.632-18.544h57.291l18.632,18.544c18.151,18.065,32.338,39.216,42.165,62.864
				c9.828,23.648,14.812,48.623,14.812,74.232C463.028,468.284,439.312,492,410.161,492z"/>
			<path style="fill:#FFFFFF;" d="M372.917,379.394c-3.714-1.597-7.122-2.943-10.13-4.131c-6.515-2.573-11.66-4.605-14.433-7.064
				c-2.558-2.268-2.818-6.039-2.208-8.811c0.416-1.896,1.954-6.477,7.221-8.062c10.744-3.235,17.738,2.544,18.114,2.866
				c4.13,3.651,10.438,3.27,14.099-0.853c3.668-4.129,3.293-10.45-0.836-14.117c-0.975-0.866-6.9-5.842-16.333-7.953v-3.929
				c0-5.523-4.478-10-10-10s-10,4.477-10,10v4.61c-0.272,0.076-0.54,0.143-0.813,0.226c-10.693,3.222-18.538,11.789-20.985,22.918
				c-2.333,10.611,0.914,21.367,8.473,28.07c5.413,4.8,12.007,7.404,20.354,10.702c3.018,1.192,6.138,2.424,9.575,3.902
				c10.718,4.61,9.766,13.786,9.218,16.488c-1.171,5.786-6.035,12.565-15.888,12.63c-9.576,0.07-12.532-0.409-19.867-5.208
				c-4.623-3.023-10.819-1.727-13.843,2.894c-3.023,4.622-1.728,10.82,2.894,13.843c7.921,5.181,13.772,7.294,20.883,8.07v4.445
				c0,5.523,4.478,10,10,10s10-4.477,10-10v-5.438c12.803-3.586,22.701-13.823,25.424-27.268
				C397.158,401.81,388.751,386.206,372.917,379.394z"/>
		</g>
	</g>
</g>
<g>
</g>
<g>
</g>
<g>
</g>
<g>
</g>
<g>
</g>
<g>
</g>
<g>
</g>
<g>
</g>
<g>
</g>
<g>
</g>
<g>
</g>
<g>
</g>
<g>
</g>
<g>
</g>
<g>
</g>
</svg>
