<?xml version="1.0" encoding="iso-8859-1"?>
<!-- Generator: Adobe Illustrator 27.5.0, SVG Export Plug-In . SVG Version: 6.00 Build 0)  -->
<svg version="1.1" id="Layer_1" xmlns="http://www.w3.org/2000/svg" xmlns:xlink="http://www.w3.org/1999/xlink" x="0px" y="0px"
	 viewBox="0 0 510 510" style="enable-background:new 0 0 510 510;" xml:space="preserve">
<g>
	<g>
		<g>
			<polygon style="fill:#FFFFFF;" points="143.899,10 143.899,456 499.899,456 499.899,91.59 418.298,10 			"/>
		</g>
		<path style="fill:#D2DCFD;" d="M290.959,419.746c0-24.699-6.433-49.115-18.602-70.606l-41.724-73.69l13.76-42.873
			c6.413-19.982,1.116-41.872-13.723-56.711c-23.455-23.455-56.927-30.915-86.772-22.414V456h142.433
			C289.373,444.305,290.959,432.141,290.959,419.746z"/>
		<polygon style="fill:#93B2F4;" points="499.899,91.59 418.298,10 414.074,10 414.074,95.814 499.899,95.814 		"/>
		<g>
			<g>
				<path style="fill:#D46B5C;" d="M169.817,281.695l21.256-66.231l0,0c-12.618-12.618-33.077-12.618-45.695,0l0,0
					c-12.618,12.618-33.077,12.618-45.695,0l0,0c-12.618-12.618-33.077-12.618-45.695,0l21.476,66.231H169.817z"/>
				<path style="fill:#D46B5C;" d="M169.817,281.695l53.81,95.036c7.428,13.119,11.332,27.939,11.332,43.015v0
					c0,26.246-11.808,51.1-32.155,67.679l0,0C192.823,495.559,180.342,500,167.466,500h-44.935H77.595
					c-12.876,0-25.357-4.441-35.339-12.575l-0.034-0.028c-20.325-16.562-32.121-41.389-32.121-67.608v0
					c0-15.103,3.922-29.948,11.383-43.08l53.98-95.015H169.817z"/>
				<path style="fill:#B55348;" d="M10.101,419.79L10.101,419.79c0,26.219,11.796,51.046,32.121,67.608l0.034,0.028
					C52.238,495.559,64.719,500,77.595,500h44.935h44.935c9.947,0,19.653-2.661,28.158-7.617
					c-51.692-17.479-88.916-66.355-88.916-123.948c0-33.279,12.431-63.65,32.895-86.74H75.465l-53.98,95.015
					C14.024,389.842,10.101,404.686,10.101,419.79z"/>
			</g>
		</g>
		<path style="fill:#FDCB50;" d="M302.102,500h-88c-12.15,0-22-9.85-22-22v0c0-12.15,9.85-22,22-22h88c12.15,0,22,9.85,22,22v0
			C324.101,490.15,314.252,500,302.102,500z"/>
		<path style="fill:#FDCB50;" d="M302.102,456h-88c-12.15,0-22-9.85-22-22v0c0-12.15,9.85-22,22-22h88c12.15,0,22,9.85,22,22v0
			C324.101,446.15,314.252,456,302.102,456z"/>
		<path style="fill:#FDCB50;" d="M434.102,500h-88c-12.15,0-22-9.85-22-22v0c0-12.15,9.85-22,22-22h88c12.15,0,22,9.85,22,22v0
			C456.101,490.15,446.252,500,434.102,500z"/>
		<path style="fill:#FDCB50;" d="M434.102,456h-88c-12.15,0-22-9.85-22-22v0c0-12.15,9.85-22,22-22h88c12.15,0,22,9.85,22,22v0
			C456.101,446.15,446.252,456,434.102,456z"/>
		<path style="fill:#FDCB50;" d="M434.102,412h-88c-12.15,0-22-9.85-22-22v0c0-12.15,9.85-22,22-22h88c12.15,0,22,9.85,22,22v0
			C456.101,402.15,446.252,412,434.102,412z"/>
	</g>
	<g>
		<path style="fill:#B1D952;" d="M422.253,247.881c-17.757,0-32.151,14.395-32.151,32.151v16.84h-0.004
			c-0.082-17.687-14.441-32-32.147-32h-26.977v26.976c0,17.757,14.395,32.151,32.151,32.151h16.977v44h20v-60.992h16.976
			c17.757,0,32.151-14.395,32.151-32.151v-26.977H422.253z"/>
		<path style="fill:#052A75;" d="M506.969,84.519l-81.601-81.59C423.493,1.053,420.95,0,418.298,0H143.899c-5.523,0-10,4.477-10,10
			v201.784c-8.558,5.073-19.794,3.959-27.145-3.391C98.762,200.401,88.137,196,76.836,196s-21.927,4.401-29.919,12.393
			c-2.657,2.658-3.601,6.581-2.441,10.156l20.117,62.039L12.79,371.77c-8.301,14.61-12.688,31.215-12.688,48.02
			c0,29.351,13.05,56.819,35.752,75.317c0.017,0.015,0.068,0.057,0.085,0.071C47.67,504.736,62.463,510,77.595,510h89.871
			c9.634,0,19.117-2.115,27.8-6.153c5.289,3.864,11.798,6.153,18.835,6.153h88c8.516,0,16.26-3.351,22-8.795
			c5.74,5.444,13.484,8.795,22,8.795h88c17.645,0,32-14.355,32-32c0-4.243-0.837-8.292-2.343-12h36.14c5.522,0,10-4.477,10-10V91.59
			C509.899,88.938,508.845,86.394,506.969,84.519z M76.836,216c5.959,0,11.562,2.321,15.776,6.535
			c16.497,16.496,43.339,16.497,59.837,0c4.214-4.214,9.816-6.535,15.776-6.535c4.001,0,7.841,1.046,11.208,3.008l-16.909,52.687
			h-79.79l-17.088-52.697C69.009,217.042,72.842,216,76.836,216z M77.595,490c-10.542,0-20.849-3.667-28.97-10.284
			c-0.017-0.014-0.068-0.057-0.085-0.071c-18.073-14.727-28.438-36.543-28.438-59.855c0-13.347,3.485-26.535,10.078-38.14
			l51.105-89.955h82.703l50.938,89.964c3.642,6.433,6.287,13.246,7.955,20.341h-8.779c-17.645,0-32,14.355-32,32
			c0,8.517,3.351,16.26,8.795,22c-5.444,5.74-8.795,13.483-8.795,22c0,3.167,0.469,6.226,1.331,9.118
			c-5.09,1.887-10.49,2.882-15.966,2.882H77.595z M334.102,390c0-6.617,5.383-12,12-12h88c6.617,0,12,5.383,12,12s-5.383,12-12,12
			h-88C339.485,402,334.102,396.617,334.102,390z M334.102,434c0-6.617,5.383-12,12-12h88c6.617,0,12,5.383,12,12s-5.383,12-12,12
			h-88C339.485,446,334.102,440.617,334.102,434z M302.102,446h-88c-6.617,0-12-5.383-12-12s5.383-12,12-12h88
			c6.617,0,12,5.383,12,12S308.719,446,302.102,446z M302.102,490h-88c-6.617,0-12-5.383-12-12s5.383-12,12-12h88
			c6.617,0,12,5.383,12,12S308.719,490,302.102,490z M434.102,490h-88c-6.617,0-12-5.383-12-12s5.383-12,12-12h88
			c6.617,0,12,5.383,12,12S440.719,490,434.102,490z M489.899,446h-26.14c1.506-3.708,2.343-7.757,2.343-12
			c0-8.517-3.351-16.26-8.795-22c5.444-5.74,8.795-13.483,8.795-22c0-17.645-14.355-32-32-32h-88c-17.645,0-32,14.355-32,32
			c0,6.135,1.739,11.87,4.745,16.745c-4.875-3.006-10.61-4.745-16.745-4.745h-58.776c-1.953-10.594-5.631-20.719-10.997-30.196
			l-51.652-91.225l19.917-62.06c1.146-3.568,0.199-7.477-2.45-10.126C190.152,200.401,179.527,196,168.225,196
			c-4.961,0-9.791,0.849-14.326,2.477V20h260.257l75.742,75.733V446z"/>
		<path style="fill:#FFFFFF;" d="M135.965,381.217c-9.109-3.22-19.183-7.11-24.835-11.543c-1.792-1.405-2.569-4.616-1.933-7.99
			c0.652-3.463,2.978-7.653,7.546-9.029c11.075-3.338,18.252,2.689,18.552,2.947c1.767,1.577,4.104,2.541,6.66,2.541
			c5.523,0,10-4.477,10-10c0-2.907-1.24-5.523-3.22-7.351l0,0c-3.182-2.936-9.099-6.561-16.823-8.227v-4.123c0-5.523-4.477-10-10-10
			s-10,4.477-10,10v4.798c-0.312,0.087-0.623,0.168-0.937,0.263c-10.999,3.313-19.211,12.692-21.432,24.476
			c-2.043,10.845,1.499,21.355,9.244,27.43c6.39,5.012,15.23,9.26,30.513,14.663c10.223,3.614,10.001,11.889,9.431,15.28
			c-1.154,6.867-6.931,14.288-16.885,14.354c-9.74,0.072-12.778-0.417-20.265-5.315c-4.622-3.023-10.819-1.728-13.843,2.894
			c-3.023,4.622-1.728,10.82,2.894,13.843c8.07,5.279,14.018,7.412,21.281,8.187v4.656c0,5.523,4.477,10,10,10s10-4.477,10-10
			v-5.634c14.878-4.126,24.41-16.982,26.542-29.669C161.254,402.012,152.217,386.961,135.965,381.217z"/>
		<g>
			<path style="fill:#6864F7;" d="M405.607,173.814H238.192c-5.523,0-10,4.477-10,10s4.477,10,10,10h167.415c5.522,0,10-4.477,10-10
				S411.129,173.814,405.607,173.814z"/>
			<path style="fill:#6864F7;" d="M287.222,217.814h-49.03c-5.523,0-10,4.477-10,10s4.477,10,10,10h49.03c5.522,0,10-4.477,10-10
				S292.744,217.814,287.222,217.814z"/>
			<path style="fill:#6864F7;" d="M238.192,149.814h167.415c5.522,0,10-4.477,10-10s-4.478-10-10-10H238.192
				c-5.523,0-10,4.477-10,10S232.669,149.814,238.192,149.814z"/>
		</g>
	</g>
</g>
<g>
</g>
<g>
</g>
<g>
</g>
<g>
</g>
<g>
</g>
<g>
</g>
<g>
</g>
<g>
</g>
<g>
</g>
<g>
</g>
<g>
</g>
<g>
</g>
<g>
</g>
<g>
</g>
<g>
</g>
</svg>
