<?xml version="1.0" encoding="iso-8859-1"?>
<!-- Generator: Adobe Illustrator 26.5.3, SVG Export Plug-In . SVG Version: 6.00 Build 0)  -->
<svg version="1.1" id="Capa_1" xmlns="http://www.w3.org/2000/svg" xmlns:xlink="http://www.w3.org/1999/xlink" x="0px" y="0px"
	 viewBox="0 0 512 512" style="enable-background:new 0 0 512 512;" xml:space="preserve">
<g>
	<g>
		<g>
			<path style="fill:#D2DCFD;" d="M489.468,117.523h-8.352c-4.986,0-9.404-3.206-10.951-7.946
				c-1.718-5.263-3.83-10.348-6.303-15.218c-2.261-4.452-1.414-9.848,2.117-13.379l5.907-5.907c4.502-4.502,4.502-11.802,0-16.304
				l-19.657-19.657c-4.502-4.502-11.802-4.502-16.304,0l-5.907,5.907c-3.531,3.531-8.927,4.378-13.379,2.117
				c-4.87-2.473-9.955-4.586-15.218-6.303c-4.74-1.547-7.946-5.965-7.946-10.951v-8.352c0-6.367-5.162-11.529-11.529-11.529h-27.799
				c-6.367,0-11.529,5.162-11.529,11.529v8.352c0,4.986-3.206,9.404-7.946,10.951c-5.263,1.718-10.347,3.83-15.218,6.303
				c-4.452,2.261-9.848,1.414-13.379-2.117l-5.907-5.907c-4.502-4.502-11.802-4.502-16.304,0l-19.657,19.657
				c-4.502,4.502-4.502,11.802,0,16.304l5.907,5.907c3.531,3.531,4.378,8.927,2.117,13.379c-2.473,4.87-4.586,9.955-6.303,15.218
				c-1.547,4.74-5.966,7.946-10.951,7.946h-8.352c-6.367,0-11.529,5.162-11.529,11.529v27.799c0,6.367,5.162,11.529,11.529,11.529
				h8.352c4.986,0,9.404,3.206,10.951,7.946c1.718,5.263,3.83,10.348,6.303,15.218c2.261,4.452,1.414,9.848-2.117,13.379
				l-5.907,5.907c-4.502,4.502-4.502,11.802,0,16.304l19.657,19.657c4.502,4.502,11.802,4.502,16.304,0l5.907-5.907
				c3.531-3.531,8.927-4.378,13.379-2.117c4.87,2.474,9.955,4.586,15.218,6.304c4.74,1.547,7.946,5.965,7.946,10.951v8.352
				c0,6.367,5.162,11.529,11.529,11.529h27.799c6.367,0,11.529-5.162,11.529-11.529v-8.352c0-4.986,3.206-9.404,7.946-10.951
				c5.263-1.718,10.348-3.83,15.218-6.303c4.452-2.261,9.848-1.414,13.379,2.117l5.907,5.907c4.502,4.502,11.802,4.502,16.304,0
				l19.657-19.657c4.502-4.502,4.502-11.802,0-16.304l-5.907-5.907c-3.53-3.531-4.378-8.927-2.117-13.379
				c2.473-4.87,4.586-9.955,6.303-15.218c1.547-4.74,5.965-7.946,10.951-7.946h8.352c6.367,0,11.529-5.162,11.529-11.529v-27.799
				C500.996,122.684,495.835,117.523,489.468,117.523z M368.045,195.842c-29.211,0-52.891-23.68-52.891-52.891
				c0-29.211,23.68-52.891,52.891-52.891s52.891,23.68,52.891,52.891C420.936,172.162,397.256,195.842,368.045,195.842z"/>
		</g>
		<g>
			<path style="fill:#D46B5C;" d="M207.885,84.218h-0.979c-75.466,0-136.643,61.177-136.643,136.643v207.726h274.266V220.861
				C344.528,145.395,283.351,84.218,207.885,84.218z"/>
		</g>
		<g>
			<path style="fill:#FDE0BE;" d="M403.516,502c-2.359-35.092-26.945-65.063-61.407-73.928l-28.521-7.337
				c-28.178-7.248-51.695-26.612-64.216-52.876h-84.224c-12.521,26.264-36.038,45.628-64.216,52.876l-28.521,7.337
				C37.949,436.937,13.362,466.908,11.004,502H403.516z"/>
		</g>
		<g>
			<path style="fill:#FDBEB9;" d="M403.516,502c-2.359-35.092-26.945-65.063-61.407-73.928l-28.521-7.337
				c-13.387-3.444-25.718-9.626-36.322-17.98c-16.972,19.605-42.041,32.007-70.006,32.007c-27.966,0-53.034-12.402-70.006-32.007
				c-10.604,8.354-22.935,14.536-36.322,17.98l-28.521,7.337C37.949,436.937,13.362,466.908,11.004,502H403.516z"/>
		</g>
		<g>
			<path style="fill:#FD7DA0;" d="M143.009,502c-18.766-23.324-30.343-52.677-31.346-84.701c-3.49,1.34-7.069,2.494-10.731,3.436
				l-28.521,7.337C37.949,436.937,13.362,466.908,11.004,502H143.009z"/>
		</g>
		<g>
			<path style="fill:#FDE0BE;" d="M258.346,242.726c-84.346,0-80.969-43.2-138.328-50.165c-6.094,12.672-9.509,26.876-9.509,41.877
				v56.889c0,53.434,43.317,96.751,96.751,96.751h0c53.434,0,96.751-43.317,96.751-96.751v-51.502
				C291.601,241.609,276.571,242.726,258.346,242.726z"/>
		</g>
		<g>
			<path style="fill:#F7B073;" d="M258.346,242.726c-84.334,0-80.969-43.188-138.304-50.162
				c-5.675,11.798-9.042,24.915-9.478,38.778c48.458,20.759,63.069,63.309,164.082,63.309c10.485,0,20.244-0.254,29.33-0.721
				c0.023-0.865,0.036-1.732,0.036-2.602v-51.502C291.601,241.609,276.571,242.726,258.346,242.726z"/>
		</g>
		<g>
			<path style="fill:#FDE0BE;" d="M315.766,236.821c-4.122,0-8.041,0.867-11.586,2.429l0.39,52.835
				c3.441,1.455,7.224,2.26,11.195,2.26c15.885,0,28.762-12.877,28.762-28.762S331.651,236.821,315.766,236.821z"/>
		</g>
		<g>
			<path style="fill:#FDE0BE;" d="M99.188,236.821c4.122,0,8.041,0.867,11.586,2.429l-0.39,52.835
				c-3.441,1.455-7.224,2.26-11.195,2.26c-15.885,0-28.762-12.877-28.762-28.762S83.304,236.821,99.188,236.821z"/>
		</g>
		<g>
			<circle style="fill:#FDCB50;" cx="412.907" cy="421.94" r="80.06"/>
		</g>
		<g>
			<path style="fill:#FD8F01;" d="M384.033,421.94c0-35.262,22.807-65.178,54.467-75.857c-8.039-2.711-16.639-4.203-25.593-4.203
				c-44.216,0-80.06,35.844-80.06,80.06S368.691,502,412.907,502c8.954,0,17.554-1.492,25.593-4.203
				C406.84,487.118,384.033,457.202,384.033,421.94z"/>
		</g>
	</g>
	<g>
		<path style="fill:#FFFFFF;" d="M422.272,412.176l-0.344-0.122c-3.953-1.397-9.927-3.508-11.013-4.895
			c-0.464-0.715-0.561-1.489-0.286-2.3c0.154-0.456,0.675-1.574,2.177-2.11c1.766-0.626,6.429,0.604,9.269,2.084
			c4.86,2.577,10.893,0.746,13.497-4.106c2.611-4.867,0.783-10.929-4.083-13.54c-1.116-0.599-4.523-2.307-8.989-3.464
			c-0.38-5.176-4.69-9.26-9.963-9.26c-5.523,0-10,4.477-10,10v1.048c-5.105,2.812-8.971,7.373-10.854,12.939
			c-2.235,6.607-1.34,13.75,2.456,19.599c4.547,7.004,12.599,9.85,21.125,12.863l0.342,0.121c1.663,0.588,3.506,1.648,3.001,4.657
			c-0.323,1.922-1.979,5.183-6.137,5.21c-5.968,0.045-6.494-0.007-9.333-2.141c-4.416-3.319-10.684-2.429-14.002,1.985
			c-3.318,4.415-2.43,10.684,1.985,14.002c4.254,3.198,7.932,4.746,11.458,5.489c0.417,5.139,4.712,9.182,9.959,9.182
			c5.523,0,10-4.477,10-10v-0.551c8.127-3.382,14.256-10.718,15.793-19.861C440.338,427.062,433.884,416.281,422.272,412.176z"/>
		<g>
			<path style="fill:#052A75;" d="M229.184,322.55c-3.853-3.957-10.184-4.042-14.141-0.189c-2.171,2.114-5.036,3.278-8.066,3.278
				c-2.876,0-5.632-1.062-7.761-2.991c-4.091-3.707-10.416-3.396-14.125,0.696c-3.708,4.092-3.396,10.417,0.696,14.125
				c5.814,5.268,13.339,8.169,21.189,8.169c8.272,0,16.091-3.178,22.019-8.948C232.952,332.839,233.036,326.508,229.184,322.55z"/>
			<path style="fill:#052A75;" d="M489.468,107.522h-8.352c-0.66,0-1.24-0.421-1.445-1.048c-1.859-5.698-4.179-11.298-6.894-16.644
				c-0.303-0.598-0.194-1.312,0.272-1.779l5.907-5.907c8.394-8.395,8.394-22.052,0-30.447l-19.657-19.657
				c-8.395-8.394-22.052-8.394-30.447,0l-5.907,5.907c-0.465,0.466-1.181,0.576-1.779,0.271c-5.345-2.715-10.945-5.034-16.643-6.894
				c-0.627-0.205-1.048-0.785-1.048-1.445v-8.352C403.474,9.658,393.816,0,381.945,0h-27.799c-11.871,0-21.529,9.658-21.529,21.529
				v8.352c0,0.66-0.421,1.24-1.048,1.445c-5.698,1.859-11.297,4.179-16.645,6.894c-0.596,0.303-1.312,0.195-1.778-0.272
				l-5.907-5.907c-8.395-8.393-22.052-8.394-30.447,0l-19.657,19.657c-8.394,8.395-8.394,22.052,0,30.447l1.15,1.15
				c-15.866-5.867-33.01-9.077-50.891-9.077c-81.129,0-147.133,66.003-147.133,147.133v200.104
				c-33.438,12.62-56.796,43.581-59.236,79.875c-0.186,2.762,0.782,5.478,2.673,7.5c1.891,2.022,4.536,3.17,7.304,3.17
				c0,0,397.874,0,401.903,0c49.659,0,90.06-40.401,90.06-90.06s-40.401-90.06-90.06-90.06c-22.255,0-42.646,8.118-58.379,21.543
				v-67.521h27.417c11.871,0,21.529-9.658,21.529-21.528v-8.353c0-0.659,0.421-1.239,1.048-1.444
				c5.699-1.86,11.299-4.18,16.643-6.894c0.599-0.304,1.314-0.195,1.78,0.272l5.907,5.907c4.066,4.066,9.473,6.306,15.224,6.306
				s11.157-2.24,15.223-6.306l19.658-19.657c4.066-4.066,6.306-9.473,6.306-15.224s-2.24-11.157-6.306-15.223l-5.907-5.908
				c-0.466-0.466-0.575-1.18-0.271-1.779c2.714-5.346,5.034-10.945,6.893-16.643c0.205-0.627,0.785-1.049,1.445-1.049h8.352
				c11.871,0,21.529-9.658,21.529-21.529v-27.799C510.996,117.18,501.339,107.522,489.468,107.522z M207.395,94.218
				c70.101,0,127.133,57.032,127.133,127.133v10.329c-5.563-3.091-11.959-4.858-18.762-4.858c-4.354,0-8.594,0.722-12.65,2.126
				c-12.361,1.771-28.877,2.784-45.639,2.784c-44.018,0-60.929-12.172-78.833-25.059c-14.562-10.481-29.62-21.319-57.441-24.3
				c-0.026-0.003-0.051,0.002-0.076,0c-4.055-0.403-8.111,1.702-9.991,5.583c-5.951,12.285-9.415,25.343-10.355,38.907
				c-0.53-0.021-1.061-0.042-1.592-0.042c-6.871,0-13.324,1.805-18.926,4.953v-10.423C80.262,151.25,137.294,94.218,207.395,94.218z
				 M323.298,412.907l-7.219-1.857c-19.345-4.976-36.185-16.201-48.165-31.93c24.481-16.965,41.556-43.89,45.312-74.867
				c0.843,0.055,1.688,0.092,2.54,0.092c6.803,0,13.198-1.768,18.762-4.858v77.651c0,0.151,0.016,0.299,0.023,0.449
				C328.514,388.208,324.573,400.17,323.298,412.907z M80.262,299.392c5.602,3.148,12.056,4.953,18.926,4.953
				c0.706,0,1.409-0.022,2.109-0.06c3.763,30.959,20.831,57.868,45.298,74.828c-11.987,15.725-28.847,26.971-48.155,31.937
				l-18.179,4.677V299.392z M100.509,284.28c-0.439,0.03-0.877,0.065-1.321,0.065c-10.345,0-18.762-8.417-18.762-18.762
				c0-10.346,8.417-18.762,18.762-18.762c0.442,0,0.881,0.038,1.321,0.069V284.28z M120.509,291.327v-56.889
				c0-10.801,1.933-21.244,5.751-31.141c18.021,3.294,28.633,10.923,40.7,19.608c18.772,13.512,40.05,28.826,90.517,28.826
				c12.961,0,25.504-0.554,36.534-1.588v41.184c0,47.834-38.917,86.75-86.751,86.75S120.509,339.161,120.509,291.327z
				 M314.011,246.91c0.581-0.054,1.165-0.089,1.755-0.089c10.345,0,18.762,8.417,18.762,18.762c0,10.345-8.417,18.762-18.762,18.762
				c-0.59,0-1.175-0.033-1.755-0.086V246.91z M326.013,134.407c4.023-19.941,21.587-34.347,42.032-34.347
				c23.65,0,42.891,19.241,42.891,42.891c0,23.65-19.241,42.891-42.891,42.891c-6.69,0-13.092-1.495-19.031-4.441
				C344.174,164.269,336.298,148.401,326.013,134.407z M22.499,492c5.753-26.248,25.765-47.391,52.403-54.244l28.521-7.337
				c24.6-6.328,45.975-20.953,60.761-41.429c13.182,5.837,27.756,9.087,43.076,9.087c15.318,0,29.89-3.25,43.072-9.085
				c14.78,20.482,36.118,35.087,60.765,41.427l12.509,3.218c3.06,23.487,15.205,44.156,32.781,58.363H22.499z M412.907,351.88
				c38.631,0,70.06,31.429,70.06,70.06S451.538,492,412.907,492s-70.06-31.429-70.06-70.06S374.276,351.88,412.907,351.88z
				 M490.996,156.851c0,0.843-0.686,1.529-1.529,1.529h-8.352c-9.338,0-17.56,5.965-20.458,14.843
				c-1.541,4.722-3.463,9.362-5.712,13.792c-4.235,8.337-2.643,18.375,3.961,24.978l5.907,5.908c0.37,0.37,0.448,0.792,0.448,1.081
				c0,0.289-0.078,0.711-0.448,1.081l-19.658,19.657c-0.37,0.37-0.792,0.448-1.081,0.448c-0.289,0-0.711-0.078-1.081-0.448
				l-5.907-5.907c-6.603-6.602-16.642-8.195-24.978-3.961c-4.429,2.25-9.069,4.172-13.791,5.713
				c-8.879,2.897-14.844,11.118-14.844,20.458v8.353c0,0.843-0.686,1.528-1.529,1.528h-27.417v-44.551
				c0-5.815-0.35-11.549-1.01-17.19c4.716,1.116,9.569,1.681,14.527,1.681c34.678,0,62.891-28.212,62.891-62.891
				S402.723,80.06,368.045,80.06c-25.078,0-47.197,14.795-57.216,36.758c-8.451-8.363-17.906-15.708-28.168-21.843
				c2.1-7.405,0.121-15.468-5.477-21.066l-5.907-5.907c-0.596-0.596-0.596-1.566,0-2.162l19.656-19.657
				c0.597-0.596,1.567-0.597,2.163,0l5.907,5.906c6.604,6.604,16.643,8.198,24.977,3.962c4.431-2.25,9.072-4.172,13.794-5.713
				c8.878-2.897,14.843-11.119,14.843-20.458v-8.352c0-0.843,0.686-1.529,1.529-1.529h27.799c0.843,0,1.529,0.686,1.529,1.529v8.352
				c0,9.339,5.965,17.56,14.843,20.458c4.722,1.542,9.362,3.463,13.792,5.712c8.337,4.236,18.376,2.643,24.979-3.961l5.907-5.907
				c0.597-0.596,1.566-0.597,2.162,0l19.657,19.657c0.596,0.596,0.596,1.566,0,2.162l-5.907,5.907
				c-6.604,6.604-8.196,16.642-3.961,24.978c2.25,4.43,4.171,9.07,5.713,13.792c2.897,8.878,11.119,14.843,20.458,14.843h8.352
				c0.843,0,1.529,0.686,1.529,1.529V156.851z"/>
		</g>
	</g>
</g>
<g>
</g>
<g>
</g>
<g>
</g>
<g>
</g>
<g>
</g>
<g>
</g>
<g>
</g>
<g>
</g>
<g>
</g>
<g>
</g>
<g>
</g>
<g>
</g>
<g>
</g>
<g>
</g>
<g>
</g>
</svg>
