<?xml version="1.0" encoding="iso-8859-1"?>
<!-- Generator: Adobe Illustrator 29.1.0, SVG Export Plug-In . SVG Version: 9.03 Build 55587)  -->
<svg version="1.1" id="Capa_1" xmlns="http://www.w3.org/2000/svg" xmlns:xlink="http://www.w3.org/1999/xlink" x="0px" y="0px"
	 viewBox="0 0 511.987 511.987" style="enable-background:new 0 0 511.987 511.987;" xml:space="preserve">
<g>
	<g>
		<path style="fill:#D2DCFD;" d="M278.718,384.362l-16.733,49.468l-50.943-11.486c-51.414-11.592-95.496-44.451-121.291-90.411
			l-38.51-68.616l174.973-98.202l38.51,68.616C290.52,279.691,295.605,334.437,278.718,384.362z"/>
		<path style="fill:#93B2F4;" d="M175.076,278.801l-0.153,0.086c-10.596,5.947-24.006,2.178-29.952-8.418l-47.125-83.966
			l38.523-21.621l47.125,83.966C189.441,259.444,185.672,272.854,175.076,278.801z"/>
		<path style="fill:#FD7DA0;" d="M145.124,159.969l-56.033,31.448L14.087,57.779c-8.65-15.412-3.168-34.917,12.244-43.567
			l0.222-0.125c15.412-8.65,34.917-3.168,43.567,12.244L145.124,159.969z"/>
		<path style="fill:#93B2F4;" d="M213.075,360.688c-3.628-0.348-7.276-0.524-10.926-0.524c-25.701,0-49.969,8.501-69.59,23.347
			c22.461,18.803,49.288,32.251,78.484,38.834l50.943,11.486l16.733-49.468c8.052-23.804,11.096-48.702,9.295-73.222
			c-10.522,3.782-20.725,8.472-30.454,14.081C241.023,334.755,226.017,346.751,213.075,360.688z"/>
		<path style="fill:#B1D952;" d="M501.987,501.987v-97.386c-12.796-6.525-27.28-10.214-42.631-10.214
			c-1.501,0-2.992,0.044-4.476,0.113c-25.572-27.436-62.022-44.6-102.487-44.6c-50.882,0-95.425,27.13-119.96,67.711
			c-9.054-4.747-19.351-7.447-30.284-7.447c-26.956,0-50.093,16.33-60.073,39.635c-7.614-1.989-15.601-3.055-23.838-3.055
			c-0.374,0-0.745,0.012-1.118,0.016c-15.257-24.848-42.674-41.426-73.97-41.426c-11.731,0-22.911,2.341-33.117,6.561v90.092
			H501.987z"/>
	</g>
	<g>
		
			<rect x="57.98" y="117.585" transform="matrix(0.8721 -0.4894 0.4894 0.8721 -50.9126 60.4233)" style="fill:#DB4B86;" width="64.255" height="20"/>
		<path style="fill:#052A75;" d="M506.529,395.692c-14.712-7.501-30.583-11.305-47.173-11.305c-0.109,0-0.218,0-0.328,0
			C430.949,356.06,392.346,339.9,352.393,339.9c-19.106,0-37.984,3.662-55.575,10.664c5.599-41.904-2.461-84.467-23.373-121.727
			l-38.511-68.616c-1.298-2.312-3.461-4.015-6.015-4.732c-2.554-0.719-5.287-0.392-7.6,0.907l-59.504,33.397l-11.833-21.082
			l0.035-0.02c4.816-2.703,6.529-8.798,3.826-13.614L78.841,21.436C67.506,1.24,41.855-5.967,21.658,5.367l-0.222,0.125
			C1.241,16.826-5.968,42.477,5.367,62.674l75.004,133.638c1.298,2.312,3.461,4.015,6.015,4.732c0.889,0.25,1.798,0.373,2.705,0.373
			c1.699,0,3.387-0.433,4.895-1.28l0.034-0.019l11.832,21.082l-59.505,33.397c-2.312,1.298-4.015,3.461-4.732,6.015
			c-0.718,2.553-0.392,5.287,0.907,7.6l38.51,68.616c18.233,32.487,45.564,59.174,78.209,76.741
			c-9.193,6.369-16.983,14.787-22.647,24.798c-4.626-0.825-9.312-1.337-14.019-1.533c-18.115-26.088-47.408-41.5-79.426-41.5
			c-12.763,0-25.19,2.463-36.938,7.32c-3.74,1.546-6.179,5.194-6.179,9.241v90.092c0,5.523,4.477,10,10,10h491.954
			c5.523,0,10-4.477,10-10v-97.386C511.987,400.841,509.878,397.399,506.529,395.692z M22.808,52.885
			c-5.937-10.579-2.161-24.016,8.418-29.954l0.221-0.124c3.397-1.907,7.087-2.812,10.73-2.812c7.703,0,15.192,4.047,19.223,11.229
			l70.109,124.918c0,0-38.558,21.641-38.559,21.641L22.808,52.885z M132.542,178.497l42.231,75.245
			c3.238,5.769,1.18,13.096-4.587,16.336l-0.157,0.088c-5.769,3.236-13.099,1.179-16.337-4.592l-42.231-75.245L132.542,178.497z
			 M98.472,327.039l-33.616-59.895l50.784-28.502l20.61,36.723c5.864,10.448,16.755,16.333,27.96,16.333
			c5.297,0,10.665-1.316,15.602-4.087l0.153-0.086c0.001-0.001,0.003-0.002,0.005-0.003c15.386-8.636,20.879-28.18,12.243-43.567
			l-20.61-36.722l50.784-28.502l33.617,59.896c21.059,37.522,27.616,81.034,18.621,122.983
			c-18.179,11.038-33.891,25.881-45.944,43.387c-8.453-3.176-17.478-4.832-26.533-4.832c-6.668,0-13.187,0.881-19.43,2.544
			C147.222,387.51,117.393,360.751,98.472,327.039z M491.987,491.987H20.033v-73.102c7.453-2.358,15.202-3.551,23.117-3.551
			c26.888,0,51.355,13.704,65.448,36.658c1.841,2.998,5.138,4.793,8.64,4.767l1-0.015c7.205,0,14.375,0.918,21.311,2.73
			c4.786,1.248,9.771-1.189,11.72-5.739c8.733-20.394,28.706-33.571,50.881-33.571c9.036,0,17.663,2.121,25.641,6.304
			c4.68,2.453,10.465,0.841,13.201-3.683c11.387-18.834,27.479-34.597,46.537-45.584c19.632-11.318,42.062-17.301,64.865-17.301
			c35.949,0,70.638,15.096,95.172,41.418c2.003,2.148,4.851,3.311,7.782,3.171c1.474-0.069,2.786-0.103,4.009-0.103
			c11.373,0,22.322,2.21,32.631,6.578V491.987z"/>
	</g>
</g>
<g>
</g>
<g>
</g>
<g>
</g>
<g>
</g>
<g>
</g>
<g>
</g>
<g>
</g>
<g>
</g>
<g>
</g>
<g>
</g>
<g>
</g>
<g>
</g>
<g>
</g>
<g>
</g>
<g>
</g>
</svg>
