<?xml version="1.0" encoding="iso-8859-1"?>
<!-- Generator: Adobe Illustrator 27.2.0, SVG Export Plug-In . SVG Version: 6.00 Build 0)  -->
<svg version="1.1" id="Capa_1" xmlns="http://www.w3.org/2000/svg" xmlns:xlink="http://www.w3.org/1999/xlink" x="0px" y="0px"
	 viewBox="0 0 510.004 510.004" style="enable-background:new 0 0 510.004 510.004;" xml:space="preserve">
<g>
	<g>
		<g>
			<path style="fill:#D2DCFD;" d="M280.482,350.493l29.89-12.145l-14.373-53.613l-31.932,4.418
				c-10.616-18.096-25.643-32.815-43.201-43.098l4.409-31.991l-53.573-14.365l-12.168,29.871
				c-20.007-0.012-41.59,5.793-58.963,15.793l-25.399-19.797l-39.281,39.247l19.844,25.493
				c-10.127,17.695-15.761,37.941-15.843,58.901l-29.89,12.144l14.373,53.613l31.932-4.417
				c10.617,18.095,25.562,32.814,43.202,43.098l-4.41,31.99l53.573,14.366l12.169-29.871c20.008,0.01,41.589-5.793,58.963-15.793
				l25.398,19.797l39.281-39.247l-19.844-25.492C274.766,391.7,280.318,371.453,280.482,350.493z M160.187,402.002
				c-28.747,0-52.185-23.368-52.185-52.152c2.622-69.09,101.759-69.071,104.37,0.001
				C212.372,378.634,188.934,402.002,160.187,402.002z"/>
		</g>
		<g>
			<path style="fill:#93B2F4;" d="M295.999,284.735l-31.932,4.418c-10.616-18.096-25.643-32.815-43.201-43.098l4.409-31.991
				l-40.116-10.757c0.775,3.044,1.691,6.057,2.644,9.036c-17.031,19.852-16.171,49.721,2.459,68.216
				c0,0,39.282,39.248,39.282,39.248c18.559,18.651,48.423,19.411,68.201,2.414c2.978,0.96,5.983,1.829,9.007,2.624L295.999,284.735
				z"/>
		</g>
		<g>
			<path style="fill:#67CCD1;" d="M470.193,159.511c-0.018-20.021-5.814-41.603-15.843-58.941l19.845-25.453l-39.282-39.247
				l-25.48,19.828c-17.722-10.087-37.975-15.716-58.881-15.824l-12.168-29.87l-53.655,14.365l4.492,31.941
				c-18.13,10.57-32.83,25.567-43.12,43.154l-32.014-4.425l-14.373,53.613l29.89,12.145c0,20.029,5.753,41.604,15.762,58.941
				l-19.764,25.453l39.282,39.248l25.48-19.828c17.639,10.087,37.893,15.716,58.881,15.824l12.168,29.871l53.574-14.366
				l-4.41-31.941c18.13-10.57,32.83-25.567,43.12-43.155l31.931,4.425l14.373-53.613L470.193,159.511z M349.898,212.305
				c-28.828,0-52.185-23.368-52.185-52.151c2.568-69.057,101.711-69.123,104.289,0.001
				C402.002,188.937,378.645,212.305,349.898,212.305z"/>
		</g>
	</g>
	<g>
		<path style="fill:#052A75;" d="M160.187,287.699c-34.289,0-62.185,27.881-62.185,62.152c3.126,82.339,121.257,82.316,124.37-0.001
			C222.372,315.58,194.476,287.699,160.187,287.699z M160.187,392.002c-23.261,0-42.185-18.909-42.185-42.151
			c2.12-55.843,82.258-55.828,84.37,0.001C202.372,373.093,183.448,392.002,160.187,392.002z"/>
		<path style="fill:#052A75;" d="M349.898,98.002c-34.289,0-62.185,27.881-62.185,62.151c3.126,82.299,121.178,82.358,124.289-0.001
			C412.002,125.883,384.142,98.002,349.898,98.002z M349.898,202.305c-23.261,0-42.185-18.909-42.185-42.152
			c2.121-55.802,82.18-55.868,84.289,0.001C392.002,183.396,373.114,202.305,349.898,202.305z"/>
		<path style="fill:#052A75;" d="M503.775,162.395l-23.807-9.7c-1.085-17.933-5.698-35.074-13.73-51.108l15.845-20.322
			c3.105-3.982,2.754-9.654-0.818-13.223l-39.282-39.248c-3.567-3.563-9.23-3.915-13.209-0.818l-20.352,15.837
			c-15.943-8.017-33.365-12.701-51.057-13.728L347.645,6.23c-1.902-4.668-6.98-7.192-11.848-5.887l-53.656,14.365
			c-4.88,1.307-8.02,6.049-7.316,11.052l3.584,25.485c-14.823,9.732-27.578,22.502-37.377,37.423l-25.578-3.535
			c-4.993-0.69-9.723,2.446-11.028,7.316l-14.374,53.613c-1.307,4.872,1.221,9.955,5.895,11.854l23.88,9.703
			c0.731,12.443,3.209,24.907,7.481,36.638l-53.018-14.216c-4.867-1.306-9.949,1.217-11.851,5.886l-9.719,23.86
			c-17.676,1.027-35.213,5.715-51.12,13.701l-20.282-15.809c-3.98-3.101-9.646-2.752-13.215,0.813l-39.281,39.248
			c-3.57,3.567-3.923,9.235-0.823,13.217l15.843,20.353c-8.044,15.928-12.733,33.358-13.744,51.083l-23.861,9.694
			c-4.674,1.899-7.201,6.981-5.894,11.854l14.373,53.613c1.306,4.871,6.035,8.008,11.029,7.316l25.505-3.528
			c9.799,14.873,22.585,27.628,37.464,37.38l-3.522,25.547c-0.688,4.994,2.447,9.719,7.316,11.024l53.573,14.366
			c0.864,0.232,1.735,0.343,2.593,0.343c3.979,0,7.694-2.389,9.258-6.228l9.72-23.861c17.673-1.029,35.212-5.713,51.12-13.701
			l20.281,15.809c3.979,3.102,9.647,2.754,13.215-0.813l39.281-39.247c3.57-3.567,3.923-9.235,0.823-13.217l-15.845-20.354
			c7.984-15.837,12.668-33.263,13.726-51.073l23.881-9.703c4.674-1.899,7.201-6.981,5.895-11.854l-14.223-53.052
			c11.768,4.244,24.116,6.793,36.627,7.514l9.718,23.857c1.564,3.841,5.279,6.229,9.258,6.229c0.858,0,1.729-0.111,2.593-0.343
			l53.574-14.366c4.87-1.306,8.006-6.032,7.316-11.026l-3.521-25.499c14.83-9.733,27.589-22.506,37.391-37.432l25.492,3.533
			c4.992,0.692,9.726-2.444,11.031-7.316l14.374-53.613C510.966,169.376,508.443,164.297,503.775,162.395z M276.718,341.229
			c-3.744,1.521-6.204,5.146-6.235,9.186c-0.148,18.993-5.17,37.67-14.522,54.013c-2.015,3.52-1.703,7.909,0.788,11.109
			l14.417,18.521l-26.782,26.759c0,0-18.431-14.367-18.431-14.367c-3.186-2.482-7.552-2.806-11.07-0.817
			c-16.472,9.352-35.305,14.4-54.097,14.498c-4.045,0.023-7.679,2.481-9.205,6.227l-8.84,21.7l-36.529-9.795l3.205-23.251
			c0.553-4.014-1.37-7.964-4.87-10.005c-16.332-9.522-30.03-23.187-39.613-39.52c-2.046-3.487-5.989-5.396-9.996-4.845
			l-23.188,3.208l-9.801-36.558l21.708-8.82c3.757-1.526,6.22-5.17,6.236-9.226c0.074-18.838,5.095-37.501,14.522-53.973
			c2.015-3.52,1.703-7.909-0.788-11.11l-14.418-18.521l26.783-26.76l18.433,14.367c3.186,2.483,7.553,2.806,11.07,0.817
			c16.47-9.349,35.301-14.401,54.096-14.497c4.046-0.023,7.679-2.481,9.206-6.228c0,0,8.839-21.7,8.839-21.7l36.529,9.795
			l-3.205,23.252c-0.552,4.006,1.363,7.951,4.853,9.995c16.383,9.594,30.087,23.263,39.629,39.529
			c2.046,3.487,5.984,5.396,9.996,4.846l23.188-3.208l9.801,36.558L276.718,341.229z M478.256,214.151l-23.185-3.213
			c-4.009-0.555-7.96,1.361-10.004,4.855c-9.597,16.404-23.265,30.085-39.526,39.566c-3.501,2.041-5.424,5.993-4.869,10.006
			l3.203,23.2l-36.528,9.795c0,0-8.839-21.7-8.839-21.7c-1.527-3.749-5.163-6.207-9.21-6.228
			c-18.882-0.097-37.544-5.112-53.969-14.504c-3.508-2.008-7.899-1.707-11.105,0.789c0,0-18.514,14.408-18.514,14.408
			l-26.796-26.773l14.352-18.482c2.48-3.194,2.792-7.566,0.793-11.08c-9.247-16.164-14.379-35.279-14.454-54.076
			c-0.033-4.04-2.493-7.662-6.235-9.183c0,0-21.708-8.82-21.708-8.82l9.801-36.559l23.271,3.216
			c4.008,0.556,7.957-1.362,10.001-4.855c9.598-16.404,23.265-30.085,39.525-39.566c3.509-2.045,5.432-6.01,4.866-10.031
			l-3.259-23.178l36.587-9.795l8.841,21.702c1.527,3.748,5.163,6.207,9.209,6.228c18.807,0.097,37.475,5.117,53.986,14.515
			c3.517,2.002,7.894,1.686,11.088-0.799l18.515-14.407l26.783,26.759l-14.408,18.48c-2.49,3.194-2.808,7.575-0.805,11.095
			c9.408,16.579,14.36,34.971,14.534,54.075c0.032,4.037,2.488,7.658,6.227,9.181l21.638,8.816L478.256,214.151z"/>
	</g>
</g>
<g>
</g>
<g>
</g>
<g>
</g>
<g>
</g>
<g>
</g>
<g>
</g>
<g>
</g>
<g>
</g>
<g>
</g>
<g>
</g>
<g>
</g>
<g>
</g>
<g>
</g>
<g>
</g>
<g>
</g>
</svg>
