<?xml version="1.0" encoding="iso-8859-1"?>
<!-- Generator: Adobe Illustrator 29.3.0, SVG Export Plug-In . SVG Version: 9.03 Build 55982)  -->
<svg version="1.1" id="Capa_1" xmlns="http://www.w3.org/2000/svg" xmlns:xlink="http://www.w3.org/1999/xlink" x="0px" y="0px"
	 viewBox="0 0 512.031 512.031" style="enable-background:new 0 0 512.031 512.031;" xml:space="preserve">
<g>
	<g>
		<path style="fill:#B1D952;" d="M300.521,170.591l-8.82-31.596c-14.147-50.681,16.267-103.058,67.267-115.84l51.068-12.799
			c7.197-1.804,14.219,3.503,14.457,10.925l1.689,52.665c1.687,52.595-40.311,96.219-92.885,96.482L300.521,170.591z"/>
		<path style="fill:#B1D952;" d="M244.61,173.035l-23.478,6.323c-37.66,10.141-76.26-12.813-85.371-50.768l-9.123-38.005
			c-1.286-5.356,2.697-10.532,8.199-10.655l39.041-0.878c38.989-0.877,71.021,30.615,70.843,69.649L244.61,173.035z"/>
		<path style="fill:#D46B5C;" d="M205.027,362.205c-28.175,0-51.007-22.814-51.007-50.966c0-28.142,22.833-50.956,51.007-50.956
			c1.355,0,2.701,0.05,4.026,0.16c8.736-22.614,30.695-38.656,56.409-38.656c21.909,0,41.097,11.658,51.69,29.095
			c5.271-2.669,11.226-4.174,17.541-4.174c21.447,0,38.838,17.367,38.838,38.796c0,0.532-0.01,1.064-0.03,1.585
			c4.036-1.033,8.274-1.585,12.641-1.585c28.175,0,51.007,22.824,51.007,50.966s-22.833,50.956-51.007,50.956L205.027,362.205z"/>
		<path style="fill:#B55348;" d="M437.15,336.468c0,28.144-22.833,50.957-51.007,50.957l-181.116-25.223
			c-28.175,0-51.007-22.813-51.007-50.967c0-10.633,3.263-20.503,8.836-28.667c1.426-0.05,2.872-0.07,4.307-0.07
			c9.097,0,18.204,0.984,27.09,2.922l121.594,26.528c15.322,3.344,29.239,11.567,39.541,23.315l61.43-39.51
			C429.168,305.05,437.15,319.831,437.15,336.468z"/>
		<path style="fill:#FDBEB9;" d="M502.024,349.601c0,10.955-5.392,21.678-15.282,28.044L317.865,486.237
			c-21.889,14.077-48.427,18.987-73.9,13.675l-135.27-28.255l0.281-127.779l11.236-7.42c19.399-12.471,42.945-16.718,65.466-11.798
			l121.614,26.528c15.553,3.394,26.166,17.17,26.166,32.492c0,2.34-0.241,4.719-0.763,7.109c-0.653,3.012-1.697,5.834-3.062,8.434
			l1.125-0.372l120.068-77.214c15.443-9.93,36.006-5.442,45.927,10.021C500.317,337.221,502.024,343.447,502.024,349.601z"/>
		<path style="fill:#FDCB50;" d="M10.024,492.001V325.061c0-5.523,4.477-10,10-10h77.274c5.523,0,10,4.477,10,10v166.939
			c0,5.523-4.477,10-10,10H20.024C14.501,502.001,10.024,497.524,10.024,492.001z"/>
		<path style="fill:#FD8F01;" d="M87.911,502.001H20.065c-5.542,0-10.041-4.498-10.041-10.041V325.102
			c0-5.543,4.498-10.041,10.041-10.041h65.998c-24.851,23.084-40.394,56.038-40.394,92.626
			C45.669,445.18,61.985,478.857,87.911,502.001z"/>
	</g>
	<g>
		<g>
			<g>
				<path style="fill:#052A75;" d="M300.521,180.592c-4.485,0-8.424-2.987-9.631-7.311l-8.82-31.597
					c-7.578-27.147-3.952-55.516,10.209-79.88c14.146-24.338,36.967-41.509,64.259-48.349l51.067-12.799
					c6.376-1.597,13.042-0.243,18.29,3.718c5.251,3.963,8.383,10.009,8.594,16.586l1.689,52.664
					c0.904,28.175-9.367,54.867-28.919,75.157c-19.529,20.267-45.778,31.505-73.911,31.646l-32.776,0.164
					C300.554,180.592,300.537,180.592,300.521,180.592z M412.88,20.003c-0.129,0-0.267,0.016-0.413,0.053l-51.067,12.799
					c-22.012,5.517-40.418,19.367-51.83,38.999c-11.426,19.658-14.351,42.548-8.237,64.453l6.769,24.247l25.146-0.126
					c22.688-0.113,43.858-9.178,59.609-25.524c15.774-16.37,24.06-37.905,23.331-60.638l-1.689-52.664
					c-0.021-0.654-0.367-1.048-0.653-1.265C413.627,20.172,413.301,20.003,412.88,20.003z"/>
			</g>
			<g>
				<path style="fill:#052A75;" d="M202.97,191.781c-14.046,0-27.882-3.774-40.312-11.159
					c-18.571-11.033-31.576-28.683-36.621-49.698l-9.123-38.005c-1.323-5.509-0.099-11.242,3.358-15.73
					c3.455-4.485,8.681-7.13,14.339-7.257l39.041-0.878c21.564-0.479,41.922,7.576,57.319,22.699
					c15.414,15.14,23.848,35.38,23.749,56.993l-0.111,24.335c-0.021,4.504-3.05,8.439-7.4,9.61l-23.479,6.322
					C216.858,190.865,209.887,191.781,202.97,191.781z M244.61,173.035h0.01H244.61z M136.755,89.888l8.729,36.367
					c3.773,15.719,13.5,28.92,27.389,37.171c13.869,8.24,30.085,10.468,45.658,6.274l16.114-4.339l0.076-16.708
					c0.074-16.168-6.235-31.309-17.764-42.633c-11.512-11.307-26.726-17.327-42.854-16.972L136.755,89.888z"/>
			</g>
			<path style="fill:#91B706;" d="M364.507,89.466c-3.789-4.02-10.117-4.206-14.136-0.417
				c-39.571,37.3-63.335,81.107-75.082,107.074c-25.759-46.689-72.34-68.631-74.594-69.671c-5.01-2.31-10.938-0.124-13.255,4.882
				c-2.318,5.006-0.137,10.947,4.866,13.273c0.557,0.259,55.895,26.513,73.917,80.357c1.365,4.078,5.185,6.822,9.484,6.822
				c0.004,0,0.009,0,0.014,0c4.305-0.006,8.124-2.77,9.479-6.855c0.227-0.683,23.308-68.937,78.891-121.329
				C368.108,99.814,368.295,93.485,364.507,89.466z"/>
		</g>
		<g>
			<path style="fill:#B55348;" d="M322.63,280.771c-5.28,0-9.694-4.136-9.977-9.471c-0.266-5.015-1.631-10.026-3.947-14.49
				c-2.543-4.902-0.631-10.938,4.271-13.482c4.902-2.543,10.938-0.631,13.482,4.271c3.619,6.974,5.751,14.804,6.166,22.643
				c0.292,5.515-3.941,10.223-9.457,10.515C322.988,280.766,322.808,280.771,322.63,280.771z"/>
		</g>
		<g>
			<path style="fill:#B55348;" d="M207.604,289.959c-4.905,0-9.186-3.611-9.89-8.607c-1.095-7.773-0.503-15.866,1.711-23.404
				c1.557-5.299,7.116-8.332,12.414-6.775c5.299,1.557,8.333,7.114,6.775,12.413c-1.417,4.825-1.796,10.003-1.096,14.977
				c0.77,5.469-3.039,10.526-8.508,11.297C208.539,289.926,208.068,289.959,207.604,289.959z"/>
		</g>
		<path style="fill:#052A75;" d="M505.167,326.259c-6.242-9.732-15.897-16.446-27.188-18.906
			c-11.282-2.458-22.847-0.372-32.562,5.876l-2.29,1.473c-8.895-23.195-31.483-39.197-56.985-39.197
			c-1.209,0-2.416,0.036-3.62,0.107c-4.588-22.181-24.291-38.903-47.829-38.903c-4.751,0-9.378,0.664-13.833,1.979
			c-13.287-16.983-33.441-26.901-55.398-26.901c-26.516,0-50.934,15.228-62.828,38.542c-32.536,1.259-58.615,28.099-58.615,60.91
			c0,1.385,0.059,2.771,0.153,4.154c-9.361,2.297-18.409,6.016-26.874,11.113v-1.444c0-11.028-8.972-20-20-20H20.024
			c-11.028,0-20,8.972-20,20v166.939c0,11.028,8.972,20,20,20h77.274c11.028,0,20-8.972,20-20v-8.326l124.627,26.022
			c7.485,1.562,15.013,2.335,22.494,2.334c20.715-0.001,41.039-5.924,58.852-17.379l168.883-108.601
			C512.205,373.157,518.043,346.334,505.167,326.259z M97.298,492.001l-77.273,0.013c0,0,0-0.004,0-0.013V325.061h77.274V492.001z
			 M164.02,311.239c0-22.583,18.396-40.956,41.007-40.956c1.119,0,2.195,0.042,3.197,0.125c4.429,0.374,8.559-2.222,10.158-6.362
			c7.454-19.295,26.374-32.259,47.081-32.259c17.776,0,33.905,9.079,43.144,24.287c2.712,4.464,8.404,6.09,13.063,3.73
			c4.057-2.054,8.439-3.095,13.025-3.095c15.901,0,28.838,12.918,28.838,28.796c-0.323,3.54,0.832,7.124,3.688,9.365
			c2.456,1.982,5.704,2.691,8.762,1.907c3.299-0.844,6.718-1.272,10.162-1.272c18.59,0,34.874,12.635,39.614,30.367l-82.571,53.098
			c-1.99-17.959-15.171-33.496-33.759-37.551l-121.622-26.531c-7.906-1.724-15.873-2.453-23.756-2.213
			C164.033,312.196,164.02,311.717,164.02,311.239z M481.336,369.229L312.453,477.83c-19.805,12.736-43.399,17.099-66.44,12.289
			l-128.715-26.875V350.368l8.373-5.526c17.272-11.088,37.823-14.787,57.872-10.414l121.622,26.531
			c12.521,2.731,20.487,15.159,17.758,27.702c-2.404,12.267-15.486,20.702-27.645,17.787L181.924,381.72
			c-5.395-1.177-10.725,2.242-11.901,7.639c-1.177,5.396,2.243,10.725,7.639,11.901l113.353,24.728
			c17.22,4.06,36.459-4.043,45.733-19.1l119.488-76.837c5.218-3.355,11.428-4.479,17.487-3.157
			c6.066,1.321,11.254,4.93,14.61,10.162C495.261,347.86,492.123,362.293,481.336,369.229z"/>
	</g>
</g>
<g>
</g>
<g>
</g>
<g>
</g>
<g>
</g>
<g>
</g>
<g>
</g>
<g>
</g>
<g>
</g>
<g>
</g>
<g>
</g>
<g>
</g>
<g>
</g>
<g>
</g>
<g>
</g>
<g>
</g>
</svg>
