<?xml version="1.0" encoding="iso-8859-1"?>
<!-- Generator: Adobe Illustrator 27.0.0, SVG Export Plug-In . SVG Version: 6.00 Build 0)  -->
<svg version="1.1" id="Capa_1" xmlns="http://www.w3.org/2000/svg" xmlns:xlink="http://www.w3.org/1999/xlink" x="0px" y="0px"
	 viewBox="0 0 512 512" style="enable-background:new 0 0 512 512;" xml:space="preserve">
<g>
	<g>
		<g>
			<g>
				<g>
					<path style="fill:#FDBEB9;" d="M408.637,502l-25.986-123.393c-5.087-24.155-24.068-42.963-48.269-47.827l-53.602-10.775
						c-11.359-2.283-20.336-10.996-22.956-22.283l-7.521-32.394h-67.247l-7.521,32.394c-2.62,11.287-11.596,19.999-22.956,22.283
						L98.978,330.78c-24.201,4.865-43.182,23.672-48.269,47.827L24.724,502H408.637z"/>
					<path style="fill:#FD7DA0;" d="M98.326,471.997h236.709v-57.919c0-27.727-22.477-50.204-50.204-50.204H138.489
						c-22.182,0-40.163,17.982-40.163,40.163V471.997z"/>
					<path style="fill:#FD7DA0;" d="M219.161,317.471c15.557,0,30.44-2.941,44.126-8.289c-2.582-3.317-4.475-7.204-5.462-11.459
						l-7.521-32.394h-67.247l-7.521,32.394c-0.841,3.624-2.345,6.976-4.365,9.942C186.133,314.089,202.385,317.471,219.161,317.471z
						"/>
					<path style="fill:#FD7DA0;" d="M149.523,207.109h-28.084c-16.149,0-29.241-13.092-29.241-29.241v0
						c0-16.149,13.092-29.241,29.241-29.241h28.166L149.523,207.109z"/>
					<path style="fill:#FDBEB9;" d="M178.025,97.84c-23.363,6.886-40.42,28.488-40.437,54.081l-0.029,43.769
						c-0.098,45.137,36.465,81.78,81.603,81.78h0c45.068,0,81.603-36.535,81.603-81.603v-43.909
						c0-31.156-25.257-56.412-56.412-56.412H194L178.025,97.84z"/>
					<path style="fill:#FFFFFF;" d="M98.326,502h236.709v-57.919c0-27.727-22.477-50.204-50.204-50.204H138.489
						c-22.182,0-40.163,17.982-40.163,40.163V502z"/>
				</g>
			</g>
		</g>
		<path style="fill:#D46B5C;" d="M226.889,108.068c15.915,13.215,25.732,33.091,25.732,54.794c0,0,0,36.421,0,36.421
			c-0.017,63.45-0.06,140.964-0.06,195.319c0,34.285,27.793,62.071,62.078,62.071l40.473,0l0-316.222
			C355.112,68.405,296.707,10,224.661,10h0C152.614,10,94.21,68.405,94.21,140.451v37.417v0c0-16.149,13.092-29.241,29.241-29.241
			h42.884c23.387,0,44.947-12.646,56.361-33.059L226.889,108.068"/>
		<g>
			<path style="fill:#6864F7;" d="M419.062,399.498h-71.759c-6.123,0-11.087-4.964-11.087-11.087v-24.239
				c0-6.123,4.964-11.087,11.087-11.087h71.759c6.123,0,11.087,4.964,11.087,11.087v24.239
				C430.15,394.534,425.186,399.498,419.062,399.498z"/>
			<path style="fill:#BC9AF4;" d="M371.939,409.935H237.507c-9.93,0-17.98-8.05-17.98-17.98v-31.327c0-9.93,8.05-17.98,17.98-17.98
				h134.432c9.93,0,17.98,8.05,17.98,17.98v31.327C389.919,401.885,381.869,409.935,371.939,409.935z"/>
		</g>
	</g>
	<g>
		<g>
			<path style="fill:#FD7DA0;" d="M222.262,237.966c-11.26,0-22.521-3.719-32.129-11.156c-4.368-3.38-5.168-9.661-1.788-14.028
				c3.381-4.367,9.662-5.168,14.029-1.787c11.896,9.207,27.88,9.207,39.776,0c4.367-3.381,10.648-2.581,14.029,1.787
				c3.38,4.367,2.58,10.648-1.788,14.028C244.783,234.248,233.522,237.966,222.262,237.966z"/>
		</g>
		<g>
			<path style="fill:#B55348;" d="M304.81,348.498c-5.523,0-10-4.477-10-10v-75.522c0-5.523,4.477-10,10-10s10,4.477,10,10v75.522
				C314.81,344.021,310.333,348.498,304.81,348.498z"/>
		</g>
		<path style="fill:#052A75;" d="M457.562,366.07h-17.1v-2.14c0-11.64-9.47-21.11-21.11-21.11h-25.4
			c-5.14-6.37-13.01-10.45-21.81-10.45h-6.86V140.54C365.282,63.05,302.242,0,224.752,0c-77.5,0-140.54,63.05-140.54,140.54v24.95
			c-1.3,3.89-2.01,8.05-2.01,12.38c0,21.64,17.6,39.24,39.24,39.24h8.5c3.92,16.14,12.17,30.96,24.21,43.02
			c5.06,5.08,10.63,9.46,16.56,13.16l-5.06,21.81c-1.73,7.47-7.71,13.27-15.22,14.78l-53.7,10.79
			c-28.2,5.67-50.24,27.52-56.17,55.66l-26.03,123.61c-0.62,2.95,0.12,6.02,2.02,8.36c1.9,2.34,4.75,3.7,7.76,3.7h384.6
			c3.01,0,5.86-1.36,7.76-3.7c1.9-2.34,2.64-5.41,2.02-8.36l-19.08-90.62h19.74c11.64,0,21.11-9.47,21.11-21.11v-2.14h17.1
			c11.09,0,20.12,9.03,20.12,20.12V502c0,5.52,4.48,10,10,10s10-4.48,10-10v-95.81C497.682,384.07,479.682,366.07,457.562,366.07z
			 M372.142,352.37c4.42,0,8.01,3.59,8.01,8.01v31.38c0,4.42-3.59,8.01-8.01,8.01h-134.67c-4.41,0-8.01-3.59-8.01-8.01v-31.38
			c0-4.42,3.6-8.01,8.01-8.01H372.142z M345.282,419.77v26.82h-30.5c-19.16,0-36.55-10.59-45.63-26.82H345.282z M121.442,197.11
			c-10.61,0-19.24-8.63-19.24-19.24s8.63-19.24,19.24-19.24h5.93c0,0,0.01,37.82,0.02,38.48H121.442z M121.442,138.63
			c-6.18,0-12.03,1.44-17.23,3.99v-2.08c0-66.47,54.07-120.54,120.54-120.54c66.46,0,120.53,54.07,120.53,120.54v191.83h-82.71
			c0-27.14,0.05-145.55,0.04-170.11c0-36.83-24.86-69.15-60.46-78.6c-5.34-1.41-10.82,1.77-12.23,7.1
			c-1.42,5.34,1.76,10.82,7.1,12.23c6,1.6,11.59,4.05,16.66,7.22c-10.94,17.59-30.29,28.42-51.12,28.42H121.442z M168.312,246
			c-13.56-13.58-21-31.64-20.96-50.84l0.02-36.53h15.19c26.63,0,51.43-13.28,66.27-35.06c8.68,10.67,13.78,24.22,13.78,38.69
			l-0.02,100.87c-7.53,2.61-15.41,3.94-23.5,3.94C199.902,267.07,181.862,259.59,168.312,246z M88.052,433.92V492h-51.41
			l23.49-111.55c4.28-20.31,20.19-36.08,40.54-40.17l53.7-10.79c15.18-3.06,27.26-14.78,30.76-29.87l4.07-17.52
			c9.49,3.26,19.56,4.97,29.89,4.97c8.02,0,15.87-1.03,23.49-3.05l-0.01,48.35h-5.1c-15.44,0-28.01,12.56-28.01,28.01v23.31h-71.18
			C110.582,383.69,88.052,406.22,88.052,433.92z M325.172,492h-217.12v-58.08c0-16.67,13.56-30.23,30.23-30.23h73.85
			c4.49,9.49,14.16,16.08,25.34,16.08h9.68c10.47,27.85,37.48,46.82,67.63,46.82h10.39V492z M345.172,492v-25.41h10.11
			c5.53,0,10-4.47,10-10v-36.82h6.86c3.12,0,6.12-0.52,8.92-1.46l15.52,73.69H345.172z M420.462,388.21c0,0.61-0.5,1.11-1.11,1.11
			h-19.2v-26.5h19.2c0.61,0,1.11,0.5,1.11,1.11V388.21z"/>
	</g>
</g>
<g>
</g>
<g>
</g>
<g>
</g>
<g>
</g>
<g>
</g>
<g>
</g>
<g>
</g>
<g>
</g>
<g>
</g>
<g>
</g>
<g>
</g>
<g>
</g>
<g>
</g>
<g>
</g>
<g>
</g>
</svg>
