<?xml version="1.0" encoding="iso-8859-1"?>
<!-- Generator: Adobe Illustrator 27.0.0, SVG Export Plug-In . SVG Version: 6.00 Build 0)  -->
<svg version="1.1" id="Capa_1" xmlns="http://www.w3.org/2000/svg" xmlns:xlink="http://www.w3.org/1999/xlink" x="0px" y="0px"
	 viewBox="0 0 512.001 512.001" style="enable-background:new 0 0 512.001 512.001;" xml:space="preserve">
<g>
	<g>
		<polygon style="fill:#67CCD1;" points="279.842,215.554 452.962,388.674 423.723,408.377 489.632,502.001 325.1,412.261 
			351.843,391.394 218.594,258.145 209.261,185.146 		"/>
		<path style="fill:#FDE0BE;" d="M371.779,239.461c10.918-10.918,28.62-10.918,39.538,0c10.918,10.918,10.918,28.62,0,39.538
			l-34.947,34.947c-10.918,10.918-28.62,10.918-39.538,0c-10.918-10.918-10.918-28.62,0-39.538L371.779,239.461z"/>
		<path style="fill:#FDE0BE;" d="M338.831,193.334c10.918-10.918,28.62-10.918,39.538,0s10.918,28.62,0,39.538l-41.536,41.536
			c-10.918,10.918-28.62,10.918-39.538,0c-10.918-10.918-10.918-28.62,0-39.538L338.831,193.334z"/>
		<path style="fill:#FDE0BE;" d="M305.883,147.207c10.918-10.918,28.62-10.918,39.538,0s10.918,28.62,0,39.538l-21.108,21.108
			l-39.538-39.538L305.883,147.207z"/>
		<path style="fill:#FDE0BE;" d="M240.201,133.814l32.735-32.734c10.918-10.918,28.62-10.918,39.538,0s10.918,28.62,0,39.538
			l-27.698,27.698L240.201,133.814z"/>
		<polygon style="fill:#67CCD1;" points="210.371,146.083 184.896,120.608 211.638,99.74 47.107,10.001 113.016,103.625 
			83.777,123.327 159.437,198.988 		"/>
		<path style="fill:#FDE0BE;" d="M93.655,342.961l46.417-46.417c-8.141-37.443,2.341-78.121,31.448-107.229l47.358-47.358
			c10.918-10.918,28.62-10.918,39.538,0l65.896,65.896l-11.241,11.241c-19.631,19.631-51.46,19.631-71.091,0
			c0,0-12.229-12.229-12.229-12.229l10.681,37.643c3.351,11.81,3.242,24.082,0.018,35.49l84.219,84.224
			c-24.597,18.862-54.993,26.581-84.338,23.162l-51.128,51.128L93.655,342.961z"/>
		<path style="fill:#F7B073;" d="M225.269,379.518c-0.686-43.466-35.903-78.696-79.362-79.412c-1.982-1.987-4.078-3.866-6.256-5.653
			c0.138,0.697,0.27,1.396,0.421,2.091l-46.417,46.417l95.549,95.549l46.222-46.222
			C232.451,387.723,229.054,383.442,225.269,379.518z"/>
		<path style="fill:#FFFFFF;" d="M199.239,458.087c3.109-5.711,4.876-12.258,4.876-19.218c0-18.568-12.575-34.19-29.67-38.839
			c3.57-5.541,5.65-12.134,5.65-19.216c0-19.626-15.91-35.536-35.536-35.536c-7.358,0-14.193,2.236-19.864,6.066
			c-4.15-17.814-20.117-31.09-39.194-31.09c-6.96,0-13.507,1.767-19.218,4.876c-6.38-18.104-23.627-31.084-43.913-31.084v207.954
			h207.954C230.323,481.714,217.344,464.467,199.239,458.087z"/>
	</g>
	<g>
		<path style="fill:#052A75;" d="M497.809,496.244l-60.034-85.278l20.775-13.999c2.477-1.669,4.079-4.359,4.365-7.332
			c0.287-2.974-0.77-5.919-2.882-8.032l-68.589-68.589l26.944-26.943c14.799-14.8,14.799-38.88,0-53.68
			c-6.366-6.365-14.449-9.985-22.772-10.874c0.615-2.73,0.942-5.546,0.942-8.413c0-10.139-3.949-19.671-11.118-26.84
			c-6.371-6.371-14.464-9.992-22.794-10.877c2.773-12.29-0.605-25.701-10.154-35.25c-6.206-6.205-14.182-9.992-22.79-10.899
			c2.764-12.284-0.615-25.685-10.158-35.228c-7.169-7.169-16.701-11.117-26.84-11.117c-10.139,0-19.671,3.948-26.84,11.117
			l-29.882,29.882c-8.482,0.592-16.795,4.012-23.401,10.26l-12.617-12.616l17.826-13.91c2.656-2.072,4.089-5.342,3.815-8.699
			c-0.275-3.357-2.221-6.351-5.179-7.964L51.895,1.221c-4.082-2.226-9.157-1.346-12.25,2.123c-3.094,3.469-3.39,8.612-0.714,12.413
			l60.034,85.278l-20.775,13.999c-2.478,1.669-4.079,4.359-4.366,7.332c-0.287,2.974,0.77,5.92,2.882,8.032l71.602,71.602
			c-17.655,26.657-24.619,59.115-19.067,91.233L107.3,315.175c-6.622-3.169-14.025-4.92-21.798-4.92
			c-4.806,0-9.586,0.693-14.17,2.037c-9.976-17.229-28.558-28.245-48.961-28.245c-5.523,0-10,4.477-10,10v207.954
			c0,5.523,4.477,10,10,10h207.954c5.523,0,10-4.477,10-10c0-20.404-11.016-38.985-28.245-48.961
			c1.344-4.584,2.037-9.365,2.037-14.17c0-3.441-0.355-6.82-1.03-10.097l30.979-30.98c28.282,2.213,56.059-4.975,79.517-20.517
			l13.193,13.192l-17.826,13.91c-2.656,2.072-4.089,5.342-3.815,8.699c0.275,3.357,2.221,6.351,5.179,7.964l164.532,89.739
			c1.509,0.823,3.153,1.222,4.784,1.222c2.779,0,5.517-1.158,7.467-3.344C500.189,505.188,500.485,500.045,497.809,496.244z
			 M404.246,271.928l-34.947,34.946c-7.001,7.003-18.394,7.002-25.395,0c-7.001-7-7.002-18.39-0.003-25.392
			c0.001-0.001,0.002-0.002,0.003-0.003l34.946-34.946h0c3.5-3.501,8.099-5.251,12.697-5.251c4.599,0,9.197,1.75,12.698,5.251
			C411.248,253.534,411.248,264.926,404.246,271.928z M376.558,213.103c0,4.796-1.868,9.306-5.26,12.697l-41.536,41.536
			c-7.001,7.003-18.394,7.002-25.395,0c-7.002-7.001-7.002-18.394,0-25.395l41.537-41.536c7.001-7.002,18.394-7.001,25.395,0
			C374.69,203.797,376.558,208.306,376.558,213.103z M338.35,179.673l-14.037,14.037l-25.395-25.395l14.037-14.037
			c7.002-7.002,18.395-7.001,25.395,0C345.352,161.28,345.352,172.672,338.35,179.673z M280.007,108.151
			c3.392-3.392,7.901-5.26,12.698-5.26c4.796,0,9.306,1.868,12.697,5.26c3.392,3.392,5.26,7.901,5.26,12.697
			c0,4.797-1.868,9.306-5.26,12.698l-20.627,20.627l-19.287-19.287c-2.102-2.101-4.395-3.894-6.818-5.398L280.007,108.151z
			 M99.429,124.838l19.174-12.92c2.229-1.502,3.759-3.838,4.247-6.481c0.487-2.643-0.11-5.371-1.657-7.568L79.975,39.319
			l113.503,61.907l-14.735,11.498c-2.259,1.763-3.653,4.41-3.829,7.271c-0.176,2.86,0.884,5.658,2.91,7.685l20.595,20.594
			l-33.97,33.97c-1.274,1.274-2.506,2.578-3.717,3.896L99.429,124.838z M218.925,492.001H32.369V305.444
			c11.208,3.197,20.48,11.655,24.482,23.01c0.974,2.763,3.111,4.96,5.846,6.011c2.735,1.051,5.794,0.848,8.367-0.552
			c4.397-2.394,9.389-3.659,14.437-3.659c14.139,0,26.251,9.605,29.455,23.359c0.747,3.205,3.023,5.838,6.086,7.04
			c3.066,1.203,6.524,0.819,9.25-1.022c4.216-2.848,9.15-4.353,14.267-4.353c14.081,0,25.536,11.456,25.536,25.536
			c0,4.909-1.403,9.681-4.057,13.8c-1.727,2.68-2.072,6.023-0.93,9c1.143,2.976,3.636,5.229,6.712,6.066
			c13.126,3.569,22.294,15.572,22.294,29.189c0,5.048-1.265,10.04-3.659,14.437c-1.4,2.573-1.603,5.632-0.552,8.367
			c1.051,2.735,3.248,4.872,6.011,5.846C207.271,471.52,215.728,480.793,218.925,492.001z M241.489,377.45
			c-3.037-0.357-6.067,0.7-8.229,2.861l-28.879,28.879c-4.326-5.906-9.926-10.872-16.467-14.444c1.439-4.473,2.18-9.167,2.18-13.931
			c0-25.109-20.427-45.536-45.536-45.536c-4.912,0-9.732,0.78-14.312,2.295c-1.883-3.703-4.202-7.114-6.879-10.183l23.775-23.775
			c2.406-2.406,3.423-5.871,2.7-9.196c-7.748-35.636,2.999-72.284,28.748-98.033l47.358-47.358c7.002-7.002,18.395-7.001,25.395,0
			l58.825,58.825l-4.17,4.169c-15.7,15.701-41.248,15.701-56.948,0l-12.133-12.134c-0.008-0.009-0.017-0.017-0.025-0.025l-0.07-0.07
			l-0.003,0.003c-2.481-2.476-6.188-3.576-9.798-2.552c-5.313,1.507-8.398,7.037-6.891,12.35l10.681,37.644
			c5.45,19.207,0.065,39.908-14.052,54.025c-3.905,3.905-3.905,10.237,0,14.143c1.953,1.953,4.512,2.929,7.071,2.929
			s5.119-0.976,7.071-2.929c5.294-5.294,9.681-11.271,13.114-17.695l65.071,65.071C288.942,375.041,265.339,380.229,241.489,377.45z
			 M343.26,410.775l14.735-11.498c2.259-1.763,3.653-4.41,3.829-7.271c0.176-2.86-0.884-5.658-2.91-7.685L251.461,276.869
			c2.27-11.457,1.889-23.474-1.408-35.091l-1.536-5.415c9.963,5.466,21.148,7.917,32.209,7.334
			c-3.875,12.948-0.711,27.573,9.498,37.781c7.4,7.399,17.12,11.099,26.84,11.099c0.546,0,1.091-0.016,1.637-0.039
			c-0.439,10.258,3.245,20.662,11.061,28.477c7.401,7.4,17.119,11.101,26.84,11.1c6.944-0.001,13.884-1.9,19.983-5.677
			l60.725,60.724l-19.175,12.92c-2.229,1.502-3.759,3.838-4.246,6.481c-0.487,2.643,0.11,5.371,1.657,7.568l41.218,58.549
			L343.26,410.775z"/>
		<path style="fill:#D2DCFD;" d="M159.478,462.934c-5.523,0-10-4.477-10-10c0-6.667-5.423-12.09-12.09-12.09
			c-5.523,0-10-4.477-10-10s4.477-10,10-10c17.694,0,32.09,14.396,32.09,32.09C169.478,458.457,165.001,462.934,159.478,462.934z"/>
		<path style="fill:#D2DCFD;" d="M98.046,436.105c-5.523,0-10-4.477-10-10c0-14.638-11.909-26.547-26.547-26.547
			c-5.523,0-10-4.477-10-10s4.477-10,10-10c25.667,0,46.547,20.881,46.547,46.547C108.046,431.628,103.569,436.105,98.046,436.105z"
			/>
	</g>
</g>
<g>
</g>
<g>
</g>
<g>
</g>
<g>
</g>
<g>
</g>
<g>
</g>
<g>
</g>
<g>
</g>
<g>
</g>
<g>
</g>
<g>
</g>
<g>
</g>
<g>
</g>
<g>
</g>
<g>
</g>
</svg>
