<?xml version="1.0" encoding="iso-8859-1"?>
<!-- Generator: Adobe Illustrator 28.7.10, SVG Export Plug-In . SVG Version: 9.03 Build 57640)  -->
<svg version="1.1" id="Layer_1" xmlns="http://www.w3.org/2000/svg" xmlns:xlink="http://www.w3.org/1999/xlink" x="0px" y="0px"
	 viewBox="0 0 500 500" style="enable-background:new 0 0 500 500;" xml:space="preserve">
<g>
	<g>
		<g>
			<g>
				<rect x="127.623" y="133.602" style="fill:#FD7DA0;" width="244.755" height="356.397"/>
			</g>
			<g>
				<path style="fill:#DB4B86;" d="M372.377,197.055c-75.444,19.518-131.166,88.046-131.166,169.591
					c0,48.116,19.405,91.696,50.81,123.354h80.356V197.055z"/>
			</g>
			<g>
				<g>
					<rect x="179.15" y="180.836" style="fill:#FFFFFF;" width="47.233" height="47.233"/>
				</g>
				<g>
					<rect x="273.617" y="180.836" style="fill:#FFFFFF;" width="47.233" height="47.233"/>
				</g>
				<g>
					<rect x="179.15" y="275.303" style="fill:#FFFFFF;" width="47.233" height="47.233"/>
				</g>
				<g>
					<rect x="273.617" y="275.303" style="fill:#FFFFFF;" width="47.233" height="47.233"/>
				</g>
			</g>
			<g>
				<rect x="207.061" y="382.919" style="fill:#67CCD1;" width="85.879" height="107.081"/>
			</g>
			<g>
				<path style="fill:#27A2CC;" d="M292.021,490h0.918l0-107.081H241.97C245.806,424.546,264.198,461.953,292.021,490z"/>
			</g>
		</g>
		<g>
			<g id="XMLID_4_">
				<polygon style="fill:#FDCB50;" points="49.991,0 63.905,28.172 95,32.682 72.506,54.62 77.826,85.588 50.01,70.974 
					22.203,85.602 27.506,54.632 5,32.706 36.093,28.18 				"/>
			</g>
			<g id="XMLID_3_">
				<polygon style="fill:#FDCB50;" points="183.325,0 197.238,28.172 228.333,32.682 205.839,54.62 211.159,85.588 183.344,70.974 
					155.536,85.602 160.839,54.632 138.333,32.706 169.426,28.18 				"/>
			</g>
			<g id="XMLID_2_">
				<polygon style="fill:#FDCB50;" points="316.658,0 330.571,28.172 361.667,32.682 339.173,54.62 344.492,85.588 316.677,70.974 
					288.869,85.602 294.173,54.632 271.667,32.706 302.76,28.18 				"/>
			</g>
			<g id="XMLID_1_">
				<polygon style="fill:#FDCB50;" points="449.991,0 463.905,28.172 495,32.682 472.506,54.62 477.826,85.588 450.01,70.974 
					422.203,85.602 427.506,54.632 405,32.706 436.093,28.18 				"/>
			</g>
		</g>
		<g>
			<g>
				<path style="fill:#B1D952;" d="M467.905,335.059v-22.518c0-28.458-23.07-51.527-51.527-51.527s-51.527,23.07-51.527,51.527
					v22.518c-7.153,10.208-11.365,22.629-11.365,36.04c0,34.734,28.158,62.892,62.892,62.892c34.734,0,62.892-28.158,62.892-62.892
					C479.269,357.688,475.058,345.267,467.905,335.059z"/>
			</g>
			<g>
				<path style="fill:#91B706;" d="M416.377,301.844c0-14.178,2.548-27.76,7.204-40.318c-2.355-0.33-4.758-0.512-7.204-0.512
					c-28.458,0-51.527,23.07-51.527,51.527v22.518c-7.153,10.208-11.365,22.629-11.365,36.04c0,34.734,28.158,62.892,62.892,62.892
					c23.992,0,44.84-13.438,55.445-33.194C438.565,380.402,416.377,343.716,416.377,301.844z"/>
			</g>
		</g>
		<g>
			<path style="fill:#B1D952;" d="M118.607,433.992c-2.865,0-5.664,0.282-8.377,0.803c-8.591-7.593-19.971-12.102-32.414-11.766
				c-25.162,0.679-45.721,22.634-45.721,47.806V490h130.739v-11.782C162.834,453.792,143.033,433.992,118.607,433.992z"/>
		</g>
	</g>
	<path style="fill:#052A75;" d="M489.27,371.1c0-13.943-3.919-27.382-11.365-39.07v-19.488c0-33.926-27.601-61.527-61.527-61.527
		c-12.562,0-24.252,3.792-34,10.28V143.603h0.735c5.522,0,10-4.477,10-10s-4.478-10-10-10H116.888c-5.522,0-10,4.477-10,10
		s4.478,10,10,10h0.735v280.414c-1.498,0.028-3,0.102-4.5,0.255c-10.235-7.623-22.702-11.579-35.576-11.241
		c-14.785,0.399-28.734,6.73-39.277,17.827c-10.431,10.979-16.175,25.175-16.175,39.976V490c0,5.523,4.478,10,10,10h403.103
		c5.522,0,10-4.477,10-10s-4.478-10-10-10h-8.819v-36.711C461.854,438.397,489.27,407.898,489.27,371.1z M152.834,480H42.095v-9.166
		c0-19.969,16.482-37.283,35.991-37.809c9.415-0.257,18.476,3.035,25.522,9.263c2.321,2.052,5.461,2.91,8.507,2.328
		c2.156-0.414,4.341-0.624,6.492-0.624c18.873,0,34.227,15.354,34.227,34.227V480z M282.939,480h-65.879v-87.081h65.879V480z
		 M362.377,283.08c-4.795,8.755-7.527,18.794-7.527,29.461v19.489c-7.445,11.689-11.364,25.127-11.364,39.07
		c0,18.804,7.159,35.966,18.892,48.908V480h-59.438v-97.081c0-5.523-4.478-10-10-10h-85.879c-5.522,0-10,4.477-10,10V480h-24.227
		v-1.782c0-23.212-14.664-43.056-35.211-50.777V143.603h224.754V283.08z M406.378,480h-24.001v-44.452
		c7.35,3.893,15.44,6.56,24.001,7.741V480z M416.378,376.918c-5.522,0-10,4.477-10,10v36.113
		c-24.398-4.689-42.893-26.186-42.893-51.931c0-10.904,3.304-21.382,9.554-30.301c1.179-1.682,1.811-3.686,1.811-5.739v-22.519
		c0-22.898,18.629-41.527,41.527-41.527s41.527,18.629,41.527,41.527v22.519c0,2.054,0.632,4.058,1.811,5.739
		c6.251,8.918,9.555,19.396,9.555,30.301c0,25.745-18.494,47.241-42.892,51.931v-36.112
		C426.378,381.396,421.9,376.918,416.378,376.918z"/>
</g>
<g>
</g>
<g>
</g>
<g>
</g>
<g>
</g>
<g>
</g>
<g>
</g>
<g>
</g>
<g>
</g>
<g>
</g>
<g>
</g>
<g>
</g>
<g>
</g>
<g>
</g>
<g>
</g>
<g>
</g>
</svg>
