<?xml version="1.0" encoding="iso-8859-1"?>
<!-- Generator: Adobe Illustrator 29.3.1, SVG Export Plug-In . SVG Version: 9.03 Build 55982)  -->
<svg version="1.1" id="Capa_1" xmlns="http://www.w3.org/2000/svg" xmlns:xlink="http://www.w3.org/1999/xlink" x="0px" y="0px"
	 viewBox="0 0 510 510" style="enable-background:new 0 0 510 510;" xml:space="preserve">
<g>
	<g>
		<g>
			<g>
				<path style="fill:#B1D952;" d="M388.102,171.331v-56.459h-15.066c-3.011-12.638-7.998-24.508-14.618-35.267l10.66-10.66
					l-39.922-39.922l-10.66,10.66c-10.759-6.62-22.629-11.606-35.267-14.618V10H226.77v15.065
					c-12.638,3.011-24.508,7.998-35.267,14.618l-10.66-10.66l-39.922,39.922l10.66,10.66c-6.62,10.759-11.606,22.63-14.618,35.267
					h-15.066v56.459h15.066c3.011,12.638,7.998,24.508,14.618,35.267l-10.66,10.66l39.922,39.922l10.66-10.66
					c10.759,6.62,22.63,11.606,35.267,14.618v15.065h56.459v-15.065c12.638-3.012,24.508-7.998,35.267-14.618l10.66,10.66
					l39.922-39.922l-10.66-10.66c6.62-10.759,11.606-22.629,14.618-35.267H388.102z"/>
			</g>
			<g>
				<path style="fill:#91B706;" d="M233.098,99.102c0-31.845,7.071-62.033,19.708-89.102H226.77v15.065
					c-12.638,3.011-24.508,7.998-35.267,14.618l-10.66-10.66l-39.922,39.922l10.66,10.659c-6.62,10.76-11.606,22.63-14.618,35.267
					h-15.066v56.458h15.066c3.011,12.638,7.998,24.508,14.618,35.267l-10.66,10.66l39.922,39.922l10.66-10.66
					c10.759,6.62,22.63,11.606,35.267,14.618v15.065h56.459v-15.065c6.464-1.54,12.724-3.604,18.741-6.133
					C259.655,216.434,233.098,160.87,233.098,99.102z"/>
			</g>
		</g>
		<g>
			<g>
				<g>
					<path style="fill:#FFFFFF;" d="M118.898,412.288L118.898,412.288c-48.442,0-87.712,39.27-87.712,87.712v0H206.61v0
						C206.61,451.558,167.34,412.288,118.898,412.288z"/>
				</g>
				<g>
					<path style="fill:#D2DCFD;" d="M206.61,500c0-36.902-22.791-68.477-55.062-81.429C133.859,440.997,123.29,469.287,123.29,500v0
						l0,0L206.61,500L206.61,500z"/>
				</g>
				<g>
					<circle style="fill:#FDBEB9;" cx="118.898" cy="366.246" r="46.042"/>
				</g>
			</g>
			<g>
				<g>
					<path style="fill:#FD7DA0;" d="M391.102,412.288L391.102,412.288c-48.442,0-87.712,39.27-87.712,87.712v0h175.424v0
						C478.814,451.558,439.544,412.288,391.102,412.288z"/>
				</g>
				<g>
					<path style="fill:#DB4B86;" d="M303.395,500c0-36.902,22.791-68.477,55.062-81.429c17.689,22.426,28.258,50.716,28.258,81.428
						v0l0,0L303.395,500L303.395,500z"/>
				</g>
				<g>
					<circle style="fill:#D46B5C;" cx="391.102" cy="366.246" r="46.042"/>
				</g>
			</g>
			<g>
				<g>
					<path style="fill:#FDCB50;" d="M255.002,412.288L255.002,412.288c-48.442,0-87.712,39.27-87.712,87.712v0h175.424v0
						C342.714,451.558,303.444,412.288,255.002,412.288z"/>
				</g>
				<g>
					<path style="fill:#FD8F01;" d="M248.81,428.776c0-5.566,0.452-11.026,1.308-16.35c-46.169,2.535-82.827,40.772-82.827,87.574v0
						h124.089C265.599,481.443,248.81,462.966,248.81,428.776z"/>
				</g>
				<g>
					<circle style="fill:#FDE0BE;" cx="255.002" cy="366.246" r="46.042"/>
				</g>
			</g>
		</g>
	</g>
	<g>
		<g>
			<path style="fill:#FFFFFF;" d="M240.043,89.102c-5.523,0-10,4.477-10,10v32.491h-32V99.102c0-5.523-4.477-10-10-10
				s-10,4.477-10,10v88c0,5.523,4.477,10,10,10s10-4.477,10-10v-35.509h32v35.509c0,5.523,4.477,10,10,10s10-4.477,10-10v-88
				C250.043,93.579,245.566,89.102,240.043,89.102z"/>
			<path style="fill:#FFFFFF;" d="M306.03,153.87c14.871-3.556,25.926-16.506,25.926-31.898c0-18.125-15.326-32.87-34.164-32.87
				h-20.385c-2.658,0-5.206,1.058-7.083,2.94c-1.876,1.882-2.926,4.435-2.917,7.092l-0.029,87.967c0,5.523,4.478,10,10,10
				s10-4.477,10-10v-24.151l27.071,30.758c1.977,2.246,4.736,3.393,7.511,3.393c2.347,0,4.703-0.821,6.603-2.493
				c4.146-3.649,4.549-9.968,0.9-14.114L306.03,153.87z M297.793,109.102c7.678,0,14.164,5.894,14.164,12.87
				s-6.486,12.87-14.164,12.87c-2.675,0-6.596,0.017-10.279,0.038c-0.024-4.719-0.062-20.847-0.075-25.778H297.793z"/>
		</g>
		<g>
			<path style="fill:#052A75;" d="M427.094,409.158c12.246-10.288,20.049-25.703,20.049-42.912
				c0-30.902-25.141-56.042-56.042-56.042s-56.042,25.141-56.042,56.042c0,17.206,7.801,32.619,20.044,42.907
				c-11.87,4.704-22.78,11.734-32.079,20.772c-9.139-8.874-19.999-15.983-32.029-20.767c12.247-10.288,20.05-25.703,20.05-42.912
				c0-30.902-25.141-56.042-56.042-56.042s-56.042,25.141-56.042,56.042c0,17.209,7.803,32.624,20.049,42.912
				c-12.031,4.784-22.892,11.894-32.031,20.769c-9.3-9.039-20.212-16.069-32.082-20.774c12.243-10.288,20.044-25.701,20.044-42.907
				c0-30.902-25.14-56.042-56.042-56.042s-56.042,25.141-56.042,56.042c0,17.209,7.803,32.624,20.049,42.912
				C46.786,423.52,21.186,458.825,21.186,500c0,5.523,4.477,10,10,10h447.628c5.522,0,10-4.477,10-10
				C488.814,458.825,463.213,423.52,427.094,409.158z M355.059,366.246c0-19.874,16.168-36.042,36.042-36.042
				s36.042,16.168,36.042,36.042c0,19.869-16.161,36.035-36.029,36.042c-0.004,0-0.009,0-0.013,0c-0.004,0-0.008,0-0.012,0
				C371.221,402.281,355.059,386.115,355.059,366.246z M218.96,366.246c0-19.874,16.168-36.042,36.042-36.042
				s36.042,16.168,36.042,36.042c0,19.874-16.169,36.042-36.042,36.042S218.96,386.12,218.96,366.246z M82.856,366.246
				c0-19.874,16.168-36.042,36.042-36.042s36.042,16.168,36.042,36.042c0,19.869-16.162,36.035-36.03,36.042
				c-0.004,0-0.008,0-0.012,0c-0.004,0-0.009,0-0.013,0C99.017,402.281,82.856,386.115,82.856,366.246z M108.898,422.944v13.225
				c0,5.523,4.477,10,10,10s10-4.477,10-10v-13.231c17.089,2.211,32.976,10.046,45.18,22.358
				c-8.827,13.016-14.601,28.264-16.28,44.705H41.826C46.324,455.13,74.029,427.445,108.898,422.944z M177.931,490
				c4.498-34.87,32.203-62.555,67.071-67.056v13.224c0,5.523,4.477,10,10,10s10-4.477,10-10v-13.224
				c34.869,4.5,62.574,32.186,67.072,67.056H177.931z M352.206,490c-1.679-16.443-7.453-31.692-16.282-44.709
				c12.204-12.31,28.09-20.143,45.177-22.354v13.231c0,5.523,4.478,10,10,10s10-4.477,10-10v-13.225
				c34.869,4.501,62.574,32.186,67.072,67.056H352.206z"/>
			<path style="fill:#052A75;" d="M121.898,181.331h7.417c2.481,8.17,5.754,16.067,9.785,23.606l-5.25,5.25
				c-3.905,3.905-3.905,10.237,0,14.142l39.923,39.923c3.904,3.905,10.237,3.905,14.142,0l5.25-5.25
				c7.539,4.031,15.436,7.305,23.606,9.786v7.417c0,5.523,4.477,10,10,10h56.459c5.522,0,10-4.477,10-10v-7.417
				c8.17-2.481,16.066-5.754,23.605-9.786l5.25,5.25c3.906,3.905,10.236,3.905,14.143,0l39.922-39.922
				c3.905-3.905,3.905-10.236,0-14.142l-5.25-5.25c4.032-7.54,7.305-15.436,9.785-23.606h7.417c5.522,0,10-4.477,10-10v-56.458
				c0-5.523-4.478-10-10-10h-7.417c-2.48-8.17-5.753-16.066-9.785-23.606l5.25-5.25c3.905-3.905,3.905-10.237,0-14.142
				l-39.922-39.923c-3.905-3.904-10.235-3.904-14.143,0l-5.25,5.25c-7.539-4.031-15.436-7.305-23.605-9.785V10
				c0-5.523-4.478-10-10-10H226.77c-5.523,0-10,4.477-10,10v7.417c-8.17,2.48-16.066,5.754-23.606,9.785l-5.25-5.25
				c-3.905-3.904-10.238-3.904-14.142,0L133.85,61.875c-3.905,3.905-3.905,10.237,0,14.143l5.25,5.25
				c-4.031,7.539-7.304,15.436-9.785,23.606h-7.417c-5.523,0-10,4.477-10,10v56.458
				C111.898,176.854,116.375,181.331,121.898,181.331z M131.898,124.873h5.065c4.63,0,8.654-3.178,9.728-7.682
				c2.724-11.432,7.235-22.314,13.407-32.345c2.426-3.943,1.828-9.037-1.446-12.312l-3.589-3.588l25.78-25.78l3.588,3.589
				c3.273,3.273,8.367,3.871,12.312,1.446c10.032-6.173,20.915-10.684,32.345-13.407c4.504-1.073,7.682-5.098,7.682-9.728V20h36.459
				v5.065c0,4.63,3.179,8.654,7.683,9.728c11.43,2.724,22.312,7.234,32.344,13.407c3.942,2.426,9.036,1.829,12.312-1.445
				l3.589-3.589l25.78,25.78l-3.589,3.589c-3.274,3.274-3.872,8.368-1.445,12.311c6.173,10.033,10.683,20.915,13.406,32.344
				c1.073,4.504,5.098,7.683,9.728,7.683h5.065v36.458h-5.065c-4.63,0-8.654,3.178-9.728,7.683
				c-2.724,11.43-7.233,22.312-13.406,32.344c-2.427,3.943-1.829,9.037,1.445,12.311l3.589,3.589l-25.78,25.78l-3.589-3.589
				c-3.274-3.273-8.367-3.872-12.312-1.445c-10.031,6.172-20.914,10.683-32.345,13.407c-4.504,1.073-7.682,5.098-7.682,9.728v5.065
				H236.77v-5.065c0-4.63-3.178-8.654-7.682-9.728c-11.431-2.724-22.313-7.235-32.345-13.408c-3.944-2.427-9.037-1.828-12.312,1.446
				l-3.588,3.589l-25.78-25.78l3.589-3.588c3.274-3.274,3.872-8.368,1.446-12.312c-6.172-10.031-10.683-20.914-13.407-32.345
				c-1.073-4.503-5.098-7.682-9.728-7.682h-5.065V124.873z"/>
		</g>
	</g>
</g>
<g>
</g>
<g>
</g>
<g>
</g>
<g>
</g>
<g>
</g>
<g>
</g>
<g>
</g>
<g>
</g>
<g>
</g>
<g>
</g>
<g>
</g>
<g>
</g>
<g>
</g>
<g>
</g>
<g>
</g>
</svg>
