<?xml version="1.0" encoding="iso-8859-1"?>
<!-- Generator: Adobe Illustrator 26.5.1, SVG Export Plug-In . SVG Version: 6.00 Build 0)  -->
<svg version="1.1" id="Capa_1" xmlns="http://www.w3.org/2000/svg" xmlns:xlink="http://www.w3.org/1999/xlink" x="0px" y="0px"
	 viewBox="0 0 510 510" style="enable-background:new 0 0 510 510;" xml:space="preserve">
<g>
	<g>
		<path style="fill-rule:evenodd;clip-rule:evenodd;fill:#FDCB50;" d="M148.928,280H10c0,38.364,31.1,69.464,69.464,69.464
			S148.928,318.364,148.928,280z"/>
		<polygon style="fill-rule:evenodd;clip-rule:evenodd;fill:#BC9AF4;" points="280,86.856 255,48.428 230,86.856 230,349.999 
			280,349.999 		"/>
		<polygon style="fill-rule:evenodd;clip-rule:evenodd;fill:#FDCB50;" points="280,349.999 230,349.999 200.898,349.999 
			180.898,369.999 180.898,440 329.102,440 329.102,369.999 309.102,349.999 		"/>
		<polygon style="fill-rule:evenodd;clip-rule:evenodd;fill:#BC9AF4;" points="329.102,440 180.898,440 155,440 135,460 135,500 
			375,500 375,460 355,440 		"/>
		<path style="fill-rule:evenodd;clip-rule:evenodd;fill:#FDCB50;" d="M361.072,280c0,38.364,31.1,69.464,69.464,69.464
			S500,318.364,500,280H361.072z"/>
		<path style="fill-rule:evenodd;clip-rule:evenodd;fill:#FD8F01;" d="M242.189,440c-7.944-28.644-12.19-58.826-12.19-90h-29.102
			l-20,20V440H242.189z"/>
		<path style="fill-rule:evenodd;clip-rule:evenodd;fill:#6864F7;" d="M242.189,440h-61.292H155l-20,20v40h130.259
			C255.743,480.959,247.983,460.889,242.189,440z"/>
		<path style="fill-rule:evenodd;clip-rule:evenodd;fill:#FDCB50;" d="M230,86.856h50V35c0-13.75-11.25-25-25-25
			c-13.75,0-25,11.25-25,25V86.856z"/>
	</g>
	<path style="fill:#052A75;" d="M443.467,118.955h38.67c2.652,0,5.196-1.054,7.071-2.929l17.862-17.862
		c3.905-3.905,3.905-10.237,0-14.143s-10.237-3.905-14.143,0l-14.933,14.934h-94.918L337.05,52.928
		c-1.875-1.875-4.419-2.929-7.071-2.929L290,50V35c0-19.299-15.701-35-35-35s-35,15.701-35,35v15l-39.979,0c0,0,0,0,0,0
		c-2.652,0-5.195,1.054-7.07,2.929l-46.027,46.026H32.005L17.072,84.021c-3.905-3.905-10.237-3.905-14.143,0s-3.905,10.237,0,14.143
		l17.862,17.862c1.875,1.875,4.419,2.929,7.071,2.929h38.67L0.775,276.141C0.263,277.364,0,278.675,0,280
		c0,43.816,35.647,79.464,79.464,79.464s79.464-35.647,79.464-79.464c0-1.325-0.263-2.637-0.775-3.859L92.395,118.955h38.67
		c2.652,0,5.196-1.054,7.071-2.929L184.163,70L220,70v269.999h-19.102c-2.652,0-5.196,1.054-7.071,2.929l-20,20
		c-1.875,1.875-2.929,4.419-2.929,7.071v60H155c-2.652,0-5.196,1.054-7.071,2.929l-20,20C126.053,454.804,125,457.347,125,460v40
		c0,5.523,4.477,10,10,10h240c5.523,0,10-4.477,10-10v-40c0-2.652-1.054-5.196-2.929-7.071l-20-20
		C360.196,431.053,357.653,430,355,430h-15.898v-60c0-2.652-1.054-5.196-2.929-7.071l-20-20c-1.875-1.875-4.419-2.929-7.071-2.929
		H290V70l35.837,0l46.026,46.026c1.875,1.875,4.419,2.929,7.071,2.929h38.67l-65.758,157.186c-0.512,1.223-0.775,2.534-0.775,3.859
		c0,43.816,35.647,79.464,79.464,79.464S510,323.817,510,280c0-1.325-0.263-2.637-0.775-3.859L443.467,118.955z M79.464,339.464
		c-29.382,0-53.855-21.418-58.623-49.464h117.246C133.32,318.046,108.846,339.464,79.464,339.464z M25.023,270l54.441-130.134
		L133.905,270H25.023z M365,464.142V490H145v-25.858L159.142,450h191.716L365,464.142z M319.102,374.141V430H190.898v-55.858
		l14.142-14.142h99.92L319.102,374.141z M240,339.999V35c0-8.271,6.729-15,15-15s15,6.729,15,15v304.999H240z M430.536,139.866
		L484.977,270H376.095L430.536,139.866z M430.536,339.464c-29.382,0-53.855-21.418-58.623-49.464h117.246
		C484.391,318.046,459.918,339.464,430.536,339.464z"/>
</g>
<g>
</g>
<g>
</g>
<g>
</g>
<g>
</g>
<g>
</g>
<g>
</g>
<g>
</g>
<g>
</g>
<g>
</g>
<g>
</g>
<g>
</g>
<g>
</g>
<g>
</g>
<g>
</g>
<g>
</g>
</svg>
