<?xml version="1.0" encoding="iso-8859-1"?>
<!-- Generator: Adobe Illustrator 26.5.3, SVG Export Plug-In . SVG Version: 6.00 Build 0)  -->
<svg version="1.1" id="Capa_1" xmlns="http://www.w3.org/2000/svg" xmlns:xlink="http://www.w3.org/1999/xlink" x="0px" y="0px"
	 viewBox="0 0 511.999 511.999" style="enable-background:new 0 0 511.999 511.999;" xml:space="preserve">
<g>
	<g>
		<g>
			<path style="fill:#FDCB50;" d="M491.816,205.049c6.307,0,11.055,5.669,10.048,11.895c-6.46,39.939-41.08,70.441-82.843,70.441
				s-76.383-30.502-82.843-70.441c-1.007-6.226,3.741-11.895,10.048-11.895H491.816z"/>
		</g>
		<g>
			<path style="fill:#FDCB50;" d="M20.183,205.049c-6.307,0-11.055,5.669-10.048,11.895c6.46,39.939,41.08,70.441,82.843,70.441
				s76.383-30.502,82.843-70.441c1.007-6.226-3.741-11.895-10.048-11.895H20.183z"/>
		</g>
		<g>
			<path style="fill:#FD8F01;" d="M142.425,267.157c-34.392,0-62.29-27.769-62.517-62.108H20.183
				c-6.307,0-11.055,5.669-10.048,11.895c6.46,39.939,41.08,70.441,82.843,70.441c21.01,0,40.207-7.724,54.926-20.481
				C146.097,267.061,144.273,267.157,142.425,267.157z"/>
		</g>
		<g>
			<path style="fill:#FD8F01;" d="M468.468,267.157c-34.392,0-62.29-27.769-62.517-62.108h-59.725
				c-6.307,0-11.055,5.669-10.048,11.895c6.46,39.939,41.08,70.441,82.843,70.441c21.01,0,40.207-7.724,54.926-20.481
				C472.14,267.061,470.316,267.157,468.468,267.157z"/>
		</g>
		<g>
			<polygon style="fill:#FDCB50;" points="281.807,385.347 230.192,348.702 230.192,59.768 281.807,59.768 			"/>
		</g>
		<g>
			<path style="fill:#D46B5C;" d="M427.906,341.602L427.906,341.602c-11.091-11.091-29.073-11.091-40.164,0l-52.124,52.124
				c0.063-0.772,0.104-1.549,0.104-2.337c0-15.685-12.715-28.4-28.4-28.4H278.25c-12.88,0-25.582-3.006-37.096-8.779l0,0
				c-11.514-5.773-24.216-8.779-37.096-8.779h-13.004c-12.618,0-25.092,2.677-36.6,7.854l-8.859,3.986
				c-11.507,5.177-23.982,7.854-36.6,7.854h-77.16C19.776,365.125,10,374.9,10,386.959v69.244c0,12.059,9.776,21.835,21.835,21.835
				h285.241c11.91,0,23.304-4.865,31.542-13.467l79.289-82.805C438.997,370.675,438.997,352.693,427.906,341.602z"/>
		</g>
		<g>
			<path style="fill:#B55348;" d="M297.666,437.504c-64.721,0-122.39-30.174-159.724-77.215c-9.299,3.191-19.078,4.836-28.947,4.836
				h-77.16C19.776,365.125,10,374.9,10,386.96v69.244c0,12.059,9.776,21.835,21.835,21.835h285.241
				c11.91,0,23.304-4.865,31.541-13.467l53.439-55.809C371.522,427.008,335.822,437.504,297.666,437.504z"/>
		</g>
		<g>
			<circle style="fill:#FDCB50;" cx="256" cy="59.768" r="25.808"/>
		</g>
	</g>
	<g>
		<g>
			<path style="fill:#6864F7;" d="M50.467,202.411L92.978,95.693l42.512,106.718h19.132c0.656-2.11,0.624-4.45-0.257-6.663
				L102.718,66.1h-19.48L31.592,195.748c-0.882,2.213-0.913,4.552-0.257,6.663H50.467z"/>
			<path style="fill:#6864F7;" d="M376.51,202.411l42.511-106.718l42.511,106.718h19.132c0.656-2.11,0.624-4.45-0.257-6.663
				L428.761,66.1h-19.48l-51.646,129.648c-0.882,2.213-0.913,4.552-0.257,6.663H376.51z"/>
		</g>
		<g>
			<path style="fill:#052A75;" d="M31.8,274.726c17.003,14.612,38.73,22.659,61.178,22.659c22.448,0,44.175-8.047,61.178-22.659
				c16.813-14.449,28.014-34.403,31.537-56.185c0.953-5.891-0.713-11.869-4.572-16.402c-3.836-4.506-9.43-7.09-15.348-7.09H20.183
				c-5.917,0-11.511,2.584-15.347,7.09c-3.859,4.533-5.525,10.511-4.573,16.401C3.787,240.323,14.987,260.277,31.8,274.726z
				 M20.065,215.103c0.046-0.054,0.062-0.054,0.118-0.054h145.59c0.057,0,0.072,0,0.118,0.054c0.083,0.097,0.068,0.185,0.059,0.244
				c-2.771,17.131-11.589,32.832-24.829,44.21c-13.378,11.497-30.475,17.828-48.143,17.828c-17.667,0-34.765-6.331-48.143-17.828
				c-13.24-11.378-22.058-27.079-24.829-44.209C19.997,215.289,19.982,215.2,20.065,215.103z"/>
			<path style="fill:#052A75;" d="M507.164,202.139c-3.836-4.506-9.43-7.09-15.347-7.09h-145.59c-5.918,0-11.512,2.584-15.348,7.09
				c-3.858,4.533-5.525,10.511-4.572,16.401c3.523,21.783,14.723,41.736,31.537,56.186c17.003,14.612,38.73,22.659,61.178,22.659
				c22.448,0,44.174-8.047,61.178-22.659c16.813-14.449,28.014-34.403,31.537-56.186
				C512.689,212.65,511.022,206.672,507.164,202.139z M491.993,215.347c-2.771,17.131-11.589,32.832-24.829,44.21
				c-13.378,11.497-30.475,17.828-48.143,17.828c-17.668,0-34.765-6.331-48.143-17.828c-13.24-11.378-22.058-27.079-24.829-44.21
				c-0.009-0.059-0.024-0.147,0.059-0.244c0.046-0.054,0.061-0.054,0.118-0.054h145.59c0.057,0,0.072,0,0.118,0.054
				C492.017,215.2,492.002,215.289,491.993,215.347z"/>
			<path style="fill:#052A75;" d="M407.824,323.284c-10.257,0-19.9,3.995-27.153,11.247l-39.237,39.237
				c-6.396-12.333-19.287-20.779-34.113-20.779h-15.514V69.36h158.098c5.523,0,10-4.477,10-10s-4.477-10-10-10H290.26
				c-4.47-14.683-18.135-25.399-34.26-25.399s-29.79,10.716-34.26,25.399H62.094c-5.523,0-10,4.477-10,10s4.477,10,10,10h158.098
				v267.498c-5.325-0.944-10.731-1.426-16.135-1.426h-13.004c-14.125,0-27.819,2.938-40.702,8.734l-8.859,3.986
				c-10.285,4.627-21.218,6.974-32.497,6.974h-77.16C14.281,355.125,0,369.406,0,386.96v69.244
				c0,17.554,14.281,31.834,31.834,31.834h285.241c14.563,0,28.692-6.033,38.764-16.551l79.22-82.733
				c14.89-14.979,14.862-39.278-0.083-54.223C427.725,327.278,418.082,323.284,407.824,323.284z M256,43.961
				c8.716,0,15.808,7.091,15.808,15.808S264.716,75.576,256,75.576c-8.717,0-15.808-7.091-15.808-15.808S247.283,43.961,256,43.961z
				 M240.192,91.887c4.771,2.358,10.136,3.689,15.808,3.689c5.672,0,11.037-1.331,15.808-3.689v260.811
				c-9.083-0.816-18.023-3.342-26.172-7.428c-1.785-0.895-3.603-1.725-5.443-2.502V91.887z M420.835,374.695
				c-0.051,0.051-0.102,0.103-0.151,0.155l-79.289,82.805c-6.319,6.599-15.183,10.383-24.319,10.383H31.834
				c-6.525,0-11.834-5.309-11.834-11.834V386.96c0-6.526,5.309-11.835,11.834-11.835h77.16c14.126,0,27.82-2.938,40.703-8.734
				l8.859-3.986c10.286-4.627,21.219-6.974,32.497-6.974h13.004c11.265,0,22.543,2.669,32.614,7.718
				c12.839,6.437,27.217,9.84,41.578,9.84h29.072c10.146,0,18.4,8.254,18.4,18.4c0,10.146-8.254,18.4-18.4,18.4H206.735
				c-5.523,0-10,4.477-10,10s4.477,10,10,10h100.586c18.771,0,34.428-13.542,37.743-31.366l49.749-49.749
				c7.174-7.175,18.848-7.174,26.021,0C428.009,355.847,428.009,367.521,420.835,374.695z"/>
		</g>
	</g>
</g>
<g>
</g>
<g>
</g>
<g>
</g>
<g>
</g>
<g>
</g>
<g>
</g>
<g>
</g>
<g>
</g>
<g>
</g>
<g>
</g>
<g>
</g>
<g>
</g>
<g>
</g>
<g>
</g>
<g>
</g>
</svg>
