<?xml version="1.0" encoding="iso-8859-1"?>
<!-- Generator: Adobe Illustrator 27.5.0, SVG Export Plug-In . SVG Version: 6.00 Build 0)  -->
<svg version="1.1" id="Layer_1" xmlns="http://www.w3.org/2000/svg" xmlns:xlink="http://www.w3.org/1999/xlink" x="0px" y="0px"
	 viewBox="0 0 509.746 509.746" style="enable-background:new 0 0 509.746 509.746;" xml:space="preserve">
<g>
	<g>
		<g>
			<g id="XMLID_264_">
				<path id="XMLID_265_" style="fill:#D46B5C;" d="M149.103,259.332v38.492c0,28.489-23.095,51.584-51.584,51.584h0h0
					c-28.489,0-51.584-23.095-51.584-51.584v-38.492c0-24.61,19.951-44.561,44.561-44.561h14.046
					C129.153,214.771,149.103,234.722,149.103,259.332z"/>
			</g>
			<path style="fill:#FDCB50;" d="M149.103,259.332c0-24.61-19.951-44.561-44.561-44.561H90.496
				c-24.61,0-44.561,19.951-44.561,44.561v17.148h39.819c6.528,0,12.23-3.475,15.404-8.664l-0.018,0.065
				c3.18,5.16,8.882,8.599,15.388,8.599h32.576V259.332z"/>
			<path style="fill:#D2DCFD;" d="M10,418.958v36.102h175.038v-36.102c0-38.412-31.139-69.551-69.551-69.551H79.551
				C41.139,349.408,10,380.547,10,418.958z"/>
			<path style="fill:#93B2F4;" d="M185.038,455.061v-36.102c0-38.412-31.139-69.551-69.551-69.551h-3.521
				c-24.817,28.353-40.085,65.257-40.75,105.653H185.038z"/>
		</g>
		<g>
			<path style="fill:#D2DCFD;" d="M499.746,418.958v36.102H324.708v-36.102c0-38.412,31.139-69.551,69.551-69.551h35.937
				C468.607,349.408,499.746,380.547,499.746,418.958z"/>
			<path style="fill:#93B2F4;" d="M397.779,349.408h-3.521c-38.412,0-69.551,31.139-69.551,69.551v36.102h113.822
				C437.864,414.665,422.596,377.761,397.779,349.408z"/>
			<g>
				<path style="fill:#FDE0BE;" d="M412.227,220.589L412.227,220.589c-28.489,0-51.584,23.095-51.584,51.584v25.651
					c0,28.489,23.095,51.584,51.584,51.584h0c28.489,0,51.584-23.095,51.584-51.584v-25.651
					C463.811,243.684,440.716,220.589,412.227,220.589z"/>
				<path style="fill:#FD7DA0;" d="M463.523,266.727c-2.721-25.928-24.647-46.138-51.296-46.138h0
					c-26.649,0-48.575,20.21-51.296,46.138h11.274c6.658,0,13.102,2.171,18.524,6.036c6.064,4.323,13.482,6.868,21.498,6.868
					c8.016,0,15.434-2.545,21.498-6.868c5.422-3.865,11.865-6.036,18.524-6.036H463.523z"/>
			</g>
		</g>
		<path style="fill:#FFFFFF;" d="M137.182,457.813v37.06h235.383v-37.06c0-54.56-44.229-98.789-98.789-98.789h-37.804
			C181.411,359.024,137.182,403.253,137.182,457.813z"/>
		<path style="fill:#D2DCFD;" d="M216.782,442.969c0-36.828,21.281-68.68,52.214-83.945h-33.025
			c-54.56,0-98.789,44.229-98.789,98.789v37.06h95.312C222.571,480.02,216.782,462.172,216.782,442.969z"/>
		<polygon style="fill:#FD7DA0;" points="242.068,386.942 228.39,468.39 254.873,494.873 281.356,468.39 267.678,386.942 		"/>
		<path style="fill:#FFFFFF;" d="M230.849,359.144l23.897,27.798l-34,32.85l-31.923-48.948
			C201.433,364.031,215.693,359.88,230.849,359.144z"/>
		<path style="fill:#FFFFFF;" d="M278.643,359.144l-23.897,27.798l34,32.85l31.923-48.948
			C308.059,364.031,293.799,359.88,278.643,359.144z"/>
		<polygon style="fill:#FD7DA0;" points="278.746,359.024 278.746,334.916 230.746,334.916 230.746,359.024 254.746,386.942 		"/>
		<g id="XMLID_3_">
			<path id="XMLID_4_" style="fill:#FDBEB9;" d="M316.017,180.286v98.445c0,33.769-27.375,61.144-61.144,61.144h0h0
				c-33.769,0-61.144-27.375-61.144-61.144v-46.111c0-28.903,23.43-52.333,52.333-52.333H316.017z"/>
		</g>
		<path style="fill:#B55348;" d="M316.017,180.286h-69.954c-28.903,0-52.333,23.43-52.333,52.333v20.788h75.781
			c25.685,0,46.506-20.822,46.506-46.506V180.286z"/>
		<polygon style="fill:#FDCB50;" points="254.746,4.873 274.799,44.078 318.282,51.034 287.192,82.221 294.013,125.725 
			254.746,105.794 215.479,125.725 222.3,82.221 191.21,51.034 234.693,44.078 		"/>
	</g>
	<path style="fill:#052A75;" d="M453.978,343.042c12.185-11.259,19.833-27.36,19.833-45.219v-25.651
		c0-33.958-27.626-61.584-61.584-61.584s-61.584,27.626-61.584,61.584v25.651c0,17.855,7.645,33.953,19.825,45.211
		c-14.103,4.408-26.764,12.697-36.53,24.082c-13.27-8.813-28.611-14.792-45.193-17.066v-8.771
		c22.181-12.06,37.271-35.576,37.271-62.55v-98.444c0-5.523-4.477-10-10-10h-69.954c-34.371,0-62.333,27.962-62.333,62.333v46.111
		c0,26.869,14.976,50.302,37.017,62.404v8.952c-16.484,2.3-31.737,8.263-44.939,17.031c-9.766-11.385-22.426-19.674-36.53-24.082
		c12.18-11.259,19.825-27.356,19.825-45.211v-38.492c0-30.085-24.476-54.561-54.561-54.561H90.496
		c-30.085,0-54.561,24.476-54.561,54.561v38.492c0,17.859,7.648,33.96,19.833,45.219C23.485,353.178,0,383.375,0,418.958v36.102
		c0,5.523,4.477,10,10,10h117.182v29.813c0,5.523,4.477,10,10,10h235.383c5.523,0,10-4.477,10-10v-29.813h117.182
		c5.523,0,10-4.477,10-10v-36.102C509.746,383.375,486.261,353.177,453.978,343.042z M370.643,276.727h1.563
		c4.485,0,8.883,1.445,12.719,4.179c8.007,5.708,17.448,8.726,27.303,8.726s19.295-3.017,27.303-8.726
		c3.835-2.734,8.233-4.179,12.719-4.179h1.563v21.097c0,22.93-18.654,41.584-41.584,41.584s-41.584-18.654-41.584-41.584V276.727z
		 M412.227,230.588c17.483,0,32.47,10.85,38.608,26.166c-8.171,0.28-16.066,2.983-22.915,7.866
		c-4.599,3.278-10.025,5.011-15.693,5.011s-11.095-1.733-15.694-5.011c-6.85-4.883-14.744-7.585-22.915-7.865
		C379.757,241.438,394.744,230.588,412.227,230.588z M226.584,369.522l14.429,16.784l-18.506,17.88l-18.952-29.06
		C210.805,372.29,218.523,370.365,226.584,369.522z M282.933,369.493c8.069,0.823,15.794,2.735,23.055,5.555l-19.003,29.137
		l-18.506-17.879L282.933,369.493z M203.729,278.73v-46.111c0-23.342,18.991-42.333,42.333-42.333h59.954v88.444
		c0,28.201-22.943,51.144-51.144,51.144S203.729,306.931,203.729,278.73z M254.873,349.874c4.747,0,9.384-0.477,13.873-1.368v6.81
		l-14,16.286l-14-16.286v-6.856C245.314,349.385,250.037,349.874,254.873,349.874z M55.935,286.479h29.819
		c5.594,0,10.882-1.692,15.329-4.612c4.498,2.969,9.825,4.612,15.444,4.612h22.576v11.344c0,22.93-18.654,41.584-41.584,41.584
		s-41.584-18.654-41.584-41.584V286.479z M90.496,224.771h14.046c19.057,0,34.561,15.504,34.561,34.561v7.147h-22.576
		c-1.299,0-2.539-0.317-3.65-0.882c0.261-0.981,0.476-1.982,0.629-3.004c0.818-5.462-2.947-10.553-8.409-11.37
		c-5.465-0.821-10.553,2.947-11.37,8.409c-0.584,3.903-4.012,6.847-7.973,6.847H55.935v-7.147
		C55.935,240.275,71.439,224.771,90.496,224.771z M20,418.958c0-32.836,26.714-59.55,59.551-59.55h7.968v27.534
		c0,5.523,4.477,10,10,10s10-4.477,10-10v-27.534h7.969c17.318,0,33.5,7.451,44.734,20.267
		c-17.541,17.017-29.322,39.882-32.296,65.385H20V418.958z M362.564,484.873H147.182v-27.06c0-30.365,15.24-57.262,38.625-73.288
		l26.563,40.73c1.63,2.499,4.29,4.14,7.255,4.474c0.375,0.042,0.749,0.063,1.122,0.063c2.578,0,5.073-0.997,6.948-2.808
		l27.052-26.137l27.052,26.137c1.875,1.812,4.37,2.809,6.948,2.809c0.373,0,0.747-0.021,1.122-0.063
		c2.965-0.334,5.625-1.975,7.255-4.474l26.642-40.851c23.484,16.012,38.8,42.968,38.8,73.409V484.873z M489.746,445.061H381.82
		c-2.974-25.503-14.755-48.368-32.296-65.385c11.234-12.817,27.416-20.267,44.734-20.267h7.969v27.534c0,5.523,4.477,10,10,10
		s10-4.477,10-10v-27.534h7.969c32.836,0,59.55,26.714,59.55,59.55V445.061z"/>
</g>
<g>
</g>
<g>
</g>
<g>
</g>
<g>
</g>
<g>
</g>
<g>
</g>
<g>
</g>
<g>
</g>
<g>
</g>
<g>
</g>
<g>
</g>
<g>
</g>
<g>
</g>
<g>
</g>
<g>
</g>
</svg>
