<?xml version="1.0" encoding="iso-8859-1"?>
<!-- Generator: Adobe Illustrator 26.5.3, SVG Export Plug-In . SVG Version: 6.00 Build 0)  -->
<svg version="1.1" id="Capa_1" xmlns="http://www.w3.org/2000/svg" xmlns:xlink="http://www.w3.org/1999/xlink" x="0px" y="0px"
	 viewBox="0 0 512 512" style="enable-background:new 0 0 512 512;" xml:space="preserve">
<g>
	<g>
		<g>
			<path style="fill:#93B2F4;" d="M484.34,215.897h-10.267c-6.129,0-11.56-3.941-13.462-9.768c-2.111-6.47-4.708-12.72-7.749-18.707
				c-2.779-5.472-1.738-12.106,2.602-16.446l7.261-7.261c5.535-5.535,5.535-14.508,0-20.042l-24.164-24.164
				c-5.534-5.535-14.508-5.535-20.042,0l-7.261,7.261c-4.34,4.34-10.974,5.381-16.446,2.602c-5.987-3.041-12.237-5.637-18.707-7.749
				c-5.826-1.901-9.768-7.333-9.768-13.462V97.894c0-7.827-6.345-14.172-14.172-14.172h-34.173c-7.827,0-14.172,6.345-14.172,14.172
				v10.267c0,6.129-3.941,11.56-9.768,13.462c-6.47,2.111-12.72,4.708-18.707,7.749c-5.472,2.779-12.106,1.738-16.446-2.602
				l-7.261-7.261c-5.535-5.535-14.508-5.535-20.042,0l-24.164,24.164c-5.535,5.535-5.535,14.508,0,20.042l7.261,7.261
				c4.34,4.34,5.381,10.974,2.602,16.446c-3.04,5.987-5.637,12.237-7.749,18.707c-1.902,5.826-7.333,9.768-13.462,9.768h-10.267
				c-7.827,0-14.172,6.345-14.172,14.172v34.173c0,7.827,6.345,14.172,14.172,14.172h10.267c6.129,0,11.56,3.941,13.462,9.768
				c2.111,6.47,4.708,12.72,7.749,18.707c2.779,5.472,1.738,12.106-2.602,16.446l-7.261,7.261c-5.535,5.535-5.535,14.508,0,20.042
				l24.164,24.164c5.535,5.535,14.508,5.535,20.042,0l7.261-7.261c4.34-4.34,10.974-5.381,16.446-2.602
				c5.987,3.041,12.237,5.637,18.707,7.749c5.826,1.901,9.768,7.333,9.768,13.462v10.267c0,7.827,6.345,14.172,14.172,14.172h34.173
				c7.827,0,14.172-6.345,14.172-14.172v-10.267c0-6.129,3.941-11.56,9.768-13.462c6.47-2.112,12.72-4.708,18.707-7.749
				c5.472-2.779,12.106-1.738,16.446,2.602l7.261,7.261c5.535,5.535,14.508,5.535,20.042,0l24.164-24.164
				c5.534-5.535,5.535-14.508,0-20.042l-7.261-7.261c-4.34-4.34-5.381-10.974-2.602-16.446c3.04-5.987,5.637-12.237,7.749-18.707
				c1.901-5.826,7.333-9.768,13.462-9.768h10.267c7.827,0,14.172-6.345,14.172-14.172v-34.173
				C498.512,222.242,492.167,215.897,484.34,215.897z M335.078,300.375c-29.393,0-53.22-23.827-53.22-53.22
				c0-29.393,23.827-53.22,53.22-53.22s53.22,23.827,53.22,53.22C388.299,276.548,364.471,300.375,335.078,300.375z"/>
		</g>
		<g>
			<path style="fill:#FDCB50;" d="M273.276,10H160.313C103.265,10,57.019,56.246,57.019,113.294v62.823h273.536V67.278
				C330.555,35.644,304.91,10,273.276,10z"/>
		</g>
		<g>
			<path style="fill:#67CCD1;" d="M312.955,379.628l-68.335-24.052l-50.833,40.369l-50.833-40.369l-68.335,24.052
				c-36.627,12.891-61.13,47.493-61.13,86.322v26.009c0,5.545,4.495,10.041,10.041,10.041h170.258h180.298v-36.05
				C374.085,427.121,349.581,392.519,312.955,379.628z"/>
		</g>
		<g>
			<path style="fill:#27A2CC;" d="M100.626,434.014c0-26.437,8.114-50.977,21.979-71.276l-47.986,16.89
				c-36.627,12.891-61.13,47.493-61.13,86.322v26.009c0,5.545,4.495,10.041,10.041,10.041h96.899
				C107.893,482.364,100.626,459.038,100.626,434.014z"/>
		</g>
		<g>
			<path style="fill:#FDE0BE;" d="M291.913,217.842h14.93c16.341,0,29.588-13.247,29.588-29.588v-0.392
				c0-16.341-13.247-29.588-29.588-29.588h-14.93V217.842z"/>
		</g>
		<g>
			<polygon style="fill:#FDE0BE;" points="218,286.726 169.574,286.726 142.954,355.576 193.787,395.945 244.619,355.576 			"/>
		</g>
		<g>
			<path style="fill:#DB4B86;" d="M193.787,395.945l-31.391,33.209c-4.298,4.664-11.759,4.337-15.634-0.684l-31.116-63.282
				l33.673-26.072L193.787,395.945z"/>
		</g>
		<g>
			<path style="fill:#DB4B86;" d="M193.787,395.945l31.391,33.209c4.298,4.664,11.759,4.337,15.634-0.684l31.116-63.282
				l-33.673-26.072L193.787,395.945z"/>
		</g>
		<g>
			<path style="fill:#FDE0BE;" d="M95.66,217.842H80.73c-16.341,0-29.588-13.247-29.588-29.588v-0.392
				c0-16.341,13.247-29.588,29.588-29.588h14.93V217.842z"/>
		</g>
		<g>
			<path style="fill:#FDE0BE;" d="M291.913,158.373h-15.176c-49.944,0-98.255-17.789-136.273-50.177v0
				c-9.477,1.148-18.636,4.832-26.381,11.003c-9.339,7.44-17.397,16.684-18.237,26.799H95.66v71.963
				c0,54.194,43.933,95.095,98.126,95.095h0c54.194,0,98.127-40.902,98.127-95.096L291.913,158.373L291.913,158.373z"/>
		</g>
		<g>
			<path style="fill:#F7B073;" d="M291.913,158.373h-15.176c-49.944,0-98.255-17.789-136.273-50.177v0
				c-9.477,1.148-18.636,4.832-26.381,11.003c-9.339,7.44-17.582,16.684-18.422,26.799l0,0v64.562h0.185
				c0.84-10.115,8.898-19.359,18.237-26.799c4.514-3.596,11.836-7.066,17.161-9.335c3.934-1.677,8.45-1.017,11.797,1.646
				c37.392,29.755,85.996,46.863,133.697,46.863h15.176h0.001L291.913,158.373L291.913,158.373z"/>
		</g>
		<g>
			<path style="fill:#FFFFFF;" d="M485.523,502H342.634c-7.174,0-12.989-5.815-12.989-12.989V289.685
				c0-7.174,5.815-12.989,12.989-12.989h142.888c7.174,0,12.989,5.815,12.989,12.989v199.326
				C498.512,496.185,492.696,502,485.523,502z"/>
		</g>
	</g>
	<g>
		<g>
			<path style="fill:#67CCD1;" d="M443.846,376.523h-59.535c-5.523,0-10-4.477-10-10s4.477-10,10-10h59.535c5.523,0,10,4.477,10,10
				S449.369,376.523,443.846,376.523z"/>
		</g>
		<g>
			<path style="fill:#67CCD1;" d="M443.846,334.837h-59.535c-5.523,0-10-4.477-10-10s4.477-10,10-10h59.535c5.523,0,10,4.477,10,10
				S449.369,334.837,443.846,334.837z"/>
		</g>
		<g>
			<path style="fill:#67CCD1;" d="M443.846,420.191h-59.535c-5.523,0-10-4.477-10-10s4.477-10,10-10h59.535c5.523,0,10,4.477,10,10
				S449.369,420.191,443.846,420.191z"/>
		</g>
		<g>
			<path style="fill:#67CCD1;" d="M443.846,463.859h-59.535c-5.523,0-10-4.477-10-10s4.477-10,10-10h59.535c5.523,0,10,4.477,10,10
				S449.369,463.859,443.846,463.859z"/>
		</g>
		<path style="fill:#052A75;" d="M485.523,266.696H342.634c-12.676,0-22.989,10.313-22.989,22.989v81.766
			c-1.117-0.438-2.241-0.858-3.371-1.256l-39.502-13.903l-30.193-23.378L239.15,313.7c34.468-15.111,58.75-47.147,62.305-85.858
			h5.389c21.829,0,39.588-17.759,39.588-39.588v-0.392c0-7.595-2.154-14.694-5.877-20.727V67.512
			C340.554,30.286,310.269,0,273.043,0H160.735C98.032,0,47.019,51.013,47.019,113.716v53.42
			c-3.723,6.033-5.876,13.132-5.876,20.726v0.392c0,21.829,17.759,39.588,39.587,39.588h5.389
			c3.555,38.71,27.836,70.747,62.305,85.858l-7.429,19.214l-30.224,23.401c-0.078,0.025-0.156,0.042-0.233,0.069l-39.239,13.811
			C30.74,384.471,3.489,422.952,3.489,465.95v26.009C3.489,503.01,12.479,512,23.53,512h461.993
			c12.676,0,22.989-10.313,22.989-22.989V289.685C508.511,277.009,498.199,266.696,485.523,266.696z M326.431,188.254
			c0,10.801-8.787,19.588-19.588,19.588h-4.93v-39.568h4.93c10.801,0,19.588,8.787,19.588,19.588V188.254z M160.735,20h112.308
			c26.198,0,47.512,21.314,47.512,47.512v83.213c-4.274-1.583-8.893-2.451-13.711-2.451l-30.107,0.099
			c-47.521,0-93.614-16.972-129.788-47.789c-2.127-1.812-4.916-2.651-7.688-2.315c-11.538,1.398-22.399,5.931-31.409,13.109
			c-12.724,10.136-20.013,20.728-21.7,31.515c-0.319,0.977-0.491,5.382-0.491,5.382H80.73c-4.818,0-9.437,0.868-13.711,2.451
			v-37.009C67.019,62.041,109.06,20,160.735,20z M61.142,188.254v-0.392c0-10.801,8.787-19.588,19.587-19.588h4.931v39.568H80.73
			C69.929,207.842,61.142,199.055,61.142,188.254z M105.66,217.961v-0.119v-59.568v-10.361c0.069-0.356,0.12-0.719,0.15-1.088
			c0.473-5.698,5.624-12.732,14.502-19.805c5.041-4.016,10.949-6.813,17.274-8.203c39.223,31.993,88.445,49.556,139.149,49.556
			h5.177v49.469v0.119c0,47.717-38.71,85.095-88.127,85.095C144.37,303.056,105.66,265.678,105.66,217.961z M193.787,323.056
			c9.126,0,17.952-1.053,26.366-3.031l6.728,17.401l-33.094,42.292l-33.094-42.292l6.728-17.401
			C175.835,322.003,184.66,323.056,193.787,323.056z M23.489,491.959V465.95c0-34.527,21.882-65.427,54.45-76.889
			c0,0,39.836-14.041,40.123-14.173c1.308-0.325,2.572-0.915,3.706-1.793l25.806-19.981l38.338,48.993
			c0.01,0.012,0.026,0.02,0.036,0.032c0.483,0.611,1.036,1.18,1.677,1.681c1.829,1.431,4,2.125,6.156,2.125
			c2.97,0,5.91-1.318,7.882-3.838L240,353.114l25.806,19.981c1.109,0.859,2.343,1.445,3.621,1.775
			c0.225,0.098,40.208,14.191,40.208,14.191c3.424,1.205,6.788,2.653,10.011,4.297v95.654c0,1.013,0.073,2.01,0.201,2.989H193.787
			L23.489,491.959z M488.511,489.011c0,1.648-1.341,2.989-2.989,2.989H342.687h-0.053c-1.648,0-2.989-1.341-2.989-2.989V289.685
			c0-1.648,1.341-2.989,2.989-2.989h142.889c1.648,0,2.989,1.341,2.989,2.989V489.011z"/>
	</g>
</g>
<g>
</g>
<g>
</g>
<g>
</g>
<g>
</g>
<g>
</g>
<g>
</g>
<g>
</g>
<g>
</g>
<g>
</g>
<g>
</g>
<g>
</g>
<g>
</g>
<g>
</g>
<g>
</g>
<g>
</g>
</svg>
