<?xml version="1.0" encoding="iso-8859-1"?>
<!-- Generator: Adobe Illustrator 26.5.1, SVG Export Plug-In . SVG Version: 6.00 Build 0)  -->
<svg version="1.1" id="Capa_1" xmlns="http://www.w3.org/2000/svg" xmlns:xlink="http://www.w3.org/1999/xlink" x="0px" y="0px"
	 viewBox="0 0 509.999 509.999" style="enable-background:new 0 0 509.999 509.999;" xml:space="preserve">
<g>
	<g>
		<path style="fill-rule:evenodd;clip-rule:evenodd;fill:#FD8F01;" d="M10,353.124v-87.5c0-24.497,16.165-42.33,40-50l31.078-10
			l25-63.75c7.507-19.142,19.967-30,45-30h168l69.843,93.75l71.079,10c24.794,3.488,40,25.504,40,50v87.5
			C336.666,353.124,173.333,353.124,10,353.124z"/>
		<polygon style="fill-rule:evenodd;clip-rule:evenodd;fill:#FFFFFF;" points="9.999,313.124 159.699,308.124 500,308.124 
			500,353.124 9.999,353.124 		"/>
		<polygon style="fill-rule:evenodd;clip-rule:evenodd;fill:#67CCD1;" points="244.999,111.875 244.999,205.624 388.921,205.624 
			319.078,111.875 		"/>
		<circle style="fill-rule:evenodd;clip-rule:evenodd;fill:#6864F7;" cx="382.499" cy="330.624" r="67.5"/>
		<circle style="fill-rule:evenodd;clip-rule:evenodd;fill:#FFFFFF;" cx="382.499" cy="330.624" r="22.5"/>
		<path style="fill-rule:evenodd;clip-rule:evenodd;fill:#FD6050;" d="M10,353.124v-87.5c0-24.497,16.165-42.33,40-50l31.078-10
			l25-63.75c7.107-18.125,18.658-28.82,41.115-29.906c-5.893,24.916-9.027,50.899-9.027,77.615
			c0,59.374,15.421,115.137,42.445,163.541H10z"/>
		<path style="fill-rule:evenodd;clip-rule:evenodd;fill:#D2DCFD;" d="M9.999,308.124h149.7c5.878,15.586,12.882,30.617,20.911,45
			H9.999V308.124z"/>
		<circle style="fill-rule:evenodd;clip-rule:evenodd;fill:#6864F7;" cx="127.5" cy="330.624" r="67.5"/>
		<circle style="fill-rule:evenodd;clip-rule:evenodd;fill:#FFFFFF;" cx="127.5" cy="330.624" r="22.5"/>
		<path style="fill-rule:evenodd;clip-rule:evenodd;fill:#67CCD1;" d="M106.078,141.874l-25,63.75h118.924v-93.75h-48.924
			C126.045,111.875,113.584,122.732,106.078,141.874z"/>
		<path style="fill-rule:evenodd;clip-rule:evenodd;fill:#27A2CC;" d="M106.078,141.874l-25,63.75h57.478
			c-0.25-5.317-0.39-10.662-0.39-16.041c0-26.717,3.135-52.699,9.027-77.615C124.736,113.054,113.185,123.75,106.078,141.874z"/>
	</g>
	<g>
		<path style="fill:#052A75;" d="M497.233,226.662c-8.809-11.491-21.537-18.928-35.84-20.94l-66.947-9.419l-67.35-90.402
			c-1.888-2.533-4.86-4.026-8.02-4.026H151.078c-27.328,0-44.586,11.55-54.31,36.349L73.5,197.558l-26.564,8.547
			C17.546,215.562,0,237.812,0,265.624v87.5c0,5.523,4.478,10,10,10h47.147c12.312,26.545,39.217,45,70.353,45
			c31.135,0,58.04-18.455,70.352-45h114.295c12.312,26.545,39.217,45,70.352,45c31.135,0,58.041-18.455,70.353-45h47.147
			c5.522,0,10-4.477,10-10v-87.5C509.999,251.238,505.466,237.401,497.233,226.662z M369,195.624H254.999v-73.75h59.058L369,195.624
			z M115.388,145.524c6.674-17.019,16.681-23.65,35.69-23.65h38.923v73.75h-94.26L115.388,145.524z M127.5,388.125
			c-31.706,0-57.501-25.794-57.501-57.5s25.795-57.5,57.501-57.5s57.5,25.794,57.5,57.5S159.206,388.125,127.5,388.125z
			 M382.499,388.125c-31.706,0-57.5-25.794-57.5-57.5s25.794-57.5,57.5-57.5S440,298.918,440,330.624
			S414.205,388.125,382.499,388.125z M489.999,343.124h-31.007c0.663-4.07,1.008-8.245,1.008-12.5c0-42.734-34.767-77.5-77.501-77.5
			c-42.733,0-77.5,34.767-77.5,77.5c0,4.255,0.345,8.43,1.008,12.5H203.992c0.663-4.07,1.008-8.245,1.008-12.5
			c0-42.734-34.767-77.5-77.5-77.5c-42.734,0-77.501,34.767-77.501,77.5c0,4.255,0.345,8.43,1.008,12.5H20v-77.5
			c0-18.965,12.051-33.72,33.062-40.48l29.586-9.52h117.354c5.522,0,10-4.477,10-10v-83.75h24.998v83.75c0,5.523,4.478,10,10,10
			h143.222l70.385,9.902c18.483,2.601,31.393,19.089,31.393,40.098V343.124z"/>
		<g>
			<path style="fill:#FFFFFF;" d="M264.999,260.625h-20c-5.522,0-10-4.477-10-10s4.478-10,10-10h20c5.522,0,10,4.477,10,10
				S270.521,260.625,264.999,260.625z"/>
		</g>
	</g>
</g>
<g>
</g>
<g>
</g>
<g>
</g>
<g>
</g>
<g>
</g>
<g>
</g>
<g>
</g>
<g>
</g>
<g>
</g>
<g>
</g>
<g>
</g>
<g>
</g>
<g>
</g>
<g>
</g>
<g>
</g>
</svg>
