<?xml version="1.0" encoding="iso-8859-1"?>
<!-- Generator: Adobe Illustrator 27.2.0, SVG Export Plug-In . SVG Version: 6.00 Build 0)  -->
<svg version="1.1" id="Capa_1" xmlns="http://www.w3.org/2000/svg" xmlns:xlink="http://www.w3.org/1999/xlink" x="0px" y="0px"
	 viewBox="0 0 509.911 509.911" style="enable-background:new 0 0 509.911 509.911;" xml:space="preserve">
<g>
	<g>
		<g>
			<path style="fill:#FDCB50;" d="M394.58,128.839c0,65.873-53.4,119.273-119.273,119.273c-158.043-5.847-158-232.723,0.001-238.546
				C341.18,9.566,394.58,62.966,394.58,128.839z"/>
			<path style="fill:#FD8F01;" d="M196.68,107.2c0-41.145,22.775-76.966,56.403-95.559c-55.251,10.414-97.048,58.921-97.048,117.197
				c0.71,122.236,162.311,163.74,222.592,59.626C310.321,251.111,195.856,200.943,196.68,107.2z"/>
		</g>
		<g>
			<path style="fill:#FDBEB9;" d="M489.425,236.896L489.425,236.896c-14.101-14.093-36.964-14.093-51.065-0.001L326.271,348.919
				c2.229-21.131-14.733-39.932-36.016-39.805c0,0-151.645,0-151.645,0c-57.904-0.245-84.044,40.85-122.293,75.899l1.129,108.978
				l43.38-32.105h221.271c21.474-0.155,42.024-8.749,57.209-23.925l150.119-150.031
				C503.526,273.838,503.526,250.989,489.425,236.896z"/>
			<path style="fill:#FD7DA0;" d="M245.039,461.886H60.829l-50.828,37.615l0.048-108.4l51.6-50.125
				c10.92-10.92,23.94-19.28,38.09-24.69C105.849,385.596,165.259,442.996,245.039,461.886z"/>
		</g>
	</g>
	<g>
		<path style="fill:#052A75;" d="M496.494,229.822c-17.976-17.967-47.226-17.967-65.203,0l-98.209,98.151
			c-6.867-16.907-23.477-28.859-42.827-28.859H138.609c-31.715,0-61.535,12.334-83.972,34.731L3.081,383.929
			c-3.961,3.849-4.053,10.18-0.205,14.141c3.849,3.962,10.18,4.054,14.141,0.205c0.102-0.1,51.613-50.136,51.705-50.229
			c18.667-18.657,43.487-28.931,69.887-28.931h151.646c34.638,1.315,34.832,51.063,0,52.353c0,0-112.775,0-112.775,0
			c-5.523,0-10,4.478-10,10c0,5.522,4.477,10,10,10h112.775c22.574,0,41.478-16.015,45.435-37.823l109.74-109.675
			c16.16-16.307,44.704-4.667,44.571,18.445c0,6.966-2.715,13.517-7.645,18.444L332.237,430.889
			c-13.411,13.404-31.244,20.861-50.141,20.998H60.826c-2.142,0-4.227,0.688-5.949,1.962L4.052,491.463
			c-4.44,3.285-5.375,9.548-2.089,13.987c3.306,4.466,9.589,5.355,13.987,2.089l48.174-35.652h218.044
			c24.254-0.176,47.057-9.712,64.207-26.852l150.119-150.031C514.378,277.853,514.388,246.974,496.494,229.822z"/>
		<path style="fill:#052A75;" d="M275.307,258.112c71.281,0,129.273-57.992,129.273-129.273
			c-6.499-171.262-252.074-171.215-258.547,0.002C146.034,200.12,204.026,258.112,275.307,258.112z M275.307,19.566
			c60.254,0,109.273,49.02,109.273,109.272c-5.493,144.767-213.075,144.728-218.547-0.001
			C166.034,68.586,215.053,19.566,275.307,19.566z"/>
		<path style="fill:#052A75;" d="M265.307,179.76v10.162c0,5.523,4.478,10,10,10c5.522,0,10-4.477,10-10v-9.512
			c31.443-6.744,40.654-46.382,2.838-60.305c-10.512-3.878-20.292-8.104-23.187-9.372c-2.608-2.044-2.523-4.922-2.353-6.114
			c0.231-1.609,1.392-5.54,7.16-7.277c12.252-3.693,23.552,5.243,23.876,5.502c4.226,3.512,10.5,2.95,14.042-1.26
			c3.554-4.228,3.007-10.536-1.221-14.09c-0.523-0.439-8.925-7.362-21.156-10.024v-9.714c0-5.523-4.478-10-10-10
			c-5.522,0-10,4.477-10,10v10.078c-23.742,5.454-31.414,36.472-10.744,50.029c2.599,1.469,11.781,5.372,26.66,11.005
			c3.858,1.423,12.698,5.46,11.494,12.204c-0.889,4.979-6.89,10.129-15.393,10.129c-8.59,0-16.862-3.47-22.129-9.28
			c-3.708-4.094-10.033-4.403-14.125-0.695c-4.092,3.709-4.403,10.033-0.694,14.125C246.781,172.419,255.635,177.444,265.307,179.76
			z"/>
	</g>
</g>
<g>
</g>
<g>
</g>
<g>
</g>
<g>
</g>
<g>
</g>
<g>
</g>
<g>
</g>
<g>
</g>
<g>
</g>
<g>
</g>
<g>
</g>
<g>
</g>
<g>
</g>
<g>
</g>
<g>
</g>
</svg>
