<?xml version="1.0" encoding="iso-8859-1"?>
<!-- Generator: Adobe Illustrator 27.0.0, SVG Export Plug-In . SVG Version: 6.00 Build 0)  -->
<svg version="1.1" id="Capa_1" xmlns="http://www.w3.org/2000/svg" xmlns:xlink="http://www.w3.org/1999/xlink" x="0px" y="0px"
	 viewBox="0 0 512 512" style="enable-background:new 0 0 512 512;" xml:space="preserve">
<g>
	<g>
		<g>
			
				<ellipse transform="matrix(0.7071 -0.7071 0.7071 0.7071 -106.0389 256.0002)" style="fill-rule:evenodd;clip-rule:evenodd;fill:#FFFFFF;" cx="256" cy="256" rx="246" ry="246"/>
			<path style="fill-rule:evenodd;clip-rule:evenodd;fill:#D2DCFD;" d="M179.94,207.182c3.642-74.681,31.567-142.984,76.047-197.182
				C120.131,10.007,10,120.143,10,256c0,135.862,110.138,246,246,246c20.584,0,40.577-2.528,59.686-7.291
				c-63.111-46.969-109.244-115.476-127.516-194.643c-5.65-24.481-8.636-49.981-8.636-76.179
				C179.534,218.287,179.671,212.717,179.94,207.182z"/>
		</g>
		
			<ellipse transform="matrix(0.7071 -0.7071 0.7071 0.7071 -139.8591 174.3511)" style="fill-rule:evenodd;clip-rule:evenodd;fill:#6864F7;" cx="140.531" cy="256" rx="25.102" ry="25.102"/>
		
			<ellipse transform="matrix(0.7071 -0.7071 0.7071 0.7071 -106.0389 256.0002)" style="fill-rule:evenodd;clip-rule:evenodd;fill:#BC9AF4;" cx="256" cy="256" rx="25.102" ry="25.102"/>
		<circle style="fill-rule:evenodd;clip-rule:evenodd;fill:#BC9AF4;" cx="371.469" cy="256" r="25.102"/>
	</g>
	<g>
		<g>
			<path style="fill:#052A75;" d="M256,512C114.841,512,0,397.159,0,256C0,114.841,114.841,0,256,0s256,114.841,256,256
				C512,397.159,397.159,512,256,512z M256,20C125.869,20,20,125.87,20,256c0,130.13,105.869,236,236,236s236-105.869,236-236
				C492,125.87,386.131,20,256,20z"/>
		</g>
		<g>
			<path style="fill:#052A75;" d="M140.531,291.102c-19.355,0-35.103-15.747-35.103-35.102c0-19.355,15.747-35.102,35.103-35.102
				s35.102,15.747,35.102,35.102C175.633,275.355,159.887,291.102,140.531,291.102z M140.531,240.898
				c-8.327,0-15.103,6.775-15.103,15.102s6.775,15.102,15.103,15.102s15.102-6.774,15.102-15.102S148.858,240.898,140.531,240.898z"
				/>
		</g>
		<g>
			<path style="fill:#052A75;" d="M256,291.102c-19.355,0-35.102-15.747-35.102-35.102c0-19.355,15.746-35.102,35.102-35.102
				s35.103,15.747,35.103,35.102C291.103,275.355,275.355,291.102,256,291.102z M256,240.898c-8.327,0-15.102,6.775-15.102,15.102
				s6.774,15.102,15.102,15.102s15.103-6.774,15.103-15.102S264.327,240.898,256,240.898z"/>
		</g>
		<g>
			<path style="fill:#052A75;" d="M371.47,291.102c-19.355,0-35.103-15.747-35.103-35.102c0-19.355,15.747-35.102,35.103-35.102
				s35.102,15.747,35.102,35.102C406.571,275.355,390.825,291.102,371.47,291.102z M371.47,240.898
				c-8.327,0-15.103,6.775-15.103,15.102s6.775,15.102,15.103,15.102s15.102-6.774,15.102-15.102S379.797,240.898,371.47,240.898z"
				/>
		</g>
	</g>
</g>
<g>
</g>
<g>
</g>
<g>
</g>
<g>
</g>
<g>
</g>
<g>
</g>
<g>
</g>
<g>
</g>
<g>
</g>
<g>
</g>
<g>
</g>
<g>
</g>
<g>
</g>
<g>
</g>
<g>
</g>
</svg>
