<?xml version="1.0" encoding="iso-8859-1"?>
<!-- Generator: Adobe Illustrator 26.5.1, SVG Export Plug-In . SVG Version: 6.00 Build 0)  -->
<svg version="1.1" id="Capa_1" xmlns="http://www.w3.org/2000/svg" xmlns:xlink="http://www.w3.org/1999/xlink" x="0px" y="0px"
	 viewBox="0 0 490 490" style="enable-background:new 0 0 490 490;" xml:space="preserve">
<g>
	<g>
		<circle style="fill:#FDCB50;" cx="466" cy="365.547" r="24"/>
		<g>
			<circle style="fill:#FDCB50;" cx="245" cy="58.397" r="40"/>
		</g>
		<circle style="fill:#B1D952;" cx="440.018" cy="171.357" r="32"/>
		<circle style="fill:#FD7DA0;" cx="49.982" cy="171.357" r="32"/>
		<circle style="fill:#B1D952;" cx="24" cy="365.547" r="24"/>
		<g>
			<g id="XMLID_610_">
				<path id="XMLID_613_" style="fill:#FDE0BE;" d="M301.295,251.878v41.912c0,31.02-25.147,56.168-56.168,56.168h0h0
					c-31.02,0-56.168-25.147-56.168-56.168v-41.912c0-26.797,21.723-48.52,48.52-48.52h15.294
					C279.571,203.358,301.295,225.081,301.295,251.878z"/>
			</g>
			<path style="fill:#FDCB50;" d="M301.294,251.878c0-26.797-21.723-48.52-48.52-48.52H237.48c-26.797,0-48.52,21.723-48.52,48.52
				v18.671h43.358c7.108,0,13.317-3.784,16.772-9.434l-0.02,0.071c3.462,5.618,9.671,9.363,16.755,9.363h35.47V251.878z"/>
			<path style="fill:#BC9AF4;" d="M137.014,421.613l0,39.99H353.24v-39.99c0-39.574-32.081-71.655-71.655-71.655h-72.917
				C169.095,349.958,137.014,382.039,137.014,421.613z"/>
			<path style="fill:#6864F7;" d="M218.114,393.825c0-15.67,3.461-30.53,9.649-43.867h-19.095
				c-39.574,0-71.655,32.081-71.655,71.655v39.99h106.115C227.535,443.368,218.114,419.698,218.114,393.825z"/>
		</g>
	</g>
	<g>
		<g>
			<path style="fill:#93B2F4;" d="M398,375.546h-14.127c-5.523,0-10-4.477-10-10s4.477-10,10-10H398c5.523,0,10,4.477,10,10
				S403.523,375.546,398,375.546z"/>
		</g>
		<g>
			<path style="fill:#93B2F4;" d="M245,168.524c-5.523,0-10-4.477-10-10v-16c0-5.523,4.477-10,10-10s10,4.477,10,10v16
				C255,164.047,250.523,168.524,245,168.524z"/>
		</g>
		<g>
			<path style="fill:#93B2F4;" d="M372.531,248.844c-2.559,0-5.119-0.976-7.071-2.929c-3.905-3.905-3.905-10.237,0-14.143
				l11.313-11.313c3.905-3.905,10.237-3.905,14.143,0c3.905,3.905,3.905,10.237,0,14.143l-11.313,11.313
				C377.649,247.868,375.09,248.844,372.531,248.844z"/>
		</g>
		<g>
			<path style="fill:#93B2F4;" d="M106.127,375.546H92c-5.523,0-10-4.477-10-10s4.477-10,10-10h14.127c5.523,0,10,4.477,10,10
				S111.65,375.546,106.127,375.546z"/>
		</g>
		<g>
			<path style="fill:#93B2F4;" d="M117.469,248.844c-2.559,0-5.119-0.976-7.071-2.929l-11.313-11.313
				c-3.905-3.905-3.905-10.237,0-14.143c3.905-3.905,10.237-3.905,14.143,0l11.313,11.313c3.905,3.905,3.905,10.237,0,14.143
				C122.588,247.868,120.028,248.844,117.469,248.844z"/>
		</g>
		<path style="fill:#052A75;" d="M291.823,340.623c12.021-11.987,19.472-28.555,19.472-46.833v-41.912
			c0-32.268-26.252-58.521-58.521-58.521H237.48c-32.268,0-58.521,26.252-58.521,58.521v41.912c0,18.277,7.45,34.846,19.472,46.833
			c-40.207,5.055-71.418,39.435-71.418,80.99v39.99c0,5.523,4.477,10,10,10H353.24c5.523,0,10-4.477,10-10v-39.99
			C363.24,380.058,332.029,345.678,291.823,340.623z M198.959,293.79v-13.241h33.357c6.203,0,11.966-1.917,16.732-5.185
			c4.848,3.331,10.646,5.185,16.775,5.185h25.47v13.241c0,25.457-20.71,46.168-46.167,46.168S198.959,319.247,198.959,293.79z
			 M237.48,213.357h15.294c21.24,0,38.521,17.28,38.521,38.521v8.671h-25.47c-1.813,0-3.531-0.509-5.017-1.413
			c0.761-2.622,1.177-5.39,1.177-8.255c0-5.523-4.477-10-10-10s-10,4.477-10,10c0,5.331-4.337,9.667-9.667,9.667h-33.357v-8.671
			C198.959,230.638,216.24,213.357,237.48,213.357z M343.24,451.603H147.014v-29.99c0-33.997,27.658-61.655,61.655-61.655h26.458
			v37.744c0,5.523,4.477,10,10,10s10-4.477,10-10v-37.744h26.458c33.997,0,61.655,27.658,61.655,61.655V451.603z"/>
	</g>
</g>
<g>
</g>
<g>
</g>
<g>
</g>
<g>
</g>
<g>
</g>
<g>
</g>
<g>
</g>
<g>
</g>
<g>
</g>
<g>
</g>
<g>
</g>
<g>
</g>
<g>
</g>
<g>
</g>
<g>
</g>
</svg>
