<?xml version="1.0" encoding="iso-8859-1"?>
<!-- Generator: Adobe Illustrator 27.2.0, SVG Export Plug-In . SVG Version: 6.00 Build 0)  -->
<svg version="1.1" id="Capa_1" xmlns="http://www.w3.org/2000/svg" xmlns:xlink="http://www.w3.org/1999/xlink" x="0px" y="0px"
	 viewBox="0 0 510 510" style="enable-background:new 0 0 510 510;" xml:space="preserve">
<g>
	<g>
		<g>
			<path style="fill:#85B3F7;" d="M140.467,130.508h-90.63C27.835,130.508,10,112.673,10,90.671l0,0h170.305
				C180.305,112.673,162.469,130.508,140.467,130.508z"/>
		</g>
		<g>
			<rect x="29.919" y="9.502" style="fill:#FFCC43;" width="130.467" height="80.671"/>
		</g>
		<g>
			<path style="fill:#85B3F7;" d="M460.163,130.508h-90.63c-22.002,0-39.837-17.835-39.837-39.837l0,0H500
				C500,112.673,482.165,130.508,460.163,130.508z"/>
		</g>
		<g>
			<rect x="349.614" y="9.502" style="fill:#FFCC43;" width="130.467" height="80.671"/>
		</g>
		<g>
			<path style="fill:#85B3F7;" d="M460.163,499.751h-90.63c-22.002,0-39.837-17.835-39.837-39.837l0,0H500
				C500,481.916,482.165,499.751,460.163,499.751z"/>
		</g>
		<g>
			<rect x="349.614" y="378.745" style="fill:#FFCC43;" width="130.467" height="80.671"/>
		</g>
		<g>
			<path style="fill:#85B3F7;" d="M140.467,499.751h-90.63C27.835,499.751,10,481.916,10,459.914l0,0h170.305
				C180.305,481.916,162.469,499.751,140.467,499.751z"/>
		</g>
		<g>
			<rect x="29.919" y="378.745" style="fill:#FFCC43;" width="130.467" height="80.671"/>
		</g>
	</g>
	<g>
		<g>
			<path style="fill:#FF604E;" d="M235.078,90.173c0-11.001,8.918-19.919,19.919-19.919c26.393,0.976,26.386,38.865,0,39.837
				C243.996,110.091,235.078,101.174,235.078,90.173z"/>
		</g>
		<g>
			<path style="fill:#FF604E;" d="M399.411,259.98c0-11.001,8.918-19.919,19.919-19.919c26.393,0.976,26.386,38.865,0,39.837
				C408.328,279.898,399.411,270.981,399.411,259.98z"/>
		</g>
		<g>
			<path style="fill:#FF604E;" d="M70.752,260.087c0-11.001,8.918-19.919,19.919-19.919c26.393,0.976,26.386,38.865,0,39.837
				C79.67,280.005,70.752,271.088,70.752,260.087z"/>
		</g>
		<g>
			<path style="fill:#FF604E;" d="M235.081,459.416c0-11.001,8.918-19.919,19.919-19.919c26.393,0.976,26.386,38.865,0,39.837
				C243.999,479.334,235.081,470.417,235.081,459.416z"/>
		</g>
	</g>
	<g>
		<g>
			<g>
				<rect x="150.427" y="220.142" style="fill:#CFDDFE;" width="209.146" height="79.675"/>
			</g>
			<g>
				<path style="fill:#85B3F7;" d="M222.14,299.82h-71.71v-79.68h62.64C193.256,245.036,198.125,278.556,222.14,299.82z"/>
			</g>
		</g>
	</g>
</g>
<g>
	<g>
		<g>
			<path style="fill:#FF604E;" d="M255,230.142c-5.523,0-10-4.477-10-10V110.589c0-5.523,4.477-10,10-10c5.522,0,10,4.477,10,10
				v109.553C265,225.665,260.522,230.142,255,230.142z"/>
		</g>
		<g>
			<path style="fill:#FF604E;" d="M90.671,250.061c-5.523,0-10-4.477-10-10V130.508c0-5.523,4.477-10,10-10s10,4.477,10,10v109.553
				C100.671,245.584,96.194,250.061,90.671,250.061z"/>
		</g>
		<g>
			<path style="fill:#FF604E;" d="M90.671,389.492c-5.523,0-10-4.477-10-10v-99.593c0-5.523,4.477-10,10-10s10,4.477,10,10v99.593
				C100.671,385.015,96.194,389.492,90.671,389.492z"/>
		</g>
		<g>
			<path style="fill:#FF604E;" d="M255,449.248c-5.523,0-10-4.477-10-10V299.817c0-5.523,4.477-10,10-10c5.522,0,10,4.477,10,10
				v139.431C265,444.771,260.522,449.248,255,449.248z"/>
		</g>
		<g>
			<path style="fill:#FF604E;" d="M235.081,470.163h-54.776c-13.236-0.483-13.261-19.507,0-20c0,0,54.776,0,54.776,0
				c5.523,0,10,4.477,10,10S240.604,470.163,235.081,470.163z"/>
		</g>
		<g>
			<path style="fill:#FF604E;" d="M339.654,470.163h-64.735c-13.233-0.482-13.263-19.506,0-20c0,0,64.735,0,64.735,0
				c5.522,0,10,4.477,10,10S345.177,470.163,339.654,470.163z"/>
		</g>
		<g>
			<path style="fill:#FF604E;" d="M150.427,269.979h-39.837c-13.24-0.485-13.257-19.508,0-20c0,0,39.837,0,39.837,0
				c5.523,0,10,4.477,10,10S155.95,269.979,150.427,269.979z"/>
		</g>
		<g>
			<path style="fill:#FF604E;" d="M419.329,250.061c-5.522,0-10-4.477-10-10V130.508c0-5.523,4.478-10,10-10s10,4.477,10,10v109.553
				C429.329,245.584,424.852,250.061,419.329,250.061z"/>
		</g>
		<g>
			<path style="fill:#FF604E;" d="M419.329,389.492c-5.522,0-10-4.477-10-10v-99.593c0-5.523,4.478-10,10-10s10,4.477,10,10v99.593
				C429.329,385.015,424.852,389.492,419.329,389.492z"/>
		</g>
		<g>
			<path style="fill:#FFFFFF;" d="M319.735,269.979h-49.796c-13.237-0.484-13.259-19.507,0-20c0,0,49.796,0,49.796,0
				c5.522,0,10,4.477,10,10S325.258,269.979,319.735,269.979z"/>
		</g>
		<g>
			<path style="fill:#002678;" d="M49.837,140.508h90.63c24.056,0,44.186-17.133,48.829-39.837h37.51
				c9.443,26.4,46.956,26.384,56.388,0h37.51c4.643,22.705,24.772,39.837,48.828,39.837h90.63c27.48,0,49.838-22.357,49.838-49.837
				c0-5.523-4.478-10-10-10h-9.919V10c0-5.523-4.478-10-10-10H349.614c-5.522,0-10,4.477-10,10v70.671c-5.993,0-49.361,0-56.42,0
				c-9.443-26.401-46.956-26.384-56.389,0c-7.313,0-50.196,0-56.419,0V10c0-5.523-4.477-10-10-10H29.918c-5.523,0-10,4.477-10,10
				v70.671H10c-5.523,0-10,4.477-10,10C0,118.151,22.357,140.508,49.837,140.508z M140.467,120.508h-90.63
				c-12.947,0-23.994-8.288-28.114-19.837h146.857C164.461,112.221,153.414,120.508,140.467,120.508z M460.162,120.508h-90.63
				c-12.946,0-23.993-8.288-28.113-19.837h146.857C484.156,112.221,473.109,120.508,460.162,120.508z M359.614,20h110.467v60.671
				H359.614V20z M255,80.752c5.47,0,9.919,4.45,9.919,9.919c-0.498,13.14-19.341,13.137-19.838,0
				C245.081,85.202,249.531,80.752,255,80.752z M39.918,20h110.468v60.671H39.918V20z"/>
			<path style="fill:#002678;" d="M180.305,450.163h-9.918v-70.671c0-5.523-4.477-10-10-10H29.918c-5.523,0-10,4.477-10,10v70.671
				H10c-5.523,0-10,4.477-10,10C0,487.643,22.357,510,49.837,510h90.63c27.48,0,49.837-22.357,49.837-49.837
				C190.305,454.64,185.828,450.163,180.305,450.163z M39.918,389.492h110.468v60.671H39.918V389.492z M140.467,490h-90.63
				c-12.947,0-23.994-8.288-28.114-19.837h146.857C164.461,481.712,153.414,490,140.467,490z"/>
			<path style="fill:#002678;" d="M500,450.163h-9.919v-70.671c0-5.523-4.478-10-10-10H349.614c-5.522,0-10,4.477-10,10v70.671
				h-9.919c-5.522,0-10,4.477-10,10c0,27.48,22.356,49.837,49.837,49.837h90.63c27.48,0,49.838-22.357,49.838-49.837
				C510,454.64,505.522,450.163,500,450.163z M359.614,389.492h110.467v60.671H359.614V389.492z M460.162,490h-90.63
				c-12.946,0-23.993-8.288-28.113-19.837h146.857C484.156,481.712,473.109,490,460.162,490z"/>
			<path style="fill:#002678;" d="M199.5,256.15c-2.804-7.267-13.393-8.303-17.55-1.72c-4.471,6.454,0.473,15.664,8.31,15.55
				C197.163,270.177,202.327,262.453,199.5,256.15z"/>
			<path style="fill:#002678;" d="M239.34,256.15c-2.457-6.447-11.578-8.249-16.31-3.24c-6.275,6.117-1.692,17.179,7.07,17.07
				C236.99,270.172,242.176,262.453,239.34,256.15z"/>
			<path style="fill:#002678;" d="M359.573,210.142H150.427c-5.523,0-10,4.477-10,10v79.675c0,5.523,4.477,10,10,10h209.146
				c5.522,0,10-4.477,10-10v-29.837h21.562c11.581,31.207,57.478,23.706,58.113-10c-0.638-33.71-46.538-41.202-58.113-10h-21.562
				v-29.837C369.573,214.619,365.096,210.142,359.573,210.142z M419.329,250.061c5.47,0,9.919,4.449,9.919,9.918
				c-0.498,13.141-19.341,13.137-19.838,0C409.41,254.51,413.859,250.061,419.329,250.061z M349.573,289.817H160.427v-59.675
				h189.146V289.817z"/>
			<path style="fill:#002678;" d="M60.752,259.979c0,16.498,13.421,29.919,29.919,29.919c39.636-1.504,39.626-58.339,0-59.837
				C74.173,230.061,60.752,243.482,60.752,259.979z M100.589,259.979c0,5.469-4.449,9.919-9.918,9.919
				c-13.141-0.499-13.137-19.341,0-19.837C96.14,250.061,100.589,254.51,100.589,259.979z"/>
			<path style="fill:#002678;" d="M255,429.248c-16.218,0-29.919,14.157-29.919,30.915c1.504,39.637,58.34,39.626,59.838,0
				C284.919,443.405,271.218,429.248,255,429.248z M255,470.082c-5.469,0-9.919-4.45-9.919-9.919c0-5.712,4.728-10.915,9.919-10.915
				s9.919,5.202,9.919,10.915C264.919,465.632,260.47,470.082,255,470.082z"/>
		</g>
	</g>
</g>
<g>
</g>
<g>
</g>
<g>
</g>
<g>
</g>
<g>
</g>
<g>
</g>
<g>
</g>
<g>
</g>
<g>
</g>
<g>
</g>
<g>
</g>
<g>
</g>
<g>
</g>
<g>
</g>
<g>
</g>
</svg>
