<?xml version="1.0" encoding="iso-8859-1"?>
<!-- Generator: Adobe Illustrator 29.5.1, SVG Export Plug-In . SVG Version: 9.03 Build 0)  -->
<svg version="1.1" id="Layer_1" xmlns="http://www.w3.org/2000/svg" xmlns:xlink="http://www.w3.org/1999/xlink" x="0px" y="0px"
	 viewBox="0 0 512 512" style="enable-background:new 0 0 512 512;" xml:space="preserve">
<g>
	<g>
		<polygon style="fill:#67CCD1;" points="10,163.389 10,450.574 223.869,450.574 233.91,462.623 278.09,462.623 288.131,450.574 
			502,450.574 502,163.389 		"/>
		<path style="fill:#FFFFFF;" d="M54.18,406.392c67.273-16.712,134.547-16.712,201.82,0V141.298
			c-67.273-16.712-134.547-16.712-201.82,0V406.392z"/>
		<path style="fill:#FFFFFF;" d="M256,406.392c67.273-16.712,134.547-16.712,201.82,0V141.298
			c-67.273-16.712-134.547-16.712-201.82,0V406.392z"/>
		<path style="fill:#D2DCFD;" d="M116.551,130.597v29.954c0,13.624,6.113,26.072,15.997,34.41
			c-1.093,12.885,3.386,26.01,13.02,35.643l23.653,23.653c8.685,8.685,20.208,13.181,31.835,13.181c1.27,0,2.54-0.054,3.809-0.161
			c8.338,9.884,20.786,15.997,34.41,15.997H256V141.298C209.517,129.751,163.034,126.187,116.551,130.597z"/>
		<path style="fill:#D2DCFD;" d="M256,141.298v141.977h16.725c13.624,0,26.072-6.113,34.41-15.997
			c1.269,0.108,2.539,0.161,3.809,0.161c11.628,0,23.149-4.495,31.835-13.181l23.653-23.653c9.634-9.634,14.113-22.758,13.02-35.643
			c9.884-8.338,15.997-20.786,15.997-34.41v-29.954C348.966,126.187,302.483,129.751,256,141.298z"/>
		<path style="fill:#FD6050;" d="M350.449,160.551v-33.45l-15.142-3.441c-1.955-7.71-5.005-14.981-8.974-21.643l8.279-13.149
			l-23.653-23.653l-13.149,8.279c-6.662-3.969-13.933-7.02-21.643-8.974l-3.441-15.142h-33.45l-3.441,15.142
			c-7.71,1.955-14.981,5.005-21.643,8.974l-13.149-8.279l-23.653,23.653l8.279,13.149c-3.969,6.662-7.02,13.933-8.974,21.643
			l-15.142,3.441v33.45l15.142,3.441c1.955,7.71,5.005,14.981,8.974,21.643l-8.279,13.149l23.653,23.653l13.149-8.279
			c6.662,3.969,13.933,7.02,21.643,8.974l3.441,15.142h33.45l3.441-15.142c7.71-1.955,14.981-5.005,21.643-8.974l13.149,8.279
			l23.653-23.653l-8.279-13.149c3.969-6.662,7.02-13.933,8.974-21.643L350.449,160.551z"/>
		<circle style="fill:#FFFFFF;" cx="256" cy="143.826" r="30.726"/>
	</g>
	<g>
		<path style="fill:#6864F7;" d="M98.359,275.272c-4.91,0-9.193-3.618-9.891-8.619c-0.764-5.47,3.051-10.523,8.521-11.287
			c38.549-5.383,77.641-5.383,116.19-0.001c5.47,0.763,9.285,5.816,8.521,11.286s-5.824,9.283-11.286,8.521
			c-36.715-5.125-73.946-5.125-110.66,0.001C99.286,275.24,98.82,275.271,98.359,275.272z"/>
		<path style="fill:#6864F7;" d="M98.359,319.455c-4.91,0-9.193-3.618-9.891-8.619c-0.764-5.47,3.051-10.523,8.521-11.287
			c38.549-5.382,77.641-5.383,116.19-0.001c5.47,0.764,9.285,5.817,8.521,11.287c-0.764,5.469-5.818,9.282-11.287,8.521
			c-36.713-5.125-73.945-5.125-110.659,0.001C99.286,319.422,98.82,319.454,98.359,319.455z"/>
		<path style="fill:#6864F7;" d="M98.359,363.637c-4.91,0-9.193-3.618-9.891-8.619c-0.764-5.47,3.051-10.523,8.521-11.287
			c38.549-5.383,77.641-5.383,116.19-0.001c5.47,0.763,9.285,5.816,8.521,11.286s-5.824,9.281-11.286,8.521
			c-36.715-5.125-73.946-5.125-110.66,0.001C99.286,363.604,98.82,363.636,98.359,363.637z"/>
		<path style="fill:#6864F7;" d="M413.635,186.906c-0.46,0-0.926-0.032-1.395-0.098c-25.995-3.628-52.351-4.704-78.339-3.193
			c-5.515,0.315-10.243-3.89-10.563-9.403c-0.32-5.514,3.89-10.243,9.403-10.563c27.294-1.585,54.972-0.458,82.264,3.353
			c5.47,0.763,9.285,5.816,8.521,11.286C422.829,183.288,418.544,186.906,413.635,186.906z"/>
		<path style="fill:#6864F7;" d="M413.635,231.088c-0.46,0-0.926-0.032-1.396-0.098c-31.87-4.449-64.187-5.044-96.056-1.769
			c-5.488,0.562-10.405-3.431-10.97-8.925c-0.564-5.494,3.431-10.405,8.925-10.97c33.468-3.439,67.405-2.815,100.867,1.856
			c5.47,0.764,9.285,5.817,8.521,11.287C422.828,227.47,418.544,231.088,413.635,231.088z"/>
		<path style="fill:#6864F7;" d="M98.359,186.906c-4.91,0-9.193-3.618-9.891-8.619c-0.764-5.47,3.052-10.523,8.521-11.286
			c27.292-3.81,54.969-4.937,82.264-3.353c5.513,0.32,9.723,5.05,9.403,10.563c-0.32,5.514-5.05,9.715-10.563,9.403
			c-25.987-1.511-52.344-0.435-78.339,3.193C99.286,186.874,98.82,186.906,98.359,186.906z"/>
		<path style="fill:#6864F7;" d="M98.359,231.088c-4.91,0-9.193-3.618-9.891-8.619c-0.764-5.47,3.051-10.523,8.521-11.287
			c33.462-4.673,67.399-5.296,100.867-1.856c5.494,0.565,9.49,5.477,8.925,10.97c-0.565,5.494-5.483,9.485-10.97,8.925
			c-31.869-3.276-64.187-2.681-96.056,1.769C99.286,231.056,98.82,231.088,98.359,231.088z"/>
		<path style="fill:#6864F7;" d="M300.185,275.272c-4.91,0-9.193-3.618-9.891-8.619c-0.764-5.47,3.051-10.523,8.521-11.287
			c38.549-5.383,77.641-5.383,116.19-0.001c5.47,0.763,9.285,5.816,8.521,11.286s-5.824,9.283-11.286,8.521
			c-36.715-5.125-73.946-5.125-110.66,0.001C301.112,275.24,300.646,275.271,300.185,275.272z"/>
		<path style="fill:#6864F7;" d="M300.185,319.455c-4.91,0-9.193-3.618-9.891-8.619c-0.764-5.47,3.051-10.523,8.521-11.287
			c38.549-5.382,77.641-5.383,116.19-0.001c5.47,0.764,9.285,5.817,8.521,11.287c-0.764,5.469-5.819,9.282-11.287,8.521
			c-36.713-5.125-73.945-5.125-110.659,0.001C301.112,319.422,300.646,319.454,300.185,319.455z"/>
		<path style="fill:#6864F7;" d="M300.185,363.637c-4.91,0-9.193-3.618-9.891-8.619c-0.764-5.47,3.051-10.523,8.521-11.287
			c38.549-5.383,77.641-5.383,116.19-0.001c5.47,0.763,9.285,5.816,8.521,11.286s-5.824,9.281-11.286,8.521
			c-36.715-5.125-73.946-5.125-110.66,0.001C301.112,363.604,300.646,363.636,300.185,363.637z"/>
		<path style="fill:#052A75;" d="M502,153.389h-34.18v-12.091c0-4.594-3.13-8.598-7.589-9.705
			c-34.57-8.587-69.618-12.89-104.256-12.819c-0.987-0.656-2.1-1.149-3.31-1.424l-9.404-2.137c-1.445-4.409-3.227-8.705-5.329-12.85
			l5.142-8.167c2.488-3.951,1.91-9.098-1.391-12.399L318.03,58.143c-3.303-3.301-8.448-3.878-12.399-1.391l-8.167,5.142
			c-4.146-2.103-8.44-3.883-12.85-5.329l-2.137-9.404c-1.035-4.553-5.083-7.784-9.751-7.784h-33.45
			c-4.669,0-8.716,3.231-9.751,7.784l-2.137,9.404c-4.41,1.446-8.704,3.227-12.85,5.329l-8.167-5.142
			c-3.95-2.487-9.098-1.91-12.399,1.391l-23.653,23.653c-3.301,3.302-3.879,8.448-1.391,12.399l5.142,8.167
			c-2.103,4.146-3.884,8.441-5.329,12.85l-9.404,2.137c-1.21,0.275-2.322,0.768-3.31,1.424
			c-34.639-0.073-69.685,4.231-104.256,12.819c-4.459,1.107-7.589,5.111-7.589,9.705v12.091H10c-5.523,0-10,4.477-10,10v287.186
			c0,5.523,4.477,10,10,10h209.185l7.043,8.451c1.9,2.28,4.714,3.598,7.682,3.598h44.18c2.968,0,5.782-1.318,7.682-3.598
			l7.043-8.451H502c5.523,0,10-4.477,10-10V163.389C512,157.866,507.523,153.389,502,153.389z M352.665,170.303
			c4.553-1.035,7.784-5.083,7.784-9.751v-21.759c29.03,0.268,58.34,3.75,87.372,10.399v244.601
			c-60.387-13.171-121.434-13.171-181.82,0V248.275h6.725c4.669,0,8.716-3.231,9.751-7.784l2.137-9.404
			c4.408-1.445,8.704-3.227,12.85-5.33l8.167,5.142c3.951,2.487,9.097,1.909,12.399-1.391l23.653-23.652
			c3.302-3.302,3.879-8.448,1.392-12.399l-5.142-8.167c2.102-4.146,3.884-8.441,5.329-12.85L352.665,170.303z M171.551,135.083
			l7.358-1.672c3.665-0.833,6.553-3.651,7.477-7.294c1.689-6.664,4.338-13.051,7.872-18.982c1.924-3.229,1.875-7.265-0.128-10.446
			l-4.026-6.395l12.364-12.364l6.395,4.026c3.182,2.003,7.217,2.053,10.446,0.129c5.933-3.534,12.319-6.183,18.983-7.872
			c3.643-0.924,6.461-3.812,7.294-7.477l1.672-7.358h17.485l1.672,7.358c0.833,3.665,3.651,6.553,7.294,7.477
			c6.664,1.689,13.05,4.338,18.983,7.872c3.229,1.923,7.265,1.874,10.446-0.129l6.395-4.026l12.364,12.364l-4.026,6.395
			c-2.003,3.181-2.053,7.217-0.128,10.446c3.534,5.932,6.182,12.318,7.872,18.982c0.924,3.643,3.812,6.461,7.477,7.294l7.358,1.672
			v17.485l-7.358,1.672c-3.665,0.833-6.553,3.651-7.477,7.294c-1.689,6.664-4.338,13.05-7.872,18.983
			c-1.924,3.229-1.874,7.265,0.129,10.446l4.026,6.395l-12.364,12.364l-6.395-4.026c-3.182-2.003-7.217-2.053-10.445-0.129
			c-5.935,3.535-12.321,6.183-18.983,7.872c-3.643,0.924-6.461,3.812-7.294,7.477l-1.672,7.358h-17.485l-1.672-7.358
			c-0.833-3.665-3.651-6.553-7.294-7.477c-6.662-1.689-13.049-4.337-18.983-7.872c-3.228-1.923-7.263-1.874-10.445,0.129
			l-6.395,4.026l-12.364-12.364l4.026-6.395c2.003-3.181,2.053-7.216,0.129-10.446c-3.534-5.933-6.183-12.319-7.872-18.983
			c-0.924-3.643-3.812-6.461-7.477-7.294l-7.358-1.672V135.083z M64.18,149.191c29.032-6.649,58.341-10.127,87.372-10.398v21.758
			c0,4.669,3.231,8.716,7.784,9.751l9.404,2.137c1.445,4.409,3.227,8.704,5.329,12.85l-5.142,8.167
			c-2.488,3.951-1.91,9.098,1.392,12.399l23.653,23.652c3.302,3.301,8.448,3.879,12.399,1.391l8.167-5.142
			c4.146,2.103,8.442,3.884,12.85,5.33l2.137,9.404c1.035,4.553,5.083,7.784,9.751,7.784H246v145.517
			c-60.387-13.171-121.434-13.171-181.82,0V149.191z M492,440.574H288.131c-2.968,0-5.782,1.318-7.682,3.598l-7.043,8.451h-34.812
			l-7.043-8.451c-1.9-2.28-4.714-3.598-7.682-3.598H20V173.389h24.18v233.003c0,3.077,1.417,5.982,3.84,7.877
			c2.424,1.895,5.585,2.568,8.571,1.828c65.359-16.236,131.64-16.236,196.999,0c1.584,0.365,3.239,0.388,4.821,0
			c65.359-16.236,131.64-16.236,196.999,0c0.796,0.198,1.606,0.295,2.41,0.295c2.21,0,4.384-0.733,6.161-2.123
			c2.423-1.895,3.84-4.801,3.84-7.877V173.389H492V440.574z"/>
	</g>
</g>
<g>
</g>
<g>
</g>
<g>
</g>
<g>
</g>
<g>
</g>
<g>
</g>
<g>
</g>
<g>
</g>
<g>
</g>
<g>
</g>
<g>
</g>
<g>
</g>
<g>
</g>
<g>
</g>
<g>
</g>
</svg>
