<?xml version="1.0" encoding="iso-8859-1"?>
<!-- Generator: Adobe Illustrator 26.5.3, SVG Export Plug-In . SVG Version: 6.00 Build 0)  -->
<svg version="1.1" id="Capa_1" xmlns="http://www.w3.org/2000/svg" xmlns:xlink="http://www.w3.org/1999/xlink" x="0px" y="0px"
	 viewBox="0 0 512 512" style="enable-background:new 0 0 512 512;" xml:space="preserve">
<g>
	<g>
		<g>
			<path style="fill:#FDCB50;" d="M422.047,502H89.954c-11.046,0-20-8.954-20-20V271.364c0-11.046,8.954-20,20-20h332.093
				c11.046,0,20,8.954,20,20V482C442.047,493.045,433.092,502,422.047,502z"/>
		</g>
		<g>
			<path style="fill:#FD8F01;" d="M410.586,432.998c-108.614,0-198.923-78.362-217.481-181.634H89.994
				c-11.068,0-20.041,8.973-20.041,20.041v210.554c0,11.068,8.972,20.041,20.041,20.041h332.011
				c11.068,0,20.041-8.973,20.041-20.041v-51.2C431.769,432.224,421.269,432.998,410.586,432.998z"/>
		</g>
		<g>
			<path style="fill:#D2DCFD;" d="M409.355,251.364h-54.11v-87.198c0-55.171-44.885-100.056-100.056-100.056
				s-100.055,44.885-100.055,100.056v87.198h-54.11v-87.198C101.023,79.158,170.181,10,255.188,10
				c85.008,0,154.166,69.158,154.166,154.166V251.364z"/>
		</g>
		<g>
			<path style="fill:#93B2F4;" d="M304.561,18.107C289.054,12.851,272.448,10,255.188,10c-85.007,0-154.165,69.158-154.165,154.166
				v87.198h54.11v-87.198c0-52.09,40.014-95.004,90.918-99.634C262.724,45.944,282.496,30.196,304.561,18.107z"/>
		</g>
		<g>
			<path style="fill:#BC9AF4;" d="M289.668,368.09c4.341-6.793,6.685-14.983,6.192-23.751c-1.12-19.906-17.145-36.157-37.035-37.525
				c-23.327-1.605-42.749,16.843-42.749,39.827c0,7.919,2.311,15.295,6.29,21.501c2.098,3.272,2.929,7.189,2.245,11.015
				c-2.573,14.383-5.763,32.676-8.039,45.793c-1.536,8.855,5.282,16.951,14.269,16.951h50.32c8.987,0,15.805-8.096,14.269-16.951
				c-2.275-13.116-5.465-31.408-8.038-45.79C286.702,375.313,287.564,371.384,289.668,368.09z"/>
		</g>
		<g>
			<path style="fill:#6864F7;" d="M290.665,397.647c-28.07-18.172-51.76-42.53-69.13-71.154c-3.466,5.915-5.46,12.797-5.46,20.148
				c0,7.919,2.311,15.295,6.29,21.501c2.098,3.272,2.929,7.189,2.245,11.015c-2.573,14.383-5.763,32.676-8.039,45.793
				c-1.536,8.855,5.282,16.951,14.269,16.951h50.32c8.987,0,15.805-8.096,14.269-16.951
				C294.06,417.062,292.361,407.303,290.665,397.647z"/>
		</g>
	</g>
	<g>
		<path style="fill:#052A75;" d="M422.047,241.364h-2.692v-77.198C419.354,73.645,345.71,0,255.188,0
			C164.668,0,91.023,73.645,91.023,164.166v77.198h-1.069c-16.542,0-30,13.458-30,30V482c0,16.542,13.458,30,30,30h332.093
			c16.542,0,30-13.458,30-30V271.364C452.047,254.822,438.589,241.364,422.047,241.364z M111.023,164.166
			C111.023,84.672,175.695,20,255.188,20s144.166,64.672,144.166,144.166v77.198h-34.109v-77.198
			c0-60.685-49.371-110.056-110.057-110.056c-60.685,0-110.056,49.371-110.056,110.056v77.198h-34.109V164.166z M165.133,241.364
			v-77.198c0-49.657,40.398-90.056,90.056-90.056s90.057,40.399,90.057,90.056v77.198H165.133z M432.047,482c0,5.514-4.486,10-10,10
			H89.954c-5.515,0-10-4.486-10-10V271.364c0-5.514,4.486-10,10-10h332.093c5.514,0,10,4.486,10,10V482z"/>
		<path style="fill:#052A75;" d="M305.844,343.777c-1.409-25.04-21.328-45.22-46.333-46.94
			c-14.016-0.964-27.354,3.763-37.575,13.305c-10.08,9.411-15.861,22.714-15.861,36.499c0,9.565,2.722,18.866,7.871,26.897
			c0.762,1.188,1.053,2.557,0.82,3.857c-2.599,14.522-5.811,32.946-8.048,45.846c-1.237,7.134,0.727,14.402,5.389,19.941
			c4.662,5.541,11.49,8.718,18.733,8.718h50.319c7.243,0,14.072-3.178,18.734-8.719c4.661-5.539,6.625-12.808,5.387-19.94
			c-2.22-12.803-5.418-31.149-8.047-45.842c-0.232-1.298,0.073-2.692,0.861-3.926v0C303.759,364.61,306.438,354.341,305.844,343.777
			z M277.547,380.922c2.621,14.65,5.812,32.958,8.029,45.738c0.31,1.786-0.484,3.05-0.984,3.645
			c-0.502,0.596-1.614,1.596-3.432,1.596h-50.319c-1.817,0-2.93-1-3.432-1.596c-0.501-0.595-1.295-1.86-0.985-3.646
			c2.233-12.875,5.439-31.261,8.03-45.741c1.123-6.276-0.181-12.73-3.671-18.174c-3.08-4.804-4.708-10.373-4.708-16.103
			c0-8.384,3.377-16.155,9.51-21.88c5.603-5.23,12.781-8.045,20.406-8.045c0.712,0,1.429,0.024,2.147,0.074
			c14.97,1.029,26.894,13.114,27.737,28.11c0.357,6.345-1.245,12.501-4.634,17.805v0
			C277.738,368.189,276.426,374.659,277.547,380.922z"/>
	</g>
</g>
<g>
</g>
<g>
</g>
<g>
</g>
<g>
</g>
<g>
</g>
<g>
</g>
<g>
</g>
<g>
</g>
<g>
</g>
<g>
</g>
<g>
</g>
<g>
</g>
<g>
</g>
<g>
</g>
<g>
</g>
</svg>
