<?xml version="1.0" encoding="iso-8859-1"?>
<!-- Generator: Adobe Illustrator 27.0.0, SVG Export Plug-In . SVG Version: 6.00 Build 0)  -->
<svg version="1.1" id="Capa_1" xmlns="http://www.w3.org/2000/svg" xmlns:xlink="http://www.w3.org/1999/xlink" x="0px" y="0px"
	 viewBox="0 0 512 512" style="enable-background:new 0 0 512 512;" xml:space="preserve">
<g>
	<g>
		<path style="fill-rule:evenodd;clip-rule:evenodd;fill:#FDCB50;" d="M75.265,130.489c-11.044,0-20.082-9.036-20.082-20.081V30.081
			C55.184,19.037,64.22,10,75.265,10h311.266c11.045,0,20.082,9.038,20.082,20.081v80.327c0,11.044-9.038,20.081-20.082,20.081
			H75.265z"/>
		<path style="fill-rule:evenodd;clip-rule:evenodd;fill:#BC9AF4;" d="M205.796,311.224H256l5.021,160.967
			C261.531,488.578,247.465,502,230.898,502h0c-16.567,0-30.633-13.422-30.122-29.809L205.796,311.224z"/>
		<path style="fill-rule:evenodd;clip-rule:evenodd;fill:#FD8F01;" d="M75.265,130.489c-11.044,0-20.082-9.036-20.082-20.081V30.081
			C55.184,19.037,64.22,10,75.265,10H182.97c-5.932,17.894-9.152,37.023-9.152,56.907c0,22.379,4.079,43.803,11.515,63.582H75.265z"
			/>
		<path style="fill-rule:evenodd;clip-rule:evenodd;fill:#67CCD1;" d="M108.411,10v249.613c0,13.807,11.297,25.104,25.104,25.104
			s25.104-11.301,25.104-25.104v-101.41c0-13.802,11.297-25.104,25.104-25.104c13.807,0,25.104,11.297,25.104,25.104
			c0,13.807,11.297,25.104,25.104,25.104c13.808,0,25.104-11.297,25.104-25.104V10H108.411z"/>
		<path style="fill-rule:evenodd;clip-rule:evenodd;fill:#27A2CC;" d="M108.411,10v249.613c0,13.807,11.297,25.104,25.104,25.104
			s25.104-11.301,25.104-25.104v-101.41c0-13.802,11.297-25.104,25.104-25.104c0.897,0,1.784,0.049,2.657,0.142
			c-8.107-20.537-12.562-42.915-12.562-66.333c0-19.884,3.221-39.013,9.152-56.907H108.411z"/>
	</g>
	<path style="fill:#052A75;" d="M463.888,78.235l-15.062-15.062c-1.876-1.875-4.419-2.929-7.071-2.929h-25.143V30.081
		C416.612,13.494,403.117,0,386.53,0H75.265C58.678,0,45.184,13.494,45.184,30.081v80.327c0,16.587,13.494,30.081,30.081,30.081
		H98.41v119.124c0,19.356,15.748,35.104,35.104,35.104s35.104-15.748,35.104-35.104v-101.41c0-8.329,6.776-15.104,15.104-15.104
		s15.104,6.775,15.104,15.104c0,19.356,15.747,35.104,35.104,35.104s35.104-15.748,35.104-35.104v-17.713H386.53
		c16.587,0,30.082-13.494,30.082-30.081V80.245h21.001l9.203,9.204v85.404L228.219,235.64c-4.327,1.203-7.321,5.143-7.321,9.634
		v55.95h-15.102c-5.401,0-9.827,4.29-9.995,9.688L190.78,471.88c-0.321,10.31,3.552,20.166,10.906,27.752
		c7.618,7.86,18.266,12.368,29.211,12.368c10.946,0,21.594-4.508,29.212-12.368c7.354-7.587,11.228-17.442,10.906-27.752
		l-5.021-160.967c-0.168-5.399-4.594-9.688-9.995-9.688h-15.103v-48.352l218.598-60.787c4.327-1.203,7.321-5.143,7.321-9.634V85.306
		C466.816,82.654,465.763,80.11,463.888,78.235z M75.265,120.489c-5.559,0-10.081-4.522-10.081-10.081V30.081
		C65.184,24.522,69.706,20,75.265,20H98.41v100.489H75.265z M249.034,158.203c0,8.329-6.775,15.104-15.104,15.104
		c-8.328,0-15.104-6.775-15.104-15.104c0-19.356-15.747-35.104-35.104-35.104s-35.104,15.748-35.104,35.104v101.41
		c0,8.328-6.775,15.104-15.104,15.104s-15.104-6.776-15.104-15.104V20h130.624V158.203z M396.612,110.408
		c0,5.559-4.522,10.081-10.082,10.081H269.034V20H386.53c5.56,0,10.082,4.522,10.082,10.081V110.408z M251.025,472.503
		c0.151,4.852-1.723,9.543-5.276,13.209c-3.873,3.996-9.287,6.288-14.852,6.288s-10.978-2.292-14.851-6.288
		c-3.554-3.666-5.428-8.357-5.276-13.209l4.719-151.279h30.817L251.025,472.503z"/>
</g>
<g>
</g>
<g>
</g>
<g>
</g>
<g>
</g>
<g>
</g>
<g>
</g>
<g>
</g>
<g>
</g>
<g>
</g>
<g>
</g>
<g>
</g>
<g>
</g>
<g>
</g>
<g>
</g>
<g>
</g>
</svg>
