<?xml version="1.0" encoding="iso-8859-1"?>
<!-- Generator: Adobe Illustrator 27.0.0, SVG Export Plug-In . SVG Version: 6.00 Build 0)  -->
<svg version="1.1" id="Capa_1" xmlns="http://www.w3.org/2000/svg" xmlns:xlink="http://www.w3.org/1999/xlink" x="0px" y="0px"
	 viewBox="0 0 512 512" style="enable-background:new 0 0 512 512;" xml:space="preserve">
<g>
	<g>
		<polygon style="fill:#FD8F01;" points="62.775,201.965 62.775,422.991 301.568,422.991 301.568,214.804 		"/>
		<path style="fill:#FDCB50;" d="M338.638,205.455v-65.454C338.638,68.204,280.434,10,208.636,10h-15.86
			C120.978,10,62.775,68.204,62.775,140.001v52.655L338.638,205.455z"/>
		<path style="fill:#D46B5C;" d="M235.919,502H10l20.953-73.813c6.008-21.165,23.21-37.264,44.694-41.829l37.364-7.939
			c16.247-2.885,29.414-14.835,33.873-30.753l8.46-30.161l75.08-18.381l46.576,106.598L235.919,502z"/>
		<path style="fill:#B55348;" d="M277.005,405.719l-34.54,80.939c-11.065-0.01-17.652-0.01-17.652-0.01
			c-19.399-0.02-35.113-15.754-35.113-35.143V309.096l40.726-9.971L277.005,405.719z"/>
		<path style="fill:#D2DCFD;" d="M277.005,405.719L235.919,502H10l20.955-73.81c6.004-21.166,23.204-37.271,44.692-41.83
			l37.362-7.942c11.597-2.058,21.638-8.736,28.054-18.194l13.404,13.455c9.752,10.534,22.205,16.925,35.233,19.178
			c0,0,22.867,5.704,33.587,1.508l38.235-24.07L277.005,405.719z"/>
		<path style="fill:#93B2F4;" d="M277.005,405.719L235.919,502h-59.793c-6.075-10.422-9.559-22.532-9.559-35.444
			c0-16.915,8.648-31.852,21.756-40.62c0.85-0.568,1.378-1.506,1.378-2.528v-30.551c11.226,1.938,22.873,0.813,33.597-3.384
			l38.225-19.178L277.005,405.719z"/>
		<path style="fill:#D46B5C;" d="M103.474,248.068H82.951c-23.403,0-42.374-19.079-42.374-42.613v0
			c0-23.535,18.972-42.613,42.374-42.613h19.924h194.933h20.655c23.403,0,42.374,19.079,42.374,42.613v0
			c0,1.374-0.065,22.803-0.191,24.144L103.474,248.068z"/>
		<path style="fill:#D46B5C;" d="M223.296,324.337c-22.042,5.388-45.533,2.879-66.224-7.525l-0.018-0.009
			c-32.837-16.511-53.579-50.262-53.579-87.181v-66.779c38.755,0,76.464-15.419,103.453-43.284l16.507-17.043l2.342,7.647
			c9.644,31.49,38.671,52.68,71.547,52.68v54.703v75.594L223.296,324.337z"/>
		<path style="fill:#B55348;" d="M297.328,182.21v110.931l-74.031,31.197c-11.015,2.691-22.391,3.414-33.597,2.149v-34.089
			c0-27.552,22.411-49.973,49.953-49.973h0c1.22,0,2.209-0.989,2.209-2.209v-12.039c0-13.003,7.169-24.941,18.656-31.036
			C272.246,190.905,284.606,185.905,297.328,182.21z"/>
		<path style="fill:#BC9AF4;" d="M224.845,451.502V292.399c0-8.193,6.629-14.834,14.806-14.834h35.824H428.35h35.71
			c8.177,0,14.806,6.641,14.806,14.834v159.333L224.845,451.502z"/>
		<path style="fill:#BC9AF4;" d="M466.61,501.995H237.101c-19.546,0-35.39-15.865-35.39-35.436v0
			c0-7.562,6.122-13.692,13.675-13.692h272.94c7.552,0,13.675,6.13,13.675,13.692v0C502,486.13,486.155,501.995,466.61,501.995z"/>
		<path style="fill:#6864F7;" d="M461.857,277.568v21.005c0,43.457-21.648,83.65-57.896,107.527l-32.773,21.578
			c-5.864,3.866-12.601,5.794-19.329,5.794c-6.737,0-13.465-1.928-19.339-5.794L299.758,406.1
			c-36.258-23.877-57.896-64.07-57.896-107.527v-21.005H461.857z"/>
		<path style="fill:#B1D952;" d="M351.855,398.332l32.772-21.584c26.267-17.299,42.083-46.679,42.083-78.173v-70.397l0,0
			c-23.409-12.433-49.132-18.649-74.855-18.649s-51.446,6.216-74.855,18.649l0,0v70.397c0,31.494,15.816,60.874,42.083,78.173
			L351.855,398.332z"/>
	</g>
	<g>
		<g>
			<g>
				<path style="fill:#6864F7;" d="M89.926,510.838c-5.522,0-10-4.477-10-10V460.35c0-5.523,4.478-10,10-10s10,4.477,10,10v40.488
					C99.926,506.361,95.448,510.838,89.926,510.838z"/>
			</g>
			<path style="fill:#FFFFFF;" d="M389.773,275.056c-3.91-3.903-10.242-3.895-14.143,0.013l-26.841,26.892l-11.733-11.756
				c-3.902-3.909-10.232-3.915-14.143-0.013c-3.909,3.901-3.915,10.233-0.014,14.142l18.812,18.848
				c1.876,1.879,4.423,2.936,7.078,2.936s5.202-1.056,7.078-2.936l33.919-33.983C393.688,285.289,393.682,278.957,389.773,275.056z"
				/>
		</g>
		<path style="fill:#052A75;" d="M488.866,442.881V292.399c0-13.693-11.128-24.834-24.806-24.834H436.71v-39.387
			c0-3.699-2.042-7.097-5.31-8.832c-18.872-10.023-39.597-16.375-60.796-18.75c-1.44-15.719-9.791-29.449-21.966-38.104v-22.491
			C348.638,62.804,285.834,0,208.637,0h-15.861C115.578,0,52.775,62.804,52.775,140.001v22.491
			c-13.415,9.537-22.198,25.234-22.198,42.963s8.783,33.426,22.198,42.963v136.245c-15.093,8.892-26.485,23.334-31.441,40.793
			L0.38,499.269c-0.855,3.016-0.248,6.259,1.642,8.76S6.865,512,10,512c114.061,0.002,342.5-0.007,456.609-0.004
			c25.028,0,45.391-20.382,45.391-45.436C512,453.677,501.671,443.171,488.866,442.881z M464.061,287.565
			c2.649,0,4.806,2.168,4.806,4.834v150.468H234.845V292.399c0-2.666,2.156-4.834,4.806-4.834H267v11.01
			c0,34.968,17.414,67.314,46.583,86.525l32.772,21.583c1.669,1.099,3.584,1.648,5.5,1.648s3.832-0.549,5.5-1.648l32.771-21.583
			c29.169-19.211,46.583-51.557,46.583-86.525v-11.01H464.061z M161.545,307.868c-29.65-14.909-48.07-44.892-48.07-78.247v-57.102
			c38.174-2.46,74.402-18.919,100.637-46.004l5.071-5.236c11.842,28.13,37.753,47.481,68.142,50.99v40.044
			c-5.111,2.1-10.127,4.438-15.015,7.034c-3.268,1.735-5.31,5.132-5.31,8.832v39.387h-27.35c-13.678,0-24.806,11.141-24.806,24.834
			v23.458C196.748,318.921,178.049,316.166,161.545,307.868z M307.324,172.841h11.138c15.851,0,29.067,11.537,31.833,26.712
			c-14.518,0.135-28.983,2.159-42.971,5.965V172.841z M416.71,298.575c0,28.221-14.05,54.323-37.583,69.822l-27.271,17.961
			l-27.272-17.961C301.05,352.897,287,326.796,287,298.575l0.001-64.25c20.172-9.696,42.467-14.796,64.854-14.796
			c22.387,0,44.682,5.101,64.854,14.796V298.575z M72.775,140.001C72.775,73.832,126.607,20,192.776,20h15.861
			c66.169,0,120.001,53.832,120.001,120.001v13.845c-3.293-0.654-6.694-1.005-10.176-1.005h-20.655c-0.082,0-0.16,0.01-0.241,0.012
			c-0.081-0.002-0.16-0.012-0.241-0.012c-28.721,0-53.631-18.329-61.986-45.608l-2.342-7.647c-1.036-3.383-3.782-5.967-7.222-6.794
			c-3.441-0.827-7.061,0.224-9.523,2.766l-16.506,17.043c-24.771,25.573-59.859,40.241-96.271,40.241c-1.098,0-19.551,0-20.524,0
			c-3.482,0-6.882,0.351-10.176,1.005V140.001z M82.95,172.841h10.524v56.78c0,2.827,0.123,5.644,0.343,8.447H82.95
			c-17.852,0-32.374-14.63-32.374-32.613C50.576,187.472,65.099,172.841,82.95,172.841z M72.775,257.063
			c6.225,1.496,18.017,0.896,24.524,1.005c2.684,9.827,6.748,19.27,12.133,28.032c8.716,14.183,20.555,26.064,34.573,34.811
			l-6.748,24.057c-3.401,12.139-13.604,21.404-25.992,23.604c-1.156,0.243-37.379,7.916-38.489,8.187V257.063z M40.573,430.917
			c4.966-17.724,19.525-31.011,37.152-34.777l37.209-7.906c19.825-3.59,36.136-18.438,41.578-37.867l5.713-20.368
			c12.224,4.694,25.181,7.09,38.2,7.09c4.81,0,9.627-0.338,14.419-0.993v106.785c-12.805,0.289-23.134,10.796-23.134,23.679
			c0,9.419,2.879,18.177,7.801,25.44H23.234L40.573,430.917z M466.61,491.996H237.101c-14,0-25.39-11.411-25.39-25.436
			c0-2.036,1.648-3.692,3.674-3.692h272.94c2.026,0,3.675,1.656,3.675,3.692C492,480.585,480.61,491.996,466.61,491.996z"/>
	</g>
</g>
<g>
</g>
<g>
</g>
<g>
</g>
<g>
</g>
<g>
</g>
<g>
</g>
<g>
</g>
<g>
</g>
<g>
</g>
<g>
</g>
<g>
</g>
<g>
</g>
<g>
</g>
<g>
</g>
<g>
</g>
</svg>
