<?xml version="1.0" encoding="iso-8859-1"?>
<!-- Generator: Adobe Illustrator 27.0.0, SVG Export Plug-In . SVG Version: 6.00 Build 0)  -->
<svg version="1.1" id="Capa_1" xmlns="http://www.w3.org/2000/svg" xmlns:xlink="http://www.w3.org/1999/xlink" x="0px" y="0px"
	 viewBox="0 0 512 512" style="enable-background:new 0 0 512 512;" xml:space="preserve">
<g>
	<g>
		<path style="fill:#B1D952;" d="M249.909,277.188l6.234,24.642c1.671,6.605,4.618,12.602,8.533,17.689l1.979,1.925
			c8.557,8.326,19.416,13.894,31.171,15.984l7.066,1.256l26.303,5.087c17.576,3.399,31.506,17.803,35.29,36.489l9.088,44.879
			L391.136,502L36.21,501.999l16.264-80.321l8.387-41.417c3.784-18.687,17.714-33.09,35.29-36.489l26.561-5.137l6.328-1.066
			c12.878-2.17,24.689-8.506,33.62-18.035l0,0c3.921-5.091,6.871-11.093,8.544-17.703l6.528-25.804L249.909,277.188z"/>
		<path style="fill:#FDBEB9;" d="M272.321,326.296l-18.786,24.469c-19.931,25.925-59.1,25.674-78.7-0.502l-18.616-24.801
			c14.733-9.563,17.047-34.044,21.507-49.441l72.184,1.165C254.326,293.06,256.855,317.008,272.321,326.296z"/>
		<path style="fill:#FD7DA0;" d="M259.66,307.791c-14.318,6.125-29.912,9.348-45.485,9.348c-15.905,0-31.819-3.354-46.399-9.75
			c4.729-10.653,6.918-23.054,9.589-33.647l72.906,1.175C253.073,285.861,255.091,297.649,259.66,307.791z"/>
		<path style="fill:#B55348;" d="M293.185,79.793h56.673c19.933,0,36.091,16.165,36.091,36.106v87.05
			c0,13.81,5.484,27.055,15.245,36.82l13.414,13.42l-11.9,11.904c-11.646,11.651-27.441,18.196-43.911,18.196h-19.334
			c-26.397,0-47.796-21.408-47.796-47.815L293.185,79.793z"/>
		<path style="fill:#D46B5C;" d="M98.884,152.812v-36.61C98.884,57.791,146.674,10,205.085,10h16.691
			c58.411,0,106.201,47.791,106.201,106.201v35.854L98.884,152.812z"/>
		<path style="fill:#FDBEB9;" d="M310.207,149.585c19.2,0,34.764,15.571,34.764,34.778v0c0,19.207-15.564,34.778-34.764,34.778
			H116.994c-19.2,0-34.764-15.571-34.764-34.778v0c0-19.207,15.564-34.778,34.764-34.778H310.207z"/>
		<path style="fill:#FDBEB9;" d="M133.349,149.585l3.435-0.819c19.679-4.692,36.39-17.627,45.87-35.506l0,0l0,0
			c30.434,19.863,65.234,32.036,101.41,35.472l8.978,0.853l0.143,53.799c0,44.13-35.76,79.904-79.872,79.904h0
			c-44.112,0-79.872-35.774-79.872-79.904L133.349,149.585z"/>
		<path style="fill:#91B706;" d="M391.14,502H268.411c-1.396-4.579-2.149-9.428-2.149-14.449v-94.635
			c0-27.351,22.25-49.602,49.602-49.602h12.943l2.39,0.462c17.571,3.394,31.508,17.802,35.293,36.488l9.087,44.872L391.14,502z"/>
		<path style="fill:#6864F7;" d="M461.331,502c7.986,0,14.46-6.474,14.46-14.46v-94.622c0-7.986-6.474-14.46-14.46-14.46h-27.373
			c-0.702,0-1.382-0.245-1.923-0.693l-19.419-16.102c-1.923-1.595-4.343-2.467-6.841-2.467h-34.354
			c-2.498,0-4.918,0.873-6.841,2.467l-19.419,16.102c-0.54,0.448-1.221,0.693-1.923,0.693h-27.373c-7.986,0-14.46,6.474-14.46,14.46
			v94.629c0,7.982,6.471,14.454,14.454,14.454H461.331z"/>
		<circle style="fill:#FFFFFF;" cx="388.598" cy="433.228" r="26.011"/>
	</g>
	<g>
		<path style="fill:#FFFFFF;" d="M276.025,320.607c-4.377-3.365-8.761-4.125-12.126,0.255l-18.296,23.806
			c-7.522,9.789-18.891,15.388-31.223,15.388c-0.085,0-0.172,0-0.257-0.001c-12.431-0.078-23.834-5.831-31.284-15.783
			l-18.061-24.126c-3.31-4.42-8.535-2.846-12.955,0.462c-4.421,3.311-6.365,7.103-3.056,11.524l18.061,24.126
			c9.26,12.37,22.575,20.422,37.465,22.94v122.38c0,5.522,4.477,6.493,10,6.493s10-0.971,10-6.493V379.232
			c14.687-2.443,27.875-10.286,37.167-22.377l18.296-23.806C283.121,328.671,280.404,323.973,276.025,320.607z"/>
		<path style="fill:#052A75;" d="M471.017,370.462v-11.267c0-5.522-4.478-10-10-10s-10,4.478-10,10v9.263h-14.539l-17.479-14.494
			c-3.71-3.075-8.406-4.769-13.224-4.769h-34.354c-2.994,0-5.94,0.656-8.633,1.889c-7.872-8.831-18.304-14.928-29.695-17.132
			c-5.352-1.026-28.643-5.591-33.518-6.369c-9.824-1.746-18.797-6.348-25.949-13.307c-4.064-3.944-6.259-9.39-7.79-14.898
			l-4.991-19.73c9.661-6.048,18.097-13.88,24.842-23.035c8.457,21.449,29.366,36.674,53.777,36.674h19.333
			c19.261,0,37.367-7.503,50.983-21.126l11.9-11.904c3.903-3.905,3.903-10.235,0-14.14l-13.414-13.419
			c-7.943-7.946-12.317-18.513-12.317-29.751v-87.05c0-25.423-20.677-46.105-46.092-46.105h-21.562
			C310.346,28.753,269.359,0,221.776,0h-16.691C141.011,0,88.884,52.128,88.884,116.201v33.349
			c-10.148,8.216-16.653,20.766-16.653,34.813c0,24.69,20.081,44.777,44.764,44.777h10.211c6.403,21.382,20.56,39.442,39.195,50.897
			l-4.893,19.341c-1.274,5.039-3.454,9.637-6.481,13.672c-7.354,7.689-17.154,12.889-27.651,14.657
			c-4.233,0.577-28.395,5.346-33.124,6.245c-21.633,4.185-38.587,21.582-43.192,44.323L26.409,500.015
			c-0.595,2.94,0.161,5.992,2.06,8.315c1.899,2.322,4.741,3.669,7.741,3.669L461.33,512c13.487,0,24.46-10.973,24.46-24.46v-94.622
			C485.79,382.87,479.699,374.222,471.017,370.462z M349.858,89.793c14.387,0,26.092,11.711,26.092,26.105v87.05
			c0,16.579,6.454,32.166,18.173,43.89l6.347,6.35l-4.834,4.835c-9.839,9.844-22.922,15.266-36.838,15.266h-19.333
			c-20.841,0-37.796-16.964-37.796-37.814v-6.333h8.539c24.683,0,44.764-20.087,44.764-44.777c0-14.202-6.652-26.872-16.994-35.081
			v-33.081c0-9.081-1.049-17.921-3.029-26.408H349.858z M334.971,184.363c0,13.662-11.109,24.777-24.764,24.777h-7.213
			c0.122-1.913,0.191-3.839,0.191-5.782l-0.116-43.773h7.138C323.862,159.585,334.971,170.7,334.971,184.363z M116.994,209.141
			c-13.655,0-24.764-11.115-24.764-24.777c0-13.663,11.109-24.778,24.764-24.778h6.371l0.076,43.8c0,1.934,0.069,3.852,0.189,5.756
			H116.994z M116.994,139.585c-2.77,0-5.478,0.266-8.111,0.75v-24.134c0-53.046,43.156-96.201,96.201-96.201h16.691
			c53.046,0,96.201,43.155,96.201,96.201v24.073c-2.526-0.444-5.119-0.689-7.77-0.689h-16.693
			c-37.347-2.484-74.059-14.095-105.396-34.699c-2.352-1.536-5.243-2.013-7.963-1.309c-2.721,0.701-5.021,2.516-6.337,4.998
			c-8.517,16.093-24.067,27.646-41.952,31.01H116.994z M143.441,203.367l-0.079-46.013c17.194-5.111,32.14-15.82,42.506-30.325
			c29.578,17.495,62.973,28.394,97.199,31.653l0.118,44.702c0,38.545-31.344,69.903-69.872,69.903
			C174.785,273.288,143.441,241.93,143.441,203.367z M110.629,422.38c-5.523,0-10,4.478-10,10v59.619l-52.191,0l22.224-109.754
			c2.99-14.768,13.74-26.016,27.387-28.655c4.595-0.873,28.592-5.61,32.652-6.16c14.947-2.519,28.888-9.997,39.254-21.057
			c5.25-6.412,8.848-13.935,10.942-22.09l3.951-15.62c8.949,2.997,18.52,4.624,28.465,4.624c10.19,0,19.988-1.708,29.126-4.849
			l4.008,15.845c2.456,9.075,6.43,17.868,13.232,24.328c10.029,9.76,22.615,16.213,36.396,18.663
			c4.567,0.723,28.179,5.348,33.22,6.314c6.624,1.281,12.763,4.729,17.6,9.746l-6.177,5.122h-24.854
			c-13.487,0-24.46,10.973-24.46,24.46V492l-170.776-0.001V432.38C120.629,426.857,116.152,422.38,110.629,422.38z M465.79,487.54
			c0,2.459-2.001,4.46-4.46,4.46H315.859c-2.456,0-4.454-1.998-4.454-4.453v-94.629c0-2.459,2.001-4.46,4.46-4.46h27.373
			c3.024,0,5.974-1.062,8.306-2.995l19.418-16.101c0.13-0.107,0.293-0.167,0.46-0.167h34.354c0.167,0,0.33,0.06,0.459,0.166
			l19.415,16.098c2.33,1.934,5.28,2.999,8.31,2.999h27.372c2.459,0,4.46,2.001,4.46,4.46V487.54z"/>
	</g>
</g>
<g>
</g>
<g>
</g>
<g>
</g>
<g>
</g>
<g>
</g>
<g>
</g>
<g>
</g>
<g>
</g>
<g>
</g>
<g>
</g>
<g>
</g>
<g>
</g>
<g>
</g>
<g>
</g>
<g>
</g>
</svg>
