<?xml version="1.0" encoding="iso-8859-1"?>
<!-- Generator: Adobe Illustrator 27.2.0, SVG Export Plug-In . SVG Version: 6.00 Build 0)  -->
<svg version="1.1" id="Capa_1" xmlns="http://www.w3.org/2000/svg" xmlns:xlink="http://www.w3.org/1999/xlink" x="0px" y="0px"
	 viewBox="0 0 510.03 510.03" style="enable-background:new 0 0 510.03 510.03;" xml:space="preserve">
<g>
	<g>
		<g>
			<path style="fill:#FD8F01;" d="M467.348,10.03c-94.145,0-359.333,0-359.333,0l62.478,65.333h329.522c0,0,0-16.333,0-32.667
				C500.015,24.657,485.388,10.03,467.348,10.03z"/>
		</g>
		<g>
			<path style="fill:#FDCB50;" d="M193.536,75.363c-12.373,0-23.683-6.991-29.22-18.056c-4.549-9.106-10.053-20.115-14.602-29.221
				c-5.537-11.066-16.848-18.056-29.22-18.056c-20.752,0-53.385,0-77.812,0c-18.04,0-32.667,14.627-32.667,32.667
				c0,79.102,0,280.231,0,359.333c0,18.04,14.627,32.667,32.667,32.667h424.667c8.665,0,16.97-3.438,23.095-9.571
				c6.133-6.125,9.571-14.431,9.571-23.095c0-88.567,0-326.667,0-326.667S264.758,75.363,193.536,75.363z"/>
		</g>
		<g>
			<path style="fill:#FD8F01;" d="M255.015,327.773c-92.581,0-177.708-31.902-245-85.306c0,63.094,0,123.8,0,159.562
				c0,18.04,14.627,32.667,32.667,32.667h424.667c8.665,0,16.97-3.438,23.095-9.571c6.133-6.125,9.571-14.431,9.571-23.095
				c0-36.703,0-99.086,0-159.562C432.723,295.871,347.596,327.773,255.015,327.773z"/>
		</g>
		<g>
			<polygon style="fill:#D46B5C;" points="165.182,369.363 181.515,500.03 328.515,500.03 341.409,371.458 			"/>
		</g>
		<g>
			<polygon style="fill:#B55348;" points="172.682,429.364 335.602,429.364 341.409,371.458 165.182,369.363 			"/>
		</g>
		<g>
			<path style="fill:#67CCD1;" d="M255.015,222.363c-22.54,0-40.833-18.293-40.833-40.833c2.018-54.103,79.657-54.088,81.667,0.001
				C295.848,204.07,277.555,222.363,255.015,222.363z"/>
		</g>
		<g>
			<path style="fill:#67CCD1;" d="M255.015,222.363c-45.105,0-81.667,36.562-81.667,81.667h163.333
				C336.682,258.926,300.12,222.363,255.015,222.363z"/>
		</g>
		<g>
			<polygon style="fill:#D46B5C;" points="402.015,304.03 108.015,304.03 124.348,369.363 385.682,369.363 			"/>
		</g>
	</g>
	<path style="fill:#052A75;" d="M467.349,0.03c-58.239-0.094-374.235,0.068-424.667,0c-23.526,0-42.667,19.14-42.667,42.667
		c0,0,0,359.333,0,359.333c0,23.526,19.14,42.667,42.667,42.667c0,0,121.839,0,121.839,0l7.072,56.574
		c0.625,5.004,4.879,8.76,9.923,8.76h147c5.136,0,9.438-3.892,9.95-9.002l5.649-56.332h123.234c11.403,0,22.118-4.441,30.162-12.496
		c8.064-8.054,12.505-18.769,12.505-30.171V75.363V42.697C510.015,19.17,490.875,0.03,467.349,0.03z M490.015,42.697v22.667
		c0,0-296.479,0-296.479,0c-8.64,0-16.409-4.802-20.274-12.525c-1.115-1.892-15.736-32.06-16.641-32.808h310.728
		C479.847,20.03,490.015,30.198,490.015,42.697z M389.207,314.03l-11.333,45.333H132.156l-11.333-45.333H389.207z M224.182,181.53
		c0-17.001,13.832-30.833,30.833-30.833c40.849,1.55,40.837,60.122,0,61.667C238.014,212.363,224.182,198.532,224.182,181.53z
		 M184.061,294.03c13.153-81.705,128.785-81.647,141.908,0H184.061z M190.343,490.03l-13.833-110.667h154.057L319.468,490.03
		H190.343z M490.015,402.03c0.249,12.176-10.481,22.918-22.667,22.666c0,0-121.228,0-121.228,0l4.546-45.333h35.015
		c4.589,0,8.588-3.123,9.702-7.575l16.333-65.333c0.747-2.987,0.076-6.152-1.82-8.579c-1.895-2.427-4.802-3.846-7.882-3.846h-55.881
		c-3.714-34.077-26.179-62.6-56.831-75.008c33.93-30.681,11.999-88.371-34.288-88.325c-46.286-0.045-68.217,57.652-34.287,88.325
		c-30.652,12.408-53.117,40.931-56.831,75.008h-29.548v-34.858l13.404-13.404c3.905-3.905,3.905-10.237,0-14.142
		c-3.905-3.905-10.237-3.905-14.142,0l-16.333,16.333c-1.875,1.875-2.929,4.419-2.929,7.071v39h-6.333
		c-6.309-0.159-11.39,6.34-9.701,12.425c0,0,16.333,65.333,16.333,65.333c1.113,4.452,5.113,7.575,9.702,7.575h32.005l5.667,45.333
		c0,0-119.339,0-119.339,0c-12.499,0-22.667-10.168-22.667-22.667V42.697c0-12.499,10.168-22.667,22.667-22.667
		c9.115-0.112,70.416,0.081,77.812,0c8.64,0,16.409,4.802,20.274,12.525l14.604,29.227c7.279,14.545,21.902,23.581,38.163,23.581
		c0,0,296.479,0,296.479,0V402.03z"/>
</g>
<g>
</g>
<g>
</g>
<g>
</g>
<g>
</g>
<g>
</g>
<g>
</g>
<g>
</g>
<g>
</g>
<g>
</g>
<g>
</g>
<g>
</g>
<g>
</g>
<g>
</g>
<g>
</g>
<g>
</g>
</svg>
