<?xml version="1.0" encoding="iso-8859-1"?>
<!-- Generator: Adobe Illustrator 27.0.0, SVG Export Plug-In . SVG Version: 6.00 Build 0)  -->
<svg version="1.1" id="Capa_1" xmlns="http://www.w3.org/2000/svg" xmlns:xlink="http://www.w3.org/1999/xlink" x="0px" y="0px"
	 viewBox="0 0 510 510" style="enable-background:new 0 0 510 510;" xml:space="preserve">
<g>
	<g>
		<path style="fill-rule:evenodd;clip-rule:evenodd;fill:#FDBEB9;" d="M210,416.744c0-50.818-16.703-65.371-42.763-87.203
			l-47.839-40.079c-9.601-8.888-24.726-8.3-33.61,1.305c-8.884,9.605-8.298,24.736,1.304,33.624l-23.85-22.078l-5.598-101.843
			C55.955,169.756,38.26,155.437,10,156.811v173.6l78.992,116.314l121.007,0L210,416.744z"/>
		<path style="fill-rule:evenodd;clip-rule:evenodd;fill:#FD7DA0;" d="M210,416.744c0-5.4-0.19-10.386-0.559-15.019l-151.009,0
			l30.561,45l121.007,0L210,416.744z"/>
		<rect x="88.993" y="446.724" style="fill-rule:evenodd;clip-rule:evenodd;fill:#67CCD1;" width="121.007" height="53.276"/>
		<rect x="300" y="446.725" style="fill-rule:evenodd;clip-rule:evenodd;fill:#67CCD1;" width="121.008" height="53.275"/>
		<path style="fill-rule:evenodd;clip-rule:evenodd;fill:#FDBEB9;" d="M300,446.725h121.008L500,330.411v-173.6
			c-28.26-1.374-45.955,12.945-47.644,43.66l-5.598,101.843l-23.85,22.078c9.602-8.888,10.188-24.018,1.304-33.624
			c-8.884-9.606-24.008-10.193-33.61-1.305l-47.839,40.079C316.703,351.373,300,365.926,300,416.744V446.725z"/>
		<path style="fill-rule:evenodd;clip-rule:evenodd;fill:#FD7DA0;" d="M300,446.725h121.008l30.561-45h-151.01
			c-0.368,4.633-0.559,9.619-0.559,15.019V446.725z"/>
		<path style="fill-rule:evenodd;clip-rule:evenodd;fill:#FDCB50;" d="M191.708,10c0,34.955-28.337,63.292-63.292,63.292
			c0,96.857,16.197,190.219,126.584,219.797c110.387-29.578,126.584-122.941,126.584-219.797c-34.955,0-63.292-28.337-63.292-63.292
			H191.708z"/>
		<path style="fill-rule:evenodd;clip-rule:evenodd;fill:#FD8F01;" d="M226.939,55c-10.682,23.341-29.416,42.232-52.644,53.116
			c1.913,33.284,7.695,68.794,24.144,95.048c13.66,21.803,33.267,34.839,56.561,42.903c23.295-8.064,42.901-21.1,56.561-42.903
			c16.449-26.255,22.231-61.764,24.144-95.048C312.477,97.231,293.743,78.341,283.061,55H226.939z"/>
	</g>
	<g>
		<path style="fill:#FFFFFF;" d="M279.625,136.901c-3.905-3.904-10.237-3.904-14.143,0l-16.713,16.713l-4.253-4.253
			c-3.905-3.904-10.237-3.904-14.143,0c-3.905,3.905-3.905,10.237,0,14.143l11.324,11.324c1.953,1.952,4.512,2.929,7.071,2.929
			s5.119-0.977,7.071-2.929l23.784-23.784C283.53,147.139,283.53,140.807,279.625,136.901z"/>
		<g>
			<path style="fill:#052A75;" d="M173.66,321.876l-47.667-39.936c-6.578-5.994-15.104-9.104-24.057-8.753
				c-9.036,0.351-17.378,4.183-23.489,10.79c-2.391,2.585-4.3,5.447-5.732,8.474l-5.087-92.529
				c-0.979-17.807-6.768-31.532-17.206-40.794c-10.134-8.992-23.893-13.129-40.909-12.306C4.187,147.081,0,151.477,0,156.811
				v173.601c0,2.004,0.602,3.961,1.728,5.618L78.993,449.8V500c0,5.522,4.477,10,10,10H210c5.523,0,10-4.478,10-10v-83.256
				C220,360.698,199.55,343.565,173.66,321.876z M20,167.071c17.446,2.069,26.521,13.252,27.659,33.948l5.599,101.843
				c0.143,2.592,1.287,5.026,3.191,6.79l67.146,62.157c4.052,3.751,10.38,3.507,14.132-0.546s3.508-10.38-0.545-14.132
				L93.883,317.05c-5.578-5.166-5.916-13.909-0.753-19.492c2.483-2.685,5.886-4.242,9.583-4.386
				c3.696-0.135,7.209,1.146,9.893,3.629c0.121,0.111,0.245,0.221,0.371,0.326l47.839,40.079
				C186.082,358.374,200,370.034,200,416.744l0,19.98H94.289L20,327.337V167.071z M200,490H98.993v-33.275H200V490z"/>
			<path style="fill:#052A75;" d="M500.485,146.822c-17.014-0.816-30.775,3.314-40.909,12.306
				c-10.438,9.262-16.227,22.987-17.206,40.794l-5.087,92.529c-1.432-3.027-3.341-5.889-5.732-8.474
				c-6.111-6.607-14.453-10.439-23.489-10.79c-8.961-0.348-17.479,2.76-24.057,8.753l-47.667,39.936
				C310.45,343.565,290,360.698,290,416.744V500c0,5.522,4.477,10,10,10h121.008c5.523,0,10-4.478,10-10v-50.2l77.265-113.77
				c1.126-1.657,1.728-3.614,1.728-5.618V156.811C510,151.477,505.813,147.081,500.485,146.822z M411.007,490H310v-33.275h101.008
				V490z M490,327.337l-74.289,109.388H310l0-19.98c0-46.71,13.918-58.37,39.185-79.538l47.839-40.079
				c0.126-0.105,0.25-0.215,0.371-0.326c2.683-2.482,6.186-3.759,9.893-3.629c3.697,0.144,7.1,1.701,9.583,4.386
				c5.163,5.583,4.825,14.326-0.753,19.492l-43.299,40.082c-4.053,3.752-4.297,10.079-0.545,14.132
				c3.751,4.052,10.08,4.297,14.131,0.546l67.146-62.157c1.904-1.764,3.049-4.198,3.191-6.79l5.599-101.843
				c1.138-20.698,10.21-31.881,27.659-33.948V327.337z"/>
			<path style="fill:#052A75;" d="M368.786,212.568c20.207-44.319,22.798-97.712,22.798-139.276c0-5.522-4.477-10-10-10
				c-29.385,0-53.292-23.906-53.292-53.292c0-5.522-4.477-10-10-10H191.708c-5.523,0-10,4.478-10,10
				c0,29.386-23.907,53.292-53.292,53.292c-5.523,0-10,4.478-10,10c0,41.564,2.591,94.957,22.798,139.276
				c21.104,46.287,57.478,75.785,111.198,90.18c0.848,0.228,1.718,0.341,2.588,0.341s1.74-0.113,2.588-0.341
				C311.309,288.354,347.682,258.855,368.786,212.568z M255,282.719c-98.918-27.862-115.521-111.691-116.532-200.113
				c32.406-4.464,58.119-30.193,62.561-62.605h107.943c4.441,32.412,30.155,58.142,62.561,62.605
				C370.521,171.027,353.918,254.856,255,282.719z"/>
		</g>
	</g>
</g>
<g>
</g>
<g>
</g>
<g>
</g>
<g>
</g>
<g>
</g>
<g>
</g>
<g>
</g>
<g>
</g>
<g>
</g>
<g>
</g>
<g>
</g>
<g>
</g>
<g>
</g>
<g>
</g>
<g>
</g>
</svg>
