<?xml version="1.0" encoding="iso-8859-1"?>
<!-- Generator: Adobe Illustrator 29.1.0, SVG Export Plug-In . SVG Version: 9.03 Build 55587)  -->
<svg version="1.1" id="Capa_1" xmlns="http://www.w3.org/2000/svg" xmlns:xlink="http://www.w3.org/1999/xlink" x="0px" y="0px"
	 viewBox="0 0 510.002 510.002" style="enable-background:new 0 0 510.002 510.002;" xml:space="preserve">
<g>
	<g>
		<g>
			<g>
				<path style="fill:#67CCD1;" d="M455.969,500.001h-402c-24.301,0-44-19.699-44-44v-44h490v44
					C499.969,480.301,480.269,500.001,455.969,500.001z"/>
			</g>
			<g>
				<path style="fill:#D2DCFD;" d="M455.969,500.001h-402c-24.301,0-44-19.699-44-44v-44h490v44
					C499.969,480.301,480.269,500.001,455.969,500.001z"/>
			</g>
			<g>
				<path style="fill:#93B2F4;" d="M232.819,412.001H9.969v44c0,24.301,19.699,44,44,44H340.51
					C296.63,481.653,259.26,450.848,232.819,412.001z"/>
			</g>
			<g>
				<path style="fill:#FFFFFF;" d="M225.915,412.001h108.507v0c0,24.301-19.699,44-44,44h-19.222l-36.274-12.818L225.915,412.001z"
					/>
			</g>
			<g>
				<path style="fill:#D2DCFD;" d="M219.515,456.001h51.684c-14.472-13.064-27.375-27.832-38.38-44h-57.304
					C175.515,436.301,195.215,456.001,219.515,456.001z"/>
			</g>
		</g>
		<g>
			<g>
				<path style="fill:#67CCD1;" d="M432.969,96.957h-356c-24.301,0-44,19.699-44,44v271.044h444V140.957
					C476.969,116.656,457.269,96.957,432.969,96.957z"/>
			</g>
			<g>
				<path style="fill:#27A2CC;" d="M236.27,178.001c0-28.415,4.879-55.687,13.816-81.044H76.969c-24.301,0-44,19.699-44,44v271.044
					h378.586C310.267,382.406,236.27,288.851,236.27,178.001z"/>
			</g>
		</g>
		<g>
			<path style="fill:#FDCB50;" d="M179.632,172.891v61.203c0,5.03-4.078,9.108-9.108,9.108H144.74c-5.03,0-9.108-4.078-9.108-9.108
				v-61.203c-25.631,9.062-44,33.495-44,62.23c0,18.025,7.424,34.353,19.248,46.26c10.246,10.317,15.692,24.466,15.658,39.006
				l-0.311,91.615l62.809,0l0.313-92.687c0.032-14.037,5.361-27.643,15.233-37.622c11.212-11.334,18.273-26.728,18.99-43.716
				C224.835,208.013,206.108,182.252,179.632,172.891z"/>
		</g>
		<g>
			<g>
				<path style="fill:#B1D952;" d="M481.031,131.847c0-6.697-0.644-13.243-1.859-19.586L500,100.235l-33.846-58.623l-20.838,12.031
					c-9.85-8.542-21.333-15.25-33.915-19.603V10.001H343.71V34.04c-12.582,4.353-24.064,11.06-33.915,19.603l-20.838-12.031
					l-33.846,58.623l20.829,12.025c-1.215,6.343-1.859,12.889-1.859,19.586c0,6.697,0.644,13.243,1.859,19.586l-20.829,12.025
					l33.846,58.623l20.838-12.031c9.85,8.542,21.333,15.249,33.914,19.603v24.039h67.692v-24.039
					c12.582-4.353,24.064-11.06,33.915-19.603l20.838,12.031L500,163.458l-20.829-12.025
					C480.387,145.09,481.031,138.544,481.031,131.847z"/>
			</g>
			<g>
				<path style="fill:#91B706;" d="M330.517,39.674c-7.478,3.822-14.435,8.517-20.722,13.969l-20.838-12.031l-33.846,58.623
					l20.829,12.025c-1.215,6.343-1.859,12.889-1.859,19.586c0,6.697,0.644,13.243,1.859,19.586l-20.829,12.025l33.846,58.623
					l20.838-12.031c9.85,8.542,21.333,15.249,33.914,19.603v24.039h67.692v-24.039c12.582-4.353,24.064-11.06,33.915-19.603
					l20.838,12.031l15.166-26.267C398.365,191.207,332.291,123.355,330.517,39.674z"/>
			</g>
			<g>
				<path style="fill:#FFFFFF;" d="M341.624,94.977c9.277-9.042,21.954-14.613,35.932-14.613c28.433,0,51.482,23.049,51.482,51.482
					c0,17.004-8.244,32.083-20.953,41.458l-21.376-0.414l-41.952-42.701L341.624,94.977z"/>
			</g>
			<g>
				<path style="fill:#D2DCFD;" d="M341.632,94.986c-9.593,9.351-15.559,22.406-15.559,36.861c0,28.433,23.05,51.482,51.482,51.482
					c11.429,0,21.983-3.729,30.525-10.03C378.165,155.312,354.618,127.817,341.632,94.986z"/>
			</g>
		</g>
	</g>
	<g>
		<g>
			<g>
				<path style="fill:#FFFFFF;" d="M411.401,324.001h-137.32c-5.522,0-10-4.477-10-10s4.478-10,10-10h137.32c5.522,0,10,4.477,10,10
					S416.924,324.001,411.401,324.001z"/>
			</g>
			<g>
				<path style="fill:#FFFFFF;" d="M411.401,369.199h-137.32c-5.522,0-10-4.477-10-10s4.478-10,10-10h137.32c5.522,0,10,4.477,10,10
					S416.924,369.199,411.401,369.199z"/>
			</g>
		</g>
		<path style="fill:#052A75;" d="M500,402.001h-13V205.975l21.66-37.517c2.762-4.783,1.123-10.899-3.66-13.66l-14.878-8.59
			c0.604-4.765,0.909-9.571,0.909-14.361c0-4.79-0.305-9.597-0.909-14.361l14.878-8.59c4.783-2.761,6.422-8.877,3.66-13.66
			l-33.846-58.623c-1.326-2.297-3.51-3.973-6.072-4.659c-2.561-0.686-5.291-0.328-7.588,0.999l-14.875,8.588
			c-7.67-5.852-15.997-10.666-24.878-14.381V10.001c0-5.523-4.478-10-10-10H343.71c-5.522,0-10,4.477-10,10v17.158
			c-8.881,3.716-17.208,8.53-24.878,14.381l-14.875-8.588c-2.296-1.326-5.028-1.685-7.588-0.999
			c-2.562,0.687-4.746,2.362-6.072,4.659L251.23,86.957H77c-29.775,0-54,24.224-54,54v261.044H10c-5.522,0-10,4.477-10,10v44
			c0,29.776,24.225,54,54,54h402c29.775,0,54-24.224,54-54v-44C510,406.478,505.522,402.001,500,402.001z M285.762,149.55
			c-1.115-5.817-1.681-11.773-1.681-17.703c0-5.93,0.565-11.886,1.681-17.703c0.802-4.183-1.134-8.414-4.821-10.543l-12.169-7.025
			l23.846-41.303l12.178,7.031c3.69,2.131,8.329,1.688,11.552-1.105c9.05-7.848,19.356-13.806,30.633-17.708
			c4.028-1.394,6.73-5.188,6.73-9.45V20.001h47.691V34.04c0,4.263,2.702,8.057,6.73,9.45c11.276,3.902,21.583,9.86,30.633,17.708
			c3.222,2.793,7.86,3.237,11.552,1.105l12.178-7.031l23.846,41.303l-12.168,7.025c-3.688,2.129-5.622,6.359-4.821,10.542
			c1.115,5.823,1.681,11.78,1.681,17.705c0,5.925-0.565,11.882-1.681,17.705c-0.801,4.182,1.134,8.413,4.821,10.542l12.168,7.025
			l-23.846,41.303l-12.178-7.031c-3.69-2.132-8.329-1.689-11.552,1.105c-9.05,7.848-19.356,13.805-30.633,17.707
			c-4.028,1.394-6.73,5.188-6.73,9.45v14.04H353.71v-14.04c0-4.263-2.702-8.057-6.73-9.45c-11.276-3.902-21.583-9.859-30.633-17.707
			c-3.222-2.793-7.86-3.237-11.552-1.105l-12.178,7.031l-23.846-41.303l12.169-7.025
			C284.628,157.964,286.563,153.732,285.762,149.55z M43,140.957c0-18.748,15.252-34,34-34h170.716
			c0.689,0.758,1.492,1.417,2.396,1.938l14.878,8.59c-0.604,4.762-0.908,9.569-0.908,14.361c0,4.792,0.305,9.599,0.908,14.361
			l-14.878,8.59c-2.297,1.326-3.973,3.51-4.659,6.072c-0.687,2.562-0.327,5.292,0.999,7.588l33.846,58.623
			c1.326,2.297,3.51,3.973,6.072,4.659c2.561,0.686,5.291,0.327,7.588-0.999l14.875-8.588c7.671,5.853,15.997,10.666,24.878,14.381
			v17.158c0,5.523,4.478,10,10,10h67.691c5.522,0,10-4.477,10-10v-17.158c8.881-3.716,17.207-8.529,24.878-14.381l14.875,8.588
			c1.781,1.029,3.824,1.467,5.846,1.296v169.964H199.07l0.28-82.664c0.026-11.553,4.524-22.711,12.342-30.612
			c13.303-13.448,21.07-31.321,21.871-50.327c1.418-33.62-18.916-63.734-50.598-74.935c-3.062-1.082-6.456-0.611-9.106,1.263
			c-2.65,1.875-4.227,4.919-4.227,8.165v60.312h-24v-60.312c0-3.247-1.576-6.291-4.227-8.165c-2.65-1.874-6.048-2.345-9.106-1.263
			c-30.306,10.715-50.667,39.512-50.667,71.658c0,19.991,7.867,38.922,22.152,53.307c8.134,8.189,12.782,19.83,12.754,31.926
			l-0.277,81.648H43V140.957z M117.976,274.333c-10.539-10.613-16.344-24.539-16.344-39.213c0-18.585,9.235-35.65,24-45.954v44.928
			c0,10.536,8.572,19.108,19.108,19.108h25.783c10.536,0,19.108-8.572,19.108-19.108v-44.973
			c15.519,10.735,24.777,28.771,23.948,48.434c-0.591,14.024-6.312,27.201-16.107,37.104
			c-11.647,11.774-18.084,27.625-18.123,44.621l-0.28,82.721h-42.808l0.277-81.591C136.579,303.047,129.813,286.253,117.976,274.333
			z M490,456.001c0,18.748-15.252,34-34,34H54c-18.748,0-34-15.252-34-34v-34h470V456.001z"/>
	</g>
</g>
<g>
</g>
<g>
</g>
<g>
</g>
<g>
</g>
<g>
</g>
<g>
</g>
<g>
</g>
<g>
</g>
<g>
</g>
<g>
</g>
<g>
</g>
<g>
</g>
<g>
</g>
<g>
</g>
<g>
</g>
</svg>
