<?xml version="1.0" encoding="iso-8859-1"?>
<!-- Generator: Adobe Illustrator 29.4.0, SVG Export Plug-In . SVG Version: 9.03 Build 0)  -->
<svg version="1.1" id="Capa_1" xmlns="http://www.w3.org/2000/svg" xmlns:xlink="http://www.w3.org/1999/xlink" x="0px" y="0px"
	 viewBox="0 0 510 510" style="enable-background:new 0 0 510 510;" xml:space="preserve">
<g>
	<g>
		<g>
			<g>
				<rect x="15.062" y="49.69" style="fill:#D2DCFD;" width="88" height="48"/>
			</g>
			<g>
				<path style="fill:#93B2F4;" d="M89.062,216.055L89.062,216.055l0-118.365h-60v177.701l0.023-0.022
					C43.042,250.367,63.886,229.734,89.062,216.055z"/>
			</g>
			<g>
				<g>
					<circle style="fill:#93B2F4;" cx="161.094" cy="348.906" r="151.094"/>
				</g>
				<g>
					<path style="fill:#6864F7;" d="M156.974,323.235c0-46.08,17.798-87.997,46.884-119.274c-13.561-3.995-27.91-6.148-42.764-6.148
						C77.647,197.812,10,265.459,10,348.906S77.647,500,161.094,500c30.816,0,59.472-9.234,83.368-25.074
						C192.158,444.616,156.974,388.036,156.974,323.235z"/>
				</g>
				<g>
					<circle style="fill:#D2DCFD;" cx="161.094" cy="348.906" r="88"/>
				</g>
				<g>
					<path style="fill:#93B2F4;" d="M193.754,430.642c-23.052-29.663-36.78-66.931-36.78-107.407
						c0-21.845,4.006-42.751,11.312-62.034c-2.372-0.192-4.77-0.294-7.192-0.294c-48.601,0-88,39.399-88,88
						c0,48.601,39.399,88,88,88C172.635,436.906,183.655,434.681,193.754,430.642z"/>
				</g>
				<g>
					<circle style="fill:#6864F7;" cx="161.094" cy="348.906" r="26"/>
				</g>
			</g>
		</g>
		<g>
			<g>
				<path style="fill:#FFFFFF;" d="M386,10c-62.96,0-114,51.04-114,114c0,44.629,25.649,83.262,63.008,101.979v37.489l39.849-26.011
					C378.523,237.813,382.24,238,386,238c62.96,0,114-51.04,114-114S448.96,10,386,10z"/>
			</g>
			<g>
				<path style="fill:#D2DCFD;" d="M401.313,79.586c0-23.309,4.088-45.661,11.573-66.389C404.264,11.113,395.263,10,386,10
					c-62.96,0-114,51.04-114,114c0,44.629,25.649,83.262,63.008,101.979v37.489l39.849-26.011C378.523,237.813,382.24,238,386,238
					c26.087,0,50.123-8.769,69.335-23.511C421.865,179.41,401.313,131.898,401.313,79.586z"/>
			</g>
			<g>
				<path style="fill:#FDCB50;" d="M437.042,225.954c21.974-11.023,39.889-28.937,50.912-50.912l-27.948-27.948
					c-5.235-5.234-8.065-12.42-7.737-19.816c0.793-17.853-5.618-35.965-19.251-49.598l0,0c-8.808-8.808-19.484-14.602-30.752-17.386
					L390.643,80.83l31.159,112.624L437.042,225.954z"/>
			</g>
			<g>
				<path style="fill:#FD8F01;" d="M401.313,79.586c0-6.509,0.33-12.941,0.953-19.286c-14.725-3.638-30.46-2.14-44.357,4.496
					l32.94,32.939c8.435,8.435,9.06,22.179,0.93,30.908c-8.535,9.165-22.89,9.357-31.67,0.577l-33.312-33.312
					c-11.715,24.531-7.433,54.792,12.885,75.11h0c13.633,13.633,31.744,20.043,49.598,19.251c7.396-0.328,14.581,2.502,19.816,7.736
					l27.948,27.948c6.474-3.247,12.583-7.107,18.28-11.479C421.86,179.398,401.313,131.892,401.313,79.586z"/>
			</g>
		</g>
	</g>
	<g>
		<path style="fill:#052A75;" d="M168.859,188.002l-60.851-81.629c3.016-1.722,5.054-4.962,5.054-8.684v-48c0-5.523-4.477-10-10-10
			h-88c-5.523,0-10,4.477-10,10v48c0,5.523,4.477,10,10,10h4v165.268C6.906,295.599,0,321.46,0,348.906
			C0,437.733,72.267,510,161.094,510c88.828,0,161.094-72.267,161.094-161.094C322.188,262.682,254.094,192.068,168.859,188.002z
			 M99.062,127.836l45.35,60.836c-15.913,1.645-31.144,5.619-45.35,11.569V127.836z M25.062,59.69h68v28h-68V59.69z M79.062,107.69
			v102.626c-15.089,8.965-28.6,20.317-40,33.542V107.69H79.062z M161.094,490C83.294,490,20,426.706,20,348.906
			c0-77.8,63.294-141.094,141.094-141.094c77.8,0,141.094,63.294,141.094,141.094C302.188,426.706,238.894,490,161.094,490z"/>
		<path style="fill:#052A75;" d="M161.094,250.906c-54.038,0-98,43.962-98,98s43.962,98,98,98s98-43.962,98-98
			S215.131,250.906,161.094,250.906z M161.094,426.906c-43.009,0-78-34.991-78-78s34.991-78,78-78s78,34.991,78,78
			S204.103,426.906,161.094,426.906z"/>
		<path style="fill:#052A75;" d="M386,0c-68.374,0-124,55.626-124,124c0,23.453,6.583,46.289,19.036,66.04
			c10.993,17.436,26.113,31.833,43.972,41.938v31.491c0,3.67,2.011,7.046,5.239,8.794c3.223,1.745,7.15,1.589,10.228-0.42
			l36.977-24.137C380.31,247.901,383.172,248,386,248c68.374,0,124-55.626,124-124S454.374,0,386,0z M386,228
			c-3.361,0-6.786-0.167-10.177-0.496c-2.265-0.219-4.53,0.338-6.432,1.579l-24.383,15.916v-19.02c0-3.785-2.137-7.245-5.521-8.941
			C304.028,199.273,282,163.623,282,124c0-57.346,46.654-104,104-104s104,46.654,104,104S443.346,228,386,228z"/>
	</g>
</g>
<g>
</g>
<g>
</g>
<g>
</g>
<g>
</g>
<g>
</g>
<g>
</g>
<g>
</g>
<g>
</g>
<g>
</g>
<g>
</g>
<g>
</g>
<g>
</g>
<g>
</g>
<g>
</g>
<g>
</g>
</svg>
