<?xml version="1.0" encoding="iso-8859-1"?>
<!-- Generator: Adobe Illustrator 27.5.0, SVG Export Plug-In . SVG Version: 6.00 Build 0)  -->
<svg version="1.1" id="Layer_1" xmlns="http://www.w3.org/2000/svg" xmlns:xlink="http://www.w3.org/1999/xlink" x="0px" y="0px"
	 viewBox="0 0 512 512" style="enable-background:new 0 0 512 512;" xml:space="preserve">
<g>
	<g>
		<path style="fill:#FFFFFF;" d="M332.675,309.518c-18.82-21.479-46.454-35.042-77.256-35.042h-76.477
			c-56.708,0-102.679,45.971-102.679,102.679v52.117h260.069L332.675,309.518z"/>
		<path style="fill:#67CCD1;" d="M255.419,274.476h-76.477c-6.416,0-12.692,0.594-18.782,1.72l24.566,153.077h64.907L274.2,276.198
			C268.11,275.072,261.835,274.476,255.419,274.476z"/>
		<path style="fill:#6864F7;" d="M287.82,113.075v-42.83C287.82,36.973,260.848,10,227.575,10h-54.556
			c-25.714,0-46.56,20.846-46.56,46.56v0c0,11.655,4.372,22.887,12.251,31.476l10.058,10.963L287.82,113.075z"/>
		<polygon style="fill:#B55348;" points="180.357,236.515 180.357,274.476 217.181,317.969 254.005,274.476 254.005,236.514 		"/>
		<path style="fill:#D46B5C;" d="M287.82,130.85c0,0-0.017-16.876-0.051-17.775c-0.953-25.252-25.104-43.333-49.615-37.186
			c-6.713,1.684-13.739,2.578-20.974,2.578c-7.235,0-14.262-0.894-20.975-2.578c-24.511-6.147-48.661,11.934-49.614,37.186
			c-0.034,0.899-0.051,17.775-0.051,17.775c-12.2,0-22.09,9.89-22.09,22.09c0,12.2,9.89,22.09,22.09,22.09v5.193
			c0,39.013,31.626,70.64,70.64,70.64h0c39.013,0,70.64-31.626,70.64-70.64v-5.193c12.2,0,22.09-9.89,22.09-22.09
			C309.91,140.74,300.02,130.85,287.82,130.85z"/>
		<path style="fill:#FD6050;" d="M380.692,502h-0.359c-24.301,0-44-19.699-44-44V251.083h88.359V458
			C424.692,482.301,404.992,502,380.692,502z"/>
		<path style="fill:#D2DCFD;" d="M296.333,282.955v146.318h40l-3.658-119.754C322.74,298.18,310.348,289.051,296.333,282.955z"/>
		<path style="fill:#FFFFFF;" d="M336.333,251.083v54.465c14.241-5.338,29.942-5.305,44.161,0.111
			c14.232,5.421,29.948,5.448,44.198,0.097v-54.672H336.333z"/>
		<rect x="325.288" y="206.904" style="fill:#67CCD1;" width="110.449" height="44.18"/>
	</g>
	<g>
		<path style="fill:#052A75;" d="M217.181,217.229c20.178,0,36.594-16.416,36.594-36.595c0-5.523-4.477-10-10-10s-10,4.477-10,10
			c0,9.15-7.444,16.595-16.594,16.595s-16.594-7.444-16.594-16.595c0-5.523-4.477-10-10-10s-10,4.477-10,10
			C180.586,200.813,197.002,217.229,217.181,217.229z"/>
		<path style="fill:#052A75;" d="M435.737,196.904H325.288c-5.523,0-10,4.477-10,10v44.179c0,5.523,4.477,10,10,10h1.045v27.912
			c-17.847-14.009-39.531-22.481-62.328-24.19v-18.976c19.635-14.054,32.734-36.684,33.752-62.373
			c12.846-4.193,22.154-16.288,22.154-30.515c0-14.208-9.283-26.29-22.102-30.499c-0.01-4.987,0.012-52.196,0.012-52.196
			C297.82,31.512,266.309,0,227.575,0H173.02c-31.188,0-56.56,25.373-56.56,56.56c0,14.196,5.285,27.775,14.882,38.236l6.79,7.402
			c-0.871,3.401-1.398,6.915-1.534,10.502c-0.021,0.579-0.036,4.755-0.046,9.741c-12.818,4.208-22.102,16.291-22.102,30.499
			c0,14.228,9.308,26.322,22.154,30.515c1.018,25.689,14.117,48.319,33.751,62.373v18.973
			c-58.136,4.401-104.093,53.111-104.093,112.354v52.118c0,5.523,4.477,10,10,10h250.069V458c0,29.776,24.224,54,54,54h0.359
			c29.776,0,54-24.224,54-54V261.083h1.045c5.523,0,10-4.477,10-10v-44.179C445.737,201.381,441.26,196.904,435.737,196.904z
			 M335.288,216.904h90.449v24.179h-90.449V216.904z M146.079,81.275c-6.203-6.762-9.62-15.539-9.62-24.715
			c0-20.159,16.401-36.56,36.56-36.56h54.556c27.705,0,50.245,22.54,50.245,50.245v4.48c0,0,0,0,0,0
			c-12.121-9.094-27.464-12.207-42.098-8.536c-12.053,3.024-25.031,3.023-37.083,0c-14.633-3.669-29.977-0.558-42.097,8.535
			c-3.294,2.472-6.216,5.306-8.757,8.411L146.079,81.275z M156.541,180.222v-5.193c0-5.523-4.477-10-10-10
			c-6.667,0-12.09-5.423-12.09-12.089c0-6.667,5.423-12.09,12.09-12.09c5.519,0,9.995-4.471,10-9.99
			c0.006-6.227,0.024-16.483,0.043-17.408c0.34-8.997,4.699-17.282,11.96-22.729c5.28-3.961,11.569-6.033,17.969-6.033
			c2.42,0,4.857,0.296,7.26,0.899c15.231,3.82,31.582,3.82,46.814,0c8.758-2.197,17.953-0.325,25.229,5.134
			c7.261,5.448,11.62,13.732,11.957,22.645c0.022,1.017,0.041,11.269,0.047,17.493c0.005,5.519,4.481,9.99,10,9.99
			c6.667,0,12.09,5.423,12.09,12.09c0,6.666-5.423,12.089-12.09,12.089c-5.523,0-10,4.477-10,10v5.193
			c0,33.437-27.203,60.64-60.64,60.64S156.541,213.659,156.541,180.222z M217.181,260.862c9.4,0,18.428-1.622,26.824-4.592v14.542
			l-26.824,31.682l-26.824-31.682v-14.542C198.752,259.24,207.78,260.862,217.181,260.862z M86.263,419.272v-42.118
			c0-50.041,39.868-90.94,89.508-92.619l33.778,39.894c1.9,2.244,4.691,3.538,7.632,3.538s5.732-1.294,7.632-3.538l33.778-39.895
			c25.938,0.868,50.441,12.346,67.742,31.818v102.919H86.263z M414.692,458c0,18.748-15.252,34-34,34h-0.359
			c-18.748,0-34-15.252-34-34V261.083h68.359V458z"/>
	</g>
</g>
<g>
</g>
<g>
</g>
<g>
</g>
<g>
</g>
<g>
</g>
<g>
</g>
<g>
</g>
<g>
</g>
<g>
</g>
<g>
</g>
<g>
</g>
<g>
</g>
<g>
</g>
<g>
</g>
<g>
</g>
</svg>
