<?xml version="1.0" encoding="iso-8859-1"?>
<!-- Generator: Adobe Illustrator 27.0.0, SVG Export Plug-In . SVG Version: 6.00 Build 0)  -->
<svg version="1.1" id="Capa_1" xmlns="http://www.w3.org/2000/svg" xmlns:xlink="http://www.w3.org/1999/xlink" x="0px" y="0px"
	 viewBox="0 0 512.001 512.001" style="enable-background:new 0 0 512.001 512.001;" xml:space="preserve">
<g>
	<g>
		<path style="fill:#D46B5C;" d="M190.388,238.768H73.782C38.556,238.768,10,210.212,10,174.987v0
			c0-35.226,28.556-63.782,63.782-63.782h206.201L190.388,238.768z"/>
		<polygon style="fill:#D2DCFD;" points="273.892,396.984 296.578,364.586 294.963,331.955 313.703,305.192 312.088,272.561 
			330.827,245.799 329.212,213.168 347.952,186.406 346.336,153.775 365.076,127.012 363.461,94.381 382.201,67.619 380.585,34.988 
			380.585,34.988 346.251,10.001 152.902,275.677 		"/>
		<polygon style="fill:#B55348;" points="190.388,238.768 279.983,111.205 210.759,111.205 117.923,238.768 		"/>
		<path style="fill:#93B2F4;" d="M289.107,88.521l-31.014,42.615c-5.666,13.632-8.638,28.383-8.638,43.591v0.519
			c0,30.323,11.808,58.831,33.25,80.272c8.797,8.797,18.784,15.968,29.596,21.372l-0.214-4.329l18.74-26.762l-1.615-32.631
			l18.74-26.762l-1.615-32.631l18.74-26.762l-1.615-32.631l18.74-26.762l-0.318-6.414h-18.905
			C335.581,61.205,309.668,70.847,289.107,88.521z"/>
		<path style="fill:#FD6050;" d="M238.313,337.836l-85.411-62.159L65.34,395.992c-6.602,9.071-4.6,21.777,4.471,28.379l3.285,2.391
			c9.071,6.602,21.777,4.6,28.379-4.471l0,0l109.527,79.71l73.734-101.315L238.313,337.836z M214.518,421.22l-0.407,0.559
			c-7.15,9.824-20.909,11.992-30.733,4.842l-37.816-27.521c-9.824-7.15-11.992-20.909-4.842-30.733l0.407-0.559
			c7.15-9.824,20.909-11.992,30.734-4.843l37.816,27.521C219.5,397.636,221.668,411.396,214.518,421.22z"/>
		<path style="fill:#D46B5C;" d="M438.478,238.768h-75.5c-35.082,0-63.522-28.44-63.522-63.522v-0.519
			c0-35.082,28.44-63.522,63.522-63.522h75.5V238.768z"/>
		<circle style="fill:#F7B073;" cx="438.219" cy="174.987" r="63.762"/>
		<circle style="fill:#FDE0BE;" cx="438.219" cy="174.987" r="22.09"/>
	</g>
	<g>
		<path style="fill:#FDE0BE;" d="M232.98,152.884h-43.139c-5.523,0-10,4.477-10,10s4.477,10,10,10h43.139c5.523,0,10-4.477,10-10
			S238.503,152.884,232.98,152.884z"/>
		<path style="fill:#FDE0BE;" d="M90.966,154.905c0-5.523-4.477-10-10-10h-66.16c-5.523,0-10,4.477-10,10s4.477,10,10,10h66.16
			C86.489,164.905,90.966,160.428,90.966,154.905z"/>
		<path style="fill:#FDE0BE;" d="M162.896,185.015h-66.16c-5.523,0-10,4.477-10,10s4.477,10,10,10h66.16c5.523,0,10-4.477,10-10
			S168.419,185.015,162.896,185.015z"/>
		<path style="fill:#FDE0BE;" d="M374.437,154.946h-28.793c-5.523,0-10,4.477-10,10s4.477,10,10,10h28.793c5.523,0,10-4.477,10-10
			S379.96,154.946,374.437,154.946z"/>
		<path style="fill:#052A75;" d="M215.56,382.401l-37.816-27.521c-14.266-10.383-34.321-7.223-44.703,7.043l-0.407,0.56
			c-10.383,14.267-7.223,34.321,7.044,44.703l37.816,27.521c5.531,4.025,12.05,6.133,18.762,6.133c1.675,0,3.363-0.131,5.049-0.397
			c8.443-1.331,15.863-5.869,20.89-12.777l0.41-0.562c5.03-6.911,7.067-15.367,5.737-23.811
			C227.01,394.85,222.471,387.431,215.56,382.401z M206.435,415.332l-0.41,0.562c-1.886,2.592-4.668,4.294-7.834,4.792
			c-3.167,0.497-6.337-0.265-8.929-2.151l-37.816-27.521c-2.592-1.886-4.294-4.668-4.792-7.834
			c-0.499-3.167,0.265-6.337,2.151-8.929l0.407-0.559c3.894-5.35,11.413-6.535,16.764-2.642l37.816,27.521
			c2.591,1.886,4.293,4.668,4.792,7.834C209.083,409.573,208.319,412.744,206.435,415.332z"/>
		<path style="fill:#052A75;" d="M438.478,101.205h-64.667l-0.193-3.895l16.774-23.955c1.274-1.819,1.906-4.012,1.796-6.23
			l-1.615-32.631c-0.149-3.021-1.658-5.811-4.104-7.591L352.136,1.915c-4.466-3.25-10.721-2.265-13.97,2.201l-70.658,97.088H73.782
			C33.099,101.205,0,134.303,0,174.987s33.098,73.782,73.782,73.782h86.335L57.254,390.108c-9.835,13.515-6.842,32.513,6.673,42.349
			c0,0,0,0,0,0l3.285,2.39c10.684,7.775,24.792,7.533,35.094,0.416l102.812,74.823c1.72,1.252,3.783,1.915,5.884,1.915
			c0.518,0,1.039-0.04,1.557-0.122c2.62-0.413,4.968-1.849,6.529-3.994l73.733-101.315c2.568-3.529,2.551-8.315-0.042-11.826
			l-2.624-3.552l14.614-20.87c1.274-1.819,1.906-4.012,1.796-6.23l-1.446-29.208l16.773-23.955c1.274-1.82,1.906-4.012,1.796-6.23
			l-1.445-29.208l16.773-23.956c1.266-1.808,1.896-3.983,1.797-6.187c6.997,2.217,14.441,3.421,22.163,3.421h75.5
			c40.541,0,73.522-32.982,73.522-73.522v-0.519C512,134.187,479.018,101.205,438.478,101.205z M73.782,228.768
			C44.127,228.768,20,204.642,20,174.987s24.126-53.782,53.782-53.782h179.171l-78.281,107.563H73.782z M208.802,488.031
			L107.36,414.205c-1.776-1.293-3.835-1.915-5.876-1.915c-3.089,0-6.137,1.427-8.094,4.116c-3.347,4.598-9.811,5.617-14.41,2.27
			l-3.285-2.391c-4.598-3.347-5.616-9.811-2.27-14.409l81.678-112.23l76.081,55.369l41.153,55.714L208.802,488.031z M320.67,242.87
			l-16.773,23.955c-1.274,1.82-1.906,4.012-1.796,6.23l1.445,29.208l-16.773,23.955c-1.274,1.82-1.906,4.012-1.796,6.23
			l1.446,29.208l-8.799,12.566l-31.266-42.329c-0.606-0.821-1.334-1.544-2.159-2.144l-77.325-56.275L348.453,23.971l22.381,16.289
			l1.209,24.431l-16.774,23.955c-1.274,1.82-1.906,4.012-1.796,6.23l0.343,6.92c-36.229,4.527-64.36,35.495-64.36,72.931v0.519
			c0,24.627,12.184,46.449,30.827,59.798L320.67,242.87z M362.978,228.768c-29.512,0-53.522-24.01-53.522-53.522v-0.519
			c0-29.512,24.01-53.522,53.522-53.522h24.808c-14.355,13.47-23.349,32.59-23.349,53.782s8.994,40.312,23.349,53.782H362.978z
			 M492,175.246c0,29.512-24.01,53.522-53.522,53.522h-0.259c-29.655,0-53.782-24.126-53.782-53.782s24.126-53.782,53.782-53.782
			h0.259c29.512,0,53.522,24.01,53.522,53.522V175.246z"/>
	</g>
</g>
<g>
</g>
<g>
</g>
<g>
</g>
<g>
</g>
<g>
</g>
<g>
</g>
<g>
</g>
<g>
</g>
<g>
</g>
<g>
</g>
<g>
</g>
<g>
</g>
<g>
</g>
<g>
</g>
<g>
</g>
</svg>
