<?xml version="1.0" encoding="iso-8859-1"?>
<!-- Generator: Adobe Illustrator 29.7.1, SVG Export Plug-In . SVG Version: 9.03 Build 0)  -->
<svg version="1.1" id="Layer_1" xmlns="http://www.w3.org/2000/svg" xmlns:xlink="http://www.w3.org/1999/xlink" x="0px" y="0px"
	 viewBox="0 0 500 500" style="enable-background:new 0 0 500 500;" xml:space="preserve">
<g>
	<g>
		<g>
			<g>
				<g>
					<g>
						<path style="fill:#FDCB50;" d="M440.781,50.99l23.991-41.553l0.005-0.008C454.415,3.433,442.385,0,429.553,0
							c-12.832,0-24.862,3.433-35.224,9.429l0.005,0.008l23.991,41.553H440.781z"/>
					</g>
					<g>
						<path style="fill:#FDCB50;" d="M407.095,70.437h-47.979l-0.01,0c-0.011,11.971,3.03,24.105,9.447,35.218
							c6.416,11.113,15.404,19.815,25.777,25.79l0.004-0.009l23.991-41.553L407.095,70.437z"/>
					</g>
					<g>
						<path style="fill:#FDCB50;" d="M440.781,89.884l23.991,41.553l0.004,0.009c10.373-5.976,19.361-14.677,25.777-25.79
							c6.416-11.113,9.458-23.247,9.447-35.218l-0.01,0h-47.979L440.781,89.884z"/>
					</g>
				</g>
				<g id="XMLID_6_">
					<circle style="fill:#6864F7;" cx="429.553" cy="70.437" r="22.458"/>
				</g>
			</g>
			<g>
				<g>
					<path style="fill:#FDCB50;" d="M193.623,10.211L193.623,10.211c-69.692,0-126.189,56.497-126.189,126.189v205.762h252.378
						V136.4C319.812,66.707,263.315,10.211,193.623,10.211z"/>
				</g>
				<g>
					<path style="fill:#FD8F01;" d="M193.623,262.913c-53.797,0-100.799-29.059-126.189-72.332v151.581h252.378V190.581
						C294.422,233.854,247.419,262.913,193.623,262.913z"/>
				</g>
				<g>
					<path style="fill:#FFFFFF;" d="M235.511,307.697c0,0,47.378,7.06,87.35,13.016c31.255,4.657,54.384,31.494,54.384,63.094V490
						H193.623H10V383.806c0-31.6,23.13-58.436,54.384-63.094c39.972-5.956,87.35-13.016,87.35-13.016H235.511z"/>
				</g>
				<g>
					<polygon style="fill:#D2DCFD;" points="108.743,314.103 86.688,378.588 104.698,397.595 89.032,424.831 111.767,490 
						151.734,490 151.734,307.697 					"/>
				</g>
				<g>
					<polygon style="fill:#D2DCFD;" points="278.503,314.103 300.557,378.588 282.547,397.595 298.214,424.831 275.478,490 
						235.511,490 235.511,307.697 					"/>
				</g>
				<g>
					<rect x="151.734" y="266.198" style="fill:#FDBEB9;" width="83.611" height="223.802"/>
				</g>
				<g>
					<path style="fill:#FD7DA0;" d="M151.734,291.475c0,11.903,7.743,22.488,19.143,25.911c7.203,2.163,14.837,3.327,22.745,3.327h0
						c7.833,0,15.399-1.142,22.542-3.265c11.423-3.395,19.18-14.005,19.18-25.922v-25.328h-83.611V291.475z"/>
				</g>
				<g>
					<path style="fill:#6864F7;" d="M193.623,348.164L193.623,348.164c-15.387,0-29.738-4.406-41.889-12.004V490h83.611V336.267
						C223.23,343.8,208.939,348.164,193.623,348.164z"/>
				</g>
				<g>
					<g>
						<path style="fill:#FDBEB9;" d="M114.487,136.218v61.754c0,43.705,35.43,79.135,79.135,79.135h0
							c43.705,0,79.135-35.43,79.135-79.135v-61.754H114.487z"/>
					</g>
					<g>
						<path style="fill:#27A2CC;" d="M272.758,136.218v56.384h-56.83c-5.157,0-10.081-2.147-13.59-5.926l-8.757-9.431l-8.757,9.431
							c-3.509,3.779-8.433,5.926-13.59,5.926h-56.83v-56.384H272.758z"/>
					</g>
				</g>
			</g>
			<g>
				<g>
					<path style="fill:#B1D952;" d="M477.237,438.175l-38.365-66.451v-85.618h-62.806v85.618l-38.365,66.45
						C324.402,461.208,341.025,490,367.622,490h79.694C473.913,490,490.536,461.208,477.237,438.175z"/>
				</g>
				<g>
					<path style="fill:#91B706;" d="M376.066,345.43v26.295l-38.365,66.45C324.402,461.208,341.025,490,367.622,490h79.694
						c21.896,0,37.014-19.513,34.261-39.262C429.57,438.282,388.62,397.399,376.066,345.43z"/>
				</g>
			</g>
		</g>
	</g>
	<path style="fill:#052A75;" d="M485.897,433.175l-37.025-64.13v-72.938h2.195c5.522,0,10-4.477,10-10s-4.478-10-10-10H363.87
		c-5.522,0-10,4.477-10,10s4.478,10,10,10h2.195v36c-9.742-9.909-22.249-17.067-36.254-20.25V136.399
		c0-75.095-61.094-136.188-136.188-136.188S57.434,61.305,57.434,136.399v175.468c-15.328,3.485-29.212,11.782-39.536,23.76
		C6.356,349.017,0,366.127,0,383.806V490c0,5.523,4.478,10,10,10h437.316c16.105,0,30.529-8.327,38.582-22.275
		S493.95,447.123,485.897,433.175z M365.459,370.095l-36.419,63.079c-8.053,13.948-8.053,30.602,0,44.55
		c0.449,0.778,0.925,1.532,1.414,2.275h-85.109V319.272l76.043,11.331C342.723,333.782,360.028,349.456,365.459,370.095z
		 M262.758,146.218v51.754c0,38.122-31.014,69.136-69.135,69.136c-38.122,0-69.136-31.014-69.136-69.136v-51.754H262.758z
		 M161.734,281.206c9.907,3.808,20.657,5.902,31.889,5.902c11.169,0,21.861-2.071,31.722-5.839V480h-63.61V281.206z M193.623,20.211
		c64.066,0,116.188,52.122,116.188,116.188v172.258l-64.467-9.606v-28.525c22.633-16.181,37.413-42.673,37.413-72.554v-61.754
		c0-5.523-4.478-10-10-10h-73.495c6.207-8.298,9.887-18.591,9.887-29.727c0-5.523-4.478-10-10-10s-10,4.477-10,10
		c0,16.392-13.336,29.727-29.728,29.727h-44.936c-5.522,0-10,4.477-10,10v61.754c0,29.807,14.709,56.241,37.247,72.433v28.671
		l-64.301,9.581V136.399C77.434,72.333,129.556,20.211,193.623,20.211z M20,383.806c0-12.888,4.634-25.361,13.047-35.122
		s20.065-16.182,32.812-18.082l75.876-11.306V480H20V383.806z M468.577,467.725C464.14,475.411,456.191,480,447.316,480h-79.694
		c-8.875,0-16.823-4.589-21.261-12.275c-4.438-7.686-4.438-16.864-0.001-24.55l38.365-66.451c0.878-1.52,1.34-3.244,1.34-5h0.001
		v-0.112c0-0.007-0.001-0.014-0.001-0.02v-75.487h42.807v75.618c0,1.755,0.462,3.48,1.34,5l38.365,66.451
		C473.015,450.861,473.015,460.039,468.577,467.725z"/>
</g>
<g>
</g>
<g>
</g>
<g>
</g>
<g>
</g>
<g>
</g>
<g>
</g>
<g>
</g>
<g>
</g>
<g>
</g>
<g>
</g>
<g>
</g>
<g>
</g>
<g>
</g>
<g>
</g>
<g>
</g>
</svg>
