<?xml version="1.0" encoding="iso-8859-1"?>
<!-- Generator: Adobe Illustrator 27.5.0, SVG Export Plug-In . SVG Version: 6.00 Build 0)  -->
<svg version="1.1" id="Layer_1" xmlns="http://www.w3.org/2000/svg" xmlns:xlink="http://www.w3.org/1999/xlink" x="0px" y="0px"
	 viewBox="0 0 510 510" style="enable-background:new 0 0 510 510;" xml:space="preserve">
<g>
	<g>
		<g>
			<g>
				<rect x="10" y="10" style="fill:#FFFFFF;" width="339.469" height="428.958"/>
			</g>
		</g>
		<g>
			<path style="fill:#D2DCFD;" d="M117.599,106.495c0-33.453,4.645-65.82,13.321-96.495H10v428.958h339.469v-0.233
				C214.146,389.044,117.599,259.045,117.599,106.495z"/>
		</g>
		<g>
			<g>
				<polygon style="fill:#FD7DA0;" points="500,106.495 349.469,257.026 460.218,367.774 500,327.992 				"/>
			</g>
			<g>
				
					<rect x="223.785" y="274.829" transform="matrix(0.7071 -0.7071 0.7071 0.7071 -162.1115 278.6726)" style="fill:#FDCB50;" width="63.093" height="120.387"/>
			</g>
			<g>
				<circle style="fill:#B1D952;" cx="159.576" cy="239.267" r="100"/>
			</g>
			<g>
				<path style="fill:#91B706;" d="M159.576,339.267c13.746,0,26.843-2.775,38.764-7.793
					c-42.266-51.24-70.384-114.578-78.388-184.042c-35.517,15.345-60.376,50.685-60.376,91.835
					C59.576,294.495,104.348,339.267,159.576,339.267z"/>
			</g>
			<g>
				<path style="fill:#FDBEB9;" d="M453.335,360.892L453.335,360.892l-96.984-96.984l0,0c-21.494-2.043-42.777,5.613-58.044,20.88
					l-14.222,14.222c-6.84,6.84-11.704,15.401-14.079,24.778v0c-4.642,18.333,0.707,37.755,14.079,51.127l14.628,14.629
					l81.567,81.567l52.175-52.175C447.722,403.669,455.378,382.386,453.335,360.892z"/>
			</g>
			<g>
				<g>
					<g>
						<path style="fill:#FDBEB9;" d="M262.814,339.676l-33.577,33.577c-8.592,8.592-8.592,22.521,0,31.113l0,0
							c8.592,8.592,22.521,8.592,31.113,0l26.593-26.593L262.814,339.676z"/>
					</g>
				</g>
				<g>
					<g>
						<path style="fill:#FDBEB9;" d="M286.942,377.773l-31.745,31.745c-8.592,8.592-8.592,22.521,0,31.113l0,0
							c8.592,8.592,22.521,8.592,31.113,0l34.817-34.817L286.942,377.773z"/>
					</g>
				</g>
				<g>
					<g>
						<path style="fill:#FDBEB9;" d="M356.152,401.901L356.152,401.901c-8.592-8.592-22.521-8.592-31.113,0l-33.577,33.577
							c-8.592,8.592-8.592,22.521,0,31.113l0,0c8.592,8.592,22.521,8.592,31.113,0l33.577-33.577
							C364.743,424.423,364.743,410.493,356.152,401.901z"/>
					</g>
				</g>
				<g>
					<g>
						<path style="fill:#FDBEB9;" d="M387.265,433.014L387.265,433.014c-8.592-8.592-22.521-8.592-31.113,0l-29.43,29.43
							c-8.592,8.592-8.592,22.521,0,31.113l0,0c8.592,8.592,22.521,8.592,31.113,0l29.43-29.43
							C395.856,455.535,395.856,441.606,387.265,433.014z"/>
					</g>
				</g>
			</g>
		</g>
	</g>
	<g>
		<g>
			<path style="fill:#FFFFFF;" d="M153.263,267.866c-2.559,0-5.119-0.976-7.071-2.929l-18.6-18.6
				c-3.905-3.905-3.905-10.237,0-14.143c3.905-3.905,10.237-3.905,14.143,0l11.528,11.529l30.128-30.128
				c3.905-3.905,10.237-3.905,14.143,0c3.905,3.905,3.905,10.237,0,14.143l-37.199,37.199
				C158.381,266.89,155.822,267.866,153.263,267.866z"/>
		</g>
		<path style="fill:#052A75;" d="M503.827,97.256c-3.737-1.549-8.038-0.691-10.898,2.167l-133.459,133.46V10c0-5.523-4.477-10-10-10
			H10C4.477,0,0,4.477,0,10v428.958c0,5.523,4.477,10,10,10h239.462c5.868,5.245,13.358,8.116,21.291,8.116
			c1.619,0,3.22-0.121,4.793-0.355c1.112,6.21,4.056,12.154,8.845,16.943c6.238,6.238,14.433,9.357,22.627,9.357
			c1.208,0,2.416-0.076,3.618-0.212c1.007,6.722,4.119,12.925,9.014,17.82c6.044,6.044,14.081,9.373,22.628,9.373
			s16.583-3.329,22.627-9.373l74.62-74.62c13.277-13.276,21.459-30.406,23.581-48.66c1.565-0.472,3.006-1.325,4.183-2.502
			l39.782-39.783c1.875-1.875,2.929-4.418,2.929-7.071V106.495C510,102.451,507.563,98.804,503.827,97.256z M20,20h319.469v234.186
			c-18.094,2.199-35.06,10.358-48.233,23.531l-14.222,14.222c-1.004,1.004-1.972,2.04-2.903,3.105l-13.137-13.137
			c5.538-13.12,8.603-27.529,8.603-42.641c0-29.382-11.441-57.005-32.218-77.782s-48.4-32.218-77.782-32.218
			c-60.654,0-110,49.346-110,110c0,60.654,49.346,110,110,110c15.112,0,29.521-3.065,42.641-8.603l22.734,22.734l-2.784,2.784
			c-6.044,6.044-9.373,14.08-9.373,22.627s3.329,16.583,9.373,22.627c4.68,4.681,10.558,7.724,16.94,8.863
			c-0.233,1.567-0.352,3.162-0.352,4.776c0,1.309,0.088,2.604,0.241,3.884H20V20z M253.278,397.294
			c-2.266,2.267-5.28,3.515-8.485,3.515s-6.219-1.248-8.485-3.515c-2.267-2.266-3.515-5.28-3.515-8.485s1.248-6.219,3.515-8.485
			l24.855-24.855c2.431,8.007,6.424,15.546,11.839,22.101L253.278,397.294z M159.576,329.267c-49.626,0-90-40.374-90-90
			c0-49.626,40.375-90,90-90c24.04,0,46.641,9.362,63.639,26.36c16.999,16.999,26.36,39.6,26.36,63.64
			C249.576,288.893,209.202,329.267,159.576,329.267z M251.059,300.278l12.208,12.208c-1.193,2.865-2.187,5.819-2.954,8.848
			c-0.724,2.859-1.235,5.746-1.549,8.641c-1.056,0.818-19.67,19.28-19.67,19.28l-18.505-18.505
			C232.631,322.691,243.001,312.322,251.059,300.278z M262.269,433.56c-2.267-2.267-3.515-5.28-3.515-8.485
			c0-3.206,1.248-6.219,3.515-8.485l24.674-24.674l4.7,4.7c4.421,4.421,9.91,7.381,15.883,8.656l-28.288,28.288
			c-2.266,2.267-5.28,3.515-8.485,3.515S264.535,435.827,262.269,433.56z M298.534,459.52c-4.679-4.679-4.679-12.292,0-16.97
			l33.577-33.577c2.267-2.267,5.28-3.515,8.485-3.515c3.205,0,6.219,1.248,8.485,3.515l0,0c2.267,2.267,3.515,5.28,3.515,8.485
			c0,3.206-1.249,6.219-3.515,8.485l-33.577,33.577C310.825,464.199,303.212,464.198,298.534,459.52z M350.764,486.485
			c-2.266,2.267-5.28,3.515-8.485,3.515c-3.206,0-6.219-1.248-8.485-3.515c-2.267-2.266-3.515-5.28-3.515-8.485
			s1.248-6.219,3.515-8.485l29.43-29.43c2.267-2.267,5.28-3.515,8.485-3.515c3.205,0,6.219,1.248,8.485,3.515l0,0
			c2.267,2.266,3.515,5.28,3.515,8.485s-1.248,6.219-3.515,8.485L350.764,486.485z M425.384,411.865l-24.205,24.205
			c-1.585-3.736-3.887-7.171-6.843-10.126c-5.839-5.839-13.539-9.135-21.761-9.352c-0.217-8.222-3.512-15.922-9.351-21.761
			c-5.215-5.216-11.915-8.403-19.145-9.181c1.434-3.668,2.192-7.605,2.192-11.662c0-8.28-3.124-16.08-8.813-22.054
			c8.028-2.722,15.422-7.268,21.56-13.405c3.905-3.905,3.905-10.237,0-14.143s-10.237-3.905-14.143,0
			c-7.313,7.313-17.407,11.1-27.731,10.429c-2.871-0.283-5.857,0.681-8.062,2.884c-2.767,2.767-3.666,6.893-2.301,10.56
			c0.563,1.511,1.466,2.829,2.608,3.877l13.367,13.367c2.267,2.266,3.515,5.28,3.515,8.485c0,3.206-1.248,6.219-3.515,8.485
			c-2.266,2.267-5.28,3.515-8.485,3.515s-6.219-1.248-8.485-3.515l-14.629-14.629c-10.823-10.823-15.212-26.763-11.455-41.602
			c1.931-7.626,5.892-14.598,11.455-20.161l14.222-14.222c12.38-12.379,29.18-18.919,46.552-18.23l91.683,91.684
			C444.302,382.684,437.764,399.486,425.384,411.865z M490,323.85l-29.782,29.783l-96.606-96.606L490,130.637V323.85z"/>
		<g>
			<path style="fill:#6864F7;" d="M179.734,64H59.576c-5.523,0-10-4.477-10-10s4.477-10,10-10h120.158c5.523,0,10,4.477,10,10
				S185.257,64,179.734,64z"/>
		</g>
		<g>
			<path style="fill:#6864F7;" d="M98.378,108.378H59.576c-5.523,0-10-4.477-10-10s4.477-10,10-10h38.802c5.523,0,10,4.477,10,10
				S103.901,108.378,98.378,108.378z"/>
		</g>
	</g>
</g>
<g>
</g>
<g>
</g>
<g>
</g>
<g>
</g>
<g>
</g>
<g>
</g>
<g>
</g>
<g>
</g>
<g>
</g>
<g>
</g>
<g>
</g>
<g>
</g>
<g>
</g>
<g>
</g>
<g>
</g>
</svg>
