<?xml version="1.0" encoding="iso-8859-1"?>
<!-- Generator: Adobe Illustrator 27.2.0, SVG Export Plug-In . SVG Version: 6.00 Build 0)  -->
<svg version="1.1" id="Capa_1" xmlns="http://www.w3.org/2000/svg" xmlns:xlink="http://www.w3.org/1999/xlink" x="0px" y="0px"
	 viewBox="0 0 510.01 510.01" style="enable-background:new 0 0 510.01 510.01;" xml:space="preserve">
<g>
	<g>
		<polygon style="fill:#B1D952;" points="368.488,108.354 10.01,108.354 26.304,499.422 352.194,499.422 		"/>
		<polygon style="fill:#BC9AF4;" points="500.01,255.005 362.378,255.005 352.194,499.422 482.55,499.422 		"/>
		<polygon style="fill:#6864F7;" points="362.378,255.005 352.194,499.422 421.13,499.422 431.314,255.005 		"/>
		<path style="fill:#91B706;" d="M64.1,133.217c0-8.354,0.274-16.643,0.808-24.862H10.01l16.294,391.068h322.411
			C185.127,457.928,64.1,309.708,64.1,133.217z"/>
	</g>
	<g>
		<path style="fill:#052A75;" d="M148.513,281.299c-5.523,0-10-4.477-10-10v-16.294c0.525-13.261,19.474-13.265,20,0
			c0,0,0,16.294,0,16.294C158.513,276.822,154.036,281.299,148.513,281.299z"/>
		<path style="fill:#052A75;" d="M229.985,395.361c-5.523,0-10-4.477-10-10v-16.294c0.525-13.261,19.474-13.265,20,0
			c0,0,0,16.294,0,16.294C239.985,390.884,235.508,395.361,229.985,395.361z"/>
		<path style="fill:#052A75;" d="M148.504,395.362c-7.681,0.105-12.682-8.777-8.471-15.301c0,0,81.472-130.356,81.472-130.356
			c2.927-4.684,9.097-6.108,13.78-3.18c4.684,2.927,6.107,9.097,3.18,13.78l-81.472,130.356
			C155.096,393.696,151.837,395.362,148.504,395.362z"/>
		<path style="fill:#052A75;" d="M507.328,248.19c-1.892-2.032-4.542-3.186-7.318-3.186h-64.49
			c2.7-36.585-23.582-69.107-59.678-72.914l2.638-63.32c0.113-2.722-0.889-5.372-2.774-7.339c-1.886-1.966-4.492-3.078-7.217-3.078
			h-87.767c3.143-52.545-38.554-97.96-91.473-97.767c-52.915-0.193-94.62,45.222-91.472,97.767c0,0-87.767,0-87.767,0
			c-5.513-0.099-10.347,4.887-9.991,10.417c0,0,16.294,391.068,16.294,391.068c0.223,5.356,4.63,9.583,9.991,9.583
			c0,0,325.89,0,325.89,0s130.355,0,130.355,0c5.246,0,9.601-4.054,9.975-9.288c0,0,17.46-244.417,17.46-244.417
			C510.181,252.949,509.22,250.222,507.328,248.19z M415.519,238.711v6.294h-42.716l2.203-52.863
			C397.864,195.326,415.519,214.99,415.519,238.711z M117.777,92.06c0-39.41,32.062-71.473,71.472-71.473
			c41.959-0.189,74.49,36.268,71.473,77.767H117.777V92.06z M20.435,118.355h77.342v38.883c0,5.523,4.477,10,10,10
			c5.523,0,10-4.477,10-10v-38.883h142.945v38.883c0,5.523,4.478,10,10,10c5.522,0,10-4.477,10-10v-38.883h77.341
			c-2.766,66.388-12.889,309.361-15.46,371.068H35.896L20.435,118.355z M473.238,489.422H362.62
			c1.935-46.442,7.501-180.06,9.35-224.417h43.55v22.589c0,5.523,4.477,10,10,10c5.522,0,10-4.477,10-10v-22.589h53.75
			L473.238,489.422z"/>
	</g>
</g>
<g>
</g>
<g>
</g>
<g>
</g>
<g>
</g>
<g>
</g>
<g>
</g>
<g>
</g>
<g>
</g>
<g>
</g>
<g>
</g>
<g>
</g>
<g>
</g>
<g>
</g>
<g>
</g>
<g>
</g>
</svg>
