<?xml version="1.0" encoding="iso-8859-1"?>
<!-- Generator: Adobe Illustrator 27.0.0, SVG Export Plug-In . SVG Version: 6.00 Build 0)  -->
<svg version="1.1" id="Capa_1" xmlns="http://www.w3.org/2000/svg" xmlns:xlink="http://www.w3.org/1999/xlink" x="0px" y="0px"
	 viewBox="0 0 510.004 510.004" style="enable-background:new 0 0 510.004 510.004;" xml:space="preserve">
<g>
	<g>
		<g>
			<path style="fill:#93B2F4;" d="M27.183,95.393h118.258c-3.315-29.727-28.517-52.844-59.129-52.844h0
				C55.701,42.549,30.499,65.666,27.183,95.393z"/>
		</g>
		<g>
			<g>
				<path style="fill:#FDCB50;" d="M255.002,255.359L255.002,255.359c-46.574,0-84.33,37.756-84.33,84.329l0,0h168.659l0,0
					C339.331,293.115,301.576,255.359,255.002,255.359z"/>
			</g>
			<g>
				<path style="fill:#FD8F01;" d="M240.982,256.541c-39.897,6.68-70.309,41.353-70.309,83.147h122.696
					C263.246,323.752,242.393,292.646,240.982,256.541z"/>
			</g>
			<g>
				<circle style="fill:#FDBEB9;" cx="255.002" cy="212.839" r="42.52"/>
			</g>
		</g>
		<g>
			<path style="fill:#B1D952;" d="M107.5,369.642c3.668-14.108-0.014-29.732-11.067-40.785c-16.598-16.598-43.508-16.598-60.105,0
				c-11.053,11.053-14.735,26.676-11.067,40.785c-9.455,10.082-15.256,23.633-15.256,38.546c0,31.135,25.24,56.375,56.375,56.375
				c31.135,0,56.375-25.24,56.375-56.375C122.755,393.275,116.955,379.725,107.5,369.642z"/>
		</g>
		<g>
			<g>
				<path style="fill:#67CCD1;" d="M369.885,406.973c-34.434,0-64.495,18.709-80.581,46.515
					c16.085,27.806,46.147,46.515,80.581,46.515s64.495-18.709,80.58-46.515C434.38,425.682,404.318,406.973,369.885,406.973z"/>
			</g>
			<g>
				<path style="fill:#D2DCFD;" d="M289.304,453.489c11.401,19.709,29.828,34.837,51.852,41.983
					c9.296-11.467,14.874-26.071,14.874-41.983s-5.578-30.516-14.874-41.983C319.132,418.651,300.705,433.78,289.304,453.489z"/>
			</g>
			<g>
				<path style="fill:#67CCD1;" d="M500.002,492.998v-79.018c-21.063,6.487-38.703,20.781-49.537,39.509
					C461.299,472.216,478.939,486.51,500.002,492.998z"/>
			</g>
		</g>
	</g>
	<g>
		<g>
			<path style="fill:#FD7DA0;" d="M86.313,42.549L86.313,42.549c-32.867,0-59.51,26.644-59.51,59.51v36.14
				c0,32.867,26.644,59.51,59.51,59.51h0c32.867,0,59.51-26.644,59.51-59.51v-36.14C145.823,69.193,119.179,42.549,86.313,42.549z"
				/>
			<path style="fill:#93B2F4;" d="M27.183,95.393h118.258c-3.315-29.727-28.517-52.844-59.129-52.844h0
				C55.701,42.549,30.499,65.666,27.183,95.393z"/>
			<path style="fill:#FD7DA0;" d="M508.354,56.36c-2.886-4.709-9.042-6.187-13.751-3.301c-4.591,2.814-9.855,4.092-15.065,3.875
				c5.699-7.74,9.075-17.291,9.075-27.618c0-5.523-4.477-10-10-10s-10,4.477-10,10c0,14.716-11.972,26.688-26.688,26.688h-6.115
				c-2.634-13.952-0.745-28.62,5.709-41.528c2.47-4.94,0.468-10.946-4.472-13.417c-4.939-2.47-10.947-0.468-13.417,4.472
				c-3.829,7.658-6.427,15.793-7.806,24.098c-7.562-3.288-12.869-10.844-12.869-19.626c0-5.523-4.477-10-10-10s-10,4.477-10,10
				c0,19.595,13.67,36.041,31.955,40.3c0.83,10.916,3.731,21.698,8.719,31.673c2.377,4.755,4.125,9.752,5.269,14.861h-5.675
				c-14.716,0-26.688-11.972-26.688-26.688c0-5.523-4.477-10-10-10s-10,4.477-10,10c0,25.744,20.944,46.688,46.688,46.688h7.018
				c-0.692,8.168-2.878,16.228-6.612,23.696c-2.47,4.94-0.468,9.841,4.472,12.311c1.436,0.718,2.961,0.61,4.464,0.61
				c3.668,0,7.2-0.472,8.952-3.976c11.48-22.96,11.94-50.192,1.394-73.5c6.126-0.128,11.967-1.431,17.3-3.71
				c6.427,3.117,13.434,4.688,20.449,4.688c8.464,0,16.936-2.277,24.391-6.846C509.762,67.225,511.24,61.069,508.354,56.36z"/>
		</g>
		<g>
			<g>
				<path style="fill:#93B2F4;" d="M91.28,42.533c3.684-19.35,17.532-35.43,36.142-41.965c5.212-1.83,10.919,0.911,12.749,6.122
					c1.83,5.211-0.911,10.919-6.122,12.749c-11.907,4.181-20.766,14.464-23.121,26.835L91.28,42.533z"/>
			</g>
			<g>
				<path style="fill:#93B2F4;" d="M61.698,46.273c-2.355-12.371-11.214-22.654-23.121-26.835c-5.211-1.83-7.952-7.538-6.122-12.749
					c1.83-5.21,7.537-7.953,12.749-6.122c18.609,6.535,32.458,22.615,36.142,41.965L61.698,46.273z"/>
			</g>
			<g>
				<path style="fill:#052A75;" d="M349.331,339.689c0-39.695-24.647-73.738-59.439-87.639c10.807-9.627,17.63-23.634,17.63-39.211
					c0-28.959-23.561-52.52-52.52-52.52s-52.52,23.56-52.52,52.52c0,15.577,6.823,29.584,17.63,39.211
					c-34.793,13.901-59.44,47.944-59.44,87.639c0,5.523,4.477,10,10,10h168.659C344.854,349.689,349.331,345.212,349.331,339.689z
					 M222.482,212.839c0-17.931,14.588-32.52,32.52-32.52s32.52,14.588,32.52,32.52c0,17.932-14.588,32.52-32.52,32.52
					S222.482,230.771,222.482,212.839z M181.342,329.689c4.898-36.275,36.064-64.33,73.66-64.33s68.761,28.054,73.659,64.33H181.342
					z"/>
				<path style="fill:#052A75;" d="M103.504,321.786c-20.471-20.47-53.777-20.47-74.248,0
					c-11.814,11.814-17.236,28.664-14.768,45.031C5.113,378.549,0.004,393.05,0.004,408.189c0,33.201,24.504,60.785,56.375,65.621
					v26.194c0,5.523,4.477,10,10,10s10-4.477,10-10V473.81c31.872-4.837,56.375-32.42,56.375-65.621
					c0-15.139-5.109-29.639-14.484-41.372C120.739,350.45,115.317,333.6,103.504,321.786z M76.38,453.466v-42.707
					c0-5.523-4.477-10-10-10s-10,4.477-10,10v42.707c-20.779-4.586-36.375-23.14-36.375-45.278c0-11.815,4.457-23.076,12.55-31.706
					c2.348-2.503,3.248-6.035,2.384-9.356c-2.894-11.131,0.348-23.085,8.46-31.197c6.336-6.336,14.659-9.504,22.981-9.504
					s16.646,3.168,22.981,9.504c8.112,8.111,11.354,20.066,8.46,31.197c-0.863,3.321,0.037,6.854,2.384,9.356
					c8.093,8.63,12.55,19.891,12.55,31.706C112.755,430.327,97.159,448.88,76.38,453.466z"/>
				<path style="fill:#052A75;" d="M505.942,405.935c-2.554-1.886-5.852-2.447-8.883-1.513
					c-18.445,5.681-34.545,16.653-46.553,31.462c-19.389-24.301-49.086-38.911-80.621-38.911c-36.665,0-70.858,19.737-89.237,51.508
					c-1.792,3.098-1.792,6.917,0,10.015c18.379,31.771,52.572,51.508,89.237,51.508c31.535,0,61.232-14.611,80.621-38.912
					c12.008,14.809,28.107,25.781,46.553,31.463c0.965,0.297,1.957,0.443,2.943,0.443c2.113,0,4.199-0.67,5.94-1.955
					c2.553-1.885,4.06-4.871,4.06-8.045V413.98C510.002,410.806,508.495,407.82,505.942,405.935z M369.885,490.004
					c-27.572,0-53.413-13.854-68.784-36.516c15.371-22.662,41.211-36.515,68.784-36.515c27.572,0,53.413,13.854,68.783,36.515
					C423.297,476.15,397.457,490.004,369.885,490.004z M490.002,478.122c-11.077-5.785-20.587-14.21-27.725-24.634
					c7.138-10.424,16.648-18.849,27.725-24.634V478.122z"/>
				<path style="fill:#052A75;" d="M379.109,155.007h110.003c5.523,0,10-4.477,10-10s-4.477-10-10-10H379.109
					c-5.523,0-10,4.477-10,10S373.586,155.007,379.109,155.007z"/>
				<path style="fill:#052A75;" d="M157.417,165.387l-5.648-3.814c2.618-7.309,4.055-15.175,4.055-23.373v-2.343h6.8
					c5.523,0,10-4.477,10-10s-4.477-10-10-10h-6.8V102.06c0-4.701-0.475-9.292-1.368-13.733l6.714-4.534
					c4.577-3.091,5.782-9.307,2.691-13.884c-3.092-4.578-9.308-5.783-13.884-2.691l-2.56,1.728
					C135.63,47.284,112.66,32.549,86.313,32.549c-26.347,0-49.318,14.735-61.104,36.397l-2.559-1.728
					c-4.578-3.092-10.793-1.886-13.884,2.69c-3.091,4.577-1.886,10.793,2.69,13.884l6.715,4.534
					c-0.894,4.441-1.368,9.032-1.368,13.733v13.797h-6.8c-5.523,0-10,4.477-10,10s4.477,10,10,10h6.8v2.343
					c0,8.198,1.437,16.064,4.055,23.373l-5.649,3.815c-4.577,3.091-5.781,9.307-2.69,13.884c1.932,2.861,5.085,4.404,8.296,4.404
					c1.925,0,3.872-0.555,5.587-1.714l3.913-2.642c12.665,17.202,33.046,28.39,55.998,28.39c22.952,0,43.333-11.188,55.998-28.39
					l3.914,2.643c1.716,1.159,3.662,1.713,5.587,1.713c3.211,0,6.365-1.543,8.297-4.405
					C163.198,174.694,161.994,168.478,157.417,165.387z M86.313,52.549c21.454,0,39.758,13.72,46.616,32.844H39.697
					C46.555,66.269,64.859,52.549,86.313,52.549z M36.802,138.2v-32.807h39.51v81.301C53.79,182.057,36.802,162.075,36.802,138.2z
					 M96.313,186.694v-81.301h39.51V138.2C135.823,162.075,118.835,182.057,96.313,186.694z"/>
			</g>
		</g>
		<g>
			<g>
				<path style="fill:#FDCB50;" d="M442.858,379.555c-1.777,0-3.576-0.474-5.204-1.468c-4.713-2.879-6.2-9.033-3.321-13.747
					c29.654-48.546,38.271-108.07,23.641-163.309c-1.414-5.339,1.768-10.813,7.106-12.227c5.338-1.417,10.813,1.767,12.227,7.106
					c16.02,60.486,6.577,125.676-25.907,178.855C449.517,377.852,446.228,379.555,442.858,379.555z"/>
			</g>
			<g>
				<path style="fill:#FDCB50;" d="M241.189,484.558c-0.21,0-0.422-0.007-0.634-0.02c-26.7-1.67-52.611-7.875-77.015-18.44
					c-5.068-2.194-7.398-8.082-5.204-13.15c2.195-5.067,8.083-7.398,13.15-5.204c22.274,9.644,45.933,15.307,70.317,16.833
					c5.512,0.345,9.701,5.093,9.356,10.605C250.828,480.481,246.426,484.558,241.189,484.558z"/>
			</g>
			<g>
				<path style="fill:#FDCB50;" d="M35.422,278.53c-5.244,0-9.647-4.084-9.972-9.389c-0.641-10.474-0.572-21.047,0.207-31.427
					c0.413-5.507,5.208-9.639,10.72-9.224c5.507,0.413,9.637,5.213,9.224,10.72c-0.711,9.478-0.774,19.137-0.188,28.708
					c0.337,5.513-3.857,10.255-9.37,10.593C35.835,278.524,35.628,278.53,35.422,278.53z"/>
			</g>
			<g>
				<path style="fill:#FDCB50;" d="M334.836,59.961c-1.205,0-2.43-0.219-3.621-0.682c-40.888-15.894-86.834-18.542-129.376-7.456
					c-5.345,1.392-10.806-1.811-12.199-7.155c-1.393-5.345,1.811-10.806,7.155-12.199c46.579-12.139,96.89-9.239,141.666,8.168
					c5.148,2.001,7.699,7.796,5.697,12.943C342.62,57.539,338.84,59.961,334.836,59.961z"/>
			</g>
		</g>
	</g>
</g>
<g>
</g>
<g>
</g>
<g>
</g>
<g>
</g>
<g>
</g>
<g>
</g>
<g>
</g>
<g>
</g>
<g>
</g>
<g>
</g>
<g>
</g>
<g>
</g>
<g>
</g>
<g>
</g>
<g>
</g>
</svg>
