<?xml version="1.0" encoding="iso-8859-1"?>
<!-- Generator: Adobe Illustrator 26.5.3, SVG Export Plug-In . SVG Version: 6.00 Build 0)  -->
<svg version="1.1" id="Capa_1" xmlns="http://www.w3.org/2000/svg" xmlns:xlink="http://www.w3.org/1999/xlink" x="0px" y="0px"
	 viewBox="0 0 510 510" style="enable-background:new 0 0 510 510;" xml:space="preserve">
<g>
	<g>
		<rect x="10" y="10" style="fill:#FDCB50;" width="490" height="50"/>
		<rect x="25.694" y="60" style="fill:#67CCD1;" width="458.612" height="372"/>
		<path style="fill:#27A2CC;" d="M200.757,207.342c0-53.685,14.38-104.008,39.485-147.342H25.694v372h279.241
			C241.217,378.004,200.757,297.404,200.757,207.342z"/>
		<path style="fill:#FDCB50;" d="M145.753,356.224h-42.118C51.922,356.224,10,398.146,10,449.859V500h229.388v-50.141
			C239.388,398.146,197.466,356.224,145.753,356.224z"/>
		<path style="fill:#FD8F01;" d="M137.876,356.924c-4.347-0.457-8.757-0.7-13.225-0.7h-21.016C51.922,356.224,10,398.146,10,449.859
			V500h122.428c-15.016-18.74-24.017-42.508-24.017-68.389C108.411,402.734,119.609,376.487,137.876,356.924z"/>
		<circle style="fill:#FDBEB9;" cx="124.694" cy="301.224" r="55"/>
	</g>
	<g>
		<path style="fill:#052A75;" d="M500,0H10C4.477,0,0,4.478,0,10v50c0,5.522,4.477,10,10,10h5.694v325.09
			C5.755,410.992,0,429.765,0,449.859V500c0,5.522,4.477,10,10,10h229.388c5.523,0,10-4.478,10-10v-50.141
			c0-2.644-0.101-5.265-0.296-7.859h235.214c5.523,0,10-4.478,10-10V70H500c5.523,0,10-4.478,10-10V10C510,4.478,505.523,0,500,0z
			 M20,20h470v30H20V20z M229.388,490h-32.834v-33.399c0-5.522-4.477-10-10-10s-10,4.478-10,10V490H72.834v-33.399
			c0-5.522-4.477-10-10-10s-10,4.478-10,10V490H20v-40.141c0-46.117,37.519-83.636,83.635-83.636h11.059v26.785
			c0,5.522,4.477,10,10,10s10-4.478,10-10v-26.785h11.059c46.117,0,83.635,37.519,83.635,83.636V490z M124.694,346.224
			c-24.813,0-45-20.187-45-45s20.187-45,45-45s45,20.187,45,45S149.507,346.224,124.694,346.224z M474.306,422H245.58
			c-10.157-36.349-39.678-64.698-76.692-73.17c12.786-11.878,20.806-28.819,20.806-47.606c0-35.841-29.159-65-65-65
			s-65,29.159-65,65c0,18.787,8.02,35.728,20.806,47.606c-16.865,3.86-32.175,11.846-44.806,22.836V70h438.611V422z"/>
		<g>
			<path style="fill:#FFFFFF;" d="M345.406,192.852c1.953,1.952,4.512,2.929,7.071,2.929s5.119-0.977,7.071-2.929l10.929-10.929
				l10.929,10.929c1.953,1.952,4.512,2.929,7.071,2.929s5.119-0.977,7.071-2.929c3.905-3.905,3.905-10.237,0-14.143L384.62,167.78
				l10.929-10.929c3.905-3.905,3.905-10.237,0-14.143c-3.905-3.904-10.237-3.904-14.143,0l-10.929,10.929l-10.929-10.929
				c-3.905-3.904-10.237-3.904-14.143,0c-3.905,3.905-3.905,10.237,0,14.143l10.929,10.929l-10.929,10.929
				C341.501,182.614,341.501,188.946,345.406,192.852z"/>
			<path style="fill:#FFFFFF;" d="M326.755,324.977c-3.905-3.904-10.237-3.904-14.143,0l-10.929,10.929l-10.929-10.929
				c-3.905-3.904-10.237-3.904-14.143,0c-3.905,3.905-3.905,10.237,0,14.143l10.929,10.929l-10.929,10.929
				c-3.905,3.905-3.905,10.237,0,14.143c1.953,1.952,4.512,2.929,7.071,2.929s5.119-0.977,7.071-2.929l10.929-10.929l10.929,10.929
				c1.953,1.952,4.512,2.929,7.071,2.929s5.119-0.977,7.071-2.929c3.905-3.905,3.905-10.237,0-14.143l-10.929-10.929l10.929-10.929
				C330.66,335.214,330.66,328.882,326.755,324.977z"/>
			<path style="fill:#FFFFFF;" d="M152.071,133.236c-3.905-3.904-10.237-3.904-14.143,0L127,144.165l-10.929-10.929
				c-3.905-3.904-10.237-3.904-14.143,0c-3.905,3.905-3.905,10.237,0,14.143l10.929,10.929l-10.929,10.929
				c-3.905,3.905-3.905,10.237,0,14.143c1.953,1.952,4.512,2.929,7.071,2.929s5.119-0.977,7.071-2.929L127,172.45l10.929,10.929
				c1.953,1.952,4.512,2.929,7.071,2.929s5.119-0.977,7.071-2.929c3.905-3.905,3.905-10.237,0-14.143l-10.929-10.929l10.929-10.929
				C155.977,143.474,155.977,137.142,152.071,133.236z"/>
			<path style="fill:#FFFFFF;" d="M406,243.543c-14.605,0-27.016,9.54-31.35,22.713c-57.98-3.852-105.281-47.363-114.952-103.583
				l4.562,3.794c4.247,3.531,10.551,2.952,14.083-1.294s2.952-10.552-1.294-14.083l-22.859-19.011
				c-2.04-1.697-4.676-2.516-7.309-2.27c-2.641,0.243-5.078,1.524-6.773,3.563l-19.011,22.859
				c-3.532,4.247-2.952,10.552,1.294,14.083c1.868,1.554,4.135,2.312,6.389,2.312c2.869,0,5.716-1.228,7.694-3.605l3.339-4.015
				c10.86,66.095,66.517,117.293,134.657,121.277c4.166,13.456,16.725,23.259,31.531,23.259c18.196,0,33-14.804,33-33
				S424.196,243.543,406,243.543z M406,289.543c-7.071,0-12.829-5.677-12.985-12.71c0.003-0.097,0.015-0.192,0.015-0.29
				s-0.012-0.192-0.015-0.29c0.156-7.033,5.915-12.71,12.985-12.71c7.168,0,13,5.832,13,13S413.168,289.543,406,289.543z"/>
		</g>
	</g>
</g>
<g>
</g>
<g>
</g>
<g>
</g>
<g>
</g>
<g>
</g>
<g>
</g>
<g>
</g>
<g>
</g>
<g>
</g>
<g>
</g>
<g>
</g>
<g>
</g>
<g>
</g>
<g>
</g>
<g>
</g>
</svg>
