<?xml version="1.0" encoding="iso-8859-1"?>
<!-- Generator: Adobe Illustrator 27.5.0, SVG Export Plug-In . SVG Version: 6.00 Build 0)  -->
<svg version="1.1" id="Layer_1" xmlns="http://www.w3.org/2000/svg" xmlns:xlink="http://www.w3.org/1999/xlink" x="0px" y="0px"
	 viewBox="0 0 512 512" style="enable-background:new 0 0 512 512;" xml:space="preserve">
<g>
	<g>
		<g>
			<path style="fill:#D46B5C;" d="M393.86,370.221l57.518-57.689c9.1-9.127,9.1-23.925,0-33.053l0,0
				c-9.1-9.127-23.854-9.127-32.955,0l-61.713,61.897c-11.427,11.461-17.847,27.006-17.847,43.215v87.765h90.751v-36.018
				c0-6.856,2.715-13.431,7.549-18.279l51.944-52.099c8.255-8.28,12.893-19.51,12.893-31.22V183.334
				c0-12.908-10.433-23.372-23.302-23.372h0c-12.87,0-23.302,10.464-23.302,23.372v102.12"/>
		</g>
		<g>
			<path style="fill:#D46B5C;" d="M118.14,370.221l-57.518-57.689c-9.1-9.127-9.1-23.925,0-33.053l0,0
				c9.1-9.127,23.854-9.127,32.955,0l61.713,61.897c11.427,11.461,17.847,27.006,17.847,43.215v87.765H82.386v-36.018
				c0-6.856-2.715-13.431-7.549-18.279l-51.944-52.099C14.638,357.681,10,346.451,10,334.741V183.334
				c0-12.908,10.433-23.372,23.302-23.372h0c12.87,0,23.302,10.464,23.302,23.372v102.12"/>
		</g>
		<g>
			<path style="fill:#FDCB50;" d="M441.141,502H327.335c-5.523,0-10-4.477-10-10v-49.811c0-5.523,4.477-10,10-10h113.807
				c5.523,0,10,4.477,10,10V492C451.141,497.523,446.664,502,441.141,502z"/>
		</g>
		<g>
			<path style="fill:#FD8F01;" d="M451.143,442.227v49.732c0,5.543-4.498,10.041-10.041,10.041h-46.871
				c2.811-11.165,4.308-22.863,4.308-34.902c0-12.049-1.496-23.737-4.308-34.912h46.871
				C446.645,432.186,451.143,436.685,451.143,442.227z"/>
		</g>
		<g>
			<path style="fill:#FDCB50;" d="M70.859,502h113.807c5.523,0,10-4.477,10-10v-49.811c0-5.523-4.477-10-10-10H70.859
				c-5.523,0-10,4.477-10,10V492C60.859,497.523,65.336,502,70.859,502z"/>
		</g>
		<g>
			<path style="fill:#FD8F01;" d="M113.461,467.098c0,12.039,1.496,23.737,4.307,34.902H70.898c-5.543,0-10.041-4.498-10.041-10.041
				v-49.732c0-5.542,4.498-10.041,10.041-10.041h46.871C114.957,443.362,113.461,455.049,113.461,467.098z"/>
		</g>
		<g>
			<path style="fill:#BC9AF4;" d="M136.627,226.396h-0.208c-18.701,0-33.862-15.16-33.862-33.862v-48.222
				c0-18.701,15.16-33.862,33.862-33.862h0.208c9.437,0,17.088,7.65,17.088,17.088v81.769
				C153.715,218.745,146.064,226.396,136.627,226.396z"/>
		</g>
		<g>
			<path style="fill:#BC9AF4;" d="M375.373,226.396h0.208c18.701,0,33.862-15.16,33.862-33.862v-48.222
				c0-18.701-15.16-33.862-33.862-33.862h-0.208c-9.437,0-17.088,7.65-17.088,17.088v81.769
				C358.285,218.745,365.936,226.396,375.373,226.396z"/>
		</g>
		<g>
			<path style="fill:#BC9AF4;" d="M265.736,316.159h-19.472c-13.234,0-24.063-10.828-24.063-24.063V291.9
				c0-13.234,10.828-24.063,24.063-24.063h19.472c13.234,0,24.063,10.828,24.063,24.063v0.196
				C289.799,305.331,278.97,316.159,265.736,316.159z"/>
		</g>
	</g>
	<g>
		<g>
			<path style="fill:#052A75;" d="M478.698,149.962c-18.363,0-33.303,14.971-33.303,33.372v80.992
				c-3.342-1.108-6.872-1.693-10.495-1.693c-8.901,0-17.268,3.475-23.559,9.785l-61.713,61.897
				c-13.391,13.431-20.766,31.286-20.766,50.275v37.598h-1.528c-11.028,0-20,8.972-20,20V492c0,11.028,8.972,20,20,20h113.807
				c11.028,0,20-8.972,20-20v-49.811c0-9.193-6.244-16.937-14.707-19.266l49.754-49.901C506.385,362.794,512,349.2,512,334.741
				V183.334C512,164.933,497.061,149.962,478.698,149.962z M441.142,492H327.334v-49.811h113.807L441.154,492
				C441.154,492,441.15,492,441.142,492z M492,334.741c0,9.127-3.542,17.708-9.975,24.159L430.08,411
				c-3.222,3.232-5.76,7.035-7.541,11.189h-73.677v-37.598c0-13.659,5.302-26.499,14.929-36.154l61.713-61.897
				c2.511-2.519,5.848-3.906,9.396-3.906c3.547,0,6.884,1.387,9.396,3.906c5.204,5.219,5.204,13.712,0,18.932l-57.518,57.689
				c-3.899,3.911-3.89,10.243,0.021,14.142c3.911,3.899,10.243,3.89,14.142-0.021l57.518-57.689
				c9.95-9.98,12.255-24.758,6.936-36.972v-99.286c0-7.374,5.968-13.372,13.303-13.372S492,175.961,492,183.334V334.741z"/>
			<path style="fill:#052A75;" d="M184.666,422.189h-1.528v-37.598c0-18.99-7.375-36.844-20.766-50.275l-61.713-61.897
				c-6.291-6.31-14.658-9.785-23.559-9.785c-3.622,0-7.153,0.585-10.495,1.693v-80.992c0-18.401-14.939-33.372-33.303-33.372
				C14.939,149.962,0,164.933,0,183.334v151.407c0,14.458,5.615,28.053,15.812,38.28l49.754,49.901
				c-8.464,2.329-14.707,10.073-14.707,19.266V492c0,11.028,8.972,20,20,20h113.807c11.028,0,20-8.972,20-20v-49.811
				C204.666,431.161,195.693,422.189,184.666,422.189z M20,334.741V183.334c0-7.374,5.967-13.372,13.302-13.372
				s13.303,5.999,13.303,13.372v99.286c-5.319,12.214-3.014,26.993,6.936,36.972l57.518,57.689c3.9,3.912,10.231,3.92,14.142,0.021
				c3.911-3.899,3.92-10.231,0.021-14.142l-57.518-57.689c-5.204-5.219-5.204-13.712,0-18.932c2.511-2.519,5.848-3.906,9.396-3.906
				c3.548,0,6.885,1.387,9.396,3.906l61.713,61.897c9.627,9.656,14.929,22.496,14.929,36.154v37.598H89.461
				c-1.781-4.155-4.319-7.957-7.542-11.19L29.975,358.9C23.542,352.449,20,343.869,20,334.741z M184.666,492H70.858v-49.811h113.807
				V492z"/>
		</g>
		<g>
			<g>
				<path style="fill:#6864F7;" d="M302.759,304.087h-12.486c-5.523,0-10-4.477-10-10s4.477-10,10-10h12.486
					c32.354,0,58.66-25.305,59.888-57.609c0.209-5.519,4.854-9.822,10.373-9.613c5.519,0.209,9.823,4.854,9.613,10.373
					c-0.787,20.7-9.444,40.036-24.378,54.445C343.281,296.131,323.572,304.087,302.759,304.087z"/>
			</g>
			<g>
				<path style="fill:#6864F7;" d="M372.682,120.012c-5.467,0-9.931-4.398-9.997-9.88c-0.291-24.138-9.911-46.785-27.089-63.771
					C318.403,29.362,295.619,20,271.438,20h-30.877c-24.162,0-46.935,9.35-64.123,26.327
					c-17.173,16.962-26.805,39.585-27.122,63.701c-0.072,5.522-4.629,9.96-10.13,9.868c-5.522-0.072-9.94-4.608-9.868-10.13
					c0.386-29.405,12.129-56.988,33.066-77.667C183.34,11.399,211.104,0,240.562,0h30.877c29.479,0,57.258,11.414,78.219,32.139
					c20.943,20.708,32.672,48.321,33.025,77.752c0.066,5.522-4.356,10.053-9.879,10.12
					C372.764,120.012,372.722,120.012,372.682,120.012z"/>
			</g>
			<g>
				<g>
					<path style="fill:#052A75;" d="M136.627,236.396h-0.208c-24.185,0-43.861-19.676-43.861-43.861v-48.222
						c0-24.185,19.676-43.861,43.861-43.861h0.208c14.937,0,27.088,12.151,27.088,27.088v81.769
						C163.715,224.244,151.563,236.396,136.627,236.396z M136.419,120.451c-13.157,0-23.861,10.704-23.861,23.861v48.222
						c0,13.157,10.704,23.861,23.861,23.861h0.208c3.908,0,7.088-3.18,7.088-7.088v-81.769c0-3.908-3.18-7.088-7.088-7.088H136.419z
						"/>
				</g>
				<g>
					<path style="fill:#052A75;" d="M375.581,236.396h-0.208c-14.937,0-27.088-12.151-27.088-27.088v-81.769
						c0-14.937,12.151-27.088,27.088-27.088h0.208c24.185,0,43.861,19.676,43.861,43.861v48.222
						C419.442,216.719,399.766,236.396,375.581,236.396z M375.373,120.451c-3.908,0-7.088,3.18-7.088,7.088v81.769
						c0,3.908,3.18,7.088,7.088,7.088h0.208c13.157,0,23.861-10.704,23.861-23.861v-48.222c0-13.157-10.704-23.861-23.861-23.861
						H375.373z"/>
				</g>
			</g>
			<g>
				<path style="fill:#FD8F01;" d="M316.622,181.753h-0.643v-39.894c0-8.738-7.109-15.847-15.847-15.847
					c-5.66,0-10.926,3.049-13.744,7.958l-27.703,48.261c-2.308,4.02-2.299,9.009,0.023,13.02c2.323,4.011,6.645,6.503,11.28,6.503
					h25.99v14.38c0,5.523,4.477,10,10,10s10-4.477,10-10v-14.38h0.643c5.523,0,10-4.477,10-10S322.145,181.753,316.622,181.753z
					 M295.979,181.753H282.02l13.959-24.317V181.753z"/>
				<path style="fill:#FD8F01;" d="M238.679,206.733h-20.88l16.942-24.028c0.054-0.077,0.107-0.155,0.159-0.233
					c6.66-10.035,11.628-18.66,10.032-30.6c-1.925-14.401-14.72-25.261-29.764-25.261c-14.384,0-26.834,10.233-29.603,24.333
					c-1.064,5.419,2.466,10.675,7.885,11.74c5.417,1.062,10.675-2.466,11.74-7.885c0.932-4.744,5.128-8.188,9.978-8.188
					c5.147,0,9.327,3.327,9.939,7.91c0.615,4.597-1.246,8.405-6.795,16.774l-27.974,39.674c-2.152,3.053-2.424,7.05-0.705,10.366
					c1.719,3.315,5.143,5.397,8.877,5.397h40.167c5.523,0,10-4.477,10-10S244.202,206.733,238.679,206.733z"/>
			</g>
			<g>
				<g>
					<path style="fill:#FDCB50;" d="M214.27,99.322c-2.559,0-5.119-0.976-7.071-2.929l-12.867-12.867
						c-3.905-3.905-3.905-10.237,0-14.143c3.905-3.905,10.237-3.905,14.143,0l12.867,12.867c3.905,3.905,3.905,10.237,0,14.143
						C219.389,98.346,216.829,99.322,214.27,99.322z"/>
				</g>
				<g>
					<path style="fill:#FDCB50;" d="M255.994,84.103c-5.523,0-10-4.477-10-10V55.081c0-5.523,4.477-10,10-10s10,4.477,10,10v19.021
						C265.994,79.625,261.517,84.103,255.994,84.103z"/>
				</g>
				<g>
					<path style="fill:#FDCB50;" d="M297.73,99.293c-2.559,0-5.119-0.976-7.071-2.929c-3.905-3.905-3.905-10.237,0-14.143
						l12.837-12.837c3.905-3.905,10.237-3.905,14.143,0c3.905,3.905,3.905,10.237,0,14.143l-12.837,12.837
						C302.849,98.317,300.289,99.293,297.73,99.293z"/>
				</g>
			</g>
			<g>
				<path style="fill:#052A75;" d="M265.736,326.159h-19.472c-18.782,0-34.063-15.28-34.063-34.063V291.9
					c0-18.782,15.28-34.063,34.063-34.063h19.472c18.782,0,34.063,15.28,34.063,34.063v0.196
					C299.798,310.879,284.518,326.159,265.736,326.159z M246.264,277.838c-7.754,0-14.063,6.309-14.063,14.063v0.196
					c0,7.754,6.309,14.063,14.063,14.063h19.472c7.754,0,14.063-6.309,14.063-14.063V291.9c0-7.754-6.309-14.063-14.063-14.063
					H246.264z"/>
			</g>
		</g>
	</g>
</g>
<g>
</g>
<g>
</g>
<g>
</g>
<g>
</g>
<g>
</g>
<g>
</g>
<g>
</g>
<g>
</g>
<g>
</g>
<g>
</g>
<g>
</g>
<g>
</g>
<g>
</g>
<g>
</g>
<g>
</g>
</svg>
