<?xml version="1.0" encoding="iso-8859-1"?>
<!-- Generator: Adobe Illustrator 26.5.3, SVG Export Plug-In . SVG Version: 6.00 Build 0)  -->
<svg version="1.1" id="Capa_1" xmlns="http://www.w3.org/2000/svg" xmlns:xlink="http://www.w3.org/1999/xlink" x="0px" y="0px"
	 viewBox="0 0 512 512" style="enable-background:new 0 0 512 512;" xml:space="preserve">
<g>
	<g>
		<g>
			<path style="fill:#FFFFFF;" d="M377.657,502H47.589c-16.569,0-30-13.431-30-30V40c0-16.569,13.431-30,30-30h330.068
				c16.569,0,30,13.431,30,30v432C407.657,488.569,394.225,502,377.657,502z"/>
		</g>
		<g>
			<path style="fill:#D2DCFD;" d="M257.846,373.007c0,54.909,29.546,102.909,73.602,128.993h46.209c16.569,0,30-13.431,30-30
				V223.196C324.918,223.196,257.846,290.268,257.846,373.007z"/>
		</g>
		<g>
			<path style="fill:#67CCD1;" d="M113.186,115.559H85.788c-7.119,0-12.89-5.771-12.89-12.89V75.27c0-7.119,5.771-12.89,12.89-12.89
				h27.398c7.119,0,12.89,5.771,12.89,12.89v27.398C126.077,109.787,120.306,115.559,113.186,115.559z"/>
		</g>
		<g>
			<path style="fill:#67CCD1;" d="M113.186,223.196H85.788c-7.119,0-12.89-5.771-12.89-12.89v-27.398
				c0-7.119,5.771-12.89,12.89-12.89h27.398c7.119,0,12.89,5.771,12.89,12.89v27.398
				C126.077,217.425,120.306,223.196,113.186,223.196z"/>
		</g>
		<g>
			<path style="fill:#67CCD1;" d="M113.186,330.833H85.788c-7.119,0-12.89-5.771-12.89-12.89v-27.398
				c0-7.119,5.771-12.89,12.89-12.89h27.398c7.119,0,12.89,5.771,12.89,12.89v27.398
				C126.077,325.062,120.306,330.833,113.186,330.833z"/>
		</g>
		<g>
			<path style="fill:#67CCD1;" d="M113.186,438.47H85.788c-7.119,0-12.89-5.771-12.89-12.89v-27.398
				c0-7.119,5.771-12.89,12.89-12.89h27.398c7.119,0,12.89,5.771,12.89,12.89v27.398C126.077,432.699,120.306,438.47,113.186,438.47
				z"/>
		</g>
		<g>
			<circle style="fill:#B1D952;" cx="407.657" cy="373.007" r="86.755"/>
		</g>
	</g>
	<g>
		<g>
			<path style="fill:#052A75;" d="M170.724,82.38h99.911c5.522,0,10-4.477,10-10s-4.478-10-10-10h-99.911c-5.522,0-10,4.477-10,10
				S165.202,82.38,170.724,82.38z"/>
			<path style="fill:#052A75;" d="M170.724,125.559h174.514c5.522,0,10-4.477,10-10s-4.478-10-10-10H170.724
				c-5.522,0-10,4.477-10,10S165.202,125.559,170.724,125.559z"/>
			<path style="fill:#052A75;" d="M170.724,190.018h99.911c5.522,0,10-4.477,10-10s-4.478-10-10-10h-99.911c-5.522,0-10,4.477-10,10
				S165.202,190.018,170.724,190.018z"/>
			<path style="fill:#052A75;" d="M170.724,233.196h174.514c5.522,0,10-4.477,10-10s-4.478-10-10-10H170.724
				c-5.522,0-10,4.477-10,10S165.202,233.196,170.724,233.196z"/>
			<path style="fill:#052A75;" d="M170.724,297.655h99.911c5.522,0,10-4.477,10-10s-4.478-10-10-10h-99.911c-5.522,0-10,4.477-10,10
				S165.202,297.655,170.724,297.655z"/>
			<path style="fill:#052A75;" d="M170.724,405.292h99.911c5.522,0,10-4.477,10-10s-4.478-10-10-10h-99.911c-5.522,0-10,4.477-10,10
				S165.202,405.292,170.724,405.292z"/>
			<path style="fill:#052A75;" d="M504.411,373.007c0-49.974-38.084-91.22-86.754-96.24V40c0-22.056-17.944-40-40-40H47.589
				c-22.056,0-40,17.944-40,40v432c0,22.056,17.944,40,40,40h330.068c22.056,0,40-17.944,40-40v-2.753
				C466.327,464.227,504.411,422.981,504.411,373.007z M377.657,492H47.589c-11.028,0-20-8.972-20-20V40c0-11.028,8.972-20,20-20
				h330.068c11.028,0,20,8.972,20,20v236.766c-29.972,3.092-55.929,19.921-71.45,44.067H170.724c-5.522,0-10,4.477-10,10
				s4.478,10,10,10h145.685c-3.562,10.071-5.507,20.899-5.507,32.174c0,20.618,6.487,39.748,17.521,55.463H170.724
				c-5.522,0-10,4.477-10,10s4.478,10,10,10h176.454c14.13,11.347,31.498,18.819,50.479,20.777V472
				C397.657,483.028,388.685,492,377.657,492z M407.657,449.761c-42.323,0-76.755-34.432-76.755-76.754s34.432-76.755,76.755-76.755
				c42.322,0,76.754,34.432,76.754,76.755S449.979,449.761,407.657,449.761z"/>
		</g>
		<g>
			<path style="fill:#FFFFFF;" d="M393.623,406.217c-2.56,0-5.118-0.976-7.071-2.929l-16.353-16.352
				c-3.905-3.905-3.905-10.237,0-14.142c3.904-3.905,10.236-3.906,14.143,0l9.281,9.281l43.349-43.349
				c3.906-3.905,10.236-3.906,14.143,0c3.905,3.905,3.905,10.237,0,14.142l-50.42,50.42
				C398.741,405.24,396.182,406.217,393.623,406.217z"/>
		</g>
	</g>
</g>
<g>
</g>
<g>
</g>
<g>
</g>
<g>
</g>
<g>
</g>
<g>
</g>
<g>
</g>
<g>
</g>
<g>
</g>
<g>
</g>
<g>
</g>
<g>
</g>
<g>
</g>
<g>
</g>
<g>
</g>
</svg>
