<svg id="Layer_3" height="512" viewBox="0 0 64 64" width="512" xmlns="http://www.w3.org/2000/svg" data-name="Layer 3"><path d="m38 53h6v9h-6z" fill="#fbe1ca"/><path d="m4 53h6v9h-6z" fill="#fbe1ca"/><path d="m2 53h44v-6a14 14 0 0 0 -14-14h-16a14 14 0 0 0 -14 14z" fill="#78a0d4"/><path d="m15 15v7a9 9 0 0 0 9 9 9 9 0 0 0 9-9v-7l-2-4-1.6 1.2a9 9 0 0 1 -5.4 1.8 9 9 0 0 1 -5.4-1.8l-1.6-1.2z" fill="#fbe1ca"/><path d="m28 30.064v2.936a4 4 0 0 1 -4 4 4 4 0 0 1 -4-4v-2.936a8.96 8.96 0 0 0 4 .936 8.96 8.96 0 0 0 4-.936z" fill="#f2b9a1"/><path d="m33 16 1.15-2.667a7.077 7.077 0 0 0 -.429-6.445 7.08 7.08 0 0 0 -3.136-2.8l-2.791-1.271a9.089 9.089 0 0 0 -3.765-.817 9.091 9.091 0 0 0 -5.452 1.817l-1.742 1.306a5.229 5.229 0 0 0 -3.358 2.417 5.226 5.226 0 0 0 -.193 5.028l1.716 3.432v-1l2-4 1.6 1.2a9 9 0 0 0 5.4 1.8 9 9 0 0 0 5.4-1.8l1.6-1.2 2 4z" fill="#c18e59"/><path d="m15 16h-2a2 2 0 0 0 -2 2 2 2 0 0 0 2 2h2" fill="#f2b9a1"/><path d="m33 16h2a2 2 0 0 1 2 2 2 2 0 0 1 -2 2h-2" fill="#f2b9a1"/><path d="m10 62v-18a2 2 0 0 1 2-2h24a2 2 0 0 1 2 2v18z" fill="#ccc"/><path d="m35 57v-15h-23a2 2 0 0 0 -2 2v15h23a2 2 0 0 0 2-2z" fill="#dbdbdb"/><circle cx="24" cy="51" fill="#f2f2f2" r="3"/><circle cx="52" cy="12" fill="#559b2d" r="10"/><path d="m52 2a9.986 9.986 0 0 0 -7.992 15.992 9.986 9.986 0 0 0 13.984-13.984 9.941 9.941 0 0 0 -5.992-2.008z" fill="#6bc13b"/><path d="m46 13 4 4 8-8-2-2-6 6-2-2z" fill="#f2f2f2"/><path d="m32 32h-3v-1.353a10 10 0 0 0 5-8.647v-1h1a3 3 0 0 0 0-6h-.479l.547-1.271a8.077 8.077 0 0 0 -4.068-10.551l-2.79-1.271a10.256 10.256 0 0 0 -10.233 1.111l-1.577 1.182a6.222 6.222 0 0 0 -4.013 8.812l.995 1.988h-.382a3 3 0 0 0 0 6h1v1a10 10 0 0 0 5 8.647v1.353h-3a15.017 15.017 0 0 0 -15 15v6a1 1 0 0 0 1 1h1v8h2v-8h4v8a1 1 0 0 0 1 1h28a1 1 0 0 0 1-1v-8h4v8h2v-8h1a1 1 0 0 0 1-1v-6a15.017 15.017 0 0 0 -15-15zm4-14a1 1 0 0 1 -1 1h-1v-2h1a1 1 0 0 1 1 1zm-21.666-9.946a4.251 4.251 0 0 1 3.626-2.054 4.67 4.67 0 0 1 3.894 2.084l.314.471 1.664-1.11-.314-.47a6.663 6.663 0 0 0 -3.771-2.725 8.218 8.218 0 0 1 7.632-.522l2.791 1.272a6.077 6.077 0 0 1 3.062 7.939l-.067.156-1.27-2.54a1 1 0 0 0 -1.5-.353l-1.6 1.2a8 8 0 0 1 -9.6 0l-1.6-1.2a1 1 0 0 0 -1.5.353l-1.345 2.709-.572-1.144a4.207 4.207 0 0 1 .156-4.066zm-1.334 10.946a1 1 0 0 1 0-2h1v2zm3 3v-6.764l1.358-2.717.642.481a10 10 0 0 0 12 0l.642-.481 1.358 2.717v6.764a8 8 0 0 1 -16 0zm8 10a9.986 9.986 0 0 0 3-.461v1.461a3 3 0 0 1 -6 0v-1.461a9.986 9.986 0 0 0 3 .461zm13 29h-26v-17a1 1 0 0 1 1-1h24a1 1 0 0 1 1 1zm8-9h-6v-8a3 3 0 0 0 -3-3h-24a3 3 0 0 0 -3 3v8h-6v-5a13.015 13.015 0 0 1 13-13h3.1a5 5 0 0 0 9.8 0h3.1a13.015 13.015 0 0 1 13 13z"/><path d="m24 47a4 4 0 1 0 4 4 4 4 0 0 0 -4-4zm0 6a2 2 0 1 1 2-2 2 2 0 0 1 -2 2z"/><path d="m52 1a11 11 0 1 0 11 11 11.013 11.013 0 0 0 -11-11zm0 20a9 9 0 1 1 9-9 9.01 9.01 0 0 1 -9 9z"/><path d="m58.707 8.293-2-2a1 1 0 0 0 -1.414 0l-5.293 5.293-1.293-1.293a1 1 0 0 0 -1.414 0l-2 2a1 1 0 0 0 0 1.414l4 4a1 1 0 0 0 1.414 0l8-8a1 1 0 0 0 0-1.414zm-8.707 7.293-2.586-2.586.586-.586 1.293 1.293a1 1 0 0 0 1.414 0l5.293-5.293.586.586z"/></svg>