<?xml version="1.0" encoding="iso-8859-1"?>
<!-- Generator: Adobe Illustrator 28.7.8, SVG Export Plug-In . SVG Version: 9.03 Build 56881)  -->
<svg version="1.1" id="Layer_1" xmlns="http://www.w3.org/2000/svg" xmlns:xlink="http://www.w3.org/1999/xlink" x="0px" y="0px"
	 viewBox="0 0 510 510" style="enable-background:new 0 0 510 510;" xml:space="preserve">
<g>
	<g>
		<g>
			<g>
				
					<rect x="233" y="-86" transform="matrix(-1.836970e-16 1 -1 -1.836970e-16 348 -162)" style="fill:#B55348;" width="44" height="358"/>
			</g>
			<g>
				<g>
					<path style="fill:#D46B5C;" d="M76,229H32V32c0-12.15,9.85-22,22-22h0c12.15,0,22,9.85,22,22V229z"/>
				</g>
				<g>
					<path style="fill:#D46B5C;" d="M478,229h-44V32c0-12.15,9.85-22,22-22h0c12.15,0,22,9.85,22,22V229z"/>
				</g>
			</g>
		</g>
		<g>
			<g>
				<path style="fill:#67CCD1;" d="M365.82,21.388l-10.46,39.036l-25.185,8.991l-17.315-20.379L323.319,10
					c-23.657,2.737-44.38,19.534-50.918,43.935c-5.806,21.67,1.074,43.74,16.076,58.356l-46.64,174.063l56.372,15.105l46.64-174.063
					c20.299-5.158,37.293-20.831,43.1-42.5C394.487,60.495,384.939,35.587,365.82,21.388z"/>
			</g>
			<g>
				<polygon style="fill:#67CCD1;" points="214.409,79.628 193.737,10 153.135,10 132.463,79.628 149.809,101.752 149.809,228.925 
					197.063,228.925 197.063,101.752 				"/>
			</g>
		</g>
		<g>
			<g>
				<path style="fill:#FDCB50;" d="M34.17,500H475.83c13.349,0,24.17-10.821,24.17-24.17V229H10v246.83
					C10,489.179,20.821,500,34.17,500z"/>
			</g>
			<g>
				<path style="fill:#FD8F01;" d="M250.545,298.5c0-23.952,2.904-47.222,8.341-69.5H10v246.83C10,489.178,20.821,500,34.17,500
					h296.988C281.21,447.582,250.545,376.622,250.545,298.5z"/>
			</g>
			<g>
				<path style="fill:#D46B5C;" d="M250.545,298.5h91.949c22.371,0,40.506,18.135,40.506,40.506v50.987
					c0,22.371-18.135,40.506-40.506,40.506h-60.485l-59.637-66L250.545,298.5z"/>
			</g>
			<g>
				<path style="fill:#B55348;" d="M250.545,298.5h-83.039c-22.371,0-40.506,18.135-40.506,40.506v50.987
					c0,22.371,18.135,40.506,40.506,40.506h114.503C261.892,390.852,250.545,346.003,250.545,298.5z"/>
			</g>
		</g>
	</g>
	<g>
		<g>
			<g>
				<path style="fill:#FFFFFF;" d="M310.373,352.5H199.627c-5.523,0-10-4.477-10-10s4.477-10,10-10h110.746c5.523,0,10,4.477,10,10
					S315.896,352.5,310.373,352.5z"/>
			</g>
			<g>
				<path style="fill:#FFFFFF;" d="M277,396.5h-44c-5.523,0-10-4.477-10-10s4.477-10,10-10h44c5.523,0,10,4.477,10,10
					S282.523,396.5,277,396.5z"/>
			</g>
		</g>
		<path style="fill:#052A75;" d="M500,219h-12V32c0-17.645-14.355-32-32-32s-32,14.355-32,32v29h-24.47
			c-2.222-18.635-11.953-35.91-27.748-47.641c-2.659-1.974-6.123-2.504-9.251-1.416c-3.128,1.089-5.514,3.657-6.371,6.856
			l-9.102,33.97l-13.738,4.904l-9.445-11.116l9.103-33.97c0.857-3.199,0.075-6.615-2.089-9.123s-5.43-3.779-8.719-3.399
			c-28.642,3.314-51.969,23.443-59.428,51.28c-0.856,3.196-1.469,6.421-1.86,9.653h-41.572L203.324,7.154
			C202.064,2.91,198.164,0,193.737,0h-40.603c-4.427,0-8.327,2.91-9.586,7.154L127.562,61H86V32C86,14.355,71.645,0,54,0
			S22,14.355,22,32v187H10c-5.523,0-10,4.477-10,10v246.83C0,494.671,15.329,510,34.17,510H475.83
			c18.842,0,34.17-15.329,34.17-34.17V229C510,223.477,505.523,219,500,219z M456,20c6.617,0,12,5.383,12,12v187h-24V32
			C444,25.383,449.383,20,456,20z M372.367,125H424v94h-93.344l22.412-83.641C360.082,132.919,366.578,129.398,372.367,125z
			 M424,105h-33.777c3.21-5.406,5.715-11.284,7.385-17.516c0.578-2.156,1.037-4.32,1.406-6.484H424V105z M282.061,56.523
			c3.911-14.598,13.94-26.225,27.095-32.302L303.2,46.448c-0.85,3.173-0.088,6.561,2.039,9.063l17.315,20.379
			c2.693,3.169,7.067,4.341,10.983,2.943l25.186-8.991c3.093-1.104,5.447-3.657,6.297-6.83l5.956-22.226
			c8.354,11.84,11.226,26.924,7.314,41.521c-4.66,17.391-18.417,30.954-35.903,35.397c-3.508,0.891-6.26,3.608-7.197,7.104
			L309.951,219h-39.714l27.899-104.12c0.937-3.496-0.088-7.225-2.681-9.75C282.533,92.539,277.4,73.914,282.061,56.523z M224.298,81
			h37.051c1.426,8.438,4.398,16.582,8.788,24h-62.914l15.056-19.202C223.385,84.388,224.058,82.727,224.298,81z M207.063,125h67.655
			l-25.187,94h-42.468V125z M160.597,20h25.678l17.078,57.522l-14.16,18.059c-1.38,1.761-2.13,3.933-2.13,6.17V219h-27.254V101.751
			c0-2.237-0.75-4.41-2.13-6.17l-14.16-18.059L160.597,20z M139.809,219H86v-94h53.809V219z M122.574,81
			c0.24,1.727,0.913,3.388,2.019,4.798L139.649,105H86V81H122.574z M42,32c0-6.617,5.383-12,12-12s12,5.383,12,12v187H42V32z
			 M490,475.83c0,7.813-6.357,14.17-14.17,14.17H34.17C26.357,490,20,483.643,20,475.83V239h470V475.83z"/>
	</g>
</g>
<g>
</g>
<g>
</g>
<g>
</g>
<g>
</g>
<g>
</g>
<g>
</g>
<g>
</g>
<g>
</g>
<g>
</g>
<g>
</g>
<g>
</g>
<g>
</g>
<g>
</g>
<g>
</g>
<g>
</g>
</svg>
