<?xml version="1.0" encoding="iso-8859-1"?>
<!-- Generator: Adobe Illustrator 26.5.3, SVG Export Plug-In . SVG Version: 6.00 Build 0)  -->
<svg version="1.1" id="Capa_1" xmlns="http://www.w3.org/2000/svg" xmlns:xlink="http://www.w3.org/1999/xlink" x="0px" y="0px"
	 viewBox="0 0 510 510" style="enable-background:new 0 0 510 510;" xml:space="preserve">
<g>
	<g>
		<path style="fill:#67CCD1;" d="M188.902,301.733l-82.713,13.372c-35.948,5.812-62.368,36.846-62.368,73.261V500h364.444V388.366
			c0-36.414-26.42-67.449-62.368-73.261l-82.713-13.372H188.902z"/>
		<path style="fill:#27A2CC;" d="M198.77,365.201c0-22.506,4.545-43.95,12.763-63.468h-22.631l-82.713,13.372
			c-35.948,5.812-62.368,36.847-62.368,73.261V500h225.775C226.814,470.473,198.77,421.116,198.77,365.201z"/>
		<polygon style="fill:#FFFFFF;" points="226.043,345.24 272.785,384.381 319.527,310.842 267,302.35 		"/>
		<polygon style="fill:#FFFFFF;" points="226.043,345.24 179.301,384.381 132.559,310.842 185.086,302.35 		"/>
		<path style="fill:#FD7DA0;" d="M267,244.954v59.329c-15.995,15.995-24.962,24.962-40.957,40.957h0
			c-15.995-15.995-24.962-24.962-40.957-40.957v-59.329H267z"/>
		<g>
			<path style="fill:#FDBEB9;" d="M226.043,276.233L226.043,276.233c-47.502,0-86.01-38.508-86.01-86.009v-54.846
				c0-47.502,38.508-86.009,86.009-86.009h0c47.502,0,86.009,38.508,86.009,86.009v54.846
				C312.052,237.726,273.545,276.233,226.043,276.233z"/>
			<path style="fill:#FD7DA0;" d="M312.052,190.224v-54.846c0-17.434-5.203-33.646-14.118-47.198H154.151
				c-8.915,13.552-14.118,29.764-14.118,47.198v54.846c0,2.509,0.131,4.987,0.341,7.442h171.337
				C311.922,195.211,312.052,192.733,312.052,190.224z"/>
			<path style="fill:#B55348;" d="M312.052,156.815v-21.437c0-47.502-38.508-86.01-86.01-86.01l0,0
				c-47.502,0-86.01,38.508-86.01,86.01v21.437H312.052z"/>
		</g>
		<rect x="193.932" y="438.672" style="fill:#FFFFFF;" width="64.222" height="61.328"/>
		<g>
			<path style="fill:#FDCB50;" d="M320.659,106.902l-14.714-55.463C299.463,27.009,277.354,10,252.079,10h-52.073
				c-25.274,0-47.384,17.009-53.865,41.438l-14.714,55.463H320.659z"/>
			<g>
				<polygon style="fill:#FD8F01;" points="131.427,106.902 320.659,106.902 345.899,153.179 106.186,153.179 				"/>
			</g>
		</g>
		<polygon style="fill:#FDCB50;" points="346.227,271.735 456.389,271.735 456.389,343.809 346.227,343.809 370.326,307.772 		"/>
		<path style="fill:#FDBEB9;" d="M440.068,500h-26.043c-14.421,0-26.112-11.691-26.112-26.112v-20.339
			c0-14.421,11.691-26.112,26.112-26.112h26.043c14.421,0,26.112,11.691,26.112,26.112v20.339
			C466.179,488.309,454.489,500,440.068,500z"/>
	</g>
	<g>
		<path style="fill:#052A75;" d="M466.389,428.863V271.735c0-5.523-4.478-10-10-10H346.227c-3.69,0-7.081,2.033-8.82,5.288
			c-1.739,3.255-1.544,7.204,0.508,10.271l20.335,30.409c-3.524-1.054-7.122-1.882-10.757-2.469L277,293.837v-22.279
			c27.041-17.002,45.053-47.102,45.053-81.334V163.18h23.847c3.529,0,6.797-1.86,8.599-4.896c1.802-3.035,1.87-6.794,0.181-9.893
			l-24.663-45.219L315.61,48.874C307.976,20.098,281.851,0,252.079,0h-52.072c-29.772,0-55.897,20.098-63.531,48.874l-14.406,54.299
			l-24.662,45.219c-1.689,3.098-1.621,6.858,0.181,9.893c1.802,3.035,5.069,4.895,8.599,4.895h23.847v27.044
			c0,34.232,18.012,64.332,45.053,81.334v22.279l-70.493,11.397c-19.729,3.189-37.729,13.326-50.683,28.543
			c-12.955,15.217-20.09,34.604-20.09,54.589V500c0,5.523,4.478,10,10,10h396.247c19.912,0,36.112-16.2,36.112-36.112v-20.339
			C476.18,444.008,472.454,435.326,466.389,428.863z M378.639,302.213l-13.694-20.478h81.444v52.074h-81.444l13.694-20.478
			C380.889,309.966,380.889,305.578,378.639,302.213z M410.862,353.809h35.526v64.194c-2.054-0.365-4.164-0.565-6.321-0.565h-21.803
			v-29.071C418.265,376.275,415.727,364.581,410.862,353.809z M302.943,318.291l-32.48,51.102l-29.624-24.806l31.28-31.28
			L302.943,318.291z M249.713,378.103l-23.67,40.684l-23.67-40.684l23.67-19.82L249.713,378.103z M195.086,300.142v-19.031
			c9.717,3.319,20.13,5.122,30.957,5.122s21.24-1.803,30.957-5.122v19.031l-30.957,30.957L195.086,300.142z M155.808,54.002
			C161.118,33.982,179.294,20,200.007,20h52.072c20.713,0,38.888,13.982,44.199,34.002l11.381,42.899H144.426L155.808,54.002z
			 M123.031,143.18l14.332-26.278h177.358l14.333,26.278H123.031z M150.033,190.224V163.18h152.02v27.044
			c0,41.912-34.098,76.01-76.01,76.01S150.033,232.136,150.033,190.224z M179.968,313.308l31.279,31.28l-29.624,24.805
			l-32.48-51.101L179.968,313.308z M183.932,438.672V490H53.82V388.366c0-31.675,22.695-58.334,53.964-63.389l19.869-3.212
			l43.209,67.979c1.545,2.43,4.062,4.077,6.908,4.518c0.51,0.079,1.022,0.118,1.531,0.118c2.331,0,4.608-0.816,6.42-2.333
			l1.094-0.916l21.841,37.541h-14.724C188.409,428.672,183.932,433.149,183.932,438.672z M248.154,490h-44.223v-41.328h44.223V490z
			 M381.719,490H268.154v-51.328c0-5.523-4.478-10-10-10H243.43l21.841-37.541l1.094,0.916c1.812,1.518,4.088,2.333,6.42,2.333
			c0.509,0,1.021-0.039,1.531-0.118c2.846-0.441,5.363-2.087,6.908-4.518l43.208-67.979c0,0,21.343,3.484,22.079,3.63l-8.597,12.855
			c-2.052,3.068-2.247,7.016-0.508,10.271c1.739,3.255,5.13,5.288,8.82,5.288h41.946c6.613,10.317,10.092,22.166,10.092,34.557
			v32.698c-12.037,5.863-20.353,18.22-20.353,32.485v20.339C377.912,479.676,379.289,485.146,381.719,490z M456.18,473.888
			c0,8.884-7.228,16.112-16.112,16.112h-26.043c-8.885,0-16.112-7.228-16.112-16.112v-20.339c0-8.884,7.228-16.112,16.112-16.112
			h26.043c8.885,0,16.112,7.228,16.112,16.112V473.888z"/>
		<g>
			<path style="fill:#FD7DA0;" d="M226.043,235.466c-6.756,0-13.511-2.571-18.653-7.713c-3.906-3.905-3.906-10.237-0.001-14.142
				c3.904-3.906,10.237-3.906,14.142-0.001c2.488,2.488,6.537,2.489,9.023,0c3.906-3.905,10.236-3.905,14.143,0
				c3.905,3.905,3.905,10.237,0,14.143C239.554,232.895,232.798,235.466,226.043,235.466z"/>
		</g>
	</g>
</g>
<g>
</g>
<g>
</g>
<g>
</g>
<g>
</g>
<g>
</g>
<g>
</g>
<g>
</g>
<g>
</g>
<g>
</g>
<g>
</g>
<g>
</g>
<g>
</g>
<g>
</g>
<g>
</g>
<g>
</g>
</svg>
