<?xml version="1.0" encoding="iso-8859-1"?>
<!-- Generator: Adobe Illustrator 27.2.0, SVG Export Plug-In . SVG Version: 6.00 Build 0)  -->
<svg version="1.1" id="Capa_1" xmlns="http://www.w3.org/2000/svg" xmlns:xlink="http://www.w3.org/1999/xlink" x="0px" y="0px"
	 viewBox="0 0 510 510" style="enable-background:new 0 0 510 510;" xml:space="preserve">
<g>
	<g>
		<g>
			<circle style="fill:#BC9AF4;" cx="255" cy="327.689" r="48.288"/>
		</g>
		<g>
			<path style="fill:#6864F7;" d="M255,376.994c-53.899,0-97.593,43.694-97.593,97.593h195.187
				C352.593,420.688,308.899,376.994,255,376.994z"/>
		</g>
		<g>
			<g>
				<path style="fill:#B1D952;" d="M10,67.949v130.124c0,17.967,14.565,32.531,32.531,32.531h74.212l24.398,32.531l24.398-32.531
					h23.382c17.966,0,32.531-14.565,32.531-32.531V67.949c0-17.966-14.565-32.531-32.531-32.531H42.531
					C24.565,35.417,10,49.982,10,67.949z"/>
			</g>
			<g>
				<path style="fill:#FD7DA0;" d="M288.548,67.949v130.124c0,17.967,14.565,32.531,32.531,32.531h23.382l24.398,32.531
					l24.398-32.531h74.212c17.966,0,32.531-14.565,32.531-32.531V67.949c0-17.966-14.565-32.531-32.531-32.531h-146.39
					C303.112,35.417,288.548,49.982,288.548,67.949z"/>
			</g>
		</g>
	</g>
	<g>
		<g>
			<path style="fill:#052A75;" d="M291.27,373.292c13.41-10.69,22.02-27.16,22.02-45.6c0-32.14-26.15-58.29-58.29-58.29
				s-58.29,26.15-58.29,58.29c0,18.44,8.61,34.91,22.02,45.6c-41.54,14.91-71.32,54.69-71.32,101.29c0,5.53,4.47,10,10,10h195.18
				c5.53,0,10-4.47,10-10C362.59,427.982,332.81,388.202,291.27,373.292z M216.71,327.692c0-21.12,17.18-38.29,38.29-38.29
				s38.29,17.17,38.29,38.29c0,21.11-17.18,38.29-38.29,38.29S216.71,348.802,216.71,327.692z M167.97,464.583
				c4.98-43.6,42.11-77.59,87.03-77.59c44.92,0,82.05,33.99,87.03,77.59H167.97z"/>
		</g>
		<g>
			<g>
				<path style="fill:#FFFFFF;" d="M158.52,169.862l-33.55-81.33c-1.55-3.75-5.2-6.19-9.24-6.19h-0.11
					c-4.09,0.05-7.74,2.58-9.22,6.39l-31.51,81.33c-2,5.15,0.56,10.94,5.71,12.94c1.19,0.46,2.41,0.67,3.61,0.67
					c4.01,0,7.79-2.42,9.33-6.38l3.83-9.88h38.5l4.16,10.08c2.11,5.1,7.95,7.53,13.06,5.43
					C158.19,180.812,160.62,174.962,158.52,169.862z M105.12,147.412l10.9-28.14l11.6,28.14H105.12z"/>
			</g>
			<g>
				<path style="fill:#052A75;" d="M141.141,273.135c-3.147,0-6.111-1.482-8-4l-21.398-28.531H42.531
					C19.08,240.604,0,221.524,0,198.073V67.949c0-23.452,19.08-42.531,42.531-42.531h146.39c23.452,0,42.531,19.08,42.531,42.531
					v130.124c0,23.452-19.079,42.531-42.531,42.531H170.54l-21.398,28.531C147.252,271.653,144.289,273.135,141.141,273.135z
					 M42.531,45.417C30.107,45.417,20,55.525,20,67.949v130.124c0,12.424,10.107,22.531,22.531,22.531h74.211
					c3.147,0,6.111,1.482,8,4l16.398,21.865l16.398-21.865c1.889-2.518,4.853-4,8-4h23.382c12.423,0,22.531-10.107,22.531-22.531
					V67.949c0-12.424-10.107-22.531-22.531-22.531H42.531z"/>
			</g>
		</g>
		<g>
			<g>
				<path style="fill:#052A75;" d="M368.859,273.135c-3.147,0-6.111-1.482-8-4l-21.398-28.531h-18.382
					c-23.452,0-42.531-19.08-42.531-42.531V67.949c0-23.452,19.079-42.531,42.531-42.531h146.39
					c23.452,0,42.531,19.08,42.531,42.531v130.124c0,23.452-19.08,42.531-42.531,42.531h-69.211l-21.398,28.531
					C374.97,271.653,372.006,273.135,368.859,273.135z M321.079,45.417c-12.423,0-22.531,10.107-22.531,22.531v130.124
					c0,12.424,10.107,22.531,22.531,22.531h23.382c3.147,0,6.111,1.482,8,4l16.398,21.865l16.398-21.865c1.889-2.518,4.853-4,8-4
					h74.211c12.424,0,22.531-10.107,22.531-22.531V67.949c0-12.424-10.107-22.531-22.531-22.531H321.079z"/>
			</g>
			<g>
				<path style="fill:#FFFFFF;" d="M435.79,173.672c0,5.53-4.48,10-10,10c-13.04,0-24.72-5.89-32.53-15.16
					c-7.81,9.27-19.5,15.16-32.53,15.16c-5.53,0-10-4.47-10-10c0-5.52,4.47-10,10-10c12.42,0,22.53-10.11,22.53-22.53v-6.26h-14.4
					c-5.52,0-10-4.48-10-10c0-5.53,4.48-10,10-10h14.4v-22.54c0-5.52,4.47-10,10-10c5.52,0,10,4.48,10,10v22.54h14.4
					c5.52,0,10,4.47,10,10c0,5.52-4.48,10-10,10h-14.4v6.26c0,12.42,10.1,22.53,22.53,22.53
					C431.31,163.672,435.79,168.152,435.79,173.672z"/>
			</g>
		</g>
	</g>
</g>
<g>
</g>
<g>
</g>
<g>
</g>
<g>
</g>
<g>
</g>
<g>
</g>
<g>
</g>
<g>
</g>
<g>
</g>
<g>
</g>
<g>
</g>
<g>
</g>
<g>
</g>
<g>
</g>
<g>
</g>
</svg>
