<?xml version="1.0" encoding="iso-8859-1"?>
<!-- Generator: Adobe Illustrator 27.2.0, SVG Export Plug-In . SVG Version: 6.00 Build 0)  -->
<svg version="1.1" id="Capa_1" xmlns="http://www.w3.org/2000/svg" xmlns:xlink="http://www.w3.org/1999/xlink" x="0px" y="0px"
	 viewBox="0 0 510.004 510.004" style="enable-background:new 0 0 510.004 510.004;" xml:space="preserve">
<g>
	<g>
		<g>
			<path style="fill:#D46B5C;" d="M194.058,10C118.262,10,56.817,71.445,56.817,147.241c0,4.73,0,203.285,0,203.285l274.482,0.001
				c0,0,0-198.557,0-203.286C331.299,71.445,269.854,10,194.058,10z"/>
		</g>
		<g>
			<path style="fill:#91B706;" d="M349.487,357.306c-0.001-0.001-96.549-35.988-96.549-35.988l0,0
				c-32.195,39.964-85.844,39.67-117.76,0h-0.002c0,0-96.547,35.987-96.548,35.988c-15.716,5.859-28.573,24.375-28.573,41.148V500
				h246.115l116.265-121.754C367.217,368.801,358.861,360.802,349.487,357.306z"/>
		</g>
		<g>
			<polygon style="fill:#FFFFFF;" points="83.43,412.46 83.43,500 293.924,499.566 293.257,412.46 			"/>
		</g>
		<g>
			<path style="fill:#D2DCFD;" d="M378.06,378.113c-67.315,0-121.889,54.568-121.889,121.888h243.777
				C499.948,432.681,445.374,378.113,378.06,378.113z"/>
		</g>
		<g>
			<path style="fill:#93B2F4;" d="M409.986,382.347c-75.776-21.61-155.028,38.56-153.814,117.654h74.111
				C341.276,451.455,370.319,409.767,409.986,382.347z"/>
		</g>
		<g>
			<path style="fill:#FFC0BB;" d="M270.172,133.347l-103.671-41.51l-48.688,41.51v69.808c0,18.355,6.521,35.214,17.366,48.387
				v69.777c32.194,39.963,85.844,39.672,117.76,0l-0.066-69.861c10.804-13.16,17.3-29.986,17.3-48.303V133.347z"/>
		</g>
		<g>
			<path style="fill:#FD7DA0;" d="M192.141,150.657l78.03,31.243v-48.553l-103.671-41.51l-48.688,41.51v48.683l27.859-23.751
				C158.544,147.304,176.438,144.369,192.141,150.657z"/>
		</g>
		<g>
			<g>
				<path style="fill:#FD7DA0;" d="M193.993,272.404c-22.604,0-43.247-8.541-58.883-22.56c0.001,0.001,0.001,0.001,0.002,0.002
					v79.054c31.981,29.855,85.79,29.848,117.763,0.001v-79.054c0,0,0,0,0,0C237.239,263.864,216.596,272.404,193.993,272.404z"/>
			</g>
		</g>
	</g>
	<path style="fill:#052A75;" d="M388.06,368.489v-23.353c-0.527-13.264-19.474-13.262-20,0c0,0,0,11.949,0,11.949
		c-4.612-4.012-9.727-7.154-15.079-9.15l-0.009,0.023c-2.063-0.821-9.214-3.452-11.673-4.378V147.241
		C341.299,66.052,275.248,0,194.058,0C112.869,0,46.817,66.052,46.817,147.241v196.341c-2.49,0.938-9.58,3.546-11.673,4.378
		l-0.009-0.023c-19.671,7.334-35.08,29.525-35.08,50.519V500c0,5.522,4.477,10,10,10c122.115-0.021,367.853,0.015,489.894,0
		c5.522,0,10-4.477,10-10C509.949,430.641,456.13,373.617,388.06,368.489z M345.995,366.677c2.355,0.878,4.684,2.196,6.905,3.854
		c-22.33,4.331-42.667,14.311-59.458,28.391v-51.834c25.302,9.431,52.183,19.451,52.543,19.586
		C345.988,366.674,345.991,366.675,345.995,366.677z M246.548,490H93.43v-67.54h178.013C257.405,441.709,248.44,464.881,246.548,490
		z M132.201,333.1c35.062,37.582,88.783,37.461,123.716,0c4.296,1.601,10.436,3.89,17.524,6.532v62.828H114.676v-62.828
		C121.766,336.989,127.905,334.701,132.201,333.1z M145.176,274.146c27.829,20.172,69.977,20.134,97.763-0.09v43.606
		c-28.426,31.552-69.477,31.414-97.763-0.004V274.146z M260.172,203.154c0.028,36.288-29.539,66.208-66.172,66.243
		c-36.496-0.031-66.187-29.748-66.187-66.243v-65.192l40.578-34.596l91.781,36.748V203.154z M66.817,147.241
		c7.002-168.824,247.525-168.735,254.483,0.001c0-0.001,0,188.885,0,188.885l-58.36-21.754V254.81
		c10.816-14.411,17.233-32.3,17.233-51.655v-69.808c0-4.088-2.488-7.764-6.283-9.283l-103.672-41.51
		c-3.446-1.38-7.377-0.737-10.205,1.674l-48.688,41.51c-2.229,1.899-3.512,4.681-3.512,7.609v69.808
		c0,19.431,6.471,37.38,17.363,51.819v59.4l-58.359,21.753V147.241z M20.055,398.455c0-12.546,10.311-27.396,22.066-31.778
		c0.007-0.003,0.014-0.005,0.02-0.008c0.674-0.251,27.385-10.208,52.535-19.582v55.373H83.43c-5.522,0-10,4.478-10,10V490H20.055
		V398.455z M266.615,490c15.899-135.103,207.043-135.003,222.891,0H266.615z"/>
</g>
<g>
</g>
<g>
</g>
<g>
</g>
<g>
</g>
<g>
</g>
<g>
</g>
<g>
</g>
<g>
</g>
<g>
</g>
<g>
</g>
<g>
</g>
<g>
</g>
<g>
</g>
<g>
</g>
<g>
</g>
</svg>
