<?xml version="1.0" encoding="iso-8859-1"?>
<!-- Generator: Adobe Illustrator 26.5.1, SVG Export Plug-In . SVG Version: 6.00 Build 0)  -->
<svg version="1.1" id="Capa_1" xmlns="http://www.w3.org/2000/svg" xmlns:xlink="http://www.w3.org/1999/xlink" x="0px" y="0px"
	 viewBox="0 0 510 510" style="enable-background:new 0 0 510 510;" xml:space="preserve">
<g>
	<g>
		<path style="fill-rule:evenodd;clip-rule:evenodd;fill:#F7B073;" d="M281.014,405c-0.669-4.905-1.014-9.912-1.014-15
			c0-52.152,36.293-95.827,85.001-107.147c8.031-1.867,16.4-2.853,25-2.853c6.83,0,13.514,0.623,20,1.814V10H10v440h287.789
			C289.125,436.711,283.255,421.433,281.014,405z"/>
		<path style="fill-rule:evenodd;clip-rule:evenodd;fill:#D46B5C;" d="M281.014,405c-0.669-4.905-1.014-9.912-1.014-15
			c0-52.152,36.293-95.827,85.001-107.147c8.031-1.867,16.4-2.853,25-2.853c6.83,0,13.514,0.623,20,1.814v-40.487
			c-6.627-0.885-13.311-1.327-20-1.327c-11.46,0-22.892,1.298-34.054,3.892C288.138,259.65,240,320.265,240,390
			c0,6.823,0.459,13.644,1.381,20.405c1.867,13.694,5.617,27.01,11.113,39.595h45.295C289.125,436.711,283.255,421.433,281.014,405z
			"/>
		<rect x="55" y="54.999" style="fill-rule:evenodd;clip-rule:evenodd;fill:#67CCD1;" width="132.5" height="350"/>
		<path style="fill-rule:evenodd;clip-rule:evenodd;fill:#67CCD1;" d="M232.5,54.999v350h8.244l39.86-3.404
			C280.205,397.785,280,393.916,280,390c0-50.886,34.553-93.702,81.477-106.266L365,242.08V54.999H232.5z"/>
		<path style="fill-rule:evenodd;clip-rule:evenodd;fill:#27A2CC;" d="M240.744,405h40.27c-0.669-4.905-1.014-9.912-1.014-15
			c0-52.152,36.293-95.827,85.001-107.147V242.08c-3.035,0.51-6.054,1.113-9.055,1.811C288.138,259.65,240,320.265,240,390
			C240,395.009,240.247,400.016,240.744,405z"/>
		<path style="fill-rule:evenodd;clip-rule:evenodd;fill:#FDCB50;" d="M365,282.853C316.293,294.172,280,337.848,280,390
			c0,5.088,0.346,10.096,1.014,15c2.241,16.433,8.111,31.711,16.775,45c19.627,30.102,53.595,50,92.211,50
			c60.751,0,110-49.249,110-110c0-53.921-38.798-98.781-90-108.186c-6.486-1.191-13.17-1.814-20-1.814
			C381.401,279.999,373.032,280.986,365,282.853z"/>
		<rect x="350" y="377.375" style="fill-rule:evenodd;clip-rule:evenodd;fill:#67CCD1;" width="80" height="60"/>
	</g>
	<g>
		<path style="fill:#052A75;" d="M420,273.795V10c0-5.522-4.478-10-10-10H10C4.478,0,0,4.478,0,10v440c0,5.522,4.478,10,10,10
			h282.584c21.807,30.262,57.35,50,97.416,50c66.168,0,120-53.832,120-120.001C510,334.186,471.699,287.15,420,273.795z M20,440V20
			h380v250.412c-3.298-0.273-6.633-0.413-10-0.413c-5.079,0-10.085,0.318-15,0.933V54.999c0-5.522-4.478-10-10-10H232.5
			c-5.522,0-10,4.478-10,10V405c0,5.522,4.478,10,10,10h40.12c1.855,8.718,4.659,17.09,8.299,25H20z M270,389.999
			c0,1.675,0.035,3.342,0.104,5.001H242.5V64.999H355v210.205C305.851,290.219,270,336.001,270,389.999z M390,490
			c-55.141,0-100-44.86-100-100.001s44.859-100,100-100s100,44.859,100,100S445.141,490,390,490z"/>
		<path style="fill:#052A75;" d="M187.5,44.999H55c-5.522,0-10,4.478-10,10V405c0,5.522,4.478,10,10,10h132.5
			c5.522,0,10-4.478,10-10V54.999C197.5,49.477,193.022,44.999,187.5,44.999z M177.5,395H65V64.999h112.5V395z"/>
		<path style="fill:#052A75;" d="M430,367.375h-5v-15.001c0-19.299-15.701-34.999-35-34.999s-35,15.7-35,34.999v15.001h-5
			c-5.522,0-10,4.478-10,10v59.999c0,5.522,4.478,10,10,10h80c5.522,0,10-4.478,10-10v-59.999
			C440,371.853,435.522,367.375,430,367.375z M375,352.374c0-8.271,6.729-14.999,15-14.999s15,6.729,15,14.999v15.001h-30V352.374z
			 M420,427.374h-60v-39.999h60V427.374z"/>
	</g>
</g>
<g>
</g>
<g>
</g>
<g>
</g>
<g>
</g>
<g>
</g>
<g>
</g>
<g>
</g>
<g>
</g>
<g>
</g>
<g>
</g>
<g>
</g>
<g>
</g>
<g>
</g>
<g>
</g>
<g>
</g>
</svg>
