<?xml version="1.0" encoding="iso-8859-1"?>
<!-- Generator: Adobe Illustrator 26.5.3, SVG Export Plug-In . SVG Version: 6.00 Build 0)  -->
<svg version="1.1" id="Capa_1" xmlns="http://www.w3.org/2000/svg" xmlns:xlink="http://www.w3.org/1999/xlink" x="0px" y="0px"
	 viewBox="0 0 512 512" style="enable-background:new 0 0 512 512;" xml:space="preserve">
<g>
	<g>
		<g>
			<path style="fill:#BC97F7;" d="M376.355,387.321h-240.71c-29.582,0-51.74-27.109-45.854-56.099l18.488-91.057h295.442
				l18.488,91.057C428.095,360.212,405.937,387.321,376.355,387.321z"/>
		</g>
		<g>
			<circle style="fill:#F9B16E;" cx="128.409" cy="240.165" r="30.089"/>
		</g>
		<g>
			<circle style="fill:#F9B16E;" cx="383.591" cy="240.165" r="30.089"/>
		</g>
		<g>
			<path style="fill:#F9B16E;" d="M256.34,395.071L256.34,395.071c-63.959,0-115.808-51.849-115.808-115.807v-87.214
				c0-63.959,51.849-115.807,115.807-115.807h0c63.959,0,115.807,51.849,115.807,115.807v87.214
				C372.147,343.222,320.298,395.071,256.34,395.071z"/>
		</g>
		<g>
			<path style="fill:#FFFFFF;" d="M372.147,292.966V192.049c0-63.959-51.849-115.807-115.807-115.807h0
				c-63.959,0-115.807,51.849-115.807,115.807v100.916h79.937c6.363,0,12.411-2.765,16.575-7.577l2.721-3.145
				c8.741-10.102,24.408-10.102,33.149,0l2.721,3.145c4.163,4.812,10.212,7.577,16.575,7.577H372.147z"/>
		</g>
		<g>
			<path style="fill:#D2DBFE;" d="M371.329,259.229v-66.916c0-63.694-51.635-115.329-115.329-115.329h0
				c-63.694,0-115.329,51.635-115.329,115.329v66.916H371.329z"/>
		</g>
		<g>
			<path style="fill:#F9B16E;" d="M456.294,502c7.37,0,12.208-7.739,8.947-14.349c-11.494-23.3-32.717-41.267-59.159-48.069
				l-31.743-8.166c-31.361-8.067-57.535-29.619-71.47-58.849v0h-93.738v0c-13.936,29.23-40.109,50.782-71.471,58.849l-31.743,8.166
				c-26.442,6.802-47.665,24.768-59.159,48.068C43.498,494.261,48.335,502,55.706,502H456.294z"/>
		</g>
		<g>
			<path style="fill:#675EFB;" d="M456.294,502c7.37,0,12.208-7.739,8.947-14.349c-11.494-23.301-32.717-41.267-59.159-48.069
				l-31.743-8.166c-14.899-3.833-28.623-10.714-40.425-20.011c-18.889,21.819-46.79,35.623-77.915,35.623
				c-31.125,0-59.025-13.803-77.914-35.623c-11.801,9.297-25.526,16.178-40.425,20.011l-31.743,8.166
				c-26.442,6.802-47.665,24.768-59.159,48.069C43.498,494.261,48.335,502,55.706,502H456.294z"/>
		</g>
		<g>
			<path style="fill:#FECC42;" d="M258.572,23.608h-4.153c-70.637,0-127.9,57.263-127.9,127.9v0h259.953v0
				C386.473,80.871,329.21,23.608,258.572,23.608z"/>
		</g>
		<g>
			<path style="fill:#FECC42;" d="M379.753,209.925H133.239c-11.046,0-20-8.954-20-20v-18.417c0-11.046,8.954-20,20-20h246.514
				c11.046,0,20,8.954,20,20v18.417C399.753,200.971,390.798,209.925,379.753,209.925z"/>
		</g>
		<g>
			<path style="fill:#FF9000;" d="M294.452,151.508h-75.913V30c0-11.046,8.954-20,20-20h35.913c11.046,0,20,8.954,20,20V151.508z"/>
		</g>
	</g>
	<g>
		<path style="fill:#022777;" d="M474.21,483.227c-13.086-26.527-37.009-45.965-65.636-53.329l-31.743-8.166
			c-16.538-4.254-31.645-12.732-43.88-24.412h43.405c17.113,0,33.14-7.599,43.97-20.85c10.83-13.25,15.088-30.468,11.683-47.239
			l-13.938-68.646c3.558-5.985,5.61-12.966,5.61-20.42c0-14.274-7.505-26.822-18.77-33.926c3.058-4.7,4.843-10.3,4.843-16.313
			v-18.417c0-10.398-5.319-19.574-13.377-24.959c-0.983-28.082-10.302-54.717-27.121-77.311
			c-16.844-22.627-39.689-39.252-66.193-48.268C299.22,8.828,287.849,0,274.452,0H238.54c-13.392,0-24.76,8.822-28.605,20.959
			c-54.342,18.505-91.287,68.47-93.317,125.589c-8.059,5.384-13.379,14.561-13.379,24.96v18.417c0,5.824,1.674,11.263,4.558,15.87
			c-11.66,7.019-19.478,19.797-19.478,34.37c0,7.454,2.051,14.434,5.609,20.419l-13.938,68.648
			c-3.405,16.771,0.854,33.989,11.684,47.239c10.831,13.25,26.857,20.85,43.97,20.85h43.405
			c-12.218,11.678-27.285,20.143-43.88,24.412l-31.743,8.166c-28.626,7.364-52.55,26.802-65.636,53.329
			c-3.067,6.218-2.711,13.449,0.954,19.343c3.671,5.905,10.012,9.43,16.961,9.43h400.588c6.949,0,13.29-3.525,16.961-9.429
			C476.92,496.677,477.277,489.446,474.21,483.227z M150.532,279.805v-59.88h211.615v59.88c0,58.043-47.222,105.265-105.265,105.265
			h-1.084C197.754,385.071,150.532,337.849,150.532,279.805z M128.409,260.254c-11.078,0-20.09-9.012-20.09-20.089
			s9.012-20.09,20.09-20.09c0.713,0,1.42,0.05,2.123,0.124v39.937C129.831,260.209,129.124,260.254,128.409,260.254z
			 M123.239,171.508c0-5.514,4.486-10,10-10h246.514c5.514,0,10,4.486,10,10v18.417c0,5.514-4.486,10-10,10H133.239
			c-5.514,0-10-4.486-10-10V171.508z M383.591,260.254c-0.483,0-0.963-0.038-1.444-0.072v-40.054
			c0.479-0.034,0.961-0.052,1.444-0.052c11.077,0,20.089,9.012,20.089,20.09S394.668,260.254,383.591,260.254z M404.84,363.814
			c-7.016,8.584-17.398,13.507-28.485,13.507h-40.944c28.382-22.901,46.603-57.909,46.73-97.103
			c0.483,0.017,0.966,0.036,1.449,0.036c6.18,0,12.037-1.408,17.27-3.916l11.547,56.873
			C414.614,344.076,411.856,355.23,404.84,363.814z M353.211,81.181c13.219,17.758,21.017,38.442,22.839,60.327h-71.598V42.901
			C323.644,51.056,340.694,64.367,353.211,81.181z M228.54,30c0-5.514,4.486-10,10-10h35.913c5.514,0,10,4.486,10,10v111.508H228.54
			V30z M208.54,42.864v98.644h-71.591C140.625,97.865,168.165,59.877,208.54,42.864z M107.16,363.814
			c-7.016-8.584-9.774-19.738-7.569-30.603l11.548-56.874c5.233,2.509,11.09,3.917,17.271,3.917c0.712,0,1.421-0.023,2.128-0.059
			c0.12,39.203,18.344,74.221,46.731,97.126h-41.623C124.558,377.321,114.176,372.397,107.16,363.814z M55.77,491.989
			c10.514-21.251,29.694-36.819,52.639-42.721l31.743-8.166c27.075-6.965,50.8-23.189,67.104-45.821
			c14.936,6.302,31.339,9.79,48.541,9.79h1.084c17.003,0,33.223-3.411,48.019-9.576c16.283,22.493,40.05,38.688,66.947,45.607
			l31.743,8.166c22.939,5.901,42.115,21.462,52.643,42.732L55.77,491.989z"/>
		<path style="fill:#022777;" d="M280.982,344.915c3.957-3.853,4.041-10.184,0.188-14.141c-3.852-3.957-10.184-4.041-14.141-0.188
			c-2.968,2.89-6.885,4.482-11.029,4.482c-3.933,0-7.701-1.452-10.612-4.089c-4.091-3.708-10.416-3.397-14.125,0.696
			c-3.708,4.093-3.396,10.417,0.696,14.125c6.596,5.977,15.134,9.269,24.041,9.269C265.386,355.067,274.258,351.462,280.982,344.915
			z"/>
	</g>
</g>
<g>
</g>
<g>
</g>
<g>
</g>
<g>
</g>
<g>
</g>
<g>
</g>
<g>
</g>
<g>
</g>
<g>
</g>
<g>
</g>
<g>
</g>
<g>
</g>
<g>
</g>
<g>
</g>
<g>
</g>
</svg>
