<?xml version="1.0" encoding="iso-8859-1"?>
<!-- Generator: Adobe Illustrator 26.5.3, SVG Export Plug-In . SVG Version: 6.00 Build 0)  -->
<svg version="1.1" id="Capa_1" xmlns="http://www.w3.org/2000/svg" xmlns:xlink="http://www.w3.org/1999/xlink" x="0px" y="0px"
	 viewBox="0 0 511 511" style="enable-background:new 0 0 511 511;" xml:space="preserve">
<g>
	<g>
		<g>
			<path style="fill:#FEE0BC;" d="M284.038,265.048h-57.549c-8.34,17.494-23.83,30.485-42.44,35.717v109.536h142.184V300.695
				C307.732,295.417,292.342,282.465,284.038,265.048z"/>
		</g>
		<g>
			<path style="fill:#675EFB;" d="M327.917,301.178c-19.254-4.953-35.323-18.184-43.879-36.13h0h-28.775h-28.775h0
				c-8.556,17.946-24.625,31.177-43.879,36.13l-47.177,8.527c-48.629,8.79-83.998,51.124-83.998,100.541v0.055h408.129v0
				c0-49.442-35.402-91.789-84.061-100.553L327.917,301.178z"/>
		</g>
		<g>
			<path style="fill:#FECC42;" d="M255.138,408.415l-53.733-116.121c-1.056-2.551-3.545-4.215-6.306-4.215h-42.792
				c-3.698,0-6.724,2.946-6.822,6.643l-2.722,89.964c-0.003,0.097-0.005,0.193-0.009,0.29c-0.479,14.15-12.291,25.282-26.449,25.282
				h-3.75V501h142.582V408.415z"/>
		</g>
		<g>
			<path style="fill:#FF9000;" d="M173.399,385.539c0-34.31,10.43-66.185,28.292-92.626l-0.286-0.619
				c-1.056-2.552-3.545-4.216-6.306-4.216h-42.792c-3.698,0-6.724,2.946-6.822,6.644l-2.721,89.964
				c-0.003,0.097-0.005,0.193-0.009,0.29c-0.479,14.15-12.292,25.282-26.449,25.282h-3.75V501h107.722
				C191.271,471.161,173.399,430.44,173.399,385.539z"/>
		</g>
		<g>
			<rect x="112.556" y="443.269" style="fill:#FFFFFF;" width="142.582" height="57.731"/>
		</g>
		<g>
			<path style="fill:#D2DBFE;" d="M183.744,443.269h-71.188V501h107.722C204.388,484.655,191.841,465.046,183.744,443.269z"/>
		</g>
		<g>
			<rect x="51.435" y="410.301" style="fill:#FEE0BC;" width="61.121" height="90.699"/>
		</g>
		<g>
			<path style="fill:#FECC42;" d="M255.138,408.415l54.456-116.121c1.056-2.551,3.545-4.215,6.306-4.215h42.792
				c3.698,0,6.724,2.946,6.822,6.643l2.722,89.964c0.003,0.097,0.005,0.193,0.009,0.29c0.479,14.15,12.292,25.282,26.449,25.282
				h3.75V501H255.138V408.415z"/>
		</g>
		<g>
			<rect x="255.138" y="443.269" style="fill:#FFFFFF;" width="143.306" height="57.731"/>
		</g>
		<g>
			<path style="fill:#D66B59;" d="M386.104,128.296V32.459c0-12.404-10.055-22.459-22.459-22.459H199.679
				c-41.701,0-75.507,33.805-75.507,75.506v42.79H386.104z"/>
		</g>
		<g>
			<rect x="398.444" y="410.301" style="fill:#FEE0BC;" width="61.121" height="90.699"/>
		</g>
		<g>
			<path style="fill:#FEE0BC;" d="M372.273,171.067h-20.665v-47.894h20.665c13.134,0,23.782,10.648,23.782,23.782v0.33
				C396.055,160.42,385.407,171.067,372.273,171.067z"/>
		</g>
		<g>
			<path style="fill:#FEE0BC;" d="M138.492,171.067h20.665v-47.894h-20.665c-13.134,0-23.782,10.648-23.782,23.782v0.33
				C114.71,160.42,125.358,171.067,138.492,171.067z"/>
		</g>
		<g>
			<path style="fill:#FEE0BC;" d="M218.656,93.806c-5.711-4.256-13.812-2.429-17.09,3.894
				c-5.318,10.257-16.961,22.501-42.333,25.024v47.343c0,53.102,43.048,96.149,96.149,96.149h0.076
				c53.102,0,96.149-43.048,96.149-96.149v-46.894C328.037,124.076,263.229,127.023,218.656,93.806z"/>
		</g>
		<g>
			<path style="fill:#F9B16E;" d="M351.364,176.89c0.158-2.254,0.244-4.529,0.244-6.823v-46.894
				c-23.571,0.903-88.379,3.85-132.952-29.367c-5.711-4.256-13.812-2.429-17.09,3.894c-5.318,10.257-16.961,22.501-42.333,25.024
				v47.343c0,2.295,0.086,4.569,0.244,6.823H351.364z"/>
		</g>
	</g>
	<g>
		<path style="fill:#022777;" d="M377.275,299.906l-1.608-0.289l-0.156-5.159c-0.243-9.185-7.63-16.379-16.818-16.379h-42.792
			c-2.807,0-5.487,0.697-7.857,1.947c-4.235-3.541-7.958-7.706-11.007-12.296c34.708-14.833,59.967-47.644,64.003-86.663h11.233
			c18.627,0,33.782-15.154,33.782-33.782v-0.33c0-9.336-3.808-17.798-9.95-23.919V32.459C396.104,14.561,381.543,0,363.646,0
			H199.678c-47.148,0-85.506,38.358-85.506,85.507v38.037c-5.852,6.077-9.462,14.328-9.462,23.411v0.33
			c0,18.627,15.154,33.782,33.782,33.782h11.309c4.025,38.918,29.168,71.658,63.765,86.545c-3.02,4.57-6.708,8.725-10.904,12.263
			c-2.297-1.154-4.871-1.796-7.563-1.796h-42.792c-9.188,0-16.575,7.195-16.817,16.341l-0.156,5.141l-1.68,0.304
			c-53.436,9.658-92.219,56.08-92.219,110.436V501c0,5.523,4.477,10,10,10h408.129c5.523,0,10-4.477,10-10v-90.699
			C469.565,355.965,430.752,309.538,377.275,299.906z M449.005,400.301h-49.71c-0.281-0.024-0.564-0.043-0.851-0.043h-3.75
			c-8.781,0-16.163-7.007-16.456-15.636l-1.952-64.513C415.613,328.332,444.743,360.914,449.005,400.301z M386.054,147.285
			c0,7.599-6.183,13.782-13.782,13.782h-10.665v-27.894h10.665c7.599,0,13.782,6.183,13.782,13.782V147.285z M199.678,20h163.967
			c6.87,0,12.458,5.589,12.458,12.459v80.937c-1.258-0.143-2.536-0.224-3.832-0.224c0,0-20.791,0.008-20.855,0.01
			c-0.064,0.001-0.128-0.005-0.193-0.002l-0.917,0.035c-23.111,0.892-84.499,3.259-125.676-27.428h0
			c-5.091-3.794-11.545-5.157-17.704-3.741c-6.141,1.412-11.331,5.44-14.24,11.05c-5.894,11.369-17.483,17.989-34.445,19.677
			c-0.678,0.067-22.656,0.503-24.071,0.685V85.507C134.172,49.386,163.558,20,199.678,20z M149.157,161.067h-10.665
			c-7.599,0-13.782-6.183-13.782-13.782v-0.33c0-7.6,6.183-13.782,13.782-13.782h10.665V161.067z M169.233,170.067v-38.733
			c23.881-4.828,35.552-18.117,41.211-29.031c0.212-0.409,0.537-0.666,0.965-0.764c0.308-0.072,0.78-0.08,1.271,0.286c0,0,0,0,0,0
			c41.792,31.145,99.244,32.459,128.927,31.696v36.547c0,47.503-38.646,86.149-86.225,86.149
			C207.88,256.216,169.233,217.57,169.233,170.067z M255.458,276.216c7.593,0,15.001-0.808,22.146-2.331
			c0.227,0.681,0.525,1.349,0.91,1.99c4.716,7.852,10.907,14.857,18.081,20.585l-41.396,88.273l-40.961-88.518
			c7.043-5.683,13.129-12.606,17.775-20.343c0.398-0.663,0.702-1.355,0.931-2.061C240.203,275.381,247.734,276.216,255.458,276.216z
			 M134.715,320.055l-1.947,64.378l-0.006,0.204c-0.292,8.613-7.673,15.621-16.455,15.621h-3.75c-0.287,0-0.57,0.019-0.851,0.043
			H61.99C66.231,360.896,95.374,328.281,134.715,320.055z M61.435,420.301h41.121V491H61.435V420.301z M122.556,419.736
			c16.795-2.838,29.602-16.939,30.193-34.407l2.64-87.25h37.675l52.075,112.538V491H122.556V419.736z M265.138,410.644
			l52.788-112.565h37.685l2.639,87.236c0.592,17.481,13.398,31.583,30.193,34.422V491H265.138V410.644z M449.565,491h-41.121
			v-70.699h41.121V491z"/>
		<path style="fill:#022777;" d="M277.257,199.083c-3.852-3.957-10.183-4.041-14.141-0.188c-2.147,2.09-4.98,3.242-7.978,3.242
			c-2.845,0-5.571-1.05-7.676-2.958c-4.092-3.708-10.416-3.396-14.125,0.695c-3.708,4.092-3.397,10.417,0.695,14.125
			c5.791,5.248,13.286,8.137,21.105,8.137c8.24,0,16.029-3.166,21.931-8.914C281.027,209.371,281.11,203.04,277.257,199.083z"/>
	</g>
</g>
<g>
</g>
<g>
</g>
<g>
</g>
<g>
</g>
<g>
</g>
<g>
</g>
<g>
</g>
<g>
</g>
<g>
</g>
<g>
</g>
<g>
</g>
<g>
</g>
<g>
</g>
<g>
</g>
<g>
</g>
</svg>
