<?xml version="1.0" encoding="UTF-8"?>
<svg id="Layer_2" data-name="Layer 2" xmlns="http://www.w3.org/2000/svg" viewBox="0 0 786.59 800">
  <defs>
    <style>
      .cls-1 {
        fill: #679b00;
      }

      .cls-1, .cls-2, .cls-3 {
        stroke-width: 0px;
      }

      .cls-2 {
        fill: #fff;
      }

      .cls-3 {
        fill: #eaa200;
      }
    </style>
  </defs>
  <g id="Layer_1-2" data-name="Layer 1">
    <g>
      <rect class="cls-1" width="786.59" height="800"/>
      <g>
        <path class="cls-2" d="m270.77,529.41c-33.66-18.11-59.25-43.42-76.77-75.88-17.54-32.46-26.28-69.8-26.28-112.04s8.76-79.56,26.28-112.02c17.52-32.46,43.11-57.75,76.77-75.88,33.66-18.11,73.79-27.18,120.4-27.18s86.73,9.07,120.4,27.18c33.66,18.13,59.25,43.42,76.77,75.88,17.52,32.46,26.28,69.8,26.28,112.02s-8.76,79.58-26.28,112.04c-17.54,32.46-43.11,57.77-76.77,75.88-33.66,18.13-73.79,27.18-120.4,27.18s-86.73-9.05-120.4-27.18Zm226.14-76.47c25.1-27.28,37.65-64.44,37.65-111.43s-13.05-84.64-39.13-111.74c-26.1-27.08-62.85-40.63-110.25-40.63-43.42,0-77.18,13.84-101.27,41.53-24.11,27.69-36.14,64.64-36.14,110.84s12.54,84.15,37.65,111.43c25.08,27.3,60.35,40.94,105.76,40.94s80.66-13.64,105.76-40.94h-.02Z"/>
        <path class="cls-3" d="m590.59,677.12c-132.31-20.96-266.57-20.96-398.87,0-13.09,2.07-25.49-7.95-27.6-22.56-.33-2.34-.65-4.65-.98-6.99-2.09-14.61,7.34-28.58,21-30.73,137.33-21.75,276.71-21.75,414.04,0,14.72,2.32,24.51,18.31,20.33,34.07-.39,16.57-13.76,28.46-27.91,26.22h0Z"/>
      </g>
    </g>
  </g>
</svg>