<svg width="161" height="160" viewBox="0 0 161 160" fill="none" xmlns="http://www.w3.org/2000/svg">
<path d="M85.0749 130.6C113.075 130.6 135.775 107.9 135.775 79.8C135.775 51.7 113.075 29 85.0749 29C57.0749 29 34.3749 51.7 34.3749 79.8C34.3749 107.9 57.0749 130.6 85.0749 130.6Z" fill="#F1F3FA"/>
<g filter="url(#filter0_d_6007_2070)">
<path d="M132.075 59.5H45.3749C43.4749 59.5 41.9749 58 41.9749 56.1V36.6C41.9749 34.7 43.4749 33.2 45.3749 33.2H131.975C133.875 33.2 135.375 34.7 135.375 36.6V56.1C135.475 58 133.875 59.5 132.075 59.5Z" fill="white"/>
</g>
<path d="M62.9749 46.3C62.9749 48.5 61.9749 50.5 60.4749 51.9C59.1749 53.1 57.3749 53.8 55.4749 53.8C53.5749 53.8 51.7749 53.1 50.4749 51.9C48.8749 50.5 47.9749 48.5 47.9749 46.3C47.9749 42.2 51.3749 38.8 55.4749 38.8C59.5749 38.8 62.9749 42.2 62.9749 46.3Z" fill="#D5DAE5"/>
<path d="M60.4749 51.9C59.1749 53.1 57.3749 53.8 55.4749 53.8C53.5749 53.8 51.7749 53.1 50.4749 51.9C51.0749 51.7 51.7749 51.4 52.6749 51C52.8749 50.9 53.0749 50.7 53.1749 50.5C53.2749 50.4 53.2749 50.2 53.2749 50.1V48.2L53.1749 48.1C52.9749 47.9 52.8749 47.6 52.8749 47.3L52.6749 47.2C52.1749 47.3 52.2749 46.8 52.0749 45.8C52.0749 45.4 52.0749 45.3 52.2749 45.2L52.4749 45C51.5749 42.9 51.9749 41.6 52.9749 41.1C52.6749 40.4 52.6749 40.2 52.6749 40.2C52.6749 40.2 54.6749 40.5 55.2749 40.4C56.1749 40.2 57.4749 40.4 57.9749 41.6C58.7749 41.9 59.0749 42.4 59.1749 43C59.2749 43.9 58.7749 44.9 58.6749 45.2C58.7749 45.3 58.8749 45.4 58.7749 45.7C58.6749 46.6 58.6749 47.2 58.1749 47.1L57.7749 48C57.7749 48.1 57.7749 48.1 57.7749 48.2C57.7749 48.3 57.7749 48.6 57.7749 50.2C57.7749 50.4 57.8749 50.6 57.8749 50.7C57.9749 50.9 58.1749 51 58.2749 51.1C59.1749 51.4 59.8749 51.7 60.4749 51.9Z" fill="white"/>
<path d="M58.7011 45.3C58.7011 45.0918 58.597 44.7796 58.4929 44.5714V44.4673C58.0766 43.6347 57.244 43.3224 56.4113 43.3224C54.3297 43.2183 54.1215 43.6347 53.3929 43.0102C53.6011 43.3224 53.6011 43.8428 53.2889 44.4673C53.0807 44.8836 52.6644 45.0918 52.248 45.1959C51.3113 43.0102 51.7276 41.6571 52.7684 41.1367C52.4562 40.4081 52.4562 40.2 52.4562 40.2C52.4562 40.2 54.5378 40.5122 55.1623 40.4081C56.0991 40.2 57.4521 40.4081 57.9725 41.6571C58.8052 41.9693 59.1174 42.4898 59.2215 43.1142C59.3256 43.8428 58.8052 44.8836 58.7011 45.3Z" fill="#AAB2C5"/>
<path d="M57.8748 50.6999V51.0999H53.1748V50.5999C53.2748 50.4999 53.2748 50.2999 53.2748 50.1999V48.2999L53.1748 48.1999V48.0999C53.2748 48.2999 53.3748 48.3999 53.5748 48.5999L55.0748 49.5999C55.3748 49.8999 55.8748 49.8999 56.2748 49.5999L57.6748 48.3999L57.7748 48.2999C57.7748 48.3999 57.7748 48.6999 57.7748 50.2999C57.6748 50.3999 57.7748 50.4999 57.8748 50.6999Z" fill="url(#paint0_linear_6007_2070)"/>
<path d="M87.5748 44.1H68.3748C67.8748 44.1 67.5748 43.7 67.5748 43.3V40.8C67.5748 40.3 67.9748 40 68.3748 40H87.5748C88.0748 40 88.3748 40.4 88.3748 40.8V43.3C88.3748 43.8 88.0748 44.1 87.5748 44.1Z" fill="#D5DAE5"/>
<path d="M110.375 52.6H68.3748C67.8748 52.6 67.5748 52.2 67.5748 51.8V49.3C67.5748 48.8 67.9748 48.5 68.3748 48.5H110.375C110.875 48.5 111.175 48.9 111.175 49.3V51.8C111.175 52.3 110.775 52.6 110.375 52.6Z" fill="#D5DAE5"/>
<g filter="url(#filter1_d_6007_2070)">
<path d="M132.075 125.1H45.3749C43.4749 125.1 41.9749 123.6 41.9749 121.7V102.2C41.9749 100.3 43.4749 98.8 45.3749 98.8H131.975C133.875 98.8 135.375 100.3 135.375 102.2V121.7C135.475 123.6 133.875 125.1 132.075 125.1Z" fill="white"/>
</g>
<path d="M62.9749 111.9C62.9749 114.1 61.9749 116.1 60.4749 117.5C59.1749 118.7 57.3749 119.4 55.4749 119.4C53.5749 119.4 51.7749 118.7 50.4749 117.5C48.8749 116.1 47.9749 114.1 47.9749 111.9C47.9749 107.8 51.3749 104.4 55.4749 104.4C59.5749 104.4 62.9749 107.8 62.9749 111.9Z" fill="#D5DAE5"/>
<path d="M60.4749 117.5C59.1749 118.7 57.3749 119.4 55.4749 119.4C53.5749 119.4 51.7749 118.7 50.4749 117.5C51.0749 117.3 51.7749 117 52.6749 116.6C52.8749 116.5 53.0749 116.3 53.1749 116.1C53.2749 116 53.2749 115.8 53.2749 115.7V113.8L53.1749 113.7C52.9749 113.5 52.8749 113.2 52.8749 112.9L52.6749 112.8C52.1749 112.9 52.2749 112.4 52.0749 111.4C52.0749 111 52.0749 110.9 52.2749 110.8L52.4749 110.6C51.5749 108.5 51.9749 107.2 52.9749 106.7C52.6749 106 52.6749 105.8 52.6749 105.8C52.6749 105.8 54.6749 106.1 55.2749 106C56.1749 105.8 57.4749 106 57.9749 107.2C58.7749 107.5 59.0749 108 59.1749 108.6C59.2749 109.5 58.7749 110.5 58.6749 110.8C58.7749 110.9 58.8749 111 58.7749 111.3C58.6749 112.2 58.6749 112.8 58.1749 112.7L57.7749 113.5C57.7749 113.6 57.7749 113.6 57.7749 113.7C57.7749 113.8 57.7749 114.1 57.7749 115.7C57.7749 115.9 57.8749 116.1 57.8749 116.2C57.9749 116.4 58.1749 116.5 58.2749 116.6C59.1749 117.1 59.8749 117.3 60.4749 117.5Z" fill="white"/>
<path d="M58.7011 110.9C58.7011 110.692 58.597 110.38 58.4929 110.171V110.067C58.0766 109.235 57.244 108.923 56.4113 108.923C54.3297 108.818 54.1215 109.235 53.3929 108.61C53.6011 108.923 53.6011 109.443 53.2889 110.067C53.0807 110.484 52.6644 110.692 52.248 110.796C51.3113 108.61 51.7276 107.257 52.7684 106.737C52.4562 106.008 52.4562 105.8 52.4562 105.8C52.4562 105.8 54.5378 106.112 55.1623 106.008C56.0991 105.8 57.4521 106.008 57.9725 107.257C58.8052 107.569 59.1174 108.09 59.2215 108.714C59.3256 109.547 58.8052 110.484 58.7011 110.9Z" fill="#AAB2C5"/>
<path d="M57.8748 116.3V116.7H53.1748V116.2C53.2748 116.1 53.2748 115.9 53.2748 115.8V113.9L53.1748 113.8V113.7C53.2748 113.9 53.3748 114 53.5748 114.2L55.0748 115.2C55.3748 115.5 55.8748 115.5 56.2748 115.2L57.6748 114L57.7748 113.9C57.7748 114 57.7748 114.3 57.7748 115.9C57.6748 116 57.7748 116.2 57.8748 116.3Z" fill="url(#paint1_linear_6007_2070)"/>
<path d="M87.5748 109.8H68.3748C67.8748 109.8 67.5748 109.4 67.5748 109V106.5C67.5748 106 67.9748 105.7 68.3748 105.7H87.5748C88.0748 105.7 88.3748 106.1 88.3748 106.5V109C88.3748 109.4 88.0748 109.8 87.5748 109.8Z" fill="#D5DAE5"/>
<path d="M110.375 118.3H68.3748C67.8748 118.3 67.5748 117.9 67.5748 117.5V115C67.5748 114.5 67.9748 114.2 68.3748 114.2H110.375C110.875 114.2 111.175 114.6 111.175 115V117.5C111.175 117.9 110.775 118.3 110.375 118.3Z" fill="#D5DAE5"/>
<g filter="url(#filter2_d_6007_2070)">
<path d="M117.375 92.3H30.7749C28.8749 92.3 27.3749 90.8 27.3749 88.9V69.4C27.3749 67.5 28.8749 66 30.7749 66H117.375C119.275 66 120.775 67.5 120.775 69.4V88.9C120.875 90.8 119.275 92.3 117.375 92.3Z" fill="white"/>
</g>
<path d="M72.9749 76.9001H53.7749C53.2749 76.9001 52.9749 76.5 52.9749 76.1V73.6C52.9749 73.1 53.3749 72.8 53.7749 72.8H72.9749C73.4749 72.8 73.7749 73.2 73.7749 73.6V76.1C73.7749 76.6 73.4749 76.9001 72.9749 76.9001Z" fill="#D5DAE5"/>
<path d="M95.7749 85.5001H53.7749C53.2749 85.5001 52.9749 85.1001 52.9749 84.7001V82.2001C52.9749 81.7001 53.3749 81.4001 53.7749 81.4001H95.6749C96.1749 81.4001 96.4749 81.8001 96.4749 82.2001V84.7001C96.5749 85.1001 96.1749 85.5001 95.7749 85.5001Z" fill="#D5DAE5"/>
<path d="M48.4749 79.1001C48.4749 81.2001 47.5749 83.1001 46.1749 84.5001C46.0749 84.6001 46.0749 84.6001 45.9749 84.7001C44.6749 85.9001 42.8749 86.6001 40.9749 86.6001C39.0749 86.6001 37.3749 85.9001 36.0749 84.8001C36.0749 84.8001 36.0749 84.8001 35.9749 84.8001C34.3749 83.4001 33.3749 81.4001 33.3749 79.1001C33.3749 75.0001 36.7749 71.6001 40.8749 71.6001C45.0749 71.6001 48.4749 75.0001 48.4749 79.1001Z" fill="#D5DAE5"/>
<path d="M46.1456 84.6525C45.8414 83.9426 45.3343 83.3341 44.523 82.9285C44.1174 82.7257 43.8132 82.6243 43.3061 82.6243H43.0019C42.292 82.6243 42.1906 82.5228 42.1906 82.5228V81.3059C43.0019 80.6975 43.6103 79.8862 43.8132 78.9735C44.3202 78.8721 44.6244 78.4665 44.523 77.9594C44.523 77.7566 44.3202 77.5538 44.3202 77.3509C44.3202 77.2495 44.3202 77.1481 44.3202 77.0467C44.3202 76.9453 44.3202 76.9453 44.3202 76.8439C44.3202 76.7425 44.3202 76.7425 44.3202 76.6411C44.3202 76.2354 44.2188 75.9312 43.9146 75.5256C43.3061 74.4101 42.0892 73.7002 40.7709 73.7002C40.4666 73.7002 40.2638 73.7002 39.9596 73.8016C39.4525 73.903 39.0469 74.1058 38.6413 74.4101C38.5399 74.5115 38.5399 74.5115 38.4384 74.6129C38.4384 74.6129 38.4384 74.6129 38.337 74.7143C37.9314 75.1199 37.6272 75.627 37.4243 76.134C37.2215 76.6411 37.2215 77.2495 37.2215 77.858C37.2215 77.858 37.2215 77.858 37.2215 77.9594C37.2215 78.0608 37.2215 78.0608 37.2215 78.1622C37.2215 78.1622 37.2215 78.2636 37.1201 78.2636C37.3229 78.0608 37.2215 78.365 37.3229 78.5679C37.5258 79.0749 37.83 78.9735 38.2356 79.2777C38.2356 79.2777 38.2356 79.2777 38.1342 79.2777L37.7286 79.3791C35.4976 80.089 35.2947 82.4214 37.5258 82.9285C37.3229 83.0299 37.2215 83.1313 37.1201 83.1313C36.5117 83.6384 36.106 84.2468 35.9032 84.8553C37.2215 85.9708 38.9455 86.6806 40.8723 86.6806C42.7991 86.6806 44.6244 85.9708 45.9428 84.7539C46.0442 84.8553 46.1456 84.7539 46.1456 84.6525C46.247 84.6525 46.247 84.6525 46.1456 84.6525ZM39.8582 82.2186C39.7568 82.1172 39.6554 82.0158 39.6554 82.0158C39.554 81.9144 39.4525 81.9144 39.3511 81.813C39.3511 81.813 39.2497 81.813 39.2497 81.7116C38.9455 81.5087 38.6413 81.3059 38.5399 81.0017C38.5399 80.9003 38.6413 80.6975 38.8441 80.4947C38.9455 80.5961 39.0469 80.6975 39.1483 80.9003C39.2497 81.0017 39.3511 81.1031 39.4525 81.2045C39.554 81.2045 39.6554 81.3059 39.6554 81.4073C39.6554 81.4073 39.6554 81.4073 39.7568 81.4073C39.7568 81.4073 39.7568 81.4073 39.8582 81.4073V82.2186Z" fill="white"/>
<path d="M43.1249 82.5664C43.0249 82.9664 42.8249 83.2664 42.8249 83.2664L39.0249 82.6664L39.2249 81.6664C39.2249 81.6664 39.3249 81.6664 39.3249 81.7664C39.4249 81.8664 39.5249 81.8664 39.6249 81.9664C39.7249 81.9664 39.7249 82.0664 39.8249 82.1664V81.4664C39.8249 81.4664 39.8249 81.4664 39.7249 81.4664C40.3249 81.7664 41.1249 81.9664 42.2249 81.2664V82.4664C42.3249 82.4664 42.4249 82.5664 43.1249 82.5664Z" fill="url(#paint2_linear_6007_2070)"/>
<path d="M42.3346 76.9886C43.048 76.9886 43.7614 76.8866 44.3729 76.6828C44.3729 76.6828 44.3729 76.5809 44.4749 76.479C44.3729 76.1732 44.271 75.7656 44.0672 75.3579C43.4557 74.2368 42.2327 73.5234 40.9078 73.5234C40.6021 73.5234 40.3088 73.5452 39.8999 73.6472C39.3557 73.8135 39.103 73.9597 38.9741 74.0378C38.9741 74.0378 38.6762 74.2381 38.4619 74.4407C38.2475 74.6432 37.7485 75.3579 37.5446 75.8675C37.3408 76.479 37.1763 76.9987 37.2783 77.6102C37.3802 77.6102 37.5446 77.4981 37.6465 77.4981C38.4619 77.0905 39.0734 76.5809 39.3791 75.7656C40.1944 76.479 41.2136 76.8866 42.3346 76.9886Z" fill="#AAB2C5"/>
<path d="M40.2749 84.3C39.9749 84.7 39.4749 84.7001 38.9749 84.7001C39.4749 84.2001 39.1749 82.7001 37.5749 82.9001C35.2749 82.5001 35.5749 80.1001 37.7749 79.4001L38.1749 79.3C38.1749 79.3 38.1749 79.3001 38.2749 79.4001C38.4749 79.9001 38.6749 80.2 38.9749 80.6C38.0749 81.4 39.3749 81.6001 39.9749 82.2001C40.3749 82.4001 40.7749 83.7 40.2749 84.3Z" fill="#AAB2C5"/>
<defs>
<filter id="filter0_d_6007_2070" x="32.9749" y="29.2" width="111.404" height="44.3" filterUnits="userSpaceOnUse" color-interpolation-filters="sRGB">
<feFlood flood-opacity="0" result="BackgroundImageFix"/>
<feColorMatrix in="SourceAlpha" type="matrix" values="0 0 0 0 0 0 0 0 0 0 0 0 0 0 0 0 0 0 127 0" result="hardAlpha"/>
<feOffset dy="5"/>
<feGaussianBlur stdDeviation="4.5"/>
<feColorMatrix type="matrix" values="0 0 0 0 0.397708 0 0 0 0 0.47749 0 0 0 0 0.575 0 0 0 0.17 0"/>
<feBlend mode="normal" in2="BackgroundImageFix" result="effect1_dropShadow_6007_2070"/>
<feBlend mode="normal" in="SourceGraphic" in2="effect1_dropShadow_6007_2070" result="shape"/>
</filter>
<filter id="filter1_d_6007_2070" x="32.9749" y="94.8" width="111.404" height="44.3" filterUnits="userSpaceOnUse" color-interpolation-filters="sRGB">
<feFlood flood-opacity="0" result="BackgroundImageFix"/>
<feColorMatrix in="SourceAlpha" type="matrix" values="0 0 0 0 0 0 0 0 0 0 0 0 0 0 0 0 0 0 127 0" result="hardAlpha"/>
<feOffset dy="5"/>
<feGaussianBlur stdDeviation="4.5"/>
<feColorMatrix type="matrix" values="0 0 0 0 0.397708 0 0 0 0 0.47749 0 0 0 0 0.575 0 0 0 0.17 0"/>
<feBlend mode="normal" in2="BackgroundImageFix" result="effect1_dropShadow_6007_2070"/>
<feBlend mode="normal" in="SourceGraphic" in2="effect1_dropShadow_6007_2070" result="shape"/>
</filter>
<filter id="filter2_d_6007_2070" x="18.3749" y="62" width="111.404" height="44.3" filterUnits="userSpaceOnUse" color-interpolation-filters="sRGB">
<feFlood flood-opacity="0" result="BackgroundImageFix"/>
<feColorMatrix in="SourceAlpha" type="matrix" values="0 0 0 0 0 0 0 0 0 0 0 0 0 0 0 0 0 0 127 0" result="hardAlpha"/>
<feOffset dy="5"/>
<feGaussianBlur stdDeviation="4.5"/>
<feColorMatrix type="matrix" values="0 0 0 0 0.397708 0 0 0 0 0.47749 0 0 0 0 0.575 0 0 0 0.17 0"/>
<feBlend mode="normal" in2="BackgroundImageFix" result="effect1_dropShadow_6007_2070"/>
<feBlend mode="normal" in="SourceGraphic" in2="effect1_dropShadow_6007_2070" result="shape"/>
</filter>
<linearGradient id="paint0_linear_6007_2070" x1="55.5262" y1="51.1181" x2="55.5262" y2="49.4654" gradientUnits="userSpaceOnUse">
<stop stop-color="white"/>
<stop offset="1" stop-color="#E2E5EC"/>
</linearGradient>
<linearGradient id="paint1_linear_6007_2070" x1="55.5262" y1="116.718" x2="55.5262" y2="115.066" gradientUnits="userSpaceOnUse">
<stop stop-color="white"/>
<stop offset="1" stop-color="#E2E5EC"/>
</linearGradient>
<linearGradient id="paint2_linear_6007_2070" x1="41.0761" y1="83.2785" x2="41.0761" y2="82.1767" gradientUnits="userSpaceOnUse">
<stop stop-color="white"/>
<stop offset="1" stop-color="#E2E5EC"/>
</linearGradient>
</defs>
</svg>
