<svg width="1166" height="213" viewBox="0 0 1166 213" fill="none" xmlns="http://www.w3.org/2000/svg">
<g clip-path="url(#clip0_150_2)">
<path d="M44.0201 156.16C30.9801 149.14 21.0601 139.34 14.2701 126.76C7.47008 114.18 4.08008 99.71 4.08008 83.35C4.08008 66.99 7.47008 52.52 14.2701 39.94C21.0601 27.36 30.9701 17.56 44.0201 10.54C57.0601 3.52 72.6101 0 90.6701 0C108.73 0 124.28 3.51 137.32 10.53C150.36 17.55 160.27 27.35 167.07 39.93C173.86 52.51 177.25 66.98 177.25 83.34C177.25 99.7 173.85 114.17 167.07 126.75C160.27 139.33 150.36 149.13 137.32 156.15C124.28 163.17 108.73 166.68 90.6701 166.68C72.6101 166.68 57.0601 163.17 44.0201 156.15V156.16ZM131.65 126.53C141.37 115.96 146.24 101.57 146.24 83.36C146.24 65.15 141.18 50.57 131.08 40.07C120.97 29.58 106.73 24.33 88.3701 24.33C71.5501 24.33 58.4701 29.69 49.1301 40.42C39.7901 51.15 35.1201 65.46 35.1201 83.36C35.1201 101.26 39.9801 115.97 49.7101 126.53C59.4301 137.1 73.0901 142.39 90.6901 142.39C108.29 142.39 121.94 137.11 131.67 126.53H131.65Z" fill="white"/>
<path d="M236.52 159.17C223.24 154.16 211.75 146.94 202.03 137.52C199.71 135.21 198.56 132.58 198.56 129.65C198.56 126.26 200.1 123.02 203.19 119.93C205.65 117.46 208.36 116.23 211.29 116.23C214.38 116.23 218.08 118.01 222.4 121.55C229.65 128.19 238.26 133.32 248.21 136.94C258.17 140.57 268.47 142.38 279.11 142.38C289.75 142.38 297.24 140.64 302.96 137.17C308.68 133.7 311.53 128.8 311.53 122.47C311.53 116.14 308.44 110.47 302.27 106.38C296.1 102.29 285.61 98.62 270.79 95.38C247.49 90.29 230.54 83.57 219.97 75.24C209.4 66.91 204.11 56.18 204.11 43.06C204.11 34.73 206.89 27.28 212.44 20.72C217.99 14.16 225.75 9.07 235.71 5.44C245.67 1.82 257.04 0 269.86 0C284.21 0 296.98 2.35 308.17 7.06C319.36 11.77 327.88 18.37 333.75 26.85C335.75 30.09 336.76 32.87 336.76 35.18C336.6 39.04 334.68 42.36 330.97 45.13C328.96 46.52 326.65 47.21 324.02 47.21C319.23 47.21 315.3 45.36 312.21 41.65C307.73 36.25 301.75 32.01 294.27 28.92C286.78 25.83 278.64 24.29 269.85 24.29C258.89 24.29 250.36 25.95 244.27 29.27C238.17 32.59 235.13 37.18 235.13 43.04C235.13 48.9 238.1 53.73 244.04 57.51C249.98 61.29 260.28 64.88 274.94 68.28C291.15 72.14 304.18 76.5 314.07 81.36C323.94 86.22 331.16 91.97 335.71 98.61C340.26 105.25 342.54 113.19 342.54 122.46C342.54 131.73 339.91 139.01 334.67 145.73C329.42 152.44 322.01 157.62 312.45 161.24C302.88 164.86 291.76 166.68 279.11 166.68C263.98 166.68 249.78 164.17 236.51 159.16H236.52V159.17Z" fill="white"/>
<path d="M403.78 156.16C390.73 149.14 380.82 139.34 374.03 126.76C367.24 114.18 363.85 99.71 363.85 83.35C363.85 66.99 367.24 52.52 374.03 39.94C380.82 27.36 390.73 17.56 403.78 10.54C416.82 3.52 432.37 0 450.43 0C468.49 0 484.03 3.51 497.07 10.53C510.11 17.55 520.03 27.35 526.82 39.93C533.61 52.51 537 66.98 537 83.34C537 99.7 533.61 114.17 526.82 126.75C520.03 139.33 510.11 149.13 497.07 156.15C484.03 163.17 468.48 166.68 450.43 166.68C432.38 166.68 416.82 163.17 403.78 156.15V156.16ZM491.4 126.53C501.13 115.96 505.99 101.57 505.99 83.36C505.99 65.15 500.93 50.57 490.83 40.07C480.72 29.58 466.48 24.33 448.12 24.33C431.3 24.33 418.21 29.69 408.88 40.42C399.54 51.15 394.87 65.46 394.87 83.36C394.87 101.26 399.73 115.97 409.46 126.53C419.18 137.1 432.84 142.39 450.44 142.39C468.04 142.39 481.69 137.11 491.41 126.53H491.4Z" fill="white"/>
<path d="M557.84 162.99C555.06 160.52 553.67 157.13 553.67 152.8V65.52C553.67 45 560.08 28.94 572.89 17.37C585.7 5.8 603.45 0 626.14 0C648.83 0 666.57 5.79 679.38 17.36C692.19 28.94 698.6 44.99 698.6 65.51V152.79C698.6 157.11 697.21 160.51 694.43 162.98C691.65 165.45 687.95 166.68 683.32 166.68C678.69 166.68 674.95 165.41 672.09 162.86C669.23 160.31 667.81 156.96 667.81 152.79V64.82C667.81 51.7 664.26 41.67 657.16 34.72C650.06 27.78 639.72 24.3 626.14 24.3C612.56 24.3 602.21 27.77 595.11 34.72C588.01 41.67 584.46 51.7 584.46 64.82V152.79C584.46 156.96 583.03 160.31 580.18 162.86C577.32 165.41 573.58 166.68 568.95 166.68C564.32 166.68 560.62 165.44 557.84 162.98V162.99Z" fill="white"/>
<path d="M796.52 162.99C793.74 160.52 792.35 157.13 792.35 152.8V13.8998C792.35 9.57976 793.74 6.17977 796.52 3.70977C799.3 1.23977 803 0.00976562 807.63 0.00976562C812.26 0.00976562 815.81 1.24977 818.74 3.70977C821.67 6.17977 823.14 9.57976 823.14 13.8998V152.8C823.14 157.12 821.67 160.52 818.74 162.99C815.8 165.46 812.1 166.69 807.63 166.69C803.16 166.69 799.3 165.45 796.52 162.99Z" fill="white"/>
<path d="M891.67 159.17C878.39 154.16 866.9 146.94 857.17 137.52C854.86 135.21 853.7 132.58 853.7 129.65C853.7 126.26 855.24 123.02 858.33 119.93C860.8 117.46 863.5 116.23 866.44 116.23C869.38 116.23 873.23 118.01 877.55 121.55C884.8 128.19 893.41 133.32 903.36 136.94C913.32 140.57 923.62 142.38 934.27 142.38C944.92 142.38 952.4 140.64 958.12 137.17C963.83 133.7 966.68 128.8 966.68 122.47C966.68 116.14 963.59 110.47 957.42 106.38C951.25 102.29 940.75 98.62 925.94 95.38C902.63 90.29 885.69 83.57 875.12 75.24C864.55 66.91 859.26 56.18 859.26 43.06C859.26 34.73 862.04 27.28 867.59 20.72C873.15 14.16 880.9 9.07 890.86 5.44C900.82 1.82 912.2 0 925.01 0C939.36 0 952.13 2.35 963.32 7.06C974.51 11.77 983.03 18.37 988.9 26.85C990.91 30.09 991.91 32.87 991.91 35.18C991.75 39.04 989.83 42.36 986.13 45.13C984.12 46.52 981.81 47.21 979.18 47.21C974.39 47.21 970.46 45.36 967.37 41.65C962.89 36.25 956.91 32.01 949.43 28.92C941.94 25.83 933.81 24.29 925.01 24.29C914.05 24.29 905.52 25.95 899.43 29.27C893.33 32.59 890.29 37.18 890.29 43.04C890.29 48.9 893.26 53.73 899.2 57.51C905.14 61.29 915.44 64.88 930.11 68.28C946.31 72.14 959.35 76.5 969.23 81.36C979.11 86.22 986.32 91.97 990.87 98.61C995.42 105.25 997.7 113.19 997.7 122.46C997.7 131.73 995.08 139.01 989.83 145.73C984.58 152.44 977.18 157.62 967.61 161.24C958.04 164.86 946.93 166.68 934.28 166.68C919.15 166.68 904.95 164.17 891.68 159.16H891.67V159.17Z" fill="white"/>
<path d="M1025.48 162.99C1022.7 160.52 1021.31 157.13 1021.31 152.8V13.9C1021.31 9.58 1022.7 6.18 1025.48 3.71C1028.26 1.24 1031.96 0 1036.59 0C1041.22 0 1044.96 1.27 1047.82 3.82C1050.67 6.37 1052.1 9.72 1052.1 13.89V69.22H1135.21V13.9C1135.21 9.73 1136.64 6.38 1139.49 3.83C1142.34 1.28 1146.09 0.01 1150.72 0.01C1155.35 0.01 1159.05 1.25 1161.83 3.71C1164.61 6.18 1166 9.58 1166 13.9V152.8C1166 157.12 1164.61 160.52 1161.83 162.99C1159.05 165.46 1155.35 166.69 1150.72 166.69C1146.09 166.69 1142.35 165.42 1139.49 162.87C1136.63 160.32 1135.21 156.97 1135.21 152.8V93.07H1052.1V152.8C1052.1 156.97 1050.67 160.32 1047.82 162.87C1044.96 165.42 1041.22 166.69 1036.59 166.69C1031.96 166.69 1028.26 165.45 1025.48 162.99Z" fill="white"/>
<path d="M170.31 212.54C117.63 204.2 64.1799 204.2 11.4999 212.54C6.28994 213.36 1.34994 209.37 0.509942 203.55C0.379942 202.62 0.249942 201.7 0.119942 200.77C-0.710058 194.95 3.03994 189.39 8.47994 188.53C63.1599 179.87 118.65 179.87 173.33 188.53C178.77 189.39 182.53 194.95 181.69 200.77C181.56 201.7 181.43 202.62 181.3 203.55C180.46 209.37 175.52 213.36 170.31 212.54Z" fill="#EAA200"/>
</g>
<defs>
<clipPath id="clip0_150_2">
<rect width="1166" height="212.65" fill="white"/>
</clipPath>
</defs>
</svg>
