<svg width="554" height="152" viewBox="0 0 554 152" fill="none" xmlns="http://www.w3.org/2000/svg">
<g clip-path="url(#clip0_166_974)">
<path d="M20.9151 125.17C14.7194 121.835 10.0062 117.181 6.78004 111.206C3.54916 105.231 1.93848 98.3581 1.93848 90.5878C1.93848 82.8175 3.54916 75.9448 6.78004 69.9699C10.0062 63.9949 14.7147 59.3403 20.9151 56.0061C27.1108 52.6719 34.499 51 43.0799 51C51.6607 51 59.0489 52.6671 65.2446 56.0013C71.4403 59.3355 76.1488 63.9901 79.3797 69.9651C82.6058 75.9401 84.2165 82.8127 84.2165 90.5831C84.2165 98.3534 82.6011 105.226 79.3797 111.201C76.1488 117.176 71.4403 121.831 65.2446 125.165C59.0489 128.499 51.6607 130.166 43.0799 130.166C34.499 130.166 27.1108 128.499 20.9151 125.165V125.17ZM62.5506 111.097C67.1689 106.076 69.4828 99.2416 69.4828 90.5926C69.4828 81.9436 67.0786 75.0187 62.2798 70.0316C57.4763 65.0493 50.7104 62.5557 41.9871 62.5557C33.9954 62.5557 27.7807 65.1015 23.343 70.1978C18.9053 75.2941 16.6865 82.0908 16.6865 90.5926C16.6865 99.0943 18.9956 106.081 23.6186 111.097C28.2368 116.117 34.7271 118.629 43.0894 118.629C51.4516 118.629 57.9371 116.122 62.5601 111.097H62.5506Z" fill="#679B00"/>
<path d="M112.377 126.599C106.067 124.22 100.608 120.79 95.99 116.316C94.8877 115.219 94.3413 113.97 94.3413 112.578C94.3413 110.968 95.073 109.429 96.5412 107.962C97.71 106.789 98.9976 106.204 100.39 106.204C101.858 106.204 103.616 107.05 105.668 108.731C109.113 111.885 113.204 114.322 117.931 116.041C122.664 117.765 127.558 118.625 132.613 118.625C137.668 118.625 141.227 117.798 143.945 116.15C146.662 114.502 148.017 112.175 148.017 109.168C148.017 106.162 146.548 103.469 143.617 101.526C140.685 99.5835 135.701 97.8404 128.66 96.3016C117.589 93.884 109.536 90.6923 104.514 86.7359C99.4917 82.7795 96.9783 77.6832 96.9783 71.4517C96.9783 67.4953 98.2991 63.9569 100.936 60.8411C103.573 57.7254 107.26 55.3079 111.992 53.5838C116.725 51.8644 122.127 51 128.218 51C135.036 51 141.103 52.1162 146.42 54.3532C151.737 56.5903 155.785 59.725 158.574 63.7526C159.524 65.2915 160.004 66.6119 160.004 67.7091C159.928 69.5424 159.016 71.1193 157.253 72.4349C156.298 73.0951 155.201 73.4228 153.951 73.4228C151.675 73.4228 149.808 72.5441 148.34 70.782C146.211 68.2173 143.37 66.2034 139.816 64.7358C136.257 63.2682 132.39 62.5368 128.213 62.5368C123.006 62.5368 118.953 63.3252 116.059 64.902C113.161 66.4789 111.717 68.659 111.717 71.4422C111.717 74.2255 113.128 76.5195 115.95 78.3149C118.772 80.1102 123.666 81.8153 130.632 83.4302C138.333 85.2635 144.524 87.3344 149.223 89.6427C153.913 91.951 157.343 94.682 159.505 97.8357C161.667 100.989 162.75 104.761 162.75 109.163C162.75 113.566 161.501 117.024 159.011 120.216C156.517 123.403 152.996 125.863 148.454 127.582C143.907 129.302 138.623 130.166 132.613 130.166C125.424 130.166 118.677 128.974 112.372 126.594H112.377V126.599Z" fill="#679B00"/>
<path d="M191.847 125.17C185.647 121.835 180.938 117.181 177.712 111.206C174.486 105.231 172.875 98.3581 172.875 90.5878C172.875 82.8175 174.486 75.9448 177.712 69.9699C180.938 63.9949 185.647 59.3403 191.847 56.0061C198.043 52.6719 205.431 51 214.012 51C222.593 51 229.976 52.6671 236.172 56.0013C242.368 59.3355 247.081 63.9901 250.307 69.9651C253.533 75.9401 255.144 82.8127 255.144 90.5831C255.144 98.3534 253.533 105.226 250.307 111.201C247.081 117.176 242.368 121.831 236.172 125.165C229.976 128.499 222.588 130.166 214.012 130.166C205.436 130.166 198.043 128.499 191.847 125.165V125.17ZM233.478 111.097C238.101 106.076 240.41 99.2416 240.41 90.5926C240.41 81.9436 238.006 75.0187 233.207 70.0316C228.404 65.0493 221.638 62.5557 212.915 62.5557C204.923 62.5557 198.703 65.1015 194.271 70.1978C189.833 75.2941 187.614 82.0908 187.614 90.5926C187.614 99.0943 189.923 106.081 194.546 111.097C199.164 116.117 205.655 118.629 214.017 118.629C222.379 118.629 228.865 116.122 233.483 111.097H233.478Z" fill="#679B00"/>
<path d="M265.046 128.414C263.725 127.24 263.064 125.63 263.064 123.574V82.1193C263.064 72.3731 266.11 64.7453 272.196 59.25C278.283 53.7548 286.716 51 297.497 51C308.278 51 316.706 53.75 322.793 59.2453C328.879 64.7453 331.925 72.3684 331.925 82.1146V123.569C331.925 125.621 331.264 127.236 329.944 128.409C328.623 129.582 326.865 130.166 324.665 130.166C322.465 130.166 320.688 129.563 319.329 128.352C317.97 127.141 317.296 125.55 317.296 123.569V81.7868C317.296 75.5554 315.609 70.7915 312.236 67.4906C308.862 64.1944 303.949 62.5415 297.497 62.5415C291.045 62.5415 286.127 64.1896 282.754 67.4906C279.38 70.7915 277.694 75.5554 277.694 81.7868V123.569C277.694 125.55 277.014 127.141 275.66 128.352C274.301 129.563 272.524 130.166 270.324 130.166C268.125 130.166 266.367 129.577 265.046 128.409V128.414Z" fill="#679B00"/>
<path d="M378.45 128.414C377.129 127.241 376.468 125.63 376.468 123.574V57.6021C376.468 55.5502 377.129 53.9354 378.45 52.7622C379.77 51.5891 381.528 51.0049 383.728 51.0049C385.928 51.0049 387.615 51.5938 389.007 52.7622C390.399 53.9354 391.097 55.5502 391.097 57.6021V123.574C391.097 125.626 390.399 127.241 389.007 128.414C387.61 129.587 385.852 130.171 383.728 130.171C381.604 130.171 379.77 129.582 378.45 128.414Z" fill="#679B00"/>
<path d="M423.658 126.599C417.348 124.22 411.889 120.79 407.266 116.316C406.168 115.219 405.617 113.97 405.617 112.578C405.617 110.968 406.349 109.429 407.817 107.962C408.991 106.789 410.273 106.204 411.67 106.204C413.067 106.204 414.896 107.05 416.949 108.731C420.394 111.885 424.485 114.322 429.212 116.041C433.944 117.765 438.838 118.625 443.898 118.625C448.958 118.625 452.512 117.798 455.23 116.15C457.943 114.502 459.297 112.175 459.297 109.168C459.297 106.162 457.829 103.469 454.898 101.526C451.966 99.5835 446.977 97.8404 439.94 96.3016C428.865 93.884 420.817 90.6923 415.794 86.7359C410.772 82.7795 408.259 77.6832 408.259 71.4517C408.259 67.4953 409.58 63.9569 412.217 60.8411C414.858 57.7254 418.541 55.3079 423.273 53.5838C428.005 51.8644 433.412 51 439.499 51C446.317 51 452.384 52.1162 457.701 54.3532C463.017 56.5903 467.066 59.725 469.855 63.7526C470.81 65.2915 471.285 66.6119 471.285 67.7091C471.209 69.5424 470.296 71.1193 468.538 72.4349C467.583 73.0951 466.486 73.4228 465.236 73.4228C462.96 73.4228 461.093 72.5441 459.625 70.782C457.496 68.2173 454.655 66.2034 451.101 64.7358C447.543 63.2682 443.68 62.5368 439.499 62.5368C434.291 62.5368 430.238 63.3252 427.345 64.902C424.447 66.4789 423.002 68.659 423.002 71.4422C423.002 74.2255 424.413 76.5195 427.236 78.3149C430.058 80.1102 434.952 81.8153 441.922 83.4302C449.619 85.2635 455.815 87.3344 460.509 89.6427C465.203 91.951 468.629 94.682 470.791 97.8357C472.952 100.989 474.036 104.761 474.036 109.163C474.036 113.566 472.791 117.024 470.296 120.216C467.802 123.403 464.286 125.863 459.739 127.582C455.192 129.302 449.913 130.166 443.903 130.166C436.714 130.166 429.968 128.974 423.663 126.594H423.658V126.599Z" fill="#679B00"/>
<path d="M487.235 128.414C485.914 127.24 485.253 125.63 485.253 123.574V57.6019C485.253 55.5501 485.914 53.9352 487.235 52.7621C488.556 51.5889 490.314 51 492.513 51C494.713 51 496.49 51.6032 497.849 52.8143C499.203 54.0255 499.883 55.6166 499.883 57.5972V83.8767H539.371V57.6019C539.371 55.6213 540.05 54.0302 541.404 52.8191C542.758 51.6079 544.54 51.0047 546.74 51.0047C548.94 51.0047 550.698 51.5937 552.018 52.7621C553.339 53.9352 554 55.5501 554 57.6019V123.574C554 125.626 553.339 127.24 552.018 128.414C550.698 129.587 548.94 130.171 546.74 130.171C544.54 130.171 542.763 129.568 541.404 128.357C540.045 127.145 539.371 125.554 539.371 123.574V95.2044H499.883V123.574C499.883 125.554 499.203 127.145 497.849 128.357C496.49 129.568 494.713 130.171 492.513 130.171C490.314 130.171 488.556 129.582 487.235 128.414Z" fill="#679B00"/>
<path d="M80.9192 151.948C55.8895 147.986 30.4938 147.986 5.46407 151.948C2.98865 152.337 0.641517 150.442 0.242409 147.678C0.180643 147.236 0.118876 146.799 0.0571092 146.357C-0.337248 143.593 1.44448 140.952 4.02918 140.544C30.0092 136.431 56.3741 136.431 82.3541 140.544C84.9388 140.952 86.7253 143.593 86.3262 146.357C86.2644 146.799 86.2027 147.236 86.1409 147.678C85.7418 150.442 83.3947 152.337 80.9192 151.948Z" fill="#EAA200"/>
</g>
<path d="M71.921 57.6693C68.9209 46.0656 65.308 34.6692 61.0971 23.5642C59.8318 20.2263 58.4974 16.8785 56.5451 13.9949C51.4495 6.47469 42.7064 3.08246 34.3389 2.97383C25.9764 2.8652 17.8115 5.60565 9.79492 8.31647C13.5561 8.56336 17.2777 9.61016 20.7078 11.3878C21.9878 12.0494 23.2679 12.8543 24.123 14.1233C26.0851 17.0513 25.1263 21.2435 23.866 24.6259C21.7654 30.2499 19.0422 35.5679 17.1986 41.3006C15.3502 47.0333 14.4161 53.4129 16.0273 59.2395" fill="#BC0000"/>
<path d="M31.2992 50.7463C30.6023 47.9268 30.034 45.0531 29.8956 42.1299C29.6287 36.654 30.8643 31.2323 31.1707 25.7613C31.4771 20.2853 30.6369 14.2662 27.0883 10.5382C23.3617 6.61765 18.0289 6.42014 12.8097 7.29906C11.8064 7.63483 10.8031 7.97059 9.80469 8.3113C13.5659 8.55819 17.2875 9.60499 20.7175 11.3826C21.9976 12.0442 23.2777 12.8491 24.1327 14.1181C26.0949 17.0462 25.136 21.2383 23.8757 24.6207C21.7752 30.2448 19.0519 35.5627 17.2084 41.2954C15.36 47.0282 14.4258 53.4077 16.0371 59.2343L33.8297 58.7306C32.7918 56.163 31.9813 53.4522 31.3091 50.7364L31.2992 50.7463Z" fill="#A00000"/>
<path d="M5.19937 5.10254C4.92754 3.91748 4.51238 2.79168 3.96377 1.76956C5.12029 1.28566 6.39049 1.31529 7.42345 1.86338C7.67057 1.2906 7.79908 0.663506 7.79908 0.0561635C9.41524 -0.210475 11.0265 0.485747 11.9705 1.85844C12.7019 1.45848 13.4977 1.2511 14.2687 1.26591C14.3922 1.26591 14.5257 1.28072 14.6097 1.37948C14.8074 1.60662 14.5603 2.05101 14.6492 2.36209C14.6888 2.50035 14.7876 2.59417 14.8815 2.68304C16.2061 3.99649 16.8832 6.10984 16.6707 8.24789C16.4582 10.3859 15.356 12.5042 13.7695 13.8275C13.8189 13.2597 13.7448 12.6919 13.557 12.1931C12.7662 13.8868 11.0265 14.8842 9.43501 14.9089C7.84356 14.9385 6.39543 14.1436 5.20431 13.0869C5.81223 12.9684 6.40532 12.6326 6.87485 12.1339C5.73315 12.0302 4.79409 11.2007 4.19112 10.1489C3.58815 9.09718 3.28172 7.84299 3 6.59374C3.89458 6.39623 4.73478 5.61113 5.10052 4.62358" fill="#EDEDED"/>
<path d="M79.7601 58.2415C79.6662 58.9772 79.2807 59.6932 78.6629 60.2857C77.9858 59.1303 77.0665 58.044 75.9594 57.0713C74.7683 55.8862 73.3399 54.8493 71.7188 54.0395C71.7089 54.7061 71.5705 55.3727 71.3333 56.0146C71.269 56.0788 71.2048 56.143 71.1455 56.2121C61.8785 49.5511 46.389 47.8821 34.626 52.02C35.1252 50.5238 35.3279 48.9092 35.5157 47.3291C34.8534 48.0253 34.1367 48.6623 33.3806 49.2548C33.3806 49.24 33.3806 49.2252 33.3806 49.2104C31.537 50.7263 29.3772 51.783 27.0889 52.489C27.2668 51.6496 27.6622 50.8497 28.2454 50.2226C24.7758 50.8645 19.008 52.7754 16.6456 53.6988C12.0294 55.5505 10.0129 57.4663 7.99636 60.424C8.98484 60.2709 9.97332 60.1179 10.9618 59.9648C10.3094 60.4191 9.70643 60.9425 9.16771 61.5251C8.57462 62.172 8.05072 62.9126 7.85303 63.7619C7.68499 64.4878 7.76406 65.2531 7.9667 65.9691C8.33244 67.248 9.13311 68.433 10.2847 69.1046C10.171 68.3985 10.1512 67.6578 10.4083 66.9863C10.4577 66.853 10.5269 66.7295 10.601 66.6061C10.6999 66.532 10.7987 66.4629 10.8975 66.3937C12.6422 67.7121 15.0788 68.6454 17.5846 69.0552C21.8796 69.7564 26.3623 69.2379 30.7117 68.7194C33.3657 68.4034 36.0198 68.0874 38.6739 67.7664C37.6162 69.0601 36.7958 70.5415 36.2719 72.1265C41.491 70.0822 47.0018 68.7935 52.5867 68.3145H52.562C54.2029 68.1565 55.8092 68.0232 56.8866 67.9442C61.4089 68.0973 65.9214 68.8577 69.7468 70.5217C68.7435 70.9365 67.6561 71.1488 66.5737 71.1241C66.6479 71.1636 66.727 71.1982 66.806 71.2377C66.6232 71.2574 66.4452 71.2821 66.2624 71.2969C67.063 72.3832 68.4667 72.8177 69.7962 73.0548C73.6859 73.746 77.9907 73.1436 80.9809 70.5661L80.9512 70.5563C81.4257 70.1958 81.8408 69.8008 82.1571 69.3515C83.1605 67.9244 83.3483 66.7394 83.3829 65.7864C83.4965 63.0163 81.8655 61.2091 79.765 58.2415H79.7601Z" fill="#EDEDED"/>
<defs>
<clipPath id="clip0_166_974">
<rect width="554" height="101" fill="white" transform="translate(0 51)"/>
</clipPath>
</defs>
</svg>
