<svg width="110" height="110" viewBox="0 0 110 110" fill="none" xmlns="http://www.w3.org/2000/svg">
<path d="M109.779 54.8894C109.779 68.3084 104.997 80.514 97.0022 90.0786C86.938 102.141 71.8059 109.779 54.818 109.779C38.5439 109.779 23.9829 102.712 13.9186 91.5061C5.28195 81.7988 0 68.9508 0 54.8894C0 24.5539 24.5539 0 54.8894 0C85.2249 0 109.779 24.5539 109.779 54.8894Z" fill="#F1F3FA"/>
<path d="M97.0736 90.0786C87.0093 102.141 71.8773 109.779 54.8894 109.779C38.6153 109.779 24.0542 102.712 13.99 91.5062C15.7031 90.15 17.8444 88.9366 20.4854 87.8659L22.4839 87.0808C26.2669 85.5819 31.192 83.726 37.8301 80.9423C39.3291 80.2999 40.5425 79.1579 41.1849 77.6589C41.5418 76.8738 41.7559 75.9459 41.7559 75.018V62.6696C41.5418 62.3841 41.3276 62.17 41.1849 61.8845C40.1142 60.3142 39.4004 58.4583 39.1863 56.4598L38.1156 55.9601C34.9036 56.7453 35.1178 53.3192 34.3326 46.7524C33.9757 44.0401 34.404 43.469 35.6174 43.0408L36.6167 41.6846C30.4782 27.766 33.5475 19.0579 39.6146 15.9886C37.616 11.5632 37.4732 9.99292 37.4732 9.99292C37.4732 9.99292 50.3926 12.1342 54.8894 11.2777C60.5282 10.1357 69.2363 11.4919 72.4483 18.9865C77.8016 21.1278 79.9429 24.4826 80.3712 28.1942C81.1564 34.0472 77.8016 40.4712 77.1592 42.9694C77.2306 43.1122 77.302 43.1835 77.302 43.2549C78.1585 43.6832 78.444 44.3969 78.1585 46.7524C77.3733 52.9623 77.5875 56.8167 74.3755 55.9601L71.5204 60.9566C71.3776 61.5276 71.3776 61.7417 71.3062 62.17C71.1635 63.0979 71.2349 64.9537 71.2349 75.1607C71.2349 76.3741 71.5918 77.5162 72.2342 78.5868C72.9479 79.6575 73.9472 80.5854 75.232 81.0851C75.232 81.0851 75.3034 81.0851 75.3748 81.1564C82.7267 84.2257 88.0086 86.2243 91.863 87.7232C93.8616 88.3656 95.5746 89.2221 97.0736 90.0786Z" fill="white"/>
<path d="M77.3019 42.898C77.5874 41.3277 76.8736 39.4005 76.3026 38.0443C76.2312 37.8302 76.0885 37.6161 76.0171 37.3306C73.5189 32.3341 68.0228 30.3355 62.7409 30.05C49.2505 29.3363 48.0371 31.9059 43.8258 28.0515C45.1106 30.05 45.2533 33.1193 43.2548 36.9737C41.8272 39.686 39.1149 40.8994 36.7594 41.6846C30.6209 27.766 33.6902 19.0579 39.7573 15.9886C37.7587 11.5632 37.6159 9.99292 37.6159 9.99292C37.6159 9.99292 50.5353 12.1342 54.9607 11.2777C60.5995 10.1357 69.3076 11.4919 72.5196 18.9865C77.8729 21.1278 79.9429 24.4826 80.4425 28.1942C81.2277 33.9758 77.9443 40.3284 77.3019 42.898Z" fill="url(#paint0_linear_8016_12)"/>
<path d="M72.3768 78.444V80.8709H41.1848V77.7303C41.5417 76.9451 41.7558 76.0172 41.7558 75.0893V62.6696C41.5417 62.3841 41.3276 62.1699 41.1848 61.8844V61.1707C41.8272 62.3127 42.6837 63.3834 43.7544 64.2399L53.5331 71.0208C55.8172 72.948 59.1006 73.0193 61.4561 71.1635L70.5924 62.9551C70.8779 62.6696 71.2348 62.3841 71.5203 62.0986C71.3776 63.0265 71.4489 64.8823 71.4489 75.0893C71.3776 76.3027 71.7345 77.5161 72.3768 78.444Z" fill="url(#paint1_linear_8016_12)"/>
<defs>
<linearGradient id="paint0_linear_8016_12" x1="56.99" y1="11.136" x2="56.99" y2="29.6053" gradientUnits="userSpaceOnUse">
<stop stop-color="#B0BACC"/>
<stop offset="1" stop-color="#969EAE"/>
</linearGradient>
<linearGradient id="paint1_linear_8016_12" x1="56.7808" y1="80.4152" x2="56.7808" y2="61.6263" gradientUnits="userSpaceOnUse">
<stop stop-color="#FDFEFF"/>
<stop offset="0.9964" stop-color="#ECF0F5"/>
</linearGradient>
</defs>
</svg>
