<svg width="180" height="150" viewBox="0 0 180 150" fill="none" xmlns="http://www.w3.org/2000/svg">
<g clip-path="url(#clip0_173_2661)">
<path d="M102.385 91.5344H90.5855C89.251 91.0553 88.5816 90.0659 88.3219 88.7049C88.1226 87.655 87.7935 86.6275 87.5942 85.5776C87.5002 85.0829 87.2651 84.8814 86.8105 84.7628C85.7179 84.474 84.6186 84.1964 83.5573 83.8136C82.1199 83.2943 80.7138 82.6832 79.2719 82.1011C79.3861 81.9131 79.4062 81.8549 79.4465 81.8146C83.4252 77.83 87.3994 73.8409 91.405 69.8831C91.6468 69.6436 92.1573 69.5138 92.5021 69.572C94.909 69.9637 97.3047 69.8854 99.7094 69.563C106.494 68.6497 111.975 65.4844 115.987 59.9439C119.849 54.6095 121.287 48.6079 120.259 42.1004C118.983 34.0238 114.677 27.9864 107.398 24.295C100.059 20.5723 92.5603 20.6686 85.2656 24.4651C79.0681 27.6909 75.0648 32.8037 73.2042 39.5709C72.2862 42.9063 72.2392 46.2731 72.7318 49.6645C72.8191 50.2667 72.6288 50.6562 72.2146 51.0681C68.4598 54.8132 64.7207 58.574 60.9905 62.3437C60.7711 62.5653 60.6771 62.9145 60.5248 63.2033C59.9068 62.3235 59.571 61.7214 59.3471 61.0811C58.709 59.2589 58.091 57.4278 57.5246 55.581C57.3566 55.0348 57.1417 54.7438 56.5484 54.6319C55.3818 54.4102 54.231 54.0991 53.0779 53.8058C51.5308 53.4141 50.7404 52.456 50.7292 50.8711C50.7091 47.4752 50.7091 44.0771 50.7292 40.6812C50.7382 39.0896 51.5241 38.1248 53.0623 37.733C54.2444 37.4331 55.4244 37.1219 56.62 36.8846C57.1372 36.7816 57.379 36.5578 57.4999 36.0564C58.4425 32.1523 59.9807 28.4878 62.063 25.0583C62.3406 24.6017 62.2958 24.2771 62.0272 23.8518C61.4047 22.8735 60.8181 21.8684 60.2405 20.8633C59.421 19.4373 59.5396 18.2934 60.686 17.1316C63.0504 14.7364 65.4327 12.3568 67.8284 9.98842C68.9994 8.82885 70.1278 8.69454 71.5518 9.50489C72.5862 10.0936 73.5804 10.754 74.6349 11.3069C74.9305 11.4614 75.4521 11.4882 75.7275 11.3271C79.2159 9.28104 82.8968 7.72748 86.8217 6.73356C87.124 6.65745 87.4599 6.24556 87.5561 5.92097C87.9032 4.75468 88.1472 3.55482 88.4428 2.37287C88.8413 0.783494 89.8041 0.0134322 91.4542 0.00671655C94.7903 -0.00671476 98.1286 -0.00671476 101.465 0.00671655C103.184 0.0134322 104.118 0.756632 104.532 2.41092C104.828 3.59288 105.074 4.79274 105.426 5.95679C105.522 6.27466 105.878 6.66641 106.187 6.74476C110.109 7.74091 113.79 9.29671 117.276 11.3472C117.534 11.4972 118.022 11.4838 118.295 11.3383C119.345 10.7809 120.344 10.1272 121.376 9.53175C122.838 8.68782 123.969 8.82213 125.173 10.0153C127.544 12.3635 129.904 14.723 132.251 17.0936C133.44 18.2957 133.567 19.4217 132.719 20.8924C132.123 21.9221 131.476 22.925 130.91 23.9704C130.771 24.2256 130.731 24.6823 130.869 24.9128C132.965 28.443 134.537 32.1814 135.538 36.166C135.605 36.4302 135.947 36.7369 136.223 36.8175C137.306 37.1353 138.406 37.4129 139.514 37.6278C140.851 37.8853 141.787 38.5747 142.252 39.8686V51.668C141.789 52.9619 140.851 53.6491 139.516 53.9066C138.41 54.1215 137.311 54.399 136.23 54.7169C135.954 54.7975 135.607 55.0997 135.54 55.3616C134.539 59.3418 132.97 63.0779 130.878 66.6036C130.74 66.8387 130.762 67.2931 130.898 67.5461C131.478 68.6161 132.146 69.6413 132.75 70.7002C133.565 72.1284 133.433 73.2477 132.273 74.4207C129.909 76.8114 127.531 79.191 125.138 81.5549C123.971 82.7078 122.836 82.8376 121.414 82.025C120.382 81.434 119.388 80.7759 118.336 80.2252C118.042 80.0708 117.521 80.0506 117.245 80.2118C113.759 82.2534 110.083 83.8069 106.162 84.7986C105.86 84.8747 105.522 85.2821 105.423 85.6045C105.108 86.6252 104.859 87.6684 104.658 88.7183C104.396 90.0771 103.724 91.0643 102.385 91.5344Z" fill="#679B00"/>
<path d="M57.8694 91.5344C56.6156 91.0285 55.2028 90.7419 54.1348 89.9764C49.8673 86.914 49.5695 81.3176 53.3713 77.4897C57.7799 73.0529 62.2153 68.643 66.6373 64.2196C70.4503 60.4073 74.2477 56.5816 78.0898 52.7985C78.6316 52.2657 78.7547 51.8292 78.5443 51.1084C76.977 45.7336 77.5972 40.5984 80.5706 35.8526C83.7275 30.8137 88.3309 27.9349 94.2463 27.1514C96.5234 26.8492 98.7556 27.073 100.983 27.5342C102.054 27.7558 102.878 28.2863 103.225 29.3474C103.583 30.4376 103.276 31.3979 102.47 32.2038C100.533 34.1424 98.5765 36.0608 96.6622 38.0218C94.2239 40.5223 94.3829 44.0771 96.9913 46.1813C98.881 47.708 101.74 47.7819 103.578 46.1276C105.746 44.1778 107.743 42.0422 109.845 40.0186C110.282 39.5977 110.815 39.1836 111.379 39.0045C112.83 38.5456 114.265 39.4321 114.652 40.9722C116.833 49.6533 112.769 58.856 105.07 62.5765C100.592 64.7412 95.883 65.1575 91.0804 63.7092C90.4221 63.51 90.0303 63.5905 89.5377 64.0853C81.6789 71.9806 73.7797 79.8357 65.9365 87.7445C64.1386 89.5577 62.2512 91.1023 59.6517 91.5299H57.865L57.8694 91.5344Z" fill="#3500C6"/>
</g>
<path d="M11.988 150C9.60848 150 7.53936 149.612 5.78061 148.836C4.02186 148.06 2.65106 146.896 1.66823 145.344C0.685397 143.767 0.142252 141.801 0.038796 139.447C0.012932 138.335 0 137.223 0 136.111C0 134.999 0.012932 133.874 0.038796 132.736C0.142252 130.408 0.685397 128.455 1.66823 126.878C2.67693 125.274 4.06065 124.071 5.81941 123.27C7.57816 122.468 9.63435 122.067 11.988 122.067C14.3157 122.067 16.359 122.468 18.1177 123.27C19.9024 124.071 21.299 125.274 22.3077 126.878C23.3164 128.455 23.8596 130.408 23.9372 132.736C23.9889 133.874 24.0147 134.999 24.0147 136.111C24.0147 137.223 23.9889 138.335 23.9372 139.447C23.8337 141.801 23.2906 143.767 22.3077 145.344C21.3249 146.896 19.9541 148.06 18.1953 148.836C16.4366 149.612 14.3675 150 11.988 150ZM11.988 144.413C13.3588 144.413 14.4709 144 15.3244 143.172C16.2038 142.344 16.6694 141.025 16.7211 139.215C16.7728 138.077 16.7987 137.003 16.7987 135.995C16.7987 134.986 16.7728 133.938 16.7211 132.852C16.6694 131.637 16.4366 130.654 16.0228 129.904C15.6348 129.128 15.0917 128.559 14.3933 128.197C13.695 127.835 12.8932 127.653 11.988 127.653C11.1086 127.653 10.3197 127.835 9.62142 128.197C8.92309 128.559 8.36701 129.128 7.95319 129.904C7.53936 130.654 7.30659 131.637 7.25486 132.852C7.22899 133.938 7.21606 134.986 7.21606 135.995C7.21606 137.003 7.22899 138.077 7.25486 139.215C7.33245 141.025 7.798 142.344 8.65152 143.172C9.50503 144 10.6172 144.413 11.988 144.413Z" fill="#3500C6"/>
<path d="M38.6375 150C36.0511 150 33.9044 149.638 32.1974 148.914C30.4903 148.164 29.1971 147.194 28.3178 146.004C27.4384 144.814 26.9728 143.547 26.9211 142.202C26.9211 141.995 26.9987 141.814 27.1539 141.659C27.3349 141.478 27.5418 141.387 27.7746 141.387H32.6629C33.025 141.387 33.2966 141.452 33.4776 141.581C33.6846 141.711 33.8656 141.879 34.0208 142.086C34.2277 142.474 34.5122 142.849 34.8743 143.211C35.2623 143.573 35.7537 143.87 36.3485 144.103C36.9693 144.31 37.7323 144.413 38.6375 144.413C40.1376 144.413 41.2627 144.181 42.0128 143.715C42.7887 143.249 43.1767 142.616 43.1767 141.814C43.1767 141.245 42.9697 140.779 42.5559 140.417C42.1421 140.029 41.4696 139.693 40.5385 139.409C39.6333 139.098 38.4177 138.788 36.8917 138.478C34.926 138.064 33.2449 137.534 31.8482 136.887C30.4774 136.214 29.4299 135.348 28.7057 134.288C27.9815 133.201 27.6194 131.856 27.6194 130.253C27.6194 128.675 28.0591 127.266 28.9385 126.024C29.8437 124.783 31.0982 123.813 32.7017 123.114C34.3053 122.416 36.2063 122.067 38.4047 122.067C40.1894 122.067 41.7541 122.3 43.0991 122.765C44.4699 123.231 45.6208 123.851 46.5519 124.627C47.483 125.403 48.1813 126.231 48.6469 127.11C49.1383 127.964 49.3969 128.804 49.4228 129.632C49.4228 129.839 49.3452 130.033 49.19 130.214C49.0348 130.369 48.8409 130.447 48.6081 130.447H43.487C43.2025 130.447 42.9568 130.395 42.7499 130.292C42.543 130.188 42.3619 130.02 42.2067 129.787C42.0516 129.218 41.6377 128.727 40.9653 128.313C40.3187 127.873 39.4652 127.653 38.4047 127.653C37.2667 127.653 36.3744 127.86 35.7278 128.274C35.1071 128.662 34.7967 129.27 34.7967 130.098C34.7967 130.615 34.9648 131.068 35.3011 131.456C35.6632 131.843 36.2451 132.18 37.0469 132.464C37.8745 132.749 38.9996 133.046 40.4221 133.357C42.7758 133.796 44.6768 134.352 46.1251 135.025C47.5735 135.671 48.634 136.525 49.3064 137.585C49.9789 138.62 50.3151 139.926 50.3151 141.504C50.3151 143.262 49.8108 144.788 48.8021 146.082C47.8192 147.349 46.4485 148.319 44.6897 148.991C42.9309 149.664 40.9135 150 38.6375 150Z" fill="#3500C6"/>
<path d="M65.2946 150C62.9151 150 60.846 149.612 59.0873 148.836C57.3285 148.06 55.9577 146.896 54.9749 145.344C53.9921 143.767 53.4489 141.801 53.3455 139.447C53.3196 138.335 53.3067 137.223 53.3067 136.111C53.3067 134.999 53.3196 133.874 53.3455 132.736C53.4489 130.408 53.9921 128.455 54.9749 126.878C55.9836 125.274 57.3673 124.071 59.1261 123.27C60.8848 122.468 62.941 122.067 65.2946 122.067C67.6224 122.067 69.6656 122.468 71.4244 123.27C73.209 124.071 74.6057 125.274 75.6144 126.878C76.6231 128.455 77.1662 130.408 77.2438 132.736C77.2955 133.874 77.3214 134.999 77.3214 136.111C77.3214 137.223 77.2955 138.335 77.2438 139.447C77.1404 141.801 76.5972 143.767 75.6144 145.344C74.6315 146.896 73.2607 148.06 71.502 148.836C69.7432 149.612 67.6741 150 65.2946 150ZM65.2946 144.413C66.6654 144.413 67.7776 144 68.6311 143.172C69.5105 142.344 69.976 141.025 70.0277 139.215C70.0795 138.077 70.1053 137.003 70.1053 135.995C70.1053 134.986 70.0795 133.938 70.0277 132.852C69.976 131.637 69.7432 130.654 69.3294 129.904C68.9415 129.128 68.3983 128.559 67.7 128.197C67.0017 127.835 66.1999 127.653 65.2946 127.653C64.4153 127.653 63.6264 127.835 62.9281 128.197C62.2297 128.559 61.6737 129.128 61.2598 129.904C60.846 130.654 60.6132 131.637 60.5615 132.852C60.5357 133.938 60.5227 134.986 60.5227 135.995C60.5227 137.003 60.5357 138.077 60.5615 139.215C60.6391 141.025 61.1047 142.344 61.9582 143.172C62.8117 144 63.9238 144.413 65.2946 144.413Z" fill="#3500C6"/>
<path d="M82.7883 149.612C82.5038 149.612 82.271 149.522 82.09 149.34C81.9089 149.159 81.8184 148.927 81.8184 148.642V123.425C81.8184 123.14 81.9089 122.907 82.09 122.726C82.271 122.545 82.5038 122.455 82.7883 122.455H86.9007C87.3404 122.455 87.6507 122.558 87.8318 122.765C88.0387 122.946 88.168 123.088 88.2197 123.192L97.686 138.128V123.425C97.686 123.14 97.7765 122.907 97.9576 122.726C98.1386 122.545 98.3714 122.455 98.6559 122.455H103.311C103.596 122.455 103.829 122.545 104.01 122.726C104.191 122.907 104.281 123.14 104.281 123.425V148.642C104.281 148.901 104.191 149.134 104.01 149.34C103.829 149.522 103.596 149.612 103.311 149.612H99.1602C98.7464 149.612 98.436 149.509 98.2291 149.302C98.0481 149.095 97.9317 148.953 97.88 148.875L88.4137 134.52V148.642C88.4137 148.927 88.3232 149.159 88.1422 149.34C87.9611 149.522 87.7283 149.612 87.4438 149.612H82.7883Z" fill="#3500C6"/>
<path d="M118.932 149.612C118.648 149.612 118.415 149.522 118.234 149.34C118.053 149.159 117.962 148.927 117.962 148.642V123.425C117.962 123.14 118.053 122.907 118.234 122.726C118.415 122.545 118.648 122.455 118.932 122.455H124.131C124.415 122.455 124.648 122.545 124.829 122.726C125.01 122.907 125.101 123.14 125.101 123.425V148.642C125.101 148.927 125.01 149.159 124.829 149.34C124.648 149.522 124.415 149.612 124.131 149.612H118.932Z" fill="#3500C6"/>
<path d="M140.667 150C138.08 150 135.933 149.638 134.226 148.914C132.519 148.164 131.226 147.194 130.347 146.004C129.467 144.814 129.002 143.547 128.95 142.202C128.95 141.995 129.028 141.814 129.183 141.659C129.364 141.478 129.571 141.387 129.804 141.387H134.692C135.054 141.387 135.326 141.452 135.507 141.581C135.714 141.711 135.895 141.879 136.05 142.086C136.257 142.474 136.541 142.849 136.903 143.211C137.291 143.573 137.783 143.87 138.378 144.103C138.998 144.31 139.761 144.413 140.667 144.413C142.167 144.413 143.292 144.181 144.042 143.715C144.818 143.249 145.206 142.616 145.206 141.814C145.206 141.245 144.999 140.779 144.585 140.417C144.171 140.029 143.499 139.693 142.568 139.409C141.662 139.098 140.447 138.788 138.921 138.478C136.955 138.064 135.274 137.534 133.877 136.887C132.506 136.214 131.459 135.348 130.735 134.288C130.011 133.201 129.648 131.856 129.648 130.253C129.648 128.675 130.088 127.266 130.968 126.024C131.873 124.783 133.127 123.813 134.731 123.114C136.334 122.416 138.235 122.067 140.434 122.067C142.218 122.067 143.783 122.3 145.128 122.765C146.499 123.231 147.65 123.851 148.581 124.627C149.512 125.403 150.21 126.231 150.676 127.11C151.167 127.964 151.426 128.804 151.452 129.632C151.452 129.839 151.374 130.033 151.219 130.214C151.064 130.369 150.87 130.447 150.637 130.447H145.516C145.232 130.447 144.986 130.395 144.779 130.292C144.572 130.188 144.391 130.02 144.236 129.787C144.081 129.218 143.667 128.727 142.994 128.313C142.348 127.873 141.494 127.653 140.434 127.653C139.296 127.653 138.403 127.86 137.757 128.274C137.136 128.662 136.826 129.27 136.826 130.098C136.826 130.615 136.994 131.068 137.33 131.456C137.692 131.843 138.274 132.18 139.076 132.464C139.904 132.749 141.029 133.046 142.451 133.357C144.805 133.796 146.706 134.352 148.154 135.025C149.603 135.671 150.663 136.525 151.335 137.585C152.008 138.62 152.344 139.926 152.344 141.504C152.344 143.262 151.84 144.788 150.831 146.082C149.848 147.349 148.477 148.319 146.719 148.991C144.96 149.664 142.943 150 140.667 150Z" fill="#3500C6"/>
<path d="M157.198 149.612C156.913 149.612 156.681 149.522 156.5 149.34C156.319 149.159 156.228 148.927 156.228 148.642V136.033V123.425C156.228 123.14 156.319 122.907 156.5 122.726C156.681 122.545 156.913 122.455 157.198 122.455H162.203C162.487 122.455 162.72 122.545 162.901 122.726C163.082 122.907 163.172 123.14 163.172 123.425V132.775H172.755V123.425C172.755 123.14 172.846 122.907 173.027 122.726C173.208 122.545 173.44 122.455 173.725 122.455H178.73C179.014 122.455 179.247 122.545 179.428 122.726C179.609 122.907 179.7 123.14 179.7 123.425V136.033V148.642C179.7 148.927 179.609 149.159 179.428 149.34C179.247 149.522 179.014 149.612 178.73 149.612H173.725C173.44 149.612 173.208 149.522 173.027 149.34C172.846 149.159 172.755 148.927 172.755 148.642V138.982H163.172V148.642C163.172 148.927 163.082 149.159 162.901 149.34C162.72 149.522 162.487 149.612 162.203 149.612H157.198Z" fill="#3500C6"/>
<defs>
<clipPath id="clip0_173_2661">
<rect width="91.5344" height="91.5344" fill="white" transform="translate(50.7158)"/>
</clipPath>
</defs>
</svg>
