<svg width="230" height="192" viewBox="0 0 230 192" fill="none" xmlns="http://www.w3.org/2000/svg">
<g clip-path="url(#clip0_173_2647)">
<path d="M131.044 117.156H115.942C114.234 116.543 113.377 115.277 113.045 113.535C112.79 112.191 112.368 110.876 112.113 109.532C111.993 108.899 111.692 108.641 111.11 108.489C109.712 108.12 108.305 107.764 106.946 107.274C105.107 106.61 103.307 105.827 101.461 105.082C101.608 104.842 101.633 104.767 101.685 104.716C106.777 99.6158 111.864 94.5101 116.991 89.4445C117.3 89.1379 117.954 88.9717 118.395 89.0462C121.476 89.5476 124.542 89.4473 127.62 89.0347C136.303 87.8658 143.318 83.8144 148.453 76.7232C153.397 69.8955 155.237 62.214 153.921 53.885C152.288 43.5476 146.777 35.8202 137.46 31.0956C128.067 26.3308 118.469 26.4541 109.133 31.3134C101.201 35.442 96.0767 41.9861 93.6953 50.6474C92.5204 54.9165 92.4602 59.2257 93.0906 63.5664C93.2024 64.3371 92.9588 64.8357 92.4287 65.3628C87.6228 70.1562 82.8371 74.9697 78.0628 79.7946C77.782 80.0783 77.6616 80.5252 77.4668 80.8948C76.6758 79.7688 76.246 78.9981 75.9594 78.1787C75.1427 75.8464 74.3517 73.5027 73.6267 71.139C73.4118 70.4399 73.1367 70.0674 72.3772 69.9242C70.8842 69.6405 69.4112 69.2423 67.9354 68.8669C65.9552 68.3655 64.9436 67.1392 64.9293 65.1107C64.9035 60.7643 64.9035 56.415 64.9293 52.0685C64.9407 50.0314 65.9466 48.7965 67.9153 48.2951C69.4284 47.9112 70.9387 47.5129 72.469 47.2092C73.1309 47.0774 73.4404 46.7909 73.5952 46.1491C74.8016 41.1523 76.7704 36.462 79.4355 32.0726C79.7909 31.4881 79.7335 31.0727 79.3897 30.5283C78.593 29.2762 77.8422 27.9898 77.1028 26.7033C76.054 24.8782 76.2058 23.4141 77.6731 21.9271C80.6993 18.8614 83.7484 15.8157 86.8147 12.7844C88.3135 11.3003 89.7578 11.1283 91.5804 12.1655C92.9044 12.9191 94.1767 13.7643 95.5265 14.472C95.9048 14.6697 96.5725 14.7041 96.925 14.4978C101.39 11.879 106.101 9.8906 111.125 8.61847C111.511 8.52105 111.941 7.99387 112.065 7.57842C112.509 6.08567 112.821 4.54995 113.199 3.03715C113.709 1.00289 114.942 0.0172772 117.054 0.00868177C121.324 -0.00850916 125.596 -0.00850916 129.866 0.00868177C132.067 0.0172772 133.262 0.968509 133.792 3.08586C134.171 4.59866 134.486 6.13438 134.936 7.62426C135.059 8.03111 135.515 8.53251 135.91 8.63279C140.931 9.90779 145.642 11.8991 150.104 14.5236C150.434 14.7155 151.058 14.6983 151.408 14.5121C152.752 13.7987 154.03 12.962 155.351 12.1999C157.222 11.1197 158.67 11.2917 160.211 12.8188C163.246 15.8243 166.267 18.8442 169.27 21.8784C170.792 23.417 170.955 24.8582 169.869 26.7406C169.107 28.0585 168.278 29.3421 167.553 30.6802C167.376 31.0068 167.324 31.5913 167.502 31.8864C170.184 36.4047 172.196 41.1895 173.477 46.2895C173.563 46.6276 174.001 47.0201 174.354 47.1233C175.741 47.5301 177.148 47.8854 178.566 48.1605C180.277 48.4899 181.475 49.3724 182.071 51.0285V66.1307C181.478 67.7868 180.277 68.6664 178.569 68.9959C177.153 69.2709 175.746 69.6262 174.362 70.033C174.01 70.1362 173.566 70.523 173.48 70.8582C172.199 75.9524 170.19 80.7344 167.513 85.247C167.336 85.5479 167.364 86.1295 167.539 86.4532C168.281 87.8228 169.135 89.135 169.909 90.4902C170.952 92.3182 170.783 93.7508 169.299 95.2521C166.272 98.3121 163.229 101.358 160.166 104.383C158.673 105.859 157.22 106.025 155.4 104.985C154.079 104.229 152.806 103.386 151.46 102.681C151.084 102.484 150.416 102.458 150.064 102.664C145.602 105.277 140.896 107.266 135.879 108.535C135.492 108.632 135.059 109.154 134.933 109.566C134.529 110.873 134.211 112.208 133.953 113.552C133.618 115.291 132.758 116.555 131.044 117.156Z" fill="white"/>
<path d="M74.068 117.156C72.4632 116.509 70.655 116.142 69.288 115.162C63.826 111.242 63.4448 104.08 68.3108 99.1802C73.9534 93.5014 79.6304 87.8571 85.2902 82.1955C90.1705 77.3162 95.0307 72.4196 99.9483 67.5775C100.642 66.8956 100.799 66.3369 100.53 65.4143C98.524 58.5351 99.3178 51.9624 103.124 45.8883C107.164 39.4388 113.056 35.7542 120.627 34.7514C123.542 34.3646 126.399 34.6512 129.25 35.2414C130.62 35.525 131.675 36.2041 132.119 37.5622C132.577 38.9575 132.185 40.1866 131.153 41.2181C128.674 43.6993 126.17 46.1548 123.719 48.6646C120.599 51.865 120.802 56.4149 124.141 59.1081C126.559 61.0622 130.219 61.1567 132.572 59.0394C135.346 56.5438 137.902 53.8104 140.593 51.2204C141.152 50.6817 141.834 50.1516 142.556 49.9224C144.413 49.3351 146.25 50.4697 146.745 52.4409C149.537 63.552 144.335 75.3306 134.48 80.0925C128.749 82.8631 122.722 83.396 116.575 81.5423C115.733 81.2873 115.231 81.3904 114.601 82.0236C104.542 92.129 94.4318 102.183 84.3932 112.305C82.092 114.626 79.6762 116.603 76.3491 117.15H74.0623L74.068 117.156Z" fill="white"/>
</g>
<path d="M15.3436 191.987C12.298 191.987 9.64973 191.491 7.39868 190.497C5.14763 189.504 3.39313 188.015 2.13519 186.028C0.877249 184.009 0.18207 181.493 0.0496555 178.481C0.0165518 177.057 0 175.634 0 174.21C0 172.787 0.0165518 171.347 0.0496555 169.89C0.18207 166.911 0.877249 164.412 2.13519 162.392C3.42624 160.34 5.19728 158.801 7.44834 157.774C9.69939 156.748 12.3311 156.235 15.3436 156.235C18.3229 156.235 20.9381 156.748 23.1892 157.774C25.4733 158.801 27.2609 160.34 28.552 162.392C29.843 164.412 30.5382 166.911 30.6375 169.89C30.7037 171.347 30.7368 172.787 30.7368 174.21C30.7368 175.634 30.7037 177.057 30.6375 178.481C30.5051 181.493 29.8099 184.009 28.552 186.028C27.294 188.015 25.5395 189.504 23.2885 190.497C21.0374 191.491 18.3891 191.987 15.3436 191.987ZM15.3436 184.837C17.0981 184.837 18.5215 184.307 19.614 183.248C20.7395 182.188 21.3353 180.5 21.4016 178.183C21.4678 176.726 21.5009 175.352 21.5009 174.061C21.5009 172.77 21.4678 171.43 21.4016 170.039C21.3353 168.483 21.0374 167.225 20.5078 166.265C20.0112 165.272 19.316 164.544 18.4222 164.081C17.5284 163.617 16.5022 163.385 15.3436 163.385C14.218 163.385 13.2084 163.617 12.3146 164.081C11.4208 164.544 10.7091 165.272 10.1794 166.265C9.64974 167.225 9.3518 168.483 9.28559 170.039C9.25249 171.43 9.23594 172.77 9.23594 174.061C9.23594 175.352 9.25249 176.726 9.28559 178.183C9.38491 180.5 9.98077 182.188 11.0732 183.248C12.1656 184.307 13.5891 184.837 15.3436 184.837Z" fill="white"/>
<path d="M49.4527 191.987C46.1423 191.987 43.3947 191.524 41.2099 190.597C39.025 189.637 37.3698 188.395 36.2443 186.873C35.1188 185.35 34.5229 183.728 34.4567 182.006C34.4567 181.741 34.556 181.51 34.7546 181.311C34.9864 181.079 35.2512 180.964 35.5491 180.964H41.8057C42.2692 180.964 42.6168 181.046 42.8485 181.212C43.1133 181.377 43.3451 181.592 43.5437 181.857C43.8085 182.354 44.1727 182.834 44.6361 183.297C45.1327 183.761 45.7616 184.141 46.523 184.439C47.3175 184.704 48.2941 184.837 49.4527 184.837C51.3727 184.837 52.8127 184.539 53.7727 183.943C54.7658 183.347 55.2624 182.536 55.2624 181.51C55.2624 180.781 54.9976 180.186 54.4679 179.722C53.9382 179.226 53.0776 178.795 51.8858 178.431C50.7272 178.034 49.1713 177.637 47.2182 177.239C44.7023 176.71 42.5506 176.031 40.763 175.203C39.0085 174.343 37.6678 173.234 36.7409 171.877C35.814 170.486 35.3505 168.765 35.3505 166.712C35.3505 164.693 35.9133 162.889 37.0388 161.3C38.1974 159.711 39.803 158.47 41.8554 157.576C43.9078 156.682 46.3409 156.235 49.1548 156.235C51.4389 156.235 53.4417 156.533 55.1631 157.129C56.9176 157.725 58.3907 158.519 59.5824 159.512C60.7742 160.505 61.668 161.565 62.2638 162.69C62.8928 163.783 63.2238 164.859 63.2569 165.918C63.2569 166.183 63.1576 166.431 62.959 166.663C62.7604 166.861 62.5121 166.961 62.2142 166.961H55.6596C55.2955 166.961 54.981 166.894 54.7162 166.762C54.4514 166.63 54.2196 166.414 54.021 166.117C53.8224 165.388 53.2927 164.759 52.432 164.23C51.6044 163.667 50.512 163.385 49.1548 163.385C47.6982 163.385 46.5561 163.65 45.7285 164.18C44.934 164.676 44.5368 165.454 44.5368 166.514C44.5368 167.176 44.752 167.755 45.1823 168.252C45.6458 168.748 46.3906 169.179 47.4168 169.543C48.4761 169.907 49.9161 170.288 51.7369 170.685C54.7493 171.248 57.1824 171.959 59.0362 172.82C60.89 173.648 62.2473 174.74 63.108 176.097C63.9687 177.421 64.399 179.093 64.399 181.112C64.399 183.364 63.7535 185.317 62.4625 186.972C61.2045 188.594 59.45 189.835 57.199 190.696C54.9479 191.557 52.3658 191.987 49.4527 191.987Z" fill="white"/>
<path d="M83.5715 191.987C80.526 191.987 77.8777 191.491 75.6266 190.497C73.3756 189.504 71.6211 188.015 70.3631 186.028C69.1052 184.009 68.41 181.493 68.2776 178.481C68.2445 177.057 68.2279 175.634 68.2279 174.21C68.2279 172.787 68.2445 171.347 68.2776 169.89C68.41 166.911 69.1052 164.412 70.3631 162.392C71.6542 160.34 73.4252 158.801 75.6763 157.774C77.9273 156.748 80.5591 156.235 83.5715 156.235C86.5508 156.235 89.166 156.748 91.4171 157.774C93.7012 158.801 95.4889 160.34 96.7799 162.392C98.0709 164.412 98.7661 166.911 98.8654 169.89C98.9316 171.347 98.9647 172.787 98.9647 174.21C98.9647 175.634 98.9316 177.057 98.8654 178.481C98.733 181.493 98.0378 184.009 96.7799 186.028C95.522 188.015 93.7675 189.504 91.5164 190.497C89.2653 191.491 86.6171 191.987 83.5715 191.987ZM83.5715 184.837C85.326 184.837 86.7495 184.307 87.8419 183.248C88.9674 182.188 89.5633 180.5 89.6295 178.183C89.6957 176.726 89.7288 175.352 89.7288 174.061C89.7288 172.77 89.6957 171.43 89.6295 170.039C89.5633 168.483 89.2653 167.225 88.7357 166.265C88.2391 165.272 87.544 164.544 86.6502 164.081C85.7564 163.617 84.7301 163.385 83.5715 163.385C82.446 163.385 81.4363 163.617 80.5425 164.081C79.6487 164.544 78.937 165.272 78.4073 166.265C77.8777 167.225 77.5797 168.483 77.5135 170.039C77.4804 171.43 77.4639 172.77 77.4639 174.061C77.4639 175.352 77.4804 176.726 77.5135 178.183C77.6128 180.5 78.2087 182.188 79.3011 183.248C80.3936 184.307 81.817 184.837 83.5715 184.837Z" fill="white"/>
<path d="M105.962 191.491C105.598 191.491 105.3 191.375 105.068 191.143C104.836 190.911 104.721 190.613 104.721 190.249V157.973C104.721 157.609 104.836 157.311 105.068 157.079C105.3 156.847 105.598 156.732 105.962 156.732H111.225C111.788 156.732 112.185 156.864 112.417 157.129C112.682 157.361 112.847 157.543 112.914 157.675L125.03 176.792V157.973C125.03 157.609 125.146 157.311 125.377 157.079C125.609 156.847 125.907 156.732 126.271 156.732H132.23C132.594 156.732 132.892 156.847 133.124 157.079C133.355 157.311 133.471 157.609 133.471 157.973V190.249C133.471 190.58 133.355 190.878 133.124 191.143C132.892 191.375 132.594 191.491 132.23 191.491H126.917C126.387 191.491 125.99 191.358 125.725 191.093C125.493 190.828 125.344 190.646 125.278 190.547L113.162 172.174V190.249C113.162 190.613 113.046 190.911 112.814 191.143C112.583 191.375 112.285 191.491 111.921 191.491H105.962Z" fill="white"/>
<path d="M152.223 191.491C151.859 191.491 151.561 191.375 151.329 191.143C151.098 190.911 150.982 190.613 150.982 190.249V157.973C150.982 157.609 151.098 157.311 151.329 157.079C151.561 156.847 151.859 156.732 152.223 156.732H158.877C159.241 156.732 159.539 156.847 159.771 157.079C160.002 157.311 160.118 157.609 160.118 157.973V190.249C160.118 190.613 160.002 190.911 159.771 191.143C159.539 191.375 159.241 191.491 158.877 191.491H152.223Z" fill="white"/>
<path d="M180.041 191.987C176.731 191.987 173.983 191.524 171.798 190.597C169.613 189.637 167.958 188.395 166.833 186.873C165.707 185.35 165.111 183.728 165.045 182.006C165.045 181.741 165.144 181.51 165.343 181.311C165.575 181.079 165.84 180.964 166.137 180.964H172.394C172.858 180.964 173.205 181.046 173.437 181.212C173.702 181.377 173.933 181.592 174.132 181.857C174.397 182.354 174.761 182.834 175.224 183.297C175.721 183.761 176.35 184.141 177.111 184.439C177.906 184.704 178.882 184.837 180.041 184.837C181.961 184.837 183.401 184.539 184.361 183.943C185.354 183.347 185.851 182.536 185.851 181.51C185.851 180.781 185.586 180.186 185.056 179.722C184.527 179.226 183.666 178.795 182.474 178.431C181.316 178.034 179.76 177.637 177.807 177.239C175.291 176.71 173.139 176.031 171.351 175.203C169.597 174.343 168.256 173.234 167.329 171.877C166.402 170.486 165.939 168.765 165.939 166.712C165.939 164.693 166.502 162.889 167.627 161.3C168.786 159.711 170.391 158.47 172.444 157.576C174.496 156.682 176.929 156.235 179.743 156.235C182.027 156.235 184.03 156.533 185.751 157.129C187.506 157.725 188.979 158.519 190.171 159.512C191.363 160.505 192.256 161.565 192.852 162.69C193.481 163.783 193.812 164.859 193.845 165.918C193.845 166.183 193.746 166.431 193.547 166.663C193.349 166.861 193.1 166.961 192.803 166.961H186.248C185.884 166.961 185.569 166.894 185.305 166.762C185.04 166.63 184.808 166.414 184.609 166.117C184.411 165.388 183.881 164.759 183.02 164.23C182.193 163.667 181.1 163.385 179.743 163.385C178.287 163.385 177.144 163.65 176.317 164.18C175.522 164.676 175.125 165.454 175.125 166.514C175.125 167.176 175.34 167.755 175.771 168.252C176.234 168.748 176.979 169.179 178.005 169.543C179.064 169.907 180.505 170.288 182.325 170.685C185.338 171.248 187.771 171.959 189.625 172.82C191.478 173.648 192.836 174.74 193.696 176.097C194.557 177.421 194.987 179.093 194.987 181.112C194.987 183.364 194.342 185.317 193.051 186.972C191.793 188.594 190.038 189.835 187.787 190.696C185.536 191.557 182.954 191.987 180.041 191.987Z" fill="white"/>
<path d="M201.2 191.491C200.836 191.491 200.538 191.375 200.306 191.143C200.074 190.911 199.958 190.613 199.958 190.249V174.111V157.973C199.958 157.609 200.074 157.311 200.306 157.079C200.538 156.847 200.836 156.732 201.2 156.732H207.605C207.969 156.732 208.267 156.847 208.499 157.079C208.731 157.311 208.847 157.609 208.847 157.973V169.94H221.112V157.973C221.112 157.609 221.228 157.311 221.459 157.079C221.691 156.847 221.989 156.732 222.353 156.732H228.759C229.123 156.732 229.421 156.847 229.652 157.079C229.884 157.311 230 157.609 230 157.973V174.111V190.249C230 190.613 229.884 190.911 229.652 191.143C229.421 191.375 229.123 191.491 228.759 191.491H222.353C221.989 191.491 221.691 191.375 221.459 191.143C221.228 190.911 221.112 190.613 221.112 190.249V177.885H208.847V190.249C208.847 190.613 208.731 190.911 208.499 191.143C208.267 191.375 207.969 191.491 207.605 191.491H201.2Z" fill="white"/>
<defs>
<clipPath id="clip0_173_2647">
<rect width="117.156" height="117.156" fill="white" transform="translate(64.9121)"/>
</clipPath>
</defs>
</svg>
