<svg width="36" height="36" viewBox="0 0 36 36" fill="none" xmlns="http://www.w3.org/2000/svg">
<path opacity="0.12" d="M11.0709 14.7798C12.1149 16.9542 13.5381 18.9922 15.3405 20.7945C17.1428 22.5969 19.1808 24.0201 21.3552 25.0641C21.5422 25.1539 21.6358 25.1988 21.7541 25.2333C22.1746 25.3559 22.691 25.2678 23.0472 25.0128C23.1474 24.941 23.2331 24.8553 23.4046 24.6838C23.929 24.1594 24.1912 23.8972 24.4549 23.7258C25.4492 23.0793 26.7311 23.0793 27.7254 23.7258C27.9891 23.8972 28.2513 24.1594 28.7757 24.6838L29.068 24.9761C29.8652 25.7733 30.2637 26.1719 30.4803 26.6C30.9109 27.4513 30.9109 28.4567 30.4803 29.308C30.2637 29.7361 29.8652 30.1347 29.068 30.9319L28.8315 31.1683C28.0371 31.9627 27.6399 32.36 27.0998 32.6633C26.5006 33 25.5698 33.242 24.8825 33.24C24.2631 33.2381 23.8398 33.118 22.9931 32.8777C18.443 31.5862 14.1494 29.1495 10.5675 25.5675C6.98551 21.9855 4.5488 17.692 3.25734 13.1419C3.01703 12.2952 2.89687 11.8719 2.89503 11.2525C2.89299 10.5652 3.13503 9.63441 3.47166 9.03515C3.77503 8.49511 4.17225 8.09789 4.96668 7.30346L5.20314 7.067C6.0003 6.26984 6.39888 5.87126 6.82695 5.65474C7.6783 5.22414 8.68369 5.22414 9.53503 5.65474C9.96311 5.87126 10.3617 6.26984 11.1589 7.067L11.4512 7.35931C11.9756 7.88372 12.2378 8.14592 12.4092 8.40959C13.0557 9.40392 13.0557 10.6858 12.4092 11.6801C12.2378 11.9438 11.9756 12.206 11.4512 12.7304C11.2797 12.9019 11.194 12.9876 11.1222 13.0878C10.8672 13.444 10.7791 13.9604 10.9017 14.3809C10.9362 14.4992 10.9811 14.5927 11.0709 14.7798Z" fill="#679B00"/>
<path d="M21.075 9C22.5401 9.28585 23.8866 10.0024 24.9421 11.0579C25.9976 12.1134 26.7141 13.4599 27 14.925M21.075 3C24.1189 3.33815 26.9574 4.70126 29.1243 6.86551C31.2913 9.02976 32.658 11.8665 33 14.91M15.3404 20.7946C13.5381 18.9922 12.1149 16.9543 11.0709 14.7798C10.9811 14.5928 10.9362 14.4993 10.9017 14.381C10.7791 13.9604 10.8672 13.444 11.1222 13.0879C11.194 12.9877 11.2797 12.9019 11.4512 12.7305C11.9756 12.2061 12.2378 11.9439 12.4092 11.6802C13.0557 10.6859 13.0557 9.40398 12.4092 8.40965C12.2378 8.14598 11.9756 7.88378 11.4512 7.35937L11.1588 7.06706C10.3617 6.2699 9.9631 5.87132 9.53503 5.6548C8.68369 5.2242 7.67829 5.2242 6.82695 5.6548C6.39888 5.87132 6.0003 6.2699 5.20314 7.06706L4.96668 7.30351C4.17225 8.09795 3.77503 8.49517 3.47166 9.03521C3.13503 9.63447 2.89299 10.5652 2.89503 11.2525C2.89687 11.872 3.01703 12.2953 3.25734 13.142C4.5488 17.6921 6.98551 21.9856 10.5675 25.5676C14.1494 29.1495 18.443 31.5863 22.9931 32.8777C23.8398 33.118 24.2631 33.2382 24.8825 33.24C25.5698 33.2421 26.5006 33 27.0998 32.6634C27.6399 32.36 28.0371 31.9628 28.8315 31.1684L29.068 30.9319C29.8652 30.1348 30.2637 29.7362 30.4802 29.3081C30.9109 28.4568 30.9109 27.4514 30.4802 26.6C30.2637 26.1719 29.8651 25.7734 29.068 24.9762L28.7757 24.6839C28.2513 24.1595 27.9891 23.8973 27.7254 23.7259C26.7311 23.0794 25.4492 23.0794 24.4549 23.7259C24.1912 23.8973 23.929 24.1595 23.4046 24.6839C23.2331 24.8554 23.1474 24.9411 23.0472 25.0129C22.691 25.2679 22.1746 25.3559 21.7541 25.2333C21.6358 25.1989 21.5422 25.154 21.3552 25.0642C19.1808 24.0202 17.1428 22.597 15.3404 20.7946Z" stroke="#679B00" stroke-width="2" stroke-linecap="round" stroke-linejoin="round"/>
</svg>
