<svg width="37" height="37" viewBox="0 0 37 37" fill="none" xmlns="http://www.w3.org/2000/svg">
<path opacity="0.12" d="M11.3786 15.1904C12.4516 17.4253 13.9143 19.5198 15.7667 21.3723C17.6192 23.2247 19.7137 24.6874 21.9486 25.7604C22.1408 25.8527 22.2369 25.8988 22.3585 25.9343C22.7907 26.0603 23.3215 25.9698 23.6875 25.7077C23.7905 25.6339 23.8786 25.5458 24.0549 25.3696C24.5938 24.8306 24.8633 24.5611 25.1343 24.3849C26.1563 23.7205 27.4737 23.7205 28.4957 24.3849C28.7667 24.5611 29.0362 24.8306 29.5752 25.3696L29.8756 25.67C30.6949 26.4893 31.1045 26.899 31.3271 27.3389C31.7696 28.2139 31.7696 29.2473 31.3271 30.1222C31.1045 30.5622 30.6949 30.9719 29.8756 31.7912L29.6326 32.0342C28.8161 32.8507 28.4078 33.2589 27.8528 33.5707C27.2369 33.9167 26.2803 34.1655 25.5738 34.1634C24.9372 34.1615 24.5021 34.038 23.6319 33.791C18.9554 32.4637 14.5426 29.9593 10.8612 26.2778C7.1797 22.5963 4.6753 18.1835 3.34797 13.507C3.10099 12.6369 2.97749 12.2018 2.9756 11.5651C2.9735 10.8587 3.22226 9.90212 3.56824 9.28622C3.88004 8.73117 4.28829 8.32292 5.1048 7.50642L5.34782 7.2634C6.16712 6.44409 6.57678 6.03444 7.01674 5.81191C7.89173 5.36934 8.92506 5.36934 9.80005 5.81191C10.24 6.03444 10.6497 6.44409 11.469 7.2634L11.7694 7.56382C12.3084 8.1028 12.5779 8.37228 12.754 8.64328C13.4185 9.66523 13.4185 10.9827 12.754 12.0047C12.5779 12.2757 12.3084 12.5451 11.7694 13.0841C11.5932 13.2604 11.505 13.3485 11.4313 13.4515C11.1692 13.8175 11.0787 14.3482 11.2047 14.7805C11.2401 14.9021 11.2863 14.9982 11.3786 15.1904Z" fill="white"/>
<path d="M21.6605 9.25004C23.1663 9.54383 24.5502 10.2803 25.6351 11.3651C26.7199 12.4499 27.4563 13.8338 27.7501 15.3396M21.6605 3.08337C24.789 3.43092 27.7063 4.83189 29.9335 7.05626C32.1607 9.28063 33.5653 12.1962 33.9168 15.3242M15.7667 21.3723C13.9143 19.5198 12.4516 17.4253 11.3786 15.1904C11.2863 14.9982 11.2401 14.9021 11.2047 14.7805C11.0787 14.3483 11.1692 13.8175 11.4313 13.4515C11.505 13.3485 11.5932 13.2604 11.7694 13.0841C12.3084 12.5452 12.5779 12.2757 12.754 12.0047C13.4185 10.9827 13.4185 9.66524 12.754 8.64329C12.5779 8.3723 12.3084 8.10281 11.7694 7.56383L11.469 7.26341C10.6497 6.4441 10.24 6.03445 9.80004 5.81192C8.92506 5.36935 7.89173 5.36935 7.01674 5.81192C6.57678 6.03445 6.16712 6.4441 5.34782 7.26341L5.1048 7.50643C4.28829 8.32293 3.88004 8.73118 3.56824 9.28623C3.22226 9.90214 2.9735 10.8587 2.9756 11.5652C2.97749 12.2018 3.10099 12.6369 3.34797 13.5071C4.6753 18.1835 7.1797 22.5964 10.8612 26.2778C14.5426 29.9593 18.9554 32.4637 23.6319 33.791C24.5021 34.038 24.9372 34.1615 25.5738 34.1634C26.2803 34.1655 27.2369 33.9167 27.8528 33.5707C28.4078 33.259 28.8161 32.8507 29.6326 32.0342L29.8756 31.7912C30.6949 30.9719 31.1045 30.5622 31.3271 30.1223C31.7696 29.2473 31.7696 28.2139 31.3271 27.3389C31.1045 26.899 30.6949 26.4893 29.8756 25.67L29.5752 25.3696C29.0362 24.8306 28.7667 24.5611 28.4957 24.3849C27.4737 23.7205 26.1563 23.7205 25.1343 24.3849C24.8633 24.5611 24.5938 24.8306 24.0549 25.3696C23.8786 25.5458 23.7905 25.6339 23.6875 25.7077C23.3215 25.9698 22.7907 26.0603 22.3585 25.9343C22.2369 25.8989 22.1408 25.8527 21.9486 25.7604C19.7137 24.6874 17.6192 23.2247 15.7667 21.3723Z" stroke="white" stroke-width="2" stroke-linecap="round" stroke-linejoin="round"/>
</svg>
