<svg width="28" height="28" viewBox="0 0 28 28" fill="none" xmlns="http://www.w3.org/2000/svg">
<g clip-path="url(#clip0_576_3384)">
<path d="M14 28C21.732 28 28 21.732 28 14C28 6.26801 21.732 0 14 0C6.26801 0 0 6.26801 0 14C0 21.732 6.26801 28 14 28Z" fill="#F0F0F0"/>
<path d="M27.1292 18.8689C27.692 17.3523 28 15.7118 28 13.9994C28 12.2869 27.692 10.6465 27.1292 9.12982H0.870789C0.308055 10.6465 0 12.2869 0 13.9994C0 15.7118 0.308055 17.3523 0.870789 18.8689L14 20.0863L27.1292 18.8689Z" fill="#0052B4"/>
<path d="M14.0003 27.9994C20.0198 27.9994 25.1514 24.2002 27.1295 18.869H0.871094C2.8492 24.2002 7.9808 27.9994 14.0003 27.9994Z" fill="#D80027"/>
</g>
<defs>
<clipPath id="clip0_576_3384">
<rect width="28" height="28" fill="white"/>
</clipPath>
</defs>
</svg>
