<svg width="28" height="28" viewBox="0 0 28 28" fill="none" xmlns="http://www.w3.org/2000/svg">
<g clip-path="url(#clip0_576_3374)">
<path d="M0.661063 9.73922C0.232203 11.0828 -5.46779e-05 12.5141 9.65534e-09 13.9999C-5.46779e-05 15.4858 0.232258 16.9172 0.661117 18.2608L14 18.8696L27.3389 18.2609C27.7677 16.9173 28.0001 15.4858 28.0001 14C28 12.5142 27.7678 11.0828 27.3389 9.73917L14 9.13049L0.661063 9.73922Z" fill="#F0F0F0"/>
<path d="M27.3391 9.73916L14.0002 9.13049L0.661242 9.73916C0.534148 10.1375 0.424719 10.5437 0.333008 10.9566H27.6671C27.5755 10.5436 27.4662 10.1374 27.3391 9.73916Z" fill="#D80027"/>
<path d="M0.333008 17.0439C0.424609 17.4568 0.534039 17.8629 0.661133 18.2612L0.662445 18.2613L14 18.87L27.3388 18.2613C27.4659 17.8629 27.5754 17.4568 27.667 17.0439H0.333008V17.0439Z" fill="#D80027"/>
<path d="M14.0009 28.0008C20.2471 28.0008 25.537 23.91 27.3398 18.2617H0.662109C2.46488 23.91 7.75491 28.0008 14.0009 28.0008Z" fill="#6DA544"/>
<path d="M14 -0.000976562C7.75394 -0.000921874 2.46402 4.08987 0.661133 9.73816L27.3388 9.73821C25.5362 4.08981 20.2462 -0.00103125 14 -0.000976562Z" fill="#338AF3"/>
<path d="M6.39755 5.78223C6.39755 4.47099 7.31909 3.3756 8.54972 3.10686C8.36061 3.06552 8.16434 3.04315 7.96276 3.04315C6.45 3.04315 5.22363 4.26947 5.22363 5.78229C5.22363 7.29511 6.44989 8.52142 7.96276 8.52142C8.16434 8.52142 8.36056 8.499 8.54972 8.45771C7.31915 8.18887 6.39755 7.09347 6.39755 5.78223Z" fill="#F0F0F0"/>
<path d="M10.1683 7.02618L10.3537 7.59685H10.9538L10.4684 7.94959L10.6538 8.52025L10.1683 8.16757L9.68283 8.52025L9.86828 7.94959L9.38281 7.59685H9.98285L10.1683 7.02618Z" fill="#F0F0F0"/>
<path d="M12.0842 7.02618L12.2697 7.59685H12.8697L12.3843 7.94959L12.5697 8.52025L12.0842 8.16757L11.5988 8.52025L11.7842 7.94959L11.2988 7.59685H11.8988L12.0842 7.02618Z" fill="#F0F0F0"/>
<path d="M13.9984 7.02618L14.1838 7.59685H14.7839L14.2984 7.94959L14.4838 8.52025L13.9984 8.16757L13.5129 8.52025L13.6984 7.94959L13.2129 7.59685H13.813L13.9984 7.02618Z" fill="#F0F0F0"/>
<path d="M15.9144 7.02618L16.0999 7.59685H16.6999L16.2145 7.94959L16.3999 8.52025L15.9144 8.16757L15.4289 8.52025L15.6144 7.94959L15.1289 7.59685H15.7289L15.9144 7.02618Z" fill="#F0F0F0"/>
<path d="M17.8294 7.02618L18.0148 7.59685H18.6148L18.1294 7.94959L18.3149 8.52025L17.8294 8.16757L17.3439 8.52025L17.5294 7.94959L17.0439 7.59685H17.6439L17.8294 7.02618Z" fill="#F0F0F0"/>
<path d="M12.0842 5.0343L12.2697 5.60491H12.8697L12.3843 5.9577L12.5697 6.52831L12.0842 6.17563L11.5988 6.52831L11.7842 5.9577L11.2988 5.60491H11.8988L12.0842 5.0343Z" fill="#F0F0F0"/>
<path d="M13.9984 5.0343L14.1838 5.60491H14.7839L14.2984 5.9577L14.4838 6.52831L13.9984 6.17563L13.5129 6.52831L13.6984 5.9577L13.2129 5.60491H13.813L13.9984 5.0343Z" fill="#F0F0F0"/>
<path d="M15.9144 5.0343L16.0999 5.60491H16.6999L16.2145 5.9577L16.3999 6.52831L15.9144 6.17563L15.4289 6.52831L15.6144 5.9577L15.1289 5.60491H15.7289L15.9144 5.0343Z" fill="#F0F0F0"/>
<path d="M17.8294 5.0343L18.0148 5.60491H18.6148L18.1294 5.9577L18.3149 6.52831L17.8294 6.17563L17.3439 6.52831L17.5294 5.9577L17.0439 5.60491H17.6439L17.8294 5.0343Z" fill="#F0F0F0"/>
<path d="M13.9984 3.04272L14.1838 3.61344H14.7839L14.2984 3.96612L14.4838 4.53684L13.9984 4.18416L13.5129 4.53684L13.6984 3.96612L13.2129 3.61344H13.813L13.9984 3.04272Z" fill="#F0F0F0"/>
<path d="M15.9144 3.04272L16.0999 3.61344H16.6999L16.2145 3.96612L16.3999 4.53684L15.9144 4.18416L15.4289 4.53684L15.6144 3.96612L15.1289 3.61344H15.7289L15.9144 3.04272Z" fill="#F0F0F0"/>
<path d="M17.8294 3.04272L18.0148 3.61344H18.6148L18.1294 3.96612L18.3149 4.53684L17.8294 4.18416L17.3439 4.53684L17.5294 3.96612L17.0439 3.61344H17.6439L17.8294 3.04272Z" fill="#F0F0F0"/>
</g>
<defs>
<clipPath id="clip0_576_3374">
<rect width="28" height="28" fill="white"/>
</clipPath>
</defs>
</svg>
