<svg width="34" height="41" viewBox="0 0 34 41" fill="none" xmlns="http://www.w3.org/2000/svg">
<path d="M0.574614 40.9992C0.122733 40.7505 -0.00625954 40.363 0.000230668 39.8655C0.0213238 38.3315 -0.0176174 36.7959 0.0132111 35.2619C0.0854147 31.6242 1.72581 28.8875 4.92873 27.0944C6.19757 26.3835 7.59215 26.1091 9.04353 26.1059C9.79558 26.1043 10.5468 26.1059 11.3386 26.1059C11.3386 25.4192 11.3484 24.7693 11.3297 24.1194C11.3265 24.0095 11.2218 23.8827 11.1309 23.7993C9.9197 22.6873 9.05407 21.3587 8.55108 19.8006C8.48861 19.6072 8.44399 19.4548 8.15842 19.4492C6.78412 19.4219 5.74082 18.8129 5.16887 17.5646C4.62694 16.3819 4.80866 15.2507 5.61426 14.2221C5.6386 14.1908 5.65726 14.1555 5.66132 14.1491C5.43659 13.7568 5.16481 13.4014 5.01635 13.001C4.60098 11.8802 5.11857 10.6495 6.19919 10.132C6.43771 10.018 6.52614 9.87683 6.56427 9.6249C7.09971 6.02975 9.10031 3.59715 12.5344 2.32309C12.846 2.20755 13.0301 2.0856 13.1437 1.73981C13.5096 0.613365 14.4199 0.00361039 15.6197 0.00120346C16.5365 -0.000401155 17.454 -0.000401155 18.3708 0.00120346C19.6088 0.00280808 20.515 0.636632 20.8898 1.79838C20.9774 2.06956 21.1129 2.19552 21.3822 2.2926C24.8764 3.55142 26.907 6.00007 27.4611 9.64576C27.4838 9.79258 27.5771 9.98674 27.6972 10.0533C29.3124 10.9463 29.6199 12.5918 28.4136 13.971C28.3876 14.0007 28.3616 14.032 28.3405 14.0561C28.549 14.4452 28.8119 14.8094 28.9506 15.2162C29.6629 17.3022 28.2075 19.3497 25.9481 19.4484C25.6528 19.4612 25.5351 19.5495 25.4491 19.8231C24.9632 21.3723 24.1008 22.6897 22.8961 23.7905C22.7963 23.8811 22.6835 24.0207 22.6795 24.1411C22.6584 24.7789 22.6697 25.4176 22.6697 26.1059C23.0681 26.1059 23.4404 26.1067 23.8128 26.1059C24.9859 26.1019 26.1615 26.0642 27.3029 26.4076C30.8977 27.4899 33.0143 29.9097 33.8361 33.4944C33.901 33.7784 33.9456 34.0672 34 34.3537V41L0.574614 40.9992ZM24.2874 14.6819H9.72013C9.72013 15.3734 9.73149 16.0386 9.7177 16.7029C9.68281 18.3645 10.0998 19.9017 11.0547 21.2696C12.4119 23.2144 14.269 24.3697 16.6817 24.4861C19.8165 24.6377 22.7119 22.6183 23.8169 19.6473C24.4188 18.0299 24.2574 16.3667 24.2858 14.6811L24.2874 14.6819ZM6.51234 28.1141V39.3785H8.10245C8.10245 38.8025 8.10407 38.2457 8.10245 37.6889C8.10082 37.3286 8.21684 37.0294 8.55189 36.8553C9.09788 36.5713 9.69741 36.9628 9.71688 37.6271C9.73392 38.2088 9.72013 38.7912 9.72013 39.3681H16.1957C16.1957 37.043 16.199 34.7476 16.1876 32.453C16.1876 32.327 16.0976 32.177 16.0051 32.0799C14.6713 30.6831 13.3295 29.2935 11.9876 27.9039C11.9163 27.8293 11.823 27.7234 11.7386 27.721C11.0709 27.7057 10.4032 27.713 9.72094 27.713C9.72094 29.3312 9.72256 30.8917 9.71851 32.4522C9.71851 32.6367 9.71039 32.8301 9.65685 33.0042C9.55138 33.3476 9.28285 33.5329 8.93076 33.5401C8.56001 33.5474 8.28093 33.3604 8.16491 33.0026C8.11299 32.8413 8.10488 32.6616 8.10488 32.4899C8.10082 31.0618 8.10245 29.6337 8.10245 28.2064C8.10245 28.0684 8.10245 27.9296 8.10245 27.729C7.52319 27.8694 7.01615 27.9922 6.51234 28.1141ZM24.289 27.7073C23.6741 27.7073 23.1094 27.6881 22.5464 27.7178C22.3566 27.7274 22.1245 27.8141 21.9955 27.9448C20.661 29.3047 19.3394 30.6759 18.03 32.0591C17.9018 32.1947 17.824 32.4305 17.8223 32.6207C17.8077 34.7428 17.8126 36.8649 17.8142 38.9862C17.8142 39.1146 17.8256 39.2438 17.8321 39.3673H24.289C24.289 38.764 24.2744 38.1903 24.2931 37.6183C24.3158 36.9371 24.9543 36.5536 25.5003 36.8777C25.811 37.0623 25.9091 37.3543 25.9075 37.6961C25.9051 38.2521 25.9075 38.8081 25.9075 39.3705H27.5057V28.1125C26.98 27.9882 26.4665 27.867 25.9075 27.7346C25.9075 29.3513 25.9075 30.8845 25.9075 32.4177C25.9075 33.1478 25.6325 33.5361 25.1108 33.5457C24.5762 33.5554 24.289 33.1566 24.289 32.4025C24.289 30.8556 24.289 29.3104 24.289 27.7073ZM8.18601 9.81906H25.8256C25.5684 6.98851 23.3082 4.53585 21.0512 3.91888C21.0512 4.05768 21.0512 4.19006 21.0512 4.32244C21.0512 5.33656 21.0585 6.35068 21.0472 7.3648C21.0415 7.8855 20.6999 8.24092 20.2448 8.24333C19.7897 8.24573 19.4563 7.88951 19.4335 7.37122C19.427 7.22439 19.4319 7.07757 19.4319 6.93075C19.4319 5.57003 19.4352 4.20851 19.4311 2.8478C19.4287 1.98291 19.0457 1.60341 18.1915 1.60341C17.3145 1.60341 16.4383 1.61384 15.5613 1.5986C15.2068 1.59218 14.9415 1.7358 14.8028 2.02703C14.6811 2.28297 14.5902 2.57983 14.5862 2.86063C14.5651 4.2751 14.5764 5.68958 14.5764 7.10405C14.5764 7.85501 14.2852 8.25616 13.7514 8.24333C13.2305 8.23049 12.9587 7.84377 12.9579 7.11207C12.9579 6.04821 12.9579 4.98435 12.9579 3.91086C10.563 4.60886 8.41316 7.11448 8.18682 9.81986L8.18601 9.81906ZM16.964 13.054C20.1069 13.054 23.249 13.0548 26.3919 13.0516C26.5784 13.0516 26.774 13.0492 26.9508 12.9978C27.3143 12.8919 27.5138 12.6207 27.513 12.2533C27.5114 11.8874 27.3167 11.6162 26.9508 11.5087C26.7991 11.4638 26.632 11.455 26.4722 11.455C20.1604 11.4526 13.8479 11.4526 7.53617 11.4534C6.88066 11.4534 6.48719 11.7574 6.48882 12.2533C6.49044 12.7531 6.87985 13.0508 7.53617 13.054C7.6173 13.054 7.69762 13.054 7.77875 13.054C10.8405 13.054 13.9031 13.054 16.964 13.054ZM4.85328 29.0159C3.20639 30.241 2.17202 31.7726 1.80126 33.6918C1.44268 35.5507 1.67876 37.4394 1.63982 39.3152C1.63982 39.3352 1.66903 39.3561 1.67633 39.3657H4.8541V29.0151L4.85328 29.0159ZM29.1705 29.0456V39.3689H32.3823C32.3823 38.0218 32.3766 36.7036 32.3839 35.3854C32.3921 33.7969 31.9759 32.3319 31.09 31.0056C30.5845 30.2483 29.9712 29.5888 29.1705 29.0456ZM12.9579 25.1047C12.9579 25.4681 12.9798 25.7722 12.9523 26.0714C12.9198 26.4309 13.0358 26.6924 13.2962 26.9524C14.1878 27.8437 15.0518 28.7608 15.9264 29.669C16.2777 30.0332 16.6273 30.3991 16.96 30.7457C17.0184 30.7361 17.0362 30.7385 17.0435 30.7304C18.3399 29.3922 19.6364 28.0531 20.9287 26.7109C20.9888 26.6491 21.0431 26.552 21.0447 26.4702C21.0561 26.0353 21.0504 25.6005 21.0504 25.0998C18.3391 26.4317 15.6684 26.422 12.9579 25.1047ZM8.09433 14.6819C7.15325 14.6915 6.44501 15.4312 6.48801 16.3306C6.52857 17.1883 7.26115 17.8694 8.09433 17.8165V14.6819ZM25.9124 14.6746V17.8389C26.8356 17.8117 27.5187 17.1337 27.5236 16.2648C27.5276 15.3967 26.8551 14.7156 25.9124 14.6746Z" fill="currentColor"/>
</svg>
