<?xml version="1.0" encoding="iso-8859-1"?>
<!-- Generator: Adobe Illustrator 27.0.0, SVG Export Plug-In . SVG Version: 6.00 Build 0)  -->
<svg version="1.1" id="Capa_1" xmlns="http://www.w3.org/2000/svg" xmlns:xlink="http://www.w3.org/1999/xlink" x="0px" y="0px"
	 viewBox="0 0 510 510" style="enable-background:new 0 0 510 510;" xml:space="preserve">
<g>
	<g>
		<g>
			<path style="fill:#93B2F4;" d="M413,456H97c-12.15,0-22,9.85-22,22v0c0,12.15,9.85,22,22,22h316c12.15,0,22-9.85,22-22v0
				C435,465.85,425.15,456,413,456z"/>
		</g>
		<g>
			<g>
				<path style="fill:#67CCD1;" d="M348.942,343.611c0-6.719-0.711-13.272-2.052-19.593l19.543-11.283l-29-50.229l-19.569,11.298
					c-9.694-8.736-21.217-15.478-33.925-19.589v-22.594h-58v22.632c-12.682,4.121-24.181,10.863-33.854,19.592l-19.64-11.339
					l-29,50.229l19.647,11.343c-1.333,6.302-2.039,12.834-2.039,19.532c0,6.705,0.708,13.243,2.043,19.55l-19.651,11.345l29,50.229
					l19.654-11.347c9.671,8.723,21.165,15.461,33.841,19.58v22.652h58v-22.614c12.702-4.109,24.221-10.847,33.912-19.577
					l19.583,11.306l29-50.229l-19.547-11.285C348.229,356.895,348.942,350.336,348.942,343.611z M254.997,383.611
					c-22.091,0-40-17.908-40-40c0-22.091,17.909-40,40-40s40,17.909,40,40C294.997,365.702,277.088,383.611,254.997,383.611z"/>
			</g>
			<g>
				<path style="fill:#27A2CC;" d="M260.021,383.285c-1.647,0.207-3.322,0.325-5.025,0.325c-22.091,0-40-17.908-40-40
					c0-22.091,17.909-40,40-40c1.703,0,3.378,0.119,5.025,0.325c4.863-18.595,13.058-35.841,23.917-51.059v-21.257h-58v22.632
					c-12.682,4.121-24.181,10.863-33.854,19.592l-19.64-11.339l-29,50.229l19.647,11.343c-1.333,6.302-2.039,12.834-2.039,19.532
					c0,6.705,0.708,13.243,2.043,19.55l-19.651,11.345l29,50.229l19.654-11.347c9.671,8.723,21.165,15.461,33.841,19.58v22.652h58
					v-21.276C273.08,419.126,264.884,401.88,260.021,383.285z"/>
			</g>
		</g>
		<g>
			<g>
				<rect x="162" y="10" style="fill:#FDCB50;" width="186" height="56"/>
			</g>
			<g>
				<g>
					<path style="fill:#D2DCFD;" d="M195.754,66v36l33.614,33c14.997,0,36.267,0,51.264,0l33.614-33V66H195.754z"/>
				</g>
			</g>
			<g>
				<rect x="231" y="135" style="fill:#6864F7;" width="48" height="44"/>
			</g>
		</g>
	</g>
	<g>
		<g>
			<path style="fill:#67CCD1;" d="M500,28H348v20h152c5.522,0,10-4.477,10-10S505.522,28,500,28z"/>
			<path style="fill:#67CCD1;" d="M0,38c0,5.523,4.477,10,10,10h152V28H10C4.477,28,0,32.477,0,38z"/>
		</g>
		<g>
			<path style="fill:#052A75;" d="M413,446H293.938v-5.989c8.974-3.617,17.332-8.443,24.975-14.422l13.521,7.806
				c4.784,2.762,10.9,1.123,13.66-3.66l29-50.229c1.326-2.297,1.686-5.026,0.999-7.588c-0.687-2.562-2.362-4.746-4.659-6.072
				l-13.493-7.79c0.667-4.781,1.003-9.615,1.003-14.445c0-4.822-0.336-9.65-1-14.426l13.49-7.789
				c2.297-1.326,3.973-3.51,4.659-6.072c0.687-2.562,0.327-5.292-0.999-7.588l-29-50.229c-2.761-4.783-8.878-6.421-13.66-3.66
				l-13.506,7.798c-7.646-5.983-16.01-10.814-24.989-14.433v-15.59c0-5.523-4.478-10-10-10h-23.923
				c3.169-5.643,4.985-12.143,4.985-19.062V189h14c5.522,0,10-4.477,10-10v-38.202l32.252-31.663
				c1.915-1.88,2.994-4.452,2.994-7.136V76H348c5.522,0,10-4.477,10-10V10c0-5.523-4.478-10-10-10H162c-5.523,0-10,4.477-10,10v56
				c0,5.523,4.477,10,10,10h23.754v26c0,2.684,1.079,5.255,2.995,7.136L221,140.798V179c0,5.523,4.477,10,10,10h14v13.558
				c0,10.511-8.551,19.062-19.062,19.062v0c-5.523,0-10,4.477-10,10v15.638c-8.956,3.623-17.296,8.45-24.922,14.424l-13.573-7.836
				c-2.296-1.325-5.025-1.685-7.588-0.999c-2.562,0.687-4.746,2.362-6.072,4.659l-29,50.229c-1.326,2.297-1.686,5.026-0.999,7.588
				c0.687,2.562,2.362,4.746,4.659,6.072l13.599,7.851c-0.659,4.753-0.991,9.561-0.991,14.364c0,4.809,0.333,9.623,0.993,14.382
				l-13.601,7.853c-4.783,2.761-6.422,8.877-3.66,13.66l29,50.229c1.326,2.297,3.51,3.973,6.072,4.659
				c2.562,0.686,5.292,0.327,7.588-0.999l13.588-7.845c7.62,5.968,15.958,10.792,24.907,14.413V446H97c-17.645,0-32,14.355-32,32
				s14.355,32,32,32h316c17.645,0,32-14.355,32-32S430.645,446,413,446z M172,20h166v36H172V20z M205.754,76h98.492v21.804
				L276.544,125h-43.087l-27.703-27.196V76z M241,145h28v24h-28V145z M198.795,405.962c-3.22-2.904-7.944-3.403-11.698-1.235
				l-10.994,6.347l-19-32.909l10.99-6.345c3.749-2.165,5.68-6.496,4.783-10.731c-1.211-5.723-1.826-11.604-1.826-17.479
				c0-5.87,0.613-11.745,1.822-17.463c0.896-4.235-1.035-8.565-4.784-10.729l-10.986-6.343l19-32.909l10.98,6.339
				c3.757,2.169,8.482,1.669,11.699-1.236c8.823-7.961,18.999-13.851,30.246-17.506c4.12-1.339,6.909-5.178,6.909-9.51v-12.632h38
				v12.594c0,4.337,2.796,8.18,6.922,9.515c11.27,3.646,21.467,9.534,30.31,17.503c3.219,2.901,7.942,3.398,11.694,1.231
				l10.909-6.298l19,32.909l-10.883,6.283c-3.751,2.165-5.681,6.499-4.782,10.735c1.218,5.74,1.835,11.633,1.835,17.517
				c0,5.891-0.618,11.79-1.838,17.532c-0.9,4.237,1.029,8.572,4.781,10.738l10.887,6.285l-19,32.909l-10.923-6.306
				c-3.75-2.166-8.474-1.67-11.693,1.23c-8.84,7.964-19.033,13.849-30.297,17.493c-4.126,1.335-6.922,5.178-6.922,9.515v12.614h-38
				v-12.652c0-4.332-2.789-8.171-6.909-9.51C217.787,419.804,207.615,413.918,198.795,405.962z M413,490H97c-6.617,0-12-5.383-12-12
				s5.383-12,12-12h316c6.617,0,12,5.383,12,12S419.617,490,413,490z"/>
			<path style="fill:#052A75;" d="M304.996,343.611c0-27.57-22.43-50-50-50c-27.57,0-50,22.43-50,50s22.43,50,50,50
				C282.566,393.611,304.996,371.181,304.996,343.611z M224.997,343.611c0-16.542,13.458-30,30-30c16.542,0,30,13.458,30,30
				s-13.458,30-30,30C238.455,373.611,224.997,360.153,224.997,343.611z"/>
		</g>
	</g>
</g>
<g>
</g>
<g>
</g>
<g>
</g>
<g>
</g>
<g>
</g>
<g>
</g>
<g>
</g>
<g>
</g>
<g>
</g>
<g>
</g>
<g>
</g>
<g>
</g>
<g>
</g>
<g>
</g>
<g>
</g>
</svg>
