<?xml version="1.0" encoding="iso-8859-1"?>
<!-- Generator: Adobe Illustrator 28.0.0, SVG Export Plug-In . SVG Version: 6.00 Build 0)  -->
<svg version="1.1" id="Layer_1" xmlns="http://www.w3.org/2000/svg" xmlns:xlink="http://www.w3.org/1999/xlink" x="0px" y="0px"
	 viewBox="0 0 510.027 510.027" style="enable-background:new 0 0 510.027 510.027;" xml:space="preserve">
<g>
	<g>
		<g>
			<g>
				
					<ellipse transform="matrix(0.7071 -0.7071 0.7071 0.7071 55.687 326.8684)" style="fill:#FD8F01;" cx="422.409" cy="96.214" rx="77.617" ry="77.617"/>
			</g>
			<g>
				
					<ellipse transform="matrix(0.2097 -0.9778 0.9778 0.2097 163.9777 550.3032)" style="fill:#FDCB50;" cx="422.409" cy="173.714" rx="77.617" ry="77.617"/>
			</g>
			<g>
				<path style="fill:#FDCB50;" d="M146.975,439.119l-95.783-76.671c-4.923-3.94-12.127-3.036-15.922,1.999l-21.896,28.767
					c-5.328,7-4.179,16.956,2.602,22.559l86.702,71.637c7.193,5.943,17.895,4.683,23.519-2.762
					c13.225-17.504,22.794-30.171,22.904-30.315C152.537,449.499,151.604,442.825,146.975,439.119z"/>
			</g>
			<g>
				<path style="fill:#FDBEB9;" d="M474.073,335.269c-11.419-23.847-37.702-12.574-39.909-11.749l-111.586,33.013
					c0,0,7.639-22.444-15.494-31.676c-64.111-25.593-71.756-29.921-87.981-30.179l-0.002-0.002
					c-50.156,0.168-59.243,0.577-84.169,11.734c-30.603,13.695-57.589,34.19-79.352,59.552l87.154,69.763l0.883-1.277
					c15.155-21.911,42.766-24.443,66.744-14.874l51.372,20.508c9.044,3.117,29.818,7.97,51.377-3.079
					c0.01-0.005,0.018-0.008,0.018-0.008c28.668-12.681,114.7-50.736,144.434-63.889
					C461.936,370.862,483.926,357.67,474.073,335.269z"/>
			</g>
			<g>
				<path style="fill:#6864F7;" d="M286.783,71.122c9.595,0,17.373,7.778,17.373,17.373v93.198c0,9.595-7.778,17.373-17.373,17.373
					H72.954c-9.595,0-17.373-7.778-17.373-17.373V88.494c0-9.595,7.778-17.373,17.373-17.373H286.783z"/>
			</g>
		</g>
		<g>
			<g>
				<path style="fill:#052A75;" d="M483.227,331.239c-0.04-0.09-0.09-0.19-0.14-0.29c-9.26-19.34-29.24-25.81-52.15-16.9
					l-97.51,28.85c-1.58-10.47-7.89-21.44-22.64-27.33c-10.6-4.23-19.66-7.88-27.46-11.03c-40.11-16.17-48.59-19.59-63.86-19.86
					h-0.4c-50.92,0.17-61.36,0.58-88.22,12.6c-28.57,12.79-54.9,31.78-76.65,55.22c-3.84-2.07-8.21-2.9-12.64-2.34
					c-5.73,0.72-10.8,3.66-14.24,8.23l-21.9,28.77c-8.61,11.31-6.77,27.27,4.19,36.32l86.7,71.64c4.78,3.95,10.63,6.05,16.73,6.05
					c1.04,0,2.09-0.06,3.15-0.19c7.22-0.84,13.61-4.5,17.99-10.3l22.9-30.31c0.06-0.08,0.12-0.16,0.17-0.24
					c5.59-7.86,5.07-18.3-0.74-25.54c13.67-13.37,34.27-12.06,50.15-5.73l51.37,20.51c0.15,0.06,0.3,0.12,0.45,0.17
					c5.02,1.73,14.4,4.29,25.93,4.29c9.89,0,21.36-1.89,33.01-7.8l144.19-63.78c0.18-0.08,0.35-0.16,0.52-0.25
					C475.287,375.249,494.537,356.969,483.227,331.239z M140.987,448.479l-22.77,30.14c-1.06,1.41-2.61,2.29-4.36,2.5
					c-1.75,0.2-3.46-0.3-4.81-1.42l-86.7-71.64c-2.66-2.19-3.1-6.05-1.02-8.79l21.93-28.8c0.2-0.27,0.47-0.42,0.8-0.46
					c0.05-0.01,0.1-0.01,0.16-0.01c0.26,0,0.51,0.08,0.73,0.26l95.78,76.67C141.197,447.299,141.307,447.969,140.987,448.479z
					 M453.227,364.089l-144.14,63.76c-0.08,0.03-0.16,0.07-0.23,0.1c-0.1,0.05-0.21,0.1-0.31,0.15c-18.27,9.37-36.24,5.01-43.34,2.6
					l-51.14-20.41c-27.99-11.18-55.6-6.6-72.89,11.38l-71.08-56.9c19.69-20.86,43.33-37.78,68.92-49.23
					c22.93-10.27,30.2-10.69,79.93-10.86c11.68,0.18,18.58,2.97,56.9,18.41c7.82,3.15,16.9,6.81,27.53,11.06
					c6.494,2.596,10.87,8.995,10.214,16.077c-0.632,6.819-6.355,12.594-13.463,10.853c-19.03-4.66-64.35-15.58-64.8-15.69
					c-5.37-1.29-10.77,2.02-12.07,7.39c-1.29,5.37,2.01,10.77,7.38,12.06c0.46,0.11,45.74,11.01,64.73,15.67
					c2.9,0.71,5.65,1.03,8.23,1.03c13.11,0,22.01-8.38,26.36-16.76l107.04-31.67c0.23-0.07,0.45-0.14,0.67-0.22l0.45-0.17
					c13.15-5.14,22.19-2.88,26.87,6.72C471.097,353.619,456.787,362.209,453.227,364.089z"/>
			</g>
			<g>
				<path style="fill:#FD6050;" d="M448.137,65.449c-0.79-0.82-6.3-6.31-14.71-9.18v-3.8c0-5.52-4.48-10-10-10
					c-5.53,0-10,4.48-10,10v3.65c-10.48,3.56-17.95,12.75-17.95,23.49c0,11.73,10.16,21.3,27.87,26.24c0.89,0.25,1.8,0.37,2.69,0.37
					c4.37,0,8.39-2.9,9.63-7.32c1.48-5.32-1.63-10.83-6.95-12.32c-9.66-2.69-12.86-6.21-13.23-7.07c0.08-1.8,2.71-5,7.65-5
					c4.65,0,9.15,3.4,10.59,4.81c1.851,1.861,8.049,4.165,13.945-1.226C452.986,73.235,450.152,67.416,448.137,65.449z"/>
			</g>
			<g>
				<path style="fill:#FD8F01;" d="M410.537,190.219c0.56,0.81,4.16,5.46,11.67,5.46c8.04,0,9.84-3.97,9.84-5.37
					c0-2.58,0-4.62-7.3-6.54c-18.6-4.9-29.27-14.62-29.27-26.67c0-10.74,7.47-19.93,17.95-23.5v-3.63c0-5.53,4.47-10,10-10
					c5.52,0,10,4.47,10,10v3.79c8.41,2.87,13.92,8.36,14.71,9.18c1.8,1.71,4.38,8.08-0.79,12.75c-5.61,5.07-10.74,3.13-13.62,1.12
					c-1.44-1.41-5.94-4.81-10.59-4.81c-4.9,0-7.52,3.16-7.65,4.96c0.6,1.37,4.87,4.97,14.35,7.47
					c18.36,4.83,22.21,16.74,22.21,25.88c0,9.66-6.45,19.8-18.62,23.7v3.71c0,5.52-4.48,10-10,10c-5.53,0-10-4.48-10-10v-3.12
					c-10.39-2.6-17.17-9.4-19.87-13.79c-1.325-2.203-2.654-8.107,3.264-12.437C403.31,183.624,409.535,188.424,410.537,190.219z"/>
			</g>
			<g>
				<path style="fill:#052A75;" d="M500.767,134.539c5.77-11.86,8.79-24.94,8.79-38.19c0-48.24-39.25-87.49-87.49-87.49
					c-48.25,0-87.49,39.25-87.49,87.49c0,13.51,3.14,26.84,9.12,38.89c-5.7,11.62-8.91,24.68-8.91,38.48
					c0,48.31,39.31,87.61,87.62,87.61c48.31,0,87.62-39.3,87.62-87.61C510.027,159.649,506.687,146.329,500.767,134.539z
					 M354.577,96.349c0-37.22,30.27-67.49,67.49-67.49c37.21,0,67.49,30.27,67.49,67.49c0,6.19-0.86,12.34-2.53,18.25
					c-16.03-17.51-39.07-28.5-64.62-28.5c-25.83,0-49.09,11.24-65.14,29.08C355.487,109.089,354.577,102.739,354.577,96.349z
					 M422.407,241.329c-37.28,0-67.62-30.33-67.62-67.61c0-37.29,30.34-67.62,67.62-67.62c37.29,0,67.62,30.33,67.62,67.62
					C490.027,210.999,459.697,241.329,422.407,241.329z"/>
			</g>
			<g>
				<path style="fill:#FFFFFF;" d="M149.807,163.119l-23.93-63.14c-0.73-1.94-2.03-3.55-3.67-4.68c-1.64-1.13-3.6-1.77-5.68-1.77
					c-4.16,0-7.88,2.57-9.35,6.45l-23.93,63.14c-1.96,5.16,0.64,10.94,5.81,12.89c1.16,0.45,2.36,0.66,3.54,0.66
					c4.03,0,7.84-2.47,9.35-6.46l3.47-9.16h22.22l3.47,9.16c1.95,5.16,7.73,7.76,12.89,5.8
					C149.167,174.059,151.757,168.279,149.807,163.119z M112.997,141.049l3.53-9.31l3.53,9.31H112.997z"/>
			</g>
			<g>
				<path style="fill:#FFFFFF;" d="M219.49,161.603c3.352,5.445,13.067,14.661,28.226,14.661c19.111,0,29.424-12.903,29.424-25.043
					c0-9.022-3.8-20.777-21.9-25.547c-9.031-2.379-13.221-5.804-13.89-7.144c0.172-1.664,2.725-4.607,7.271-4.607
					c4.555,0,10.221,4.649,10.221,4.649c3.589,2.787,9.862,3.373,14.462-0.391c4.6-3.764,2.593-11.71-0.056-13.482
					c-1.062-1.103-10.776-10.776-24.627-10.776c-15.043,0-27.281,11.117-27.281,24.782c0,11.896,10.499,21.486,28.804,26.309
					c6.996,1.843,6.996,3.769,6.996,6.207c0,1.309-1.731,5.043-9.424,5.043c-7.473,0-10.934-4.774-11.304-5.318
					c-1.471-1.882-6.007-6.282-13.184-1.91C217.444,152.559,217.344,157.367,219.49,161.603z"/>
			</g>
			<g>
				<path style="fill:#FFFFFF;" d="M173.733,176.662h-8.944c-5.522,0-10-4.477-10-10v-63.137c0-5.523,4.478-10,10-10h8.944
					c22.283,0,40.411,18.128,40.411,40.411v2.315C214.144,158.534,196.016,176.662,173.733,176.662z M174.788,113.552v43.083
					c10.767-0.551,19.355-9.483,19.355-20.384v-2.315C194.144,123.035,185.555,114.102,174.788,113.552z"/>
			</g>
			<g>
				<path style="fill:#052A75;" d="M286.783,209.065H72.954c-15.094,0-27.373-12.279-27.373-27.373V88.495
					c0-15.093,12.279-27.373,27.373-27.373h213.829c15.094,0,27.373,12.279,27.373,27.373v93.197
					C314.156,196.786,301.877,209.065,286.783,209.065z M72.954,81.122c-4.065,0-7.373,3.307-7.373,7.373v93.197
					c0,4.065,3.308,7.373,7.373,7.373h213.829c4.065,0,7.373-3.308,7.373-7.373V88.495c0-4.065-3.308-7.373-7.373-7.373H72.954z"/>
			</g>
		</g>
	</g>
</g>
<g>
</g>
<g>
</g>
<g>
</g>
<g>
</g>
<g>
</g>
<g>
</g>
<g>
</g>
<g>
</g>
<g>
</g>
<g>
</g>
<g>
</g>
<g>
</g>
<g>
</g>
<g>
</g>
<g>
</g>
</svg>
