<?xml version="1.0" encoding="iso-8859-1"?>
<!-- Generator: Adobe Illustrator 26.5.3, SVG Export Plug-In . SVG Version: 6.00 Build 0)  -->
<svg version="1.1" id="Capa_1" xmlns="http://www.w3.org/2000/svg" xmlns:xlink="http://www.w3.org/1999/xlink" x="0px" y="0px"
	 viewBox="0 0 512 512" style="enable-background:new 0 0 512 512;" xml:space="preserve">
<g>
	<g>
		<g>
			<path style="fill:#B1D952;" d="M456.089,502h-88.929V194.897c0-11.046,8.954-20,20-20h48.929c11.046,0,20,8.954,20,20V502z"/>
		</g>
		<g>
			<path style="fill:#91B706;" d="M388.06,408.249c-7.035,0-14.003-0.286-20.899-0.831V502h88.929V399.299
				C434.394,405.124,411.593,408.249,388.06,408.249z"/>
		</g>
		<g>
			<path style="fill:#FDBEB9;" d="M300.464,502h-88.929V305.202c0-11.046,8.954-20,20-20h48.929c11.046,0,20,8.954,20,20V502z"/>
		</g>
		<g>
			<path style="fill:#FD7DA0;" d="M211.535,339.741V502h88.929V393.209C267.213,381.4,237.054,363.071,211.535,339.741z"/>
		</g>
		<g>
			<circle style="fill:#FDCB50;" cx="131.786" cy="101.267" r="91.267"/>
		</g>
		<g>
			<path style="fill:#FD8F01;" d="M126.356,146.545c0-47.94,12.901-92.861,35.405-131.502C152.371,11.779,142.287,10,131.786,10
				c-50.406,0-91.267,40.862-91.267,91.267c0,49.937,40.108,90.5,89.867,91.25C127.74,177.591,126.356,162.23,126.356,146.545z"/>
		</g>
		<g>
			<path style="fill:#67CCD1;" d="M144.839,502H55.91V371.663c0-11.046,8.954-20,20-20h48.929c11.046,0,20,8.954,20,20V502z"/>
		</g>
	</g>
	<g>
		<path style="fill:#FFFFFF;" d="M144.978,91.433l-1.176-0.415c-6.841-2.414-12.748-4.499-15.233-6.859
			c-0.757-0.719-1.248-2.637-0.761-4.602c0.449-1.811,1.457-2.948,2.996-3.381c5.413-1.519,9.026,0.23,10.479,1.185l0.973,0.752
			c4.368,3.377,10.65,2.573,14.027-1.797c3.378-4.37,2.573-10.65-1.797-14.027l-1.216-0.94c-0.136-0.105-0.273-0.206-0.414-0.303
			c-1.695-1.176-4.769-2.978-8.944-4.191v-0.865c0-5.523-4.478-10-10-10s-10,4.477-10,10v1.403
			c-7.722,2.708-13.468,9.091-15.516,17.352c-2.208,8.906,0.244,18.07,6.398,23.916c5.579,5.3,12.981,7.912,22.353,11.219
			l1.165,0.411c4.93,1.742,5.432,5.276,4.985,7.934c-0.498,2.963-3.05,7.989-9.452,8.031c-6.645,0.045-8.219-0.202-13.075-3.38
			c-4.623-3.024-10.819-1.727-13.843,2.894c-3.023,4.622-1.728,10.819,2.894,13.843c5.301,3.468,9.499,5.188,14.091,5.996v0.937
			c0,5.523,4.478,10,10,10s10-4.477,10-10v-2.067c9.813-3.554,17.293-12.14,19.108-22.939
			C165.272,108.143,158.022,96.044,144.978,91.433z"/>
		<g>
			<path style="fill:#052A75;" d="M131.786,202.535c55.839,0,101.268-45.428,101.268-101.267S187.625,0,131.786,0
				S30.518,45.428,30.518,101.267S75.947,202.535,131.786,202.535z M131.786,20c44.812,0,81.268,36.456,81.268,81.267
				s-36.456,81.267-81.268,81.267s-81.268-36.456-81.268-81.267S86.974,20,131.786,20z"/>
			<path style="fill:#052A75;" d="M496.013,492h-29.924V194.897c0-16.542-13.458-30-30-30h-48.929c-16.542,0-30,13.458-30,30V492
				h-46.696V305.202c0-16.542-13.458-30-30-30h-48.929c-16.542,0-30,13.458-30,30V492h-46.696V371.663c0-16.542-13.458-30-30-30
				H75.911c-16.542,0-30,13.458-30,30V492H15.987c-5.522,0-10,4.477-10,10s4.478,10,10,10h480.026c5.522,0,10-4.477,10-10
				S501.536,492,496.013,492z M65.911,492V371.663c0-5.514,4.486-10,10-10h48.929c5.514,0,10,4.486,10,10V492H65.911z M221.536,492
				V305.202c0-5.514,4.486-10,10-10h48.929c5.514,0,10,4.486,10,10V492H221.536z M377.161,492V194.897c0-5.514,4.486-10,10-10
				h48.929c5.514,0,10,4.486,10,10V492H377.161z"/>
		</g>
		<path style="fill:#67CCD1;" d="M387.633,94.101l-12.294-38.698c-0.803-2.528-2.577-4.633-4.933-5.852s-5.1-1.454-7.626-0.65
			l-38.697,12.294c-5.263,1.672-8.175,7.295-6.502,12.558c1.672,5.264,7.294,8.175,12.559,6.503l17.058-5.419
			c-23.398,42.065-51.572,77.633-83.937,105.869c-29.021,25.319-61.482,44.874-96.482,58.121
			c-59.798,22.634-106.978,18.972-107.447,18.931c-5.492-0.466-10.338,3.595-10.818,9.092c-0.481,5.502,3.589,10.352,9.09,10.833
			c0.541,0.047,4.308,0.354,10.718,0.354c18.124,0,57.371-2.45,104.544-20.131c37.392-14.015,72.048-34.76,103.006-61.661
			c34.029-29.568,63.61-66.672,88.134-110.467l4.568,14.379c1.352,4.257,5.287,6.975,9.527,6.975c1.003,0,2.023-0.152,3.03-0.472
			C386.394,104.988,389.306,99.365,387.633,94.101z"/>
	</g>
</g>
<g>
</g>
<g>
</g>
<g>
</g>
<g>
</g>
<g>
</g>
<g>
</g>
<g>
</g>
<g>
</g>
<g>
</g>
<g>
</g>
<g>
</g>
<g>
</g>
<g>
</g>
<g>
</g>
<g>
</g>
</svg>
