<?xml version="1.0" encoding="iso-8859-1"?>
<!-- Generator: Adobe Illustrator 28.0.0, SVG Export Plug-In . SVG Version: 6.00 Build 0)  -->
<svg version="1.1" id="Layer_1" xmlns="http://www.w3.org/2000/svg" xmlns:xlink="http://www.w3.org/1999/xlink" x="0px" y="0px"
	 viewBox="0 0 512 512" style="enable-background:new 0 0 512 512;" xml:space="preserve">
<g>
	<g>
		<g>
			<g>
				<g>
					<rect x="78.746" y="10" style="fill:#FFFFFF;" width="354.509" height="492"/>
				</g>
				<g>
					<path style="fill:#D2DCFD;" d="M134.483,216.505c0-77.225,21.016-148.611,63.389-206.505H78.746v492h199.211
						C188.703,438.539,134.483,334.317,134.483,216.505z"/>
				</g>
			</g>
		</g>
		<g>
			<g>
				<rect x="136.457" y="367.672" style="fill:#FD7DA0;" width="49.787" height="67.404"/>
			</g>
			<g>
				<rect x="231.106" y="324.779" style="fill:#FDCB50;" width="49.787" height="110.298"/>
			</g>
			<g>
				<rect x="325.755" y="284.779" style="fill:#B1D952;" width="49.787" height="150.298"/>
			</g>
			<g>
				<polygon style="fill:#FD6050;" points="245.292,274.616 204.787,252.802 164.282,274.616 164.282,161.05 245.292,161.05 				"/>
			</g>
			<g>
				<circle style="fill:#FDCB50;" cx="204.787" cy="135.07" r="68.991"/>
			</g>
		</g>
	</g>
	<g>
		<g>
			<g>
				<path style="fill:#052A75;" d="M433.254,0H78.746c-5.522,0-10,4.478-10,10v492c0,5.522,4.478,10,10,10h354.508
					c5.522,0,10-4.478,10-10V10C443.254,4.478,438.776,0,433.254,0z M423.254,492H88.746V20h334.508V492z"/>
				<path style="fill:#052A75;" d="M186.245,357.673h-49.788c-5.522,0-10,4.478-10,10v67.403c0,5.522,4.478,10,10,10h49.788
					c5.522,0,10-4.478,10-10v-67.403C196.245,362.15,191.768,357.673,186.245,357.673z M176.245,425.076h-29.788v-47.403h29.788
					V425.076z"/>
				<path style="fill:#052A75;" d="M231.106,314.778c-5.522,0-10,4.478-10,10v110.298c0,5.522,4.478,10,10,10h49.787
					c5.522,0,10-4.478,10-10V324.778c0-5.522-4.478-10-10-10H231.106z M270.894,425.076h-29.787v-90.298h29.787V425.076z"/>
				<path style="fill:#052A75;" d="M325.755,445.076h49.788c5.522,0,10-4.478,10-10V284.778c0-5.522-4.478-10-10-10h-49.788
					c-5.522,0-10,4.478-10,10v150.298C315.755,440.599,320.232,445.076,325.755,445.076z M335.755,294.778h29.788v130.298h-29.788
					V294.778z"/>
				<path style="fill:#052A75;" d="M204.787,214.062c43.556,0,78.991-35.436,78.991-78.991s-35.436-78.991-78.991-78.991
					s-78.991,35.436-78.991,78.991S161.231,214.062,204.787,214.062z M204.787,76.079c32.528,0,58.991,26.463,58.991,58.991
					s-26.463,58.991-58.991,58.991s-58.991-26.463-58.991-58.991S172.259,76.079,204.787,76.079z"/>
			</g>
			<g>
				<g>
					<path style="fill:#FD6050;" d="M375.543,158.333h-52.086c-5.522,0-10-4.478-10-10s4.478-10,10-10h52.086
						c5.522,0,10,4.478,10,10S381.065,158.333,375.543,158.333z"/>
				</g>
				<g>
					<path style="fill:#FD6050;" d="M375.543,204.858h-52.086c-5.522,0-10-4.478-10-10s4.478-10,10-10h52.086
						c5.522,0,10,4.478,10,10S381.065,204.858,375.543,204.858z"/>
				</g>
				<g>
					<path style="fill:#FD6050;" d="M375.543,112.085h-52.086c-5.522,0-10-4.478-10-10s4.478-10,10-10h52.086
						c5.522,0,10,4.478,10,10S381.065,112.085,375.543,112.085z"/>
				</g>
			</g>
		</g>
		<g>
			<path style="fill:#FFFFFF;" d="M204.787,158.657c-5.522,0-10-4.478-10-10v-27.174c0-5.522,4.478-10,10-10s10,4.478,10,10v27.174
				C214.787,154.18,210.31,158.657,204.787,158.657z"/>
		</g>
	</g>
</g>
<g>
</g>
<g>
</g>
<g>
</g>
<g>
</g>
<g>
</g>
<g>
</g>
<g>
</g>
<g>
</g>
<g>
</g>
<g>
</g>
<g>
</g>
<g>
</g>
<g>
</g>
<g>
</g>
<g>
</g>
</svg>
