<?xml version="1.0" encoding="iso-8859-1"?>
<!-- Generator: Adobe Illustrator 26.5.3, SVG Export Plug-In . SVG Version: 6.00 Build 0)  -->
<svg version="1.1" id="Capa_1" xmlns="http://www.w3.org/2000/svg" xmlns:xlink="http://www.w3.org/1999/xlink" x="0px" y="0px"
	 viewBox="0 0 510.003 510.003" style="enable-background:new 0 0 510.003 510.003;" xml:space="preserve">
<g>
	<g>
		<path style="fill:#FDCB50;" d="M360.837,251.318c0,95.712-77.59,173.302-173.302,173.302S14.233,347.03,14.233,251.318
			S91.823,42.594,187.535,42.594S360.837,155.605,360.837,251.318z"/>
		<path style="fill:#FD8F01;" d="M187.667,305.169c-74.332,0-138.111-45.179-165.378-109.575
			c-5.228,18.602-8.056,37.477-8.056,55.724c0,95.712,77.59,173.302,173.302,173.302s173.302-77.59,173.302-173.302
			c0-18.128-2.789-36.876-7.952-55.361C325.533,260.158,261.858,305.169,187.667,305.169z"/>
		<path style="fill:#BC9AF4;" d="M235.78,349.237h-96.49c-71.404,0-129.288,57.884-129.288,129.288v21.478h355.066v-21.478
			C365.068,407.121,307.184,349.237,235.78,349.237z"/>
		<path style="fill:#6864F7;" d="M136.242,391.238c0-14.601,2.149-28.697,6.132-42.002h-3.084
			c-71.404,0-129.288,57.884-129.288,129.288v21.479H184.72C154.96,473.229,136.242,434.422,136.242,391.238z"/>
		<path style="fill:#F7B073;" d="M149.74,313.129v45.25c0,20.873,16.921,37.795,37.795,37.795h0
			c20.873,0,37.795-16.921,37.795-37.795v-45.25H149.74z"/>
		<path style="fill:#FDE0BE;" d="M219.626,118.783c-14.828,20.149-38.7,33.231-65.636,33.231H89.807v69.812
			c0,53.973,43.754,97.727,97.727,97.727h0c53.973,0,97.727-43.754,97.727-97.727v-69.812
			C258.326,152.014,234.454,138.932,219.626,118.783z"/>
		<path style="fill:#F7B073;" d="M219.626,118.783c-14.828,20.149-38.7,33.231-65.636,33.231H89.807v45.242
			c4.98,1.665,10.304,2.581,15.844,2.581h164.03c5.443,0,10.677-0.883,15.581-2.492v-45.331
			C258.326,152.014,234.454,138.932,219.626,118.783z"/>
		<path style="fill:#FDCB50;" d="M176.768,153.492c-1.897,26.838-16.657,52.286-41.711,66.751
			c-40.087,23.144-53.822,74.403-30.677,114.49c3.529,6.113,7.712,11.612,12.409,16.462l-58.211,15.898
			c0,0-54.484-45.933-38.714-147.924s64.83-110.752,64.83-110.752L176.768,153.492z"/>
		<path style="fill:#FD8F01;" d="M94.296,279.001c-30.926-18.871-55.692-46.833-70.593-80.173
			c-1.427,6.335-2.72,13.095-3.841,20.341C4.093,321.159,58.577,367.092,58.577,367.092l58.211-15.897
			c-4.697-4.85-8.88-10.35-12.409-16.462C94.254,317.197,91.187,297.524,94.296,279.001z"/>
		<g>
			<path style="fill:#DB4B86;" d="M174.975,35.337L174.975,35.337c-10.695-8.826-24.129-13.653-37.996-13.653h0
				c-44.888,0-81.277,36.389-81.277,81.277v0c0,27.586,22.363,49.949,49.949,49.949h164.03c27.586,0,49.949-22.363,49.949-49.949v0
				c0-27.586-22.363-49.949-49.949-49.949h-45.517C206.212,53.012,188.821,46.763,174.975,35.337z"/>
		</g>
		<g>
			<ellipse style="fill:#D46B5C;" cx="466.231" cy="380.512" rx="29.041" ry="119.491"/>
			<path style="fill:#FFFFFF;" d="M494.271,349.316c-3.335-50.863-14.623-88.295-28.039-88.295
				c-13.416,0-24.705,37.432-28.039,88.295H494.271z"/>
			<g>
				<path style="fill:#B1D952;" d="M489.68,240.435c-8.802-8.494-13.205-19.807-13.189-31.118
					c-24.477,5.664-42.911,27.109-43.975,53.047c-0.797,19.431,14.308,36.16,33.756,36.139c18.632-0.02,33.729-15.13,33.729-33.767
					C500.002,255.194,496.044,246.577,489.68,240.435z"/>
			</g>
		</g>
	</g>
	<g>
		<g>
			<path style="fill:#FD7DA0;" d="M187.535,268.919c-8.322,0-16.646-3.168-22.981-9.503c-3.905-3.905-3.905-10.237,0-14.142
				c3.904-3.905,10.236-3.906,14.143,0c4.873,4.874,12.805,4.874,17.678,0c3.907-3.905,10.237-3.904,14.143,0
				c3.905,3.905,3.905,10.237,0,14.142C204.18,265.751,195.857,268.919,187.535,268.919z"/>
		</g>
		<g>
			<path style="fill:#052A75;" d="M325.461,372.04c29.334-33.431,45.376-75.878,45.376-120.723
				c0-44.325-15.694-92.554-43.185-133.082c1.287-4.879,1.979-9.997,1.979-15.275c0-33.056-26.894-59.949-59.949-59.949h-45.518
				c-9.024,0-17.916-1.842-26.14-5.309c1.598-8.179,7.129-15.157,15.01-18.49c5.087-2.151,7.466-8.019,5.314-13.105
				s-8.019-7.467-13.105-5.314c-11.778,4.982-20.633,14.515-24.892,26.05c-12.297-9.776-27.641-15.159-43.37-15.159
				c-50.33,0-91.276,40.947-91.276,91.277c0,5.179,0.661,10.206,1.901,15.002c-27.61,40.585-43.371,88.913-43.371,133.355
				c0,44.839,16.042,87.291,45.376,120.723C19.295,397.611,0.002,435.854,0.002,478.525v21.479c0,5.523,4.478,10,10,10h355.066
				c5.522,0,10-4.477,10-10v-21.479C375.068,435.854,355.775,397.611,325.461,372.04z M350.837,251.318
				c0,40.559-14.719,78.922-41.613,108.908c-21.336-13.294-46.507-20.989-73.444-20.989h-0.45v-20.885
				c35.486-17.643,59.933-54.279,59.933-96.524v-64.662c8.733-4.138,16.31-10.326,22.113-17.938
				C338.766,174.311,350.837,214.377,350.837,251.318z M139.74,339.236h-0.45c-6.339,0-12.577,0.434-18.693,1.258
				c-2.818-3.342-5.353-6.944-7.558-10.762c-7.263-12.579-10.581-26.687-9.793-40.859c9.908,12.408,22.406,22.438,36.494,29.431
				V339.236z M269.681,162.91c1.883,0,3.742-0.098,5.581-0.269v59.185c0,48.373-39.355,87.727-87.728,87.727
				c-32.688,0-62.764-18.389-77.806-47.186c6.303-13.991,16.776-25.64,30.327-33.464c24.485-14.137,41.11-38.383,45.663-65.993
				H269.681z M159.74,325.868c8.951,2.406,18.281,3.686,27.795,3.686c9.608,0,18.924-1.271,27.795-3.643v32.468
				c0,15.326-12.469,27.795-27.795,27.795s-27.795-12.469-27.795-27.795V325.868z M136.979,31.684
				c11.516,0,22.749,4.037,31.632,11.366h-0.001c15.6,12.873,35.328,19.962,55.554,19.962h45.518
				c22.028,0,39.949,17.921,39.949,39.949s-17.921,39.949-39.949,39.949H105.652c-22.028,0-39.949-17.921-39.949-39.949
				C65.703,63.659,97.677,31.684,136.979,31.684z M24.233,251.318c0-37.022,12.112-77.154,33.576-112.281
				c10.953,14.49,28.321,23.873,47.843,23.873h59.712c-4.303,20.369-17.014,38.11-35.308,48.673
				c-21.701,12.529-37.225,32.759-43.71,56.963c-6.485,24.204-3.157,49.485,9.372,71.187c1.067,1.848,2.201,3.654,3.387,5.421
				c-11.822,3.569-22.984,8.669-33.258,15.07C38.953,330.238,24.233,291.87,24.233,251.318z M355.068,490.003H20.002v-11.479
				c0-65.776,53.513-119.288,119.288-119.288h0.472c0.461,25.958,21.706,46.938,47.773,46.938s47.312-20.979,47.773-46.938h0.472
				c65.775,0,119.288,53.512,119.288,119.288V490.003z"/>
			<path style="fill:#052A75;" d="M510.002,264.736c0-11.986-4.751-23.171-13.377-31.496c0,0,0,0-0.001-0.001
				c-6.547-6.317-10.146-14.808-10.133-23.908c0.004-3.051-1.385-5.937-3.771-7.837c-2.388-1.901-5.512-2.606-8.483-1.919
				c-29.218,6.762-50.482,32.413-51.711,62.38c-0.504,12.283,4.062,24.381,12.527,33.19c0.153,0.159,0.314,0.308,0.469,0.465
				c-5.384,23.067-8.331,52.944-8.331,84.902c0,32.689,3.121,63.535,8.789,86.855c6.973,28.69,16.868,42.636,30.252,42.636
				s23.279-13.946,30.253-42.636c5.668-23.32,8.789-54.166,8.789-86.855c0-31.843-2.929-61.64-8.281-84.681
				C505.018,287.891,510.002,276.884,510.002,264.736z M442.507,262.774c0.705-17.19,10.819-32.355,25.697-39.89
				c2.428,9.337,7.384,17.85,14.532,24.748c4.685,4.521,7.265,10.596,7.265,17.104c0,13.091-10.65,23.753-23.74,23.767
				c-0.009,0-0.017,0-0.025,0c-6.339,0-12.291-2.562-16.763-7.215C444.765,276.388,442.226,269.64,442.507,262.774z
				 M485.273,380.512c0,28.533-2.511,55.91-7.07,77.09c-4.451,20.679-9.504,29.263-11.972,31.813
				c-2.467-2.55-7.52-11.135-11.971-31.814c-4.56-21.18-7.07-48.557-7.07-77.089c0-27.11,2.312-53.303,6.423-73.889
				c4.039,1.235,8.278,1.88,12.622,1.88c0.017,0,0.032,0,0.048,0c4.369-0.005,8.587-0.662,12.57-1.864
				C482.962,327.226,485.273,353.42,485.273,380.512z"/>
		</g>
	</g>
</g>
<g>
</g>
<g>
</g>
<g>
</g>
<g>
</g>
<g>
</g>
<g>
</g>
<g>
</g>
<g>
</g>
<g>
</g>
<g>
</g>
<g>
</g>
<g>
</g>
<g>
</g>
<g>
</g>
<g>
</g>
</svg>
