<?xml version="1.0" encoding="iso-8859-1"?>
<!-- Generator: Adobe Illustrator 27.8.1, SVG Export Plug-In . SVG Version: 6.00 Build 0)  -->
<svg version="1.1" id="Layer_1" xmlns="http://www.w3.org/2000/svg" xmlns:xlink="http://www.w3.org/1999/xlink" x="0px" y="0px"
	 viewBox="0 0 512 512" style="enable-background:new 0 0 512 512;" xml:space="preserve">
<g>
	<g>
		<g>
			<g>
				<g>
					<g>
						<path style="fill:#D2DCFD;" d="M502,425.649H10V307.742c0-20.808,16.868-37.676,37.676-37.676h416.647
							c20.808,0,37.676,16.868,37.676,37.676V425.649z"/>
					</g>
				</g>
			</g>
		</g>
		<g>
			<g>
				<g>
					<g>
						<g>
							<path style="fill:#93B2F4;" d="M121.859,270.066H47.676C26.868,270.066,10,286.934,10,307.742v117.907h269.805
								C206.811,399.866,148.708,342.55,121.859,270.066z"/>
						</g>
					</g>
				</g>
			</g>
		</g>
		<g>
			<g>
				<g>
					<g>
						<g>
							<rect x="10" y="347.857" style="fill:#FB6150;" width="492" height="77.792"/>
						</g>
					</g>
				</g>
			</g>
		</g>
		<g>
			<g>
				<g>
					<g>
						<g>
							<path style="fill:#DB4B86;" d="M167.301,347.857H10v77.792h269.805C235.646,410.051,196.937,382.913,167.301,347.857z"/>
						</g>
					</g>
				</g>
			</g>
		</g>
		<g>
			<g>
				<g>
					<g>
						<path style="fill:#FDE0BE;" d="M468.747,270.066H43.253V125.824c0-20.49,16.61-37.1,37.1-37.1h351.294
							c20.49,0,37.1,16.61,37.1,37.1V270.066z"/>
					</g>
				</g>
			</g>
		</g>
		<g>
			<g>
				<g>
					<g>
						<path style="fill:#F7B073;" d="M105.678,179.373c0-31.872,5.711-62.411,16.164-90.648H80.353c-20.49,0-37.1,16.61-37.1,37.1
							v144.242h78.606C111.395,241.816,105.678,211.262,105.678,179.373z"/>
					</g>
				</g>
			</g>
		</g>
		<g>
			<g>
				<g>
					<g>
						<g>
							<path style="fill:#FFFFFF;" d="M230.092,270.066H99.64v-57.852c0-21.008,17.031-38.039,38.039-38.039h54.374
								c21.008,0,38.039,17.031,38.039,38.039V270.066z"/>
						</g>
					</g>
				</g>
			</g>
			<g>
				<g>
					<g>
						<g>
							<g>
								<path style="fill:#FFFFFF;" d="M412.36,270.066H281.908v-57.852c0-21.008,17.031-38.039,38.039-38.039h54.374
									c21.008,0,38.039,17.031,38.039,38.039V270.066z"/>
							</g>
						</g>
					</g>
				</g>
			</g>
		</g>
		<g>
			<g>
				<g>
					<g>
						<g>
							<g>
								<ellipse style="fill:#6864F7;" cx="108.366" cy="59.464" rx="29.015" ry="29.26"/>
							</g>
						</g>
					</g>
				</g>
			</g>
			<g>
				<g>
					<g>
						<g>
							<g>
								<ellipse style="fill:#BC9AF4;" cx="403.634" cy="59.464" rx="29.015" ry="29.26"/>
							</g>
						</g>
					</g>
				</g>
			</g>
		</g>
		<g>
			<g>
				<g>
					<g>
						<g>
							<polygon style="fill:#6864F7;" points="76.577,481.796 38.275,481.796 38.275,425.649 124.329,425.649 							"/>
						</g>
					</g>
				</g>
			</g>
			<g>
				<g>
					<g>
						<g>
							<polygon style="fill:#BC9AF4;" points="432.074,481.796 470.377,481.796 470.377,425.649 384.323,425.649 							"/>
						</g>
					</g>
				</g>
			</g>
		</g>
	</g>
	<path style="fill:#052A75;" d="M478.747,262.296V125.824c0-24.016-18.069-43.891-41.325-46.747
		c3.323-5.774,5.227-12.474,5.227-19.614c0-21.648-17.502-39.26-39.015-39.26s-39.015,17.612-39.015,39.26
		c0,6.994,1.827,13.567,5.026,19.261H142.355c3.199-5.694,5.026-12.266,5.026-19.261c0-21.648-17.502-39.26-39.015-39.26
		s-39.015,17.612-39.015,39.26c0,7.139,1.904,13.839,5.227,19.614c-23.257,2.856-41.325,22.731-41.325,46.747v136.472
		C13.993,268.423,0,286.479,0,307.742v117.907c0,5.523,4.477,10,10,10h18.275v46.147c0,5.523,4.477,10,10,10h38.302
		c2.933,0,5.718-1.288,7.618-3.521l44.757-52.626h250.75l44.755,52.626c1.9,2.234,4.686,3.521,7.618,3.521h38.303
		c5.522,0,10-4.477,10-10v-46.147H502c5.522,0,10-4.477,10-10V307.742C512,286.479,498.007,268.423,478.747,262.296z
		 M384.619,59.464c0-10.62,8.53-19.26,19.015-19.26s19.015,8.64,19.015,19.26c0,10.621-8.53,19.261-19.015,19.261
		S384.619,70.084,384.619,59.464z M108.366,40.204c10.485,0,19.015,8.64,19.015,19.26c0,10.621-8.53,19.261-19.015,19.261
		s-19.015-8.64-19.015-19.261C89.352,48.844,97.881,40.204,108.366,40.204z M53.253,125.824c0-14.943,12.157-27.1,27.1-27.1h351.294
		c14.942,0,27.1,12.157,27.1,27.1v134.242h-36.388v-47.852c0-26.489-21.55-48.04-48.039-48.04h-54.373
		c-26.489,0-48.04,21.55-48.04,48.04v47.852h-31.815v-47.852c0-26.489-21.55-48.04-48.039-48.04H137.68
		c-26.489,0-48.04,21.55-48.04,48.04v47.852H53.253V125.824z M402.359,260.066H291.907v-47.852c0-15.461,12.579-28.04,28.04-28.04
		h54.373c15.461,0,28.039,12.579,28.039,28.04V260.066z M220.092,260.066H109.64v-47.852c0-15.461,12.579-28.04,28.04-28.04h54.374
		c15.461,0,28.039,12.579,28.039,28.04V260.066z M47.676,280.066h416.648c15.261,0,27.676,12.416,27.676,27.676v30.115H20v-30.115
		C20,292.481,32.416,280.066,47.676,280.066z M71.955,471.796h-23.68v-36.147h54.421L71.955,471.796z M460.377,471.796h-23.68
		l-30.742-36.147h54.422V471.796z M492,415.649H20v-57.792h472V415.649z"/>
</g>
<g>
</g>
<g>
</g>
<g>
</g>
<g>
</g>
<g>
</g>
<g>
</g>
<g>
</g>
<g>
</g>
<g>
</g>
<g>
</g>
<g>
</g>
<g>
</g>
<g>
</g>
<g>
</g>
<g>
</g>
</svg>
