<?xml version="1.0" encoding="iso-8859-1"?>
<!-- Generator: Adobe Illustrator 27.2.0, SVG Export Plug-In . SVG Version: 6.00 Build 0)  -->
<svg version="1.1" id="Capa_1" xmlns="http://www.w3.org/2000/svg" xmlns:xlink="http://www.w3.org/1999/xlink" x="0px" y="0px"
	 viewBox="0 0 510 510" style="enable-background:new 0 0 510 510;" xml:space="preserve">
<g>
	<g>
		<g>
			<rect x="10" y="10" style="fill:#FFFFFF;" width="245" height="343"/>
			<path style="fill:#D2DCFD;" d="M81.879,173.333c0-60.018,17.215-116.008,46.952-163.333H10v343h129.834
				C103.375,302.461,81.879,240.411,81.879,173.333z"/>
		</g>
		<g>
			<path style="fill:#FD7DA0;" d="M402,304c27.044,0,49,21.956,49,49c-2.655,65.012-95.355,64.993-98,0
				C353,325.956,374.956,304,402,304z"/>
			<path style="fill:#FD7DA0;" d="M500,500c-5.177-130.027-190.87-129.928-196,0H500z"/>
		</g>
	</g>
	<g>
		<g>
			<path style="fill:#052A75;" d="M171.9,178.234c0-12.102-6.275-28.669-36.174-38.866c-10.322-3.521-22.627-9.837-22.627-19.935
				c-0.035-17.157,21.038-25.893,33.115-13.714c9.748,9.008,23.149-4.396,14.141-14.143c-5.023-5.023-11.163-8.515-17.856-10.261
				v-5.983c0-5.523-4.477-10-10-10c-5.522,0-10,4.477-10,10v5.99c-16.897,4.438-29.399,19.84-29.399,38.11
				c0,12.101,6.275,28.667,36.171,38.864c10.324,3.521,22.63,9.838,22.63,19.936c0,10.697-8.703,19.4-19.401,19.4
				c-12.81,0-23.73-6.86-23.96-7.006c-4.62-2.997-10.794-1.693-13.809,2.917c-3.022,4.622-1.727,10.82,2.896,13.843
				c0.522,0.342,10.786,6.956,24.873,9.371v5.574c0,5.523,4.478,10,10,10c5.523,0,10-4.477,10-10v-5.989
				C159.397,211.908,171.9,196.505,171.9,178.234z"/>
			<path style="fill:#052A75;" d="M255,363H10c-5.523,0-10-4.477-10-10V10C0,4.477,4.477,0,10,0h245c5.522,0,10,4.477,10,10v343
				C265,358.523,260.522,363,255,363z M20,343h225V20H20V343z"/>
			<path style="fill:#93B2F4;" d="M173.333,297.667H91.667c-13.243-0.516-13.282-19.466,0-20c0,0,81.666,0,81.666,0
				c5.523,0,10,4.477,10,10C183.333,293.19,178.855,297.667,173.333,297.667z"/>
		</g>
		<path style="fill:#052A75;" d="M439.327,398.652C481.791,363.941,457.53,294.255,401.999,294
			c-55.533,0.255-79.79,69.951-37.326,104.652C323.461,413.879,294,453.563,294,500c0,5.523,4.478,10,10,10h196
			c5.522,0,10-4.477,10-10C510,453.563,480.539,413.879,439.327,398.652z M363,353c0-21.505,17.495-39,39-39
			c51.739,2.142,51.724,75.866,0,78C380.495,392,363,374.505,363,353z M314.565,490c14.466-103.443,160.445-103.367,174.871,0
			H314.565z"/>
		<path style="fill:#FD8F01;" d="M441.738,198.929c-3.904-3.905-10.234-3.905-14.143-0.001L412,214.524v-73.861
			C412,90.12,370.88,49,320.337,49c-5.522,0-10,4.477-10,10c0,5.523,4.478,10,10,10C359.853,69,392,101.148,392,140.664v73.861
			l-15.596-15.596c-3.906-3.905-10.236-3.905-14.143,0.001c-3.905,3.905-3.905,10.237,0,14.142l32.667,32.666
			c3.73,3.864,10.413,3.864,14.143,0l32.667-32.666C445.644,209.166,445.644,202.835,441.738,198.929z"/>
	</g>
</g>
<g>
</g>
<g>
</g>
<g>
</g>
<g>
</g>
<g>
</g>
<g>
</g>
<g>
</g>
<g>
</g>
<g>
</g>
<g>
</g>
<g>
</g>
<g>
</g>
<g>
</g>
<g>
</g>
<g>
</g>
</svg>
