<?xml version="1.0" encoding="iso-8859-1"?>
<!-- Generator: Adobe Illustrator 26.5.3, SVG Export Plug-In . SVG Version: 6.00 Build 0)  -->
<svg version="1.1" id="Capa_1" xmlns="http://www.w3.org/2000/svg" xmlns:xlink="http://www.w3.org/1999/xlink" x="0px" y="0px"
	 viewBox="0 0 512.004 512.004" style="enable-background:new 0 0 512.004 512.004;" xml:space="preserve">
<g>
	<g>
		<g>
			<path style="fill:#D2DCFD;" d="M426.465,173.603h-12.708c-7.586,0-14.309-4.878-16.663-12.09
				c-2.614-8.008-5.828-15.745-9.591-23.155c-3.44-6.774-2.151-14.985,3.221-20.357l8.988-8.988c6.851-6.851,6.851-17.958,0-24.808
				l-29.91-29.91c-6.85-6.851-17.957-6.851-24.808,0l-8.988,8.988c-5.372,5.372-13.583,6.661-20.357,3.221
				c-7.411-3.763-15.147-6.978-23.155-9.591c-7.212-2.354-12.09-9.077-12.09-16.663V27.542c0-9.688-7.854-17.542-17.542-17.542
				h-42.298c-9.688,0-17.542,7.854-17.542,17.542V40.25c0,7.586-4.878,14.309-12.09,16.663c-8.008,2.614-15.744,5.828-23.155,9.591
				c-6.773,3.44-14.985,2.151-20.357-3.221l-8.988-8.988c-6.851-6.851-17.958-6.851-24.808,0l-29.91,29.91
				c-6.851,6.851-6.851,17.958,0,24.808l8.988,8.988c5.372,5.372,6.661,13.583,3.221,20.357c-3.763,7.411-6.978,15.147-9.591,23.155
				c-2.354,7.212-9.077,12.09-16.663,12.09H56.96c-9.688,0-17.542,7.854-17.542,17.542v42.299c0,9.688,7.854,17.542,17.542,17.542
				h12.708c7.586,0,14.309,4.879,16.663,12.09c2.614,8.008,5.828,15.745,9.591,23.155c3.44,6.774,2.151,14.985-3.221,20.357
				l-8.988,8.988c-6.851,6.851-6.851,17.958,0,24.808l29.91,29.91c6.851,6.851,17.958,6.851,24.808,0l8.988-8.988
				c5.372-5.372,13.583-6.661,20.357-3.221c7.411,3.764,15.147,6.978,23.155,9.591c7.212,2.354,12.09,9.077,12.09,16.663v12.708
				c0,9.688,7.854,17.542,17.542,17.542h42.298c9.688,0,17.542-7.854,17.542-17.542v-12.708c0-7.586,4.879-14.309,12.09-16.663
				c8.008-2.614,15.745-5.828,23.155-9.591c6.773-3.44,14.985-2.151,20.357,3.221l8.988,8.988c6.851,6.851,17.958,6.851,24.808,0
				l29.91-29.91c6.85-6.851,6.851-17.958,0-24.808l-8.988-8.988c-5.372-5.372-6.661-13.583-3.221-20.357
				c3.763-7.411,6.978-15.147,9.591-23.155c2.354-7.212,9.077-12.09,16.663-12.09h12.708c9.688,0,17.542-7.854,17.542-17.542
				v-42.299C444.006,181.457,436.153,173.603,426.465,173.603z M241.712,309.952c-53.935,0-97.658-43.723-97.658-97.658
				c0-53.935,43.723-97.658,97.658-97.658s97.658,43.723,97.658,97.658C339.37,266.229,295.647,309.952,241.712,309.952z"/>
		</g>
		<g>
			<path style="fill:#93B2F4;" d="M397.093,263.076c2.354-7.212,9.077-12.09,16.663-12.09h12.708
				c9.688,0,17.542-7.854,17.542-17.542v-42.298c0-3.894-1.284-7.479-3.43-10.389c-32.491,0.981-68.194,3.65-103.755,9.284
				c1.666,7.149,2.549,14.598,2.549,22.255c0,53.935-43.723,97.658-97.658,97.658c-36.092,0-67.608-19.581-84.512-48.698
				c-30.424,22.22-56.675,46.622-77.906,71.7c0.802,2.719,2.274,5.283,4.42,7.428l29.91,29.91c6.851,6.851,17.958,6.851,24.808,0
				l8.988-8.988c5.372-5.372,13.583-6.661,20.357-3.221c7.411,3.764,15.147,6.978,23.155,9.591
				c7.212,2.354,12.09,9.077,12.09,16.662v12.708c0,9.688,7.854,17.542,17.542,17.542h42.298c9.688,0,17.542-7.854,17.542-17.542
				v-12.708c0-7.586,4.879-14.309,12.09-16.663c8.008-2.614,15.745-5.828,23.155-9.591c6.773-3.44,14.985-2.151,20.357,3.221
				l8.988,8.988c6.851,6.851,17.958,6.851,24.808,0l29.91-29.91c6.85-6.851,6.851-17.958,0-24.808l-8.988-8.988
				c-5.372-5.372-6.661-13.583-3.221-20.357C391.266,278.82,394.48,271.084,397.093,263.076z"/>
		</g>
		<g>
			<path style="fill:#FDCB50;" d="M192.5,357.896c-23.364,20.645-39.066,51.787-48.056,74.01
				c-5.65,13.965,3.864,29.467,18.874,30.752c23.886,2.046,58.762,2.146,87.748-9.339L192.5,357.896z"/>
		</g>
		<g>
			<path style="fill:#FFFFFF;" d="M250.062,451.731c34.015,1.162,76.881-11.1,117.848-36.244
				c45.376-27.849,80.976-88.189,101.371-129.73c10.345-21.071-4.76-45.683-28.232-45.999
				c-46.273-0.624-116.192,3.799-161.568,31.648c-40.967,25.143-71.309,57.812-85.674,88.667L250.062,451.731z"/>
		</g>
		<g>
			<path style="fill:#FD6050;" d="M416.507,370.758c22.422-27.649,40.439-59.866,52.829-85.112
				c10.299-20.987-4.786-45.566-28.162-45.885c-28.12-0.384-65.003,1.094-99.808,8.567L416.507,370.758z"/>
		</g>
		<g>
			<path style="fill:#FD6050;" d="M183.432,292.891c29.167-17.901,60.738-19.497,70.516-3.565s-5.939,43.359-35.106,61.26
				c-18.287,11.224-44.02,11.405-60.673,9.978c-8.831-0.757-14.429-9.877-11.105-18.094
				C153.332,326.977,165.145,304.115,183.432,292.891z"/>
		</g>
		<g>
			<path style="fill:#FD6050;" d="M305.266,491.4c29.167-17.901,44.884-45.328,35.106-61.26
				c-9.778-15.932-41.35-14.336-70.516,3.565c-18.287,11.224-30.1,34.086-36.368,49.58c-3.324,8.217,2.274,17.338,11.105,18.094
				C261.246,502.805,286.979,502.624,305.266,491.4z"/>
		</g>
	</g>
	<g>
		<g>
			<path style="fill:#6864F7;" d="M344.541,361.263c-3.362,0-6.645-1.695-8.532-4.771l-20.83-33.939
				c-2.889-4.707-1.415-10.865,3.292-13.754c4.708-2.887,10.865-1.415,13.754,3.292l20.83,33.939
				c2.889,4.707,1.415,10.865-3.292,13.754C348.131,360.786,346.325,361.263,344.541,361.263z"/>
		</g>
		<path style="fill:#052A75;" d="M476.37,249.744c-5.241-8.539-13.172-14.742-22.363-17.814v-40.785
			c0-15.187-12.355-27.542-27.542-27.542h-12.708c-3.267,0-6.143-2.087-7.157-5.193c-2.746-8.413-6.171-16.683-10.181-24.581
			c-1.487-2.928-0.935-6.447,1.375-8.757l8.988-8.987c10.738-10.739,10.738-28.212,0-38.951l-29.91-29.909
			c-10.739-10.739-28.211-10.74-38.951,0l-8.988,8.987c-2.31,2.311-5.83,2.862-8.757,1.376c-7.894-4.009-16.164-7.435-24.581-10.182
			c-3.106-1.013-5.193-3.889-5.193-7.156V27.542C290.403,12.355,278.048,0,262.861,0h-42.298c-15.187,0-27.542,12.355-27.542,27.542
			V40.25c0,3.267-2.087,6.143-5.193,7.156c-8.414,2.746-16.684,6.172-24.581,10.182c-2.929,1.488-6.448,0.934-8.757-1.375
			l-8.988-8.988c-10.738-10.739-28.211-10.74-38.95,0L76.643,77.134c-10.739,10.739-10.739,28.212,0,38.951l8.987,8.987
			c2.31,2.311,2.863,5.83,1.376,8.758c-4.009,7.895-7.435,16.165-10.181,24.58c-1.014,3.106-3.89,5.193-7.157,5.193H56.96
			c-15.187,0-27.542,12.355-27.542,27.542v42.298c0,15.187,12.355,27.542,27.542,27.542h12.708c3.267,0,6.143,2.087,7.156,5.193
			c2.747,8.417,6.173,16.687,10.182,24.581c1.487,2.928,0.934,6.447-1.376,8.757l-8.987,8.988c-10.739,10.738-10.739,28.211,0,38.95
			l29.909,29.909c5.37,5.369,12.422,8.054,19.475,8.054c7.053,0,14.106-2.685,19.475-8.054l7.591-7.59
			c1.365,0.374,2.775,0.631,4.223,0.755c4.635,0.397,9.73,0.662,15.078,0.662c5.162,0,10.56-0.251,16.006-0.863
			c0.011,0.017,0.018,0.036,0.029,0.053l50.039,81.531c-6.13,9.321-10.821,19.147-14.25,27.623
			c-2.788,6.89-2.153,14.481,1.742,20.826c3.894,6.345,10.375,10.348,17.78,10.982c4.636,0.397,9.728,0.662,15.075,0.662
			c16.89,0,36.301-2.641,51.682-12.081c15.509-9.519,28.153-21.92,35.603-34.919c6.019-10.504,8.268-20.678,6.719-29.614
			c6.865-3.498,13.681-7.303,20.323-11.38c46.614-28.609,82.891-88.577,105.116-133.845
			C484.636,277.173,483.93,262.062,476.37,249.744z M120.694,363.221l-29.909-29.909c-2.941-2.94-2.941-7.725,0-10.666l8.988-8.988
			c8.447-8.447,10.482-21.289,5.065-31.956c-3.544-6.978-6.572-14.289-9-21.729c-3.707-11.357-14.223-18.988-26.169-18.988H56.96
			c-4.159,0-7.542-3.383-7.542-7.542v-42.298c0-4.159,3.383-7.542,7.542-7.542h12.708c11.946,0,22.462-7.63,26.17-18.988
			c2.428-7.44,5.456-14.75,9-21.729c5.417-10.667,3.381-23.508-5.066-31.957l-8.987-8.987c-2.941-2.94-2.941-7.725,0-10.666
			l29.91-29.91c2.939-2.939,7.724-2.941,10.666,0l8.988,8.988c8.448,8.447,21.289,10.482,31.956,5.065
			c6.98-3.545,14.291-6.573,21.729-9c11.357-3.707,18.988-14.223,18.988-26.169V27.542c0-4.159,3.383-7.542,7.542-7.542h42.298
			c4.159,0,7.542,3.383,7.542,7.542V40.25c0,11.946,7.631,22.463,18.988,26.169c7.44,2.429,14.751,5.457,21.729,9.001
			c10.667,5.417,23.509,3.382,31.956-5.065l8.988-8.988c2.94-2.939,7.725-2.94,10.666,0l29.91,29.91
			c2.941,2.94,2.941,7.725,0,10.666l-8.988,8.987c-8.447,8.448-10.483,21.29-5.065,31.956c3.545,6.981,6.573,14.292,9,21.729
			c3.706,11.357,14.223,18.988,26.169,18.988h12.708c4.159,0,7.542,3.383,7.542,7.542v38.563
			c-26.532-0.052-57.57,1.636-87.518,7.363c1.904-8.076,2.881-16.365,2.881-24.776c0-59.363-48.295-107.658-107.658-107.658
			s-107.658,48.295-107.658,107.658c0,30.455,12.523,58.79,34.666,79.144c-14.894,13.162-24.875,32.325-30.926,47.282
			c-2.365,5.846-2.257,12.194,0.206,17.861l-6.64,6.64C128.42,366.164,123.636,366.163,120.694,363.221z M254.905,275.854
			c-7.265-5.427-17.355-8.029-29.449-7.42c-12.484,0.631-26.232,4.686-39.453,11.536c-20.341-16.735-31.948-41.225-31.948-67.676
			c0-48.335,39.323-87.658,87.658-87.658s87.658,39.323,87.658,87.658c0,10.291-1.776,20.349-5.251,29.918
			c-18.049,4.92-35.125,11.622-49.868,20.671C267.609,266.96,261.13,271.318,254.905,275.854z M159.023,350.602
			c-1.388-0.119-2.125-1.001-2.441-1.517c-0.316-0.516-0.769-1.573-0.247-2.864c5.018-12.403,15.889-34.717,32.328-44.807
			c25.348-15.557,50.875-16.451,56.763-6.857c2.689,4.38,1.558,11.557-3.102,19.689c-5.728,9.995-16.193,20.134-28.712,27.817
			C197.172,352.154,172.352,351.742,159.023,350.602z M328.747,455.06c-5.728,9.995-16.193,20.134-28.712,27.817
			c-16.438,10.089-41.256,9.68-54.588,8.538c-1.387-0.119-2.125-1.001-2.441-1.517c-0.316-0.515-0.769-1.573-0.247-2.864
			c5.018-12.403,15.89-34.718,32.329-44.807c14.653-8.993,29.364-13.086,40.308-13.086c7.988,0,13.97,2.181,16.454,6.229
			C334.538,439.751,333.407,446.928,328.747,455.06z M362.68,406.964c-6.447,3.957-13.066,7.633-19.725,10.998
			c-7.35-6.312-18.058-9.371-31.075-8.715c-14.963,0.756-31.745,6.416-47.255,15.934c-4.661,2.86-8.927,6.338-12.83,10.208
			l-42.634-69.465c5.218-1.728,10.251-3.955,14.912-6.816c15.509-9.519,28.153-21.92,35.603-34.919
			c6.482-11.311,8.601-22.242,6.301-31.653c6.014-4.412,12.29-8.651,18.736-12.608c11.333-6.956,27.953-14.497,51.852-20.307
			l67.7,110.306C388.263,388.605,374.012,400.009,362.68,406.964z M460.305,281.351c-14.794,30.132-29.261,53.612-42.801,71.913
			l-60.085-97.899c22.447-3.786,49.932-6.056,83.497-5.607c7.688,0.104,14.397,3.912,18.409,10.448
			C463.335,266.742,463.693,274.449,460.305,281.351z"/>
	</g>
</g>
<g>
</g>
<g>
</g>
<g>
</g>
<g>
</g>
<g>
</g>
<g>
</g>
<g>
</g>
<g>
</g>
<g>
</g>
<g>
</g>
<g>
</g>
<g>
</g>
<g>
</g>
<g>
</g>
<g>
</g>
</svg>
