<?xml version="1.0" encoding="iso-8859-1"?>
<!-- Generator: Adobe Illustrator 26.5.1, SVG Export Plug-In . SVG Version: 6.00 Build 0)  -->
<svg version="1.1" id="Capa_1" xmlns="http://www.w3.org/2000/svg" xmlns:xlink="http://www.w3.org/1999/xlink" x="0px" y="0px"
	 viewBox="0 0 510 510" style="enable-background:new 0 0 510 510;" xml:space="preserve">
<g>
	<g>
		<rect x="158.563" y="100.49" style="fill-rule:evenodd;clip-rule:evenodd;fill:#BC9AF4;" width="260.564" height="168.986"/>
		<path style="fill-rule:evenodd;clip-rule:evenodd;fill:#6864F7;" d="M320.552,100.491h98.575v168.985h-218.35l-8.086-14.005
			c-20.769-35.973-8.297-82.09,27.703-102.778c29.199-16.779,65.049-11.712,88.578,10.024c-0.402-3.839-0.609-7.736-0.609-11.681
			C308.364,133.249,312.61,115.97,320.552,100.491z"/>
		<g>
			<path style="fill-rule:evenodd;clip-rule:evenodd;fill:#FDBEB9;" d="M316.649,249.258l-28.227-48.892
				c-9.694-16.869-31.228-22.685-48.097-12.992c-16.869,9.694-22.686,31.228-12.992,48.097l19.633,34.005l20.835,36.088
				c7.167,15.105,23.979,21.959,41.033,18.952l29.422-5.189V445H500V302.923c0-44.479-36.392-80.872-80.872-80.872L316.649,249.258z
				"/>
			<path style="fill-rule:evenodd;clip-rule:evenodd;fill:#FDBEB9;" d="M348.364,151.036c0,39.081,31.682,70.763,70.763,70.763
				c39.082,0,70.763-31.682,70.763-70.763c0-39.082-31.681-70.763-70.763-70.763c-19.281,0-36.761,7.711-49.524,20.218
				C356.496,113.334,348.364,131.235,348.364,151.036z"/>
		</g>
		<polygon style="fill-rule:evenodd;clip-rule:evenodd;fill:#D2DCFD;" points="158.563,221.515 158.563,148.452 95.876,123.176 
			95.876,246.791 		"/>
		<path style="fill-rule:evenodd;clip-rule:evenodd;fill:#67CCD1;" d="M316.649,249.258l12.636,71.651l8.971-1.582V455H500V302.923
			c0-44.479-36.392-80.872-80.872-80.872L316.649,249.258z"/>
	</g>
	<g>
		<g>
			<path style="fill:#D2DCFD;" d="M264.087,105.437c-5.523,0-10-4.477-10-10V75.218c0-5.634-4.583-10.218-10.218-10.218h-85.306
				c-5.523,0-10-4.477-10-10s4.477-10,10-10h85.306c16.662,0,30.218,13.556,30.218,30.218v20.219
				C274.087,100.959,269.61,105.437,264.087,105.437z"/>
		</g>
		<path style="fill:#052A75;" d="M458.979,221.264c24.414-13.908,40.911-40.178,40.911-70.229c0-44.533-36.23-80.763-80.763-80.763
			c-20.451,0-39.151,7.641-53.396,20.218H158.563c-5.523,0-10,4.477-10,10v33.147l-48.947-19.736
			c-3.083-1.244-6.581-0.874-9.334,0.986c-2.754,1.859-4.405,4.965-4.405,8.289v123.614c0,3.323,1.651,6.429,4.405,8.289
			c1.677,1.132,3.629,1.711,5.596,1.711c1.263,0,2.533-0.239,3.739-0.726l48.947-19.736v33.147c0,5.523,4.477,10,10,10h82.629
			l17.76,30.762c8.917,18.322,29.601,28.009,51.618,24.125l17.685-3.119V455c0,5.523,4.477,10,10,10s10-4.477,10-10V327.718
			l72.609-12.804c5.439-0.959,9.07-6.146,8.111-11.585c-0.959-5.438-6.143-9.071-11.585-8.111l-79.995,14.107l-9.304-52.758
			l92.299-24.504C458.889,232.74,490,264.267,490,302.923V455c0,5.523,4.477,10,10,10s10-4.477,10-10V302.923
			C510,267.102,489.166,236.056,458.979,221.264z M479.891,151.036c0,33.505-27.258,60.763-60.763,60.763
			s-60.763-27.258-60.763-60.763s27.258-60.763,60.763-60.763S479.891,117.531,479.891,151.036z M105.876,231.976v-93.985
			l42.687,17.212v59.562L105.876,231.976z M168.563,259.476V110.491h180.734c-6.95,11.923-10.934,25.777-10.934,40.545
			c0,30.557,17.058,57.204,42.151,70.921l-59.034,15.672l-24.39-42.246c-6.019-10.475-15.757-17.978-27.42-21.128
			c-11.663-3.15-23.855-1.57-34.329,4.449c-10.475,6.019-17.978,15.757-21.128,27.42c-3.15,11.663-1.57,23.854,4.459,34.347
			l10.972,19.005H168.563z M307.097,314.667c-13.402,2.364-25.281-2.893-30.262-13.391c-0.115-0.243-0.24-0.48-0.375-0.713
			l-40.458-70.075c-6.931-12.062-2.757-27.513,9.304-34.444c5.843-3.357,12.645-4.238,19.149-2.481
			c6.506,1.757,11.938,5.942,15.305,11.802l27.346,47.365l10.593,60.067L307.097,314.667z"/>
		<g>
			<g>
				<path style="fill:#FDCB50;" d="M30.206,194.983H10c-5.523,0-10-4.477-10-10s4.477-10,10-10h20.206c5.523,0,10,4.477,10,10
					S35.729,194.983,30.206,194.983z"/>
			</g>
			<g>
				<path style="fill:#FDCB50;" d="M48.07,128.28c-1.697,0-3.416-0.432-4.991-1.341l-17.499-10.103
					c-4.783-2.761-6.422-8.877-3.66-13.66c2.761-4.783,8.878-6.422,13.66-3.66l17.499,10.103c4.783,2.761,6.422,8.877,3.66,13.66
					C54.887,126.487,51.526,128.28,48.07,128.28z"/>
			</g>
			<g>
				<path style="fill:#FDCB50;" d="M30.59,271.792c-3.456,0-6.817-1.793-8.669-5.001c-2.762-4.783-1.123-10.899,3.66-13.66
					l17.499-10.103c4.782-2.763,10.899-1.122,13.66,3.66c2.762,4.783,1.123,10.899-3.66,13.66l-17.499,10.103
					C34.006,271.36,32.286,271.792,30.59,271.792z"/>
			</g>
		</g>
	</g>
</g>
<g>
</g>
<g>
</g>
<g>
</g>
<g>
</g>
<g>
</g>
<g>
</g>
<g>
</g>
<g>
</g>
<g>
</g>
<g>
</g>
<g>
</g>
<g>
</g>
<g>
</g>
<g>
</g>
<g>
</g>
</svg>
