<?xml version="1.0" encoding="iso-8859-1"?>
<!-- Generator: Adobe Illustrator 27.2.0, SVG Export Plug-In . SVG Version: 6.00 Build 0)  -->
<svg version="1.1" id="Capa_1" xmlns="http://www.w3.org/2000/svg" xmlns:xlink="http://www.w3.org/1999/xlink" x="0px" y="0px"
	 viewBox="0 0 510 510" style="enable-background:new 0 0 510 510;" xml:space="preserve">
<g>
	<g>
		<g>
			<rect x="10" y="238.671" style="fill:#B1D952;" width="359.333" height="228.667"/>
		</g>
		<g>
			<path style="fill:#FD6050;" d="M287.667,75.338h81.667C441.502,75.338,500,133.836,500,206.005l0,0v98
				c0,18.04-14.627,32.667-32.667,32.667c-18.093,0.325-33.437-15.84-32.666-33.47c-0.009-26.934,0.016-65.337-0.009-98.278
				c-0.071-35.819-31.379-64.859-65.35-64.252c-1.6,0-81.642,0-81.642,0v32.667l-98-65.333l98-65.333V75.338z"/>
		</g>
		<g>
			<g>
				<path style="fill:#91B706;" d="M91.667,238.671H10v81.667C55.105,320.338,91.667,283.768,91.667,238.671z"/>
			</g>
			<g>
				<path style="fill:#91B706;" d="M311.578,296.418c15.316,15.316,36.092,23.924,57.755,23.92v-81.667h-81.667
					C287.662,260.326,296.262,281.102,311.578,296.418z"/>
			</g>
			<g>
				<path style="fill:#91B706;" d="M10,385.671v81.667h81.667C91.667,422.233,55.105,385.671,10,385.671z"/>
			</g>
			<g>
				<path style="fill:#91B706;" d="M311.578,409.583c-15.316,15.316-23.916,36.091-23.912,57.755h81.667v-81.667
					C347.67,385.667,326.895,394.267,311.578,409.583z"/>
			</g>
		</g>
	</g>
	<g>
		<g>
			<path style="fill:#052A75;" d="M369.333,228.671H10c-5.523,0-10,4.477-10,10v228.667c0,5.523,4.477,10,10,10h359.333
				c5.522,0,10-4.477,10-10V238.671C379.333,233.148,374.855,228.671,369.333,228.671z M359.333,457.338H20V248.671h339.333V457.338
				z"/>
			<path style="fill:#052A75;" d="M369.333,65.338h-71.666V42.671c0.091-7.859-9.037-12.779-15.547-8.32c0,0-98,65.333-98,65.333
				c-2.782,1.854-4.453,4.977-4.453,8.32c0,3.344,1.671,6.466,4.453,8.32l98.001,65.333c6.491,4.436,15.641-0.429,15.547-8.32
				c0,0,0-22.667,0-22.667h71.666c30.512,0,55.334,24.822,55.334,55.333v98c-0.394,22.892,19.728,43.173,42.666,42.666
				c23.526,0,42.667-19.14,42.667-42.666v-98C510,128.441,446.897,65.338,369.333,65.338z M490,304.005
				c-1.253,30.12-44.106,30.006-45.333,0c0,0,0-98,0-98c0-41.539-33.795-75.333-75.334-75.333h-81.666c-5.523,0-10,4.477-10,10
				v13.982l-69.973-46.648l69.973-46.648v13.982c0,5.523,4.477,10,10,10h81.666C435.869,85.338,490,139.469,490,206.005V304.005z"/>
		</g>
		<path style="fill:#FFFFFF;" d="M224.166,377.505c0-19.023-15.477-34.5-34.5-34.5c-19.233-0.796-19.234-28.204,0-29
			c0,0,16.333,0,16.333,0c13.258-0.522,13.267-19.474,0-20c0,0-6.333,0-6.333,0v-6.333c-0.527-13.266-19.476-13.26-20,0
			c0,0,0,7.816,0,7.816c-37.47,12.179-29.815,66.566,10,67.517c19.23,0.794,19.236,28.204,0,29c0,0-16.333,0-16.333,0
			c-13.251,0.49-13.247,19.512,0,20c0,0,6.333,0,6.333,0v6.334c0.527,13.266,19.476,13.26,20,0c0,0,0-7.816,0-7.816
			C213.828,406.224,224.166,393.051,224.166,377.505z"/>
	</g>
</g>
<g>
</g>
<g>
</g>
<g>
</g>
<g>
</g>
<g>
</g>
<g>
</g>
<g>
</g>
<g>
</g>
<g>
</g>
<g>
</g>
<g>
</g>
<g>
</g>
<g>
</g>
<g>
</g>
<g>
</g>
</svg>
