<?xml version="1.0" encoding="iso-8859-1"?>
<!-- Generator: Adobe Illustrator 27.0.0, SVG Export Plug-In . SVG Version: 6.00 Build 0)  -->
<svg version="1.1" id="Capa_1" xmlns="http://www.w3.org/2000/svg" xmlns:xlink="http://www.w3.org/1999/xlink" x="0px" y="0px"
	 viewBox="0 0 512 512" style="enable-background:new 0 0 512 512;" xml:space="preserve">
<g>
	<g>
		<rect x="37.463" y="239.725" style="fill:#D46B5C;" width="437.074" height="205.356"/>
		<rect x="37.463" y="239.725" style="fill:#B55348;" width="437.074" height="40"/>
		<circle style="fill:#FDBEB9;" cx="256" cy="101.234" r="34.315"/>
		<path style="fill:#67CCD1;" d="M194.88,239.725v-43.051c0-33.756,27.364-61.12,61.12-61.12s61.12,27.364,61.12,61.12v43.051
			H194.88z"/>
		<path style="fill:#FFFFFF;" d="M256,135.554c-12.709,0-24.509,3.881-34.287,10.519L256,239.725l34.287-93.652
			C280.509,139.435,268.709,135.554,256,135.554z"/>
		<polygon style="fill:#93B2F4;" points="366.096,195.546 366.096,239.725 474.537,239.725 474.537,151.366 410.276,151.366 		"/>
		
			<rect x="366.096" y="119.236" transform="matrix(-1 -4.504276e-11 4.504276e-11 -1 776.3723 314.7814)" style="fill:#D2DCFD;" width="44.18" height="76.31"/>
		<polygon style="fill:#93B2F4;" points="37.463,195.546 37.463,239.725 145.904,239.725 145.904,151.366 81.642,151.366 		"/>
		
			<rect x="37.463" y="119.236" transform="matrix(-1 -4.504276e-11 4.504276e-11 -1 119.1053 314.7814)" style="fill:#D2DCFD;" width="44.18" height="76.31"/>
	</g>
	<g>
		<path style="fill:#052A75;" d="M502,229.726h-17.463v-78.359c0-5.523-4.478-10-10-10h-54.261v-22.13c0-5.523-4.478-10-10-10
			h-44.18c-5.522,0-10,4.477-10,10v110.49H327.12v-33.051c0-28.059-16.337-52.368-39.995-63.933
			c8.137-8.039,13.19-19.192,13.19-31.507c0-24.436-19.88-44.315-44.315-44.315s-44.315,19.88-44.315,44.315
			c0,12.315,5.053,23.468,13.19,31.507c-23.658,11.565-39.995,35.874-39.995,63.933v33.051h-28.976v-78.359c0-5.523-4.477-10-10-10
			H91.643v-22.13c0-5.523-4.477-10-10-10h-44.18c-5.523,0-10,4.477-10,10v110.49H10c-5.523,0-10,4.477-10,10s4.477,10,10,10h17.463
			v195.355c0,5.523,4.477,10,10,10h437.074c5.522,0,10-4.477,10-10V249.726H502c5.522,0,10-4.477,10-10S507.522,229.726,502,229.726
			z M376.097,129.236h24.18v56.31h-24.18V129.236z M376.097,205.546h34.18c5.522,0,10-4.477,10-10v-34.18h44.261v68.359h-88.44
			V205.546z M256,76.919c13.407,0,24.315,10.908,24.315,24.315c0,13.407-10.908,24.315-24.315,24.315
			c-13.408,0-24.315-10.908-24.315-24.315C231.685,87.827,242.592,76.919,256,76.919z M204.88,196.674
			c0-28.188,22.933-51.121,51.12-51.121c28.187,0,51.12,22.933,51.12,51.121v33.051H204.88V196.674z M91.643,195.546v-34.18h44.261
			v68.359H47.463v-24.18h34.18C87.166,205.546,91.643,201.069,91.643,195.546z M47.463,129.236h24.18v56.31h-24.18V129.236z
			 M464.537,435.081H47.463V249.726h417.074V435.081z"/>
		<path style="fill:#FFFFFF;" d="M167.641,308.224c6.667,0,12.09,5.423,12.09,12.09c0,5.523,4.477,10,10,10s10-4.477,10-10
			c0-17.694-14.396-32.09-32.09-32.09s-32.09,14.396-32.09,32.09v44.18c0,17.694,14.396,32.09,32.09,32.09s32.09-14.396,32.09-32.09
			c0-5.523-4.477-10-10-10s-10,4.477-10,10c0,6.667-5.423,12.09-12.09,12.09s-12.09-5.423-12.09-12.09v-44.18
			C155.551,313.647,160.974,308.224,167.641,308.224z"/>
		<path style="fill:#FFFFFF;" d="M278.09,308.224c5.522,0,10-4.477,10-10s-4.478-10-10-10h-44.18c-5.523,0-10,4.477-10,10v88.359
			c0,5.523,4.477,10,10,10h44.18c5.522,0,10-4.477,10-10s-4.478-10-10-10h-34.18v-24.18h24.139c5.522,0,10-4.477,10-10
			s-4.478-10-10-10H243.91v-24.18H278.09z"/>
		<path style="fill:#FFFFFF;" d="M344.449,288.224h-0.18c-17.645,0-32,14.355-32,32v44.359c0,17.645,14.355,32,32,32h0.18
			c17.645,0,32-14.355,32-32v-44.359C376.449,302.579,362.094,288.224,344.449,288.224z M356.449,364.583c0,6.617-5.383,12-12,12
			h-0.18c-6.617,0-12-5.383-12-12v-44.359c0-6.617,5.383-12,12-12h0.18c6.617,0,12,5.383,12,12V364.583z"/>
	</g>
</g>
<g>
</g>
<g>
</g>
<g>
</g>
<g>
</g>
<g>
</g>
<g>
</g>
<g>
</g>
<g>
</g>
<g>
</g>
<g>
</g>
<g>
</g>
<g>
</g>
<g>
</g>
<g>
</g>
<g>
</g>
</svg>
