<?xml version="1.0" encoding="utf-8"?>
<!-- Generator: Adobe Illustrator 28.0.0, SVG Export Plug-In . SVG Version: 6.00 Build 0)  -->
<svg version="1.1" id="Layer_1" xmlns="http://www.w3.org/2000/svg" xmlns:xlink="http://www.w3.org/1999/xlink" x="0px" y="0px"
	 viewBox="0 0 512 512" style="enable-background:new 0 0 512 512;" xml:space="preserve">
<style type="text/css">
	.st0{fill:#FFFFFF;}
	.st1{fill:#D2DCFD;}
	.st2{fill:#FDE0BE;}
	.st3{fill:#67CCD1;}
	.st4{fill:#FDCB50;}
	.st5{fill:#FD6050;}
	.st6{fill:#FD8F01;}
	.st7{fill:#D46B5C;}
	.st8{fill:#B55348;}
	.st9{fill:#27A2CC;}
	.st10{fill:#6864F7;}
	.st11{fill:#052A75;}
</style>
<g>
	<g>
		<g>
			<g>
				<g>
					<polygon class="st0" points="381.2,10 219.3,10 219.3,320.1 454.1,320.1 454.1,72.9 					"/>
				</g>
			</g>
			<g>
				<path class="st1" d="M454.1,224.9v95.2H310.3c-0.2-2.3-0.2-4.6-0.2-6.9c0-54.7,44.4-99.1,99.1-99.1
					C425.3,214.2,440.6,218,454.1,224.9z"/>
			</g>
		</g>
		<g>
			<g>
				<path class="st2" d="M261.7,210.5v-9.4c0-46.3-37.6-74.2-83.9-74.2h-19.4c-46.3,0-83.9,27.9-83.9,74.2v9.4
					c-12.2,0.7-21.8,10.8-21.8,23.1c0,12.3,9.6,22.4,21.8,23.1v4c0,43.3,29.4,69.7,69.2,80.4v29.4h48.7v-29.4
					c39.9-10.7,69.2-37.1,69.2-80.4v-4c12.2-0.7,21.8-10.8,21.8-23.1C283.5,221.3,273.9,211.2,261.7,210.5z"/>
			</g>
		</g>
		<g>
			<g>
				<path class="st0" d="M305.2,502H31.1v-80.5c0-32.9,26.7-59.6,59.6-59.6h154.8c32.9,0,59.6,26.7,59.6,59.6V502z"/>
			</g>
			<g>
				<path class="st1" d="M115.6,380.6c0-6.3,0.3-12.6,1-18.8H90.7c-32.9,0-59.6,26.7-59.6,59.6V502h134.3
					C134.6,470.8,115.6,427.9,115.6,380.6z"/>
			</g>
		</g>
		<g>
			<polygon class="st3" points="381.2,72.9 454.1,72.9 381.2,10 			"/>
		</g>
		<g>
			<g>
				<rect x="262.3" y="60" class="st4" width="78.8" height="88.4"/>
			</g>
		</g>
		<polygon class="st5" points="452.4,459.6 411.9,437.8 371.4,459.6 371.4,346 452.4,346 		"/>
		<g>
			<g>
				<circle class="st4" cx="411.9" cy="320.1" r="69"/>
			</g>
			<g>
				<path class="st6" d="M452.4,358.4c-38.1,0-69-30.9-69-69c0-13.1,3.7-25.4,10-35.8c-29.1,8.1-50.5,34.8-50.5,66.5
					c0,38.1,30.9,69,69,69c25,0,46.9-13.3,59-33.2C465,357.5,458.8,358.4,452.4,358.4z"/>
			</g>
		</g>
		<g>
			<g>
				<path class="st7" d="M62.4,218.8c0,0,32.8-27.6,66.4-27.9h0c22.8,0,44.3-7.6,59-20.8l9.5,1.1l6.3-1.3
					c13.9,18.4,32.5,32.9,53.8,41.9l16.5,7v-44.1c0-43.1-34.9-78-78-78h-55.5c-43.1,0-78,34.9-78,78V218.8z"/>
			</g>
			<g>
				<path class="st8" d="M109.6,192.9c0-45.1,29.7-83.3,70.6-96.1h-39.8c-43.1,0-78,34.9-78,78v44.1c0,0,21.3-18,47.2-25.1
					C109.6,193.5,109.6,193.2,109.6,192.9z"/>
			</g>
		</g>
		<g>
			<polygon class="st9" points="178.1,361.9 96.9,361.9 119.6,403.4 			"/>
		</g>
		<g>
			<polygon class="st3" points="158.1,361.9 239.3,361.9 216.6,403.4 			"/>
		</g>
	</g>
	<g>
		<g>
			<g>
				<path class="st5" d="M402.7,221.1H275.3c-5.5,0-10-4.5-10-10s4.5-10,10-10h127.4c5.5,0,10,4.5,10,10S408.2,221.1,402.7,221.1z"
					/>
			</g>
			<g>
				<path class="st5" d="M373.4,266.2H267.7c-5.5,0,0-4.5,0-10s4.5-10,10-10l109.9-0.3c5.5,0-4.2,4.8-4.2,10.3
					S379,266.2,373.4,266.2z"/>
			</g>
		</g>
		<g>
			<g>
				<g>
					<path class="st10" d="M168.1,473.5c-4.2,0-8-2.7-9.4-6.6c-1.4-3.9-0.2-8.3,2.9-11c3.3-2.8,8.1-3.1,11.7-0.9
						c3.5,2.2,5.3,6.4,4.5,10.4C177,470.1,172.8,473.5,168.1,473.5z"/>
				</g>
				<g>
					<path class="st10" d="M168.1,436.9c-4.2,0-8-2.7-9.4-6.6c-1.4-3.9-0.2-8.3,2.9-11c3.3-2.8,8.1-3.1,11.7-0.9
						c3.5,2.2,5.3,6.4,4.5,10.4C177,433.4,172.8,436.9,168.1,436.9z"/>
				</g>
			</g>
			<g>
				<path class="st11" d="M198.6,224.4c-5.5,0-10,4.5-10,10v13.4c0,5.5,4.5,10,10,10s10-4.5,10-10v-13.4
					C208.6,228.8,204.2,224.4,198.6,224.4z"/>
				<path class="st11" d="M147.6,247.8v-13.4c0-5.5-4.5-10-10-10s-10,4.5-10,10v13.4c0,5.5,4.5,10,10,10S147.6,253.3,147.6,247.8z"
					/>
				<path class="st11" d="M185.3,277.3c-9.5,9.5-24.9,9.5-34.4,0c-3.9-3.9-10.2-3.9-14.1,0c-3.9,3.9-3.9,10.2,0,14.1
					c8.6,8.6,20,13,31.4,13c11.4,0,22.7-4.3,31.4-13c3.9-3.9,3.9-10.2,0-14.1C195.6,273.4,189.2,273.4,185.3,277.3z"/>
			</g>
			<path class="st11" d="M490.9,320.1c0-23.6-10.4-44.8-26.8-59.3V72.9c0-2.9-1.3-5.7-3.5-7.6L387.8,2.4C386,0.9,383.6,0,381.2,0
				H219.3c-5.5,0-10,4.5-10,10v78.8c-4.4-0.7-8.9-1-13.5-1h-55.5c-48.5,0-88,39.5-88,88v34.4c-6.2,6.2-9.7,14.5-9.7,23.4
				c0,14.3,9.1,26.6,21.9,31.2c1.6,39.8,26.5,69.9,69.2,83.8v3.3H90.7c-38.4,0-69.6,31.2-69.6,69.6V502c0,5.5,4.5,10,10,10h274.1
				c5.5,0,10-4.5,10-10v-80.5c0-38.4-31.2-69.6-69.6-69.6h-43.1v-3.3c13.9-4.5,25.9-10.7,35.8-18.5h95.3
				c2.6,20.3,12.9,38.1,27.8,50.6v78.9c0,3.5,1.9,6.8,4.9,8.6c3,1.8,6.8,1.9,9.9,0.2l35.8-19.3l35.8,19.3c1.5,0.8,3.1,1.2,4.7,1.2
				c1.8,0,3.6-0.5,5.1-1.4c3-1.8,4.9-5.1,4.9-8.6v-78.9C479.8,366.2,490.9,344.4,490.9,320.1z M72.4,175.8c0-37.5,30.5-68,68-68
				h55.5c37.5,0,68,30.5,68,68v28.9l-2.6-1.1c-19.6-8.3-36.8-21.7-49.7-38.8l-6.3-8.4c-1.7-2.2-4.2-3.7-7-3.9c-0.3,0-0.6,0-1,0
				c-2.5,0-4.8,0.9-6.7,2.6l-9.5,8.5c-12.9,11.6-32,18.3-52.4,18.3c-21.6,0.2-42.5,10.2-56.3,18.7V175.8z M245.5,371.9
				c27.4,0,49.6,22.3,49.6,49.6V492h-40.3v-46.2c0-5.5-4.5-10-10-10s-10,4.5-10,10V492H101.4v-46.2c0-5.5-4.5-10-10-10
				s-10,4.5-10,10V492H41.1v-70.5c0-27.4,22.3-49.6,49.6-49.6H245.5z M251.7,256.7v4c0,47.1-38.7,64.5-61.8,70.7
				c-4.4,1.2-7.4,5.1-7.4,9.7v10.7h-28.7v-10.7c0-4.5-3-8.5-7.4-9.7c-23.1-6.2-61.8-23.6-61.8-70.7v-4c0-5.3-4.1-9.7-9.4-10
				c-6.9-0.4-12.4-6.2-12.4-13.1c0-1.3,0.2-2.6,0.6-3.8c2-0.2,4-1,5.6-2.3c0.3-0.3,30.3-25.3,59.9-25.6c25.2,0,49.2-8.5,65.7-23.4
				l1.4-1.3c15,19.7,34.9,35.1,57.6,44.8l16.5,7c1,0.4,2,0.7,3,0.8c0.4,1.2,0.6,2.5,0.6,3.8c0,7-5.4,12.7-12.4,13.1
				C255.8,247.1,251.7,251.4,251.7,256.7z M333.6,310.1h-76.4c8.8-13,13.8-28.2,14.4-45.3c12.8-4.6,21.9-16.9,21.9-31.2
				c0-8.9-3.5-17.2-9.7-23.4v-34.4c0-36.7-22.5-68.2-54.5-81.4V20h148.2l66.6,57.4v170.5c-9.8-4.4-20.7-6.9-32.2-6.9
				C371.7,241.1,338.5,271.2,333.6,310.1z M352.9,320.1c0-32.5,26.5-59,59-59c32.5,0,59,26.5,59,59c0,32.5-26.5,59-59,59
				C379.4,379,352.9,352.6,352.9,320.1z M442.4,442.9L416.7,429c-3-1.6-6.5-1.6-9.5,0l-25.8,13.9v-50c9.4,3.9,19.7,6.1,30.5,6.1
				c10.8,0,21.1-2.2,30.5-6.1V442.9z"/>
		</g>
	</g>
</g>
</svg>
