<?xml version="1.0" encoding="iso-8859-1"?>
<!-- Generator: Adobe Illustrator 26.5.3, SVG Export Plug-In . SVG Version: 6.00 Build 0)  -->
<svg version="1.1" id="Capa_1" xmlns="http://www.w3.org/2000/svg" xmlns:xlink="http://www.w3.org/1999/xlink" x="0px" y="0px"
	 viewBox="0 0 510 510" style="enable-background:new 0 0 510 510;" xml:space="preserve">
<g>
	<g>
		<path style="fill:#FDBEB9;" d="M365.781,316.07v73.15C365.781,450.402,316.183,500,255,500h0
			c-61.183,0-110.781-49.598-110.781-110.781v-73.15H365.781z"/>
		<rect x="144.219" y="316.07" style="fill:#FD7DA0;" width="221.562" height="44.768"/>
		<g>
			<g>
				<path style="fill:#FFFFFF;" d="M452.48,141.823c0-49.282-39.951-89.234-89.234-89.234c-9.146,0-17.97,1.376-26.277,3.932
					l0.344,1.3C321,29.256,290.25,10,255,10s-66,19.256-82.313,47.821l0.344-1.3c-8.307-2.556-17.132-3.932-26.277-3.932
					c-49.282,0-89.234,39.951-89.234,89.234c0,45.279,33.726,82.677,77.427,88.455v85.792h240.106v-85.792
					C418.754,224.501,452.48,187.102,452.48,141.823z"/>
				<path style="fill:#D2DCFD;" d="M242.857,316.07c-26.622-44.81-41.927-97.131-41.927-153.035
					c0-55.554,15.115-107.57,41.43-152.193c-29.873,3.984-55.344,21.888-69.673,46.98l0.344-1.3
					c-8.307-2.556-17.132-3.932-26.277-3.932c-49.282,0-89.234,39.951-89.234,89.234c0,45.279,33.726,82.677,77.427,88.455v85.792
					H242.857z"/>
				<rect x="134.947" y="261.748" style="fill:#D2DCFD;" width="240.106" height="54.321"/>
				<path style="fill:#93B2F4;" d="M217.567,261.748h-82.62v54.321h107.91C232.706,298.982,224.203,280.804,217.567,261.748z"/>
			</g>
		</g>
	</g>
	<g>
		<path style="fill:#052A75;" d="M462.479,141.823c0-54.717-44.516-99.233-99.233-99.233c-7.514,0-14.956,0.841-22.21,2.5
			C322.105,17.862,290.602,0,255,0s-67.105,17.862-86.036,45.09c-7.254-1.659-14.696-2.5-22.21-2.5
			c-54.718,0-99.233,44.516-99.233,99.233c0,47.227,33.165,86.85,77.427,96.814v77.433c0,5.277,4.09,9.589,9.271,9.963v63.186
			C134.219,455.818,188.401,510,255,510s120.781-54.182,120.781-120.781v-63.186c5.181-0.375,9.271-4.686,9.271-9.963v-77.433
			C429.315,228.673,462.479,189.051,462.479,141.823z M365.053,306.07H144.947v-34.322h220.105V306.07z M255,490
			c-55.571,0-100.781-45.21-100.781-100.781V326.07h201.562v63.149C355.781,444.79,310.571,490,255,490z M363.246,221.057
			c-5.522,0-10,4.477-10,10s4.478,10,10,10c0.604,0,1.205-0.012,1.807-0.023v10.714H144.947v-10.714
			c0.602,0.011,1.203,0.023,1.807,0.023c5.522,0,10-4.477,10-10s-4.478-10-10-10c-43.689,0-79.233-35.544-79.233-79.233
			s35.544-79.233,79.233-79.233c4.033,0,8.037,0.304,11.986,0.902c-5.444,12.661-8.466,26.6-8.466,41.233c0,5.523,4.478,10,10,10
			s10-4.477,10-10C170.274,58.008,208.282,20,255,20s84.726,38.008,84.726,84.726c0,5.523,4.478,10,10,10s10-4.477,10-10
			c0-14.633-3.021-28.572-8.466-41.233c3.949-0.598,7.953-0.902,11.986-0.902c43.689,0,79.233,35.544,79.233,79.233
			S406.936,221.057,363.246,221.057z"/>
		<path style="fill:#052A75;" d="M263.325,424.485c-2.247,2.166-5.203,3.358-8.325,3.358s-6.078-1.192-8.325-3.358
			c-3.977-3.833-10.307-3.716-14.14,0.261c-3.833,3.976-3.716,10.307,0.261,14.14c5.993,5.776,13.879,8.958,22.204,8.958
			s16.211-3.181,22.204-8.958c3.977-3.833,4.094-10.164,0.261-14.14C273.632,420.768,267.302,420.652,263.325,424.485z"/>
	</g>
</g>
<g>
</g>
<g>
</g>
<g>
</g>
<g>
</g>
<g>
</g>
<g>
</g>
<g>
</g>
<g>
</g>
<g>
</g>
<g>
</g>
<g>
</g>
<g>
</g>
<g>
</g>
<g>
</g>
<g>
</g>
</svg>
