<?xml version="1.0" encoding="iso-8859-1"?>
<!-- Generator: Adobe Illustrator 29.3.1, SVG Export Plug-In . SVG Version: 9.03 Build 55982)  -->
<svg version="1.1" id="Capa_1" xmlns="http://www.w3.org/2000/svg" xmlns:xlink="http://www.w3.org/1999/xlink" x="0px" y="0px"
	 viewBox="0 0 510 510" style="enable-background:new 0 0 510 510;" xml:space="preserve">
<g>
	<g>
		<g>
			<g>
				<path style="fill:#FD7DA0;" d="M487.531,487.531L487.531,487.531c17.241-17.241,16.507-45.413-1.609-61.733L329.779,285.133
					l-44.645,44.645l140.664,156.143C442.118,504.038,470.289,504.772,487.531,487.531z"/>
			</g>
			<g>
				<polygon style="fill:#FFFFFF;" points="311.412,358.949 352.932,405.038 405.038,352.932 358.949,311.412 				"/>
			</g>
			<g>
				<path style="fill:#67CCD1;" d="M204.005,10c107.108-0.038,193.906,86.76,193.868,193.868
					c-0.038,107.108-86.897,193.967-194.005,194.005C96.76,397.911,9.962,311.114,10,204.005S96.897,10.038,204.005,10z"/>
			</g>
			<g>
				<path style="fill:#27A2CC;" d="M156.943,157.146c0-53.413,14.019-103.546,38.554-146.947
					C92.336,14.691,10.037,99.749,10,204.005C9.962,311.114,96.76,397.911,203.868,397.874c21.597-0.008,42.368-3.55,61.773-10.071
					C199.252,332.95,156.943,249.99,156.943,157.146z"/>
			</g>
			<g>
				<circle style="fill:#FFFFFF;" cx="203.979" cy="203.979" r="141.901"/>
			</g>
			<g>
				<path style="fill:#D2DCFD;" d="M171.132,65.906c-62.531,14.821-109.055,71.01-109.055,138.072
					c0,78.37,63.531,141.901,141.901,141.901c6.445,0,12.788-0.438,19.005-1.271c-41.311-51.283-66.04-116.484-66.04-187.463
					C156.943,125.325,161.921,94.669,171.132,65.906z"/>
			</g>
		</g>
		<g>
			<g>
				<path style="fill:#FDCB50;" d="M96.402,296.514c26.023,30.225,64.563,49.366,107.576,49.366
					c42.96,0,81.459-19.093,107.481-49.253l-0.845-2.127l-11.548-11.017c-9.524-9.086-21.715-14.872-34.776-16.506l-32.15-4.023
					h-56.409l-32.15,4.023c-13.061,1.634-25.252,7.42-34.776,16.506l-11.548,11.017L96.402,296.514z"/>
			</g>
			<g>
				<path style="fill:#FD8F01;" d="M222.983,344.609c-19.628-24.366-35.503-51.879-46.771-81.656h-0.48l-32.15,4.023
					c-13.061,1.634-25.252,7.42-34.776,16.506l-11.548,11.017l-0.856,2.015c26.023,30.225,64.563,49.366,107.576,49.366
					C210.424,345.88,216.766,345.442,222.983,344.609z"/>
			</g>
			<g>
				<polygon style="fill:#FD7DA0;" points="232.141,267.132 232.141,224.882 175.732,224.882 175.732,267.132 203.937,294.334 				
					"/>
			</g>
			<g>
				<path style="fill:#D46B5C;" d="M255.478,164.483v-7.326c0-28.466-23.029-51.541-51.438-51.541h0
					c-28.408,0-51.438,23.076-51.438,51.541v7.326H255.478z"/>
			</g>
			<g>
				<path style="fill:#FDBEB9;" d="M152.603,164.482v25.245c0,28.408,23.03,51.438,51.438,51.438h0
					c28.408,0,51.438-23.029,51.438-51.438v-25.245H152.603z"/>
			</g>
		</g>
		<g>
			<g>
				<circle style="fill:#B1D952;" cx="392.567" cy="157.147" r="80.94"/>
			</g>
			<g>
				<path style="fill:#91B706;" d="M368.122,115.751c0-12.999,1.978-25.535,5.649-37.326c-35.634,8.478-62.144,40.494-62.144,78.722
					c0,44.702,36.238,80.94,80.939,80.94c15.34,0,29.681-4.269,41.905-11.68C394.988,205.286,368.122,163.658,368.122,115.751z"/>
			</g>
		</g>
	</g>
	<g>
		<path style="fill:#052A75;" d="M509.982,456.057c-0.379-14.558-6.547-27.943-17.367-37.689L375.988,313.302
			c12.808-20.114,22.064-42.404,27.186-65.839c45.164-5.271,80.332-43.761,80.332-90.317c0-50.144-40.795-90.939-90.939-90.939
			c-11.552,0-22.605,2.17-32.78,6.115C320.928,26.265,264.628,0,204.076,0c-0.023,0-0.051,0-0.074,0
			C91.554,0.04,0.04,91.554,0,204.002c-0.02,54.475,21.176,105.682,59.683,144.188c38.49,38.49,89.667,59.685,144.115,59.684
			c0.023,0,0.05,0,0.073,0c38.916-0.014,76.905-11.199,109.435-31.881l105.061,116.623c9.747,10.82,23.132,16.988,37.689,17.367
			c0.475,0.012,0.947,0.019,1.42,0.019c14.026,0,27.163-5.437,37.125-15.399C504.899,484.304,510.361,470.615,509.982,456.057z
			 M463.506,157.146c0,39.116-31.823,70.939-70.939,70.939s-70.94-31.823-70.94-70.939s31.824-70.939,70.94-70.939
			S463.506,118.03,463.506,157.146z M168.43,273.945c0.12,0.129,0.233,0.262,0.36,0.385l28.204,27.201
			c1.937,1.869,4.439,2.802,6.942,2.802c2.502,0,5.005-0.934,6.942-2.802l28.205-27.201c0.127-0.123,0.241-0.256,0.361-0.385
			l23.607,2.954c10.857,1.358,21.197,6.266,29.114,13.819l5.891,5.62c-24.102,24.492-57.584,39.542-94.077,39.542
			c-36.822,0-70.161-15.173-94.113-39.587l5.844-5.575c7.917-7.553,18.257-12.461,29.115-13.819L168.43,273.945z M162.603,174.483
			h82.875v15.245c0,22.849-18.589,41.438-41.438,41.438c-22.849,0-41.438-18.589-41.438-41.438V174.483z M162.688,154.483
			c1.378-21.666,19.399-38.867,41.353-38.867s39.974,17.202,41.353,38.867H162.688z M204.041,251.166
			c6.298,0,12.376-0.956,18.101-2.724v14.443l-18.205,17.557l-18.204-17.557v-14.505
			C191.517,250.188,197.667,251.166,204.041,251.166z M310.992,281.038l-5.022-4.791c-10.997-10.491-25.357-17.307-40.437-19.194
			l-23.392-2.927v-16.256c14.202-11.263,23.337-28.651,23.337-48.143v-32.571c0-33.934-27.561-61.541-61.438-61.541
			s-61.438,27.607-61.438,61.541v32.571c0,19.398,9.046,36.713,23.13,47.98v16.419l-23.392,2.927
			c-15.08,1.887-29.441,8.703-40.438,19.194l-4.955,4.727c-15.641-21.681-24.872-48.279-24.872-76.996
			c0-72.73,59.171-131.901,131.901-131.901c40.764,0,79.313,19.005,104.238,51.093c-4.246,10.503-6.59,21.97-6.59,33.977
			c0,27.823,12.564,52.763,32.312,69.458C330.459,246.748,322.426,265.23,310.992,281.038z M203.865,387.874
			c-0.024,0-0.042,0-0.066,0c-49.103,0-95.263-19.115-129.973-53.826C39.098,299.321,19.982,253.139,20,204.009
			C20.036,102.582,102.582,20.036,204.009,20c0.024,0,0.042,0,0.067,0c53.114,0,102.615,22.411,137.533,61.862
			c-8.933,6.066-16.735,13.679-23.017,22.451C289.89,71.372,248.06,52.077,203.979,52.077c-83.759,0-151.901,68.143-151.901,151.901
			S120.22,355.88,203.979,355.88c71.034,0,132.175-49.515,147.951-117.395c9.423,4.727,19.775,7.864,30.704,9.057
			c-9.179,37.552-30.2,71.602-59.999,96.823C289.504,372.406,247.324,387.858,203.865,387.874z M480.46,480.459
			c-6.38,6.38-14.877,9.765-23.881,9.529c-9.02-0.235-17.312-4.057-23.352-10.76L329.742,364.355
			c1.962-1.54,3.905-3.109,5.814-4.725c10.647-9.012,20.275-19.048,28.787-29.899l114.885,103.496
			c6.703,6.039,10.524,14.332,10.76,23.352S486.84,474.08,480.46,480.459z"/>
		<g>
			<path style="fill:#FFFFFF;" d="M384.792,190.483c-2.652,0-5.196-1.054-7.071-2.929l-23.307-23.307
				c-3.905-3.905-3.905-10.237,0-14.143c3.905-3.905,10.237-3.905,14.143,0l16.235,16.236l31.785-31.785
				c3.905-3.905,10.237-3.906,14.142,0s3.906,10.237,0,14.142l-38.856,38.856C389.988,189.429,387.444,190.483,384.792,190.483z"/>
		</g>
	</g>
</g>
<g>
</g>
<g>
</g>
<g>
</g>
<g>
</g>
<g>
</g>
<g>
</g>
<g>
</g>
<g>
</g>
<g>
</g>
<g>
</g>
<g>
</g>
<g>
</g>
<g>
</g>
<g>
</g>
<g>
</g>
</svg>
