<?xml version="1.0" encoding="iso-8859-1"?>
<!-- Generator: Adobe Illustrator 26.5.3, SVG Export Plug-In . SVG Version: 6.00 Build 0)  -->
<svg version="1.1" id="Capa_1" xmlns="http://www.w3.org/2000/svg" xmlns:xlink="http://www.w3.org/1999/xlink" x="0px" y="0px"
	 viewBox="0 0 512 512" style="enable-background:new 0 0 512 512;" xml:space="preserve">
<g>
	<g>
		<g>
			<path style="fill:#FFFFFF;" d="M481.891,193.203h-208.74c-11.046,0-20-8.954-20-20V37.888c0-11.046,8.954-20,20-20h208.74
				c11.046,0,20,8.954,20,20v135.315C501.891,184.249,492.937,193.203,481.891,193.203z"/>
		</g>
		<g>
			<path style="fill:#D2DCFD;" d="M462.431,157.887c-76.438,0-138.404-61.965-138.404-138.404c0-0.533,0.014-1.063,0.02-1.595
				h-50.896c-11.046,0-20,8.954-20,20v135.315c0,11.045,8.954,20,20,20h208.74c11.046,0,20-8.955,20-20v-21.034
				C489.385,155.883,476.143,157.887,462.431,157.887z"/>
		</g>
		<g>
			<g>
				<circle style="fill:#FDCB50;" cx="425.21" cy="104.603" r="43.208"/>
			</g>
			<g>
				<g>
					<path style="fill:#D46B5C;" d="M353.169,74.335l-66.545,115.26h160.55l-66.545-115.26
						C374.527,63.766,359.272,63.766,353.169,74.335l-66.545,115.26h160.55l-66.545-115.26
						C374.527,63.766,359.272,63.766,353.169,74.335z"/>
				</g>
				<g>
					<path style="fill:#B55348;" d="M343.73,90.685l-57.106,98.91h160.55l-21.098-36.543
						C391.255,143.596,361.89,120.895,343.73,90.685z"/>
				</g>
			</g>
		</g>
		<g>
			<path style="fill:#BC9AF4;" d="M481.891,497.03H276c-11.046,0-20-8.954-20-20V271.139c0-11.046,8.954-20,20-20h205.891
				c11.046,0,20,8.954,20,20V477.03C501.891,488.076,492.937,497.03,481.891,497.03z"/>
		</g>
		<g>
			<path style="fill:#6864F7;" d="M468.418,453.876c-76.438,0-138.404-61.966-138.404-138.404c0-23.226,5.73-45.111,15.84-64.332
				H276c-11.046,0-20,8.954-20,20V477.03c0,11.046,8.954,20,20,20h205.891c11.046,0,20-8.954,20-20v-27.239
				C491.171,452.454,479.961,453.876,468.418,453.876z"/>
		</g>
		<g>
			<path style="fill:#FFFFFF;" d="M175.832,249.35H29.891c-11.046,0-20-8.954-20-20V34.97c0-11.046,8.954-20,20-20h145.941
				c11.046,0,20,8.954,20,20v194.38C195.832,240.395,186.878,249.35,175.832,249.35z"/>
		</g>
		<g>
			<path style="fill:#D2DCFD;" d="M74.363,73.647c0-20.978,4.676-40.861,13.029-58.677H29.891c-11.046,0-20,8.954-20,20v194.38
				c0,11.045,8.954,20,20,20h145.941c11.046,0,20-8.955,20-20v-18.331C127.383,202.667,74.363,144.352,74.363,73.647z"/>
		</g>
		<g>
			<path style="fill:#67CCD1;" d="M37.811,303.746h136.014c15.287,0,27.68,12.393,27.68,27.68v110.93
				c0,15.287-12.393,27.68-27.68,27.68H151.15c-6.088,0-11.024,4.935-11.024,11.024v4.926c0,9.492-11.198,14.546-18.317,8.266
				l-24.323-21.459c-2.014-1.777-4.607-2.757-7.293-2.757H37.811c-15.287,0-27.68-12.393-27.68-27.68v-110.93
				C10.131,316.138,22.524,303.746,37.811,303.746z"/>
		</g>
		<g>
			<path style="fill:#27A2CC;" d="M65.264,303.746H37.811c-15.287,0-27.68,12.393-27.68,27.68v110.93
				c0,15.287,12.393,27.68,27.68,27.68h52.383c2.686,0,5.279,0.98,7.293,2.757l24.323,21.458c7.118,6.28,18.317,1.226,18.317-8.266
				v-4.926c0-6.088,4.935-11.023,11.024-11.023h22.674c15.287,0,27.68-12.393,27.68-27.68v-7.689
				C128.466,433.65,69.105,376.068,65.264,303.746z"/>
		</g>
		<g>
			<path style="fill:#FFFFFF;" d="M406.667,328.489l-36.737-21.21c-12.471-7.2-28.06,1.8-28.06,16.2v42.42
				c0,14.4,15.589,23.4,28.06,16.2l36.737-21.21C419.138,353.69,419.138,335.69,406.667,328.489l-36.737-21.21
				c-12.471-7.2-28.06,1.8-28.06,16.2v42.42c0,14.4,15.589,23.4,28.06,16.2l36.737-21.21
				C419.138,353.69,419.138,335.69,406.667,328.489z"/>
		</g>
	</g>
	<g>
		<g>
			<path style="fill:#052A75;" d="M482,241.131H276.109c-16.542,0-30,13.458-30,30v205.891c0,16.542,13.458,30,30,30H482
				c16.542,0,30-13.458,30-30V271.131C512,254.589,498.542,241.131,482,241.131z M492,477.021c0,5.514-4.486,10-10,10H276.109
				c-5.514,0-10-4.486-10-10V271.131c0-5.514,4.486-10,10-10H482c5.514,0,10,4.486,10,10V477.021z"/>
			<path style="fill:#052A75;" d="M454.364,431.188H341.124c-0.336-5.218-4.664-9.351-9.967-9.351s-9.631,4.132-9.967,9.351h-17.445
				c-5.523,0-10,4.478-10,10s4.477,10,10,10h17.445c0.336,5.218,4.664,9.351,9.967,9.351s9.631-4.132,9.967-9.351h113.239
				c5.523,0,10-4.478,10-10S459.887,431.188,454.364,431.188z"/>
			<path style="fill:#052A75;" d="M173.934,293.736H37.92c-20.777,0-37.68,16.903-37.68,37.681v110.93
				c0,20.776,16.903,37.68,37.68,37.68h52.382c0.249,0,0.489,0.091,0.677,0.257l24.324,21.459c3.956,3.489,8.847,5.297,13.834,5.297
				c2.931,0,5.896-0.625,8.722-1.9c7.633-3.445,12.375-10.787,12.375-19.162v-4.926c0-0.564,0.459-1.024,1.023-1.024h22.675
				c20.777,0,37.68-16.903,37.68-37.68v-110.93C211.614,310.64,194.711,293.736,173.934,293.736z M191.614,442.347
				c0,9.749-7.931,17.68-17.68,17.68h-22.675c-11.592,0-21.023,9.432-21.023,21.024v4.926c0,0.247,0,0.661-0.603,0.933
				c-0.601,0.274-0.925-0.011-1.098-0.165l-24.322-21.457c-3.844-3.393-8.784-5.261-13.911-5.261H37.92
				c-9.749,0-17.68-7.931-17.68-17.68v-110.93c0-9.749,7.931-17.681,17.68-17.681h136.014c9.749,0,17.68,7.932,17.68,17.681V442.347
				z"/>
			<path style="fill:#052A75;" d="M482,7.879H273.26c-16.542,0-30,13.458-30,30v135.315c0,16.542,13.458,30,30,30H482
				c16.542,0,30-13.458,30-30V37.879C512,21.337,498.542,7.879,482,7.879z M492,173.194c0,5.514-4.486,10-10,10H273.26
				c-5.514,0-10-4.486-10-10V37.879c0-5.514,4.486-10,10-10H482c5.514,0,10,4.486,10,10V173.194z"/>
			<path style="fill:#052A75;" d="M30,259.341h145.941c16.542,0,30-13.458,30-30V34.961c0-16.542-13.458-30-30-30H30
				c-16.542,0-30,13.458-30,30v194.38C0,245.883,13.458,259.341,30,259.341z M20,34.961c0-5.514,4.486-10,10-10h145.941
				c5.514,0,10,4.486,10,10v194.38c0,5.514-4.486,10-10,10H30c-5.514,0-10-4.486-10-10V34.961z"/>
		</g>
		<g>
			<path style="fill:#27A2CC;" d="M145.06,115.912H60.881c-5.523,0-10-4.478-10-10s4.477-10,10-10h84.179c5.523,0,10,4.478,10,10
				S150.583,115.912,145.06,115.912z"/>
		</g>
		<g>
			<path style="fill:#27A2CC;" d="M145.06,161.778H60.881c-5.523,0-10-4.478-10-10s4.477-10,10-10h84.179c5.523,0,10,4.478,10,10
				S150.583,161.778,145.06,161.778z"/>
		</g>
		<g>
			<path style="fill:#27A2CC;" d="M145.06,207.645H60.881c-5.523,0-10-4.478-10-10s4.477-10,10-10h84.179c5.523,0,10,4.478,10,10
				S150.583,207.645,145.06,207.645z"/>
		</g>
		<g>
			<path style="fill:#27A2CC;" d="M124.646,70.046h-43.35c-5.523,0-10-4.478-10-10s4.477-10,10-10h43.35c5.523,0,10,4.478,10,10
				S130.168,70.046,124.646,70.046z"/>
		</g>
		<g>
			<path style="fill:#FFFFFF;" d="M57.806,393.623c-6.888,0.195-12.077-7.535-9.23-13.82c3.192-8.139,15.269-8.145,18.46,0
				C69.882,386.089,64.696,393.819,57.806,393.623z"/>
		</g>
		<g>
			<path style="fill:#FFFFFF;" d="M105.926,393.623c-6.89,0.194-12.072-7.534-9.23-13.82c3.2-8.141,15.259-8.147,18.46,0
				C118.002,386.087,112.815,393.82,105.926,393.623z"/>
		</g>
		<g>
			<path style="fill:#FFFFFF;" d="M154.046,393.623c-6.89,0.195-12.072-7.534-9.23-13.82c3.204-8.146,15.256-8.139,18.469,0
				C166.125,386.093,160.933,393.822,154.046,393.623z"/>
		</g>
	</g>
</g>
<g>
</g>
<g>
</g>
<g>
</g>
<g>
</g>
<g>
</g>
<g>
</g>
<g>
</g>
<g>
</g>
<g>
</g>
<g>
</g>
<g>
</g>
<g>
</g>
<g>
</g>
<g>
</g>
<g>
</g>
</svg>
