<?xml version="1.0" encoding="iso-8859-1"?>
<!-- Generator: Adobe Illustrator 26.5.1, SVG Export Plug-In . SVG Version: 6.00 Build 0)  -->
<svg version="1.1" id="Capa_1" xmlns="http://www.w3.org/2000/svg" xmlns:xlink="http://www.w3.org/1999/xlink" x="0px" y="0px"
	 viewBox="0 0 510 510" style="enable-background:new 0 0 510 510;" xml:space="preserve">
<g>
	<g>
		<g>
			<path style="fill-rule:evenodd;clip-rule:evenodd;fill:#FDCB50;" d="M309.999,164.999v130v100h45c0-27.614,22.386-50,50-50
				c27.614,0,50,22.386,50,50h45V245l-60-80.001h-35H309.999z"/>
			<polygon style="fill-rule:evenodd;clip-rule:evenodd;fill:#FFFFFF;" points="404.999,164.999 404.999,274.999 500,274.999 
				500,245 439.999,164.999 			"/>
			<circle style="fill-rule:evenodd;clip-rule:evenodd;fill:#6864F7;" cx="404.999" cy="394.999" r="50"/>
			<path style="fill-rule:evenodd;clip-rule:evenodd;fill:#FDCB50;" d="M309.999,394.999v-100h-50h-200H10v100h45
				c0-27.614,22.386-50,50-50c27.614,0,50,22.386,50,50H309.999z"/>
			<circle style="fill-rule:evenodd;clip-rule:evenodd;fill:#6864F7;" cx="105" cy="394.999" r="50"/>
			<path style="fill-rule:evenodd;clip-rule:evenodd;fill:#F7B073;" d="M59.999,294.999h200v-130c-119.975,0-80.025,0-200,0V294.999
				z"/>
			<polygon style="fill-rule:evenodd;clip-rule:evenodd;fill:#FDE0BE;" points="134.999,224.999 159.999,209.999 184.999,224.999 
				184.999,164.999 134.999,164.999 			"/>
			<path style="fill-rule:evenodd;clip-rule:evenodd;fill:#D46B5C;" d="M105,274.999c0-38.525,6.484-75.535,18.419-110
				c-14.822,0-34.462,0-63.42,0v130h45.586C105.197,288.382,105,281.713,105,274.999z"/>
			<path style="fill-rule:evenodd;clip-rule:evenodd;fill:#FD8F01;" d="M105.585,294.999H59.999H10v100h45c0-27.614,22.386-50,50-50
				c2.521,0,4.997,0.186,7.418,0.547C108.906,329.11,106.596,312.229,105.585,294.999z"/>
		</g>
		<g>
			<g>
				<path style="fill:#FD6050;" d="M190,124.999c-2.559,0-5.119-0.977-7.071-2.929c-3.905-3.905-3.905-10.237,0-14.143l7.929-7.929
					H105c-5.523,0-10-4.478-10-10s4.477-10,10-10h85.857l-7.928-7.928c-3.905-3.905-3.906-10.237,0-14.143
					c3.905-3.904,10.237-3.904,14.142,0l25,24.999c1.875,1.875,2.929,4.419,2.929,7.071s-1.054,5.195-2.929,7.071l-25,25
					C195.118,124.022,192.559,124.999,190,124.999z"/>
			</g>
		</g>
		<g>
			<g>
				<path style="fill:#FFFFFF;" d="M495,329.999h-20c-5.523,0-10-4.478-10-10s4.477-10,10-10h20c5.523,0,10,4.478,10,10
					S500.522,329.999,495,329.999z"/>
			</g>
			<g>
				<path style="fill:#FFFFFF;" d="M405.003,404.999c-5.523,0-10.004-4.478-10.004-10s4.474-10,9.997-10h0.007
					c5.523,0,10,4.478,10,10S410.526,404.999,405.003,404.999z"/>
			</g>
			<g>
				<path style="fill:#FFFFFF;" d="M105.004,404.999c-5.523,0-10.004-4.478-10.004-10s4.474-10,9.997-10h0.007
					c5.523,0,10,4.478,10,10S110.527,404.999,105.004,404.999z"/>
			</g>
		</g>
	</g>
	<path style="fill:#052A75;" d="M508,239l-60-80.001c-1.889-2.518-4.853-4-8-4h-130c-5.523,0-10,4.478-10,10v120h-30v-120
		c0-5.522-4.477-10-10-10H60c-5.523,0-10,4.478-10,10v120H10c-5.523,0-10,4.478-10,10v100c0,5.522,4.477,10,10,10h35.834
		c4.775,28.341,29.489,50,59.167,50c29.678,0,54.392-21.659,59.166-50h181.666c4.775,28.341,29.489,50,59.166,50
		s54.392-21.659,59.166-50H500c5.523,0,10-4.478,10-10V245C510,242.836,509.298,240.731,508,239z M70,174.999h180v110H70V174.999z
		 M105,434.999c-22.056,0-40-17.944-40-40s17.944-40,40-40s40,17.944,40,40S127.057,434.999,105,434.999z M105,334.999
		c-29.678,0-54.392,21.659-59.167,50H20v-80h279.999v80H164.167C159.392,356.658,134.678,334.999,105,334.999z M405,434.999
		c-22.056,0-40-17.944-40-40s17.944-40,40-40s40,17.944,40,40S427.056,434.999,405,434.999z M490,384.999h-25.834
		c-4.775-28.341-29.489-50-59.166-50s-54.392,21.659-59.166,50h-25.834v-210h115l55,73.334V384.999z"/>
</g>
<g>
</g>
<g>
</g>
<g>
</g>
<g>
</g>
<g>
</g>
<g>
</g>
<g>
</g>
<g>
</g>
<g>
</g>
<g>
</g>
<g>
</g>
<g>
</g>
<g>
</g>
<g>
</g>
<g>
</g>
</svg>
