<?xml version="1.0" encoding="iso-8859-1"?>
<!-- Generator: Adobe Illustrator 27.0.0, SVG Export Plug-In . SVG Version: 6.00 Build 0)  -->
<svg version="1.1" id="Capa_1" xmlns="http://www.w3.org/2000/svg" xmlns:xlink="http://www.w3.org/1999/xlink" x="0px" y="0px"
	 viewBox="0 0 512 512" style="enable-background:new 0 0 512 512;" xml:space="preserve">
<g>
	<g>
		<path style="fill:#B1D952;" d="M125.347,313.359C61.642,313.359,10,365.002,10,428.706v58.548h336.109l73.347-126.445
			l-52.687-30.563l-42.818,73.814c-11.289-51.861-57.448-90.702-112.692-90.702H125.347z"/>
		<path style="fill:#FD7DA0;" d="M209.67,263.612v50.472c0,22.846-18.521,41.367-41.367,41.367h0
			c-22.846,0-41.367-18.521-41.367-41.367v-50.472H209.67z"/>
		<path style="fill:#FDBEB9;" d="M88.948,134.605v17.408c-13.705,0-24.815,11.11-24.815,24.815c0,13.705,11.11,24.815,24.815,24.815
			v5.833c0,43.826,35.528,79.355,79.355,79.355h0c43.826,0,79.355-35.528,79.355-79.355v-5.833c13.705,0,24.815-11.11,24.815-24.815
			c0-13.705-11.11-24.815-24.815-24.815v-17.408H88.948z"/>
		<path style="fill:#FDBEB9;" d="M366.768,330.247l1.021-1.761c6.85-11.809,19.469-19.077,33.12-19.077h90.69v0
			c0,28.388-23.013,51.4-51.4,51.4h-20.744L366.768,330.247z"/>
		<path style="fill:#67CCD1;" d="M88.948,134.605V104.1c0-43.826,35.528-79.355,79.355-79.355s79.355,35.528,79.355,79.355v30.504
			H88.948z"/>
		<path style="fill:#27A2CC;" d="M247.658,134.605H88.948v-11.28c0-27.41,22.22-38.351,49.631-38.351h59.448
			c27.41,0,49.631,10.941,49.631,38.351V134.605z"/>
		<rect x="369.461" y="139.993" style="fill:#D46B5C;" width="132.539" height="125.236"/>
		<polygon style="fill:#FDCB50;" points="457.82,139.993 457.82,196.316 435.73,187.515 413.641,196.316 413.641,139.993 		"/>
		<path style="fill:#91B706;" d="M103.311,389.858c0-27.74,7.153-53.806,19.702-76.469C60.386,314.633,10,365.782,10,428.706v58.548
			h126.868C115.845,460.409,103.311,426.598,103.311,389.858z"/>
	</g>
	<g>
		<path style="fill:#052A75;" d="M491.599,299.409H400.91c-17.156,0-33.162,9.219-41.771,24.06l-32.559,56.129
			c-7.938-18.577-20.351-35.182-36.173-48.085c-20.087-16.381-44.935-26.122-70.737-27.869v-23.117
			c22.262-15.701,37.075-41.289,37.946-70.334c14.359-4.294,24.856-17.627,24.856-33.364c0-15.723-10.477-29.045-24.815-33.352
			V104.1c0-49.271-40.084-89.355-89.355-89.355c-49.27,0-89.354,40.084-89.354,89.355v39.376
			c-14.339,4.307-24.815,17.628-24.815,33.352c0,15.737,10.497,29.07,24.856,33.364c0.871,29.045,15.685,54.633,37.947,70.334
			v23.112C51.726,307.98,0,362.416,0,428.706v58.548c0,5.523,4.477,10,10,10h336.109c3.565,0,6.861-1.898,8.65-4.982l70.457-121.462
			H440.2c33.855,0,61.399-27.544,61.399-61.4C501.599,303.886,497.122,299.409,491.599,299.409z M168.303,34.745
			c30.825,0,57.005,20.219,66.006,48.087c-9.541-5.117-21.768-7.859-36.282-7.859h-59.448c-14.513,0-26.74,2.742-36.281,7.859
			C111.299,54.964,137.478,34.745,168.303,34.745z M98.948,123.325c0-23.433,21.551-28.351,39.63-28.351h59.448
			c18.08,0,39.631,4.918,39.631,28.351v1.28H98.948V123.325z M98.948,207.477v-5.833c0-5.523-4.477-10-10-10
			c-8.169,0-14.815-6.646-14.815-14.815c0-8.169,6.646-14.815,14.815-14.815c5.523,0,10-4.477,10-10v-7.409h138.709v7.409
			c0,5.523,4.477,10,10,10c8.169,0,14.815,6.646,14.815,14.815c0,8.169-6.646,14.815-14.815,14.815c-5.523,0-10,4.477-10,10v5.833
			c0,38.243-31.112,69.355-69.355,69.355C130.061,276.832,98.948,245.719,98.948,207.477z M199.67,291.127v22.232v0.724
			c0,17.296-14.071,31.367-31.368,31.367c-17.296,0-31.367-14.071-31.367-31.367v-0.724v-22.233
			c9.767,3.675,20.332,5.705,31.368,5.705C179.339,296.832,189.904,294.801,199.67,291.127z M340.349,477.254h-64.653v-38.507
			c0-5.523-4.478-10-10-10s-10,4.477-10,10v38.507H80.914v-38.507c0-5.523-4.477-10-10-10s-10,4.477-10,10v38.507H20v-48.548
			c0-55.564,43.241-101.213,97.839-105.077c4.489,23.776,25.402,41.821,50.464,41.821c25.054,0,45.963-18.034,50.46-41.8
			c21.528,1.548,42.242,9.692,59.005,23.361c18.448,15.045,31.38,36.061,36.411,59.176c0.878,4.033,4.144,7.112,8.222,7.752
			c4.071,0.639,8.129-1.291,10.2-4.861l37.8-65.164l35.387,20.527L340.349,477.254z M440.2,350.809h-18.054l-40.702-23.61
			c5.191-4.916,12.145-7.791,19.465-7.791h79.469C475.894,337.422,459.581,350.809,440.2,350.809z"/>
		<path style="fill:#052A75;" d="M168.258,247.815c12.915,0,25.016-5.738,33.201-15.742c3.497-4.274,2.867-10.575-1.408-14.072
			c-4.274-3.498-10.575-2.867-14.072,1.408c-4.371,5.342-10.83,8.406-17.721,8.406c-6.854,0-13.29-3.036-17.659-8.33
			c-3.516-4.26-9.818-4.864-14.078-1.347c-4.26,3.515-4.863,9.818-1.347,14.078C143.356,242.129,155.415,247.815,168.258,247.815z"
			/>
		<path style="fill:#052A75;" d="M502,129.993H369.46c-5.522,0-10,4.477-10,10v125.236c0,5.523,4.478,10,10,10H502
			c5.522,0,10-4.477,10-10V139.993C512,134.47,507.522,129.993,502,129.993z M492,255.229H379.46V149.993H492V255.229z"/>
	</g>
</g>
<g>
</g>
<g>
</g>
<g>
</g>
<g>
</g>
<g>
</g>
<g>
</g>
<g>
</g>
<g>
</g>
<g>
</g>
<g>
</g>
<g>
</g>
<g>
</g>
<g>
</g>
<g>
</g>
<g>
</g>
</svg>
