<?xml version="1.0" encoding="iso-8859-1"?>
<!-- Generator: Adobe Illustrator 27.0.0, SVG Export Plug-In . SVG Version: 6.00 Build 0)  -->
<svg version="1.1" id="Capa_1" xmlns="http://www.w3.org/2000/svg" xmlns:xlink="http://www.w3.org/1999/xlink" x="0px" y="0px"
	 viewBox="0 0 512 512" style="enable-background:new 0 0 512 512;" xml:space="preserve">
<g>
	<g>
		<g>
			<polygon style="fill:#B55348;" points="415.488,460.677 415.488,10 96.512,10 96.512,460.677 139.74,460.677 139.74,53.228 
				372.26,53.228 372.26,460.677 			"/>
			<line style="fill:#FFFFFF;" x1="139.74" y1="460.677" x2="10" y2="460.677"/>
			<line style="fill:#FFFFFF;" x1="502" y1="460.677" x2="372.26" y2="460.677"/>
			<polygon style="fill:#D46B5C;" points="372.26,53.228 185.298,94.551 185.298,502 372.26,460.677 			"/>
			<path style="fill:#B55348;" d="M229.463,263.831c0-68.352,16.838-132.771,46.589-189.339l-90.753,20.058V502l105.388-23.293
				C251.88,416.331,229.463,342.7,229.463,263.831z"/>
		</g>
	</g>
	<g>
		<path style="fill:#052A75;" d="M502,450.677h-76.512V10c0-5.523-4.477-10-10-10H96.512c-5.523,0-10,4.477-10,10v440.677H10
			c-5.523,0-10,4.477-10,10s4.477,10,10,10h129.74c5.523,0,10-4.477,10-10V63.228h130.941L183.14,84.787
			c-4.581,1.012-7.842,5.073-7.842,9.764V502c0,3.031,1.375,5.899,3.738,7.797c1.792,1.439,4.006,2.203,6.262,2.203
			c0.719,0,1.443-0.078,2.158-0.236l185.894-41.087H502c5.523,0,10-4.477,10-10S507.523,450.677,502,450.677z M139.74,43.228
			c-5.523,0-10,4.477-10,10v397.449h-23.228V20h298.976v430.677H382.26V53.228c0.091-5.373-4.631-10.086-10-10H139.74z
			 M195.298,102.583L362.26,65.68v386.966l-166.961,36.902V102.583z"/>
		<g>
			<g>
				<path style="fill:#FDCB50;" d="M178.893,309.904c-4.581,0-8.711-3.167-9.75-7.824c-1.203-5.391,2.191-10.735,7.582-11.938
					l53.136-11.858c5.39-1.204,10.735,2.191,11.938,7.582c1.203,5.391-2.191,10.735-7.582,11.938l-53.136,11.858
					C180.347,309.826,179.614,309.904,178.893,309.904z"/>
			</g>
			<g>
				<g>
					<g>
						<g>
							<path style="fill:#FD8F01;" d="M502,215.791h-42.267c-5.523,0-10-4.477-10-10s4.477-10,10-10H502c5.523,0,10,4.477,10,10
								S507.523,215.791,502,215.791z"/>
						</g>
						<g>
							<path style="fill:#FD8F01;" d="M481.227,267.09c-1.461,0-2.945-0.322-4.349-1.001l-21.5-10.404
								c-4.971-2.406-7.051-8.386-4.646-13.357c2.406-4.972,8.385-7.052,13.357-4.646l21.5,10.404
								c4.971,2.406,7.051,8.386,4.646,13.357C488.509,265.012,484.941,267.09,481.227,267.09z"/>
						</g>
						<g>
							<path style="fill:#FD8F01;" d="M459.741,174.901c-3.715,0-7.282-2.079-9.009-5.646c-2.406-4.971-0.326-10.952,4.646-13.357
								l21.5-10.405c4.972-2.406,10.953-0.326,13.357,4.646c2.406,4.971,0.326,10.952-4.646,13.357l-21.5,10.405
								C462.686,174.579,461.202,174.901,459.741,174.901z"/>
						</g>
					</g>
				</g>
				<g>
					<g>
						<g>
							<path style="fill:#FD8F01;" d="M52.267,215.791H10c-5.523,0-10-4.477-10-10s4.477-10,10-10h42.267c5.523,0,10,4.477,10,10
								S57.79,215.791,52.267,215.791z"/>
						</g>
						<g>
							<path style="fill:#FD8F01;" d="M30.773,267.09c-3.715,0-7.282-2.079-9.009-5.646c-2.406-4.972-0.326-10.952,4.646-13.357
								l21.5-10.404c4.972-2.406,10.952-0.326,13.357,4.646c2.406,4.972,0.326,10.952-4.646,13.357l-21.5,10.404
								C33.719,266.769,32.234,267.09,30.773,267.09z"/>
						</g>
						<g>
							<path style="fill:#FD8F01;" d="M52.259,174.901c-1.461,0-2.945-0.322-4.349-1.001l-21.5-10.405
								c-4.971-2.406-7.051-8.386-4.646-13.357c2.406-4.972,8.386-7.052,13.357-4.646l21.5,10.405
								c4.971,2.406,7.051,8.386,4.646,13.357C59.542,172.822,55.974,174.901,52.259,174.901z"/>
						</g>
					</g>
				</g>
			</g>
		</g>
	</g>
</g>
<g>
</g>
<g>
</g>
<g>
</g>
<g>
</g>
<g>
</g>
<g>
</g>
<g>
</g>
<g>
</g>
<g>
</g>
<g>
</g>
<g>
</g>
<g>
</g>
<g>
</g>
<g>
</g>
<g>
</g>
</svg>
