<?xml version="1.0" encoding="iso-8859-1"?>
<!-- Generator: Adobe Illustrator 28.0.0, SVG Export Plug-In . SVG Version: 6.00 Build 0)  -->
<svg version="1.1" id="Layer_1" xmlns="http://www.w3.org/2000/svg" xmlns:xlink="http://www.w3.org/1999/xlink" x="0px" y="0px"
	 viewBox="0 0 510 510" style="enable-background:new 0 0 510 510;" xml:space="preserve">
<g>
	<g>
		<g>
			<path style="fill:#93B2F4;" d="M176.897,348.17h-92.74c-36.97,0-67.961,29.97-67.961,66.94v47.16h227.641v-47.16
				C243.837,378.141,213.867,348.17,176.897,348.17z"/>
		</g>
		<g>
			<g>
				<path style="fill:#6864F7;" d="M146.635,461.939H16.683v-42.898c0-37,27.39-67.59,62.99-72.61c-4.14,9.58-6.36,19.7-6.36,30.17
					C73.313,414.861,107.247,445.373,146.635,461.939z"/>
			</g>
		</g>
		<g>
			<path style="fill:#FDBEB9;" d="M30.485,154.509v38.599c-9.5,1.328-16.811,9.486-16.811,19.352
				c0,10.529,8.327,19.112,18.754,19.525c7.599,37.977,36.738,68.156,74.108,77.209v42.313l23.741,33.745l23.217-33.745v-42.313
				c37.371-9.053,66.509-39.233,74.109-77.209c10.427-0.413,18.754-8.996,18.754-19.525c0-9.866-7.311-18.024-16.811-19.352v-5.28
				l0-33.32H30.485z"/>
		</g>
		<g>
			<path style="fill:#FD7DA0;" d="M196.443,291.52c-11.46,9.12-24.91,15.84-39.59,19.4v37.38l-26.575,36.952l-21.845-34.142v-40.19
				c-38.53-9.34-68.58-40.46-76.42-79.62c-10.75-0.43-19.33-9.28-19.33-20.13c0-10.18,7.53-18.59,17.33-19.96V176.3h40.58
				c-0.67,4.47-1.01,9.02-1.01,13.65c0,56.48,50.84,102.27,113.55,102.27C187.633,292.22,192.083,291.98,196.443,291.52z"/>
		</g>
		<g>
			<path style="fill:#D2DCFD;" d="M477.848,271.903c-18.552,8.029-49.407,16.685-98.841,16.685c-49.435,0-80.512-8.95-99.064-16.979
				l-21.63,62.241c50.403,12.952,88.349,57.097,94.368,108.787l2.156,17.313l48.704-0.147l1.79-17.166
				c6.019-51.691,44.037-95.394,94.44-108.346L477.848,271.903z"/>
		</g>
		<g>
			<path style="fill:#93B2F4;" d="M130.228,47.729C63.828,47.729,10,73.64,10,105.602c0,11.286,6.711,21.724,18.318,30.626
				c0,26.68,19.21,48.309,45.89,48.309h111.828c26.68,0,45.679-21.629,45.679-48.309c0,0.139-0.001,0.278-0.002,0.418
				c11.868-8.971,18.743-19.621,18.743-31.044C250.456,73.64,196.628,47.729,130.228,47.729z"/>
		</g>
		<g>
			<path style="fill:#6864F7;" d="M178.29,184.54H74.21c-26.68,0-45.89-21.63-45.89-48.31C16.71,127.33,10,116.89,10,105.599
				c0-29.5,45.86-53.84,105.13-57.41c-13.04,14.39-20.68,31.9-20.68,50.79C94.45,139.659,129.89,173.949,178.29,184.54z"/>
		</g>
	</g>
	<g>
		<g>
			<path style="fill:#052A75;" d="M235.86,240.599c11.96-3.8,20.5-14.96,20.5-28.14c0-11.57-6.81-21.84-16.81-26.65v-31.3
				c0-0.46-0.03-0.92-0.1-1.36c1.03-3.72,1.71-7.58,2.03-11.54c12.44-10.59,18.98-22.96,18.98-36.01
				c0-19.51-14.52-37.24-40.88-49.93c-24.03-11.57-55.77-17.94-89.35-17.94c-33.59,0-65.32,6.37-89.35,17.94
				C14.52,68.359,0,86.09,0,105.599c0,12.82,6.39,25.04,18.52,35.54c0.3,4.11,1,8.12,2.07,11.99c-0.07,0.45-0.1,0.91-0.1,1.38v31.3
				c-10,4.81-16.82,15.08-16.82,26.65c0,13.18,8.54,24.34,20.5,28.14c9.58,35.95,37.03,64.8,72.37,76.16v6.79
				c-2.6-0.57-5.41-0.09-7.77,1.54c-4.28,2.94-5.54,8.63-3.07,13.08h-1.54c-20.58,0-40.05,7.98-54.84,22.46
				c-14.91,14.6-23.12,33.95-23.12,54.48v47.16c0,5.52,4.47,10,10,10h227.64c5.52,0,10-4.48,10-10v-47.16
				c0-42.42-34.52-76.94-76.94-76.94h-2.05c2.48-4.45,1.22-10.14-3.06-13.08c-2.51-1.74-5.55-2.17-8.29-1.42v-6.91
				C198.83,305.4,226.28,276.55,235.86,240.599z M130.23,57.729c64.96,0,110.23,25.23,110.23,47.87c0,8.4-5.86,15.54-11.75,20.63
				H31.87c-5.9-5.03-11.87-12.22-11.87-20.63C20,82.959,65.27,57.729,130.23,57.729z M220.58,146.229
				c-3.89,16.67-17.45,28.31-34.54,28.31H74.21c-17.2,0-30.84-11.64-34.76-28.31H220.58z M176.9,358.169
				c31.39,0,56.94,25.54,56.94,56.94v37.16H26.2v-37.16c0-31.4,26-56.94,57.96-56.94h15.28l22.61,32.76
				c1.86,2.71,4.94,4.32,8.23,4.32c3.29,0,6.36-1.61,8.23-4.32l22.6-32.76H176.9z M151.14,299.479c-4.48,1.08-7.64,5.1-7.64,9.71
				v39.29l-13.22,19.16l-13.74-19.91v-38.54c0-4.61-3.16-8.63-7.65-9.71c-33.68-8.16-59.85-35.43-66.66-69.46
				c-0.9-4.53-4.79-7.84-9.41-8.03c-5.13-0.2-9.15-4.39-9.15-9.53c0-4.73,3.53-8.79,8.2-9.45c4.94-0.69,8.62-4.91,8.62-9.9v-9.93
				c9.51,7.38,21.21,11.36,33.72,11.36h111.83c12.45,0,24.07-3.95,33.51-11.26v9.83c0,4.99,3.67,9.21,8.61,9.9
				c4.68,0.66,8.2,4.72,8.2,9.45c0,5.14-4.02,9.33-9.15,9.53c-4.62,0.19-8.5,3.5-9.41,8.03
				C210.99,264.05,184.82,291.32,151.14,299.479z"/>
		</g>
		<g>
			<path style="fill:#6864F7;" d="M194.135,428.601h-21.191c-5.523,0-10-4.477-10-10s4.477-10,10-10h21.191c5.523,0,10,4.477,10,10
				S199.658,428.601,194.135,428.601z"/>
		</g>
		<g>
			<path style="fill:#052A75;" d="M344.915,461.186l-2.156-17.312c-5.604-48.124-40.536-88.415-86.934-100.338l4.978-19.37
				c54.353,13.967,95.268,61.113,101.812,117.316l2.146,17.233L344.915,461.186z"/>
		</g>
		<g>
			<path style="fill:#052A75;" d="M413.488,460.84l-19.893-2.074l1.79-17.166c0.004-0.04,0.009-0.08,0.013-0.12
				c6.512-55.919,47.457-102.888,101.885-116.875l4.978,19.371c-46.453,11.938-81.405,52.023-86.989,99.758L413.488,460.84z"/>
		</g>
		<g>
			<path style="fill:#052A75;" d="M379.007,298.588c-41.077,0-75.744-5.989-103.036-17.802l7.944-18.354
				c24.77,10.72,56.763,16.156,95.092,16.156c38.631,0,70.549-5.337,94.869-15.862l7.943,18.354
				C454.978,292.698,420.386,298.588,379.007,298.588z"/>
		</g>
		<g>
			<path style="fill:#93B2F4;" d="M379.007,472.271c-72.23,0-130.994-58.764-130.994-130.994s58.764-130.993,130.994-130.993
				S510,269.047,510,341.277S451.237,472.271,379.007,472.271z M379.007,230.284c-61.202,0-110.994,49.792-110.994,110.993
				c0,61.202,49.792,110.994,110.994,110.994c61.202,0,110.993-49.792,110.993-110.994C490,280.075,440.208,230.284,379.007,230.284
				z"/>
		</g>
		<g>
			
				<ellipse transform="matrix(0.4332 -0.9013 0.9013 0.4332 -95.6117 536.8276)" style="fill:#FFFFFF;" cx="379.007" cy="344.431" rx="18.191" ry="18.191"/>
		</g>
	</g>
</g>
<g>
</g>
<g>
</g>
<g>
</g>
<g>
</g>
<g>
</g>
<g>
</g>
<g>
</g>
<g>
</g>
<g>
</g>
<g>
</g>
<g>
</g>
<g>
</g>
<g>
</g>
<g>
</g>
<g>
</g>
</svg>
