<?xml version="1.0" encoding="iso-8859-1"?>
<!-- Generator: Adobe Illustrator 26.5.1, SVG Export Plug-In . SVG Version: 6.00 Build 0)  -->
<svg version="1.1" id="Capa_1" xmlns="http://www.w3.org/2000/svg" xmlns:xlink="http://www.w3.org/1999/xlink" x="0px" y="0px"
	 viewBox="0 0 510.01 510.01" style="enable-background:new 0 0 510.01 510.01;" xml:space="preserve">
<g>
	<g>
		<path style="fill-rule:evenodd;clip-rule:evenodd;fill:#93B2F4;" d="M330.954,138.106c0-18.475-13.728-33.743-31.539-36.163
			c-6.816-21.085-26.606-36.337-49.961-36.337c-17.365,0-32.758,8.433-42.315,21.424c-2.716-0.603-5.538-0.924-8.435-0.924
			c-21.401,0-38.75,17.349-38.75,38.75c0,21.401,17.349,38.75,38.75,38.75c6.51,0,12.644-1.608,18.03-4.445
			c8.974,7.161,20.346,11.445,32.72,11.445c7.656,0,14.928-1.639,21.486-4.585c6.352,5.356,14.555,8.586,23.514,8.586
			C314.612,174.607,330.954,158.265,330.954,138.106z"/>
		<path style="fill-rule:evenodd;clip-rule:evenodd;fill:#D2DCFD;" d="M273.326,270.44c-16.852-22.908-43.995-37.777-74.614-37.777
			c-41.182,0-76.077,26.893-88.096,64.074c-31.407,4.268-55.614,31.189-55.614,63.767c0,35.545,28.816,64.361,64.361,64.361
			c15.797,0,30.262-5.695,41.463-15.139c11.564,5.194,24.387,8.085,37.886,8.085c12.78,0,24.954-2.592,36.027-7.277
			c117.243,31.415,131.435-84.003,107.104-115.718c-10.539-13.34-17.193-18.337-29.682-21.684c-7.456-2.793-15.53-4.32-23.961-4.32
			C283.091,268.812,278.115,269.377,273.326,270.44z"/>
		<path style="fill-rule:evenodd;clip-rule:evenodd;fill:#93B2F4;" d="M273.326,270.44c-2.431-3.304-5.076-6.439-7.914-9.388
			c-0.157,3.209-0.084,6.422,0.219,9.614c-30.06,18.7-53.033,48.635-62.628,84.443l-16.584,61.892
			c4.022,0.534,8.125,0.81,12.293,0.81c12.78,0,24.954-2.592,36.027-7.277c117.243,31.415,131.435-84.003,107.104-115.718
			c-10.539-13.34-17.193-18.337-29.682-21.684c-7.456-2.793-15.53-4.32-23.961-4.32C283.091,268.812,278.115,269.377,273.326,270.44
			z"/>
		<path style="fill-rule:evenodd;clip-rule:evenodd;fill:#FDCB50;" d="M341.843,294.816c-42.928-1.678-83.477,27.542-95.374,71.94
			l-11.73,43.778l-11.014,41.103l87.851,23.54c25.485,6.829,52.101-9.094,59.145-35.384c-7.044,26.29,8.043,53.387,33.529,60.216
			l22.743-84.881c13.722-51.211-15.668-103.997-65.313-117.299C355.076,296.059,348.432,295.073,341.843,294.816z"/>
		<path style="fill-rule:evenodd;clip-rule:evenodd;fill:#F7B073;" d="M335.881,288.202l62.109,16.642
			c11.758,3.15,23.956-3.892,27.106-15.65c3.15-11.758-3.892-23.955-15.65-27.106l-14.252-3.819l-42.756-11.456l-14.252-3.819
			c-11.758-3.151-23.956,3.892-27.106,15.65c-1.338,4.992-0.838,10.064,1.08,14.489c2.599,5.996,7.804,10.805,14.569,12.618
			L335.881,288.202z"/>
		<path style="fill-rule:evenodd;clip-rule:evenodd;fill:#FDE0BE;" d="M352.438,246.813l42.756,11.456L454.25,37.867
			c3.148-11.75-3.892-23.956-15.65-27.107c-11.758-3.15-23.955,3.891-27.106,15.65L352.438,246.813z"/>
		<path style="fill-rule:evenodd;clip-rule:evenodd;fill:#FDCB50;" d="M341.843,294.816c-42.928-1.678-83.477,27.542-95.374,71.94
			l-11.73,43.778l-11.014,41.103l87.851,23.54c25.485,6.829,52.101-9.094,59.145-35.384c-7.044,26.29,8.043,53.387,33.529,60.216
			l22.743-84.881c13.722-51.211-15.668-103.997-65.313-117.299C355.076,296.059,348.432,295.073,341.843,294.816z"/>
		<path style="fill-rule:evenodd;clip-rule:evenodd;fill:#F7B073;" d="M335.881,288.202l62.109,16.642
			c11.758,3.15,23.956-3.892,27.106-15.65c3.15-11.758-3.892-23.955-15.65-27.106l-14.252-3.819l-42.756-11.456l-14.252-3.819
			c-11.758-3.151-23.956,3.892-27.106,15.65c-1.338,4.992-0.838,10.064,1.08,14.489c2.599,5.996,7.804,10.805,14.569,12.618
			L335.881,288.202z"/>
	</g>
	<g>
		<g>
			<g>
				<path style="fill:#FD8F01;" d="M373.762,377.16c-0.517,0-1.039-0.04-1.564-0.123c-5.456-0.857-9.185-5.975-8.327-11.431
					c6.387-40.652-1.449-55.91-5.026-56.869c-4.587-1.225-19.411,11.563-32.946,46.694c-1.984,5.153-7.775,7.722-12.926,5.736
					c-5.154-1.986-7.723-7.773-5.736-12.927c7.185-18.649,15.624-33.922,24.404-44.168c13.438-15.681,25.024-16.624,32.381-14.653
					c19.554,5.239,26.7,34.14,19.607,79.291C382.854,373.641,378.6,377.16,373.762,377.16z"/>
			</g>
		</g>
		<g>
			<path style="fill:#052A75;" d="M441.188,1.102c-8.266-2.215-16.921-1.066-24.368,3.233c-7.448,4.3-12.77,11.221-14.984,19.488
				l-56.469,210.743l-4.593-1.231c-8.266-2.215-16.921-1.067-24.369,3.233c-7.448,4.3-12.77,11.221-14.984,19.488
				c-0.334,1.246-0.589,2.495-0.769,3.742c-4.1-0.656-8.26-0.987-12.451-0.987c-3.585,0-7.171,0.246-10.719,0.732
				c-19.398-23.201-48.392-36.881-78.77-36.881c-42.615,0-80.285,25.982-95.57,65.262c-33.547,7.482-58.14,37.65-58.14,72.579
				c0,41.002,33.358,74.361,74.361,74.361c15.432,0,30.477-4.824,42.989-13.688c11.591,4.405,23.794,6.634,36.36,6.634
				c7.346,0,14.586-0.768,21.659-2.291l-6.304,23.527c-1.43,5.335,1.736,10.818,7.071,12.248l87.852,23.54
				c14.963,4.009,30.663,1.753,44.21-6.351c3.181-1.903,6.148-4.073,8.882-6.479c6.003,17.926,20.331,32.504,39.582,37.662
				c0.867,0.232,1.737,0.343,2.594,0.343c4.415,0,8.456-2.947,9.653-7.415l22.743-84.88c7.313-27.292,3.827-55.816-9.815-80.318
				c-4.646-8.343-10.271-15.867-16.717-22.447c11.549-2.369,21.381-11.027,24.634-23.168c4.586-17.114-5.606-34.768-22.721-39.353
				l-4.592-1.231L463.91,40.455C468.495,23.341,458.302,5.687,441.188,1.102z M198.712,407.811c-11.773,0-23.141-2.425-33.789-7.208
				c-3.506-1.575-7.604-1.001-10.543,1.477c-9.778,8.244-22.214,12.784-35.017,12.784c-29.975,0-54.361-24.386-54.361-54.361
				c0-27.066,20.188-50.22,46.96-53.858c3.81-0.518,6.986-3.174,8.168-6.833c11.05-34.183,42.63-57.15,78.581-57.15
				c26.153,0,51.035,12.599,66.559,33.703c2.348,3.19,6.356,4.694,10.224,3.836c4.155-0.923,8.431-1.391,12.706-1.391
				c5.791,0,11.496,0.844,16.976,2.508c1.633,2.63,3.643,5.029,5.98,7.105c-34.851,9.661-64.12,37.582-74.346,75.743l-10.42,38.89
				C217.529,406.213,208.234,407.811,198.712,407.811z M417.335,412.54l-19.796,73.879c-14.369-8.587-21.862-26.482-17.158-44.039
				c0.231-0.865,0.343-1.733,0.344-2.588c0.002-4.418-2.945-8.462-7.415-9.659c-5.338-1.431-10.817,1.737-12.247,7.071
				c-2.73,10.191-9.17,18.756-18.132,24.118c-8.861,5.3-19.076,6.79-28.766,4.195l-78.191-20.952l20.155-75.222
				c12.334-46.012,58.522-73.765,102.965-61.856c21.373,5.727,39.226,19.805,50.27,39.639
				C420.465,367.064,423.296,390.294,417.335,412.54z M415.437,286.607c-1.731,6.462-8.399,10.31-14.859,8.579l-71.26-19.094
				c-6.461-1.731-10.31-8.397-8.578-14.859c1.451-5.414,6.365-8.993,11.722-8.993c1.036,0,2.09,0.134,3.138,0.415l71.26,19.094
				C413.319,273.479,417.168,280.145,415.437,286.607z M444.592,35.279l-56.468,210.743l-23.438-6.28l56.469-210.743
				c0.832-3.106,2.845-5.714,5.666-7.343s6.083-2.067,9.192-1.235C442.474,22.151,446.322,28.817,444.592,35.279z"/>
			<path style="fill:#052A75;" d="M198.704,173.607c5.748,0,11.472-1.027,16.844-3c10.051,6.482,21.879,10,33.906,10
				c6.89,0,13.602-1.101,20.025-3.278c7.423,4.725,16.096,7.278,24.975,7.278c25.641,0,46.5-20.86,46.5-46.5
				c0-21.059-14.297-39.35-34.126-44.829c-9.811-22.758-32.174-37.671-57.374-37.671c-17.718,0-34.664,7.638-46.447,20.689
				c-1.431-0.126-2.867-0.189-4.303-0.189c-26.881,0-48.75,21.869-48.75,48.75S171.823,173.607,198.704,173.607z M198.704,96.107
				c2.109,0,4.218,0.231,6.268,0.686c3.868,0.859,7.876-0.646,10.223-3.836c7.992-10.864,20.799-17.35,34.259-17.35
				c18.505,0,34.759,11.82,40.445,29.413c1.184,3.659,4.359,6.315,8.169,6.833c13.047,1.773,22.886,13.06,22.886,26.254
				c0,14.612-11.888,26.5-26.5,26.5c-6.241,0-12.303-2.212-17.067-6.23c-1.838-1.55-4.131-2.355-6.448-2.355
				c-1.387,0-2.782,0.288-4.096,0.878c-5.477,2.46-11.328,3.708-17.389,3.708c-9.732,0-18.89-3.203-26.482-9.261
				c-3.105-2.478-7.382-2.883-10.897-1.032c-4.149,2.185-8.647,3.293-13.371,3.293c-15.853,0-28.75-12.897-28.75-28.75
				S182.852,96.107,198.704,96.107z"/>
		</g>
		<g>
			<g>
				<path style="fill:#93B2F4;" d="M67.003,137.005c-5.523,0-10.004-4.477-10.004-10s4.473-10,9.996-10h0.008
					c5.523,0,10,4.477,10,10S72.526,137.005,67.003,137.005z"/>
			</g>
			<g>
				<path style="fill:#93B2F4;" d="M115.012,199.005c-5.523,0-10.004-4.477-10.004-10s4.473-10,9.996-10h0.009
					c5.523,0,10,4.477,10,10S120.535,199.005,115.012,199.005z"/>
			</g>
			<g>
				<path style="fill:#93B2F4;" d="M62.003,238.005c-5.523,0-10.004-4.477-10.004-10s4.473-10,9.996-10h0.009
					c5.523,0,10,4.477,10,10S67.526,238.005,62.003,238.005z"/>
			</g>
		</g>
	</g>
</g>
<g>
</g>
<g>
</g>
<g>
</g>
<g>
</g>
<g>
</g>
<g>
</g>
<g>
</g>
<g>
</g>
<g>
</g>
<g>
</g>
<g>
</g>
<g>
</g>
<g>
</g>
<g>
</g>
<g>
</g>
</svg>
