<?xml version="1.0" encoding="iso-8859-1"?>
<!-- Generator: Adobe Illustrator 29.5.1, SVG Export Plug-In . SVG Version: 9.03 Build 0)  -->
<svg version="1.1" id="Capa_1" xmlns="http://www.w3.org/2000/svg" xmlns:xlink="http://www.w3.org/1999/xlink" x="0px" y="0px"
	 viewBox="0 0 512 512" style="enable-background:new 0 0 512 512;" xml:space="preserve">
<g>
	<g>
		<g>
			<circle style="fill:#BC9AF4;" cx="91.414" cy="136.511" r="23.778"/>
		</g>
		<g>
			<circle style="fill:#BC9AF4;" cx="427.416" cy="375.489" r="23.778"/>
		</g>
		<g>
			<circle style="fill:#BC9AF4;" cx="33.778" cy="256" r="23.778"/>
		</g>
		<g>
			<circle style="fill:#BC9AF4;" cx="478.222" cy="256" r="23.778"/>
		</g>
		<g>
			<circle style="fill:#BC9AF4;" cx="136.511" cy="420.586" r="23.778"/>
		</g>
		<g>
			<circle style="fill:#BC9AF4;" cx="375.489" cy="84.584" r="23.778"/>
		</g>
		<g>
			<circle style="fill:#BC9AF4;" cx="256" cy="478.222" r="23.778"/>
		</g>
		<g>
			<circle style="fill:#BC9AF4;" cx="256" cy="33.778" r="23.778"/>
		</g>
		<g>
			<circle style="fill:#FDCB50;" cx="256" cy="256.777" r="124.278"/>
		</g>
		<g>
			<path style="fill:#FD8F01;" d="M299.246,373.321c-13.465,5-28.034,7.731-43.246,7.731c-68.639,0-124.275-55.636-124.275-124.275
				c0-44.792,23.696-84.042,59.231-105.911c-3.093,13.927-4.729,28.416-4.729,43.276
				C186.226,273.154,232.404,341.391,299.246,373.321z"/>
		</g>
	</g>
	<g>
		<g>
			<g>
				<path style="fill:#FDCB50;" d="M142.411,214.201H94.426c-7.175,0-13.012-5.837-13.012-13.013v-39.581c0-5.523,4.477-10,10-10
					s10,4.477,10,10v32.594h40.997c5.523,0,10,4.477,10,10S147.934,214.201,142.411,214.201z"/>
			</g>
			<g>
				<path style="fill:#FDCB50;" d="M417.374,214.201h-47.836c-5.522,0-10-4.477-10-10s4.478-10,10-10h47.836c5.522,0,10,4.477,10,10
					S422.896,214.201,417.374,214.201z"/>
			</g>
			<g>
				<path style="fill:#FDCB50;" d="M427.416,360.4c-5.522,0-10-4.477-10-10v-32.6h-46.727c-5.522,0-10-4.477-10-10s4.478-10,10-10
					h53.714c7.175,0,13.013,5.837,13.013,13.012V350.4C437.416,355.923,432.938,360.4,427.416,360.4z M424.403,317.8h0.01H424.403z"
					/>
			</g>
			<g>
				<path style="fill:#FDCB50;" d="M141.835,317.8C141.835,317.8,141.835,317.8,141.835,317.8l-40.38,0c-5.523,0-10-4.477-10-10
					c0-5.522,4.478-10,10-10c0,0,0,0,0,0l40.38,0c5.523,0,10,4.477,10,10C151.835,313.322,147.358,317.8,141.835,317.8z"/>
			</g>
			<g>
				<path style="fill:#FDCB50;" d="M129.402,266H59.872c-5.523,0-10-4.477-10-10s4.477-10,10-10h69.531c5.523,0,10,4.477,10,10
					S134.925,266,129.402,266z"/>
			</g>
			<g>
				<path style="fill:#FDCB50;" d="M453.574,266h-70.452c-5.522,0-10-4.477-10-10s4.478-10,10-10h70.452c5.522,0,10,4.477,10,10
					S459.097,266,453.574,266z"/>
			</g>
			<g>
				<path style="fill:#052A75;" d="M91.414,170.29c-18.625,0-33.778-15.153-33.778-33.778c0-18.625,15.153-33.778,33.778-33.778
					c18.625,0,33.778,15.153,33.778,33.778C125.192,155.137,110.039,170.29,91.414,170.29z M91.414,122.733
					c-7.597,0-13.778,6.181-13.778,13.778s6.181,13.778,13.778,13.778s13.778-6.181,13.778-13.778S99.011,122.733,91.414,122.733z"
					/>
			</g>
			<g>
				<path style="fill:#052A75;" d="M427.416,409.267c-18.625,0-33.778-15.153-33.778-33.778c0-18.625,15.153-33.778,33.778-33.778
					s33.777,15.153,33.777,33.778C461.193,394.114,446.041,409.267,427.416,409.267z M427.416,361.71
					c-7.598,0-13.778,6.181-13.778,13.778s6.181,13.778,13.778,13.778c7.597,0,13.777-6.181,13.777-13.778
					S435.013,361.71,427.416,361.71z"/>
			</g>
			<g>
				<path style="fill:#052A75;" d="M33.778,289.778C15.153,289.778,0,274.625,0,256s15.153-33.778,33.778-33.778
					c18.625,0,33.778,15.153,33.778,33.778S52.403,289.778,33.778,289.778z M33.778,242.222C26.181,242.222,20,248.403,20,256
					s6.181,13.778,13.778,13.778S47.556,263.597,47.556,256S41.375,242.222,33.778,242.222z"/>
			</g>
			<g>
				<path style="fill:#052A75;" d="M478.222,289.778c-18.625,0-33.777-15.153-33.777-33.778s15.152-33.778,33.777-33.778
					S512,237.375,512,256S496.847,289.778,478.222,289.778z M478.222,242.222c-7.597,0-13.777,6.181-13.777,13.778
					s6.181,13.778,13.777,13.778c7.598,0,13.778-6.181,13.778-13.778S485.819,242.222,478.222,242.222z"/>
			</g>
		</g>
		<g>
			<g>
				<path style="fill:#FDCB50;" d="M201.188,430.586H161.06c-5.523,0-10-4.477-10-10s4.477-10,10-10h33.141V370.43
					c0-5.523,4.477-10,10-10s10,4.477,10,10v47.144C214.201,424.749,208.363,430.586,201.188,430.586z"/>
			</g>
			<g>
				<path style="fill:#FDCB50;" d="M204.201,152.728c-5.523,0-10-4.477-10-10V94.626c0-5.523,4.477-10,10-10s10,4.477,10,10v48.102
					C214.201,148.25,209.724,152.728,204.201,152.728z"/>
			</g>
			<g>
				<path style="fill:#FDCB50;" d="M307.8,152.958c-5.522,0-10-4.477-10-10V87.597c0-7.175,5.837-13.012,13.012-13.012h40.308
					c5.522,0,10,4.477,10,10s-4.478,10-10,10H317.8v48.374C317.8,148.481,313.322,152.958,307.8,152.958z"/>
			</g>
			<g>
				<path style="fill:#FDCB50;" d="M307.8,420.544c-5.522,0-10-4.477-10-10v-39.769c0-5.523,4.478-10,10-10s10,4.477,10,10v39.769
					C317.8,416.067,313.322,420.544,307.8,420.544z"/>
			</g>
			<g>
				<path style="fill:#FDCB50;" d="M256,463.545c-5.523,0-10-4.477-10-10v-71.488c0-5.523,4.477-10,10-10c5.522,0,10,4.477,10,10
					v71.488C266,459.068,261.522,463.545,256,463.545z"/>
			</g>
			<g>
				<path style="fill:#FDCB50;" d="M256,141.792c-5.523,0-10-4.477-10-10V58.577c0-5.523,4.477-10,10-10c5.522,0,10,4.477,10,10
					v73.215C266,137.314,261.522,141.792,256,141.792z"/>
			</g>
			<g>
				<path style="fill:#052A75;" d="M136.511,454.364c-18.625,0-33.778-15.153-33.778-33.778c0-18.625,15.153-33.778,33.778-33.778
					c18.625,0,33.778,15.153,33.778,33.778C170.29,439.211,155.137,454.364,136.511,454.364z M136.511,406.808
					c-7.597,0-13.778,6.181-13.778,13.778s6.181,13.778,13.778,13.778s13.778-6.181,13.778-13.778S144.108,406.808,136.511,406.808z
					"/>
			</g>
			<g>
				<path style="fill:#052A75;" d="M375.488,118.362c-18.625,0-33.777-15.153-33.777-33.778c0-18.625,15.152-33.778,33.777-33.778
					s33.778,15.153,33.778,33.778C409.267,103.209,394.113,118.362,375.488,118.362z M375.488,70.806
					c-7.597,0-13.777,6.181-13.777,13.778s6.181,13.778,13.777,13.778c7.598,0,13.778-6.181,13.778-13.778
					S383.086,70.806,375.488,70.806z"/>
			</g>
			<g>
				<path style="fill:#052A75;" d="M256,512c-18.625,0-33.778-15.153-33.778-33.778c0-18.625,15.153-33.778,33.778-33.778
					s33.778,15.153,33.778,33.778C289.778,496.847,274.625,512,256,512z M256,464.444c-7.597,0-13.778,6.181-13.778,13.778
					S248.403,492,256,492c7.598,0,13.778-6.181,13.778-13.778S263.598,464.444,256,464.444z"/>
			</g>
			<g>
				<path style="fill:#052A75;" d="M256,67.556c-18.625,0-33.778-15.153-33.778-33.778C222.222,15.153,237.375,0,256,0
					s33.778,15.153,33.778,33.778C289.778,52.403,274.625,67.556,256,67.556z M256,20c-7.597,0-13.778,6.181-13.778,13.778
					S248.403,47.556,256,47.556c7.598,0,13.778-6.181,13.778-13.778S263.598,20,256,20z"/>
			</g>
		</g>
		<g>
			<path style="fill:#052A75;" d="M256,391.055c-74.041,0-134.278-60.237-134.278-134.278S181.959,122.5,256,122.5
				s134.278,60.237,134.278,134.278S330.041,391.055,256,391.055z M256,142.5c-63.013,0-114.278,51.265-114.278,114.278
				S192.987,371.055,256,371.055c63.014,0,114.278-51.265,114.278-114.278S319.014,142.5,256,142.5z"/>
		</g>
		<g>
			<path style="fill:#FFFFFF;" d="M240.292,343.55c-1.966,0-3.952-0.578-5.689-1.783c-4.539-3.147-5.667-9.377-2.52-13.916
				l41.708-60.148h-54.684c-3.755,0-7.194-2.104-8.904-5.448s-1.401-7.364,0.797-10.408l56.127-77.697
				c3.233-4.477,9.483-5.486,13.962-2.251c4.478,3.234,5.484,9.485,2.251,13.962l-44.673,61.842h54.227
				c3.721,0,7.134,2.066,8.859,5.362s1.479,7.278-0.642,10.336l-52.593,75.846C246.576,342.048,243.459,343.55,240.292,343.55z"/>
		</g>
	</g>
</g>
<g>
</g>
<g>
</g>
<g>
</g>
<g>
</g>
<g>
</g>
<g>
</g>
<g>
</g>
<g>
</g>
<g>
</g>
<g>
</g>
<g>
</g>
<g>
</g>
<g>
</g>
<g>
</g>
<g>
</g>
</svg>
