<?xml version="1.0" encoding="iso-8859-1"?>
<!-- Generator: Adobe Illustrator 29.5.1, SVG Export Plug-In . SVG Version: 9.03 Build 0)  -->
<svg version="1.1" id="Capa_1" xmlns="http://www.w3.org/2000/svg" xmlns:xlink="http://www.w3.org/1999/xlink" x="0px" y="0px"
	 viewBox="0 0 512 512" style="enable-background:new 0 0 512 512;" xml:space="preserve">
<g>
	<g>
		<g>
			<path style="fill:#BC9AF4;" d="M44.599,467.729l-0.328-0.328c-16.174-16.174-16.174-42.398,0-58.572l34.341-34.341l58.9,58.9
				l-34.341,34.341C86.997,483.903,60.773,483.903,44.599,467.729z"/>
		</g>
		<g>
			<path style="fill:#D2DCFD;" d="M103.154,456.931L55.07,408.846c-26.681-26.681-26.681-70.34,0-97.021l76.656-76.656
				c2.473-2.473,6.482-2.473,8.954,0L276.832,371.32c2.473,2.473,2.473,6.482,0,8.954l-76.656,76.656
				C173.495,483.612,129.835,483.612,103.154,456.931z"/>
		</g>
		<g>
			<path style="fill:#93B2F4;" d="M276.815,380.295l-36.187,36.197l-145.11-145.11l36.187-36.197c2.49-2.48,6.506-2.48,8.997,0
				l136.113,136.113C279.295,373.789,279.295,377.805,276.815,380.295z"/>
		</g>
		<g>
			<path style="fill:#FFFFFF;" d="M273.707,392.777L119.224,238.293c-7.107-7.107-7.107-18.736,0-25.842l9.261-9.261
				c7.107-7.107,18.736-7.107,25.842,0L308.81,357.674c7.107,7.107,7.107,18.736,0,25.842l-9.261,9.261
				C292.443,399.884,280.814,399.884,273.707,392.777z"/>
		</g>
		<g>
			<path style="fill:#BC9AF4;" d="M460.413,51.26l0.328,0.328c16.174,16.174,16.174,42.398,0,58.572L426.4,144.501l-58.9-58.9
				l34.341-34.341C418.015,35.086,444.239,35.086,460.413,51.26z"/>
		</g>
		<g>
			<path style="fill:#D2DCFD;" d="M397.966,65.951l48.085,48.085c26.681,26.681,26.681,70.34,0,97.021l-48.707,48.707
				c-2.473,2.473-6.482,2.473-8.954,0L252.237,123.612c-2.473-2.473-2.473-6.482,0-8.954l48.707-48.707
				C327.625,39.27,371.285,39.27,397.966,65.951z"/>
		</g>
		<g>
			<path style="fill:#93B2F4;" d="M456.315,197.803c-2.852,4.81-6.336,9.328-10.462,13.455l-48.487,48.487
				c-2.49,2.48-6.516,2.48-8.997,0L252.255,123.632c-2.48-2.48-2.48-6.506,0-8.997l48.487-48.487
				c4.127-4.127,8.645-7.611,13.455-10.463L456.315,197.803z"/>
		</g>
		<g>
			<path style="fill:#FFFFFF;" d="M275.909,74.2L437.8,236.091c5.07,5.07,5.07,13.365,0,18.435l-27.156,27.156
				c-5.07,5.07-13.365,5.07-18.435,0L230.319,119.791c-5.07-5.07-5.07-13.365,0-18.435L257.475,74.2
				C262.544,69.13,270.84,69.13,275.909,74.2z"/>
		</g>
	</g>
	<g>
		<g>
			<g>
				<path style="fill:#93B2F4;" d="M10,512c-2.56,0-5.118-0.976-7.071-2.929c-3.905-3.905-3.905-10.237,0-14.143l33.786-33.786
					c3.906-3.905,10.236-3.905,14.143,0c3.905,3.905,3.905,10.237,0,14.143l-33.786,33.786C15.118,511.024,12.56,512,10,512z"/>
			</g>
			<g>
				<path style="fill:#6864F7;" d="M104.937,403.719c-4.743,0-8.953-3.388-9.828-8.22c-0.984-5.435,2.624-10.638,8.059-11.622
					l24.526-4.44l-11.382-11.381c-2.655-2.656-3.6-6.575-2.443-10.148c1.155-3.573,4.216-6.198,7.924-6.795l45.141-7.276
					c5.446-0.883,10.586,2.83,11.464,8.281c0.878,5.453-2.829,10.585-8.282,11.464l-25.829,4.163l11.059,11.058
					c2.631,2.631,3.583,6.505,2.473,10.057c-1.11,3.551-4.102,6.192-7.763,6.854l-43.324,7.844
					C106.128,403.667,105.528,403.719,104.937,403.719z"/>
			</g>
			<g>
				<path style="fill:#FDCB50;" d="M196.941,254.254c-2.56,0-5.118-0.976-7.071-2.929c-3.905-3.905-3.905-10.237,0-14.142
					l43.416-43.416c3.908-3.905,10.238-3.904,14.143,0c3.905,3.905,3.905,10.237,0,14.142l-43.416,43.416
					C202.059,253.277,199.499,254.254,196.941,254.254z"/>
			</g>
			<g>
				<path style="fill:#FDCB50;" d="M268.207,324.599c-2.56,0-5.118-0.976-7.071-2.929c-3.905-3.905-3.905-10.237,0-14.143
					l42.955-42.955c3.906-3.905,10.236-3.905,14.143,0c3.905,3.905,3.905,10.237,0,14.143l-42.955,42.955
					C273.325,323.623,270.767,324.599,268.207,324.599z"/>
			</g>
			<path style="fill:#052A75;" d="M315.881,350.603L161.398,196.12c-5.326-5.326-12.426-8.259-19.992-8.259
				s-14.666,2.933-19.992,8.259l-9.261,9.261c-10.217,10.217-10.957,26.369-2.235,37.455l-61.721,61.721
				c-14.846,14.846-23.021,34.655-23.021,55.78c0,14.981,4.131,29.29,11.817,41.647c-9.531,9.704-14.781,22.513-14.781,36.133
				c0,13.779,5.365,26.733,15.108,36.477l0.089,0.089c9.743,9.743,22.697,15.109,36.477,15.109c13.623,0,26.433-5.252,36.137-14.786
				c12.701,7.897,27.166,11.868,41.643,11.868c20.198,0,40.402-7.691,55.779-23.067l61.721-61.72
				c4.952,3.9,11.037,6.023,17.463,6.023c7.566,0,14.666-2.933,19.992-8.259l9.261-9.261
				C326.905,379.564,326.905,361.627,315.881,350.603z M51.551,460.538l-0.089-0.089c-5.966-5.965-9.251-13.897-9.251-22.334
				c0-7.582,2.661-14.752,7.528-20.457l44.603,44.603c-5.706,4.868-12.875,7.529-20.457,7.529
				C65.448,469.79,57.517,466.504,51.551,460.538z M193.302,449.662c-22.959,22.959-60.315,22.958-83.274,0l-47.688-47.688
				c-11.068-11.068-17.164-25.855-17.164-41.637s6.096-30.569,17.164-41.637l61.574-61.574l130.963,130.963L193.302,449.662z
				 M301.739,376.445l-9.261,9.261c-1.548,1.548-3.626,2.401-5.85,2.401s-4.302-0.853-5.85-2.401c0,0,0,0,0,0L126.295,231.222
				c-3.226-3.226-3.226-8.474,0-11.7l9.261-9.261c1.548-1.548,3.626-2.401,5.85-2.401s4.302,0.853,5.85,2.401l154.483,154.484
				C304.964,367.971,304.964,373.22,301.739,376.445z"/>
		</g>
		<g>
			<g>
				<path style="fill:#93B2F4;" d="M461.657,60.342c-2.56,0-5.118-0.976-7.071-2.929c-3.905-3.905-3.905-10.237,0-14.142
					l40.343-40.342c3.908-3.904,10.238-3.905,14.143,0c3.905,3.905,3.905,10.237,0,14.142l-40.343,40.342
					C466.776,59.366,464.216,60.342,461.657,60.342z"/>
			</g>
			<path style="fill:#052A75;" d="M467.693,117.351c9.743-9.744,15.108-22.698,15.108-36.477c0-13.779-5.365-26.733-15.108-36.477
				l-0.089-0.089c-9.743-9.743-22.698-15.109-36.477-15.109c-13.779,0-26.734,5.366-36.478,15.109l-3.558,3.558
				c-12.354-7.682-26.659-11.81-41.636-11.81c-21.125,0-40.935,8.176-55.78,23.021l-9.373,9.373l-1.321-1.321
				c-8.982-8.98-23.595-8.979-32.577,0l-27.156,27.156c-8.981,8.981-8.981,23.596,0,32.577l161.891,161.892
				c4.491,4.49,10.39,6.736,16.289,6.736c5.898,0,11.797-2.246,16.288-6.736l27.155-27.156c4.342-4.341,6.732-10.125,6.732-16.289
				s-2.391-11.948-6.731-16.288l-1.322-1.322l9.373-9.373c26.396-26.396,30.117-66.987,11.207-97.413L467.693,117.351z
				 M431.127,49.199c8.437,0,16.368,3.286,22.334,9.251l0.089,0.089c5.966,5.965,9.251,13.897,9.251,22.334
				c0,8.437-3.285,16.369-9.251,22.334l-2.092,2.092L406.7,60.543l2.092-2.092C414.758,52.485,422.69,49.199,431.127,49.199z
				 M430.729,247.455l-27.156,27.156c-1.162,1.163-3.13,1.165-4.292,0L237.39,112.719c-0.76-0.759-0.873-1.67-0.873-2.146
				s0.113-1.387,0.873-2.146l27.156-27.156c0.76-0.76,1.671-0.873,2.146-0.873c0.476,0,1.387,0.113,2.146,0.873L430.73,243.163
				c0.76,0.759,0.873,1.67,0.873,2.146S431.49,246.695,430.729,247.455z M438.781,204.184l-9.373,9.373L298.445,82.593l9.373-9.373
				c11.067-11.068,25.855-17.164,41.638-17.164s30.569,6.095,41.637,17.164l47.689,47.688
				C461.74,143.867,461.74,181.225,438.781,204.184z"/>
		</g>
		<g>
			<g>
				<g>
					<path style="fill:#FDCB50;" d="M146.477,84.193c-5.414,0-9.865-4.325-9.992-9.767l-0.719-30.763
						c-0.129-5.521,4.242-10.102,9.764-10.23c5.522-0.148,10.103,4.243,10.23,9.764l0.719,30.763
						c0.129,5.521-4.242,10.102-9.764,10.23C146.636,84.192,146.556,84.193,146.477,84.193z"/>
				</g>
				<g>
					<path style="fill:#FDCB50;" d="M102.123,103.769c-2.484,0-4.972-0.92-6.909-2.772L72.98,79.74
						c-3.992-3.816-4.135-10.146-0.318-14.138c3.818-3.994,10.147-4.133,14.139-0.318l22.234,21.257
						c3.992,3.816,4.135,10.146,0.318,14.138C107.388,102.734,104.757,103.769,102.123,103.769z"/>
				</g>
				<g>
					<path style="fill:#FDCB50;" d="M53.872,149.722c-5.417,0-9.868-4.328-9.992-9.772c-0.126-5.521,4.248-10.1,9.77-10.226
						l30.727-0.701c5.479-0.105,10.099,4.248,10.225,9.77s-4.248,10.1-9.77,10.226l-30.727,0.701
						C54.028,149.721,53.949,149.722,53.872,149.722z"/>
				</g>
			</g>
			<g>
				<g>
					<path style="fill:#FDCB50;" d="M428.134,349.543c-5.417,0-9.868-4.328-9.992-9.772c-0.126-5.521,4.248-10.1,9.77-10.226
						l30.726-0.701c5.499-0.1,10.099,4.248,10.225,9.77s-4.248,10.1-9.77,10.226l-30.726,0.701
						C428.289,349.542,428.211,349.543,428.134,349.543z"/>
				</g>
				<g>
					<path style="fill:#FDCB50;" d="M432.888,416.066c-2.484,0-4.972-0.92-6.909-2.772l-22.234-21.257
						c-3.992-3.816-4.135-10.146-0.318-14.138c3.818-3.994,10.146-4.133,14.139-0.318l22.234,21.257
						c3.992,3.816,4.135,10.146,0.318,14.138C438.153,415.032,435.522,416.066,432.888,416.066z"/>
				</g>
				<g>
					<path style="fill:#FDCB50;" d="M367.027,445.183c-5.414,0-9.865-4.325-9.992-9.767l-0.719-30.763
						c-0.129-5.521,4.242-10.102,9.764-10.23c5.513-0.149,10.102,4.243,10.23,9.764l0.719,30.763
						c0.129,5.521-4.242,10.102-9.764,10.23C367.186,445.182,367.106,445.183,367.027,445.183z"/>
				</g>
			</g>
		</g>
	</g>
</g>
<g>
</g>
<g>
</g>
<g>
</g>
<g>
</g>
<g>
</g>
<g>
</g>
<g>
</g>
<g>
</g>
<g>
</g>
<g>
</g>
<g>
</g>
<g>
</g>
<g>
</g>
<g>
</g>
<g>
</g>
</svg>
