<?xml version="1.0" encoding="iso-8859-1"?>
<!-- Generator: Adobe Illustrator 28.0.0, SVG Export Plug-In . SVG Version: 6.00 Build 0)  -->
<svg version="1.1" id="Layer_1" xmlns="http://www.w3.org/2000/svg" xmlns:xlink="http://www.w3.org/1999/xlink" x="0px" y="0px"
	 viewBox="0 0 512.001 512.001" style="enable-background:new 0 0 512.001 512.001;" xml:space="preserve">
<g>
	<g>
		<g>
			<g>
				<ellipse style="fill:#FFFFFF;" cx="253.185" cy="284.323" rx="213.725" ry="213.693"/>
			</g>
			<g>
				<path style="fill:#D2DCFD;" d="M162.798,244.573c0-36.445,6.021-71.484,17.123-104.176c-14.765,7.5-28.608,17.414-40.938,29.741
					c-62.971,62.961-62.971,165.407,0,228.368c26.025,26.021,58.794,41.287,92.734,45.8
					C188.542,389.282,162.798,319.934,162.798,244.573z"/>
			</g>
		</g>
		<g>
			<g>
				<path style="fill:#67CCD1;" d="M138.983,170.139c62.971-62.961,165.432-62.961,228.403,0
					c46.498,46.491,58.662,114.512,36.49,172.266l52.47,20.307c30.005-77.866,13.599-169.504-49.217-232.31
					c-85.021-85.008-222.868-85.008-307.889,0c-22.093,22.09-38.445,47.747-49.056,75.116l52.47,20.307
					C110.513,205.521,122.622,186.497,138.983,170.139z"/>
			</g>
			<g>
				<path style="fill:#27A2CC;" d="M213.686,70.238c-41.924,7.694-82.025,27.748-114.446,60.163
					c-22.093,22.09-38.445,47.747-49.056,75.116l52.47,20.307c7.859-20.304,19.969-39.328,36.329-55.686
					c12.33-12.328,26.173-22.241,40.938-29.742C188.371,115.513,199.764,91.989,213.686,70.238z"/>
			</g>
		</g>
		<g>
			<g>
				<path style="fill:#B1D952;" d="M403.876,342.405c-7.854,20.46-20.018,39.632-36.49,56.102
					c-62.971,62.961-165.432,62.961-228.403,0c-46.61-46.603-58.719-114.838-36.329-172.682l-52.47-20.307
					C19.961,283.473,36.312,375.325,99.24,438.244c85.021,85.008,222.868,85.008,307.889,0
					c22.205-22.202,38.611-48.006,49.217-75.532L403.876,342.405z"/>
			</g>
			<g>
				<path style="fill:#91B706;" d="M231.717,444.307c-33.939-4.513-66.709-19.779-92.734-45.8
					c-46.61-46.603-58.719-114.838-36.329-172.682l-52.47-20.307C19.961,283.473,36.312,375.325,99.24,438.244
					c51.085,51.078,121.242,71.464,187.551,61.162C266.301,483.313,247.8,464.804,231.717,444.307z"/>
			</g>
		</g>
		<g>
			<path style="fill:#FDBEB9;" d="M478.813,253.246c4.67,34.08,1.509,69.332-9.142,101.944
				c-11.171,34.204-29.825,64.534-55.444,90.15l-7.097,7.096l-53.937-53.929l7.097-7.096c35.274-35.269,50.871-85.725,41.722-134.97
				l-2.205-11.868l77.818,0L478.813,253.246z"/>
		</g>
		<g>
			<g>
				<path style="fill:#FD7DA0;" d="M26.154,266.229l-0.858,10.828h76.402l0.959-8.969c3.659-34.249,19.081-66.515,43.424-90.854
					l-53.937-53.929C53.861,161.582,30.425,212.34,26.154,266.229z"/>
			</g>
		</g>
		<g>
			<g>
				<g>
					<path style="fill:#FDCB50;" d="M320.098,342.777c0-28.978-23.495-52.469-52.477-52.469h-29.035
						c-28.982,0-52.477,23.491-52.477,52.469v40.985h133.989V342.777z"/>
				</g>
			</g>
			<g>
				<g>
					<path style="fill:#FD8F01;" d="M236.166,312.708c0-7.638,0.673-15.119,1.959-22.389c-28.769,0.252-52.016,23.633-52.016,52.45
						v40.992h71.633C244.115,363.446,236.166,339.005,236.166,312.708z"/>
				</g>
			</g>
		</g>
		<g>
			<g>
				<path style="fill:#FDE0BE;" d="M253.114,290.308h-0.021c-26.858,0-48.63-21.772-48.63-48.63v-10.008
					c0-26.858,21.772-48.63,48.63-48.63h0.021c26.858,0,48.63,21.772,48.63,48.63v10.008
					C301.744,268.535,279.971,290.308,253.114,290.308z"/>
			</g>
			<g>
				<path style="fill:#F7B073;" d="M284.263,274.315L284.263,274.315c-26.863,0-48.641-21.768-48.641-48.62v-10.029
					c0-12.426,4.663-23.763,12.336-32.358c-24.445,2.568-43.496,23.236-43.496,48.351v10.029c0,26.852,21.777,48.619,48.64,48.619
					l0,0c14.432,0,27.396-6.283,36.304-16.262C287.717,274.223,286.001,274.315,284.263,274.315z"/>
			</g>
		</g>
	</g>
	<g>
		<g>
			<path style="fill:#6864F7;" d="M496.706,10c0-5.522-4.477-10-10-10H358.791c-5.523,0-10,4.478-10,10v78.787
				c0,5.522,4.477,10,10,10s10-4.478,10-10V20h117.915C492.229,20,496.706,15.522,496.706,10z"/>
			<path style="fill:#6864F7;" d="M486.706,42.404h-54.027c-5.523,0-10,4.478-10,10s4.477,10,10,10h54.027c5.523,0,10-4.478,10-10
				S492.229,42.404,486.706,42.404z"/>
			<path style="fill:#6864F7;" d="M486.706,84.808h-54.027c-5.523,0-10,4.478-10,10s4.477,10,10,10h54.027c5.523,0,10-4.478,10-10
				S492.229,84.808,486.706,84.808z"/>
		</g>
		<g>
			<path style="fill:#052A75;" d="M292.198,285.344c11.99-10.743,19.546-26.339,19.546-43.667v-10.009
				c0-32.329-26.301-58.63-58.651-58.63c-32.329,0-58.63,26.301-58.63,58.63v10.009c0,17.328,7.556,32.924,19.546,43.667
				c-22.266,9.563-37.9,31.708-37.9,57.436v40.981c0,5.522,4.477,10,10,10h133.989c5.523,0,10-4.478,10-10V342.78
				C330.098,317.052,314.464,294.907,292.198,285.344z M214.463,231.669c0-21.301,17.329-38.63,38.651-38.63
				c21.301,0,38.63,17.329,38.63,38.63v10.009c0,21.301-17.329,38.63-38.63,38.63h-0.021c-21.301,0-38.63-17.329-38.63-38.63
				V231.669z M310.098,373.762H196.109V342.78c0-23.42,19.053-42.473,42.473-42.473h29.042c23.42,0,42.473,19.053,42.473,42.473
				V373.762z"/>
			<path style="fill:#052A75;" d="M488.72,251.889L488.72,251.889l-1.189-8.674c-0.679-4.951-4.909-8.642-9.907-8.642h-2.203
				c-9.395-42.144-30.508-80.535-61.221-111.243c-42.441-42.436-98.864-66.114-158.875-66.675
				c-58.114-0.579-113.282,20.637-155.933,59.758l-0.179-0.179c-3.904-3.904-10.236-3.904-14.141,0
				c-39.964,39.957-64.428,92.946-68.888,149.205l-0.858,10.828c-0.22,2.78,0.73,5.527,2.624,7.576s4.556,3.214,7.345,3.214h0.193
				c0.32,27.94,5.679,55.219,15.957,81.182c11.461,28.951,28.527,54.884,50.724,77.076c41.6,41.594,96.89,65.254,155.684,66.623
				c1.806,0.042,3.599,0.062,5.4,0.062c53.751-0.003,105.161-18.712,146.163-53.136l0.642,0.642c1.953,1.953,4.511,2.929,7.07,2.929
				c2.559,0,5.118-0.977,7.07-2.928l7.097-7.097c26.742-26.737,46.216-58.403,57.88-94.116
				C490.295,324.254,493.595,287.459,488.72,251.889z M36.123,267.02c3.82-48.195,23.672-93.771,56.183-129.41l39.854,39.847
				c-21.993,24.938-35.9,56.381-39.446,89.569l-0.003,0.032H36.12L36.123,267.02z M253.254,492.105
				c-53.246-0.004-106.425-20.421-146.944-60.933c-38.687-38.681-60.147-89.654-60.82-144.115h56.207c5.111,0,9.4-3.854,9.943-8.938
				l0.958-8.97c3.417-31.983,17.819-62.115,40.551-84.845c1.875-1.875,2.929-4.419,2.929-7.071s-1.054-5.196-2.93-7.071
				l-39.598-39.592c81.174-73.732,208.484-71.109,286.506,6.901c26.955,26.952,45.802,60.382,54.822,97.101h-55.074
				c-2.972,0-5.79,1.322-7.69,3.607s-2.685,5.297-2.142,8.22l2.205,11.867c8.547,46.004-6.018,93.134-38.961,126.072l-7.097,7.096
				c-1.875,1.875-2.929,4.419-2.929,7.071s1.054,5.196,2.93,7.071l39.094,39.088C346.833,476.367,300.019,492.109,253.254,492.105z
				 M460.165,352.086c-10.678,32.694-28.513,61.689-53.009,86.182l-0.027,0.027l-39.794-39.788l0.024-0.024
				c37.605-37.6,54.234-91.382,44.483-143.868l-0.007-0.041h57.066l0.004,0.031v-0.001
				C473.372,287.194,470.35,320.903,460.165,352.086z"/>
		</g>
	</g>
</g>
<g>
</g>
<g>
</g>
<g>
</g>
<g>
</g>
<g>
</g>
<g>
</g>
<g>
</g>
<g>
</g>
<g>
</g>
<g>
</g>
<g>
</g>
<g>
</g>
<g>
</g>
<g>
</g>
<g>
</g>
</svg>
