<?xml version="1.0" encoding="iso-8859-1"?>
<!-- Generator: Adobe Illustrator 27.0.0, SVG Export Plug-In . SVG Version: 6.00 Build 0)  -->
<svg version="1.1" id="Capa_1" xmlns="http://www.w3.org/2000/svg" xmlns:xlink="http://www.w3.org/1999/xlink" x="0px" y="0px"
	 viewBox="0 0 512 512" style="enable-background:new 0 0 512 512;" xml:space="preserve">
<g>
	<g>
		<path style="fill:#D46B5C;" d="M299.322,141.836V82.613C299.322,42.51,266.905,10,226.916,10h-37.401
			c-12.537,0-24.617,4.723-33.845,13.233l-5.998,5.531h-6.312c-30.595,0-55.397,24.873-55.397,55.554v57.517H299.322z"/>
		<path style="fill:#D2DCFD;" d="M377.286,501.999l-16.831-83.121l-8.679-42.861c-3.916-19.338-18.331-34.244-36.519-37.761
			l-21.518-4.162c0,0-48.53-22.581-48.53-22.581c-3.45-4.896-6.066-10.525-7.618-16.661l-7.607-30.072l-72.684,0l-7.607,30.072
			c-1.552,6.136-4.168,11.764-7.618,16.661l-48.53,22.581l-21.518,4.162c-18.188,3.517-32.603,18.423-36.519,37.761l-8.679,42.861
			L10,501.999C10,501.999,377.286,502,377.286,501.999z"/>
		<path style="fill:#FDBEB9;" d="M245.206,311.516l-14.82,37.613h-73.479l-14.83-37.613c3.454-4.9,6.065-10.523,7.621-16.668
			l7.601-30.072h72.685l7.611,30.072C239.142,300.993,241.762,306.616,245.206,311.516z"/>
		<path style="fill:#FDBEB9;" d="M283.081,138.497c17.837,0,32.296,14.46,32.296,32.297v0c0,17.837-14.46,32.297-32.296,32.297
			H104.206c-17.837,0-32.296-14.46-32.296-32.297v0c0-17.837,14.46-32.297,32.296-32.297H283.081z"/>
		<path style="fill:#FD7DA0;" d="M238.961,299.377c-13.786,6.426-29.138,10.011-45.314,10.011s-31.528-3.585-45.314-10.001
			c0.522-1.476,0.974-2.992,1.366-4.538l7.601-30.072h72.685l7.611,30.072C237.987,296.395,238.439,297.901,238.961,299.377z"/>
		<path style="fill:#FDBEB9;" d="M120.719,138.518l3.133-0.749c17.947-4.29,33.186-16.115,41.832-32.459l0,0l0,0
			c27.755,18.159,59.491,29.287,92.481,32.428l8.188,0.78l0.13,62.677c0,40.343-32.611,73.047-72.84,73.047h0
			c-40.228,0-72.84-32.704-72.84-73.047L120.719,138.518z"/>
		<polygon style="fill:#FFFFFF;" points="105.896,398.312 114.869,366.283 92.703,366.283 92.703,320.528 142.076,311.513 
			193.643,442.346 193.643,501.996 		"/>
		<polygon style="fill:#FFFFFF;" points="281.391,398.312 272.418,366.283 303.847,366.283 294.584,320.528 245.21,311.513 
			193.643,442.346 193.643,501.996 		"/>
		<polygon style="fill:#DB4B86;" points="230.383,349.133 208.615,404.645 178.721,404.651 156.906,349.133 		"/>
		<polygon style="fill:#DB4B86;" points="153.727,502 178.721,404.651 208.615,404.645 233.575,501.985 		"/>
		<path style="fill:#93B2F4;" d="M377.283,502h-71.27c-0.924-3.866-1.406-7.902-1.406-12.049v-85.196
			c0-23.626,15.764-43.627,37.332-50.043c4.779,6.004,8.213,13.274,9.84,21.307l8.675,42.864L377.283,502z"/>
		<path style="fill:#FFFFFF;" d="M442.069,502h-85.293c-6.6,0-12-5.4-12-12v-85.297c0-6.6,5.4-12,12-12h85.293c6.6,0,12,5.4,12,12
			V490C454.068,496.6,448.668,502,442.069,502z"/>
	</g>
	<path style="fill:#052A75;" d="M511.95,343.966c-0.416-4.989-4.944-9.092-9.95-9.014h-55.129c-5.523,0-10,4.477-10,10
		s4.477,10,10,10h30.988l-28.871,28.872c-2.177-0.724-4.502-1.121-6.919-1.121h-78.735l-1.755-8.67
		c-4.737-23.396-22.173-41.292-44.421-45.595l-11.208-2.167l-1.564-7.727c-0.812-4.008-3.982-7.119-8.005-7.853l-45.073-8.229
		c-1.767-3.123-3.117-6.493-4.02-10.061l-5.917-23.391c18.152-12.879,30.932-32.875,34.248-55.918h7.463
		c23.322,0,42.296-18.975,42.296-42.297c0-13.414-6.284-25.381-16.055-33.135V82.613C309.322,37.06,272.355,0,226.916,0h-37.4
		c-15.091,0-29.519,5.64-40.625,15.882l-3.125,2.882h-2.404c-36.06,0-65.397,29.408-65.397,65.555v53.34
		c-9.771,7.755-16.055,19.721-16.055,33.135c0,23.323,18.974,42.297,42.296,42.297h7.461c3.312,23.04,16.094,43.039,34.25,55.919
		L140,292.401c-0.902,3.567-2.252,6.937-4.019,10.06l-45.074,8.23c-4.752,0.868-8.204,5.007-8.204,9.837v5.479l-12.573,2.432
		c-22.248,4.302-39.684,22.199-44.422,45.595L0.199,500.015c-0.595,2.94,0.161,5.993,2.06,8.315C4.158,510.652,7,511.999,10,511.999
		l432.068,0c12.131,0,22-9.869,22-22v-85.297c0-2.316-0.362-4.548-1.029-6.647L492,369.095v30.004c0,5.523,4.477,10,10,10
		s10-4.477,10-10v-54.147C512,344.623,511.983,344.294,511.95,343.966z M305.377,170.795c0,12.295-10.002,22.297-22.296,22.297
		h-6.614l-0.093-44.595h6.707C295.375,148.497,305.377,158.5,305.377,170.795z M104.206,193.092
		c-12.294,0-22.296-10.002-22.296-22.297s10.002-22.297,22.296-22.297h6.527l0.06,44.595H104.206z M104.206,128.497
		c-2.121,0-4.204,0.161-6.242,0.464V84.319c0-25.119,20.365-45.555,45.397-45.555h6.312c2.512,0,4.933-0.945,6.779-2.648
		l5.998-5.531C169.851,23.76,179.463,20,189.515,20h37.4c34.411,0,62.407,28.088,62.407,62.612v46.349
		c-2.038-0.303-4.121-0.464-6.242-0.464h-16.253c-33.903-2.2-67.225-12.827-95.669-31.555c-2.354-1.541-5.249-2.019-7.973-1.315
		c-2.725,0.703-5.026,2.521-6.342,5.007c-7.585,14.411-21.328,24.577-37.214,27.863H104.206z M130.803,201.182l-0.074-54.929
		c15.348-4.72,28.715-14.298,38.133-27.205c26.683,15.682,56.717,25.507,87.51,28.563l0.111,53.584
		c0,34.764-28.19,63.047-62.84,63.047S130.803,235.96,130.803,201.182z M163.711,339.133l-10.473-26.571
		c2.716-4.745,4.784-9.856,6.151-15.257l4.692-18.549c9.188,3.532,19.149,5.486,29.562,5.486c10.413,0,20.374-1.955,29.562-5.487
		l4.692,18.55c1.367,5.401,3.436,10.511,6.152,15.255l-10.473,26.572H163.711z M215.693,359.133l-13.997,35.513l-16.103,0.003
		l-13.999-35.516H215.693z M145.73,492l-48.995,0v-47.064c0-5.523-4.477-10-10-10s-10,4.477-10,10v47.064H22.228l23.083-113.997
		c3.123-15.423,14.355-27.17,28.617-29.928l8.775-1.697v19.906c0,5.523,4.477,10,10,10h8.979l-5.416,19.332
		c-0.895,3.195-0.147,6.625,1.996,9.158l53.65,63.394L145.73,492z M116.956,395.902l7.542-26.921
		c0.844-3.013,0.229-6.247-1.662-8.74s-4.839-3.958-7.968-3.958h-12.166v-27.416l33.084-6.041l32.463,82.363l-10.19,39.281
		L116.956,395.902z M166.392,492l20.066-77.35l14.418-0.003L220.918,492H166.392z M219.066,405.114l32.433-82.287l34.626,6.322
		l5.493,27.134h-19.201c-3.129,0-6.077,1.464-7.968,3.958s-2.505,5.727-1.662,8.74l7.542,26.921l-41.075,48.535L219.066,405.114z
		 M334.776,404.703V492h-24.224v-47.064c0-5.523-4.477-10-10-10s-10,4.477-10,10V492l-48.973,0l-6.182-23.86l53.628-63.367
		c2.143-2.532,2.891-5.963,1.996-9.158l-5.416-19.332h18.242c3,0,5.842-1.347,7.741-3.669c1.899-2.322,2.656-5.375,2.061-8.315
		l-3.407-16.828l3.119,0.603c14.261,2.758,25.493,14.505,28.616,29.928l1.814,8.958
		C338.329,390.967,334.776,397.426,334.776,404.703z M444.069,490c0,1.084-0.916,2-2,2h-85.293c-1.084,0-2-0.916-2-2v-85.297
		c0-1.084,0.916-2,2-2h73.334l-37.668,37.669c-3.905,3.905-3.905,10.237,0,14.142c1.953,1.953,4.512,2.929,7.071,2.929
		s5.119-0.977,7.071-2.929l37.484-37.485V490z"/>
</g>
<g>
</g>
<g>
</g>
<g>
</g>
<g>
</g>
<g>
</g>
<g>
</g>
<g>
</g>
<g>
</g>
<g>
</g>
<g>
</g>
<g>
</g>
<g>
</g>
<g>
</g>
<g>
</g>
<g>
</g>
</svg>
