<?xml version="1.0" encoding="iso-8859-1"?>
<!-- Generator: Adobe Illustrator 26.5.1, SVG Export Plug-In . SVG Version: 6.00 Build 0)  -->
<svg version="1.1" id="Capa_1" xmlns="http://www.w3.org/2000/svg" xmlns:xlink="http://www.w3.org/1999/xlink" x="0px" y="0px"
	 viewBox="0 0 510.001 510.001" style="enable-background:new 0 0 510.001 510.001;" xml:space="preserve">
<g>
	<g>
		<path style="fill-rule:evenodd;clip-rule:evenodd;fill:#67CCD1;" d="M160.171,195.572h-24.503
			c-28.413,0-29.143,45.936-0.143,45.936h36.473h0.152c8.074-0.026,15.173-4.224,19.244-10.557l30.609-44.953
			c7.275-10.371,4.766-24.676-5.605-31.951c-10.371-7.275-24.676-4.766-31.951,5.605L160.171,195.572z"/>
		<path style="fill-rule:evenodd;clip-rule:evenodd;fill:#93B2F4;" d="M10.642,287.493v47.621c86.198,0,172.396,0,258.594,0v-47.621
			C183.038,287.493,96.84,287.493,10.642,287.493z"/>
		<rect x="35.909" y="335.114" style="fill-rule:evenodd;clip-rule:evenodd;fill:#FFFFFF;" width="208.06" height="152.386"/>
		<path style="fill-rule:evenodd;clip-rule:evenodd;fill:#67CCD1;" d="M135.667,195.572c-10.559-11.115-25.46-18.07-41.906-18.07
			c-31.819,0-57.852,26.037-57.852,57.851v52.14h78.421h0.214h57.454c12.646,0,22.992-10.347,22.992-22.993
			c0-12.62-10.305-22.951-22.917-22.992c-0.025,0-0.05,0-0.075,0h-20.386v-6.155C151.612,219.982,145.536,205.96,135.667,195.572z"
			/>
		<circle style="fill-rule:evenodd;clip-rule:evenodd;fill:#FDBEB9;" cx="93.761" cy="132.502" r="45"/>
		<path style="fill-rule:evenodd;clip-rule:evenodd;fill:#D2DCFD;" d="M35.909,335.114v40c69.353,0,138.706,0,208.06,0v-40
			C174.616,335.114,105.263,335.114,35.909,335.114z"/>
		<polygon style="fill-rule:evenodd;clip-rule:evenodd;fill:#FFFFFF;" points="281.753,106.001 281.753,202.005 324.204,202.005 
			367.753,202.005 367.753,113.598 367.753,106.001 		"/>
		<path style="fill-rule:evenodd;clip-rule:evenodd;fill:#67CCD1;" d="M462.754,247.996v-90.143
			c0-31.815-26.033-57.851-57.852-57.851c-14.111,0-27.081,5.123-37.149,13.598v88.407h-43.549c-12.7,0-22.995,10.296-22.995,22.995
			c0,12.7,10.296,22.995,22.995,22.995h22.847v223.079c0,15.908,13.016,28.926,28.926,28.926c15.909,0,28.926-13.016,28.926-28.926
			V367.041l42.004,118.77c8.112,13.728,25.818,18.281,39.546,10.169c13.728-8.112,18.281-25.818,10.169-39.546l-33.867-99.352
			V247.996z"/>
		<path style="fill-rule:evenodd;clip-rule:evenodd;fill:#27A2CC;" d="M462.754,247.996h-67.995h-47.707v223.079
			c0,15.908,13.016,28.926,28.926,28.926c15.909,0,28.926-13.016,28.926-28.926V367.041l42.004,118.77
			c8.112,13.728,25.818,18.281,39.546,10.169c13.728-8.112,18.281-25.818,10.169-39.546l-33.867-99.352V247.996z"/>
		
			<ellipse transform="matrix(0.3827 -0.9239 0.9239 0.3827 199.1392 408.0341)" style="fill-rule:evenodd;clip-rule:evenodd;fill:#FDBEB9;" cx="404.903" cy="55.001" rx="45" ry="45"/>
	</g>
	<g>
		<g>
			<path style="fill:#052A75;" d="M269.236,277.493h-66.914c1.716-3.99,2.667-8.382,2.667-12.993c0-8.909-3.549-17.003-9.307-22.945
				c1.492-1.537,2.849-3.233,4.045-5.075l30.508-44.804c10.376-14.863,6.754-35.4-8.094-45.816
				c-14.87-10.43-35.45-6.818-45.88,8.049c-0.033,0.048-0.066,0.096-0.099,0.144l-21.303,31.52h-15.041
				c-3.97-3.676-8.379-6.884-13.139-9.536c13.397-10.041,22.081-26.042,22.081-44.034c0-30.327-24.673-55-55-55s-55,24.673-55,55
				c0,17.992,8.684,33.994,22.081,44.034c-20.819,11.6-34.932,33.841-34.932,59.317v42.141H10.642c-5.522,0-10,4.478-10,10v47.62
				c0,5.522,4.478,10,10,10h15.268V487.5c0,5.522,4.478,10,10,10h208.06c5.522,0,10-4.478,10-10V345.113h15.268
				c5.522,0,10-4.478,10-10v-47.62C279.236,281.971,274.759,277.493,269.236,277.493z M160.171,205.571
				c3.321,0,6.426-1.648,8.285-4.4l24.221-35.838c4.111-5.789,12.16-7.183,17.978-3.101c2.829,1.984,4.717,4.952,5.313,8.356
				c0.598,3.403-0.167,6.836-2.151,9.665c-0.026,0.038-0.053,0.076-0.079,0.115l-30.609,44.953c-0.05,0.072-0.099,0.146-0.146,0.221
				c-2.402,3.737-6.478,5.965-10.908,5.965h-10.569c-0.52-9.259-2.904-18.028-6.784-25.937H160.171z M93.761,97.001
				c19.299,0,35,15.701,35,35s-15.701,35-35,35s-35-15.701-35-35S74.462,97.001,93.761,97.001z M45.909,235.353
				c0-26.386,21.466-47.852,47.852-47.852c25.092,0,45.733,19.412,47.698,44.007h-11.031c-5.522,0-10,4.478-10,10s4.478,10,10,10
				h41.57c7.163,0,12.991,5.828,12.991,12.992s-5.828,12.993-12.991,12.993h-57.562c-6.19,0-11.559-4.404-12.776-10.493
				c-0.047-0.237-0.104-0.474-0.168-0.707l-9.63-34.793c-1.474-5.323-6.983-8.445-12.305-6.97
				c-5.323,1.474-8.444,6.982-6.971,12.305l9.542,34.475c0.457,2.153,1.12,4.22,1.965,6.184H45.909V235.353z M233.969,477.5H45.909
				V345.113h188.06V477.5z M259.236,325.113H20.642v-27.62h238.595V325.113z"/>
			<path style="fill:#052A75;" d="M506.086,453.208l-33.332-97.782V159.103c0-25.712-14.377-48.131-35.514-59.638
				c13.726-10.01,22.662-26.213,22.662-44.465c0-30.327-24.673-55-55-55s-55,24.673-55,55c0,16.283,7.113,30.937,18.395,41.016
				c-0.18-0.01-0.362-0.015-0.544-0.015h-86c-5.522,0-10,4.478-10,10v96.004c0,5.522,4.478,10,10,10h12.094
				c-1.704,4-2.638,8.396-2.638,12.995c0,18.193,14.802,32.995,32.995,32.995h12.848v213.08c0,21.464,17.462,38.926,38.925,38.926
				c21.464,0,38.926-17.462,38.926-38.926v-45.767l21.416,60.556c3.629,10.261,11.313,17.978,21.639,21.73
				c4.379,1.591,8.994,2.375,13.592,2.375c7.004,0,13.967-1.82,19.992-5.38C508.001,494.862,513.575,475.174,506.086,453.208z
				 M404.902,20c19.299,0,35,15.701,35,35s-15.701,35-35,35s-35-15.701-35-35S385.604,20,404.902,20z M291.753,116.001h66v76.004
				h-66V116.001z M481.366,487.371c-4.816,2.846-11.167,3.392-16.578,1.426c-3.255-1.183-7.565-3.809-9.614-9.601l-40.271-113.871
				v-43.832c0-5.522-4.478-10-10-10s-10,4.478-10,10v149.582c0,10.436-8.49,18.926-18.926,18.926s-18.925-8.49-18.925-18.926
				v-213.08h37.707c18.193,0,32.995-14.802,32.995-32.995v-69.999c0-5.522-4.478-10-10-10s-10,4.478-10,10V225
				c0,7.165-5.83,12.995-12.995,12.995h-70.555c-7.165,0-12.995-5.83-12.995-12.995c0-6.375,4.551-11.765,10.82-12.815
				c0.287-0.048,0.569-0.109,0.846-0.18h44.878c5.522,0,10-4.478,10-10v-82.233c8.017-5.584,17.344-8.521,27.149-8.521
				c26.386,0,47.852,21.466,47.852,47.852v197.98c0,1.098,0.181,2.188,0.535,3.227l33.867,99.352
				C488.772,464.403,493.134,480.417,481.366,487.371z"/>
		</g>
		<path style="fill:#FD6050;" d="M162.439,401.307h-12.5v-12.5c0-5.522-4.478-10-10-10s-10,4.478-10,10v12.5h-12.5
			c-5.522,0-10,4.478-10,10s4.478,10,10,10h12.5v12.5c0,5.522,4.478,10,10,10s10-4.478,10-10v-12.5h12.5c5.522,0,10-4.478,10-10
			S167.962,401.307,162.439,401.307z"/>
	</g>
</g>
<g>
</g>
<g>
</g>
<g>
</g>
<g>
</g>
<g>
</g>
<g>
</g>
<g>
</g>
<g>
</g>
<g>
</g>
<g>
</g>
<g>
</g>
<g>
</g>
<g>
</g>
<g>
</g>
<g>
</g>
</svg>
