<?xml version="1.0" encoding="iso-8859-1"?>
<!-- Generator: Adobe Illustrator 28.2.0, SVG Export Plug-In . SVG Version: 6.00 Build 0)  -->
<svg version="1.1" id="Capa_1" xmlns="http://www.w3.org/2000/svg" xmlns:xlink="http://www.w3.org/1999/xlink" x="0px" y="0px"
	 viewBox="0 0 512 512" style="enable-background:new 0 0 512 512;" xml:space="preserve">
<g>
	<g>
		<g>
			<g>
				<g>
					<path style="fill:#D46B5C;" d="M371.15,42.131c7.744,0,14.023,6.278,14.023,14.023v431.824c0,7.744-6.278,14.023-14.023,14.023
						H22.665c-7.744,0-14.023-6.278-14.023-14.023V56.153c0-7.744,6.278-14.023,14.023-14.023H371.15z"/>
				</g>
			</g>
			<g>
				<g>
					<path style="fill:#B55348;" d="M189.769,314.184l41.186,185.022c0.2,0.939,0.42,1.871,0.659,2.794h141.398
						c7.744,0,14.023-6.278,14.023-14.023V314.184H189.769z"/>
				</g>
			</g>
			<g>
				<g>
					<rect x="52.675" y="42.131" style="fill:#FFFFFF;" width="292.188" height="417.698"/>
				</g>
			</g>
			<g>
				<g>
					<path style="fill:#D2DCFD;" d="M344.862,314.184h-127.14c-14.327,0-24.954,13.292-21.8,27.268l26.716,118.377h122.224V314.184z
						"/>
				</g>
			</g>
			<g>
				<g>
					<g>
						<g>
							<path style="fill:#FDCB50;" d="M166.734,211.181h-60.23c-2.209,0-4-1.791-4-4v-60.23c0-2.209,1.791-4,4-4h60.23
								c2.209,0,4,1.791,4,4v60.23C170.734,209.391,168.943,211.181,166.734,211.181z"/>
						</g>
					</g>
				</g>
				<g>
					<g>
						<g>
							<path style="fill:#FDCB50;" d="M166.734,328.574h-60.23c-2.209,0-4-1.791-4-4v-60.23c0-2.209,1.791-4,4-4h60.23
								c2.209,0,4,1.791,4,4v60.23C170.734,326.783,168.943,328.574,166.734,328.574z"/>
						</g>
					</g>
				</g>
			</g>
		</g>
		<g>
			<g>
				<g>
					<path style="fill:#D46B5C;" d="M264.536,74.261H131.997c-17.745,0-32.131-14.385-32.131-32.131v0
						C99.867,24.385,114.252,10,131.997,10h132.539c17.745,0,32.131,14.385,32.131,32.131v0
						C296.667,59.876,282.281,74.261,264.536,74.261z"/>
				</g>
			</g>
			<g>
				<g>
					<g>
						<g>
							<path style="fill:#FDCB50;" d="M487.513,354.183l-28.43,134.621c-1.636,7.695-8.432,13.197-16.299,13.197H286.158
								c-7.867,0-14.662-5.502-16.298-13.197l-28.43-134.621H487.513z"/>
						</g>
					</g>
				</g>
			</g>
		</g>
	</g>
	<g>
		<g>
			<g>
				<path style="fill:#FD8F01;" d="M294.03,167.066h-78.222c-5.522,0-10,4.477-10,10s4.478,10,10,10h78.222c5.522,0,10-4.477,10-10
					S299.553,167.066,294.03,167.066z"/>
			</g>
			<g>
				<path style="fill:#FD8F01;" d="M294.03,284.458h-78.222c-5.522,0-10,4.477-10,10s4.478,10,10,10h78.222c5.522,0,10-4.477,10-10
					S299.553,284.458,294.03,284.458z"/>
			</g>
			<g>
				<path style="fill:#FFFFFF;" d="M330.511,398.216c-5.522,0-10,4.477-10,10v40.692c0,5.523,4.478,10,10,10s10-4.477,10-10v-40.692
					C340.511,402.693,336.033,398.216,330.511,398.216z"/>
			</g>
			<g>
				<path style="fill:#FFFFFF;" d="M397,398.216c-5.522,0-10,4.477-10,10v40.692c0,5.523,4.478,10,10,10s10-4.477,10-10v-40.692
					C407,402.693,402.522,398.216,397,398.216z"/>
			</g>
		</g>
		<g>
			<path style="fill:#052A75;" d="M501.497,344.183h-23.699l-35.938-55.182c-3.014-4.626-9.207-5.938-13.837-2.922
				c-4.628,3.014-5.937,9.209-2.923,13.837l28.829,44.267h-56.896V56.153c0-13.246-10.776-24.023-24.022-24.023h-67.554
				C300.956,13.712,284.322,0,264.536,0H131.997c-19.786,0-36.42,13.712-40.922,32.13h-66.55c-13.246,0-24.022,10.777-24.022,24.023
				v431.824C0.503,501.224,11.279,512,24.525,512c98.041,0,322.522,0,418.26,0c12.51,0,23.479-8.881,26.079-21.117l26.946-126.701
				h5.686c5.522,0,10-4.477,10-10S507.02,344.183,501.497,344.183z M377.034,56.153v288.029h-22.172V52.13h18.149
				C375.229,52.13,377.034,53.935,377.034,56.153z M299.487,286.079c-4.626-3.015-10.822-1.705-13.837,2.922l-35.938,55.182h-22.266
				c-5.522,0-10,4.477-10,10s4.478,10,10,10h5.686l18.214,85.646H62.675V52.13h28.4c4.502,18.418,21.136,32.131,40.922,32.131
				h132.539c19.786,0,36.42-13.713,40.922-32.131h29.404v292.052h-61.281l28.829-44.267
				C305.424,295.288,304.115,289.093,299.487,286.079z M131.997,20h132.539c12.203,0,22.131,9.928,22.131,22.131
				c0,12.203-9.928,22.13-22.131,22.13H131.997c-12.203,0-22.131-9.928-22.131-22.131C109.866,29.928,119.794,20,131.997,20z
				 M20.503,487.978V56.153c0-2.218,1.805-4.023,4.022-4.023h18.149v407.698c0,5.523,4.478,10,10,10H255.6L260.368,492H24.525
				C22.308,492,20.503,490.195,20.503,487.978z M449.302,486.724c-0.65,3.057-3.391,5.276-6.517,5.276H286.158
				c-3.126,0-5.867-2.219-6.518-5.277L253.58,364.183h221.784L449.302,486.724z"/>
		</g>
	</g>
</g>
<g>
</g>
<g>
</g>
<g>
</g>
<g>
</g>
<g>
</g>
<g>
</g>
<g>
</g>
<g>
</g>
<g>
</g>
<g>
</g>
<g>
</g>
<g>
</g>
<g>
</g>
<g>
</g>
<g>
</g>
</svg>
