<?xml version="1.0" encoding="iso-8859-1"?>
<!-- Generator: Adobe Illustrator 29.3.0, SVG Export Plug-In . SVG Version: 9.03 Build 55982)  -->
<svg version="1.1" id="Capa_1" xmlns="http://www.w3.org/2000/svg" xmlns:xlink="http://www.w3.org/1999/xlink" x="0px" y="0px"
	 viewBox="0 0 512.003 512.003" style="enable-background:new 0 0 512.003 512.003;" xml:space="preserve">
<g>
	<g>
		<path style="fill:#B1D952;" d="M273.408,338.779l-5.746-26.833c-9.217-43.041,18.832-85.225,62.035-93.298l43.261-8.083
			c6.096-1.139,11.685,3.65,11.505,9.859l-1.278,44.062c-1.277,44.003-38.543,78.288-82.421,75.827L273.408,338.779z"/>
		<path style="fill:#B1D952;" d="M226.635,337.968l-19.912,4.082c-31.938,6.548-62.973-14.588-68.637-46.745l-5.672-32.2
			c-0.799-4.538,2.788-8.657,7.384-8.479l32.618,1.258c32.575,1.256,57.693,29.185,55.552,61.77L226.635,337.968z"/>
		<path style="fill:#D46B5C;" d="M422.917,502.003H89.072c0-24.474,19.852-44.326,44.326-44.326c2.582,0,5.114,0.221,7.575,0.643
			c5.295-22.535,25.519-39.313,49.681-39.313c1.356,0,2.703,0.05,4.029,0.161c8.741-22.645,30.713-38.71,56.443-38.71
			c21.922,0,41.121,11.674,51.721,29.136c5.275-2.672,11.232-4.18,17.552-4.18c21.46,0,38.861,17.391,38.861,38.851
			c0,0.533-0.01,1.065-0.03,1.587c4.039-1.035,8.279-1.587,12.649-1.587C400.07,444.264,423.608,462.487,422.917,502.003z"/>
		<path style="fill:#B55348;" d="M256.665,502.003H89.073c0-24.469,19.851-44.33,44.33-44.33c2.58,0,5.111,0.221,7.571,0.643
			c5.292-22.532,25.514-39.31,49.682-39.31c1.356,0,2.701,0.05,4.026,0.161c4.98-12.892,14.238-23.646,26.046-30.514
			c-0.693,5.683-1.044,11.467-1.044,17.341C219.684,442.933,233.681,476.62,256.665,502.003z"/>
		<circle style="fill:#FDCB50;" cx="250.801" cy="99.854" r="27.025"/>
	</g>
	<g>
		<g>
			<g>
				<path style="fill:#052A75;" d="M305.262,350.44c-1.681,0-3.366-0.047-5.059-0.142l-27.355-1.535
					c-4.5-0.252-8.274-3.483-9.218-7.891l-5.746-26.833c-5.032-23.499-0.469-47.453,12.849-67.449
					c13.292-19.958,33.581-33.372,57.128-37.772l43.26-8.083c5.892-1.101,11.88,0.502,16.435,4.398
					c4.561,3.901,7.077,9.58,6.902,15.582l-1.278,44.062c-0.697,24.029-10.825,46.21-28.517,62.459
					C348.258,342.301,327.328,350.44,305.262,350.44z M281.588,329.222l19.735,1.107c18.481,1.04,36.167-5.293,49.812-17.824
					c13.682-12.565,21.515-29.722,22.054-48.309l1.269-43.738l-42.923,8.021c-18.198,3.4-33.88,13.77-44.156,29.199
					c-10.302,15.467-13.831,33.997-9.938,52.174L281.588,329.222z"/>
			</g>
			<g>
				<path style="fill:#052A75;" d="M194.939,353.255c-13.447,0-26.571-4.016-37.973-11.768
					c-15.311-10.41-25.514-26.195-28.729-44.447l-5.672-32.2c-0.909-5.158,0.544-10.378,3.987-14.323
					c3.439-3.94,8.409-6.084,13.631-5.884l32.619,1.257c18.456,0.712,35.433,8.667,47.805,22.398
					c12.397,13.761,18.556,31.525,17.341,50.02l-1.334,20.314c-0.295,4.494-3.558,8.236-7.97,9.141l-19.912,4.082
					C204.135,352.789,199.517,353.255,194.939,353.255z M226.635,337.968h0.01H226.635z M142.858,264.752l5.076,28.818
					c2.271,12.887,9.472,24.031,20.278,31.378c10.778,7.328,23.743,9.922,36.503,7.306l12.441-2.55l0.834-12.705
					c0.858-13.062-3.49-25.606-12.243-35.322c-8.728-9.687-20.701-15.298-33.716-15.8L142.858,264.752z"/>
			</g>
			<g>
				<path style="fill:#91B706;" d="M250.095,390.261c-0.2,0-0.399-0.006-0.601-0.018c-4.297-0.257-7.95-3.232-9.063-7.391
					c-12.164-45.414-56.308-69.605-56.753-69.844c-4.864-2.616-6.686-8.68-4.07-13.544c2.616-4.864,8.678-6.687,13.544-4.07
					c1.806,0.971,38.229,20.941,57.965,59.83c11.63-21.455,33.401-55.226,66.991-83.246c4.242-3.537,10.547-2.967,14.085,1.273
					c3.538,4.241,2.967,10.547-1.273,14.085c-48.707,40.629-71.32,96.086-71.543,96.642
					C257.848,387.787,254.158,390.261,250.095,390.261z"/>
			</g>
		</g>
		<path style="fill:#052A75;" d="M415.347,451.292c-10.79-10.98-26.227-17.027-43.468-17.027c-1.211,0-2.42,0.036-3.625,0.107
			c-4.587-22.21-24.301-38.958-47.854-38.958c-4.754,0-9.384,0.665-13.842,1.982c-13.293-17.007-33.46-26.938-55.431-26.938
			c-26.53,0-50.963,15.251-62.863,38.595c-24.508,0.937-45.678,16.208-54.429,38.627c-30.187-0.274-54.763,24.224-54.762,54.324
			c0,5.523,4.477,10,10,10h333.844c5.455,0,9.903-4.371,9.999-9.825C433.286,480.962,427.211,463.366,415.347,451.292z
			 M100.558,492.003c4.292-14.065,17.391-24.326,32.841-24.326c1.974,0,3.955,0.168,5.886,0.499
			c5.216,0.892,10.215-2.424,11.424-7.569c3.767-16.032,16.488-27.89,32.185-30.865c-0.164,3.467-0.028,6.945,0.453,10.362
			c0.745,5.494,5.942,9.299,11.296,8.508c5.469-0.77,9.278-5.828,8.508-11.296c-0.73-5.084-0.28-10.36,1.165-15.289
			c7.655-18.913,26.358-31.569,46.81-31.569c17.461,0,33.317,8.777,42.639,23.506c2.371,5.059,4.421,10.414,4.588,16.075
			c0.277,5.523,5.055,9.766,10.515,9.457c5.515-0.292,9.749-5,9.457-10.515c-0.236-4.464-1.047-8.919-2.353-13.222
			c1.452-0.222,2.927-0.345,4.426-0.345c15.914,0,28.861,12.942,28.861,28.851c-0.322,3.539,0.83,7.124,3.685,9.366
			c2.457,1.985,5.707,2.692,8.767,1.909c3.302-0.846,6.723-1.274,10.167-1.274c8.371,0,20.232,1.917,29.203,11.045
			c6.271,6.382,10.142,15.498,11.398,26.693H100.558z"/>
		<g>
			<g>
				<path style="fill:#FDCB50;" d="M162.238,146.568c-3.895,0-7.597-2.289-9.212-6.101c-2.155-5.085,0.221-10.955,5.306-13.109
					l24.65-10.446c5.085-2.154,10.954,0.221,13.109,5.306c2.155,5.085-0.221,10.955-5.306,13.109l-24.65,10.446
					C164.862,146.312,163.539,146.568,162.238,146.568z"/>
			</g>
			<g>
				<path style="fill:#FDCB50;" d="M314.731,81.964c-3.895,0-7.597-2.289-9.212-6.101c-2.155-5.085,0.221-10.954,5.306-13.109
					l24.65-10.445c5.085-2.154,10.955,0.221,13.109,5.306c2.155,5.085-0.221,10.954-5.306,13.109l-24.65,10.445
					C317.355,81.709,316.032,81.964,314.731,81.964z"/>
			</g>
			<g>
				<path style="fill:#FDCB50;" d="M223.781,45.255c-3.896,0-7.598-2.29-9.213-6.103l-10.421-24.609
					c-2.153-5.085,0.224-10.954,5.309-13.108c5.085-2.154,10.954,0.224,13.108,5.309l10.421,24.609
					c2.153,5.085-0.224,10.954-5.309,13.108C226.403,45,225.081,45.255,223.781,45.255z"/>
			</g>
			<g>
				<path style="fill:#FDCB50;" d="M288.259,197.432c-3.895,0-7.596-2.289-9.212-6.101l-10.429-24.609
					c-2.155-5.085,0.22-10.954,5.306-13.109c5.084-2.153,10.954,0.22,13.109,5.306l10.429,24.609
					c2.155,5.085-0.22,10.954-5.306,13.109C290.883,197.177,289.561,197.432,288.259,197.432z"/>
			</g>
			<g>
				<path style="fill:#FDCB50;" d="M186.489,83.087c-1.247,0-2.514-0.234-3.741-0.73l-24.8-10.013
					c-5.121-2.067-7.596-7.895-5.528-13.017c2.067-5.121,7.894-7.598,13.017-5.528l24.8,10.013
					c5.121,2.067,7.596,7.895,5.528,13.017C194.193,80.723,190.446,83.087,186.489,83.087z"/>
			</g>
			<g>
				<path style="fill:#FDCB50;" d="M339.906,145.013c-1.247,0-2.514-0.234-3.74-0.729l-24.8-10.013
					c-5.122-2.068-7.597-7.896-5.529-13.017c2.068-5.122,7.896-7.596,13.017-5.529l24.8,10.013
					c5.122,2.068,7.597,7.896,5.529,13.017C347.609,142.648,343.863,145.013,339.906,145.013z"/>
			</g>
			<g>
				<path style="fill:#FDCB50;" d="M276.882,44.789c-1.253,0-2.526-0.237-3.759-0.737c-5.117-2.078-7.581-7.91-5.503-13.027
					l10.063-24.783c2.077-5.117,7.909-7.583,13.027-5.503c5.117,2.078,7.581,7.91,5.503,13.027l-10.063,24.783
					C284.574,42.433,280.832,44.789,276.882,44.789z"/>
			</g>
			<g>
				<path style="fill:#FDCB50;" d="M214.649,198.08c-1.253,0-2.525-0.236-3.758-0.737c-5.117-2.077-7.582-7.909-5.504-13.027
					l10.063-24.792c2.077-5.117,7.91-7.583,13.027-5.504c5.117,2.077,7.582,7.909,5.504,13.027l-10.063,24.792
					C222.342,195.724,218.599,198.08,214.649,198.08z"/>
			</g>
		</g>
	</g>
</g>
<g>
</g>
<g>
</g>
<g>
</g>
<g>
</g>
<g>
</g>
<g>
</g>
<g>
</g>
<g>
</g>
<g>
</g>
<g>
</g>
<g>
</g>
<g>
</g>
<g>
</g>
<g>
</g>
<g>
</g>
</svg>
