<?xml version="1.0" encoding="iso-8859-1"?>
<!-- Generator: Adobe Illustrator 27.0.0, SVG Export Plug-In . SVG Version: 6.00 Build 0)  -->
<svg version="1.1" id="Capa_1" xmlns="http://www.w3.org/2000/svg" xmlns:xlink="http://www.w3.org/1999/xlink" x="0px" y="0px"
	 viewBox="0 0 510 510" style="enable-background:new 0 0 510 510;" xml:space="preserve">
<g>
	<g>
		<g>
			<g>
				<path style="fill:#67CCD1;" d="M340.879,356.148l31.102-4.952l-0.027-64.51l-31.103-4.928
					c-3.757-15.164-9.749-29.445-17.617-42.469l18.494-25.498l-45.632-45.6l-25.486,18.515
					c-13.029-7.858-27.314-13.839-42.482-17.585l-4.952-31.102l-64.511,0.027l-4.928,31.103
					c-15.164,3.757-29.445,9.749-42.469,17.617l-25.498-18.494l-45.6,45.631l18.515,25.486
					c-7.858,13.029-13.839,27.314-17.585,42.481L10,286.823l0.027,64.51l31.103,4.928c3.757,15.164,9.749,29.445,17.617,42.469
					l-18.494,25.498l45.631,45.6l25.486-18.515c13.029,7.858,27.314,13.839,42.482,17.585L158.804,500l64.51-0.027l4.928-31.103
					c15.164-3.757,29.445-9.749,42.469-17.617l25.498,18.494l45.6-45.632l-18.515-25.486
					C331.152,385.6,337.134,371.315,340.879,356.148z"/>
			</g>
			<g>
				<path style="fill:#27A2CC;" d="M117.343,186.494c0-1.074,0.025-2.142,0.041-3.213c-2.064,1.121-4.109,2.272-6.114,3.483
					l-25.498-18.494l-45.6,45.631l18.515,25.486c-7.858,13.029-13.839,27.314-17.585,42.481L10,286.823l0.027,64.51l31.103,4.928
					c3.757,15.164,9.749,29.445,17.617,42.469l-18.493,25.498l45.631,45.6l25.486-18.515c13.029,7.858,27.314,13.839,42.482,17.585
					L158.804,500l64.51-0.027l4.928-31.103c15.164-3.757,29.445-9.749,42.469-17.617l25.498,18.493l45.6-45.631l-17.926-24.675
					C209.232,395.996,117.343,301.981,117.343,186.494z"/>
			</g>
		</g>
		<g>
			<g>
				<rect x="124.991" y="253.009" style="fill:#FDCB50;" width="132" height="132"/>
			</g>
			<g>
				<path style="fill:#FD8F01;" d="M127.939,253.009h-2.948v132H252.92C193.969,361.987,147.792,313.469,127.939,253.009z"/>
			</g>
			<g>
				<g>
					<rect x="168.991" y="253.009" style="fill:#FFFFFF;" width="44" height="45.913"/>
				</g>
			</g>
		</g>
		<g>
			<g>
				<g id="XMLID_249_">
					<circle style="fill:#FDCB50;" cx="396" cy="193.627" r="104"/>
				</g>
				<g>
					<path style="fill:#FD8F01;" d="M469.33,222.722c-63.193,0-114.421-51.228-114.421-114.421c0-3.521,0.168-7.003,0.479-10.443
						C318.131,113.676,292,150.6,292,193.627c0,57.438,46.562,104,104,104c48.542,0,89.313-33.257,100.779-78.228
						C487.985,221.565,478.793,222.722,469.33,222.722z"/>
				</g>
			</g>
		</g>
	</g>
	<g>
		<g>
			<path style="fill:#FFFFFF;" d="M408.965,183.663c-8.65-3.058-18.212-6.748-23.549-10.934c-1.576-1.236-2.249-4.117-1.673-7.168
				c0.29-1.537,1.641-6.675,6.873-8.251c8.73-2.63,16.856,1.054,19.943,2.76c4.833,2.672,10.918,0.919,13.589-3.915
				c2.672-4.834,0.919-10.918-3.915-13.589c-3.375-1.865-8.528-4.192-14.824-5.396v-3.392c0-5.523-4.477-10-10-10s-10,4.477-10,10
				v4.223c-0.188,0.054-0.374,0.102-0.562,0.159c-10.655,3.21-18.609,12.29-20.759,23.698c-1.981,10.512,1.462,20.708,8.985,26.608
				c6.137,4.813,14.604,8.884,29.227,14.053c9.416,3.329,9.214,10.938,8.69,14.055c-1.07,6.363-6.422,13.239-15.646,13.3
				c-9.172,0.067-12.033-0.392-19.066-4.992c-4.622-3.023-10.819-1.728-13.843,2.894c-3.023,4.622-1.728,10.82,2.894,13.843
				c7.62,4.985,13.274,7.055,20.082,7.835v4.022c0,5.523,4.477,10,10,10s10-4.477,10-10v-5.018
				c14.18-4.085,23.259-16.407,25.303-28.568C433.422,203.777,424.682,189.218,408.965,183.663z"/>
			<g>
				<path style="fill:#052A75;" d="M256.991,243.009h-132c-5.523,0-10,4.477-10,10v132c0,5.523,4.477,10,10,10h132
					c5.523,0,10-4.477,10-10v-132C266.991,247.486,262.514,243.009,256.991,243.009z M246.991,375.009h-112v-112h112V375.009z"/>
				<path style="fill:#052A75;" d="M396,79.627c-52.268,0-96.427,35.36-109.827,83.413l-16.195,11.765
					c-10.474-5.749-21.526-10.323-32.993-13.657l-3.933-24.702c-0.773-4.855-4.959-8.428-9.875-8.428c-0.001,0-0.003,0-0.004,0
					l-64.51,0.027c-4.917,0.002-9.104,3.579-9.873,8.435l-3.914,24.702c-11.463,3.342-22.512,7.925-32.982,13.682l-20.25-14.688
					c-3.979-2.886-9.468-2.452-12.944,1.026l-45.601,45.631c-3.476,3.479-3.907,8.968-1.017,12.946l14.705,20.242
					c-5.749,10.474-10.323,21.526-13.657,32.992l-24.702,3.933c-4.856,0.773-8.43,4.962-8.428,9.88l0.027,64.51
					c0.002,4.917,3.579,9.103,8.435,9.873l24.702,3.914c3.343,11.464,7.926,22.513,13.682,32.982l-14.688,20.251
					c-2.887,3.98-2.452,9.469,1.026,12.945l45.632,45.6c3.479,3.476,8.969,3.907,12.946,1.017l20.241-14.705
					c10.475,5.749,21.526,10.324,32.993,13.657l3.933,24.702c0.773,4.855,4.959,8.428,9.875,8.428c0.001,0,0.003,0,0.004,0
					l64.51-0.027c4.917-0.002,9.104-3.579,9.873-8.435l3.914-24.702c11.464-3.343,22.513-7.926,32.982-13.682l20.25,14.688
					c3.98,2.888,9.469,2.453,12.944-1.026l45.601-45.631c3.476-3.479,3.907-8.968,1.017-12.946l-14.705-20.242
					c5.748-10.475,10.323-21.526,13.657-32.992l24.702-3.933c4.856-0.773,8.43-4.962,8.428-9.879l-0.018-44.429
					c4.601,0.567,9.285,0.865,14.037,0.865c62.86,0,114-51.14,114-114S458.86,79.627,396,79.627z M361.978,342.663l-22.671,3.61
					c-3.968,0.632-7.173,3.577-8.136,7.478c-3.456,13.996-8.987,27.357-16.439,39.715c-2.075,3.441-1.889,7.79,0.473,11.042
					l13.497,18.579L295.17,456.64l-18.587-13.481c-3.252-2.359-7.602-2.542-11.042-0.465c-12.35,7.461-25.708,13.002-39.703,16.47
					c-3.9,0.966-6.843,4.173-7.472,8.142l-3.592,22.671l-47.437,0.02l-3.609-22.671c-0.631-3.968-3.577-7.173-7.478-8.136
					c-13.996-3.456-27.358-8.987-39.715-16.439c-3.442-2.076-7.791-1.889-11.042,0.473L86.915,456.72L53.36,423.189l13.482-18.588
					c2.359-3.253,2.542-7.603,0.464-11.042c-7.461-12.35-13.002-25.708-16.47-39.703c-0.966-3.9-4.173-6.843-8.142-7.472
					l-22.671-3.592l-0.02-47.436l22.671-3.61c3.968-0.632,7.173-3.577,8.136-7.478c3.456-13.996,8.987-27.358,16.439-39.714
					c2.076-3.441,1.89-7.791-0.473-11.042L53.28,214.933l33.531-33.554l18.587,13.481c3.252,2.359,7.601,2.542,11.042,0.465
					c12.352-7.462,25.709-13.003,39.703-16.47c3.9-0.966,6.843-4.173,7.472-8.142l3.592-22.671l47.437-0.02l3.609,22.671
					c0.631,3.968,3.577,7.173,7.478,8.136c13.997,3.457,27.359,8.987,39.715,16.439c3.441,2.076,7.791,1.889,11.042-0.473
					l5.548-4.031c-0.024,0.951-0.036,1.905-0.036,2.862c0,51.009,33.676,94.298,79.962,108.809L361.978,342.663z M396,287.627
					c-51.832,0-94-42.168-94-94s42.168-94,94-94s94,42.168,94,94S447.832,287.627,396,287.627z"/>
			</g>
		</g>
		<path style="fill:#FD8F01;" d="M299.809,0h-37.636c-5.523,0-10,4.477-10,10s4.477,10,10,10h13.493l-56.838,56.838L170,28.008
			c-3.905-3.905-10.237-3.905-14.143,0l-98.259,98.258c-3.905,3.905-3.905,10.237,0,14.143c1.953,1.953,4.512,2.929,7.071,2.929
			c2.559,0,5.119-0.977,7.071-2.929l91.188-91.188l48.829,48.83c1.875,1.875,4.419,2.929,7.071,2.929s5.196-1.054,7.071-2.929
			l63.909-63.909v13.494c0,5.523,4.477,10,10,10s10-4.477,10-10V10C309.809,4.477,305.332,0,299.809,0z"/>
	</g>
</g>
<g>
</g>
<g>
</g>
<g>
</g>
<g>
</g>
<g>
</g>
<g>
</g>
<g>
</g>
<g>
</g>
<g>
</g>
<g>
</g>
<g>
</g>
<g>
</g>
<g>
</g>
<g>
</g>
<g>
</g>
</svg>
