<?xml version="1.0" encoding="iso-8859-1"?>
<!-- Generator: Adobe Illustrator 29.5.1, SVG Export Plug-In . SVG Version: 9.03 Build 0)  -->
<svg version="1.1" id="Layer_1" xmlns="http://www.w3.org/2000/svg" xmlns:xlink="http://www.w3.org/1999/xlink" x="0px" y="0px"
	 viewBox="0 0 512.001 512.001" style="enable-background:new 0 0 512.001 512.001;" xml:space="preserve">
<g>
	<g>
		<path style="fill:#67CCD1;" d="M366.025,142.669c23.484-12.134,39.547-36.62,39.547-64.877c0-30.744-19.012-57.03-45.913-67.792
			v56.362l-27.094,12.315l-27.094-12.315V10.001c-27.461,10.986-46.702,38.15-45.888,69.718
			c0.703,27.283,16.645,50.946,39.522,62.859V468.54c0,18.48,14.981,33.46,33.46,33.46h0c18.48,0,33.46-14.981,33.46-33.46V142.669z
			"/>
		<rect x="299.105" y="189.788" style="fill:#27A2CC;" width="66.92" height="44.182"/>
		<path style="fill:#D46B5C;" d="M403.663,282.401h-14.174c13.374,0,24.216-10.842,24.216-24.216l0,0
			c0-13.374-10.842-24.216-24.216-24.216h-90.384v-44.182h-53.146l-68.296,68.147h-39.32l0,145.519h39.32l43.697,24.241h151.985
			c13.374,0,24.216-10.842,24.216-24.216c0-13.374-10.842-24.215-24.216-24.215h16.144c13.374,0,24.215-10.842,24.215-24.215v0
			c0-13.374-10.842-24.215-24.215-24.215h14.174c13.374,0,24.216-10.842,24.216-24.216l0,0
			C427.878,293.243,417.036,282.401,403.663,282.401z"/>
		<path style="fill:#B55348;" d="M209.764,264.637c0-14.847,1.581-29.323,4.559-43.282l-36.66,36.58h-39.32l0,145.519h39.32
			l43.697,24.241h68.225C241.016,389.92,209.764,330.931,209.764,264.637z"/>
		<rect x="84.122" y="247.894" style="fill:#FDCB50;" width="54.22" height="165.601"/>
	</g>
	<path style="fill:#052A75;" d="M437.878,306.617c0-13.457-7.808-25.123-19.131-30.708c3.145-5.172,4.957-11.241,4.957-17.724
		c0-18.866-15.35-34.215-34.216-34.215h-13.464v-75.469c24.544-15.061,39.547-41.619,39.547-70.709
		c0-34.137-20.489-64.391-52.199-77.076c-3.081-1.233-6.571-0.856-9.32,1.004c-2.747,1.86-4.394,4.962-4.394,8.281v49.923
		l-17.094,7.77l-17.094-7.77V10.001c0-3.318-1.646-6.42-4.394-8.281c-2.748-1.86-6.238-2.238-9.32-1.004
		c-32.097,12.84-53.062,44.692-52.171,79.261c0.722,28.011,15.706,53.696,39.519,68.413v31.398h-43.146
		c-2.648,0-5.188,1.051-7.063,2.921l-65.368,65.226h-25.184v-0.041c0-5.523-4.477-10-10-10H84.122c-5.523,0-10,4.477-10,10v165.601
		c0,5.523,4.477,10,10,10h54.221c5.523,0,10-4.477,10-10v-0.041h26.732l41.434,22.985c1.484,0.823,3.154,1.255,4.851,1.255h67.745
		v30.846c0,23.964,19.496,43.46,43.46,43.46s43.46-19.496,43.46-43.46v-30.961c17.617-1.373,31.535-16.137,31.535-34.1
		c0-6.187-1.65-11.995-4.534-17.008c12.154-5.255,20.679-17.362,20.679-31.423c0-6.483-1.812-12.551-4.957-17.724
		C430.071,331.74,437.878,320.073,437.878,306.617z M269.579,79.461c-0.539-20.922,9.467-40.534,25.892-52.567v39.468
		c0,3.921,2.292,7.481,5.862,9.104l27.094,12.315c2.629,1.195,5.646,1.195,8.275,0l27.094-12.315
		c3.57-1.623,5.862-5.182,5.862-9.104V26.831c16.1,11.658,25.913,30.381,25.913,50.961c0,23.658-13.081,45.113-34.137,55.992
		c-3.323,1.717-5.41,5.144-5.41,8.884v81.302h-46.92v-81.393c0-3.729-2.074-7.147-5.382-8.87
		C283.25,123.047,270.166,102.261,269.579,79.461z M128.343,403.495H94.122V257.894h34.221V403.495z M332.565,492.001
		c-12.936,0-23.46-10.524-23.46-23.46v-30.846h46.92v30.846C356.025,481.477,345.5,492.001,332.565,492.001z M403.662,320.832
		h-59.009c-5.522,0-10,4.477-10,10s4.478,10,10,10h44.835c7.839,0,14.216,6.377,14.216,14.216c0,7.838-6.377,14.215-14.216,14.215
		h-44.835c-5.522,0-10,4.477-10,10s4.478,10,10,10h28.692c7.838,0,14.215,6.377,14.215,14.216s-6.377,14.215-14.215,14.215H223.948
		l-41.434-22.985c-1.484-0.823-3.154-1.255-4.851-1.255h-29.32V267.935h29.32c2.648,0,5.188-1.051,7.063-2.921l65.368-65.226h39.01
		v24.183h-14.176c-5.522,0-10,4.477-10,10s4.478,10,10,10h114.56c7.839,0,14.216,6.377,14.216,14.215
		c0,7.821-6.348,14.187-14.162,14.216l-44.889,0c-5.522,0-10,4.478-10,10c0,5.523,4.478,10,10,10l59.009,0
		c7.839,0,14.216,6.377,14.216,14.215S411.501,320.832,403.662,320.832z"/>
</g>
<g>
</g>
<g>
</g>
<g>
</g>
<g>
</g>
<g>
</g>
<g>
</g>
<g>
</g>
<g>
</g>
<g>
</g>
<g>
</g>
<g>
</g>
<g>
</g>
<g>
</g>
<g>
</g>
<g>
</g>
</svg>
