<?xml version="1.0" encoding="iso-8859-1"?>
<!-- Generator: Adobe Illustrator 27.0.0, SVG Export Plug-In . SVG Version: 6.00 Build 0)  -->
<svg version="1.1" id="Capa_1" xmlns="http://www.w3.org/2000/svg" xmlns:xlink="http://www.w3.org/1999/xlink" x="0px" y="0px"
	 viewBox="0 0 511.975 511.975" style="enable-background:new 0 0 511.975 511.975;" xml:space="preserve">
<g>
	<g>
		<path style="fill:#FDE0BE;" d="M362.166,374.063L253.875,256.971l-25.497-7.434c-28.34-8.262-58.291-9.386-87.172-3.271
			l-50.555,10.704V409.87h24.107l102.217,84.672c8.89,9.483,23.804,9.982,33.31,1.113c9.507-8.869,10.006-23.746,1.116-33.229
			l14.589,15.562c8.729,9.311,23.42,10.47,33.058,2.099c10.118-8.788,10.839-24.112,1.754-33.803
			c9.085,9.691,24.461,9.999,33.928,0.516c9.017-9.033,8.841-23.733,0.113-33.044l-7.101-7.575c8.89,9.484,23.804,9.982,33.31,1.113
			v0C370.557,398.424,371.057,383.547,362.166,374.063z"/>
		<path style="fill:#F7B073;" d="M178.871,242.385c-12.611-0.042-25.237,1.25-37.665,3.881l-50.555,10.704V409.87h24.107
			l102.217,84.672c8.89,9.483,23.804,9.982,33.31,1.113c9.507-8.869,10.006-23.746,1.116-33.229l14.589,15.562
			c8.729,9.311,23.42,10.47,33.058,2.099c8.442-7.333,10.342-19.216,5.462-28.58C230.091,411.292,179.408,332.782,178.871,242.385z"
			/>
		<path style="fill:#D46B5C;" d="M182.325,346.413L182.325,346.413c-4.291-9.653-2.363-20.931,4.894-28.618l69.13-69.128
			c15.592-16.518,39.144-22.935,60.989-16.617l103.988,30.076v129.074h-42.564l-85.492-91.29l-70.821,56.621
			C208.95,366.942,189.242,361.972,182.325,346.413z"/>
		<rect x="421.325" y="248.464" style="fill:#67CCD1;" width="72.659" height="170.093"/>
		<rect x="17.992" y="248.464" style="fill:#27A2CC;" width="72.659" height="170.093"/>
		<ellipse style="fill:#B1D952;" cx="255.988" cy="100.699" rx="98.855" ry="98.615"/>
	</g>
	<g>
		<path style="fill:#052A75;" d="M493.984,238.464h-72.659c-5.522,0-10,4.477-10,10v1.213l-91.209-27.234
			c-25.519-7.38-52.686-0.002-70.937,19.251l-2.702,2.702l-15.3-4.46c-29.823-8.695-61.65-9.889-92.043-3.454
			c-0.084,0.018-0.168,0.037-0.251,0.057l-38.602,9.221c-1.179-4.209-5.044-7.296-9.63-7.296H17.991c-5.523,0-10,4.477-10,10
			v170.093c0,5.523,4.477,10,10,10h72.659c5.078,0,9.272-3.785,9.914-8.688h10.589l98.999,82.006
			c6.549,6.709,15.287,10.1,24.046,10.1c8.215,0,16.449-2.983,22.908-9.009c3.782-3.528,6.638-7.782,8.436-12.469
			c12.397,7.841,28.64,7.059,40.062-2.862c6.949-6.036,11.036-14.41,11.506-23.579c0.006-0.111,0.012-0.223,0.016-0.334
			c0.121,0.003,0.241,0.006,0.361,0.008c9.2,0.114,17.822-3.36,24.318-9.867c8.162-8.176,11.103-19.885,8.792-30.722
			c6.265-1.057,12.296-3.894,17.273-8.538c4.032-3.761,7.011-8.347,8.778-13.404h34.675v17.357c0,5.523,4.478,10,10,10h72.659
			c5.522,0,10-4.477,10-10V248.464C503.984,242.941,499.507,238.464,493.984,238.464z M80.651,408.557H27.991V258.464h52.659
			V408.557z M358.513,390.572c-0.121,3.603-1.643,6.944-4.284,9.409c-5.468,5.099-14.074,4.816-19.19-0.636
			c-0.115-0.123-26.641-25.419-26.641-25.419c-3.999-3.811-10.328-3.659-14.139,0.338s-3.659,10.327,0.338,14.138l32.947,32.192
			c5.131,5.473,5.179,14.059,0.106,19.14c-2.634,2.637-6.097,4.03-9.85,3.999c-3.721-0.059-7.167-1.582-9.705-4.29
			c-0.022-0.024-0.045-0.047-0.068-0.07c-0.021-0.022-0.041-0.043-0.062-0.064c-0.043-0.045-0.087-0.089-0.131-0.132
			c-0.009-0.009-0.017-0.018-0.026-0.026l-32.75-32.183c-3.939-3.871-10.27-3.814-14.142,0.124
			c-3.871,3.939-3.815,10.271,0.124,14.142l32.579,32.014c2.455,2.683,3.702,6.151,3.516,9.785c-0.189,3.69-1.84,7.065-4.647,9.504
			c-5.441,4.727-14.058,4.103-19.204-1.388l-28.759-30.624c-3.783-4.022-10.112-4.215-14.135-0.431
			c-4.022,3.784-4.216,10.113-0.431,14.135l14.137,15.027c0.003,0.003,0.006,0.007,0.009,0.01c2.469,2.634,3.762,6.067,3.642,9.668
			c-0.121,3.603-1.642,6.944-4.283,9.409c-5.469,5.104-14.08,4.816-19.194-0.64c-0.287-0.306-0.593-0.594-0.916-0.862
			l-102.217-84.672c-1.794-1.486-4.05-2.299-6.379-2.299h-14.107V266.235l42.752-10.212c27.137-5.726,55.55-4.648,82.177,3.114
			l4.767,1.39l-50.198,50.197c-0.068,0.068-0.135,0.137-0.201,0.207c-10.052,10.649-12.706,26.171-6.76,39.544
			c4.548,10.231,13.39,17.676,24.26,20.425c2.984,0.755,6.001,1.126,8.993,1.126c7.922,0,15.665-2.603,22.114-7.577
			c0.046-0.036,0.092-0.071,0.137-0.108l63.736-50.956l62.443,67.516C357.341,383.536,358.633,386.971,358.513,390.572z
			 M377.327,381.201c-1.418-5.163-4.074-9.932-7.819-13.927l-68.727-74.312c-3.716-4.02-9.967-4.299-14.027-0.646l-70.476,56.344
			c-3.984,3.043-9.056,4.083-13.926,2.851c-4.881-1.235-8.85-4.574-10.889-9.161c-2.642-5.943-1.486-12.836,2.942-17.599
			l69.015-69.013c0.068-0.068,0.135-0.137,0.201-0.207c13.084-13.862,32.603-19.179,50.855-13.899l96.849,28.918v110.65H377.327z
			 M483.984,408.557h-52.659V258.464h52.659V408.557z"/>
		<g>
			<path style="fill:#FFFFFF;" d="M251.549,130.146c-2.711,0-5.309-1.102-7.195-3.055l-21.12-21.879
				c-3.835-3.974-3.724-10.304,0.25-14.14s10.304-3.724,14.14,0.25l13.746,14.24l28.557-31.078
				c3.736-4.067,10.063-4.334,14.13-0.597c4.066,3.737,4.334,10.063,0.597,14.129l-35.741,38.896
				c-1.865,2.029-4.484,3.199-7.24,3.233C251.631,130.146,251.59,130.146,251.549,130.146z"/>
		</g>
		<g>
			<g>
				<path style="fill:#FD6050;" d="M416.383,110.699h-14.079c-5.522,0-10-4.477-10-10s4.478-10,10-10h14.079c5.522,0,10,4.477,10,10
					S421.905,110.699,416.383,110.699z"/>
			</g>
			<g>
				<path style="fill:#FD6050;" d="M368.767,29.932c-2.563,0-5.126-0.979-7.079-2.938c-3.901-3.91-3.894-10.241,0.017-14.142
					l9.955-9.932c3.909-3.899,10.242-3.894,14.142,0.017c3.901,3.91,3.894,10.241-0.017,14.142l-9.955,9.932
					C373.879,28.958,371.323,29.932,368.767,29.932z"/>
			</g>
			<g>
				<path style="fill:#FD6050;" d="M378.722,201.397c-2.556,0-5.11-0.973-7.062-2.92l-9.955-9.932
					c-3.91-3.901-3.918-10.232-0.017-14.142c3.9-3.911,10.231-3.917,14.142-0.017l9.955,9.932c3.91,3.901,3.918,10.232,0.017,14.142
					C383.848,200.417,381.285,201.397,378.722,201.397z"/>
			</g>
		</g>
		<g>
			<g>
				<path style="fill:#FD6050;" d="M109.673,110.699h-14.08c-5.523,0-10-4.477-10-10s4.477-10,10-10h14.08c5.523,0,10,4.477,10,10
					S115.196,110.699,109.673,110.699z"/>
			</g>
			<g>
				<path style="fill:#FD6050;" d="M133.253,201.397c-2.563,0-5.126-0.979-7.08-2.938c-3.9-3.91-3.893-10.242,0.017-14.142
					l9.956-9.932c3.91-3.901,10.242-3.892,14.142,0.017c3.9,3.91,3.893,10.242-0.017,14.142l-9.956,9.932
					C138.364,200.424,135.808,201.397,133.253,201.397z"/>
			</g>
			<g>
				<path style="fill:#FD6050;" d="M143.209,29.932c-2.555,0-5.11-0.973-7.062-2.92l-9.956-9.932
					c-3.91-3.9-3.917-10.232-0.017-14.142c3.9-3.911,10.231-3.918,14.142-0.017l9.956,9.932c3.91,3.9,3.917,10.232,0.017,14.142
					C148.336,28.953,145.772,29.932,143.209,29.932z"/>
			</g>
		</g>
	</g>
</g>
<g>
</g>
<g>
</g>
<g>
</g>
<g>
</g>
<g>
</g>
<g>
</g>
<g>
</g>
<g>
</g>
<g>
</g>
<g>
</g>
<g>
</g>
<g>
</g>
<g>
</g>
<g>
</g>
<g>
</g>
</svg>
