<?xml version="1.0" encoding="iso-8859-1"?>
<!-- Generator: Adobe Illustrator 29.3.1, SVG Export Plug-In . SVG Version: 9.03 Build 55982)  -->
<svg version="1.1" id="Capa_1" xmlns="http://www.w3.org/2000/svg" xmlns:xlink="http://www.w3.org/1999/xlink" x="0px" y="0px"
	 viewBox="0 0 510.002 510.002" style="enable-background:new 0 0 510.002 510.002;" xml:space="preserve">
<g>
	<g>
		<g>
			<g>
				<path style="fill:#FD7DA0;" d="M254.593,303.72h26.381c29.325,0,53.097-23.773,53.097-53.097v0
					c0-10.058-2.857-19.909-8.237-28.406l-5.052-7.979c-15.625-24.676-23.92-53.282-23.92-82.489v0
					c0-67.239-54.508-121.747-121.747-121.747c0,0,0,0,0,0h0c-67.239,0-121.747,54.508-121.747,121.747v0
					c0,29.207-8.295,57.813-23.92,82.489l-5.052,7.979c-5.381,8.497-8.237,18.348-8.237,28.406v0
					c0,29.325,23.773,53.097,53.097,53.097h26.381H254.593z"/>
			</g>
			<g>
				<path style="fill:#DB4B86;" d="M325.834,222.216l-5.052-7.979c-9.865-15.579-16.799-32.726-20.578-50.6
					c-22.921,45.872-70.322,77.379-125.089,77.379S72.946,209.51,50.025,163.637c-3.779,17.874-10.713,35.021-20.578,50.6
					l-5.052,7.979c-5.381,8.497-8.237,18.348-8.237,28.406v0c0,29.325,23.772,53.097,53.097,53.097h26.381h158.957h26.381
					c29.325,0,53.097-23.773,53.097-53.097v0C334.071,240.564,331.215,230.713,325.834,222.216z"/>
			</g>
		</g>
		<g>
			<path style="fill:#FFFFFF;" d="M206.795,273.649l91.042,21.616c24.849,5.9,42.392,28.095,42.392,53.635v77.7H175.114H10v-77.7
				c0-25.54,17.543-47.735,42.392-53.635l91.042-21.616H206.795z"/>
		</g>
		<g>
			<g>
				<path style="fill:#FDCB50;" d="M206.795,273.649l91.042,21.616c24.849,5.9,42.392,28.095,42.392,53.635v77.7H175.114H10v-77.7
					c0-25.54,17.543-47.735,42.392-53.635l91.042-21.616H206.795z"/>
			</g>
			<g>
				<g>
					<path style="fill:#FD8F01;" d="M279.109,290.818C279.275,290.532,278.939,291.101,279.109,290.818L279.109,290.818z"/>
				</g>
				<g>
					<path style="fill:#FD8F01;" d="M297.837,295.265l-18.728-4.447l-29.282,50.655c-8.486,14.7-10.786,32.169-6.394,48.564
						c0.009,0.033,0.018,0.067,0.027,0.1c1.694,6.283,1.694,12.863,0,19.146c-0.009,0.033-0.018,0.067-0.027,0.1
						c-1.517,5.663-2.217,11.454-2.158,17.216h98.954v-77.7C340.229,323.36,322.686,301.165,297.837,295.265z"/>
				</g>
			</g>
			<g>
				<polygon style="fill:#F7B073;" points="141.424,232.112 141.424,265.349 175.114,305.783 208.805,265.349 208.805,232.112 				
					"/>
			</g>
			<g>
				<polygon style="fill:#FFFFFF;" points="134.848,346.05 96.447,284.546 141.424,265.349 175.114,305.783 				"/>
			</g>
			<g>
				<polygon style="fill:#FFFFFF;" points="215.381,346.05 253.782,284.546 208.805,265.349 175.114,305.783 				"/>
			</g>
		</g>
		<g>
			<g>
				<path style="fill:#FDE0BE;" d="M244.256,130.485c-24.206,0-46.194-18.061-49.232-41.44
					c-21.355,25.338-53.321,41.44-89.051,41.44c0,0,0,41.39,0,41.39c0,38.186,30.956,69.142,69.142,69.142
					s69.142-30.956,69.142-69.142L244.256,130.485z"/>
			</g>
			<g>
				<path style="fill:#F7B073;" d="M244.19,174.483c0.032-0.863,0.066-1.726,0.066-2.596v-41.402
					c-24.207,0-46.194-18.061-49.232-41.44c-21.355,25.338-53.321,41.44-89.051,41.44c0,0,0,41.39,0,41.39
					c0,0.875,0.034,1.742,0.066,2.609c28.099-0.011,55.254-7.333,79.078-20.857C201.954,167.079,222.846,174.468,244.19,174.483z"/>
			</g>
		</g>
		<g>
			<g>
				<path style="fill:#67CCD1;" d="M485.519,397.711c0-5.793-0.574-11.45-1.637-16.932L500,371.473l-28.761-49.815l-16.138,9.317
					c-8.5-7.402-18.42-13.202-29.307-16.943v-18.612h-57.521v18.612c-10.886,3.741-20.807,9.542-29.307,16.943l-16.138-9.317
					l-28.761,49.815l16.118,9.306c-1.063,5.482-1.637,11.139-1.637,16.932c0,5.793,0.574,11.45,1.637,16.932l-16.118,9.306
					l28.761,49.815l16.138-9.317c8.5,7.402,18.42,13.202,29.307,16.943v18.612h57.521v-18.612
					c10.886-3.741,20.807-9.542,29.307-16.943l16.138,9.317L500,423.949l-16.118-9.306
					C484.945,409.161,485.519,403.504,485.519,397.711z"/>
			</g>
			<g>
				<g>
					<path style="fill:#27A2CC;" d="M387.215,353.859c0-21.065,5.117-40.934,14.17-58.438h-33.111v18.612
						c-10.886,3.741-20.807,9.542-29.307,16.943l-16.138-9.317l-28.761,49.815l16.118,9.306c-1.063,5.482-1.637,11.139-1.637,16.932
						s0.574,11.45,1.637,16.932l-16.118,9.306l28.761,49.815l16.138-9.317c8.5,7.402,18.42,13.202,29.307,16.943v18.612h57.521
						v-18.612c10.251-3.523,19.629-8.89,27.787-15.682C414.037,444.085,387.215,402.106,387.215,353.859z"/>
				</g>
			</g>
			<g>
				<path style="fill:#FFFFFF;" d="M411.604,428.805c11.676-5.48,19.76-17.343,19.76-31.094c0-18.96-15.37-34.33-34.33-34.33
					c-3.241,0-6.378,0.449-9.35,1.289l-7.599,17.587l6.054,44.343L411.604,428.805z"/>
			</g>
			<g>
				<path style="fill:#D2DCFD;" d="M397.034,432.041c5.209,0,10.144-1.166,14.567-3.242c-13.333-18.293-21.907-40.268-23.914-64.119
					c-14.415,4.072-24.982,17.313-24.982,33.031C362.704,416.671,378.074,432.041,397.034,432.041z"/>
			</g>
		</g>
	</g>
	<g>
		<g>
			<path style="fill:#DB4B86;" d="M175.115,201.463c-6.866,0-13.732-2.614-18.959-7.84c-3.905-3.905-3.905-10.237,0-14.143
				c3.905-3.905,10.237-3.905,14.143,0c2.655,2.656,6.978,2.657,9.633,0c3.905-3.905,10.237-3.905,14.143,0
				c3.905,3.905,3.905,10.237,0,14.143C188.847,198.85,181.98,201.463,175.115,201.463z"/>
		</g>
		<path style="fill:#052A75;" d="M505,415.288l-10.183-5.879c0.467-3.898,0.702-7.811,0.702-11.698c0-3.887-0.235-7.8-0.702-11.698
			L505,380.134c4.783-2.761,6.422-8.877,3.66-13.66l-28.761-49.815c-1.326-2.297-3.51-3.973-6.072-4.659
			c-2.562-0.688-5.292-0.327-7.588,0.999l-10.194,5.886c-6.278-4.713-13.053-8.63-20.251-11.71v-11.753c0-5.523-4.477-10-10-10
			h-57.521c-5.523,0-10,4.477-10,10v11.753c-5.874,2.513-11.461,5.594-16.731,9.2c-4.437-7.751-10.372-14.429-17.436-19.691
			c12.585-11.756,19.964-28.3,19.964-46.061c0-11.971-3.385-23.643-9.789-33.755l-5.052-7.979
			c-14.634-23.111-22.369-49.786-22.369-77.14c0-72.646-59.101-131.747-131.747-131.747S43.368,59.102,43.368,131.748
			c0,27.354-7.735,54.028-22.369,77.14l-5.052,7.979c-6.404,10.113-9.789,21.785-9.789,33.756c0,17.766,7.383,34.314,19.974,46.07
			C10.043,308.67,0,327.745,0,348.9v77.7c0,5.523,4.477,10,10,10h279.825l24.343,42.164c1.326,2.297,3.51,3.973,6.072,4.659
			c2.562,0.685,5.292,0.326,7.588-0.999l10.194-5.886c6.277,4.713,13.052,8.63,20.25,11.71v11.753c0,5.523,4.477,10,10,10h57.521
			c5.523,0,10-4.477,10-10v-11.753c7.198-3.08,13.973-6.997,20.251-11.71l10.194,5.886c2.296,1.326,5.028,1.686,7.588,0.999
			c2.562-0.687,4.746-2.362,6.072-4.659l28.761-49.814C511.422,424.166,509.783,418.05,505,415.288z M26.158,250.622
			c0-8.176,2.312-16.149,6.686-23.056l5.052-7.979c16.664-26.316,25.472-56.691,25.472-87.839
			c0-61.617,50.129-111.747,111.747-111.747c61.617,0,111.747,50.129,111.747,111.747c0,31.148,8.808,61.522,25.472,87.839
			l5.053,7.979c4.374,6.907,6.686,14.879,6.686,23.056c0,14.706-7.425,28.177-19.603,36.097
			c-1.419-0.439-46.329-11.157-46.329-11.157c-0.144-0.07-39.334-16.818-39.334-16.818V237.82
			c21.347-14.19,35.451-38.448,35.451-65.946l0-41.39c0-5.523-4.477-10-10-10c-19.333,0-36.97-14.682-39.315-32.729
			c-0.511-3.931-3.296-7.19-7.1-8.307c-3.805-1.118-7.908,0.12-10.463,3.151c-20.292,24.076-49.963,37.884-81.405,37.884
			c-5.523,0-10,4.477-10,10v41.39c0,27.498,14.104,51.756,35.451,65.946v20.924c0,0-39.189,16.747-39.333,16.817
			c0,0-44.902,10.728-46.318,11.166C33.588,278.808,26.158,265.333,26.158,250.622z M175.114,290.162l-23.69-28.433v-14.338
			c7.483,2.353,15.441,3.626,23.69,3.626c8.25,0,16.207-1.273,23.691-3.626v14.338L175.114,290.162z M175.114,231.017
			c-32.611,0-59.142-26.531-59.142-59.142v-31.784c27.835-2.196,54.013-13.508,74.648-32.134
			c8.378,16.348,24.755,28.461,43.635,31.68l0,32.238C234.256,204.486,207.725,231.017,175.114,231.017z M138.505,277.467
			l23.082,27.702l-24.917,24.917l-25.555-40.928L138.505,277.467z M211.724,277.467l27.389,11.691l-25.555,40.928l-24.917-24.917
			L211.724,277.467z M299.251,409.409l-10.183,5.879c-0.653,0.377-1.241,0.821-1.774,1.311H20v-67.7
			c0-21,14.27-39.055,34.702-43.906l37.207-8.834l34.457,55.186c1.614,2.585,4.32,4.293,7.349,4.639
			c0.379,0.043,0.757,0.064,1.134,0.064c2.636,0,5.185-1.043,7.071-2.929l33.195-33.195l33.195,33.195
			c1.886,1.886,4.434,2.929,7.071,2.929c0.376,0,0.755-0.021,1.134-0.064c3.028-0.346,5.734-2.054,7.349-4.639l34.457-55.186
			l37.207,8.834c7.471,1.774,14.168,5.331,19.655,10.232c-0.375,0.446-29.774,51.247-29.774,51.247
			c-2.762,4.783-1.123,10.899,3.66,13.66l10.183,5.879c-0.467,3.897-0.702,7.811-0.702,11.698
			C298.549,401.598,298.785,405.511,299.251,409.409z M474.065,382.682c0.965,4.978,1.454,10.034,1.454,15.029
			c0,4.994-0.489,10.051-1.454,15.029c-0.812,4.188,1.123,8.43,4.817,10.563l7.458,4.306l-18.761,32.494l-7.478-4.317
			c-3.698-2.134-8.346-1.686-11.567,1.119c-7.673,6.682-16.417,11.738-25.99,15.028c-4.039,1.388-6.75,5.187-6.75,9.457v8.611
			h-37.521v-8.611c0-4.27-2.711-8.069-6.75-9.457c-9.573-3.29-18.317-8.346-25.989-15.028c-3.221-2.806-7.868-3.256-11.567-1.119
			l-7.478,4.317l-18.76-32.494l7.458-4.306c3.694-2.133,5.629-6.375,4.817-10.563c-0.965-4.979-1.454-10.035-1.454-15.029
			c0-4.995,0.489-10.051,1.454-15.029c0.812-4.188-1.123-8.43-4.817-10.563l-7.458-4.306l18.76-32.495l7.478,4.317
			c3.699,2.136,8.346,1.688,11.567-1.119c7.672-6.682,16.417-11.737,25.989-15.027c4.039-1.388,6.75-5.187,6.75-9.457v-8.611h37.521
			v8.611c0,4.271,2.711,8.069,6.75,9.457c9.572,3.29,18.316,8.346,25.99,15.028c3.221,2.806,7.869,3.255,11.567,1.119l7.478-4.317
			l18.761,32.495l-7.458,4.306C475.188,374.252,473.253,378.494,474.065,382.682z"/>
	</g>
</g>
<g>
</g>
<g>
</g>
<g>
</g>
<g>
</g>
<g>
</g>
<g>
</g>
<g>
</g>
<g>
</g>
<g>
</g>
<g>
</g>
<g>
</g>
<g>
</g>
<g>
</g>
<g>
</g>
<g>
</g>
</svg>
