<?xml version="1.0" encoding="iso-8859-1"?>
<!-- Generator: Adobe Illustrator 26.5.1, SVG Export Plug-In . SVG Version: 6.00 Build 0)  -->
<svg version="1.1" id="Capa_1" xmlns="http://www.w3.org/2000/svg" xmlns:xlink="http://www.w3.org/1999/xlink" x="0px" y="0px"
	 viewBox="0 0 510.001 510.001" style="enable-background:new 0 0 510.001 510.001;" xml:space="preserve">
<g>
	<g>
		<g>
			<g>
				<path style="fill:#FDBEB9;" d="M497.61,312.955c-6.271-14.195-23.59-20.464-37.806-14.241l-134.82,59.02h-0.001
					c7.113-5.899,11.644-14.803,11.644-24.766c0-18.006-14.464-32.474-32.312-32.471c-12.406,0.002-26.316,0.003-37.737,0.003
					c-15.288,0.001-30.4-4.163-43.565-11.932c-13.856-8.176-29.599-12.606-45.687-12.606h0c-26.236,0-51.275,10.412-69.686,28.93
					c-2.586,2.601-24.809,24.842-49.188,49.235l48.715,64.017l28.073,37.419l27.643-18.436c9.256-6.174,20.133-9.468,31.26-9.468
					h91.016c25.03,0,49.737-5.661,72.27-16.56l126.619-61.244C497.787,343.21,503.761,326.879,497.61,312.955z"/>
			</g>
			<g>
				<path style="fill:#FD7DA0;" d="M188.635,320.547c0-14.973,2.826-29.285,7.969-42.436c-6.302-1.409-12.76-2.148-19.278-2.148l0,0
					c-26.236,0-51.275,10.412-69.686,28.93c-2.586,2.602-24.809,24.842-49.188,49.236l48.715,64.017l28.073,37.419l27.643-18.436
					c9.256-6.174,20.133-9.468,31.26-9.468h65.021C217.681,409.808,188.635,368.572,188.635,320.547z"/>
			</g>
		</g>
		<g>
			
				<rect x="55.255" y="318.767" transform="matrix(0.7989 -0.6015 0.6015 0.7989 -225.854 138.0305)" style="fill:#B1D952;" width="76.432" height="175.941"/>
		</g>
		<g>
			<circle style="fill:#FDCB50;" cx="334.806" cy="132.5" r="122.5"/>
			<path style="fill:#FD8F01;" d="M356.016,11.835C349.126,10.632,342.04,10,334.806,10c-67.655,0-122.5,54.845-122.5,122.5
				S267.152,255,334.806,255c18.912,0,36.821-4.289,52.813-11.942c-50.893-18.113-87.333-66.699-87.333-123.808
				C300.287,74.859,322.31,35.621,356.016,11.835z"/>
		</g>
	</g>
	<g>
		<path style="fill:#052A75;" d="M506.564,308.484c-8.633-18.915-31.152-27.519-50.196-19.182l-109.981,48.146
			c0.155-1.479,0.24-2.973,0.24-4.48c0-11.365-4.396-22.037-12.38-30.047c-7.983-8.012-18.611-12.423-29.927-12.423
			c-0.002,0-0.005,0-0.007,0l-37.735,0.003c-13.676,0-27.144-3.741-38.946-10.82c-14.963-8.974-32.358-13.717-50.306-13.717
			c-29.071,0-56.338,11.322-76.776,31.879c-1.29,1.297-7.478,7.493-16.371,16.394l-5.104-6.778
			c-3.321-4.411-9.593-5.296-14.003-1.974l-61.06,45.974c-2.119,1.595-3.518,3.967-3.888,6.593c-0.37,2.626,0.318,5.292,1.914,7.411
			l105.829,140.554c1.965,2.61,4.962,3.985,7.996,3.985c2.094,0,4.206-0.655,6.007-2.012l61.06-45.974
			c2.119-1.595,3.518-3.967,3.888-6.593c0.37-2.626-0.318-5.292-1.914-7.411l-5.873-7.801c4.839-1.67,9.938-2.55,15.111-2.55h91.016
			c26.38,0,52.876-6.072,76.625-17.558l126.617-61.245C506.989,349.868,515.137,327.27,506.564,308.484z M117.83,485.997
			L24.031,361.421l45.082-33.944l93.799,124.576L117.83,485.997z M479.691,340.854l-126.618,61.245
			c-21.049,10.182-44.534,15.563-67.916,15.563h-91.016c-9.554,0-18.942,2.066-27.566,6.008l-70.247-93.296
			c9.978-9.987,17.016-17.034,18.404-18.429c16.657-16.754,38.887-25.981,62.594-25.981c14.324,0,28.163,3.758,40.019,10.869
			c14.91,8.943,31.936,13.669,49.233,13.669l37.738-0.003c0.002,0,0.003,0,0.004,0c5.96,0,11.557,2.323,15.761,6.541
			c4.221,4.236,6.546,9.894,6.546,15.93c0,5.921-2.306,11.487-6.492,15.673c-4.186,4.185-9.75,6.49-15.67,6.49
			c-0.001,0-0.002,0-0.003,0l-71.984-0.012c-0.001,0-0.001,0-0.002,0c-5.522,0-9.999,4.476-10,9.999
			c-0.001,5.523,4.476,10,9.998,10.001l71.984,0.012c0.003,0,0.005,0,0.008,0c9.425,0,18.373-3.083,25.71-8.754l134.211-58.753
			c9.1-3.983,19.857,0.127,23.981,9.164C492.465,325.763,488.573,336.559,479.691,340.854z"/>
		<path style="fill:#052A75;" d="M334.806,265c73.061,0,132.5-59.439,132.5-132.5S407.867,0,334.806,0s-132.5,59.439-132.5,132.5
			S261.746,265,334.806,265z M334.806,20c62.033,0,112.5,50.467,112.5,112.5S396.839,245,334.806,245s-112.5-50.467-112.5-112.5
			S272.773,20,334.806,20z"/>
	</g>
	<g>
		<path style="fill:#FFFFFF;" d="M361.011,185.724h-16.205v-67.571c0-5.523-4.478-10-10-10H319c-5.522,0-10,4.477-10,10
			s4.478,10,10,10h5.806v57.571h-16.204c-5.522,0-10,4.477-10,10s4.478,10,10,10h52.409c5.522,0,10-4.477,10-10
			S366.534,185.724,361.011,185.724z"/>
		<circle style="fill:#FFFFFF;" cx="334.815" cy="69.275" r="10"/>
	</g>
</g>
<g>
</g>
<g>
</g>
<g>
</g>
<g>
</g>
<g>
</g>
<g>
</g>
<g>
</g>
<g>
</g>
<g>
</g>
<g>
</g>
<g>
</g>
<g>
</g>
<g>
</g>
<g>
</g>
<g>
</g>
</svg>
