<?xml version="1.0" encoding="iso-8859-1"?>
<!-- Generator: Adobe Illustrator 28.1.0, SVG Export Plug-In . SVG Version: 6.00 Build 0)  -->
<svg version="1.1" id="Capa_1" xmlns="http://www.w3.org/2000/svg" xmlns:xlink="http://www.w3.org/1999/xlink" x="0px" y="0px"
	 viewBox="0 0 510 510" style="enable-background:new 0 0 510 510;" xml:space="preserve">
<g>
	<g>
		<g>
			<g>
				<path style="fill:#FFFFFF;" d="M322.94,10H76.387c-9.061,0-16.406,7.345-16.406,16.406v457.188
					c0,9.061,7.345,16.406,16.406,16.406h357.225c9.061,0,16.406-7.345,16.406-16.406V137.078c0-4.509-1.791-8.833-4.979-12.021
					L334.961,14.979C331.773,11.791,327.449,10,322.94,10z"/>
			</g>
			<path style="fill:#D2DCFD;" d="M130.292,254.253c0-89.558,25.252-173.215,69.013-244.253H76.387
				c-9.061,0-16.406,7.345-16.406,16.406v457.188c0,9.061,7.345,16.406,16.406,16.406h123.838
				C155.896,428.643,130.292,344.439,130.292,254.253z"/>
			<path style="fill:#B1D952;" d="M255,312.596l-43.105-28.335c-34.549-22.711-55.352-61.281-55.352-102.626V89.219l0,0
				c61.579-32.643,135.335-32.643,196.914,0l0,0v92.417c0,41.345-20.803,79.915-55.352,102.626L255,312.596z"/>
			<path style="fill:#D2DCFD;" d="M445.04,125.058L334.961,14.979c-1.452-1.452-3.146-2.597-4.979-3.432v103.558
				c0,8.247,6.685,14.932,14.932,14.932h103.558C447.636,128.204,446.491,126.509,445.04,125.058z"/>
		</g>
	</g>
	<g>
		<path style="fill:#052A75;" d="M300.466,143.901c-4.501-3.2-10.744-2.147-13.945,2.354l-37.452,52.658l-20.363-22.24
			c-3.73-4.074-10.056-4.354-14.128-0.623c-4.073,3.73-4.352,10.056-0.623,14.129l28.717,31.364c1.9,2.075,4.58,3.247,7.375,3.247
			c0.205,0,0.411-0.006,0.616-0.019c3.015-0.187,5.783-1.725,7.534-4.186l44.623-62.739
			C306.02,153.346,304.966,147.103,300.466,143.901z"/>
		<path style="fill:#052A75;" d="M452.11,117.986L342.033,7.909C336.933,2.809,330.153,0,322.94,0H76.388
			C61.827,0,49.981,11.846,49.981,26.406v457.188c0,14.561,11.846,26.406,26.406,26.406h357.225
			c14.561,0,26.406-11.846,26.406-26.406V137.078C460.019,129.867,457.21,123.087,452.11,117.986z M425.877,120.037h-80.963
			c-2.719,0-4.932-2.212-4.932-4.932V34.143L425.877,120.037z M343.457,139.991v41.645c0,38.1-19.007,73.341-50.845,94.27
			L255,300.63l-37.612-24.725c-31.838-20.929-50.845-56.17-50.845-94.27V95.337c47.797-23.542,103.059-27.048,153.439-9.755v29.524
			C319.982,128.363,330.385,139.234,343.457,139.991z M433.612,490H76.388c-3.532,0-6.406-2.874-6.406-6.406V26.406
			c0-3.532,2.874-6.406,6.406-6.406h243.594v44.555c-55.718-17.212-116.266-11.662-168.123,15.828
			c-3.271,1.733-5.316,5.133-5.316,8.835v92.417c0,44.854,22.377,86.344,59.859,110.982l43.105,28.335
			c1.667,1.096,3.58,1.644,5.493,1.644s3.826-0.548,5.493-1.644l43.105-28.335c37.481-24.639,59.859-66.128,59.859-110.982v-41.599
			h76.562v343.557C440.019,487.126,437.145,490,433.612,490z"/>
		<path style="fill:#052A75;" d="M139.231,419H118.33c-5.523,0-10,4.478-10,10s4.477,10,10,10h20.901c5.523,0,10-4.478,10-10
			S144.754,419,139.231,419z"/>
		<path style="fill:#052A75;" d="M139.231,353H118.33c-5.523,0-10,4.478-10,10s4.477,10,10,10h20.901c5.523,0,10-4.478,10-10
			S144.754,353,139.231,353z"/>
		<path style="fill:#052A75;" d="M391.67,353H191.303c-5.523,0-10,4.478-10,10s4.477,10,10,10H391.67c5.523,0,10-4.478,10-10
			S397.193,353,391.67,353z"/>
		<path style="fill:#052A75;" d="M391.67,419H191.303c-5.523,0-10,4.478-10,10s4.477,10,10,10H391.67c5.523,0,10-4.478,10-10
			S397.193,419,391.67,419z"/>
	</g>
</g>
<g>
</g>
<g>
</g>
<g>
</g>
<g>
</g>
<g>
</g>
<g>
</g>
<g>
</g>
<g>
</g>
<g>
</g>
<g>
</g>
<g>
</g>
<g>
</g>
<g>
</g>
<g>
</g>
<g>
</g>
</svg>
