<?xml version="1.0" encoding="iso-8859-1"?>
<!-- Generator: Adobe Illustrator 27.9.4, SVG Export Plug-In . SVG Version: 9.03 Build 54784)  -->
<svg version="1.1" id="Layer_1" xmlns="http://www.w3.org/2000/svg" xmlns:xlink="http://www.w3.org/1999/xlink" x="0px" y="0px"
	 viewBox="0 0 511.978 511.978" style="enable-background:new 0 0 511.978 511.978;" xml:space="preserve">
<g>
	<g>
		<path style="fill:#B1D952;" d="M228.328,385.403V314.08c0-16.513-10.268-31.284-25.745-37.039l-51.311-19.077h-43.468
			l-51.311,19.077c-15.478,5.755-25.745,20.526-25.745,37.039v71.323H228.328z"/>
	</g>
	<g>
		<rect x="30.747" y="335.403" style="fill:#91B706;" width="197.581" height="50"/>
	</g>
	<g>
		<path style="fill:#D46B5C;" d="M346.876,191.774v40.504c0,22.37,18.134,40.504,40.504,40.504l0,0
			c22.37,0,40.504-18.134,40.504-40.504l-33.468-57.902L346.876,191.774z"/>
	</g>
	<g>
		<path style="fill:#FDCB50;" d="M427.884,236.23v-44.456c0-21.824-17.692-39.516-39.516-39.516h-55.322l13.831,39.516l30.596,4.084
			c0,0,3.026,23.6,15.129,30.257C404.703,232.772,427.884,236.23,427.884,236.23z"/>
	</g>
	<g>
		<path style="fill:#FDBEB9;" d="M89.033,181.684v41.704c0,22.37,18.134,40.504,40.504,40.504l0,0
			c22.37,0,40.504-18.134,40.504-40.504v-41.704H89.033z"/>
	</g>
	<g>
		<path style="fill:#FD8F01;" d="M118.67,143.367c-16.368,0-29.637,13.269-29.637,29.637v36.071l25.782-26.192h55.226l9.879-39.516
			H118.67z"/>
	</g>
	<g>
		<path style="fill:#FD6050;" d="M460.426,291.859l-51.312-19.076h-43.468l-51.311,19.076
			c-12.132,4.515-21.052,14.552-24.352,26.624h194.795C481.478,306.41,472.557,296.373,460.426,291.859z"/>
	</g>
	<g>
		<path style="fill:#FFFFFF;" d="M212.521,118.669h16.794v34.577l72.117-34.577h49.395c10.912,0,19.758-8.846,19.758-19.758V29.758
			c0-10.912-8.846-19.758-19.758-19.758H212.521c-10.912,0-19.758,8.846-19.758,19.758v69.153
			C192.763,109.823,201.609,118.669,212.521,118.669z"/>
	</g>
	<g>
		<rect x="28.771" y="436.647" style="fill:#D46B5C;" width="241.783" height="64.914"/>
	</g>
	<g>
		<path style="fill:#BC9AF4;" d="M471.352,315.262H303.408c-16.368,0-29.637,13.269-29.637,29.637v157.077h227.218V344.899
			C500.989,328.531,487.72,315.262,471.352,315.262z"/>
	</g>
	<g>
		<path style="fill:#6864F7;" d="M500.989,497.248v4.73h-227.22v-157.08c0-16.37,13.27-29.64,29.64-29.64h16.11
			c-0.08,2.13-0.12,4.28-0.12,6.43c0,97.01,78.64,175.66,175.66,175.66C497.049,497.348,499.019,497.318,500.989,497.248z"/>
	</g>
	<g>
		<polygon style="fill:#D46B5C;" points="268.87,385.403 10.989,385.403 10.989,436.45 270.123,436.45 		"/>
	</g>
	<g>
		<path style="fill:#FFFFFF;" d="M212.521,118.669h16.794v34.577l72.117-34.577h49.395c10.912,0,19.758-8.846,19.758-19.758V29.758
			c0-10.912-8.846-19.758-19.758-19.758H212.521c-10.912,0-19.758,8.846-19.758,19.758v69.153
			C192.763,109.823,201.609,118.669,212.521,118.669z"/>
	</g>
</g>
<g>
	<g>
		<path style="fill:#052A75;" d="M493.129,311.798c-4.97-13.47-15.64-24.26-29.22-29.31l-40.35-15.01
			c8.87-9.09,14.33-21.52,14.33-35.2v-40.5c0-27.31-22.22-49.52-49.52-49.52h-55.32c-3.24,0-6.28,1.57-8.16,4.21
			c-1.87,2.65-2.35,6.03-1.28,9.09l13.27,37.92v38.8c0,13.68,5.46,26.11,14.33,35.2l-40.36,15.01
			c-13.58,5.05-24.25,15.84-29.22,29.31c-10.75,7.09-17.86,19.29-17.86,33.1v30.51h-25.44v-61.33c0-20.58-12.97-39.24-32.26-46.41
			l-36.47-13.56c6.55-8.52,10.44-19.17,10.44-30.72v-39.27l9.58-38.33c0.75-2.98,0.08-6.15-1.82-8.58c-1.89-2.42-4.8-3.84-7.88-3.84
			h-61.25c-21.85,0-39.64,17.78-39.64,39.64v50.38c0,11.55,3.89,22.2,10.45,30.72l-36.47,13.56c-19.3,7.17-32.26,25.83-32.26,46.41
			v61.33h-9.76c-5.52,0-10,4.47-10,10v51.04c0,5.53,4.48,10,10,10h7.78v55.11c0,5.53,4.48,10,10,10s10-4.47,10-10v-55.11h225v55.53
			c0,5.52,4.48,10,10,10s10-4.48,10-10v-157.08c0-10.83,8.81-19.64,19.64-19.64h167.94c10.83,0,19.64,8.81,19.64,19.64v157.08
			c0,5.52,4.48,10,10,10s10-4.48,10-10v-157.08C510.989,331.088,503.879,318.888,493.129,311.798z M99.029,173.008
			c0-10.83,8.81-19.64,19.64-19.64h48.44l-6.77,27.09c-0.2,0.79-0.3,1.61-0.3,2.43v40.5c0,16.82-13.68,30.5-30.5,30.5
			s-30.51-13.68-30.51-30.5V173.008z M40.749,314.078c0-12.27,7.73-23.39,19.23-27.66l47.44-17.64c6.68,3.28,14.19,5.11,22.12,5.11
			s15.44-1.83,22.12-5.11l47.44,17.64c11.5,4.27,19.23,15.39,19.23,27.66v61.33h-21.49v-32.51c0-5.52-4.48-10-10-10
			c-5.53,0-10,4.48-10,10v32.51h-94.6v-32.51c0-5.52-4.48-10-10-10s-10,4.48-10,10v32.51h-21.49V314.078z M263.769,426.448H20.989
			v-31.04h242.78V426.448z M347.139,162.258h41.23c16.27,0,29.52,13.24,29.52,29.52v40.5c0,8.41-3.42,16.03-8.95,21.56
			c-5.52,5.52-13.15,8.94-21.56,8.94c-16.82,0-30.5-13.68-30.5-30.5v-40.5c0-1.13-0.19-2.25-0.56-3.31L347.139,162.258z
			 M310.439,305.258c2.23-1.67,4.71-3.03,7.38-4.03l49.63-18.45h39.87l49.62,18.45c2.67,1,5.15,2.36,7.38,4.03H310.439z"/>
	</g>
	<g>
		<path style="fill:#052A75;" d="M229.316,163.246c-1.857,0-3.707-0.517-5.328-1.537c-2.908-1.831-4.673-5.026-4.673-8.463v-24.577
			h-6.794c-16.408,0-29.758-13.35-29.758-29.758V29.758C182.763,13.349,196.113,0,212.521,0h138.307
			c16.408,0,29.758,13.349,29.758,29.758v69.153c0,16.409-13.35,29.758-29.758,29.758h-47.122l-70.067,33.594
			C232.267,162.92,230.789,163.246,229.316,163.246z M212.521,20c-5.381,0-9.758,4.377-9.758,9.758v69.153
			c0,5.381,4.377,9.758,9.758,9.758h16.794c5.522,0,10,4.477,10,10v18.692l57.794-27.709c1.35-0.647,2.827-0.983,4.323-0.983h49.396
			c5.381,0,9.758-4.377,9.758-9.758V29.758c0-5.38-4.377-9.758-9.758-9.758H212.521z"/>
	</g>
	<g>
		<path style="fill:#93B2F4;" d="M331.042,56.552h-98.715c-5.522,0-10-4.477-10-10s4.478-10,10-10h98.715c5.522,0,10,4.477,10,10
			S336.564,56.552,331.042,56.552z"/>
	</g>
	<g>
		<path style="fill:#93B2F4;" d="M301.432,92.117h-69.105c-5.522,0-10-4.477-10-10s4.478-10,10-10h69.105c5.522,0,10,4.477,10,10
			S306.955,92.117,301.432,92.117z"/>
	</g>
</g>
<g>
</g>
<g>
</g>
<g>
</g>
<g>
</g>
<g>
</g>
<g>
</g>
<g>
</g>
<g>
</g>
<g>
</g>
<g>
</g>
<g>
</g>
<g>
</g>
<g>
</g>
<g>
</g>
<g>
</g>
</svg>
