<?xml version="1.0" encoding="iso-8859-1"?>
<!-- Generator: Adobe Illustrator 26.5.3, SVG Export Plug-In . SVG Version: 6.00 Build 0)  -->
<svg version="1.1" id="Capa_1" xmlns="http://www.w3.org/2000/svg" xmlns:xlink="http://www.w3.org/1999/xlink" x="0px" y="0px"
	 viewBox="0 0 510 510" style="enable-background:new 0 0 510 510;" xml:space="preserve">
<g>
	<g>
		<path style="fill:#27A2CC;" d="M276.139,269.058h-42.405c-7.341-7.341-11.457-11.457-18.797-18.797v-55.528h80v55.528
			C287.596,257.602,283.48,261.717,276.139,269.058z"/>
		<path style="fill:#27A2CC;" d="M276.139,269.058h-42.405c-7.341-7.341-11.457-11.457-18.797-18.797v-55.528h80v55.528
			C287.596,257.602,283.48,261.717,276.139,269.058z"/>
		<rect x="10" y="55.143" style="fill:#D2DCFD;" width="490" height="44"/>
		<rect x="186.462" y="55.143" style="fill:#67CCD1;" width="136.949" height="139.59"/>
		<path style="fill:#27A2CC;" d="M214.729,55.143h-28.267v139.59h109.112C247.264,166.974,214.729,114.858,214.729,55.143z"/>
		<path style="fill:#FDCB50;" d="M472,454.857H38c-15.464,0-28-12.536-28-28v0c0-15.464,12.536-28,28-28h434
			c15.464,0,28,12.536,28,28v0C500,442.321,487.464,454.857,472,454.857z"/>
	</g>
	<g>
		<path style="fill:#052A75;" d="M510,99.143v-44c0-5.522-4.478-10-10-10H10c-5.522,0-10,4.478-10,10v44c0,5.522,4.478,10,10,10
			h166.462v85.59c0,5.522,4.478,10,10,10h18.475v45.528c0,2.652,1.054,5.195,2.929,7.071l18.798,18.798
			c1.876,1.875,4.419,2.929,7.071,2.929h11.202v109.799H38c-20.953,0-38,17.047-38,38s17.047,38,38,38h434c20.953,0,38-17.047,38-38
			s-17.047-38-38-38H264.937V279.059h11.202c2.652,0,5.195-1.054,7.071-2.929l18.798-18.798c1.875-1.876,2.929-4.419,2.929-7.071
			v-45.528h18.475c5.522,0,10-4.478,10-10v-85.59H500C505.522,109.143,510,104.665,510,99.143z M176.462,89.143H20v-24h156.462
			V89.143z M472,408.857c9.925,0,18,8.075,18,18s-8.075,18-18,18H38c-9.925,0-18-8.075-18-18s8.075-18,18-18H472z M284.937,246.118
			l-12.94,12.94h-34.119l-12.94-12.94v-41.386h60V246.118z M313.411,184.732H196.462V65.143h116.949V184.732z M490,89.143H333.411
			v-24H490V89.143z"/>
		<path style="fill:#052A75;" d="M321.063,364.128h45.896c5.522,0,10-4.478,10-10s-4.478-10-10-10h-45.896c-5.522,0-10,4.478-10,10
			S315.541,364.128,321.063,364.128z"/>
		<path style="fill:#052A75;" d="M133.168,354.128c0,5.522,4.478,10,10,10h45.896c5.522,0,10-4.478,10-10s-4.478-10-10-10h-45.896
			C137.646,344.128,133.168,348.605,133.168,354.128z"/>
		<path style="fill:#052A75;" d="M197.268,317.459c2.56,0,5.118-0.977,7.071-2.929c3.905-3.905,3.905-10.237,0-14.143
			l-16.227-16.227c-3.906-3.904-10.236-3.904-14.143,0c-3.905,3.905-3.905,10.237,0,14.143l16.227,16.227
			C192.149,316.482,194.708,317.459,197.268,317.459z"/>
		<path style="fill:#052A75;" d="M335.903,298.304c3.905-3.905,3.905-10.237,0-14.143c-3.906-3.904-10.236-3.904-14.143,0
			l-16.227,16.227c-3.905,3.905-3.905,10.237,0,14.143c1.953,1.952,4.512,2.929,7.071,2.929s5.118-0.977,7.071-2.929
			L335.903,298.304z"/>
	</g>
</g>
<g>
</g>
<g>
</g>
<g>
</g>
<g>
</g>
<g>
</g>
<g>
</g>
<g>
</g>
<g>
</g>
<g>
</g>
<g>
</g>
<g>
</g>
<g>
</g>
<g>
</g>
<g>
</g>
<g>
</g>
</svg>
