<?xml version="1.0" encoding="iso-8859-1"?>
<!-- Generator: Adobe Illustrator 27.2.0, SVG Export Plug-In . SVG Version: 6.00 Build 0)  -->
<svg version="1.1" id="Capa_1" xmlns="http://www.w3.org/2000/svg" xmlns:xlink="http://www.w3.org/1999/xlink" x="0px" y="0px"
	 viewBox="0 0 509.995 509.995" style="enable-background:new 0 0 509.995 509.995;" xml:space="preserve">
<g>
	<g>
		<g>
			<g>
				<path style="fill:#6864F7;" d="M220.696,266.485L108.031,304.04c0,0-0.001,0-0.004,0
					c-48.757,16.256-81.644,61.881-81.644,113.278c0,41.616,0,82.677,0,82.677c106.784,0,350.431,0,457.229,0c0,0,0-41.061,0-82.677
					c0-51.397-32.887-97.022-81.644-113.278c-0.002,0-0.004,0-0.004,0l-112.665-37.555H220.696z"/>
			</g>
		</g>
	</g>
	<g>
		<g>
			<g>
				<polygon style="fill:#FFFFFF;" points="157.02,287.71 254.997,502.425 254.997,502.425 348.378,287.71 257.351,258.089 				"/>
			</g>
		</g>
	</g>
	<g>
		<g>
			<g>
				<path style="fill:#D2DCFD;" d="M348.377,287.71l-15.8,39.7c-43.53,40.77-117.42,39.49-159.05-3.83
					c-0.09-0.09-0.18-0.18-0.27-0.27l-16.24-35.6l100.33-29.62L348.377,287.71z"/>
			</g>
		</g>
	</g>
	<g>
		<g>
			<g>
				<polygon style="fill:#BC9AF4;" points="108.031,304.04 165.185,361.193 165.185,410.182 254.997,499.995 206.009,271.381 				
					"/>
			</g>
		</g>
	</g>
	<g>
		<g>
			<g>
				<polygon style="fill:#BC9AF4;" points="401.964,304.04 344.81,361.193 344.81,410.182 254.997,499.995 303.986,271.381 				"/>
			</g>
		</g>
	</g>
	<g>
		<g>
			<g>
				<path style="fill:#6864F7;" d="M223.467,352.84c-18.68-5.09-36.09-14.85-49.94-29.26c-9.82-9.81-17.68-21.22-23.33-33.6
					l55.81-18.6L223.467,352.84z"/>
			</g>
		</g>
	</g>
	<g>
		<g>
			<g>
				<path style="fill:#6864F7;" d="M359.797,289.98c-5.65,12.38-13.51,23.79-23.33,33.6c-13.85,14.41-31.26,24.17-49.94,29.26
					l17.46-81.46L359.797,289.98z"/>
			</g>
		</g>
	</g>
	<g>
		<g>
			<g>
				<g>
					<path style="fill:#FDBEB9;" d="M222.338,8.513c0,0,44.574,0,81.648,0c27.056,0,48.989,21.931,48.989,48.989v48.989
						c0,0,0,30.61,0,65.318c0,25.989-10.323,50.908-28.697,69.278c-36.483,37.954-102.077,37.956-138.562,0
						c-18.374-18.371-28.697-43.29-28.697-69.278V106.49c0,0,0-24.494,0-48.989c0-12.99,5.162-25.45,14.349-34.635
						C186.911,7.601,202.165,8.182,222.338,8.513z"/>
				</g>
			</g>
		</g>
		<g>
			<g>
				<g>
					<path style="fill:#B55348;" d="M222.338,42.766c0-9.656,0.028-21.06,0.053-29.556c-0.032-1.031-0.053-2.064-0.053-3.103
						c-20.173-0.331-35.427-0.912-50.97,14.354c-9.187,9.185-14.349,21.645-14.349,34.635c0,26.939,0,48.204,0,51.178
						C190.68,106.61,222.338,76.559,222.338,42.766z"/>
				</g>
			</g>
		</g>
		<g>
			<g>
				<g>
					<path style="fill:#B55348;" d="M303.986,10.107c-36.312,0-79.812,0-81.585,0c-0.003,0.981-0.006,2.016-0.01,3.103
						c1.631,52.669,44.839,94.875,97.908,94.875c18.754,0,32.676,0,32.676,0V59.096C352.975,32.038,331.042,10.107,303.986,10.107z"
						/>
				</g>
			</g>
		</g>
	</g>
</g>
<g>
	<g>
		<path style="fill:#052A75;" d="M405.131,294.553c-0.068-0.022-0.135-0.043-0.203-0.066l-91.108-30.369
			c6.411-4.134,12.328-8.963,17.599-14.434c20.349-20.383,31.556-47.47,31.556-76.28c0,0,0-114.307,0-114.307
			c0-32.526-26.462-58.989-58.988-58.989c0,0-81.562,0-81.562,0c-20.405-0.331-39.482-1.009-58.126,17.282
			C153.156,28.53,147.02,43.342,147.02,59.096v114.307c0,28.811,11.207,55.897,31.557,76.28c5.271,5.472,11.188,10.3,17.599,14.434
			l-91.109,30.369c-0.017,0.006-0.035,0.012-0.052,0.017c-52.996,17.59-88.635,66.978-88.632,122.814c0,0,0,82.677,0,82.677
			c0,5.523,4.478,10,10,10h457.229c5.522,0,10-4.477,10-10v-82.677C493.612,361.534,458.054,312.198,405.131,294.553z
			 M192.787,235.61c-16.616-16.613-25.767-38.705-25.767-62.207V59.096c0-10.412,4.056-20.201,11.355-27.501
			c12.175-12.654,27.217-11.813,43.799-11.489c0.134-0.106,81.66,0.079,81.813,0.001c21.498,0,38.988,17.49,38.988,38.989
			c0,0,0,114.307,0,114.307c0,23.501-9.15,45.593-25.767,62.207C286.257,269.367,223.737,269.384,192.787,235.61z M254.997,281.148
			c11.11,0,22.008-1.651,32.309-4.786l104.657,34.885v178.748H118.031V311.247l104.657-34.885
			C232.99,279.497,243.888,281.148,254.997,281.148z M36.383,417.318c0-42.372,24.271-80.331,61.647-98.426v171.102H36.383V417.318z
			 M473.612,489.995h-61.647V318.893c37.375,18.095,61.647,56.053,61.647,98.425V489.995z"/>
	</g>
</g>
<g>
</g>
<g>
</g>
<g>
</g>
<g>
</g>
<g>
</g>
<g>
</g>
<g>
</g>
<g>
</g>
<g>
</g>
<g>
</g>
<g>
</g>
<g>
</g>
<g>
</g>
<g>
</g>
<g>
</g>
</svg>
