<?xml version="1.0" encoding="iso-8859-1"?>
<!-- Generator: Adobe Illustrator 28.7.8, SVG Export Plug-In . SVG Version: 9.03 Build 56881)  -->
<svg version="1.1" id="Layer_1" xmlns="http://www.w3.org/2000/svg" xmlns:xlink="http://www.w3.org/1999/xlink" x="0px" y="0px"
	 viewBox="0 0 509.888 509.888" style="enable-background:new 0 0 509.888 509.888;" xml:space="preserve">
<g>
	<g>
		<g>
			<g>
				<path style="fill:#FDCB50;" d="M323.766,91.985V60.167c0-27.707-22.461-50.167-50.167-50.167h-37.31
					c-27.706,0-50.167,22.461-50.167,50.167v31.818H323.766z"/>
			</g>
			<g>
				<path style="fill:#FDE0BE;" d="M186.122,91.985h53.213c18.282,0,33.103-14.821,33.103-33.103v0v0
					c0,18.282,14.821,33.103,33.103,33.103h18.225v30.499c0,38.009-30.813,68.822-68.822,68.822h0
					c-38.009,0-68.822-30.813-68.822-68.822V91.985z"/>
			</g>
			<g>
				<path style="fill:#B1D952;" d="M182.078,229.422l-42.941,5.002c-27.424,3.195-48.106,26.426-48.106,54.036v93.011h327.827
					V288.46c0-27.61-20.682-50.841-48.106-54.036l-42.941-5.002H182.078z"/>
			</g>
			<g>
				<path style="fill:#91B706;" d="M254.944,270.789c-67.493,0-123.912,47.375-137.842,110.682h275.685
					C378.856,318.163,322.437,270.789,254.944,270.789z"/>
			</g>
			<g>
				<polygon style="fill:#F7B073;" points="293.19,181.62 293.19,211.873 254.944,259.967 216.698,211.873 216.698,181.62 				"/>
			</g>
			<g>
				<polygon style="fill:#FFFFFF;" points="293.19,211.873 327.81,229.422 308.531,291.992 254.944,259.967 				"/>
			</g>
			<g>
				<polygon style="fill:#FFFFFF;" points="216.698,211.873 182.078,229.422 201.358,291.992 254.944,259.967 				"/>
			</g>
		</g>
		<g>
			<g>
				<g>
					<path style="fill:#67CCD1;" d="M331.803,412.056c0-5.959-0.678-11.76-1.962-17.33l12.485-7.209l-22.44-38.867l-12.505,7.22
						c-8.443-7.883-18.663-13.886-29.996-17.341v-14.418h-44.88v14.418c-11.333,3.454-21.553,9.457-29.996,17.341l-12.505-7.22
						l-22.44,38.867l12.486,7.209c-1.284,5.57-1.962,11.37-1.962,17.33c0,5.959,0.679,11.76,1.962,17.33l-12.486,7.209l22.44,38.867
						l12.505-7.22c8.443,7.883,18.663,13.886,29.996,17.341V500h44.88v-14.418c11.333-3.454,21.553-9.457,29.996-17.341l12.505,7.22
						l22.44-38.867l-12.485-7.209C331.124,423.816,331.803,418.015,331.803,412.056z"/>
				</g>
			</g>
			<g>
				<path style="fill:#27A2CC;" d="M252.467,371.45c0-16.749,3.287-32.728,9.237-47.339h-29.201v14.418
					c-11.333,3.454-21.553,9.457-29.996,17.341l-12.505-7.22l-22.44,38.867l12.486,7.208c-1.284,5.57-1.962,11.371-1.962,17.33
					c0,5.959,0.679,11.76,1.962,17.33l-12.486,7.208l22.44,38.867l12.505-7.22c8.443,7.883,18.663,13.886,29.996,17.341V500h44.88
					v-14.417c9.405-2.867,18.04-7.494,25.533-13.489C272.291,449.19,252.467,412.635,252.467,371.45z"/>
			</g>
			<g>
				<path style="fill:#FFFFFF;" d="M272.133,438.935c8.906-5.682,14.811-15.65,14.811-26.996c0-17.673-14.327-32-32-32
					c-0.732,0-1.459,0.025-2.179,0.073l-10.083,42.827L272.133,438.935z"/>
			</g>
			<g>
				<path style="fill:#D2DCFD;" d="M252.765,380.021c-16.656,1.121-29.821,14.978-29.821,31.918c0,17.673,14.327,32,32,32
					c6.326,0,12.219-1.843,17.184-5.011C261.13,421.697,254.221,401.609,252.765,380.021z"/>
			</g>
		</g>
	</g>
	<g>
		<path style="fill:#052A75;" d="M371.908,224.492l-41.168-4.796l-27.55-13.966v-20.981c18.583-14.432,30.575-36.968,30.575-62.265
			V60.167C333.766,26.991,306.775,0,273.599,0h-37.31c-33.176,0-60.167,26.991-60.167,60.167v62.317
			c0,25.297,11.992,47.832,30.575,62.265v20.981l-27.55,13.966l-41.168,4.796c-32.466,3.782-56.949,31.282-56.949,63.968v93.011
			c0,5.523,4.477,10,10,10h67.406c0.829,1.864,2.224,3.497,4.125,4.595l6.376,3.681c-0.567,4.03-0.853,8.11-0.853,12.197
			s0.286,8.167,0.852,12.197l-6.375,3.681c-4.783,2.761-6.422,8.877-3.66,13.66l22.44,38.868c1.326,2.297,3.51,3.973,6.072,4.659
			c2.562,0.686,5.292,0.327,7.588-0.999l6.39-3.689c6.429,5.031,13.567,9.159,21.112,12.208v7.359c0,5.523,4.477,10,10,10h44.88
			c5.523,0,10-4.477,10-10v-7.359c7.545-3.049,14.684-7.177,21.112-12.208l6.39,3.689c2.296,1.327,5.026,1.686,7.588,0.999
			c2.562-0.687,4.746-2.362,6.072-4.659l22.44-38.868c2.762-4.783,1.123-10.899-3.66-13.66l-6.375-3.681
			c0.566-4.029,0.852-8.109,0.852-12.197c0-4.088-0.286-8.168-0.852-12.197l6.375-3.681c1.902-1.098,3.297-2.73,4.125-4.595h67.406
			c5.523,0,10-4.477,10-10V288.46C428.858,255.774,404.375,228.274,371.908,224.492z M315.772,234.531l-13.047,42.341
			l-32.841-19.627l26.058-32.767L315.772,234.531z M254.944,243.9l-28.247-35.52v-12.329c8.776,3.381,18.294,5.254,28.247,5.254
			s19.471-1.873,28.247-5.254v12.329L254.944,243.9z M196.122,60.167c0-22.148,18.019-40.167,40.167-40.167h37.31
			c22.148,0,40.167,18.019,40.167,40.167v21.818h-8.225c-12.739,0-23.103-10.364-23.103-23.103c0-5.523-4.477-10-10-10
			s-10,4.477-10,10c0,12.739-10.364,23.103-23.103,23.103h-43.213V60.167z M196.122,122.484v-20.499h43.213
			c13.288,0,25.19-6.043,33.103-15.526c7.913,9.483,19.815,15.526,33.103,15.526h8.225v20.499c0,32.435-26.387,58.822-58.822,58.822
			S196.122,154.919,196.122,122.484z M213.946,224.479l26.058,32.767l-32.841,19.627l-13.047-42.341L213.946,224.479z
			 M320.096,396.86c1.132,4.913,1.707,9.988,1.707,15.084s-0.574,10.171-1.707,15.083c-0.987,4.283,0.938,8.708,4.745,10.906
			l3.825,2.208l-12.44,21.547l-3.845-2.22c-3.81-2.2-8.609-1.651-11.825,1.351c-7.419,6.928-16.44,12.144-26.088,15.084
			c-4.208,1.283-7.084,5.166-7.084,9.565v4.417h-24.88v-4.417c0-4.4-2.875-8.283-7.084-9.565
			c-9.647-2.941-18.668-8.157-26.088-15.084c-3.216-3.003-8.017-3.549-11.825-1.351l-3.845,2.22l-12.44-21.547l3.825-2.208
			c3.806-2.197,5.731-6.623,4.745-10.905c-1.132-4.915-1.707-9.99-1.707-15.084s0.574-10.169,1.707-15.085
			c0.987-4.283-0.938-8.708-4.745-10.905l-3.825-2.208l12.44-21.547l3.845,2.22c3.809,2.199,8.609,1.651,11.825-1.351
			c7.42-6.928,16.441-12.144,26.088-15.084c4.208-1.283,7.084-5.166,7.084-9.565V334h24.88v4.417c0,4.4,2.875,8.283,7.084,9.565
			c9.647,2.94,18.668,8.157,26.088,15.084c3.215,3.002,8.016,3.55,11.825,1.351l3.845-2.22l12.44,21.547l-3.825,2.208
			C321.034,388.152,319.109,392.577,320.096,396.86z M408.858,371.471h-64.185l-16.127-27.933c-2.761-4.783-8.878-6.422-13.66-3.66
			l-6.39,3.689c-6.429-5.032-13.567-9.159-21.112-12.208V324c0-5.523-4.477-10-10-10h-44.88c-5.523,0-10,4.477-10,10v7.359
			c-7.545,3.049-14.683,7.176-21.112,12.208l-6.39-3.689c-4.784-2.763-10.899-1.124-13.66,3.66l-16.127,27.933h-64.185V288.46
			c0-22.535,16.88-41.495,39.264-44.103l34.677-4.04l16.83,54.619c0.904,2.934,3.106,5.29,5.972,6.391
			c1.158,0.445,2.374,0.665,3.584,0.665c1.785,0,3.56-0.478,5.13-1.416l48.457-28.959l48.457,28.959
			c1.57,0.938,3.345,1.416,5.13,1.416c1.21,0,2.426-0.22,3.584-0.665c2.866-1.101,5.068-3.457,5.972-6.391l16.83-54.619l34.677,4.04
			c22.384,2.608,39.264,21.568,39.264,44.103V371.471z"/>
		<g>
			<path style="fill:#FD7DA0;" d="M398.971,77.533c1.696,0,3.416-0.432,4.991-1.341l64.361-37.159l-1.885,7.036
				c-1.43,5.335,1.736,10.818,7.071,12.248c0.867,0.232,1.738,0.343,2.595,0.343c4.415,0,8.456-2.947,9.653-7.414l8.134-30.356
				c1.43-5.335-1.736-10.818-7.071-12.248l-30.356-8.134c-5.336-1.43-10.818,1.736-12.248,7.071
				c-1.43,5.335,1.736,10.818,7.071,12.248l7.037,1.885l-64.361,37.159c-4.783,2.761-6.422,8.877-3.66,13.66
				C392.154,75.74,395.515,77.533,398.971,77.533z"/>
			<path style="fill:#FD7DA0;" d="M485.756,171.246c-1.43-5.334-6.911-8.503-12.248-7.071c-5.334,1.429-8.5,6.913-7.071,12.248
				l1.885,7.036L403.962,146.3c-4.783-2.761-10.898-1.123-13.66,3.66s-1.123,10.899,3.66,13.66l64.361,37.159l-7.037,1.885
				c-5.334,1.429-8.5,6.913-7.071,12.248c1.197,4.468,5.237,7.414,9.653,7.414c0.856,0,1.728-0.111,2.595-0.343l30.356-8.134
				c5.334-1.429,8.5-6.913,7.071-12.248L485.756,171.246z"/>
			<path style="fill:#FD7DA0;" d="M115.927,58.872L51.565,21.713l7.037-1.885c5.334-1.429,8.5-6.913,7.071-12.248
				c-1.43-5.334-6.911-8.502-12.248-7.071L23.069,8.643c-5.334,1.429-8.5,6.913-7.071,12.248l8.134,30.356
				c1.197,4.468,5.237,7.414,9.653,7.414c0.856,0,1.728-0.111,2.595-0.343c5.334-1.429,8.5-6.913,7.071-12.248l-1.885-7.036
				l64.361,37.159c1.575,0.909,3.294,1.341,4.991,1.341c3.456,0,6.817-1.793,8.669-5.001
				C122.348,67.749,120.709,61.633,115.927,58.872z"/>
			<path style="fill:#FD7DA0;" d="M105.927,146.3l-64.361,37.159l1.885-7.036c1.43-5.335-1.736-10.818-7.071-12.248
				c-5.334-1.431-10.819,1.736-12.248,7.071l-8.134,30.356c-1.43,5.335,1.736,10.818,7.071,12.248l30.356,8.134
				c0.867,0.232,1.738,0.343,2.595,0.343c4.415,0,8.456-2.947,9.653-7.414c1.43-5.335-1.736-10.818-7.071-12.248l-7.037-1.885
				l64.361-37.159c4.783-2.761,6.422-8.877,3.66-13.66C116.826,145.177,110.709,143.538,105.927,146.3z"/>
		</g>
		<g>
			<path style="fill:#DB4B86;" d="M254.944,151.912c-6.544,0-13.089-2.491-18.071-7.473c-3.905-3.905-3.905-10.237,0-14.143
				c3.905-3.905,10.237-3.905,14.143,0c1.049,1.05,2.445,1.628,3.929,1.628s2.879-0.578,3.929-1.628
				c3.905-3.905,10.237-3.905,14.143,0c3.905,3.905,3.905,10.237,0,14.143C268.033,149.421,261.489,151.912,254.944,151.912z"/>
		</g>
	</g>
</g>
<g>
</g>
<g>
</g>
<g>
</g>
<g>
</g>
<g>
</g>
<g>
</g>
<g>
</g>
<g>
</g>
<g>
</g>
<g>
</g>
<g>
</g>
<g>
</g>
<g>
</g>
<g>
</g>
<g>
</g>
</svg>
