<?xml version="1.0" encoding="iso-8859-1"?>
<!-- Generator: Adobe Illustrator 29.1.0, SVG Export Plug-In . SVG Version: 9.03 Build 55587)  -->
<svg version="1.1" id="Capa_1" xmlns="http://www.w3.org/2000/svg" xmlns:xlink="http://www.w3.org/1999/xlink" x="0px" y="0px"
	 viewBox="0 0 510 510" style="enable-background:new 0 0 510 510;" xml:space="preserve">
<g>
	<g>
		<g>
			<g>
				<g>
					<path style="fill:#93B2F4;" d="M212.433,279.369v22.107c0,15.948-11.376,29.626-27.057,32.533l-69.664,12.914
						c-30.558,5.665-52.728,32.321-52.728,63.4V500h384.031v-89.677c0-31.079-22.17-57.736-52.728-63.4l-69.664-12.914
						c-15.681-2.907-27.057-16.585-27.057-32.533v-22.107H212.433z"/>
				</g>
			</g>
			<g>
				<path style="fill:#6864F7;" d="M128.946,344.47l-13.233,2.453c-30.558,5.665-52.728,32.321-52.728,63.4V500h195.391
					C184.917,486.184,129.29,421.86,128.946,344.47z"/>
			</g>
			<g>
				<path style="fill:#FFFFFF;" d="M324.624,334.009c-15.681-2.907-27.057-16.585-27.057-32.533v-22.107h-85.134v22.107
					c0,15.948-11.376,29.626-27.057,32.533l-19.576,3.629L255,500l89.199-162.362L324.624,334.009z"/>
			</g>
			<g>
				<path style="fill:#FD7DA0;" d="M297.567,279.369h-85.134v22.107c0,8.515-3.252,16.373-8.662,22.298L255,375.003l51.229-51.229
					c-5.411-5.925-8.662-13.783-8.662-22.298V279.369z"/>
			</g>
		</g>
		<g>
			<g>
				<circle style="fill:#FD8F01;" cx="255" cy="58.68" r="48.68"/>
			</g>
			<g>
				<circle style="fill:#FDCB50;" cx="255" cy="172.956" r="108.76"/>
			</g>
			<g>
				<g>
					<path style="fill:#FDBEB9;" d="M176.046,217.853c0,43.605,35.349,78.954,78.954,78.954h0c43.605,0,78.954-35.349,78.954-78.954
						v-9.785l0-0.786c0.001-31.631-15.305-61.308-41.078-79.647l0,0l0,0c-21.592,24.863-51.602,40.88-84.276,44.981h0
						c-18.6,2.335-32.554,18.149-32.554,36.895V217.853z"/>
				</g>
				<g>
					<path style="fill:#FD7DA0;" d="M255.127,206.976c28.184,0,54.821,6.605,78.466,18.334c0.23-2.456,0.361-4.941,0.361-7.458
						v-9.785v-0.786c0.001-31.631-15.305-61.308-41.078-79.646h0c-21.592,24.863-51.602,40.88-84.276,44.981h0
						c-18.6,2.334-32.554,18.149-32.554,36.895v8.341c0,2.558,0.132,5.084,0.37,7.579
						C200.122,213.627,226.846,206.976,255.127,206.976z"/>
				</g>
			</g>
		</g>
	</g>
	<g>
		<g>
			<path style="fill:#DB4B86;" d="M255,252.448c-8.021,0-15.563-3.124-21.234-8.796c-3.905-3.905-3.905-10.237,0-14.142
				c3.906-3.904,10.238-3.905,14.142,0c1.894,1.894,4.413,2.938,7.092,2.938s5.198-1.043,7.092-2.938
				c3.905-3.905,10.237-3.906,14.142,0s3.906,10.237,0,14.142C270.562,249.324,263.021,252.448,255,252.448z"/>
		</g>
		<g>
			<g>
				<path style="fill:#FFFFFF;" d="M389.271,456.503h-38.732c-5.523,0-10-4.477-10-10s4.477-10,10-10h38.732c5.523,0,10,4.477,10,10
					S394.794,456.503,389.271,456.503z"/>
			</g>
			<path style="fill:#052A75;" d="M396.11,337.09l-69.664-12.914c-10.939-2.028-18.879-11.575-18.879-22.701v-11.911
				c9.271-6.814,17.178-15.378,23.229-25.203c27.323-22.669,42.965-55.874,42.965-91.406c0-44.548-24.66-83.438-61.041-103.758
				c0.632-3.463,0.961-6.977,0.961-10.518C313.681,26.324,287.356,0,255,0s-58.681,26.324-58.681,58.681
				c0,3.541,0.33,7.055,0.961,10.518c-36.381,20.319-61.041,59.21-61.041,103.757c0,35.532,15.641,68.738,42.964,91.406
				c6.051,9.825,13.958,18.389,23.229,25.203v11.911c0,11.126-7.94,20.673-18.879,22.701L113.89,337.09
				c-35.291,6.542-60.905,37.341-60.905,73.233V500c0,5.523,4.477,10,10,10h384.031c5.523,0,10-4.477,10-10v-89.677
				C457.016,374.431,431.401,343.632,396.11,337.09z M255,20c21.329,0,38.681,17.352,38.681,38.681c0,0.658-0.023,1.314-0.056,1.969
				c-12.115-4.178-25.109-6.453-38.625-6.453s-26.51,2.275-38.625,6.453c-0.033-0.655-0.056-1.311-0.056-1.969
				C216.319,37.352,233.671,20,255,20z M166.046,209.511v6.43c-6.388-13.209-9.806-27.844-9.806-42.985
				c0-54.457,44.303-98.76,98.76-98.76s98.76,44.304,98.76,98.76c0,15.142-3.419,29.776-9.807,42.985v-8.661
				c0-34.798-16.927-67.618-45.281-87.793c-4.195-2.985-9.972-2.298-13.348,1.591c-20.006,23.037-47.697,37.816-77.97,41.616
				C183.805,165.65,166.046,185.777,166.046,209.511z M186.046,217.853v-8.341c0-13.674,10.231-25.27,23.799-26.973
				c31.999-4.017,61.515-18.594,84.083-41.346c18.939,16.558,30.025,40.675,30.025,66.088v10.572
				c0,38.021-30.933,68.954-68.954,68.954S186.046,255.874,186.046,217.853z M293.162,322.699L255,360.861l-38.162-38.163
				c3.572-6.303,5.595-13.561,5.595-21.223v-0.843c10.09,3.984,21.078,6.173,32.567,6.173s22.477-2.19,32.567-6.173v0.843
				C287.567,309.138,289.59,316.396,293.162,322.699z M72.984,490v-79.677c0-26.254,18.736-48.783,44.551-53.568l42.981-7.967
				L238.096,490H72.984z M181.227,344.949l5.972-1.107c5.873-1.089,11.279-3.344,16.006-6.491l44.723,44.724
				c1.875,1.875,4.419,2.929,7.071,2.929s5.196-1.054,7.071-2.929l44.723-44.724c4.727,3.147,10.133,5.402,16.006,6.491l5.972,1.107
				L255,479.232L181.227,344.949z M437.016,490H271.904l77.58-141.212l42.981,7.967c25.814,4.785,44.551,27.313,44.551,53.568V490z"
				/>
		</g>
	</g>
</g>
<g>
</g>
<g>
</g>
<g>
</g>
<g>
</g>
<g>
</g>
<g>
</g>
<g>
</g>
<g>
</g>
<g>
</g>
<g>
</g>
<g>
</g>
<g>
</g>
<g>
</g>
<g>
</g>
<g>
</g>
</svg>
