<?xml version="1.0" encoding="iso-8859-1"?>
<!-- Generator: Adobe Illustrator 27.2.0, SVG Export Plug-In . SVG Version: 6.00 Build 0)  -->
<svg version="1.1" id="Capa_1" xmlns="http://www.w3.org/2000/svg" xmlns:xlink="http://www.w3.org/1999/xlink" x="0px" y="0px"
	 viewBox="0 0 489.575 489.575" style="enable-background:new 0 0 489.575 489.575;" xml:space="preserve">
<g>
	<g>
		
			<rect x="2.749" y="154.787" transform="matrix(0.7071 -0.7071 0.7071 0.7071 -101.3941 244.7873)" style="fill:#B1D952;" width="484.077" height="180"/>
	</g>
	<g>
		<path style="fill:#91B706;" d="M238.417,378.437l-101.14,101.14L9.997,352.297l148.81-148.81
			C152.702,273.358,180.349,341.167,238.417,378.437z"/>
	</g>
</g>
<g>
	<g>
		<path style="fill:#FFFFFF;" d="M117.508,382.066c-2.56,0-5.118-0.977-7.071-2.929l-63.64-63.64
			c-3.905-3.905-3.905-10.237,0-14.143c3.906-3.904,10.236-3.904,14.143,0l63.64,63.64
			C130.886,371.199,126.261,382.166,117.508,382.066z"/>
	</g>
	<g>
		<path style="fill:#FFFFFF;" d="M138.721,318.427c-2.56,0-5.118-0.977-7.071-2.929l-42.426-42.427
			c-9.017-9.698,4.414-23.169,14.143-14.142c0,0,42.426,42.427,42.426,42.427C152.101,307.564,147.471,318.525,138.721,318.427z"/>
	</g>
	<g>
		<path style="fill:#FFFFFF;" d="M181.148,276c-2.56,0-5.118-0.977-7.071-2.929l-42.427-42.426
			c-9.016-9.697,4.412-23.17,14.143-14.143c0,0,42.427,42.426,42.427,42.426C194.528,265.137,189.898,276.098,181.148,276z"/>
	</g>
	<g>
		<path style="fill:#FFFFFF;" d="M244.787,254.787c-2.56,0-5.118-0.977-7.071-2.929l-63.64-63.64
			c-3.905-3.905-3.905-10.237,0-14.143c3.906-3.904,10.236-3.904,14.143,0l63.64,63.64
			C258.165,243.92,253.54,254.887,244.787,254.787z"/>
	</g>
	<g>
		<path style="fill:#FFFFFF;" d="M266,191.147c-2.56,0-5.118-0.977-7.071-2.929l-42.426-42.427
			c-9.017-9.698,4.414-23.169,14.143-14.143c0,0,42.426,42.427,42.426,42.427C279.381,180.285,274.751,191.246,266,191.147z"/>
	</g>
	<g>
		<path style="fill:#FFFFFF;" d="M308.427,148.721c-2.56,0-5.118-0.977-7.071-2.929l-42.427-42.426
			c-9.016-9.697,4.412-23.17,14.143-14.142c0,0,42.427,42.426,42.427,42.426C321.807,137.858,317.178,148.819,308.427,148.721z"/>
	</g>
	<g>
		<path style="fill:#FFFFFF;" d="M372.067,127.508c-2.56,0-5.118-0.977-7.071-2.929l-63.64-63.64
			c-3.905-3.905-3.905-10.237,0-14.143c3.906-3.904,10.236-3.904,14.143,0l63.64,63.64
			C385.444,116.64,380.82,127.608,372.067,127.508z"/>
	</g>
	<g>
		<path style="fill:#052A75;" d="M137.28,489.574c-2.56,0-5.118-0.977-7.071-2.929L2.929,359.366
			c-3.905-3.905-3.905-10.237,0-14.143L345.224,2.929c3.906-3.904,10.236-3.904,14.143,0l127.279,127.279
			c3.905,3.905,3.905,10.237,0,14.143L144.351,486.646C142.398,488.598,139.839,489.574,137.28,489.574z M24.143,352.295
			L137.28,465.432l328.152-328.152L352.295,24.143L24.143,352.295z"/>
	</g>
</g>
<g>
</g>
<g>
</g>
<g>
</g>
<g>
</g>
<g>
</g>
<g>
</g>
<g>
</g>
<g>
</g>
<g>
</g>
<g>
</g>
<g>
</g>
<g>
</g>
<g>
</g>
<g>
</g>
<g>
</g>
</svg>
