<?xml version="1.0" encoding="iso-8859-1"?>
<!-- Generator: Adobe Illustrator 28.0.0, SVG Export Plug-In . SVG Version: 6.00 Build 0)  -->
<svg version="1.1" id="Layer_1" xmlns="http://www.w3.org/2000/svg" xmlns:xlink="http://www.w3.org/1999/xlink" x="0px" y="0px"
	 viewBox="0 0 510 510" style="enable-background:new 0 0 510 510;" xml:space="preserve">
<g>
	<g>
		<g>
			<circle style="fill:#FFFFFF;" cx="255" cy="255" r="245"/>
		</g>
		<g>
			<path style="fill:#D3DAFB;" d="M488.158,330.432c-31.8,98.4-124.17,169.57-233.16,169.57c-135.31,0-245-109.69-245-245
				c0-99.88,59.77-185.8,145.49-223.95c-41.5,40.69-67.25,97.39-67.25,160.11c0,123.82,100.39,224.21,224.21,224.21
				C383.648,415.372,447.098,382.182,488.158,330.432z"/>
		</g>
		<g>
			<polygon style="fill:#FD6050;" points="403.763,201.574 308.718,201.574 308.718,106.53 202.223,106.53 202.223,201.574 
				107.179,201.574 107.179,308.069 202.223,308.069 202.223,403.113 308.718,403.113 308.718,308.069 403.763,308.069 			"/>
		</g>
	</g>
	<g>
		<g>
			<path style="fill:#1C2E72;" d="M255,510c-68.113,0-132.149-26.524-180.312-74.688C26.525,387.149,0,323.113,0,255
				S26.525,122.851,74.688,74.688C122.851,26.524,186.887,0,255,0c68.113,0,132.149,26.524,180.313,74.688
				C483.475,122.851,510,186.887,510,255s-26.525,132.149-74.688,180.312C387.149,483.476,323.113,510,255,510z M255,20
				C125.421,20,20,125.421,20,255s105.42,235,235,235s235-105.421,235-235S384.579,20,255,20z"/>
		</g>
		<g>
			<path style="fill:#1C2E72;" d="M308.719,413.113H202.223c-5.523,0-10-4.478-10-10v-85.044h-85.044c-5.523,0-10-4.478-10-10
				V201.574c0-5.522,4.477-10,10-10h85.044V106.53c0-5.522,4.477-10,10-10h106.495c5.522,0,10,4.478,10,10v85.044h85.044
				c5.522,0,10,4.478,10,10v106.495c0,5.522-4.478,10-10,10h-85.044v85.044C318.719,408.636,314.241,413.113,308.719,413.113z
				 M212.223,393.113h86.495v-85.044c0-5.522,4.478-10,10-10h85.044v-86.495h-85.044c-5.522,0-10-4.478-10-10V116.53h-86.495v85.044
				c0,5.522-4.477,10-10,10h-85.044v86.495h85.044c5.523,0,10,4.478,10,10V393.113z"/>
		</g>
	</g>
</g>
<g>
</g>
<g>
</g>
<g>
</g>
<g>
</g>
<g>
</g>
<g>
</g>
<g>
</g>
<g>
</g>
<g>
</g>
<g>
</g>
<g>
</g>
<g>
</g>
<g>
</g>
<g>
</g>
<g>
</g>
</svg>
