<?xml version="1.0" encoding="iso-8859-1"?>
<!-- Generator: Adobe Illustrator 26.5.3, SVG Export Plug-In . SVG Version: 6.00 Build 0)  -->
<svg version="1.1" id="Capa_1" xmlns="http://www.w3.org/2000/svg" xmlns:xlink="http://www.w3.org/1999/xlink" x="0px" y="0px"
	 viewBox="0 0 512 512" style="enable-background:new 0 0 512 512;" xml:space="preserve">
<g>
	<g>
		<g>
			<path style="fill:#BC9AF4;" d="M353.743,366.786c-9.601-44.546-49.216-77.931-96.633-77.931c-18.372,0-35.562,5.03-50.299,13.76
				l-3.326,9.084v49.857l83.632,25.498h50.385C348.154,387.054,355.988,377.199,353.743,366.786z"/>
		</g>
		<g>
			<path style="fill:#6864F7;" d="M206.811,302.615c-23.299,13.803-40.453,36.884-46.334,64.171
				c-2.244,10.413,5.589,20.269,16.241,20.269h110.399C254.404,365.352,226.885,336.454,206.811,302.615z"/>
		</g>
		<g>
			<path style="fill:#D2DCFD;" d="M480.668,208.95h-15.454c-9.225,0-17.401-5.932-20.263-14.702
				c-3.178-9.738-7.087-19.146-11.663-28.158c-4.183-8.237-2.616-18.222,3.917-24.755l10.929-10.929
				c8.331-8.331,8.331-21.837,0-30.168l-36.372-36.372c-8.33-8.331-21.837-8.331-30.168,0l-10.929,10.929
				c-6.533,6.533-16.518,8.1-24.755,3.917c-9.012-4.577-18.42-8.485-28.158-11.663c-8.77-2.862-14.702-11.038-14.702-20.263V31.332
				C303.05,19.551,293.5,10,281.718,10h-51.437c-11.781,0-21.332,9.551-21.332,21.332v15.454c0,9.225-5.932,17.401-14.702,20.263
				c-9.738,3.178-19.146,7.087-28.158,11.663c-8.237,4.183-18.222,2.616-24.755-3.917l-10.929-10.929
				c-8.331-8.331-21.837-8.331-30.168,0l-36.371,36.372c-8.331,8.331-8.331,21.837,0,30.168l10.929,10.929
				c6.533,6.533,8.1,16.518,3.917,24.755c-4.577,9.012-8.485,18.419-11.663,28.158c-2.862,8.77-11.038,14.702-20.263,14.702H31.332
				C19.55,208.95,10,218.5,10,230.281v51.437c0,11.781,9.551,21.332,21.332,21.332h15.454c9.225,0,17.401,5.933,20.263,14.702
				c3.178,9.738,7.087,19.146,11.663,28.158c4.183,8.237,2.616,18.222-3.917,24.755l-10.929,10.929
				c-8.331,8.331-8.331,21.837,0,30.168l36.371,36.371c8.331,8.331,21.837,8.331,30.168,0l10.929-10.929
				c6.533-6.533,16.518-8.1,24.755-3.917c9.012,4.577,18.42,8.485,28.158,11.664c8.77,2.862,14.702,11.038,14.702,20.263v15.454
				c0,11.781,9.551,21.332,21.332,21.332h51.437c11.781,0,21.332-9.551,21.332-21.332v-15.454c0-9.225,5.933-17.401,14.702-20.263
				c9.738-3.178,19.146-7.087,28.158-11.663c8.237-4.183,18.222-2.616,24.755,3.917l10.929,10.929
				c8.331,8.331,21.837,8.331,30.168,0l36.372-36.371c8.33-8.331,8.331-21.837,0-30.168l-10.93-10.929
				c-6.532-6.533-8.1-16.518-3.916-24.755c4.577-9.012,8.485-18.42,11.663-28.158c2.862-8.77,11.038-14.702,20.263-14.702h15.454
				c11.781,0,21.332-9.551,21.332-21.332v-51.437C502,218.5,492.449,208.95,480.668,208.95z M256,384.31
				c-70.863,0-128.31-57.446-128.31-128.31c0-70.863,57.446-128.31,128.31-128.31S384.31,185.137,384.31,256
				C384.31,326.864,326.863,384.31,256,384.31z"/>
		</g>
		<g>
			<path style="fill:#93B2F4;" d="M279.869,382.084c-7.735,1.456-15.712,2.226-23.87,2.226c-70.863,0-128.31-57.446-128.31-128.31
				c0-38.13,16.639-72.369,43.044-95.871c1.217-32.579,8.409-63.628,20.533-92.076c-8.679,2.986-17.089,6.551-25.178,10.659
				c-8.237,4.183-18.222,2.616-24.755-3.917l-10.929-10.929c-8.331-8.331-21.837-8.331-30.168,0l-36.371,36.372
				c-8.331,8.331-8.331,21.837,0,30.168l10.929,10.929c6.533,6.532,8.1,16.518,3.917,24.755
				c-4.577,9.011-8.485,18.419-11.663,28.158c-2.862,8.77-11.038,14.702-20.263,14.702H31.332C19.55,208.95,10,218.5,10,230.281
				v51.437c0,11.781,9.551,21.332,21.332,21.332h15.454c9.225,0,17.401,5.933,20.263,14.702c3.178,9.738,7.087,19.146,11.663,28.158
				c4.183,8.237,2.616,18.222-3.917,24.755l-10.929,10.929c-8.331,8.331-8.331,21.837,0,30.168l36.371,36.371
				c8.331,8.331,21.837,8.331,30.168,0l10.929-10.929c6.533-6.532,16.518-8.1,24.755-3.917c9.012,4.577,18.42,8.485,28.158,11.664
				c8.77,2.862,14.702,11.038,14.702,20.263v15.454c0,11.781,9.551,21.332,21.332,21.332h51.437
				c11.781,0,21.332-9.551,21.332-21.332v-15.454c0-9.225,5.933-17.401,14.702-20.263c9.738-3.178,19.146-7.087,28.158-11.663
				c8.237-4.183,18.222-2.616,24.755,3.917l10.929,10.929c8.331,8.331,21.837,8.331,30.168,0l17.848-17.848
				C373.8,430.033,322.138,412.224,279.869,382.084z"/>
		</g>
		<g>
			<circle style="fill:#F7B073;" cx="257.11" cy="252.646" r="50.748"/>
		</g>
	</g>
	<g>
		<path style="fill:#052A75;" d="M256,117.69c-76.264,0-138.31,62.045-138.31,138.31S179.736,394.31,256,394.31
			S394.31,332.264,394.31,256S332.264,117.69,256,117.69z M256,374.31c-65.236,0-118.31-53.073-118.31-118.31
			S190.764,137.69,256,137.69S374.31,190.764,374.31,256S321.236,374.31,256,374.31z"/>
		<path style="fill:#052A75;" d="M480.668,198.95h-15.454c-4.91,0-9.233-3.136-10.756-7.805
			c-3.306-10.131-7.429-20.084-12.253-29.583c-2.233-4.396-1.4-9.684,2.072-13.156l10.929-10.929
			c5.918-5.918,9.178-13.786,9.178-22.155c0-8.369-3.259-16.237-9.178-22.155l-36.371-36.371c-12.216-12.216-32.094-12.217-44.31,0
			l-10.93,10.93c-3.472,3.472-8.759,4.305-13.155,2.071c-9.503-4.825-19.456-8.948-29.583-12.253
			c-4.668-1.523-7.805-5.846-7.805-10.756V31.332C313.05,14.056,298.995,0,281.718,0h-51.437c-17.276,0-31.332,14.056-31.332,31.332
			v15.454c0,4.91-3.137,9.232-7.805,10.756c-10.13,3.306-20.083,7.429-29.583,12.253c-4.399,2.232-9.684,1.4-13.155-2.072
			l-10.929-10.929c-12.217-12.216-32.094-12.216-44.311,0L56.795,93.167c-5.918,5.918-9.178,13.786-9.178,22.155
			c0,8.369,3.259,16.237,9.177,22.154l10.93,10.93c3.472,3.472,4.304,8.758,2.071,13.155c-4.825,9.5-8.947,19.453-12.253,29.583
			c-1.524,4.668-5.847,7.805-10.757,7.805H31.332C14.056,198.95,0,213.005,0,230.281v51.438c0,17.276,14.056,31.332,31.332,31.332
			h15.454c4.91,0,9.233,3.137,10.757,7.805c3.306,10.129,7.428,20.083,12.253,29.583c2.233,4.396,1.401,9.683-2.072,13.155
			l-10.929,10.929c-5.918,5.918-9.178,13.786-9.178,22.155s3.259,16.237,9.178,22.155l36.371,36.371
			c5.918,5.918,13.786,9.178,22.155,9.178c8.369,0,16.237-3.259,22.155-9.177l10.93-10.93c3.472-3.472,8.759-4.305,13.155-2.071
			c9.502,4.826,19.455,8.948,29.584,12.254c4.668,1.523,7.804,5.846,7.804,10.756v15.454c0,17.276,14.056,31.332,31.332,31.332
			h51.437c17.276,0,31.332-14.056,31.332-31.332v-15.454c0-4.91,3.137-9.233,7.805-10.757c10.13-3.306,20.083-7.429,29.584-12.253
			c4.395-2.232,9.683-1.401,13.155,2.072l10.929,10.929c5.918,5.918,13.786,9.178,22.155,9.178c8.369,0,16.237-3.259,22.155-9.177
			l36.371-36.372c5.918-5.917,9.177-13.786,9.177-22.155s-3.259-16.237-9.177-22.155l-10.93-10.93
			c-3.472-3.472-4.305-8.758-2.071-13.155c4.825-9.5,8.947-19.453,12.254-29.584c1.523-4.668,5.846-7.805,10.756-7.805h15.454
			c17.276,0,31.332-14.055,31.332-31.332v-51.438C512,213.005,497.944,198.95,480.668,198.95z M492,281.719
			c0,6.248-5.083,11.332-11.332,11.332h-15.454c-13.59,0-25.553,8.681-29.769,21.6c-2.988,9.154-6.713,18.147-11.073,26.732
			c-6.164,12.135-3.848,26.745,5.761,36.354l10.93,10.93c2.14,2.14,3.319,4.986,3.319,8.013s-1.179,5.873-3.319,8.013
			l-36.372,36.372c-2.14,2.14-4.986,3.319-8.013,3.319c-3.026,0-5.872-1.179-8.013-3.32l-10.929-10.929
			c-9.608-9.609-24.217-11.925-36.354-5.762c-8.584,4.36-17.579,8.085-26.733,11.073c-12.919,4.217-21.599,16.18-21.599,29.77
			v15.454c0,6.249-5.083,11.332-11.332,11.332h-51.437c-6.249,0-11.332-5.083-11.332-11.332v-15.454
			c0-13.59-8.68-25.553-21.6-29.769c-9.152-2.987-18.146-6.713-26.732-11.073c-4.53-2.3-9.402-3.419-14.232-3.419
			c-8.111,0-16.1,3.158-22.122,9.181l-10.93,10.93c-2.14,2.14-4.986,3.319-8.013,3.319s-5.873-1.179-8.013-3.32l-36.372-36.371
			c-2.14-2.14-3.319-4.986-3.319-8.013s1.179-5.873,3.32-8.013l10.929-10.929c9.61-9.61,11.925-24.22,5.762-36.354
			c-4.36-8.585-8.085-17.579-11.073-26.732c-4.216-12.92-16.18-21.6-29.77-21.6H31.332c-6.249,0-11.332-5.083-11.332-11.332v-51.438
			c0-6.248,5.083-11.332,11.332-11.332h15.454c13.589,0,25.553-8.68,29.77-21.6c2.988-9.154,6.713-18.148,11.073-26.732
			c6.164-12.136,3.848-26.746-5.761-36.354l-10.93-10.93c-2.14-2.14-3.319-4.986-3.319-8.012c0-3.027,1.179-5.873,3.32-8.013
			l36.371-36.371c4.418-4.419,11.608-4.418,16.026,0l10.929,10.929c9.61,9.61,24.219,11.926,36.354,5.762
			c8.584-4.359,17.578-8.085,26.732-11.073c12.919-4.216,21.6-16.18,21.6-29.769V31.332c0-6.249,5.083-11.332,11.332-11.332h51.437
			c6.249,0,11.332,5.083,11.332,11.332v15.454c0,13.59,8.68,25.553,21.6,29.769c9.151,2.987,18.146,6.712,26.732,11.073
			c12.135,6.163,26.745,3.848,36.354-5.761l10.93-10.929c4.419-4.419,11.607-4.418,16.025,0l36.372,36.372
			c2.14,2.14,3.319,4.986,3.319,8.013c0,3.026-1.179,5.872-3.32,8.013l-10.929,10.929c-9.609,9.609-11.925,24.219-5.762,36.354
			c4.36,8.584,8.085,17.578,11.072,26.732c4.216,12.919,16.18,21.6,29.77,21.6h15.454c6.249,0,11.332,5.083,11.332,11.332V281.719z"
			/>
	</g>
</g>
<g>
</g>
<g>
</g>
<g>
</g>
<g>
</g>
<g>
</g>
<g>
</g>
<g>
</g>
<g>
</g>
<g>
</g>
<g>
</g>
<g>
</g>
<g>
</g>
<g>
</g>
<g>
</g>
<g>
</g>
</svg>
