<?xml version="1.0" encoding="iso-8859-1"?>
<!-- Generator: Adobe Illustrator 27.0.0, SVG Export Plug-In . SVG Version: 6.00 Build 0)  -->
<svg version="1.1" id="Capa_1" xmlns="http://www.w3.org/2000/svg" xmlns:xlink="http://www.w3.org/1999/xlink" x="0px" y="0px"
	 viewBox="0 0 512.092 512.092" style="enable-background:new 0 0 512.092 512.092;" xml:space="preserve">
<g>
	<g>
		<path style="fill-rule:evenodd;clip-rule:evenodd;fill:#B1D952;" d="M198.95,120.449h114.192
			c44.077-44.057,15.061-89.112,15.061-89.112C268.428,47.346,266.091,10,192.592,10C173.031,43.865,171.873,93.384,198.95,120.449z
			"/>
		<path style="fill-rule:evenodd;clip-rule:evenodd;fill:#FFFFFF;" d="M313.142,120.449H198.95
			c-12.432,0-22.602,10.166-22.602,22.591c0,12.426,10.172,22.592,22.602,22.592h114.192c12.429,0,22.602-10.166,22.602-22.592
			C335.744,130.615,325.573,120.449,313.142,120.449z"/>
		<path style="fill-rule:evenodd;clip-rule:evenodd;fill:#B1D952;" d="M313.142,165.633H198.95
			c-73.059,46.244-129.653,175.4-100.436,268.072C78.62,449.177,69.851,471.55,78.84,487.113
			c10.269,17.78,39.826,19.94,66.017,4.825c2.643-1.525,5.149-3.17,7.512-4.91c28.407,9.846,64.449,10.201,103.678,10.201
			c39.229,0,75.271-0.355,103.678-10.201c2.363,1.74,4.868,3.385,7.511,4.91c26.19,15.114,55.747,12.954,66.017-4.825
			c8.99-15.563,0.22-37.936-19.674-53.409C442.795,341.033,386.201,211.876,313.142,165.633z"/>
		<path style="fill-rule:evenodd;clip-rule:evenodd;fill:#91B706;" d="M269.194,497.202
			c-47.534-58.141-76.048-132.436-76.048-213.392c0-41.578,7.521-81.399,21.278-118.178H198.95
			c-73.059,46.244-129.653,175.4-100.436,268.072C78.62,449.177,69.851,471.55,78.84,487.113
			c10.269,17.78,39.826,19.94,66.017,4.825c2.643-1.525,5.149-3.17,7.512-4.91c28.407,9.846,64.449,10.201,103.678,10.201
			C260.471,497.229,264.855,497.224,269.194,497.202z"/>
	</g>
	<g>
		<path style="fill:#052A75;" d="M425.006,430.262c12.093-44.521,7.2-98.07-13.992-151.681
			c-18.152-45.916-45.72-85.135-77.164-110.386c7.259-5.983,11.894-15.038,11.894-25.155c0-11.548-6.039-21.712-15.126-27.503
			c16.025-21.527,18.063-42.466,16.53-57.201c-1.969-18.927-10.189-31.873-10.538-32.415c-2.353-3.653-6.797-5.369-10.994-4.245
			c-28.599,7.661-41.655,2.041-59.726-5.737C249.394,8.838,228.861,0,192.592,0c-3.572,0-6.873,1.905-8.659,4.999
			c-10.804,18.705-16.36,41.114-15.646,63.101c0.578,17.776,5.366,34.01,13.728,47.1c-9.387,5.728-15.667,16.065-15.667,27.841
			c0,10.118,4.635,19.173,11.895,25.156c-31.444,25.251-59.012,64.469-77.164,110.386c-21.192,53.61-26.085,107.16-13.992,151.68
			c-20.546,18.729-27.547,43.429-16.905,61.853c13.231,22.906,48.229,26.633,79.676,8.484c1.394-0.804,2.771-1.649,4.125-2.53
			c27.72,8.472,60.097,9.16,102.064,9.16s74.345-0.688,102.064-9.16c1.354,0.881,2.732,1.726,4.127,2.53
			c13.396,7.731,27.436,11.493,40.164,11.492c17.148-0.001,31.916-6.83,39.51-19.977
			C452.553,473.691,445.552,448.991,425.006,430.262z M199.068,155.633c-0.055-0.001-0.111-0.001-0.167-0.001
			c-6.927-0.027-12.553-5.665-12.553-12.592c0-6.943,5.653-12.592,12.603-12.592h114.191c6.949,0,12.603,5.648,12.603,12.592
			c0,6.938-5.644,12.583-12.585,12.592c-0.033,0-0.066,0-0.098,0H199.068z M198.531,20.089c28.438,0.871,44.856,7.938,59.452,14.221
			c17.787,7.657,34.665,14.919,64.873,8.586c5,11.975,11.812,39.491-13.976,67.553h-21.876c4.145-9.484,7.626-20.808,10.236-33.39
			c1.121-5.408-2.354-10.701-7.761-11.822c-5.405-1.119-10.701,2.352-11.823,7.761c-3.178,15.322-7.661,28.248-12.984,37.452
			h-17.253c-5.323-9.204-9.806-22.13-12.984-37.452c-1.123-5.409-6.42-8.882-11.823-7.761c-5.407,1.122-8.882,6.415-7.761,11.822
			c2.61,12.582,6.091,23.906,10.236,33.39h-21.785C183.082,86.969,184.759,47.975,198.531,20.089z M424.593,482.111
			c-7.37,12.759-31.347,13.291-52.359,1.166c-2.268-1.309-4.481-2.755-6.58-4.301c-2.65-1.952-6.093-2.476-9.204-1.396
			c-25.845,8.957-57.917,9.649-100.403,9.649s-74.559-0.692-100.403-9.649c-3.113-1.081-6.555-0.556-9.204,1.396
			c-2.098,1.545-4.312,2.992-6.579,4.301c-21.013,12.126-44.99,11.592-52.36-1.166c-6.174-10.689,1.201-28.106,17.154-40.514
			c3.299-2.566,4.654-6.914,3.397-10.9c-28.15-89.289,27.988-211.323,93.857-255.064h23.18c-4.145,9.485-7.626,20.809-10.236,33.39
			c-1.121,5.408,2.354,10.701,7.761,11.822c0.686,0.142,1.368,0.21,2.041,0.21c4.641,0,8.803-3.249,9.782-7.971
			c3.178-15.321,7.661-28.247,12.984-37.452h17.252c5.324,9.204,9.807,22.131,12.984,37.452c0.98,4.723,5.141,7.971,9.782,7.971
			c0.673,0,1.355-0.068,2.041-0.21c5.407-1.122,8.882-6.415,7.761-11.822c-2.61-12.582-6.091-23.905-10.236-33.39h23.18
			c65.868,43.741,122.007,165.774,93.857,255.064c-1.257,3.986,0.099,8.334,3.397,10.9
			C423.392,454.006,430.767,471.423,424.593,482.111z"/>
		<path style="fill:#FFFFFF;" d="M265.284,326.818l-10.822-4.482c-5.093-2.11-7.521-7.97-5.41-13.064
			c1.014-2.447,2.938-4.361,5.42-5.389s5.196-1.035,7.644-0.022l5.411,2.241c5.102,2.116,10.951-0.31,13.065-5.412
			c2.113-5.103-0.311-10.952-5.413-13.065l-5.411-2.241c-1.222-0.506-2.465-0.928-3.722-1.266v-5.526c0-5.523-4.478-10-10-10
			s-10,4.477-10,10v7.147c-7.045,3.145-12.522,8.756-15.473,15.881c-6.329,15.281,0.953,32.864,16.235,39.194l10.822,4.482
			c5.093,2.11,7.521,7.97,5.41,13.064c-1.014,2.447-2.938,4.361-5.419,5.389c-2.483,1.028-5.198,1.035-7.645,0.022l-5.411-2.241
			c-5.099-2.113-10.95,0.31-13.065,5.412c-2.113,5.103,0.311,10.952,5.413,13.065l5.411,2.241c1.221,0.506,2.464,0.928,3.721,1.266
			v5.527c0,5.523,4.478,10,10,10s10-4.477,10-10v-7.146c7.046-3.145,12.523-8.756,15.474-15.882
			C287.849,350.732,280.566,333.149,265.284,326.818z"/>
	</g>
</g>
<g>
</g>
<g>
</g>
<g>
</g>
<g>
</g>
<g>
</g>
<g>
</g>
<g>
</g>
<g>
</g>
<g>
</g>
<g>
</g>
<g>
</g>
<g>
</g>
<g>
</g>
<g>
</g>
<g>
</g>
</svg>
