<?xml version="1.0" encoding="iso-8859-1"?>
<!-- Generator: Adobe Illustrator 27.5.0, SVG Export Plug-In . SVG Version: 6.00 Build 0)  -->
<svg version="1.1" id="Layer_1" xmlns="http://www.w3.org/2000/svg" xmlns:xlink="http://www.w3.org/1999/xlink" x="0px" y="0px"
	 viewBox="0 0 510 510" style="enable-background:new 0 0 510 510;" xml:space="preserve">
<g>
	<g>
		<rect x="133.008" y="10" style="fill:#FFFFFF;" width="243.985" height="215.708"/>
		<path style="fill:#D2DCFD;" d="M244.843,112.854c0-39.649,15.155-75.755,39.983-102.854H133.008v215.708h161.864
			C264.143,197.843,244.843,157.603,244.843,112.854z"/>
		<g>
			<g>
				<g>
					<g>
						<g>
							<g>
								<path style="fill:#FDBEB9;" d="M343.081,319.962L343.081,319.962c23.608-17.485,45.89-36.692,66.663-57.465l27.769-27.769
									c11.683-11.683,30.624-11.683,42.411,0.104l0,0c11.671,11.671,11.666,30.596-0.011,42.261l-98.282,98.174
									c-26.445,26.418-62.297,41.257-99.677,41.257l-60.682,0c-17.516,0-34.315,6.958-46.701,19.344l-27.13,27.13l-94.362-94.362
									c0,0,65.358-65.522,71.071-71.269c17.602-17.704,41.541-27.659,66.625-27.659h0c15.381,0,30.433,4.235,43.68,12.052
									c12.587,7.427,27.035,11.409,41.652,11.408c10.919,0,24.219-0.001,36.079-0.003c17.064-0.002,30.892,13.83,30.892,31.045v0
									c0,16.984-13.77,30.752-30.755,30.75l-68.822-0.011"/>
								<g>
									<path style="fill:#FD7DA0;" d="M187.962,296.061c0-8.987,0.787-17.79,2.285-26.347
										c-24.89,0.14-48.616,10.073-66.094,27.653c-5.714,5.747-71.072,71.269-71.072,71.269l94.362,94.362l27.13-27.13
										c12.386-12.386,29.185-19.344,46.701-19.344h26.152C211.275,388.785,187.962,345.149,187.962,296.061z"/>
								</g>
								
									<rect x="22.998" y="381.985" transform="matrix(0.7071 0.7071 -0.7071 0.7071 325.7236 49.1011)" style="fill:#B1D952;" width="161.186" height="71.498"/>
							</g>
						</g>
					</g>
				</g>
			</g>
		</g>
		<g>
			<path style="fill:#DB4B86;" d="M283.987,110.65l-49.656-28.669c-5.546-3.202-12.478,0.8-12.478,7.204v57.338
				c0,6.404,6.932,10.406,12.478,7.204l49.656-28.669C289.533,121.856,289.533,113.852,283.987,110.65z"/>
		</g>
	</g>
	<g>
		<g>
			<g>
				<path style="fill:#93B2F4;" d="M332.992,189.281c-5.522,0-10-4.477-10-10v-10c0-5.523,4.478-10,10-10s10,4.477,10,10v10
					C342.992,184.804,338.515,189.281,332.992,189.281z"/>
			</g>
		</g>
		<g>
			<g>
				<path style="fill:#93B2F4;" d="M332.992,132.854c-5.522,0-10-4.477-10-10v-10c0-5.523,4.478-10,10-10s10,4.477,10,10v10
					C342.992,128.377,338.515,132.854,332.992,132.854z"/>
			</g>
		</g>
		<g>
			<g>
				<path style="fill:#93B2F4;" d="M332.992,76.427c-5.522,0-10-4.477-10-10v-10c0-5.523,4.478-10,10-10s10,4.477,10,10v10
					C342.992,71.95,338.515,76.427,332.992,76.427z"/>
			</g>
		</g>
		<g>
			<g>
				<path style="fill:#93B2F4;" d="M177.008,76.427c-5.522,0-10-4.477-10-10v-10c0-5.523,4.478-10,10-10s10,4.477,10,10v10
					C187.008,71.95,182.53,76.427,177.008,76.427z"/>
			</g>
		</g>
		<g>
			<g>
				<path style="fill:#93B2F4;" d="M177.008,132.854c-5.522,0-10-4.477-10-10v-10c0-5.523,4.478-10,10-10s10,4.477,10,10v10
					C187.008,128.377,182.53,132.854,177.008,132.854z"/>
			</g>
		</g>
		<g>
			<g>
				<path style="fill:#93B2F4;" d="M177.008,189.281c-5.522,0-10-4.477-10-10v-10c0-5.523,4.478-10,10-10s10,4.477,10,10v10
					C187.008,184.804,182.53,189.281,177.008,189.281z"/>
			</g>
		</g>
		<g>
			<path style="fill:#052A75;" d="M486.996,227.76c-15.618-15.619-40.99-15.667-56.555-0.104l-27.769,27.769
				c-17.223,17.223-35.668,33.466-54.945,48.439c-1.789-3.142-3.995-6.068-6.611-8.693c-7.717-7.743-17.987-12.007-28.924-12.007
				c-0.002,0-0.005,0-0.006,0l-36.078,0.003c-12.815,0-25.461-3.464-36.57-10.021c-14.899-8.792-31.762-13.439-48.762-13.439
				c-27.912,0-54.092,10.87-73.717,30.609c-2.876,2.893-20.876,20.943-38.037,38.15l-0.07-0.07
				c-1.876-1.875-4.419-2.929-7.071-2.929s-5.196,1.054-7.071,2.929l-50.557,50.557c-3.905,3.905-3.905,10.237,0,14.143
				L128.23,507.071c1.876,1.875,4.419,2.929,7.071,2.929s5.195-1.054,7.071-2.929l50.557-50.557c3.905-3.905,3.905-10.237,0-14.143
				l-4.921-4.921c9.578-7.093,21.126-10.927,33.265-10.927h60.682c40.314,0,78.224-15.692,106.744-44.183l98.282-98.174
				c7.538-7.531,11.69-17.546,11.693-28.201S494.53,235.295,486.996,227.76z M135.301,485.858l-99.833-99.834l36.414-36.415
				l99.833,99.834L135.301,485.858z M472.847,270.018l-98.282,98.174c-24.744,24.719-57.633,38.332-92.609,38.333h-60.682
				c-17.491,0-34.072,5.879-47.514,16.679l-80.594-80.594c17.177-17.222,35.199-35.295,38.079-38.191
				c15.843-15.935,36.985-24.71,59.533-24.71c13.428,0,26.774,3.688,38.598,10.664c14.187,8.372,30.347,12.796,46.734,12.796
				l36.08-0.003c5.582-0.001,10.824,2.174,14.761,6.125c3.953,3.967,6.131,9.266,6.131,14.92c0,5.543-2.159,10.754-6.079,14.673
				c-3.919,3.918-9.128,6.076-14.67,6.076c-0.001,0-0.003,0-0.004,0l-68.822-0.011c-0.001,0-0.001,0-0.002,0
				c-5.521,0-9.999,4.476-10,9.999s4.476,10,9.998,10.001l68.822,0.011c0.003,0,0.005,0,0.008,0
				c10.883,0,21.115-4.238,28.812-11.933c7.522-7.521,11.73-17.465,11.919-28.071c22.45-16.923,43.887-35.523,63.752-55.387
				l27.769-27.769c7.766-7.766,20.447-7.719,28.27,0.104c3.755,3.755,5.822,8.749,5.821,14.06S476.604,266.265,472.847,270.018z"/>
			<path style="fill:#052A75;" d="M133.008,235.708h243.984c5.522,0,10-4.477,10-10V10c0-5.523-4.478-10-10-10H133.008
				c-5.522,0-10,4.477-10,10v215.708C123.008,231.23,127.485,235.708,133.008,235.708z M143.008,20h223.984v195.708H143.008V20z"/>
		</g>
	</g>
</g>
<g>
</g>
<g>
</g>
<g>
</g>
<g>
</g>
<g>
</g>
<g>
</g>
<g>
</g>
<g>
</g>
<g>
</g>
<g>
</g>
<g>
</g>
<g>
</g>
<g>
</g>
<g>
</g>
<g>
</g>
</svg>
