<?xml version="1.0" encoding="iso-8859-1"?>
<!-- Generator: Adobe Illustrator 27.0.0, SVG Export Plug-In . SVG Version: 6.00 Build 0)  -->
<svg version="1.1" id="Capa_1" xmlns="http://www.w3.org/2000/svg" xmlns:xlink="http://www.w3.org/1999/xlink" x="0px" y="0px"
	 viewBox="0 0 512 512" style="enable-background:new 0 0 512 512;" xml:space="preserve">
<g>
	<g>
		<path style="fill:#93B2F4;" d="M280.5,277.188l6.234,24.642c1.671,6.605,4.618,12.602,8.533,17.689l1.979,1.925
			c8.557,8.326,19.416,13.894,31.171,15.984l7.066,1.256l26.303,5.087c17.576,3.399,31.506,17.803,35.29,36.489l9.088,44.879
			L421.727,502l-354.926-0.001l16.264-80.321l8.387-41.417c3.784-18.687,17.714-33.09,35.29-36.489l26.561-5.137l6.328-1.066
			c12.878-2.17,24.689-8.506,33.62-18.035l0,0c3.921-5.091,6.871-11.093,8.544-17.703l6.528-25.804L280.5,277.188z"/>
		<path style="fill:#FDBEB9;" d="M302.912,326.296l-18.786,24.469c-19.931,25.925-59.1,25.674-78.7-0.502l-18.616-24.801
			c14.733-9.563,17.047-34.044,21.507-49.441l72.184,1.165C284.917,293.06,287.446,317.008,302.912,326.296z"/>
		<path style="fill:#FD7DA0;" d="M290.251,307.791c-14.318,6.125-29.912,9.348-45.485,9.348c-15.905,0-31.819-3.354-46.399-9.75
			c4.729-10.653,6.918-23.054,9.589-33.647l72.906,1.175C283.664,285.861,285.682,297.649,290.251,307.791z"/>
		<path style="fill:#B55348;" d="M323.776,79.793h56.673c19.933,0,36.091,16.165,36.091,36.106v87.05
			c0,13.81,5.484,27.055,15.245,36.82l13.414,13.42l-11.9,11.904c-11.646,11.651-27.441,18.196-43.911,18.196h-19.334
			c-26.397,0-47.796-21.408-47.796-47.815L323.776,79.793z"/>
		<path style="fill:#D46B5C;" d="M129.475,152.812v-36.61C129.475,57.791,177.265,10,235.676,10h16.691
			c58.411,0,106.201,47.791,106.201,106.201v35.854L129.475,152.812z"/>
		<path style="fill:#FDBEB9;" d="M340.798,149.585c19.2,0,34.764,15.571,34.764,34.778v0c0,19.207-15.564,34.778-34.764,34.778
			H147.585c-19.2,0-34.764-15.571-34.764-34.778v0c0-19.207,15.564-34.778,34.764-34.778H340.798z"/>
		<path style="fill:#FDBEB9;" d="M163.94,149.585l3.435-0.819c19.679-4.692,36.39-17.627,45.87-35.506l0,0l0,0
			c30.434,19.863,65.234,32.036,101.41,35.472l8.978,0.853l0.143,53.799c0,44.13-35.76,79.904-79.872,79.904h0
			c-44.112,0-79.872-35.774-79.872-79.904L163.94,149.585z"/>
		<circle style="fill:#D2DCFD;" cx="336.194" cy="421.958" r="22.333"/>
	</g>
	<g>
		<g>
			<path style="fill:#6864F7;" d="M336.194,331.263c-5.522,0-10,4.235-10,9.46v56.283c0,5.225,4.478,9.46,10,9.46s10-4.235,10-9.46
				v-56.283C346.194,335.498,341.717,331.263,336.194,331.263z"/>
			<path style="fill:#6864F7;" d="M166.736,376.604v-36.476c0.189-12.978-20.191-12.972-20,0v36.334
				c-12.887,4.147-22.241,16.247-22.241,30.495v47.43c0,5.523,4.478,10,10,10s10-4.477,10-10v-47.43
				c0-6.634,5.397-12.031,12.031-12.031s12.03,5.397,12.03,12.031v47.43c0,5.523,4.478,10,10,10s10-4.477,10-10v-47.43
				C188.557,392.864,179.405,380.877,166.736,376.604z"/>
		</g>
		<path style="fill:#FFFFFF;" d="M307.457,320.099c-4.376-3.365-9.657-3.545-13.022,0.835l-18.241,23.734
			c-7.523,9.789-18.891,15.387-31.223,15.387c-0.086,0-0.172,0-0.258,0c-12.432-0.079-23.834-5.832-31.283-15.783l-18.061-24.126
			c-3.312-4.422-8.577-4.322-12.999-1.013c-4.421,3.31-6.322,8.577-3.013,12.998l18.062,24.126
			c9.26,12.37,22.575,20.422,37.465,22.941v122.381c0,5.523,4.478,8,10,8s10-2.477,10-8V379.232
			c14.687-2.443,27.875-10.285,37.167-22.376l18.241-23.734C313.657,328.743,311.836,323.464,307.457,320.099z"/>
		<g>
			<path style="fill:#052A75;" d="M336.194,454.291c17.828,0,32.333-14.504,32.333-32.333c0-17.828-14.505-32.333-32.333-32.333
				s-32.333,14.504-32.333,32.333C303.861,439.787,318.366,454.291,336.194,454.291z M336.194,409.625
				c6.801,0,12.333,5.532,12.333,12.333s-5.532,12.333-12.333,12.333s-12.333-5.533-12.333-12.333S329.394,409.625,336.194,409.625z
				"/>
			<path style="fill:#052A75;" d="M452.272,246.119l-13.414-13.42c-7.943-7.946-12.317-18.511-12.317-29.75v-87.05
				c0-25.423-20.677-46.106-46.092-46.106h-21.561C340.937,28.752,299.95,0,252.366,0h-16.69
				c-64.073,0-116.201,52.128-116.201,116.202v33.349c-10.149,8.216-16.653,20.766-16.653,34.813
				c0,24.69,20.081,44.777,44.764,44.777h10.212c6.403,21.382,20.56,39.442,39.195,50.897l-4.892,19.34
				c-1.276,5.042-3.456,9.64-6.482,13.674c-7.354,7.689-17.153,12.887-27.649,14.656c-4.234,0.576-28.395,5.347-33.125,6.246
				c-21.634,4.184-38.588,21.581-43.192,44.323L57,500.015c-0.596,2.94,0.16,5.993,2.06,8.315s4.741,3.669,7.741,3.669L421.727,512
				c3,0,5.842-1.347,7.741-3.669s2.655-5.375,2.06-8.315l-24.651-121.739c-4.604-22.741-21.558-40.139-43.192-44.323
				c-5.353-1.027-28.642-5.593-33.518-6.371c-9.823-1.746-18.796-6.347-25.946-13.304c-4.064-3.946-6.26-9.388-7.792-14.901
				l-4.991-19.729c9.661-6.048,18.096-13.88,24.841-23.034c8.457,21.449,29.366,36.673,53.776,36.673h19.334
				c19.259,0,37.365-7.503,50.983-21.126l11.899-11.904C456.175,256.353,456.175,250.023,452.272,246.119z M333.66,159.585h7.138
				c13.654,0,24.764,11.115,24.764,24.778c0,13.662-11.109,24.777-24.764,24.777h-7.212c0.122-1.913,0.191-3.84,0.191-5.783
				L333.66,159.585z M139.475,116.202C139.475,63.156,182.63,20,235.676,20h16.69c53.046,0,96.202,43.156,96.202,96.202v24.073
				c-2.526-0.444-5.119-0.689-7.771-0.689h-16.692l-8.507-0.808c-34.425-3.27-67.928-14.989-96.889-33.891
				c-2.353-1.536-5.244-2.011-7.964-1.309c-2.721,0.702-5.021,2.516-6.337,4.999c-8.516,16.092-24.066,27.643-41.952,31.01h-14.873
				c-2.77,0-5.478,0.266-8.11,0.75V116.202z M147.585,209.141c-13.654,0-24.764-11.115-24.764-24.778
				c0-13.662,11.109-24.777,24.764-24.777h6.372l0.076,43.799c0,1.934,0.069,3.852,0.189,5.756H147.585z M277.039,304.283
				c2.455,9.08,6.431,17.868,13.232,24.33c10.031,9.759,22.616,16.212,36.395,18.662c4.567,0.722,28.18,5.348,33.221,6.315
				c13.647,2.64,24.397,13.887,27.388,28.656L409.499,492l-330.471-0.001l22.224-109.753c2.991-14.769,13.741-26.017,27.388-28.656
				c4.597-0.873,28.59-5.61,32.652-6.16c14.948-2.519,28.889-9.998,39.254-21.057c5.249-6.41,8.846-13.932,10.942-22.09
				l3.951-15.619c8.949,2.997,18.521,4.625,28.465,4.625c10.19,0,19.988-1.709,29.127-4.849L277.039,304.283z M243.904,273.288
				c-38.527,0-69.872-31.359-69.872-69.921l-0.079-46.013c17.194-5.111,32.141-15.821,42.506-30.324
				c29.58,17.496,62.972,28.395,97.198,31.653l0.119,44.702C313.776,241.929,282.432,273.288,243.904,273.288z M426.228,258.022
				c-9.841,9.844-22.924,15.266-36.839,15.266h-19.334c-20.841,0-37.796-16.964-37.796-37.815v-6.333h8.539
				c24.683,0,44.764-20.087,44.764-44.778c0-14.202-6.652-26.871-16.993-35.08v-33.081c0-9.081-1.049-17.922-3.029-26.409h14.909
				c14.387,0,26.092,11.711,26.092,26.106v87.05c0,16.58,6.454,32.167,18.173,43.889l6.348,6.351L426.228,258.022z"/>
		</g>
	</g>
</g>
<g>
</g>
<g>
</g>
<g>
</g>
<g>
</g>
<g>
</g>
<g>
</g>
<g>
</g>
<g>
</g>
<g>
</g>
<g>
</g>
<g>
</g>
<g>
</g>
<g>
</g>
<g>
</g>
<g>
</g>
</svg>
