<?xml version="1.0" encoding="iso-8859-1"?>
<!-- Generator: Adobe Illustrator 27.2.0, SVG Export Plug-In . SVG Version: 6.00 Build 0)  -->
<svg version="1.1" id="Capa_1" xmlns="http://www.w3.org/2000/svg" xmlns:xlink="http://www.w3.org/1999/xlink" x="0px" y="0px"
	 viewBox="0 0 510.002 510.002" style="enable-background:new 0 0 510.002 510.002;" xml:space="preserve">
<g>
	<g>
		<g>
			<g>
				<polygon style="fill-rule:evenodd;clip-rule:evenodd;fill:#F5AE74;" points="296.549,474.148 255.001,498.142 44.435,376.573 
					44.435,133.432 255.001,11.863 465.567,133.432 465.567,372.087 				"/>
			</g>
			<g>
				<polygon style="fill-rule:evenodd;clip-rule:evenodd;fill:#FDE0BE;" points="44.435,133.432 255.001,11.863 465.567,133.432 
					255.001,255.001 131.282,275.457 				"/>
			</g>
			<g>
				<polygon style="fill-rule:evenodd;clip-rule:evenodd;fill:#D46B5C;" points="255.001,497.883 44.435,376.573 44.435,133.432 
					255.001,255.001 				"/>
			</g>
		</g>
		<g>
			<polygon style="fill-rule:evenodd;clip-rule:evenodd;fill:#FFFFFF;" points="108.161,94.818 320.32,217.29 320.32,305.997 
				363.049,254.208 397.097,261.67 397.097,172.963 184.813,50.477 			"/>
		</g>
		<g>
			<polygon style="fill-rule:evenodd;clip-rule:evenodd;fill:#D0DAFB;" points="320.32,217.29 320.32,305.997 363.049,254.208 
				397.097,261.67 397.097,172.963 			"/>
		</g>
	</g>
	<g>
		<g>
			<path style="fill:#FFFFFF;" d="M127.007,386.315c-1.697,0-3.416-0.432-4.991-1.341l-45.458-26.245
				c-4.783-2.761-6.422-8.877-3.66-13.66c2.762-4.783,8.877-6.421,13.66-3.66l45.458,26.245c4.783,2.761,6.422,8.877,3.66,13.66
				C133.824,384.522,130.463,386.315,127.007,386.315z"/>
		</g>
		<g>
			<path style="fill:#FFFFFF;" d="M106.549,329.687c-1.697,0-3.416-0.432-4.991-1.341l-24.999-14.433
				c-4.783-2.761-6.422-8.877-3.66-13.66s8.877-6.42,13.66-3.66l24.999,14.433c4.783,2.761,6.422,8.877,3.66,13.66
				C113.366,327.893,110.005,329.687,106.549,329.687z"/>
		</g>
	</g>
</g>
<g>
	<path style="fill:#052A75;" d="M472.181,123.842l-212.18-122.5c-3.09-1.79-6.91-1.79-10,0l-212.18,122.5c-3.09,1.79-5,5.09-5,8.66
		v245c0,3.57,1.91,6.87,5,8.66l212.18,122.5c1.55,0.89,3.27,1.34,5,1.34s3.45-0.45,5-1.34l212.18-122.5c3.09-1.79,5-5.09,5-8.66
		v-245C477.181,128.932,475.271,125.632,472.181,123.842z M255.001,21.552l192.13,110.92l-194.45,111.36l-189.97-111.27
		L255.001,21.552z M457.181,371.732l-202.18,116.72l-202.18-116.72v-221.78l194.75,114.07c1.56,0.91,3.31,1.37,5.06,1.37
		c1.71,0,3.43-0.44,4.97-1.32l199.58-114.31V371.732z"/>
</g>
<g>
</g>
<g>
</g>
<g>
</g>
<g>
</g>
<g>
</g>
<g>
</g>
<g>
</g>
<g>
</g>
<g>
</g>
<g>
</g>
<g>
</g>
<g>
</g>
<g>
</g>
<g>
</g>
<g>
</g>
</svg>
