<?xml version="1.0" encoding="iso-8859-1"?>
<!-- Generator: Adobe Illustrator 27.5.0, SVG Export Plug-In . SVG Version: 6.00 Build 0)  -->
<svg version="1.1" id="Layer_1" xmlns="http://www.w3.org/2000/svg" xmlns:xlink="http://www.w3.org/1999/xlink" x="0px" y="0px"
	 viewBox="0 0 510.018 510.018" style="enable-background:new 0 0 510.018 510.018;" xml:space="preserve">
<g>
	<g>
		<g>
			<path style="fill:#FDE0BE;" d="M365.654,335.733c-61.138-44.634-74.651-130.33-30.215-191.612
				c0.431-0.594,0.865-1.183,1.303-1.768c38.359-51.192,6.695-124.685-56.949-131.121c-20.979-2.122-42.586-1.549-64.402,2.02
				C82.76,34.955-7.928,160.4,13.007,293.155c21.074,133.638,146.492,224.89,280.13,203.817
				c48.465-7.642,91.354-29.008,125.334-59.512c27.9-25.047,18.405-70.567-17-82.909C388.975,350.194,376.9,343.943,365.654,335.733
				z"/>
		</g>
		<g>
			<circle style="fill:#FD7DA0;" cx="108.466" cy="292.525" r="42"/>
		</g>
		<g>
			<path style="fill:#F7B073;" d="M401.472,354.55c-12.497-4.356-24.572-10.607-35.818-18.817
				c-35.547-25.951-54.988-65.784-56.306-106.628l-24.402,35.93c-2.756,4.058-6.943,6.906-11.714,8.047
				c-22.902,5.478-43.631,18.725-58.375,38.218c-33.659,44.499-37.864,104.771-10.714,153.55
				c6.561,11.788,17.852,20.292,30.983,23.389c10.75,2.535,21.597,3.767,32.344,3.766c43.539-0.001,85.425-20.218,112.404-55.887
				c14.744-19.493,21.85-43.045,20.888-66.573c-0.2-4.902,1.4-9.705,4.555-13.462l0,0
				C404.068,355.533,402.794,355.011,401.472,354.55z"/>
		</g>
		<g>
			<circle style="fill:#27A2CC;" cx="262.547" cy="96.997" r="42"/>
		</g>
		<g>
			<circle style="fill:#FD8F01;" cx="140.611" cy="155.354" r="48.89"/>
		</g>
		<g>
			<path style="fill:#BC9AF4;" d="M195.165,347.206c-22.29,4.55-39.06,24.267-39.06,47.901c0,23.312,16.316,42.813,38.152,47.707
				l17.238-44.583L195.165,347.206z"/>
		</g>
		<g>
			<path style="fill:#6864F7;" d="M204.994,346.217c-3.367,0-6.654,0.341-9.829,0.989c-11.359,30.602-11.787,64.463-0.905,95.594
				c3.456,0.775,7.045,1.197,10.734,1.197c27.001,0,48.89-21.889,48.89-48.89C253.884,368.106,231.995,346.217,204.994,346.217z"/>
		</g>
		<g>
			<g id="XMLID_266_">
				<path style="fill:#D46B5C;" d="M305.474,320.243l126.38-186.08c11.992-17.656,36.327-21.666,53.35-8.791l0,0
					c17.022,12.876,19.787,37.384,6.061,53.728L346.607,351.355L305.474,320.243z"/>
			</g>
			<g>
				<polygon style="fill:#FFFFFF;" points="348.213,257.315 305.474,320.242 346.607,351.355 395.527,293.103 				"/>
			</g>
			<g>
				<g>
					<path style="fill:#FDCB50;" d="M246.085,441.506c34.726,8.214,72.598-4.056,95.508-34.344
						c18.475-24.426,13.652-59.204-10.774-77.679c-24.426-18.475-59.204-13.652-77.679,10.774
						C230.229,370.545,228.73,410.327,246.085,441.506"/>
				</g>
			</g>
			<g>
				<path style="fill:#BC9AF4;" d="M241.147,361.318c-10.671,26.228-8.619,55.833,4.938,80.188
					c27.082,6.406,56.076,0.351,78.396-16.991c-3.567-5.106-6.258-10.88-7.846-17.118l0,0
					c-5.212-20.476-23.713-34.761-44.841-34.625l0,0C260.053,372.848,249.318,368.509,241.147,361.318z"/>
			</g>
		</g>
	</g>
	<path style="fill:#052A75;" d="M509.703,149.815c-1.467-13.008-8.025-24.521-18.466-32.418c-10.44-7.897-23.303-11.074-36.22-8.946
		c-12.916,2.128-24.08,9.264-31.436,20.093l-96.006,141.358c-14.863-39.712-8.962-85.484,16.569-120.735
		c20.486-27.388,24.511-62.433,10.763-93.764C341.501,24.852,313.798,4.62,280.8,1.283c-22.221-2.247-44.77-1.54-67.023,2.101
		C75.853,25.953-18.644,156.642,3.129,294.712c10.608,67.272,46.779,126.386,101.848,166.454
		c44.062,32.058,96,48.853,149.461,48.853c13.356,0,26.809-1.048,40.256-3.169c48.767-7.69,93.878-29.111,130.457-61.949
		c15.667-14.065,22.552-34.762,18.417-55.365c-4.176-20.805-18.682-37.413-38.806-44.428c-9.895-3.449-19.328-8.141-28.135-13.949
		l122.297-145.626C507.342,175.508,511.17,162.823,509.703,149.815z M398.18,363.993c13.374,4.662,23.011,15.682,25.78,29.478
		c2.728,13.595-1.821,27.257-12.17,36.547c-33.698,30.253-75.267,49.989-120.211,57.076c-61.997,9.774-124.087-5.176-174.835-42.1
		c-50.75-36.924-84.083-91.402-93.859-153.396C2.82,164.357,89.903,43.92,217.007,23.121c20.521-3.357,41.306-4.011,61.782-1.94
		c25.727,2.602,47.335,18.399,57.804,42.258c10.822,24.663,7.596,52.316-8.55,73.865c-32.252,44.478-37.45,103.6-13.787,152.212
		l-12.803,18.851c-4.319-0.261-8.695-0.098-13.079,0.51c-17.317,2.402-32.663,11.404-43.209,25.348
		c-24.58,32.497-27.648,76.516-7.817,112.146c1.366,2.455,3.702,4.222,6.436,4.868c7.876,1.863,15.82,2.768,23.694,2.768
		c31.799-0.002,62.39-14.765,82.091-40.811c10.547-13.944,15.032-31.16,12.631-48.478c-0.608-4.383-1.642-8.638-3.069-12.723
		l4.556-5.425C374.416,353.887,385.995,359.746,398.18,363.993z M324.786,337.459c9.683,7.324,15.935,17.98,17.603,30.006
		c1.668,12.025-1.447,23.981-8.771,33.664c-15.872,20.985-40.513,32.877-66.136,32.876c-4.89,0-9.818-0.434-14.725-1.319
		c-13.653-27.958-10.543-61.407,8.358-86.396c7.324-9.683,17.98-15.934,30.006-17.602
		C303.154,327.018,315.103,330.135,324.786,337.459z M483.608,172.67l-134.812,160.53c-3.427-4.336-7.421-8.27-11.945-11.692
		c-4.524-3.422-9.397-6.195-14.501-8.312l117.778-173.414c4.245-6.25,10.688-10.368,18.143-11.596
		c7.452-1.229,14.877,0.605,20.903,5.163c6.025,4.557,9.81,11.202,10.656,18.708C490.676,159.564,488.466,166.884,483.608,172.67z"
		/>
</g>
<g>
</g>
<g>
</g>
<g>
</g>
<g>
</g>
<g>
</g>
<g>
</g>
<g>
</g>
<g>
</g>
<g>
</g>
<g>
</g>
<g>
</g>
<g>
</g>
<g>
</g>
<g>
</g>
<g>
</g>
</svg>
