<?xml version="1.0" encoding="iso-8859-1"?>
<!-- Generator: Adobe Illustrator 27.5.0, SVG Export Plug-In . SVG Version: 6.00 Build 0)  -->
<svg version="1.1" id="Layer_1" xmlns="http://www.w3.org/2000/svg" xmlns:xlink="http://www.w3.org/1999/xlink" x="0px" y="0px"
	 viewBox="0 0 512 512" style="enable-background:new 0 0 512 512;" xml:space="preserve">
<g>
	<g>
		<path style="fill:#FFFFFF;" d="M363.145,502H148.854c-17.977,0-32.55-14.573-32.55-32.55V42.55c0-17.977,14.573-32.55,32.55-32.55
			h214.291c17.977,0,32.55,14.573,32.55,32.55V469.45C395.695,487.427,381.122,502,363.145,502z"/>
		<path style="fill:#D2DCFD;" d="M153.634,197.281c0-69.166,20.586-133.524,55.965-187.281h-60.745
			c-17.977,0-32.55,14.573-32.55,32.55V469.45c0,17.977,14.573,32.55,32.55,32.55h192.425
			C229.971,445.833,153.634,330.472,153.634,197.281z"/>
		<path style="fill:#BC9AF4;" d="M116.305,420.181v49.269c0,17.977,14.573,32.55,32.55,32.55h214.291
			c17.977,0,32.55-14.573,32.55-32.55v-49.269H116.305z"/>
		<path style="fill:#6864F7;" d="M236.53,420.181H116.305v49.269c0,17.977,14.573,32.55,32.55,32.55h192.425
			C301.179,481.765,265.618,453.847,236.53,420.181z"/>
		<rect x="116.305" y="352.447" style="fill:#67CCD1;" width="279.39" height="67.734"/>
		<path style="fill:#27A2CC;" d="M190.888,352.447h-74.583v67.734H236.53C218.75,399.603,203.389,376.878,190.888,352.447z"/>
		<rect x="116.305" y="105.468" style="fill:#B1D952;" width="279.39" height="151.83"/>
		<path style="fill:#91B706;" d="M153.634,197.281c0-31.809,4.354-62.601,12.499-91.813h-49.828v151.83h42.592
			C155.439,237.814,153.634,217.758,153.634,197.281z"/>
	</g>
	<g>
		<g>
			<g>
				<path style="fill:#6864F7;" d="M269.787,61.127h-69.66c-5.523,0-10-4.477-10-10s4.477-10,10-10h69.66c5.522,0,10,4.477,10,10
					S275.309,61.127,269.787,61.127z"/>
			</g>
			<g>
				<path style="fill:#6864F7;" d="M311.87,61.13c-4.182,0-7.997-2.709-9.405-6.636c-1.389-3.874-0.2-8.319,2.936-10.987
					c3.271-2.781,8.099-3.143,11.746-0.873c3.496,2.176,5.339,6.405,4.533,10.446C320.759,57.693,316.578,61.13,311.87,61.13z"/>
			</g>
		</g>
		<g>
			<path style="fill:#6864F7;" d="M342.552,319.968H169.447c-5.523,0-10-4.477-10-10s4.477-10,10-10h173.106c5.522,0,10,4.477,10,10
				S348.075,319.968,342.552,319.968z"/>
		</g>
		<g>
			<path style="fill:#FFFFFF;" d="M198.307,144.583c-0.036-0.093-0.073-0.186-0.111-0.278c-1.789-4.283-5.946-7.048-10.594-7.048
				h-0.014c-4.653,0.005-8.81,2.782-10.59,7.072c-0.032,0.076-0.062,0.151-0.091,0.228l-24.481,63.348
				c-1.991,5.152,0.571,10.942,5.723,12.933c1.185,0.458,2.404,0.675,3.603,0.675c4.012,0,7.797-2.432,9.33-6.398l0.708-1.833
				h31.409l0.691,1.804c1.975,5.158,7.756,7.737,12.915,5.763c5.158-1.975,7.738-7.757,5.763-12.915L198.307,144.583z
				 M179.517,193.281l8.047-20.823l7.974,20.823H179.517z"/>
			<path style="fill:#FFFFFF;" d="M259.722,139.157h-17.919c-2.656,0-5.202,1.056-7.078,2.936s-2.927,4.429-2.922,7.084
				l0.128,62.352c0.005,2.655,1.066,5.199,2.949,7.071c1.875,1.863,4.409,2.909,7.051,2.909h0.037
				c0.542-0.002,13.332-0.051,18.449-0.139c20.195-0.348,34.854-17.606,34.854-41.038
				C295.271,155.705,280.985,139.157,259.722,139.157z M260.074,201.374c-1.922,0.033-5.043,0.061-8.163,0.083l-0.087-42.299h7.899
				c14.428,0,15.549,16.208,15.549,21.176C275.271,190.676,270.572,201.193,260.074,201.374z"/>
			<path style="fill:#FFFFFF;" d="M339.707,170.491c-7.69-2.795-14.872-5.833-17.4-6.921c-0.735-0.685-0.806-1.528-0.717-2.156
				c0.229-1.604,1.634-2.902,3.855-3.562c8.35-2.481,16.261,3.706,16.34,3.769l0.438,0.269c4.425,2.724,10.207,1.522,13.18-2.74v0
				c3.106-4.453,2.031-10.624-2.463-13.671c-8.092-5.486-19.789-10.779-33.187-6.801c-9.744,2.893-16.628,10.525-17.964,19.919
				c-1.255,8.826,2.626,17.303,10.129,22.124c0.439,0.283,0.901,0.531,1.38,0.741c0.38,0.167,9.411,4.128,19.577,7.824
				c3.674,1.335,7.798,3.838,7.329,6.498c-0.406,2.308-3.73,5.724-9.575,5.724c-5.951,0-11.652-2.319-15.279-6.208
				c-3.606-3.866-9.707-4.406-13.786-1.044c-4.465,3.679-4.878,10.294-1.014,14.496c7.453,8.107,18.417,12.756,30.08,12.756
				c14.69,0,27.001-9.359,29.272-22.254C361.615,189.521,357.211,176.854,339.707,170.491z"/>
		</g>
		<path style="fill:#052A75;" d="M363.145,0H148.854c-23.462,0-42.549,19.088-42.549,42.55v426.9
			c0,23.462,19.087,42.55,42.549,42.55h214.291c23.462,0,42.55-19.088,42.55-42.55V42.55C405.695,19.088,386.607,0,363.145,0z
			 M148.854,20h214.291c12.434,0,22.55,10.116,22.55,22.55v367.631h-259.39V42.55C126.305,30.116,136.421,20,148.854,20z
			 M363.145,492H148.854c-12.434,0-22.549-10.116-22.549-22.55v-39.27h259.39v39.27C385.695,481.884,375.579,492,363.145,492z"/>
	</g>
</g>
<g>
</g>
<g>
</g>
<g>
</g>
<g>
</g>
<g>
</g>
<g>
</g>
<g>
</g>
<g>
</g>
<g>
</g>
<g>
</g>
<g>
</g>
<g>
</g>
<g>
</g>
<g>
</g>
<g>
</g>
</svg>
