<?xml version="1.0" encoding="iso-8859-1"?>
<!-- Generator: Adobe Illustrator 29.3.0, SVG Export Plug-In . SVG Version: 9.03 Build 55982)  -->
<svg version="1.1" id="Capa_1" xmlns="http://www.w3.org/2000/svg" xmlns:xlink="http://www.w3.org/1999/xlink" x="0px" y="0px"
	 viewBox="0 0 510 510" style="enable-background:new 0 0 510 510;" xml:space="preserve">
<g>
	<g>
		<g>
			<g>
				<rect x="274.736" y="10" style="fill:#FFFFFF;" width="225.264" height="280.779"/>
			</g>
			<g>
				<path style="fill:#D2DCFD;" d="M349.239,127c0-44.396,15.658-85.132,41.745-117H274.736v280.779h173.602
					C389.431,259.876,349.239,198.136,349.239,127z"/>
			</g>
		</g>
		<g>
			<g>
				<g>
					<path style="fill:#FDCB50;" d="M260.398,337.941l-66.414-13.059h-67.182l-66.414,13.059C31.112,343.698,10,369.365,10,399.203
						V500h300.788V399.203C310.788,369.365,289.676,343.698,260.398,337.941z"/>
				</g>
				<g>
					<polygon style="fill:#FFFFFF;" points="160.394,363.957 207.732,395.614 246.62,335.232 193.985,324.882 					"/>
				</g>
				<g>
					<path style="fill:#FD8F01;" d="M141.801,353.588c0-9.785,0.837-19.372,2.422-28.705h-17.421l-66.414,13.059
						C31.112,343.698,10,369.365,10,399.203V500h150.232h0.325h64.614C175.257,470.328,141.801,415.869,141.801,353.588z"/>
				</g>
				<g>
					<polygon style="fill:#FFFFFF;" points="160.394,363.957 113.056,395.614 74.168,335.232 126.803,324.882 					"/>
				</g>
			</g>
			<g>
				<g>
					<polygon style="fill:#F7B073;" points="126.803,287.902 126.803,324.882 160.394,363.957 193.985,324.882 193.985,287.902 
											"/>
				</g>
				<g>
					<circle style="fill:#6864F7;" cx="160.55" cy="108.188" r="45.472"/>
				</g>
				<g>
					<path style="fill:#FDE0BE;" d="M90.365,192.311c0-38.762,31.423-70.186,70.186-70.186s70.186,31.423,70.186,70.186v-0.266
						v39.511c0,38.762-31.423,70.186-70.186,70.186h0h0c-38.762,0-70.186-31.423-70.186-70.186v-39.511"/>
				</g>
				<g>
					<path style="fill:#93B2F4;" d="M227.394,170.888c-9.058-28.282-35.554-48.762-66.844-48.762
						c-38.762,0-70.186,31.423-70.186,70.186v9.639C140.318,213.113,190.025,200.18,227.394,170.888z"/>
				</g>
			</g>
		</g>
	</g>
	<g>
		<g>
			<g>
				<path style="fill:#6864F7;" d="M406.632,91.387h45.473c5.522,0,10-4.477,10-10s-4.478-10-10-10h-45.473c-5.522,0-10,4.477-10,10
					S401.109,91.387,406.632,91.387z"/>
				<path style="fill:#6864F7;" d="M452.104,140.39h-45.473c-5.522,0-10,4.477-10,10s4.478,10,10,10h45.473c5.522,0,10-4.477,10-10
					S457.627,140.39,452.104,140.39z"/>
				<path style="fill:#6864F7;" d="M452.104,209.393h-45.473c-5.522,0-10,4.477-10,10s4.478,10,10,10h45.473c5.522,0,10-4.477,10-10
					S457.627,209.393,452.104,209.393z"/>
			</g>
			<g>
				<path style="fill:#91B706;" d="M330.558,100.959c1.953,1.953,4.512,2.929,7.071,2.929s5.118-0.976,7.071-2.929l25.003-25.003
					c3.905-3.905,3.905-10.237,0-14.143c-3.906-3.905-10.236-3.905-14.143,0l-17.932,17.932l-7.926-7.926
					c-3.906-3.905-10.236-3.905-14.143,0c-3.905,3.905-3.905,10.237,0,14.143L330.558,100.959z"/>
				<path style="fill:#91B706;" d="M355.561,130.817l-17.932,17.932l-7.926-7.926c-3.906-3.905-10.236-3.905-14.143,0
					c-3.905,3.905-3.905,10.237,0,14.143l14.997,14.997c1.953,1.953,4.512,2.929,7.071,2.929s5.118-0.976,7.071-2.929l25.003-25.003
					c3.905-3.905,3.905-10.237,0-14.143C365.797,126.912,359.467,126.912,355.561,130.817z"/>
				<path style="fill:#91B706;" d="M355.561,199.82l-17.932,17.932l-7.926-7.926c-3.906-3.905-10.236-3.905-14.143,0
					c-3.905,3.905-3.905,10.237,0,14.143l14.997,14.997c1.953,1.953,4.512,2.929,7.071,2.929s5.118-0.976,7.071-2.929l25.003-25.003
					c3.905-3.905,3.905-10.237,0-14.143C365.797,195.915,359.467,195.915,355.561,199.82z"/>
			</g>
		</g>
		<g>
			<g>
				<path style="fill:#DB4B86;" d="M160.394,267.742c-6.362,0-12.344-2.478-16.843-6.977c-3.905-3.905-3.905-10.237,0.001-14.142
					c3.905-3.906,10.236-3.905,14.142,0c0.974,0.973,2.109,1.119,2.7,1.119s1.727-0.146,2.7-1.119
					c3.904-3.905,10.237-3.906,14.142,0c3.906,3.905,3.906,10.237,0.001,14.142C172.737,265.264,166.756,267.742,160.394,267.742z"
					/>
			</g>
			<g>
				<path style="fill:#052A75;" d="M500,0H274.736c-5.522,0-10,4.477-10,10v280.779c0,5.523,4.478,10,10,10H500
					c5.522,0,10-4.477,10-10V10C510,4.477,505.522,0,500,0z M490,280.779H284.736V20H490V280.779z"/>
				<path style="fill:#052A75;" d="M262.328,328.129l-58.343-11.472v-17.751c22.09-14.296,36.751-39.135,36.751-67.35v-39.511
					c0-0.048,0-0.098-0.001-0.146c-0.125-24.763-11.533-46.907-29.335-61.544c3.037-6.952,4.623-14.472,4.623-22.167
					c0-30.587-24.885-55.472-55.472-55.472c-30.588,0-55.473,24.885-55.473,55.472c0,7.695,1.585,15.216,4.623,22.169
					c-17.836,14.666-29.255,36.867-29.336,61.688v39.511c0,28.081,14.521,52.821,36.438,67.148v17.953L58.46,328.129
					C24.586,334.79,0,364.681,0,399.203V500c0,5.523,4.478,10,10,10h300.788c5.522,0,10-4.477,10-10V399.203
					C320.788,364.681,296.202,334.79,262.328,328.129z M230.237,342.202l-25.403,39.443l-29.5-19.727l22.438-26.1L230.237,342.202z
					 M160.394,348.617l-23.591-27.442v-13.024c7.507,2.333,15.483,3.591,23.748,3.591c8.151,0,16.018-1.231,23.435-3.502v12.935
					L160.394,348.617z M160.551,72.716c19.56,0,35.472,15.913,35.472,35.472c0,3.894-0.654,7.711-1.879,11.339
					c-10.226-4.738-21.601-7.402-33.592-7.402c-11.991,0-23.367,2.664-33.593,7.402c-1.226-3.628-1.88-7.445-1.88-11.34
					C125.078,88.628,140.991,72.716,160.551,72.716z M100.365,192.311c0-33.187,26.999-60.186,60.186-60.186
					c24.307,0,45.28,14.493,54.771,35.284c-33.454,23.776-74.589,33.188-114.956,26.312V192.311z M100.365,231.556v-17.588
					c8.646,1.302,17.314,1.961,25.941,1.961c33.294,0,65.957-9.591,94.26-27.91c0.101,1.419,0.17,2.847,0.17,4.291v39.245
					c0,33.187-26.999,60.186-60.186,60.186S100.365,264.743,100.365,231.556z M123.017,335.818l22.437,26.1l-29.5,19.727
					l-25.403-39.443L123.017,335.818z M300.788,490H20v-90.797c0-24.991,17.798-46.628,42.319-51.45l7.117-1.399l35.212,54.674
					c1.452,2.255,3.749,3.832,6.376,4.377c0.673,0.14,1.354,0.208,2.031,0.208c1.964,0,3.901-0.579,5.559-1.688l41.779-27.939
					l41.78,27.939c1.657,1.109,3.595,1.688,5.559,1.688c0.678,0,1.358-0.069,2.032-0.208c2.626-0.545,4.923-2.122,6.375-4.377
					l35.212-54.674l7.117,1.399c24.521,4.822,42.319,26.459,42.319,51.45V490z"/>
			</g>
		</g>
	</g>
</g>
<g>
</g>
<g>
</g>
<g>
</g>
<g>
</g>
<g>
</g>
<g>
</g>
<g>
</g>
<g>
</g>
<g>
</g>
<g>
</g>
<g>
</g>
<g>
</g>
<g>
</g>
<g>
</g>
<g>
</g>
</svg>
