<?xml version="1.0" encoding="iso-8859-1"?>
<!-- Generator: Adobe Illustrator 27.0.0, SVG Export Plug-In . SVG Version: 6.00 Build 0)  -->
<svg version="1.1" id="Capa_1" xmlns="http://www.w3.org/2000/svg" xmlns:xlink="http://www.w3.org/1999/xlink" x="0px" y="0px"
	 viewBox="0 0 512 512" style="enable-background:new 0 0 512 512;" xml:space="preserve">
<g>
	<g>
		<path style="fill:#FDCB50;" d="M299.322,141.835V82.612C299.322,42.51,266.905,10,226.916,10h-37.401
			c-12.537,0-24.617,4.723-33.845,13.233l-5.998,5.531h-6.312c-30.595,0-55.397,24.873-55.397,55.554v57.517H299.322z"/>
		<path style="fill:#BC9AF4;" d="M377.286,501.999l-16.831-83.121l-8.679-42.861c-3.916-19.338-18.331-34.244-36.519-37.761
			l-21.518-4.162c0,0-48.53-22.581-48.53-22.581c-3.45-4.896-6.066-10.525-7.618-16.661l-7.607-30.072l-72.684,0l-7.607,30.072
			c-1.552,6.136-4.168,11.764-7.618,16.661l-48.53,22.581l-21.518,4.162c-18.188,3.517-32.603,18.423-36.519,37.761l-8.679,42.861
			L10,501.999C10,501.999,377.286,502,377.286,501.999z"/>
		<path style="fill:#D46B5C;" d="M283.081,138.497c17.837,0,32.296,14.46,32.296,32.297v0c0,17.837-14.46,32.297-32.296,32.297
			H104.206c-17.837,0-32.296-14.46-32.296-32.297v0c0-17.837,14.46-32.297,32.296-32.297H283.081z"/>
		<path style="fill:#D46B5C;" d="M120.719,138.518l3.133-0.749c17.947-4.29,33.186-16.115,41.832-32.459l0,0l0,0
			c27.755,18.159,59.491,29.287,92.481,32.428l8.188,0.78l0.13,62.677c0,40.343-32.611,73.047-72.84,73.047h0
			c-40.228,0-72.84-32.704-72.84-73.047L120.719,138.518z"/>
		<polygon style="fill:#B1D952;" points="157.112,499.81 179.967,421.847 207.321,421.847 230.177,499.81 		"/>
		<polygon style="fill:#B1D952;" points="233.472,373.59 207.321,421.847 179.967,421.847 153.748,373.463 193.61,349.71 		"/>
		<path style="fill:#FFFFFF;" d="M126.953,387.698L96.78,341.701c-6.957-10.605-0.281-24.814,12.331-26.244l32.961-3.737
			l51.571,37.989L126.953,387.698z"/>
		<path style="fill:#FFFFFF;" d="M260.335,387.698l29.879-45.549c7.092-10.811,0.286-25.294-12.57-26.752l-32.429-3.677
			l-51.571,37.989L260.335,387.698z"/>
		<path style="fill:#D46B5C;" d="M245.216,311.716l-51.57,37.994l-51.57-37.994c3.454-4.89,6.065-10.503,7.621-16.638l7.601-30.032
			h72.686l7.611,30.032C239.141,301.214,241.762,306.827,245.216,311.716z"/>
		<path style="fill:#B55348;" d="M238.89,299.406c-13.766,6.406-29.098,9.981-45.244,9.981c-16.145,0-31.488-3.575-45.254-9.971
			c0.502-1.406,0.934-2.862,1.305-4.338l7.601-30.032h72.686l7.611,30.032C237.967,296.555,238.398,298.001,238.89,299.406z"/>
		<path style="fill:#6864F7;" d="M377.283,502H305.13c-0.08-0.994-0.11-1.998-0.11-3.012V336.276l10.242,1.978
			c18.184,3.514,32.603,18.425,36.519,37.764l8.675,42.864L377.283,502z"/>
		<path style="fill:#FDCB50;" d="M499,502H348.178c-1.657,0-3-1.343-3-3V314.63c0-1.657,1.343-3,3-3H499c1.657,0,3,1.343,3,3V499
			C502,500.657,500.657,502,499,502z"/>
		<path style="fill:#FFFFFF;" d="M457.756,333.443h-68.333c-1.657,0-3-1.343-3-3v-38.205c0-1.657,1.343-3,3-3h68.333
			c1.657,0,3,1.343,3,3v38.205C460.756,332.1,459.412,333.443,457.756,333.443z"/>
	</g>
	<g>
		<path style="fill:#052A75;" d="M498.987,301.63h-28.231v-9.392c0-7.168-5.832-13-13-13h-68.333c-7.168,0-13,5.832-13,13v9.392
			H348.19c-7.175,0-13.012,5.837-13.012,13.012v20.752c-5.476-3.352-11.517-5.717-17.933-6.957l-15.019-2.904
			c-0.427-1.656-1.01-3.29-1.756-4.88c-4.069-8.667-12.176-14.485-21.685-15.565l-27.699-3.147
			c-1.626-2.977-2.881-6.172-3.733-9.542l-5.919-23.389c18.158-12.879,30.942-32.876,34.259-55.919h7.468
			c23.327,0,42.306-18.975,42.306-42.297c0-13.415-6.286-25.382-16.06-33.136V82.612C309.407,37.06,272.431,0,226.979,0h-37.412
			c-15.095,0-29.525,5.64-40.632,15.881l-3.129,2.883H143.4c-36.069,0-65.413,29.408-65.413,65.555v53.339
			c-9.773,7.755-16.06,19.722-16.06,33.136c0,23.323,18.979,42.297,42.306,42.297h7.466c3.313,23.04,16.098,43.039,34.26,55.919
			l-5.918,23.389c-0.851,3.366-2.104,6.556-3.728,9.531l-28.325,3.218c-9.395,1.067-17.403,6.815-21.424,15.377
			c-0.777,1.655-1.374,3.358-1.801,5.086l-14.614,2.826c-22.253,4.302-39.694,22.199-44.433,45.595L0.199,500.014
			c-0.596,2.94,0.16,5.993,2.06,8.316C4.158,510.652,7,511.999,10,511.999L498.987,512c7.175,0,13.013-5.837,13.013-13.012V314.642
			C512,307.467,506.162,301.63,498.987,301.63z M396.423,299.238h54.333v24.205h-54.333V299.238z M335.179,362.209V492l-24.541,0
			v-47.064c0-5.523-4.478-10-10-10s-10,4.477-10,10v47.064l-52.316,0l-20.239-69.173l19.823-36.651l17.484,9.979
			c1.561,0.891,3.265,1.316,4.949,1.316c3.27,0,6.463-1.604,8.374-4.523c0,0,30.652-46.89,31.002-47.528l13.734,2.655
			C322.113,349.749,329.752,354.741,335.179,362.209z M193.652,360.919l26.879,15.341l-19.161,35.427h-15.435l-19.161-35.428
			L193.652,360.919z M187.468,431.687h12.369l17.647,60.312l-47.662,0L187.468,431.687z M282.367,329.155
			c0.528,1.125,1.536,4.078-0.506,7.197l-24.729,37.77l-45.187-25.79l36.057-26.611l28.525,3.24
			C280.218,325.379,281.841,328.033,282.367,329.155z M283.161,193.092h-6.619l-0.093-44.595h6.712
			c12.3,0,22.306,10.002,22.306,22.297S295.461,193.092,283.161,193.092z M97.987,84.319c0-25.119,20.372-45.555,45.413-45.555
			h6.312c2.512,0,4.931-0.945,6.777-2.647l6.001-5.531C169.895,23.759,179.511,20,189.567,20h37.412
			c34.423,0,62.428,28.088,62.428,62.612v46.349c-2.039-0.303-4.124-0.464-6.246-0.464h-15.438
			c-34.185-1.926-67.846-12.733-96.521-31.556c-2.354-1.541-5.249-2.018-7.972-1.314c-2.724,0.703-5.025,2.52-6.341,5.007
			c-7.587,14.412-21.337,24.578-37.229,27.863h-15.427c-2.122,0-4.207,0.161-6.246,0.464V84.319z M81.928,170.794
			c0-12.295,10.006-22.297,22.306-22.297h6.531l0.061,44.595h-6.592C91.934,193.092,81.928,183.089,81.928,170.794z
			 M130.836,201.182l-0.074-54.928c15.354-4.721,28.726-14.299,38.146-27.208c26.691,15.684,56.736,25.508,87.539,28.565
			l0.112,53.584c0,34.764-28.199,63.047-62.861,63.047S130.836,235.959,130.836,201.182z M193.697,284.242
			c10.417,0,20.381-1.955,29.573-5.488l4.695,18.551c0.996,3.939,2.375,7.721,4.096,11.324l-38.408,28.347l-38.342-28.299
			c1.732-3.618,3.118-7.415,4.119-11.372l4.694-18.551C173.315,282.287,183.28,284.242,193.697,284.242z M104.667,329.027
			c0.503-1.071,2.054-3.606,5.578-4.006l29.058-3.301l36.056,26.611l-45.186,25.79l-25.022-38.218
			C103.199,332.923,104.162,330.102,104.667,329.027z M45.317,378.002c3.124-15.423,14.361-27.17,28.628-29.928l13.609-2.631
			c0.273,0.478,31.039,47.504,31.039,47.504c1.911,2.919,5.104,4.523,8.374,4.523c1.684,0,3.389-0.425,4.949-1.316l17.484-9.979
			l19.822,36.651l-20.239,69.173l-52.226,0v-47.064c0-5.523-4.478-10-10-10s-10,4.477-10,10v47.064l-54.528,0L45.317,378.002z
			 M492,492H355.179V321.63h21.244v8.813c0,7.168,5.832,13,13,13h68.333c7.168,0,13-5.832,13-13v-8.813H492V492z"/>
	</g>
</g>
<g>
</g>
<g>
</g>
<g>
</g>
<g>
</g>
<g>
</g>
<g>
</g>
<g>
</g>
<g>
</g>
<g>
</g>
<g>
</g>
<g>
</g>
<g>
</g>
<g>
</g>
<g>
</g>
<g>
</g>
</svg>
