<?xml version="1.0" encoding="iso-8859-1"?>
<!-- Generator: Adobe Illustrator 27.0.0, SVG Export Plug-In . SVG Version: 6.00 Build 0)  -->
<svg version="1.1" id="Capa_1" xmlns="http://www.w3.org/2000/svg" xmlns:xlink="http://www.w3.org/1999/xlink" x="0px" y="0px"
	 viewBox="0 0 512 512" style="enable-background:new 0 0 512 512;" xml:space="preserve">
<g>
	<g>
		<rect x="109.026" y="411.835" style="fill:#6864F7;" width="70.423" height="43.467"/>
		<path style="fill:#FDCB50;" d="M502,455.302H222.868v-63.507c0-31.844,25.814-57.658,57.658-57.658h163.815
			c31.844,0,57.658,25.814,57.658,57.658V455.302z"/>
		<path style="fill:#FD8F01;" d="M358.213,334.137h-77.649c-31.865,0-57.696,25.797-57.696,57.62v63.545h224.337
			C410.259,429.046,372.287,378.212,358.213,334.137z"/>
		<path style="fill:#F7B073;" d="M411.542,334.137c-17.385-6.716-19.556-26.761-19.556-59.742h-59.103
			c0,32.735-2.172,53.025-19.556,59.742l11.504,14.807c20.11,22.271,55.097,22.271,75.207,0L411.542,334.137z"/>
		<path style="fill:#67CCD1;" d="M252.54,411.835H35.934C21.611,411.835,10,400.223,10,385.898V226.886
			c0-14.324,11.611-25.937,25.934-25.937H252.54c14.323,0,25.934,11.612,25.934,25.937v159.012
			C278.474,400.223,266.863,411.835,252.54,411.835z"/>
		<path style="fill:#FDE0BE;" d="M278.828,149.593c0,0-1.272,57.385,1.008,72.4c5.136,33.831,27.226,63.036,58.859,76.358
			c8.328,3.507,16.99,5.782,25.447,5.782c8.456,0,17.116-2.275,25.443-5.782c31.634-13.323,53.722-42.532,58.856-76.365
			c2.285-15.053,1.016-72.393,1.016-72.393H278.828z"/>
		<path style="fill:#F7B073;" d="M325.346,149.593h-46.519c0,0-1.272,57.385,1.008,72.4c5.136,33.831,27.226,63.036,58.859,76.358
			c8.328,3.507,16.99,5.782,25.447,5.782c8.456,0,17.116-2.275,25.443-5.782c1.542-0.649,3.061-1.337,4.557-2.061
			C352.584,260.876,326.027,208.348,325.346,149.593z"/>
		<path style="fill:#BC9AF4;" d="M449.73,170.405c28.786-50.027-3.938-90.216-32.206-103.984
			c-33.612-16.371-65.848-13.351-82.654,20.074c-0.035,0.07-30.801-21.016-58.749,6.963c-28.643,28.676,2.353,88.996,2.353,88.996
			s71.161-51.239,88.65-35.493c35.968,32.384,46.033-2.463,64.867,10.878L449.73,170.405z"/>
		<path style="fill:#6864F7;" d="M325.332,147.278c0-21.385,3.429-41.968,9.764-61.23c-0.076,0.149-0.152,0.298-0.227,0.448
			c-0.035,0.07-30.801-21.016-58.749,6.963c-28.643,28.675,2.353,88.996,2.353,88.996s23.61-17,46.974-28.407
			C325.372,151.8,325.332,149.543,325.332,147.278z"/>
		<path style="fill:#27A2CC;" d="M108.086,265.184c0-22.434,3.599-44.028,10.25-64.235H35.934C21.611,200.949,10,212.562,10,226.886
			v159.012c0,14.324,11.611,25.937,25.934,25.937h133.789C131.688,374.577,108.086,322.637,108.086,265.184z"/>
	</g>
	<g>
		<g>
			<g>
				<path style="fill:#FFFFFF;" d="M274.492,461.643c-5.522,0-10-4.477-10-10v-48.536c0-5.523,4.478-10,10-10s10,4.477,10,10v48.536
					C284.492,457.166,280.015,461.643,274.492,461.643z"/>
			</g>
			<g>
				<path style="fill:#FFFFFF;" d="M448.887,461.643c-5.522,0-10-4.477-10-10v-52.944c0-5.523,4.478-10,10-10s10,4.477,10,10v52.944
					C458.887,457.166,454.409,461.643,448.887,461.643z"/>
			</g>
		</g>
		<g>
			<g>
				<g>
					<path style="fill:#FFFFFF;" d="M99.836,362.193c-2.56,0-5.119-0.977-7.072-2.929l-27.156-27.16
						c-3.904-3.905-3.904-10.236,0-14.141l27.156-27.159c3.904-3.905,10.236-3.906,14.142,0c3.905,3.905,3.906,10.236,0,14.142
						l-20.086,20.088l20.086,20.089c3.905,3.905,3.904,10.237-0.001,14.142C104.954,361.216,102.395,362.193,99.836,362.193z"/>
				</g>
				<g>
					<path style="fill:#FFFFFF;" d="M188.638,362.193c-2.559,0-5.118-0.976-7.07-2.928c-3.906-3.905-3.906-10.237-0.001-14.142
						l20.086-20.089l-20.086-20.088c-3.905-3.906-3.905-10.237,0-14.142c3.906-3.905,10.238-3.904,14.142,0l27.156,27.159
						c3.905,3.905,3.905,10.236,0,14.141l-27.156,27.16C193.757,361.216,191.197,362.193,188.638,362.193z"/>
				</g>
			</g>
			<g>
				<path style="fill:#FFFFFF;" d="M134.709,362.195c-1.098,0-2.215-0.183-3.31-0.567c-5.212-1.828-7.955-7.535-6.126-12.746
					l19.055-54.319c1.828-5.211,7.537-7.955,12.746-6.126c5.211,1.828,7.955,7.535,6.126,12.746l-19.055,54.319
					C142.702,359.619,138.838,362.195,134.709,362.195z"/>
			</g>
		</g>
		<g>
			<g>
				<path style="fill:#FFFFFF;" d="M50.55,262.302c-4.069,0-7.8-2.543-9.3-6.322c-1.573-3.965-0.379-8.647,2.909-11.368
					c3.001-2.484,7.311-2.992,10.804-1.271c3.897,1.92,6.173,6.297,5.447,10.595C59.604,258.703,55.397,262.302,50.55,262.302z"/>
			</g>
			<g>
				<path style="fill:#FFFFFF;" d="M86.56,262.302c-4.121,0-7.905-2.618-9.36-6.473c-1.493-3.955-0.264-8.58,3.016-11.251
					c3.247-2.644,7.88-2.988,11.479-0.846c3.582,2.132,5.49,6.443,4.665,10.53C95.427,258.881,91.279,262.302,86.56,262.302z"/>
			</g>
			<g>
				<path style="fill:#FFFFFF;" d="M122.57,262.312c-4.117,0-7.908-2.637-9.36-6.482c-1.495-3.958-0.26-8.578,3.017-11.255
					c3.236-2.644,7.894-2.986,11.48-0.842c3.578,2.139,5.49,6.439,4.663,10.53C131.437,258.873,127.288,262.312,122.57,262.312z"/>
			</g>
		</g>
		<path style="fill:#052A75;" d="M444.304,324.136h-30.686c-4.948-2.474-8.605-7.562-10.375-21.303
			c29.225-16.069,49.962-45.596,55.085-79.347c2.006-13.21,1.479-40.636,1.223-50.146c11.542-21.102,14.328-43.001,8.047-63.474
			c-8.027-26.162-28.868-44.24-45.694-52.436c-38.44-18.724-71.719-12.66-90.929,15.917c-17.698-7.152-41.738-7.169-61.928,13.043
			c-30.906,30.94-5.375,88.419-0.266,99.019c-0.082,1.731-0.217,5.075-0.277,9.284c-4.811-2.396-10.232-3.744-15.962-3.744H35.934
			C16.12,190.949,0,207.07,0,226.886v159.012c0,19.815,16.12,35.937,35.934,35.937h63.092v33.467c0,5.523,4.477,10,10,10h70.422
			c5.523,0,10-4.477,10-10v-33.467h23.42v33.467c0,5.523,4.477,10,10,10H502c5.522,0,10-4.477,10-10v-63.545
			C512,354.471,481.632,324.136,444.304,324.136z M311.251,324.136h-22.778v-54.315c8.776,12.592,20.132,23.29,33.362,31.179
			c-0.008,0.064-0.017,0.127-0.024,0.191C320.031,316.863,315.803,321.855,311.251,324.136z M340.782,309.86
			c8.179,2.838,16.014,4.273,23.36,4.273c6.369,0,13.106-1.079,20.116-3.216c1.716,9.289,5.083,18.872,12.627,25.786l-4.504,5.797
			c-7.681,8.36-18.574,13.146-29.946,13.146c-11.373,0-22.267-4.787-29.947-13.146l-4.508-5.802
			C335.8,329.519,339.124,319.463,340.782,309.86z M438.554,220.486c-4.64,30.568-24.891,56.873-52.852,68.649
			c-7.873,3.316-15.127,4.998-21.561,4.998c-6.435,0-13.69-1.682-21.566-4.999c-27.961-11.775-48.213-38.077-52.853-68.643
			c-1.693-11.153-1.251-27.162-1.014-32.984c6.223-4.259,18.31-12.255,31.385-19.416c32.226-17.649,40.288-13.733,40.339-13.699
			c26.144,23.538,43.239,16.901,54.551,12.509c7.172-2.783,8.429-2.885,11.228-0.902l13.389,9.484
			C439.9,187.739,440.083,210.411,438.554,220.486z M283.196,100.525c8.88-8.89,17.988-11.631,25.846-11.631
			c9.498,0,17.169,4.007,20.392,6c3.217,1.991,6.188,1.771,8.113,1.236c2.718-0.755,4.99-2.623,6.258-5.143
			c17.342-34.492,50.888-24.563,69.34-15.576c13.05,6.356,29.184,20.286,35.332,40.322c3.934,12.819,3.085,26.149-2.51,39.751
			l-8.195-5.805c-11.928-8.449-22.388-4.386-30.026-1.421c-9.46,3.673-16.935,6.575-33.93-8.728
			c-11.04-9.939-30.849-6.609-62.345,10.484c-11.087,6.017-21.426,12.557-28.648,17.341
			C276.233,150.382,266.538,117.202,283.196,100.525z M20,385.899V226.886c0-8.788,7.148-15.937,15.934-15.937h216.607
			c8.786,0,15.933,7.149,15.933,15.937v159.012c0,8.788-7.147,15.937-15.933,15.937H35.934C27.148,401.835,20,394.686,20,385.899z
			 M169.448,445.302h-50.422v-23.467h50.422V445.302z M492,445.302H232.868v-23.467h19.672c19.814,0,35.933-16.121,35.933-35.937
			v-41.762h19.959l8.501,10.942c0.151,0.195,0.31,0.384,0.475,0.566c11.478,12.711,27.89,20.001,45.026,20.001
			c17.136,0,33.548-7.29,45.025-20.001c0.165-0.183,0.323-0.372,0.475-0.566l8.501-10.942h27.868
			c26.3,0,47.696,21.362,47.696,47.621V445.302z"/>
	</g>
</g>
<g>
</g>
<g>
</g>
<g>
</g>
<g>
</g>
<g>
</g>
<g>
</g>
<g>
</g>
<g>
</g>
<g>
</g>
<g>
</g>
<g>
</g>
<g>
</g>
<g>
</g>
<g>
</g>
<g>
</g>
</svg>
