<?xml version="1.0" encoding="iso-8859-1"?>
<!-- Generator: Adobe Illustrator 26.5.3, SVG Export Plug-In . SVG Version: 6.00 Build 0)  -->
<svg version="1.1" id="Capa_1" xmlns="http://www.w3.org/2000/svg" xmlns:xlink="http://www.w3.org/1999/xlink" x="0px" y="0px"
	 viewBox="0 0 510.003 510.003" style="enable-background:new 0 0 510.003 510.003;" xml:space="preserve">
<g>
	<g>
		<g>
			<g>
				<g>
					<path style="fill:#FFFFFF;" d="M74.169,61v255H58.001c-26.51,0-48,21.49-48,48s21.49,48,48,48h442V61H74.169z"/>
				</g>
				<path style="fill:#FDE0BE;" d="M170.116,178c0-41.687,8.929-81.287,24.969-117H74.169v255H58.001c-26.51,0-48,21.49-48,48
					s21.49,48,48,48h233.744C218.19,360.272,170.116,274.755,170.116,178z"/>
				<g>
					<path style="fill:#F7B073;" d="M58.001,10h16.168v306H58.001c-26.51,0-48,21.49-48,48V58C10.001,31.49,31.492,10,58.001,10z"/>
				</g>
			</g>
		</g>
		<g>
			<path style="fill-rule:evenodd;clip-rule:evenodd;fill:#67CCD1;" d="M262.563,87.71c0-4.907-0.538-9.686-1.533-14.296
				l10.256-9.264l-17.69-30.587l-13.125,4.241C233.419,31.396,225,26.473,215.708,23.5L212.816,10h-35.331l-2.892,13.5
				c-9.292,2.973-17.711,7.896-24.763,14.303l-13.125-4.241l-17.69,30.587l10.256,9.264c-0.996,4.609-1.533,9.389-1.533,14.296
				c0,4.907,0.538,9.686,1.533,14.296l-10.256,9.264l17.69,30.587l13.125-4.241c7.052,6.408,15.471,11.331,24.763,14.304l2.892,13.5
				h35.331l2.892-13.5c9.292-2.973,17.711-7.896,24.763-14.304l13.125,4.241l17.69-30.587l-10.256-9.265
				C262.025,97.396,262.563,92.616,262.563,87.71z"/>
			
				<ellipse transform="matrix(0.7071 -0.7071 0.7071 0.7071 -4.8618 163.6815)" style="fill-rule:evenodd;clip-rule:evenodd;fill:#27A2CC;" cx="195.15" cy="87.71" rx="23" ry="23"/>
		</g>
		<g>
			<path style="fill:#27A2CC;" d="M453.336,412.869l-86.262-237.003l-41.346,15.049l101.311,278.35l0,0
				C449.873,460.953,461.647,435.704,453.336,412.869z"/>
			<path style="fill:#27A2CC;" d="M198.119,412.869l86.262-237.003l41.346,15.049l-101.311,278.35l0,0
				C201.581,460.953,189.807,435.704,198.119,412.869z"/>
			<path style="fill:#FDCB50;" d="M325.727,234.914L325.727,234.914c-24.301,0-44-19.699-44-44v0c0-24.301,19.699-44,44-44h0
				c24.301,0,44,19.699,44,44v0C369.727,215.215,350.028,234.914,325.727,234.914z"/>
		</g>
	</g>
	<g>
		<g>
			<path style="fill:#052A75;" d="M500.001,51H275.233l-12.98-22.444c-2.359-4.079-7.245-5.958-11.731-4.509l-7.856,2.539
				c-5.613-4.377-11.75-7.921-18.338-10.594l-1.732-8.087C221.607,3.295,217.532,0,212.816,0h-35.331
				c-4.716,0-8.79,3.294-9.778,7.905l-1.732,8.087c-6.588,2.672-12.725,6.217-18.338,10.594l-7.856-2.539
				c-4.485-1.449-9.372,0.43-11.731,4.509L115.067,51H84.169V10c0-5.522-4.478-10-10-10H58.001c-31.981,0-58,26.019-58,58v306
				c0,31.981,26.019,58,58,58h127.776c-1.092,9.743,0.498,19.628,4.747,28.739c4.662,9.997,12.095,18.139,21.393,23.627
				l-8.085,22.214c-1.89,5.189,0.786,10.928,5.977,12.816c1.129,0.411,2.283,0.606,3.419,0.606c4.085,0,7.92-2.522,9.397-6.583
				L252.26,422h146.935l29.633,81.42c1.479,4.062,5.313,6.583,9.398,6.583c1.135,0,2.29-0.195,3.419-0.605
				c5.189-1.89,7.866-7.628,5.978-12.817l-8.089-22.226c18.232-10.805,28.428-31.444,26.124-52.354h34.344c5.522,0,10-4.478,10-10
				V61C510.001,55.478,505.524,51,500.001,51z M139.045,99.893c-0.868-4.018-1.309-8.117-1.309-12.183
				c0-4.067,0.44-8.166,1.309-12.184c0.756-3.498-0.415-7.134-3.071-9.533l-4.253-3.841l9.596-16.591l5.438,1.758
				c3.409,1.103,7.147,0.295,9.8-2.114c6.126-5.566,13.221-9.664,21.085-12.181c3.413-1.092,5.98-3.926,6.731-7.43L185.569,20
				h19.162l1.198,5.595c0.751,3.504,3.318,6.338,6.731,7.43c7.865,2.517,14.96,6.614,21.086,12.181
				c2.652,2.41,6.389,3.215,9.8,2.114l5.438-1.757l9.595,16.59l-4.252,3.841c-2.655,2.399-3.827,6.033-3.071,9.531
				c0.867,4.021,1.308,8.12,1.308,12.186c0,4.068-0.44,8.168-1.308,12.183c-0.756,3.498,0.415,7.134,3.071,9.533l4.252,3.841
				l-9.595,16.59l-5.438-1.757c-3.412-1.104-7.148-0.296-9.8,2.114c-6.126,5.566-13.221,9.664-21.086,12.181
				c-3.413,1.092-5.98,3.926-6.731,7.43l-1.198,5.595h-19.162l-1.198-5.595c-0.751-3.504-3.318-6.338-6.731-7.43
				c-7.864-2.516-14.959-6.614-21.085-12.181c-2.652-2.41-6.39-3.215-9.8-2.114l-5.438,1.758l-9.596-16.591l4.253-3.841
				C138.63,107.026,139.801,103.391,139.045,99.893z M20.001,58c0-20.953,17.047-38,38-38h6.168v286h-6.168
				c-14.522,0-27.814,5.364-38,14.217V58z M207.515,416.288l71.922-197.602c4.612,7.658,11.07,14.079,18.752,18.653l-79.241,217.71
				c-4.38-3.304-7.913-7.65-10.297-12.763C204.812,434.056,204.41,424.822,207.515,416.288z M325.727,156.914
				c14.663,0,27.186,9.33,31.948,22.365c0.001,0.002,0.001,0.004,0.002,0.006l0.003,0.008c1.323,3.627,2.047,7.541,2.047,11.621
				c0,18.748-15.252,34-34,34s-34-15.252-34-34c0-4.065,0.719-7.965,2.034-11.582l0.017-0.047c0.005-0.013,0.007-0.025,0.012-0.038
				C298.56,166.229,311.076,156.914,325.727,156.914z M325.727,319.704c-5.522,0-10,4.478-10,10v7.691h-32.673l33.923-93.201
				c2.85,0.467,5.771,0.72,8.75,0.72c2.98,0,5.901-0.253,8.751-0.72l33.923,93.201h-32.674v-7.691
				C335.727,324.182,331.25,319.704,325.727,319.704z M259.54,402l16.235-44.604h39.952v7.691c0,5.522,4.478,10,10,10
				s10-4.478,10-10v-7.691h39.953L391.915,402H259.54z M432.502,455.037l-79.237-217.698c7.682-4.574,14.14-10.995,18.752-18.653
				l71.921,197.602C449.162,430.637,444.083,446.267,432.502,455.037z M490.001,402h-29.979l-83.529-229.493
				c-6.438-17.699-21.885-31.098-40.766-34.649V95.924c0-5.522-4.478-10-10-10s-10,4.478-10,10v41.934
				c-18.895,3.554-34.35,16.97-40.779,34.688L191.433,402H58.001c-20.953,0-38-17.047-38-38s17.047-38,38-38h16.168
				c5.522,0,10-4.478,10-10V71h27.563c0.184,0.196,0.376,0.387,0.578,0.57l6.155,5.56c-0.485,3.515-0.729,7.055-0.729,10.58
				c0,3.524,0.245,7.064,0.729,10.579l-6.155,5.56c-3.501,3.163-4.315,8.343-1.953,12.428l17.69,30.587
				c2.359,4.078,7.246,5.958,11.731,4.509l7.856-2.539c5.613,4.377,11.75,7.922,18.338,10.594l1.732,8.087
				c0.988,4.611,5.062,7.905,9.778,7.905h35.331c4.716,0,8.791-3.295,9.778-7.905l1.732-8.087
				c6.588-2.673,12.725-6.217,18.338-10.594l7.856,2.539c4.486,1.449,9.372-0.431,11.731-4.509l17.689-30.587
				c2.362-4.085,1.548-9.265-1.953-12.428l-6.154-5.56c0.484-3.513,0.729-7.054,0.729-10.579c0-3.524-0.244-7.064-0.729-10.579
				l6.155-5.561c0.203-0.183,0.394-0.375,0.579-0.57h211.434V402z"/>
			<path style="fill:#052A75;" d="M316.492,194.74c0.752,1.816,2.045,3.402,3.68,4.489c3.282,2.23,7.827,2.23,11.11,0
				c5.169-3.273,5.942-11.165,1.519-15.39C325.006,176.263,312.431,184.619,316.492,194.74z"/>
		</g>
		<g>
			<path style="fill:#27A2CC;" d="M195.15,230.694h-68.148c-5.522,0-10-4.478-10-10s4.478-10,10-10h68.148c5.522,0,10,4.478,10,10
				S200.672,230.694,195.15,230.694z"/>
		</g>
		<g>
			<path style="fill:#27A2CC;" d="M195.15,279.967h-68.148c-5.522,0-10-4.478-10-10s4.478-10,10-10h68.148c5.522,0,10,4.478,10,10
				S200.672,279.967,195.15,279.967z"/>
		</g>
	</g>
</g>
<g>
</g>
<g>
</g>
<g>
</g>
<g>
</g>
<g>
</g>
<g>
</g>
<g>
</g>
<g>
</g>
<g>
</g>
<g>
</g>
<g>
</g>
<g>
</g>
<g>
</g>
<g>
</g>
<g>
</g>
</svg>
