<?xml version="1.0" encoding="iso-8859-1"?>
<!-- Generator: Adobe Illustrator 28.7.8, SVG Export Plug-In . SVG Version: 9.03 Build 56881)  -->
<svg version="1.1" id="Layer_1" xmlns="http://www.w3.org/2000/svg" xmlns:xlink="http://www.w3.org/1999/xlink" x="0px" y="0px"
	 viewBox="0 0 510 510" style="enable-background:new 0 0 510 510;" xml:space="preserve">
<g>
	<g>
		<g>
			<g>
				<path style="fill:#FFFFFF;" d="M80.499,110.7v255.83H62.736C33.611,366.529,10,390.14,10,419.265S33.611,472,62.736,472H477.56
					V110.7H80.499z"/>
			</g>
			<g>
				<path style="fill:#D2DCFD;" d="M249.965,223.185c0-39.52,6.997-77.404,19.816-112.485H80.499v255.83H62.736
					C33.611,366.529,10,390.14,10,419.265S33.611,472,62.736,472h301.667C294.353,411.893,249.965,322.727,249.965,223.185z"/>
			</g>
			<g>
				<g>
					<g>
						<g>
							<g>
								<g>
									<path style="fill:#FDCB50;" d="M62.736,38h17.763v328.529H62.736C33.61,366.529,10,390.139,10,419.265V90.735
										C10,61.61,33.61,38,62.736,38z"/>
								</g>
							</g>
						</g>
					</g>
				</g>
			</g>
		</g>
		<g>
			<g>
				<g>
					<g>
						<path style="fill:#67CCD1;" d="M489.476,135.241c0-5.959-0.678-11.76-1.962-17.33L500,110.702l-22.44-38.867l-12.505,7.22
							c-8.443-7.883-18.663-13.886-29.996-17.341V47.297h-44.88v14.418c-11.333,3.454-21.553,9.457-29.996,17.341l-12.505-7.22
							l-22.44,38.867l12.486,7.209c-1.284,5.57-1.962,11.37-1.962,17.33c0,5.959,0.679,11.76,1.962,17.33l-12.486,7.209
							l22.44,38.867l12.505-7.22c8.443,7.883,18.663,13.886,29.996,17.341v14.418h44.88v-14.418
							c11.333-3.454,21.553-9.457,29.996-17.341l12.505,7.22L500,159.779l-12.485-7.209
							C488.798,147.001,489.476,141.2,489.476,135.241z"/>
					</g>
				</g>
				<g>
					<g>
						<path style="fill:#27A2CC;" d="M388.813,72.936c0-3.682,0.159-7.326,0.457-10.931c-10.97,3.495-20.872,9.378-29.088,17.049
							l-12.505-7.22l-22.44,38.867l12.486,7.208c-1.284,5.57-1.962,11.37-1.962,17.33s0.679,11.76,1.962,17.33l-12.486,7.209
							l22.44,38.867l12.505-7.22c8.443,7.884,18.663,13.886,29.997,17.341v14.418h44.88v-14.418
							c11.116-3.388,21.158-9.234,29.506-16.896C419.821,170.973,388.813,125.58,388.813,72.936z"/>
					</g>
				</g>
				<g>
					<path style="fill:#FFFFFF;" d="M425.926,164.345c11.03-5.051,18.692-16.186,18.692-29.11c0-17.673-14.327-32-32-32
						c-6.979,0-13.435,2.234-18.694,6.026v27.224l13.715,20.835L425.926,164.345z"/>
				</g>
				<g>
					<path style="fill:#D2DCFD;" d="M412.618,167.235c4.749,0,9.251-1.042,13.304-2.898c-14.815-15.247-25.953-34.075-31.993-55.069
						c-8.059,5.811-13.311,15.273-13.311,25.968C380.618,152.908,394.945,167.235,412.618,167.235z"/>
				</g>
			</g>
		</g>
		<g>
			<g>
				<circle style="fill:#FD7DA0;" cx="197.039" cy="355.46" r="72.54"/>
			</g>
			<g>
				<path style="fill:#FDCB50;" d="M197.039,273.724v81.736h81.736C278.774,310.318,242.18,273.724,197.039,273.724z"/>
			</g>
		</g>
	</g>
	<g>
		<g>
			<g>
				<path style="fill:#6864F7;" d="M255.127,179.7H124.499c-5.523,0-10-4.477-10-10s4.477-10,10-10h130.628c5.523,0,10,4.477,10,10
					S260.65,179.7,255.127,179.7z"/>
			</g>
			<g>
				<path style="fill:#6864F7;" d="M189.176,227.7h-64.678c-5.523,0-10-4.477-10-10s4.477-10,10-10h64.678c5.523,0,10,4.477,10,10
					S194.699,227.7,189.176,227.7z"/>
			</g>
		</g>
		<g>
			<path style="fill:#052A75;" d="M505,151.119l-6.376-3.681c0.567-4.03,0.853-8.11,0.853-12.197s-0.286-8.167-0.853-12.197
				l6.376-3.681c2.297-1.326,3.973-3.51,4.659-6.072c0.687-2.562,0.327-5.292-0.999-7.588l-22.44-38.867
				c-2.762-4.784-8.877-6.422-13.66-3.66l-6.389,3.689c-6.43-5.032-13.567-9.159-21.112-12.208v-7.359c0-5.523-4.477-10-10-10
				h-44.88c-5.523,0-10,4.477-10,10v7.359c-7.545,3.049-14.683,7.176-21.112,12.208l-6.39-3.689
				c-4.784-2.764-10.899-1.124-13.66,3.66L319.464,100.7H90.499V38c0-5.523-4.477-10-10-10H62.735C28.143,28,0,56.143,0,90.735
				v328.529C0,453.857,28.143,482,62.735,482H477.56c5.523,0,10-4.477,10-10V201.326l21.101-36.547
				c1.326-2.297,1.686-5.026,0.999-7.588C508.973,154.629,507.297,152.445,505,151.119z M20,90.735C20,67.171,39.171,48,62.735,48
				h7.763v308.529h-7.763c-16.496,0-31.525,6.399-42.735,16.847V90.735z M467.56,462H62.735C39.171,462,20,442.829,20,419.265
				s19.171-42.735,42.735-42.735h17.763c5.523,0,10-4.477,10-10V120.7h232.054l4.06,2.344c-0.567,4.03-0.853,8.11-0.853,12.197
				s0.286,8.167,0.853,12.197l-6.376,3.681c-2.297,1.326-3.973,3.51-4.659,6.072c-0.687,2.562-0.327,5.292,0.999,7.588l22.44,38.867
				c2.76,4.783,8.877,6.42,13.66,3.66l6.39-3.689c6.429,5.032,13.566,9.159,21.112,12.208v7.359c0,5.523,4.477,10,10,10h44.88
				c5.523,0,10-4.477,10-10v-7.359c7.545-3.049,14.683-7.176,21.112-12.208l1.389,0.802V462z M477.77,120.157
				c1.133,4.914,1.707,9.989,1.707,15.084s-0.574,10.17-1.707,15.084c-0.987,4.283,0.938,8.709,4.745,10.906l3.826,2.208
				l-12.44,21.547l-3.845-2.22c-3.81-2.2-8.609-1.652-11.824,1.351c-7.421,6.928-16.442,12.145-26.088,15.085
				c-4.208,1.283-7.084,5.166-7.084,9.565v4.417h-24.88v-4.418c0-4.4-2.876-8.283-7.084-9.565
				c-9.646-2.94-18.667-8.156-26.087-15.084c-3.216-3.002-8.016-3.55-11.825-1.351l-3.845,2.22l-12.44-21.547l3.825-2.208
				c3.806-2.197,5.731-6.623,4.745-10.906c-1.133-4.914-1.707-9.989-1.707-15.084s0.574-10.17,1.707-15.084
				c0.987-4.283-0.938-8.709-4.745-10.906l-3.825-2.208l12.44-21.547l3.845,2.22c3.81,2.199,8.608,1.652,11.825-1.351
				c7.42-6.928,16.441-12.144,26.087-15.084c4.208-1.283,7.084-5.166,7.084-9.565v-4.418h24.88v4.417c0,4.4,2.875,8.283,7.084,9.565
				c9.646,2.94,18.667,8.157,26.088,15.085c3.216,3.002,8.016,3.55,11.824,1.351l3.845-2.22l12.44,21.547l-3.826,2.208
				C478.708,111.448,476.783,115.874,477.77,120.157z"/>
			<path style="fill:#052A75;" d="M197.039,263.724c-5.463,0-9.895,4.382-9.991,9.822c-40.816,4.95-72.55,39.785-72.55,81.914
				c0,45.513,37.027,82.541,82.541,82.541c42.129,0,76.964-31.734,81.914-72.55c5.44-0.096,9.822-4.528,9.822-9.991
				C288.774,304.876,247.622,263.724,197.039,263.724z M197.039,418c-34.485,0-62.541-28.056-62.541-62.541
				c0-31.081,22.794-56.929,52.541-61.731v61.731c0,5.523,4.477,10,10,10h61.731C253.968,395.206,228.12,418,197.039,418z
				 M207.039,345.459v-61.041c31.572,4.421,56.619,29.469,61.041,61.041H207.039z"/>
		</g>
		<g>
			<g>
				<g>
					<g>
						<path style="fill:#6864F7;" d="M436.086,390H326.774c-5.523,0-10-4.477-10-10s4.477-10,10-10h109.312c5.523,0,10,4.477,10,10
							S441.609,390,436.086,390z"/>
					</g>
					<g>
						<path style="fill:#6864F7;" d="M383.249,438h-56.474c-5.523,0-10-4.477-10-10s4.477-10,10-10h56.474c5.523,0,10,4.477,10,10
							S388.771,438,383.249,438z"/>
					</g>
				</g>
			</g>
		</g>
		<path style="fill:#FD7DA0;" d="M436.19,257.703h-29.002c-5.523,0-10,4.477-10,10s4.477,10,10,10h4.86l-21.255,21.255
			l-15.514-15.514c-3.905-3.905-10.237-3.905-14.143,0l-41.434,41.434c-3.905,3.905-3.905,10.237,0,14.143
			c1.953,1.953,4.512,2.929,7.071,2.929s5.119-0.976,7.071-2.929l34.363-34.363l15.514,15.514c3.905,3.905,10.237,3.905,14.143,0
			l28.326-28.326v4.859c0,5.523,4.477,10,10,10s10-4.477,10-10v-29.002C446.19,262.18,441.713,257.703,436.19,257.703z"/>
	</g>
</g>
<g>
</g>
<g>
</g>
<g>
</g>
<g>
</g>
<g>
</g>
<g>
</g>
<g>
</g>
<g>
</g>
<g>
</g>
<g>
</g>
<g>
</g>
<g>
</g>
<g>
</g>
<g>
</g>
<g>
</g>
</svg>
