<?xml version="1.0" encoding="iso-8859-1"?>
<!-- Generator: Adobe Illustrator 27.9.0, SVG Export Plug-In . SVG Version: 6.00 Build 0)  -->
<svg version="1.1" id="Layer_1" xmlns="http://www.w3.org/2000/svg" xmlns:xlink="http://www.w3.org/1999/xlink" x="0px" y="0px"
	 viewBox="0 0 510.275 510.275" style="enable-background:new 0 0 510.275 510.275;" xml:space="preserve">
<g>
	<g>
		<path style="fill:#FDE0BE;" d="M228.338,121.512l-105.309-60.8c-3.176-1.833-7.088-1.833-10.263,0L12.589,118.549
			c-1.588,0.917,14.584,104.175,13.698,105.71l91.611,86.954L228.338,121.512z"/>
		<path style="fill:#D46B5C;" d="M59.742,263.09c1.772,0,56.568,49.04,58.156,48.123l98.035-55.013l2.369-128.893l-100.405,57.968
			L59.742,263.09z"/>
		<path style="fill:#F7B073;" d="M8.832,122.306c-0.886,1.535-1.375,3.298-1.375,5.132v115.674c0,3.667,1.956,7.055,5.132,8.888
			l100.177,57.837c1.588,0.917,3.36,1.375,5.132,1.375V185.275L8.832,122.306z"/>
		<path style="fill:#FFFFFF;" d="M157.909,81.945l-108.96,62.908v61.183c0,2.132,1.177,4.09,3.059,5.09l19.533,10.381
			c3.84,2.041,8.47-0.742,8.47-5.09v-53.63l110.413-62.908L157.909,81.945z"/>
	</g>
	<path style="fill:#6864F7;" d="M213.761,475.467c-9.663,22.449-36.751,31.436-57.917,19.216h0
		c-21.166-12.22-26.927-40.173-12.317-59.766L246.54,296.764c4.566-6.124,3.704-14.708-1.971-19.822
		c-52.521-47.326-66.728-126.455-29.959-190.142c42.286-73.244,135.378-98.32,208.727-56.218
		c73.465,42.169,98.69,135.949,56.361,209.264c-36.785,63.713-112.462,90.972-179.729,69.101
		c-7.234-2.352-15.063,1.245-18.071,8.231L213.761,475.467z"/>
	
		<ellipse transform="matrix(0.7071 -0.7071 0.7071 0.7071 -11.7872 292.4748)" style="fill:#FFFFFF;" cx="347.155" cy="160.466" rx="112.043" ry="112.043"/>
	<path style="fill:#B1D952;" d="M395.878,137.15L395.878,137.15c-5.98-5.98-15.675-5.98-21.655,0l-32.483,32.483l-21.655-21.655
		c-5.98-5.98-15.675-5.98-21.655,0l0,0c-5.98,5.98-5.98,15.675,0,21.655L327.797,199c7.701,7.7,20.185,7.7,27.886,0l40.195-40.195
		C401.857,152.825,401.857,143.13,395.878,137.15z"/>
</g>
<path style="fill:#052A75;" d="M504.594,120.924c-11.345-42.127-38.434-77.291-76.278-99.014
	C390.528,0.22,346.635-5.507,304.724,5.781c-41.911,11.289-76.99,38.287-98.774,76.02c-2.357,4.082-4.528,8.256-6.511,12.505
	L129.022,53.72c-6.207-3.583-13.918-3.583-20.124,0c-0.033,0.019-0.066,0.039-0.099,0.058L6.259,114.547
	c-1.477,0.875-2.703,2.116-3.562,3.602C0.933,121.204,0,124.684,0,128.213v114.124c0,7.166,3.855,13.845,10.063,17.43l98.835,57.062
	c3.055,1.764,6.535,2.696,10.062,2.696c1.717,0,3.405-0.442,4.902-1.284l95.455-53.686c5.604,7.095,11.805,13.733,18.558,19.817
	c1.852,1.669,2.13,4.427,0.648,6.415L135.51,428.939c-8.669,11.626-11.962,26.44-9.035,40.644
	c2.927,14.203,11.809,26.508,24.369,33.759c7.805,4.506,16.589,6.807,25.426,6.807c5.382,0,10.785-0.854,15.996-2.582
	c13.764-4.567,24.947-14.826,30.681-28.146l68.138-158.288c0.964-2.243,3.51-3.419,5.793-2.675
	c34.982,11.375,73.308,10.447,107.918-2.61c35.098-13.242,64.775-38.457,83.564-71C510.173,207.063,515.939,163.053,504.594,120.924
	z M117.651,298.788l-97.587-56.342c-0.039-0.023-0.064-0.065-0.064-0.11l0.016-112.695l98.891-58.605
	c0.038-0.017,0.082-0.015,0.123,0.009l73.015,42.084c-7.934,24.551-10.017,50.834-5.808,76.496
	c3.408,20.778,10.828,40.632,21.625,58.425L117.651,298.788z M471.038,234.847c-33.577,58.156-104.222,85.319-167.978,64.591
	c-12.209-3.968-25.255,1.959-30.347,13.787l-68.137,158.287c0,0,0,0,0,0c-3.478,8.079-10.26,14.301-18.609,17.071
	c-8.349,2.769-17.506,1.836-25.123-2.562c-7.618-4.398-13.005-11.861-14.78-20.476c-1.775-8.615,0.222-17.6,5.479-24.652
	l103.013-138.152c7.694-10.318,6.278-24.604-3.293-33.229c-49.775-44.851-61.548-119.591-27.993-177.712
	c26.45-45.814,74.668-71.477,124.173-71.477c24.123,0,48.56,6.1,70.917,18.932c33.202,19.058,56.969,49.909,66.922,86.869
	C495.235,163.086,490.177,201.698,471.038,234.847z"/>
<g>
</g>
<g>
</g>
<g>
</g>
<g>
</g>
<g>
</g>
<g>
</g>
<g>
</g>
<g>
</g>
<g>
</g>
<g>
</g>
<g>
</g>
<g>
</g>
<g>
</g>
<g>
</g>
<g>
</g>
</svg>
