<?xml version="1.0" encoding="iso-8859-1"?>
<!-- Generator: Adobe Illustrator 26.5.1, SVG Export Plug-In . SVG Version: 6.00 Build 0)  -->
<svg version="1.1" id="Capa_1" xmlns="http://www.w3.org/2000/svg" xmlns:xlink="http://www.w3.org/1999/xlink" x="0px" y="0px"
	 viewBox="0 0 510 510" style="enable-background:new 0 0 510 510;" xml:space="preserve">
<g>
	<g>
		<g>
			<polygon style="fill-rule:evenodd;clip-rule:evenodd;fill:#D2DCFD;" points="10,179.167 144.999,314.166 144.999,454.167 
				214.999,414.167 214.999,314.166 349.998,179.167 349.998,119.167 10,119.167 			"/>
			
				<ellipse transform="matrix(0.7071 -0.7071 0.7071 0.7071 -128.1585 388.5977)" style="fill-rule:evenodd;clip-rule:evenodd;fill:#FDCB50;" cx="405" cy="349" rx="95" ry="95"/>
			<path style="fill-rule:evenodd;clip-rule:evenodd;fill:#FDCB50;" d="M29.999,119.167h100v-5c0-27.614-22.386-50-50-50
				s-50,22.386-50,50V119.167z"/>
			
				<ellipse transform="matrix(0.2898 -0.9571 0.9571 0.2898 23.3183 101.424)" style="fill-rule:evenodd;clip-rule:evenodd;fill:#FDBEB9;" cx="79.999" cy="35" rx="25" ry="25"/>
			<path style="fill-rule:evenodd;clip-rule:evenodd;fill:#BC9AF4;" d="M129.999,119.167h100v-5c0-27.614-22.386-50-50-50
				s-50,22.386-50,50V119.167z"/>
			
				<ellipse transform="matrix(0.7071 -0.7071 0.7071 0.7071 27.9717 137.5297)" style="fill-rule:evenodd;clip-rule:evenodd;fill:#D46B5C;" cx="179.999" cy="35" rx="25" ry="25"/>
			<path style="fill-rule:evenodd;clip-rule:evenodd;fill:#FD6050;" d="M229.999,119.167h100v-5c0-27.614-22.386-50-50-50
				c-27.614,0-50,22.386-50,50V119.167z"/>
			
				<ellipse transform="matrix(0.7071 -0.7071 0.7071 0.7071 57.2611 208.2405)" style="fill-rule:evenodd;clip-rule:evenodd;fill:#FDBEB9;" cx="279.999" cy="35" rx="25" ry="25"/>
			<path style="fill-rule:evenodd;clip-rule:evenodd;fill:#93B2F4;" d="M10,179.167L129.433,298.6
				c-18.577-41.72-28.918-87.916-28.918-136.532c0-14.534,0.924-28.853,2.714-42.901H10V179.167z"/>
			<polygon style="fill-rule:evenodd;clip-rule:evenodd;fill:#FFFFFF;" points="10,174.167 100.945,179.167 349.998,179.167 
				349.998,119.167 10,119.167 			"/>
			<path style="fill-rule:evenodd;clip-rule:evenodd;fill:#D2DCFD;" d="M10,179.167h90.945c-0.284-5.664-0.43-11.365-0.43-17.099
				c0-14.534,0.924-28.853,2.714-42.901H10V179.167z"/>
		</g>
		<g>
			<path style="fill:#FD6050;" d="M405,510h-225c-5.523,0-10-4.477-10-10v-62.833c0-5.523,4.477-10,10-10s10,4.477,10,10V490h205
				v-43c0-5.523,4.477-10,10-10s10,4.477,10,10v53C415,505.523,410.523,510,405,510z"/>
		</g>
		<g>
			<path style="fill:#FD6050;" d="M405,259.75c-5.523,0-10-4.477-10-10V59.142l-7.929,7.929c-3.905,3.905-10.237,3.905-14.143,0
				s-3.905-10.237,0-14.143l25-25c3.905-3.905,10.237-3.905,14.143,0l25,25c3.905,3.905,3.905,10.237,0,14.143
				s-10.237,3.905-14.143,0L415,59.142V249.75C415,255.273,410.523,259.75,405,259.75z"/>
		</g>
		<g>
			<path style="fill:#FFFFFF;" d="M405,409c-5.523,0-10-4.477-10-10v-4.288c-0.939-0.279-1.868-0.608-2.786-0.988l-4.899-2.029
				c-5.102-2.114-7.525-7.963-5.412-13.066c2.114-5.102,7.964-7.525,13.066-5.412l4.899,2.029c1.982,0.821,4.183,0.812,6.196-0.021
				c2.013-0.833,3.574-2.384,4.395-4.366c1.71-4.13-0.257-8.882-4.386-10.592l-9.798-4.058c-6.918-2.865-12.312-8.27-15.191-15.219
				c-2.878-6.949-2.885-14.586-0.02-21.504c2.686-6.486,7.605-11.633,13.937-14.623V299c0-5.523,4.477-10,10-10s10,4.477,10,10
				v4.287c0.939,0.279,1.868,0.608,2.785,0.988l4.9,2.03c5.102,2.114,7.525,7.963,5.412,13.066s-7.962,7.526-13.066,5.412
				l-4.899-2.029c-1.981-0.821-4.182-0.814-6.196,0.021c-2.013,0.833-3.574,2.384-4.395,4.366c-0.822,1.983-0.814,4.184,0.02,6.197
				c0.833,2.013,2.384,3.574,4.366,4.395l9.798,4.058c14.318,5.931,21.142,22.404,15.212,36.723
				c-2.687,6.487-7.605,11.634-13.937,14.624V399C415,404.523,410.523,409,405,409z"/>
		</g>
	</g>
	<g>
		<path style="fill:#052A75;" d="M359.998,179.167v-60c0-5.523-4.477-10-10-10h-10.205c-1.828-22.061-15.644-40.773-34.899-49.589
			c6.245-6.325,10.105-15.009,10.105-24.578c0-19.299-15.701-35-35-35s-35,15.701-35,35c0,9.569,3.861,18.253,10.105,24.578
			c-10.232,4.685-18.928,12.164-25.106,21.456c-6.177-9.292-14.873-16.771-25.105-21.456c6.245-6.325,10.105-15.009,10.105-24.578
			c0-19.299-15.701-35-35-35s-35,15.701-35,35c0,9.569,3.861,18.253,10.105,24.578c-10.232,4.685-18.928,12.164-25.105,21.455
			c-6.177-9.291-14.874-16.771-25.105-21.455c6.245-6.325,10.105-15.009,10.105-24.578c0-19.299-15.701-35-35-35s-35,15.701-35,35
			c0,9.569,3.861,18.253,10.105,24.578c-19.255,8.816-33.071,27.528-34.899,49.589H10c-5.523,0-10,4.477-10,10v60
			c0,2.652,1.054,5.196,2.929,7.071l132.07,132.07v135.859c0,3.565,1.897,6.86,4.981,8.649c1.551,0.9,3.285,1.351,5.019,1.351
			c1.712,0,3.424-0.439,4.961-1.317l70-40c3.116-1.781,5.039-5.094,5.039-8.683v-95.858l132.07-132.07
			C358.944,184.363,359.998,181.819,359.998,179.167z M279.999,20c8.271,0,15,6.729,15,15s-6.729,15-15,15s-15-6.729-15-15
			S271.728,20,279.999,20z M279.999,74.167c20.363,0,37.22,15.295,39.688,35h-79.377C242.779,89.461,259.636,74.167,279.999,74.167z
			 M179.999,20c8.271,0,15,6.729,15,15s-6.729,15-15,15c-8.271,0-15-6.729-15-15S171.728,20,179.999,20z M179.999,74.167
			c20.363,0,37.22,15.295,39.688,35h-79.377C142.779,89.461,159.636,74.167,179.999,74.167z M79.999,20c8.271,0,15,6.729,15,15
			s-6.729,15-15,15s-15-6.729-15-15S71.728,20,79.999,20z M79.999,74.167c20.363,0,37.221,15.295,39.689,35H40.311
			C42.779,89.461,59.636,74.167,79.999,74.167z M339.998,175.025l-39.142,39.142h-45.857c-5.523,0-10,4.477-10,10s4.477,10,10,10
			h25.857l-25,25h-45.857c-5.523,0-10,4.477-10,10s4.477,10,10,10h25.857l-27.929,27.929c-1.875,1.875-2.929,4.418-2.929,7.071
			v94.197l-50,28.572V314.166c0-2.652-1.054-5.196-2.929-7.071L20,175.025v-45.858h319.998V175.025z"/>
		<path style="fill:#052A75;" d="M405,244c-57.897,0-105,47.103-105,105s47.103,105,105,105s105-47.103,105-105S462.897,244,405,244
			z M405,434c-46.869,0-85-38.131-85-85s38.131-85,85-85s85,38.131,85,85S451.869,434,405,434z"/>
	</g>
</g>
<g>
</g>
<g>
</g>
<g>
</g>
<g>
</g>
<g>
</g>
<g>
</g>
<g>
</g>
<g>
</g>
<g>
</g>
<g>
</g>
<g>
</g>
<g>
</g>
<g>
</g>
<g>
</g>
<g>
</g>
</svg>
