<?xml version="1.0" encoding="iso-8859-1"?>
<!-- Generator: Adobe Illustrator 26.5.1, SVG Export Plug-In . SVG Version: 6.00 Build 0)  -->
<svg version="1.1" id="Capa_1" xmlns="http://www.w3.org/2000/svg" xmlns:xlink="http://www.w3.org/1999/xlink" x="0px" y="0px"
	 viewBox="0 0 510 510" style="enable-background:new 0 0 510 510;" xml:space="preserve">
<g>
	<g>
		<g>
			<path style="fill-rule:evenodd;clip-rule:evenodd;fill:#D2DCFD;" d="M474.964,255H35.2l0.236,0.41
				C95.444,310.816,121.251,425.681,121.251,500c89.166,0,178.332,0,267.498,0c0-74.317,25.803-189.182,85.806-244.591L474.964,255z
				"/>
			<path style="fill-rule:evenodd;clip-rule:evenodd;fill:#93B2F4;" d="M474.964,255H35.2l0.236,0.41
				c13.319,12.298,24.949,27.528,34.99,44.59h369.143c10.04-17.062,21.669-32.293,34.986-44.59L474.964,255z"/>
			<path style="fill-rule:evenodd;clip-rule:evenodd;fill:#FDCB50;" d="M255.234,200C307.594,199.873,350,157.389,350,105
				c0-52.467-42.533-95-95-95s-95,42.533-95,95c0,52.389,42.406,94.873,94.765,95H255.234z"/>
			
				<ellipse transform="matrix(0.7071 -0.7071 0.7071 0.7071 -211.6906 298.9338)" style="fill-rule:evenodd;clip-rule:evenodd;fill:#FDCB50;" cx="255" cy="405" rx="95" ry="95"/>
			<path style="fill-rule:evenodd;clip-rule:evenodd;fill:#FFFFFF;" d="M10,255h490v-55H255.234c-0.078,0-0.156,0-0.235,0
				c-0.078,0-0.156,0-0.235,0H10V255z"/>
		</g>
		<g>
			<path style="fill:#FD6050;" d="M430,160c-2.559,0-5.119-0.976-7.071-2.929l-25-25c-3.905-3.905-3.905-10.237,0-14.143
				s10.237-3.905,14.143,0l7.929,7.929V60c0-5.523,4.477-10,10-10s10,4.477,10,10v65.858l7.929-7.929
				c3.905-3.905,10.237-3.905,14.143,0s3.905,10.237,0,14.143l-25,25C435.119,159.023,432.559,160,430,160z M80,160
				c-2.559,0-5.119-0.976-7.071-2.929l-25-25c-3.905-3.905-3.905-10.237,0-14.143c3.905-3.905,10.238-3.905,14.142,0L70,125.857V60
				c0-5.523,4.477-10,10-10s10,4.477,10,10v65.858l7.929-7.929c3.905-3.905,10.238-3.905,14.142,0
				c3.905,3.905,3.905,10.237,0,14.143l-25,25C85.118,159.023,82.559,160,80,160z"/>
		</g>
		<g>
			<path style="fill:#FFFFFF;" d="M255,165c-5.523,0-10-4.477-10-10v-4.288c-0.939-0.279-1.868-0.608-2.786-0.988l-4.899-2.029
				c-5.102-2.114-7.525-7.963-5.412-13.066c2.114-5.102,7.962-7.525,13.066-5.412l4.899,2.029c1.981,0.821,4.182,0.814,6.196-0.02
				c2.013-0.834,3.574-2.385,4.395-4.367c1.711-4.13-0.257-8.881-4.386-10.592l-9.798-4.059
				c-14.319-5.931-21.142-22.405-15.211-36.723c2.773-6.694,7.852-11.751,13.937-14.631V55c0-5.523,4.477-10,10-10s10,4.477,10,10
				v4.288c0.936,0.277,1.864,0.605,2.785,0.987l4.9,2.03c5.102,2.114,7.525,7.963,5.412,13.066s-7.961,7.526-13.066,5.412
				l-4.899-2.029c-4.13-1.713-8.881,0.258-10.591,4.388c-1.71,4.13,0.257,8.881,4.387,10.591l9.799,4.059
				c14.318,5.931,21.141,22.404,15.21,36.722c-2.686,6.486-7.605,11.634-13.937,14.624V155C265,160.523,260.522,165,255,165z"/>
		</g>
		<g>
			<path style="fill:#FFFFFF;" d="M255,465c-5.523,0-10-4.477-10-10v-4.287c-0.939-0.279-1.868-0.608-2.786-0.988l-4.899-2.029
				c-5.102-2.114-7.525-7.963-5.412-13.066c2.114-5.102,7.962-7.525,13.066-5.412l4.899,2.029c1.981,0.82,4.183,0.813,6.196-0.021
				s3.574-2.385,4.395-4.367c1.711-4.13-0.257-8.881-4.386-10.592l-9.798-4.059c-14.318-5.931-21.142-22.405-15.211-36.722
				c2.772-6.695,7.852-11.751,13.937-14.632V355c0-5.523,4.477-10,10-10s10,4.477,10,10v4.289c0.936,0.277,1.864,0.605,2.785,0.987
				l4.9,2.03c5.102,2.114,7.525,7.963,5.412,13.066s-7.961,7.525-13.066,5.412l-4.899-2.029c-4.13-1.712-8.882,0.257-10.591,4.387
				c-1.71,4.129,0.257,8.881,4.387,10.591l9.799,4.059c14.318,5.931,21.141,22.404,15.21,36.722
				c-2.686,6.486-7.605,11.634-13.937,14.624V455C265,460.523,260.522,465,255,465z"/>
		</g>
	</g>
	<path style="fill:#052A75;" d="M500,190H316.58c26.293-19.101,43.42-50.088,43.42-85C360,47.103,312.897,0,255,0
		S150,47.103,150,105c0,34.912,17.127,65.899,43.42,85H10c-5.523,0-10,4.477-10,10v55c0,5.523,4.477,10,10,10h21.025
		c52.681,50.968,80.226,156.179,80.226,235c0,5.523,4.477,10,10,10s10-4.477,10-10c0-17.435-1.346-36.076-3.893-55.001h30.558
		c5.097,12.327,12.477,23.479,21.609,32.927c0.229,7.622,0.346,15.037,0.346,22.074c0,5.523,4.477,10,10,10s10-4.477,10-10
		c0-1.87-0.008-3.765-0.024-5.682C215.885,504.257,234.784,510,255,510s39.115-5.743,55.153-15.682
		c-0.016,1.917-0.024,3.813-0.024,5.682c0,5.523,4.477,10,10,10s10-4.477,10-10c0-7.036,0.116-14.451,0.346-22.074
		c9.132-9.448,16.511-20.6,21.609-32.927h30.558c-2.546,18.925-3.892,37.566-3.892,55.001c0,5.523,4.477,10,10,10s10-4.477,10-10
		c0-78.821,27.542-184.032,80.217-235H500c5.523,0,10-4.477,10-10v-55C510,194.477,505.523,190,500,190z M170,105
		c0-46.869,38.131-85,85-85s85,38.13,85,85c0,46.819-38.049,84.918-84.849,85h-0.303C208.049,189.917,170,151.819,170,105z
		 M327.404,329.024c-16.585-15.813-38.323-26.267-62.405-28.552V265h81.379C339.154,282.212,332.804,303.639,327.404,329.024z
		 M245,300.472c-24.081,2.286-45.819,12.74-62.404,28.552c-5.4-25.386-11.751-46.815-18.974-64.025H245V300.472z M141.712,265
		c8.235,17.249,15.634,41.142,21.696,70H98.703c-9.617-23.471-22.799-48.656-40.497-70H141.712z M124.237,424.999
		c-3.457-19.49-8.123-38.939-13.841-57.352c-1.259-4.056-2.641-8.286-4.151-12.647h56.442C154.598,369.874,150,386.91,150,405
		c0,6.837,0.657,13.523,1.911,19.999H124.237z M255,490c-46.869,0-85-38.131-85-85s38.131-85,85-85s85,38.131,85,85
		S301.869,490,255,490z M358.089,424.999C359.343,418.523,360,411.837,360,405c0-18.09-4.598-35.126-12.688-50h56.439
		c-1.51,4.362-2.892,8.593-4.151,12.649c-5.717,18.413-10.382,37.86-13.838,57.35H358.089z M411.294,335h-64.702
		c6.062-28.862,13.458-52.748,21.696-70h83.499C434.09,286.344,420.91,311.529,411.294,335z M490,245H20v-35h234.845
		c0.052,0,0.103,0,0.155,0s0.103,0,0.155,0H490V245z"/>
</g>
<g>
</g>
<g>
</g>
<g>
</g>
<g>
</g>
<g>
</g>
<g>
</g>
<g>
</g>
<g>
</g>
<g>
</g>
<g>
</g>
<g>
</g>
<g>
</g>
<g>
</g>
<g>
</g>
<g>
</g>
</svg>
