<?xml version="1.0" encoding="iso-8859-1"?>
<!-- Generator: Adobe Illustrator 27.0.0, SVG Export Plug-In . SVG Version: 6.00 Build 0)  -->
<svg version="1.1" id="Capa_1" xmlns="http://www.w3.org/2000/svg" xmlns:xlink="http://www.w3.org/1999/xlink" x="0px" y="0px"
	 viewBox="0 0 512 512" style="enable-background:new 0 0 512 512;" xml:space="preserve">
<g>
	<g>
		<path style="fill:#FD6050;" d="M212.19,394.648h-43.635l-20.831-32.477l20.831-32.477h43.635c8.957,0,16.218,7.261,16.218,16.218
			v32.518C228.407,387.388,221.146,394.648,212.19,394.648z"/>
		<path style="fill:#B1D952;" d="M502,500.996H250.647v-45.516c0-28.688,23.256-51.944,51.944-51.944h147.466
			c28.688,0,51.944,23.256,51.944,51.944V500.996z"/>
		<path style="fill:#91B706;" d="M372.523,403.537h-69.921c-28.694,0-51.954,23.251-51.954,51.933v45.526h193.164
			C410.542,477.332,385.196,443.262,372.523,403.537z"/>
		<path style="fill:#F7B073;" d="M420.544,403.537c-15.655-6.053-17.61-24.119-17.61-53.845h-53.221
			c0,29.504-1.955,47.791-17.61,53.845l10.359,13.345c18.109,20.072,49.614,20.072,67.723,0L420.544,403.537z"/>
		<path style="fill:#FDE0BE;" d="M376.341,367.687h0.062c42.206,0,76.421-34.215,76.421-76.421v-68.807H299.92v68.807
			C299.92,333.472,334.135,367.687,376.341,367.687z"/>
		<path style="fill:#F7B073;" d="M346.926,259.637c0-12.713,1.215-25.142,3.534-37.178h-50.54v68.807
			c0,42.206,34.229,76.421,76.452,76.421h0c1.033,0,2.062-0.021,3.086-0.062C358.902,336.688,346.926,299.561,346.926,259.637z"/>
		<path style="fill:#BC9AF4;" d="M301.98,181.129c13.31-12.441,39.687-17.209,60.566-21.451c24.622-5.003,24.637-0.694,34.14,1.988
			c22.088-16.195,70.491,15.237,70.491,42.357c0,48.673-14.352,88.521-14.352,88.521s0-6.446,0-13.808
			c0-73.239-44.253-5.814-134.144-48.72c-24.798-11.836-18.76,62.696-18.76,62.696S277.567,203.948,301.98,181.129z"/>
		<path style="fill:#6864F7;" d="M375.653,157.606c-3.409,0.313-7.655,0.964-13.108,2.072c-20.879,4.242-47.256,9.01-60.566,21.451
			c-24.412,22.818-2.06,111.583-2.06,111.583s-6.038-74.532,18.76-62.696c10.314,4.923,20.027,8.393,29.142,10.79
			C350.718,210.525,360.527,182.26,375.653,157.606z"/>
		<polygon style="fill:#FFFFFF;" points="168.555,394.648 46.71,451.639 46.71,272.704 168.555,329.695 		"/>
		<path style="fill:#D2DCFD;" d="M86.084,291.121L46.71,272.704v178.935l99.082-46.344
			C114.417,375.645,92.757,335.83,86.084,291.121z"/>
		<path style="fill:#67CCD1;" d="M190.071,500.996h-0.018c-11.873,0-21.499-9.625-21.499-21.499v-84.849h43.015v84.849
			C211.57,491.371,201.945,500.996,190.071,500.996z"/>
		<ellipse style="fill:#BC9AF4;" cx="133" cy="110.492" rx="123" ry="99.489"/>
		<path style="fill:#DB4B86;" d="M46.71,384.798H32.627C20.13,384.798,10,374.668,10,362.172v0c0-12.496,10.13-22.627,22.627-22.627
			H46.71V384.798z"/>
		<ellipse style="fill:#6864F7;" cx="226.526" cy="245.974" rx="20.818" ry="20.809"/>
	</g>
	<g>
		<g>
			<g>
				<g>
					<path style="fill:#FFFFFF;" d="M109.945,164.913c-1.585,0-3.193-0.378-4.691-1.175c-4.875-2.595-6.723-8.651-4.127-13.526
						l47.297-88.836c2.596-4.875,8.65-6.722,13.527-4.127c4.875,2.596,6.723,8.652,4.127,13.527l-47.297,88.836
						C116.983,162.988,113.522,164.913,109.945,164.913z"/>
				</g>
			</g>
			<g>
				<path style="fill:#FFFFFF;" d="M163.19,151.82c-4.121,0-7.907-2.634-9.36-6.482c-1.489-3.943-0.269-8.593,3.015-11.251
					c3.293-2.666,8.008-3.01,11.621-0.762c3.593,2.236,5.425,6.641,4.454,10.765C171.868,148.556,167.787,151.82,163.19,151.82z"/>
			</g>
			<g>
				<path style="fill:#FFFFFF;" d="M102.81,91.08c-4.239,0-8.097-2.788-9.46-6.789c-1.327-3.895-0.063-8.329,3.12-10.94
					c3.272-2.684,8.021-3.009,11.617-0.767c3.492,2.178,5.346,6.401,4.533,10.446C111.692,87.644,107.527,91.08,102.81,91.08z"/>
			</g>
		</g>
		<g>
			<g>
				<path style="fill:#FFFFFF;" d="M305.98,507.699c-5.523,0-10-4.477-10-10v-35.972c0-5.523,4.477-10,10-10s10,4.477,10,10v35.972
					C315.98,503.222,311.503,507.699,305.98,507.699z"/>
			</g>
			<g>
				<path style="fill:#FFFFFF;" d="M445.326,507.699c-5.523,0-10-4.477-10-10v-35.972c0-5.523,4.477-10,10-10s10,4.477,10,10v35.972
					C455.326,503.222,450.849,507.699,445.326,507.699z"/>
			</g>
		</g>
		<g>
			<path style="fill:#052A75;" d="M212.186,319.695h-41.408L56.71,266.342v-10.722c0-5.523-4.477-10-10-10s-10,4.477-10,10v213.105
				c0,5.523,4.477,10,10,10s10-4.477,10-10v-10.722l101.844-47.636v69.131c0,17.369,14.13,31.499,31.499,31.499h0.018
				c17.368,0,31.499-14.13,31.499-31.499v-76.584c9.837-3.782,16.837-13.328,16.837-24.479v-32.525
				C238.407,331.455,226.645,319.695,212.186,319.695z M56.71,288.421l107.607,50.332c1.326,0.62,2.772,0.942,4.237,0.942h43.631
				c3.43,0,6.221,2.788,6.221,6.214v32.525c0,3.427-2.791,6.214-6.221,6.214h-43.631c-0.09,0-0.18,0.001-0.269,0.004
				c-0.015,0-0.03,0.001-0.045,0.002c-0.077,0.002-0.153,0.005-0.229,0.01c-0.009,0-0.018,0.001-0.027,0.002
				c-0.084,0.005-0.167,0.01-0.251,0.017c-0.001,0-0.001,0-0.002,0c-1.276,0.104-2.484,0.447-3.579,0.985L56.71,435.922V288.421z
				 M201.57,479.497c0,6.341-5.158,11.499-11.499,11.499h-0.018c-6.341,0-11.499-5.158-11.499-11.499v-74.849h23.015V479.497z"/>
			<path style="fill:#052A75;" d="M450.046,393.537h-27.38c-4.765-2.52-8-8.185-9.188-24.222
				c28.268-13.484,48.111-41.872,49.29-74.93c2.71-8.035,14.408-45.331,14.408-90.362c0-20.757-19.697-40.194-37.998-49.469
				c-16.319-8.27-31.846-9.58-43.568-3.871c-0.136-0.056-0.274-0.112-0.413-0.169c-7.774-3.196-13.985-4.833-34.644-0.636
				l-3.387,0.685c-22.193,4.476-47.348,9.549-62.016,23.26c-12.703,11.874-17.055,35.641-13.305,72.662
				c2.299,22.698,6.963,42.84,8.12,47.625c1.077,33.136,20.907,61.616,49.2,75.157c-1.198,16.052-4.529,21.776-9.194,24.269h-27.371
				c-34.162,0-61.954,27.783-61.954,61.933v45.526c0,5.523,4.477,10,10,10H502c5.523,0,10-4.477,10-10V455.47
				C512,421.32,484.208,393.537,450.046,393.537z M308.808,188.435c10.524-9.838,33.695-14.511,52.313-18.266l3.416-0.69
				c16.188-3.289,19.07-2.105,23.058-0.465c1.656,0.681,3.716,1.527,6.375,2.278c2.963,0.835,6.145,0.26,8.628-1.56
				c5.618-4.118,16.17-3.098,27.54,2.664c15.162,7.684,27.039,21.577,27.039,31.629c0,13.6-1.18,26.534-2.849,38.029
				c-0.867-1.069-1.806-2.051-2.819-2.956c-5.883-5.251-13.099-6.782-21.309-6.782c-5.413,0-11.258,0.666-17.438,1.369
				c-21.527,2.452-51.012,5.809-89.773-12.692c-9.306-4.441-16.172-1.33-19.437,0.918c-1.048,0.722-2.034,1.556-2.96,2.507
				C300.46,207.876,302.711,194.134,308.808,188.435z M309.92,291.266c0-0.706-0.869-15.454-0.495-25.105
				c0.726-18.676,3.723-25.181,4.972-27.107c43.926,20.958,78.046,17.073,100.626,14.502c10.78-1.227,20.087-2.287,23.167,0.462
				c1.731,1.545,4.635,6.811,4.635,24.719v12.529c0,36.625-29.811,66.421-66.453,66.421
				C339.73,357.687,309.92,327.891,309.92,291.266z M376.372,377.687c6.037,0,11.931-0.622,17.622-1.805
				c1.32,11.774,4.393,22.63,12.015,30.071l-3.483,4.488c-6.817,7.417-16.108,11.496-26.203,11.496
				c-10.094,0-19.385-4.08-26.202-11.496l-3.508-4.519c7.733-7.61,10.742-18.704,12.028-30.062
				C364.366,377.057,370.297,377.687,376.372,377.687z M492,490.996H260.647V455.47c0-23.122,18.82-41.933,41.954-41.933h24.605
				l7.357,9.477c0.151,0.195,0.31,0.384,0.475,0.567c10.524,11.665,25.572,18.355,41.286,18.355c0.001,0,0,0,0,0
				c15.713,0,30.763-6.691,41.286-18.355c0.165-0.183,0.323-0.372,0.475-0.567l7.357-9.477h24.605
				c23.134,0,41.954,18.811,41.954,41.933V490.996z"/>
			<path style="fill:#052A75;" d="M133,219.981c35.136,0,68.257-11.139,93.263-31.365C251.888,167.89,266,140.145,266,110.492
				s-14.112-57.397-39.737-78.124C201.257,12.143,168.136,1.004,133,1.004S64.743,12.143,39.737,32.368
				C14.112,53.095,0,80.84,0,110.492s14.112,57.397,39.737,78.124C64.743,208.842,97.864,219.981,133,219.981z M20,110.492
				c0-49.344,50.691-89.488,113-89.488s113,40.144,113,89.488s-50.691,89.489-113,89.489S20,159.836,20,110.492z"/>
		</g>
	</g>
</g>
<g>
</g>
<g>
</g>
<g>
</g>
<g>
</g>
<g>
</g>
<g>
</g>
<g>
</g>
<g>
</g>
<g>
</g>
<g>
</g>
<g>
</g>
<g>
</g>
<g>
</g>
<g>
</g>
<g>
</g>
</svg>
