<?xml version="1.0" encoding="iso-8859-1"?>
<!-- Generator: Adobe Illustrator 27.2.0, SVG Export Plug-In . SVG Version: 6.00 Build 0)  -->
<svg version="1.1" id="Capa_1" xmlns="http://www.w3.org/2000/svg" xmlns:xlink="http://www.w3.org/1999/xlink" x="0px" y="0px"
	 viewBox="0 0 502 502" style="enable-background:new 0 0 502 502;" xml:space="preserve">
<g>
	<g>
		<g>
			<path style="fill:#B1D952;" d="M186.733,90.333c-44.367,0-80.333,35.967-80.333,80.333v64.267h160.667v-64.267
				C267.067,126.3,231.1,90.333,186.733,90.333z"/>
			<path style="fill:#91B706;" d="M204.6,170.667c0-27.614-22.386-50-50-50H123.88c-10.931,13.723-17.48,31.092-17.48,50v64.267
				h98.2V170.667z"/>
			<polygon style="fill:#D46B5C;" points="331.333,234.933 10,234.933 10,299.2 42.133,299.2 42.133,492 347.4,492 347.4,299.2 			
				"/>
			<rect x="42.133" y="299.2" style="fill:#B55348;" width="304.302" height="47.148"/>
			
				<ellipse transform="matrix(0.2298 -0.9732 0.9732 0.2298 95.0062 220.3788)" style="fill:#FDBEB9;" cx="186.733" cy="50.167" rx="40.167" ry="40.167"/>
			<rect x="10" y="170.667" style="fill:#FFFFFF;" width="144.6" height="64.267"/>
		</g>
		<g>
			<path style="fill:#FDCB50;" d="M347.4,283.133h128.533c0,0,0,0,0.001-0.001C486.221,272.846,492,258.894,492,244.346
				c0-28.5,0-73.679,0-73.679c0-44.367-35.967-80.333-80.333-80.333s-80.333,35.967-80.333,80.333v73.679
				C331.333,258.894,337.112,272.846,347.4,283.133C347.4,283.133,347.4,283.133,347.4,283.133z"/>
			
				<ellipse transform="matrix(0.7071 -0.7071 0.7071 0.7071 85.1012 305.7858)" style="fill:#FDBEB9;" cx="411.667" cy="50.167" rx="40.167" ry="40.167"/>
			<rect x="347.4" y="283.133" style="fill:#93B2F4;" width="128.533" height="208.867"/>
			<path style="fill:#FD8F01;" d="M492,235.6v8.75c0,7.27-1.44,14.39-4.18,20.99c-2.73,6.59-6.74,12.65-11.89,17.79H347.4
				c-10.29-10.28-16.07-24.24-16.07-38.78v-73.68c0-30.24,16.71-56.57,41.39-70.28c-3.46,10.84-5.34,22.48-5.34,34.61
				c0,58.09,43.15,105.19,96.39,105.19C473.59,240.19,483.07,238.59,492,235.6z"/>
		</g>
	</g>
	<path style="fill:#052A75;" d="M475.934,502c5.522,0,10-4.478,10-10V287.054C496.316,275.227,502,260.227,502,244.346v-73.679
		c0-37.78-23.316-70.212-56.31-83.677c9.918-9.171,16.143-22.281,16.143-36.824C461.833,22.505,439.329,0,411.667,0
		C384.005,0,361.5,22.505,361.5,50.167c0,14.542,6.225,27.653,16.144,36.824c-32.995,13.465-56.311,45.896-56.311,83.677v54.267
		h-44.267v-54.267c0-37.78-23.315-70.211-56.31-83.676c9.919-9.171,16.144-22.282,16.144-36.824C236.9,22.505,214.395,0,186.733,0
		s-50.167,22.505-50.167,50.167c0,14.542,6.225,27.653,16.144,36.824c-30.043,12.26-52.055,40.246-55.754,73.676H10
		c-5.523,0-10,4.477-10,10v64.267V299.2c0,5.522,4.477,10,10,10h22.133V492c0,5.522,4.478,10,10,10H475.934z M381.5,50.167
		C381.5,33.533,395.033,20,411.667,20c16.634,0,30.166,13.533,30.166,30.167s-13.532,30.166-30.166,30.166
		C395.033,80.333,381.5,66.801,381.5,50.167z M341.333,170.667c0-38.782,31.552-70.334,70.334-70.334S482,131.885,482,170.667
		v73.679c0,10.647-3.685,20.728-10.452,28.787H351.785c-6.768-8.059-10.452-18.14-10.452-28.787V170.667z M156.566,50.167
		C156.566,33.533,170.1,20,186.733,20S216.9,33.533,216.9,50.167s-13.533,30.166-30.167,30.166S156.566,66.801,156.566,50.167z
		 M186.733,100.333c38.782,0,70.333,31.552,70.333,70.334v54.267H164.6v-54.267c0-5.523-4.477-10-10-10h-37.476
		C121.995,126.606,151.347,100.333,186.733,100.333z M20,180.667h124.6v44.267H20V180.667z M321.347,244.934
		c0.139,15.663,5.799,30.44,16.053,42.12v2.147H42.133H20v-44.267H321.347z M52.133,309.2H337.4V482H52.133V309.2z M465.934,482
		h-44.267V347.4c0-5.522-4.477-10-10-10c-5.522,0-10,4.478-10,10V482H357.4V293.133h108.533V482z"/>
</g>
<g>
</g>
<g>
</g>
<g>
</g>
<g>
</g>
<g>
</g>
<g>
</g>
<g>
</g>
<g>
</g>
<g>
</g>
<g>
</g>
<g>
</g>
<g>
</g>
<g>
</g>
<g>
</g>
<g>
</g>
</svg>
