<svg enable-background="new 0 0 512 512" viewBox="0 0 512 512" xmlns="http://www.w3.org/2000/svg"><g id="guides"/><g id="fill"><path d="m406 436c0 16.5-13.5 30-30 30h-240c-16.5 0-30-13.5-30-30v-360c0-16.5 13.5-30 30-30h240c16.5 0 30 13.5 30 30z" fill="#cadff4"/><path d="m376 456h-240c-16.5 0-30-13.5-30-30v10c0 16.5 13.5 30 30 30h240c16.5 0 30-13.5 30-30v-10c0 16.5-13.5 30-30 30z" fill="#87b6dd"/><path d="m136 56h240c16.5 0 30 13.5 30 30v-10c0-16.5-13.5-30-30-30h-240c-16.5 0-30 13.5-30 30v10c0-16.5 13.5-30 30-30z" fill="#def4fc"/><path d="m231 56h5v410h-5z" fill="#87b6dd"/><path d="m206 56h5v410h-5z" fill="#def4fc"/><path d="m121 206h45v50h-45z" fill="#def4fc"/><path d="m121 206h45v5h-45z" fill="#87b6dd"/></g><g id="outline"><g><path d="m416 436c0 22-18 40-40 40h-240c-22 0-40-18-40-40v-360c0-22 18-40 40-40h240c22 0 40 18 40 40z" fill="none" stroke="#00476b" stroke-miterlimit="10" stroke-width="20"/></g><g fill="none" stroke="#00476b" stroke-miterlimit="10"><path d="m221 36v440" stroke-width="20"/><path d="m186 156v100" stroke-linecap="round" stroke-linejoin="round" stroke-width="10"/><path d="m256 156v100" stroke-linecap="round" stroke-linejoin="round" stroke-width="10"/></g></g></svg>