<?xml version="1.0" encoding="iso-8859-1"?>
<!-- Generator: Adobe Illustrator 29.3.1, SVG Export Plug-In . SVG Version: 9.03 Build 55982)  -->
<svg version="1.1" id="Capa_1" xmlns="http://www.w3.org/2000/svg" xmlns:xlink="http://www.w3.org/1999/xlink" x="0px" y="0px"
	 viewBox="0 0 512 512" style="enable-background:new 0 0 512 512;" xml:space="preserve">
<g>
	<g>
		<rect x="364.433" y="157.608" style="fill:#FD7DA0;" width="88.359" height="300.213"/>
		<rect x="211.82" y="235.369" style="fill:#FDCB50;" width="88.359" height="222.451"/>
		<rect x="59.208" y="295.614" style="fill:#67CCD1;" width="88.359" height="162.206"/>
		<path style="fill:#27A2CC;" d="M59.208,337.514V457.82h88.359v-52.855C106.891,401.33,72.94,374.35,59.208,337.514z"/>
		<path style="fill:#FDCB50;" d="M211.82,457.82V235.369h88.359V457.82H211.82z"/>
		<path style="fill:#FD8F01;" d="M211.82,307.514V457.82h88.359v-82.855C259.504,371.33,225.553,344.35,211.82,307.514z"/>
		<rect x="364.433" y="157.608" style="fill:#FD7DA0;" width="88.359" height="300.213"/>
		<path style="fill:#DB4B86;" d="M364.433,277.514V457.82h88.359V344.966C412.116,341.33,378.165,314.35,364.433,277.514z"/>
		<rect x="10" y="457.82" style="fill:#6864F7;" width="492" height="44.18"/>
		<path style="fill:#BC9AF4;" d="M201.995,90.327l18.905,18.905l0,0c-53.124,53.124-125.177,82.97-200.306,82.97H10v44.18h28.894
			c75.129,0,147.181-29.845,200.306-82.969l12.94-12.94l18.905,18.905v-69.05H201.995z"/>
		<circle style="fill:#B1D952;" cx="408.613" cy="103.387" r="93.387"/>
	</g>
	<g>
		<path style="fill:#052A75;" d="M502,447.82h-39.208V191.405C492.296,173.177,512,140.542,512,103.387
			C512,46.379,465.62,0,408.612,0S305.226,46.379,305.226,103.387c0,37.155,19.704,69.789,49.207,88.017V447.82H310.18V235.369
			c0-5.523-4.478-10-10-10H211.82c-5.523,0-10,4.477-10,10V447.82h-44.253V295.614c0-5.523-4.477-10-10-10H59.208
			c-5.523,0-10,4.477-10,10V447.82H10c-5.523,0-10,4.477-10,10V502c0,5.523,4.477,10,10,10h492c5.522,0,10-4.477,10-10v-44.18
			C512,452.297,507.522,447.82,502,447.82z M325.226,103.387c0-45.98,37.407-83.387,83.387-83.387
			C454.593,20,492,57.407,492,103.387s-37.407,83.388-83.388,83.388C362.633,186.775,325.226,149.367,325.226,103.387z
			 M374.433,200.961c10.705,3.761,22.206,5.814,34.18,5.814s23.475-2.053,34.18-5.814V447.82h-68.359V200.961z M221.82,245.369
			h68.359V447.82H221.82V245.369z M69.208,305.614h68.359V447.82H69.208V305.614z M492,492H20v-24.18h472V492z"/>
		<path style="fill:#FFFFFF;" d="M408.612,93.387c-4.956,0-8.988-4.032-8.988-8.989s4.032-8.989,8.988-8.989h20.082
			c5.522,0,10-4.477,10-10s-4.478-10-10-10h-10.082v-4.721c0-5.523-4.478-10-10-10s-10,4.477-10,10v6.5
			c-11.072,4.082-18.988,14.738-18.988,27.21c0,15.984,13.004,28.989,28.988,28.989c4.957,0,8.989,4.033,8.989,8.989
			s-4.032,8.989-8.989,8.989h-20.081c-5.522,0-10,4.477-10,10s4.478,10,10,10h10.081v4.721c0,5.523,4.478,10,10,10s10-4.477,10-10
			v-6.5c11.072-4.082,18.989-14.738,18.989-27.21C437.602,106.392,424.597,93.387,408.612,93.387z"/>
	</g>
</g>
<g>
</g>
<g>
</g>
<g>
</g>
<g>
</g>
<g>
</g>
<g>
</g>
<g>
</g>
<g>
</g>
<g>
</g>
<g>
</g>
<g>
</g>
<g>
</g>
<g>
</g>
<g>
</g>
<g>
</g>
</svg>
