<?xml version="1.0" encoding="iso-8859-1"?>
<!-- Generator: Adobe Illustrator 27.2.0, SVG Export Plug-In . SVG Version: 6.00 Build 0)  -->
<svg version="1.1" id="Capa_1" xmlns="http://www.w3.org/2000/svg" xmlns:xlink="http://www.w3.org/1999/xlink" x="0px" y="0px"
	 viewBox="0 0 510.003 510.003" style="enable-background:new 0 0 510.003 510.003;" xml:space="preserve">
<g>
	<g id="XMLID_00000182494082664840154020000015004979062137503136_">
		<path style="fill:#FFCC43;" d="M369.254,332.599v-177.6c0-33.188-14.158-63.758-37.54-85h-154.92
			c-23.06,21.03-37.54,51.33-37.54,85v177.6l157.79,97.89L369.254,332.599z"/>
	</g>
	<g>
		<g id="XMLID_00000048476446954374653730000001669651576999554988_">
			<path style="fill:#85B3F7;" d="M290.021,319.999l78.793,12.414c29.42,4.358,51.207,29.611,51.207,59.352v108.234h-330V391.765
				c0-29.741,21.787-54.994,51.207-59.352l78.793-12.414H290.021z"/>
		</g>
		<g>
			<path style="fill:#6A64FB;" d="M420.024,401.399v98.6h-330v-104.07C166.134,469.706,339.839,471.832,420.024,401.399z"/>
		</g>
		<g id="XMLID_00000083806083027179334070000002289186329602091411_">
			<polygon style="fill:#CFDDFE;" points="255.004,498.436 330.534,407.986 320.274,377.866 345.374,357.786 335.674,325.466 
				290.021,319.999 			"/>
		</g>
		<g id="XMLID_00000098922838408453872170000007939793734922822324_">
			<polygon style="fill:#CFDDFE;" points="254.254,499.999 178.724,409.549 188.984,379.429 163.884,359.349 173.584,327.029 
				215.648,319.999 			"/>
		</g>
		<g id="XMLID_00000116213680149538900930000017330305854188061084_">
			<polygon style="fill:#FFFFFF;" points="288.588,337.223 255.004,507.223 221.455,337.223 253.014,312.776 			"/>
		</g>
	</g>
	<g>
		<g id="XMLID_00000090989780479105124730000008110899476375682962_">
			<path style="fill:#FF7EA3;" d="M289.254,286.47v33.741c0,19.33-15.67,35-35,35s-35-15.67-35-35v-35.87L289.254,286.47z"/>
		</g>
		<g id="XMLID_00000127026710266725672870000004879769931026069133_">
			<path style="fill:#FFBFBA;" d="M179.254,149.999c53.333-5.667,100-30,100-30c27.333,28,50,30,50,30v65c0,41.421-33.579,75-75,75
				c-41.421,0-75-33.579-75-75C179.254,215,179.254,149.999,179.254,149.999z"/>
		</g>
		<g>
			<path style="fill:#FF7EA3;" d="M308.004,267.289c-27.596,29.726-78.755,30.081-106.78,0.739
				c-13.58-13.569-21.97-32.319-21.97-53.029v-65c16.32-1.74,32.01-5.22,45.93-9.21v51.91
				C224.907,236.889,264.12,272.13,308.004,267.289z"/>
		</g>
	</g>
	<g id="XMLID_00000075139874571160878510000013602845933939536292_">
		<path style="fill:#85B3F7;" d="M331.754,69.999c-44.068,13.031-110.85,12.855-155,0c6.667-20,13.333-40,20-60
			c34.606,13.003,80.549,13.09,115,0C318.421,29.999,325.087,50,331.754,69.999z"/>
	</g>
</g>
<path style="fill:#002678;" d="M413.005,346.038c-8.786-10.183-20.283-17.56-33-21.351c0,0,0-169.688,0-169.688
	c0-34.234-14.11-67.063-38.799-90.52c0,0-19.214-57.642-19.214-57.642c-0.842-2.525-2.656-4.611-5.04-5.795
	c-2.385-1.183-5.142-1.367-7.663-0.512c-11.978,4.068-30.596,9.469-54.056,9.469c-17.942-0.002-35.747-3.097-54.511-9.469
	c-2.52-0.855-5.278-0.671-7.663,0.512c-2.384,1.184-4.198,3.27-5.04,5.795c0,0-19.217,57.652-19.217,57.652
	c-24.687,23.534-38.796,56.359-38.796,90.51c0,0,0,169.695,0,169.695c-29.044,8.234-50.414,36.811-50,67.071
	c0,0,0,108.234,0,108.234c0,5.523,4.477,10,10,10c82.256-0.02,247.764,0.015,330,0c5.523,0,10-4.477,10-10c0,0,0-108.234,0-108.234
	C430.004,374.984,423.967,358.745,413.005,346.038z M203.882,22.489c31.666,10.308,74.628,9.177,102.252,0.023l13.433,40.299
	c-43.546,9.699-85.689,9.483-129.122-0.011L203.882,22.489z M180.488,81.032c50.089,11.84,98.771,12.081,149.048,0.001
	c19.423,19.532,30.469,46.195,30.469,73.966v165.905c-14.694-2.338-45.019-7.092-60-9.452v-24.39c23.999-15.041,40-41.711,40-72.062
	v-65c0-5.182-3.959-9.506-9.121-9.961c-0.19-0.017-19.65-2.364-43.723-27.024c-3.079-3.154-7.863-3.918-11.774-1.884
	c-0.451,0.235-45.731,23.538-96.438,28.926c-5.085,0.54-8.943,4.83-8.943,9.944v65c0,30.351,16.001,57.022,40,72.062v24.39
	c-15.088,2.378-45.21,7.099-60,9.453V154.999C150.004,127.299,161.055,100.635,180.488,81.032z M333.856,355.758l-19.829,15.862
	c-3.29,2.632-4.578,7.044-3.219,11.033l8.448,24.8l-46.863,56.12c0.134-0.538,25.953-131.64,26.125-132.109l29.437,4.638
	L333.856,355.758z M195.981,371.62l-19.829-15.862l5.9-19.656l29.437-4.638c0.27,0.447,25.957,131.53,26.136,132.122l-46.873-56.133
	l8.448-24.8C200.559,378.665,199.271,374.252,195.981,371.62z M255.004,279.999c-35.841,0-65-29.159-65-65v-56.175
	c39.682-5.7,74.08-20.239,88.044-26.752c17.252,16.107,32.673,22.955,41.956,25.839v57.088
	C320.004,250.841,290.846,279.999,255.004,279.999z M255.004,299.999c8.698,0,17.092-1.319,25-3.757v23.757
	c0,13.785-11.215,25-25,25c-13.785,0-25-11.215-25-25v-23.757C237.912,298.681,246.307,299.999,255.004,299.999z M272.152,361.596
	l-17.143,86.779l-17.123-86.767C248.333,366.098,261.709,366.093,272.152,361.596z M100.004,391.766
	c0-24.593,18.345-45.856,42.763-49.475l17.367-2.736l-5.078,16.92c-1.172,3.907,0.146,8.135,3.331,10.683l19.617,15.693
	l-7.996,23.474c-1.125,3.303-0.447,6.955,1.79,9.634l61.827,74.041H100.004V391.766z M410.004,489.999H276.383l61.827-74.041
	c2.237-2.679,2.916-6.331,1.79-9.634l-7.996-23.474l19.617-15.693c3.185-2.548,4.503-6.776,3.331-10.683l-5.078-16.92l17.457,2.75
	c24.328,3.604,42.673,24.868,42.673,49.46V489.999z"/>
<g>
</g>
<g>
</g>
<g>
</g>
<g>
</g>
<g>
</g>
<g>
</g>
<g>
</g>
<g>
</g>
<g>
</g>
<g>
</g>
<g>
</g>
<g>
</g>
<g>
</g>
<g>
</g>
<g>
</g>
</svg>
