<?xml version="1.0" encoding="iso-8859-1"?>
<!-- Generator: Adobe Illustrator 26.5.3, SVG Export Plug-In . SVG Version: 6.00 Build 0)  -->
<svg version="1.1" id="Capa_1" xmlns="http://www.w3.org/2000/svg" xmlns:xlink="http://www.w3.org/1999/xlink" x="0px" y="0px"
	 viewBox="0 0 510 510" style="enable-background:new 0 0 510 510;" xml:space="preserve">
<g>
	<g>
		<g>
			<g>
				<path style="fill:#FDCB50;" d="M255,433L255,433c37.003,0,67,29.997,67,67v0H188v0C188,462.997,217.997,433,255,433z"/>
				<path style="fill:#67CCD1;" d="M77,433L77,433c37.003,0,67,29.997,67,67v0H10v0C10,462.997,39.997,433,77,433z"/>
				<circle style="fill:#FDBEB9;" cx="255" cy="397.353" r="35.647"/>
				<circle style="fill:#FDE0BE;" cx="77" cy="397.353" r="35.647"/>
				<circle style="fill:#FDE0BE;" cx="433" cy="397.353" r="35.647"/>
				<path style="fill:#FD7DA0;" d="M433,433L433,433c-37.003,0-67,29.997-67,67v0h134v0C500,462.997,470.003,433,433,433z"/>
			</g>
		</g>
		<g>
			<g>
				<g>
					<g>
						<g>
							<g>
								<g>
									<g>
										<g>
											<rect x="102.835" y="10" style="fill:#FFFFFF;" width="304.33" height="252.828"/>
											<rect x="102.835" y="10" style="fill:#FFFFFF;" width="304.33" height="252.828"/>
											<path style="fill:#D2DCFD;" d="M212.551,154.609c0-56.347,22.621-107.404,59.265-144.609H103.323v252.828H243.23
												C223.785,231.374,212.551,194.306,212.551,154.609z"/>
											<polygon style="fill:#BC9AF4;" points="102.835,10 407.165,10 407.165,98 220.434,98 167.468,83.848 102.835,98 
																							"/>
											<path style="fill:#6864F7;" d="M103.323,10v88h117.112c9.591-33.634,27.506-63.759,51.382-88H103.323z"/>
										</g>
									</g>
								</g>
							</g>
						</g>
					</g>
				</g>
			</g>
		</g>
	</g>
	<g>
		<path style="fill:#93B2F4;" d="M433,302.268H265v-39.439c0-5.523-4.477-10-10-10s-10,4.477-10,10v39.439H77
			c-5.523,0-10,4.477-10,10v49.439c0,5.523,4.477,10,10,10s10-4.477,10-10v-39.439h158v39.439c0,5.523,4.477,10,10,10
			s10-4.477,10-10v-39.439h158v39.439c0,5.523,4.477,10,10,10s10-4.477,10-10v-49.439C443,306.745,438.523,302.268,433,302.268z"/>
		<g>
			<g>
				<path style="fill:#052A75;" d="M108.91,429.951c8.468-8.291,13.737-19.838,13.737-32.598c0-25.169-20.477-45.646-45.646-45.646
					c-25.17,0-45.647,20.477-45.647,45.646c0,12.76,5.269,24.307,13.737,32.598C18.518,442.104,0,468.922,0,500
					c0,5.523,4.477,10,10,10h134c5.523,0,10-4.477,10-10C154,468.922,135.482,442.104,108.91,429.951z M51.353,397.353
					c0-14.142,11.505-25.646,25.647-25.646s25.646,11.505,25.646,25.646S91.142,423,77,423S51.353,411.495,51.353,397.353z
					 M20.878,490c4.74-26.678,28.103-47,56.122-47s51.381,20.322,56.122,47H20.878z"/>
				<path style="fill:#052A75;" d="M286.91,429.951c8.468-8.291,13.737-19.838,13.737-32.598c0-25.169-20.477-45.646-45.647-45.646
					s-45.647,20.477-45.647,45.646c0,12.76,5.269,24.307,13.737,32.598C196.518,442.104,178,468.922,178,500c0,5.523,4.477,10,10,10
					h134c5.523,0,10-4.477,10-10C332,468.922,313.482,442.104,286.91,429.951z M229.353,397.353
					c0-14.142,11.505-25.646,25.647-25.646s25.647,11.505,25.647,25.646S269.142,423,255,423S229.353,411.495,229.353,397.353z
					 M198.878,490c4.74-26.678,28.103-47,56.122-47s51.381,20.322,56.122,47H198.878z"/>
				<path style="fill:#052A75;" d="M464.91,429.951c8.469-8.291,13.737-19.838,13.737-32.598c0-25.169-20.477-45.646-45.647-45.646
					s-45.647,20.477-45.647,45.646c0,12.76,5.269,24.307,13.737,32.598C374.518,442.104,356,468.922,356,500c0,5.523,4.477,10,10,10
					h134c5.523,0,10-4.477,10-10C510,468.922,491.482,442.104,464.91,429.951z M407.353,397.353
					c0-14.142,11.505-25.646,25.647-25.646s25.647,11.505,25.647,25.646S447.142,423,433,423S407.353,411.495,407.353,397.353z
					 M376.878,490c4.74-26.678,28.103-47,56.122-47s51.381,20.322,56.122,47H376.878z"/>
				<path style="fill:#052A75;" d="M102.835,272.828h304.33c5.523,0,10-4.477,10-10V10c0-5.523-4.477-10-10-10h-304.33
					c-5.523,0-10,4.477-10,10v252.828C92.835,268.351,97.312,272.828,102.835,272.828z M112.835,20h284.33v232.828h-284.33V20z"/>
			</g>
			<g>
				<g>
					<g>
						<g>
							<path style="fill:#FFFFFF;" d="M151.89,64c-8.807,0.055-13.345-10.879-7.07-17.07c3.708-3.845,10.419-3.869,14.14,0
								C165.231,53.108,160.686,64.064,151.89,64z"/>
						</g>
						<g>
							<path style="fill:#FFFFFF;" d="M195.89,64c-8.798,0.067-13.353-10.891-7.07-17.07c6.183-6.266,17.131-1.731,17.07,7.071
								C205.979,59.367,201.26,64.101,195.89,64z"/>
						</g>
						<g>
							<path style="fill:#FFFFFF;" d="M358.113,64H251.655c-5.523,0-10-4.477-10-10s4.477-10,10-10h106.458c5.523,0,10,4.477,10,10
								S363.636,64,358.113,64z"/>
						</g>
					</g>
				</g>
			</g>
		</g>
		<g>
			<g id="XMLID_747_">
				<path style="fill:#DB4B86;" d="M316.577,227.414c-2.559,0-5.119-0.976-7.071-2.929c-3.905-3.905-3.905-10.237,0-14.143
					l29.929-29.929l-29.929-29.929c-3.905-3.905-3.905-10.237,0-14.143c3.905-3.905,10.237-3.905,14.143,0l37,37
					c3.905,3.905,3.905,10.237,0,14.143l-37,37C321.696,226.438,319.136,227.414,316.577,227.414z"/>
			</g>
			<g id="XMLID_746_">
				<path style="fill:#DB4B86;" d="M193.423,227.414c-2.559,0-5.119-0.976-7.071-2.929l-37-37c-3.905-3.905-3.905-10.237,0-14.143
					l37-37c3.905-3.905,10.237-3.905,14.143,0c3.905,3.905,3.905,10.237,0,14.143l-29.929,29.929l29.929,29.929
					c3.905,3.905,3.905,10.237,0,14.143C198.542,226.438,195.982,227.414,193.423,227.414z"/>
			</g>
			<g id="XMLID_745_">
				<path style="fill:#DB4B86;" d="M238.178,227.417c-1.384,0-2.79-0.289-4.132-0.898c-5.028-2.285-7.251-8.214-4.966-13.242
					l33.633-74c2.285-5.029,8.215-7.252,13.242-4.966c5.028,2.285,7.251,8.214,4.966,13.242l-33.633,74
					C245.612,225.238,241.979,227.417,238.178,227.417z"/>
			</g>
		</g>
	</g>
</g>
<g>
</g>
<g>
</g>
<g>
</g>
<g>
</g>
<g>
</g>
<g>
</g>
<g>
</g>
<g>
</g>
<g>
</g>
<g>
</g>
<g>
</g>
<g>
</g>
<g>
</g>
<g>
</g>
<g>
</g>
</svg>
