<?xml version="1.0" encoding="iso-8859-1"?>
<!-- Generator: Adobe Illustrator 27.0.0, SVG Export Plug-In . SVG Version: 6.00 Build 0)  -->
<svg version="1.1" id="Capa_1" xmlns="http://www.w3.org/2000/svg" xmlns:xlink="http://www.w3.org/1999/xlink" x="0px" y="0px"
	 viewBox="0 0 512 512" style="enable-background:new 0 0 512 512;" xml:space="preserve">
<g>
	<g>
		<path style="fill:#D2DCFD;" d="M501.99,292.811l0.01-73.688l-37.75-15.642c-5.169-20.558-13.3-39.932-23.916-57.655l15.637-37.738
			l-52.098-52.112l-37.78,15.644c-17.726-10.607-37.103-18.73-57.663-23.89L292.811,10.01L219.123,10l-15.642,37.75
			c-20.558,5.169-39.933,13.3-57.655,23.916L108.088,56.03l-52.112,52.098l15.644,37.78c-10.607,17.726-18.73,37.103-23.89,57.663
			L10.01,219.189L10,292.877l37.75,15.642c5.169,20.558,13.3,39.932,23.916,57.655L56.03,403.912l52.098,52.112l37.779-15.643
			c17.727,10.607,37.104,18.73,57.663,23.89l15.619,37.719l73.688,0.01l15.642-37.75c20.558-5.169,39.933-13.301,57.655-23.916
			l37.738,15.636l52.112-52.098l-15.644-37.78c10.607-17.726,18.73-37.103,23.89-57.663L501.99,292.811z"/>
		<circle style="fill:#FFFFFF;" cx="256" cy="256" r="155.961"/>
		<path style="fill:#93B2F4;" d="M453.827,339.593c-36.624,50.448-96.06,83.262-163.169,83.262
			c-111.292,0-201.512-90.22-201.512-201.513c0-67.112,32.817-126.551,83.269-163.175c-9.207,3.896-18.09,8.408-26.589,13.499
			L108.088,56.03l-52.112,52.098l15.644,37.78c-10.607,17.726-18.73,37.103-23.89,57.663L10.01,219.189L10,292.877l37.75,15.642
			c5.169,20.558,13.3,39.932,23.916,57.655L56.03,403.912l52.098,52.112l37.78-15.643c17.727,10.607,37.104,18.73,57.663,23.89
			l15.619,37.719l73.688,0.01l15.642-37.75c20.558-5.169,39.933-13.301,57.656-23.916l37.738,15.636l52.112-52.098l-15.644-37.78
			C445.45,357.62,449.945,348.768,453.827,339.593z"/>
		<path style="fill:#FDCB50;" d="M294.025,404.933l-8.582-121.069c25.606-11.317,43.484-36.923,43.484-66.718
			c0-29.096-17.044-54.204-41.688-65.906v45.825l-14.099,14.098h-34.282l-14.098-14.098v-45.825
			c-24.644,11.702-41.688,36.811-41.688,65.906c0,29.796,17.878,55.401,43.484,66.718l-8.582,121.069H294.025z"/>
	</g>
	<g>
		<path style="fill:#052A75;" d="M505.828,209.885l-33.173-13.746c-4.915-17.824-12.023-34.961-21.184-51.069l13.737-33.154
			c1.548-3.737,0.693-8.038-2.166-10.898l-52.099-52.112c-2.86-2.861-7.163-3.716-10.897-2.169l-33.2,13.747
			c-16.113-9.154-33.251-16.255-51.076-21.162L302.05,6.185c-1.547-3.737-5.193-6.174-9.238-6.174L219.125,0c0,0-0.001,0-0.001,0
			c-4.044,0-7.69,2.436-9.238,6.172L196.14,39.344c-17.823,4.914-34.96,12.023-51.069,21.185l-33.155-13.737
			c-3.734-1.548-8.037-0.693-10.898,2.166l-52.112,52.098c-2.861,2.859-3.717,7.161-2.169,10.897l13.747,33.2
			c-9.154,16.111-16.255,33.25-21.162,51.076L6.185,209.95c-3.737,1.547-6.174,5.193-6.174,9.238L0,292.875
			c0,4.045,2.436,7.691,6.172,9.24l33.173,13.746c4.915,17.824,12.023,34.961,21.184,51.069l-13.737,33.154
			c-1.548,3.737-0.693,8.038,2.166,10.898l52.099,52.112c2.86,2.861,7.162,3.716,10.897,2.169l33.2-13.747
			c16.112,9.154,33.251,16.255,51.076,21.162l13.721,33.137c1.547,3.737,5.193,6.174,9.238,6.174l73.688,0.01c0,0,0.001,0,0.001,0
			c4.044,0,7.69-2.436,9.238-6.172l13.745-33.172c17.823-4.914,34.96-12.023,51.069-21.185l33.155,13.737
			c3.734,1.547,8.037,0.694,10.898-2.166l52.112-52.098c2.861-2.859,3.717-7.161,2.169-10.897l-13.747-33.2
			c9.153-16.111,16.254-33.25,21.162-51.076l33.137-13.721c3.737-1.547,6.174-5.193,6.174-9.238l0.01-73.688
			C512,215.08,509.564,211.433,505.828,209.885z M491.991,286.127l-31.546,13.062c-2.924,1.211-5.103,3.735-5.874,6.805
			c-4.85,19.325-12.512,37.817-22.771,54.963c-1.625,2.714-1.869,6.038-0.658,8.96l13.087,31.606l-42.662,42.649l-31.565-13.079
			c-2.923-1.212-6.25-0.967-8.966,0.66c-17.144,10.269-35.634,17.939-54.955,22.796c-3.068,0.771-5.59,2.948-6.8,5.87
			l-13.084,31.578l-60.324-0.008l-13.062-31.546c-1.211-2.924-3.735-5.103-6.805-5.874c-19.323-4.85-37.815-12.511-54.962-22.771
			c-2.714-1.625-6.038-1.869-8.96-0.658l-31.606,13.087l-42.65-42.662l13.079-31.565c1.212-2.925,0.967-6.251-0.66-8.967
			c-10.268-17.143-17.938-35.632-22.796-54.955c-0.771-3.067-2.948-5.589-5.87-6.8l-31.578-13.085l0.008-60.324l31.546-13.062
			c2.924-1.211,5.103-3.735,5.874-6.805c4.85-19.324,12.511-37.816,22.771-54.962c1.625-2.714,1.869-6.038,0.658-8.96
			l-13.087-31.606l42.662-42.649l31.565,13.079c2.924,1.212,6.251,0.969,8.966-0.66c17.144-10.269,35.634-17.939,54.955-22.796
			c3.068-0.771,5.59-2.948,6.8-5.87l13.084-31.578l60.324,0.008l13.062,31.546c1.211,2.924,3.735,5.103,6.805,5.874
			c19.323,4.849,37.815,12.51,54.962,22.771c2.714,1.625,6.037,1.867,8.96,0.658l31.606-13.087l42.65,42.662l-13.079,31.565
			c-1.212,2.925-0.967,6.251,0.66,8.967c10.268,17.143,17.938,35.632,22.796,54.955c0.771,3.067,2.948,5.589,5.87,6.8l31.578,13.085
			L491.991,286.127z"/>
		<path style="fill:#052A75;" d="M256,90.039c-91.511,0-165.961,74.45-165.961,165.961S164.489,421.961,256,421.961
			S421.961,347.511,421.961,256S347.511,90.039,256,90.039z M228.397,399.332l8.135-114.761c0.298-4.207-2.075-8.148-5.933-9.854
			c-22.796-10.075-37.526-32.673-37.526-57.572c0-18.379,8.167-35.692,21.688-47.495v27.414c0,2.652,1.054,5.196,2.929,7.071
			l14.099,14.099c1.875,1.875,4.419,2.929,7.071,2.929h34.282c2.652,0,5.196-1.054,7.071-2.929l14.099-14.099
			c1.875-1.875,2.929-4.419,2.929-7.071V169.65c13.521,11.803,21.688,29.116,21.688,47.495c0,24.898-14.73,47.497-37.526,57.572
			c-3.857,1.705-6.23,5.646-5.933,9.854l8.135,114.761c-8.942,1.719-18.167,2.63-27.603,2.63S237.339,401.051,228.397,399.332z
			 M303.282,394.097l-7.39-104.253c26.361-14.472,43.035-42.281,43.035-72.698c0-31.852-18.605-61.267-47.398-74.939
			c-3.099-1.472-6.734-1.252-9.633,0.581c-2.899,1.833-4.657,5.023-4.657,8.453v41.683l-8.241,8.241h-25.998l-8.241-8.241v-41.683
			c0-3.43-1.758-6.62-4.657-8.453c-2.898-1.833-6.534-2.051-9.633-0.581c-28.793,13.672-47.398,43.088-47.398,74.939
			c0,30.417,16.674,58.226,43.035,72.698l-7.39,104.253C151.37,374.407,110.039,319.942,110.039,256
			c0-80.483,65.478-145.961,145.961-145.961S401.961,175.517,401.961,256C401.961,319.942,360.63,374.407,303.282,394.097z"/>
	</g>
</g>
<g>
</g>
<g>
</g>
<g>
</g>
<g>
</g>
<g>
</g>
<g>
</g>
<g>
</g>
<g>
</g>
<g>
</g>
<g>
</g>
<g>
</g>
<g>
</g>
<g>
</g>
<g>
</g>
<g>
</g>
</svg>
