<?xml version="1.0" encoding="iso-8859-1"?>
<!-- Generator: Adobe Illustrator 27.2.0, SVG Export Plug-In . SVG Version: 6.00 Build 0)  -->
<svg version="1.1" id="Capa_1" xmlns="http://www.w3.org/2000/svg" xmlns:xlink="http://www.w3.org/1999/xlink" x="0px" y="0px"
	 viewBox="0 0 510 510" style="enable-background:new 0 0 510 510;" xml:space="preserve">
<g>
	<g>
		
			<rect x="10.74" y="10.74" transform="matrix(-1 -4.489932e-11 4.489932e-11 -1 511.48 511.48)" style="fill:#FFFFFF;" width="490" height="490"/>
	</g>
	<g>
		<g>
			<rect x="10.74" y="10" style="fill:#93B2F4;" width="122.268" height="122.268"/>
		</g>
		<g>
			<rect x="255.201" y="10" style="fill:#93B2F4;" width="122.268" height="122.268"/>
		</g>
		<g>
			<rect x="10.74" y="255.201" style="fill:#93B2F4;" width="122.268" height="122.268"/>
		</g>
		<g>
			<rect x="255.201" y="255.201" style="fill:#93B2F4;" width="122.268" height="122.268"/>
		</g>
		<g>
			<rect x="132.87" y="132.87" style="fill:#93B2F4;" width="122.268" height="122.268"/>
		</g>
		<g>
			<rect x="132.87" y="377.87" style="fill:#93B2F4;" width="122.268" height="122.268"/>
		</g>
		<g>
			<rect x="376.03" y="132.87" style="fill:#93B2F4;" width="122.268" height="122.268"/>
		</g>
		<g>
			<rect x="376.03" y="377.87" style="fill:#93B2F4;" width="122.268" height="122.268"/>
		</g>
	</g>
</g>
<g>
	<g>
		<path style="fill:#052A75;" d="M500,0H10C4.478,0,0,4.478,0,10v490c0,5.522,4.478,10,10,10h490c5.522,0,10-4.478,10-10V10
			C510,4.478,505.522,0,500,0z M386.992,490v-36.764c0-5.522-4.478-10-10-10s-10,4.478-10,10V490H265v-36.764
			c0-5.522-4.478-10-10-10s-10,4.478-10,10V490H143.008v-36.764c0-5.522-4.478-10-10-10s-10,4.478-10,10V490H20V386.992h36.764
			c5.522,0,10-4.478,10-10s-4.478-10-10-10H20V265h36.764c5.522,0,10-4.478,10-10s-4.478-10-10-10H20V143.008h36.764
			c5.522,0,10-4.478,10-10s-4.478-10-10-10H20V20h103.008v36.764c0,5.522,4.478,10,10,10s10-4.478,10-10V20H245v36.764
			c0,5.522,4.478,10,10,10s10-4.478,10-10V20h101.992v36.764c0,5.522,4.478,10,10,10s10-4.478,10-10V20H490v103.008h-36.764
			c-5.522,0-10,4.478-10,10s4.478,10,10,10H490V245h-36.764c-5.522,0-10,4.478-10,10s4.478,10,10,10H490v101.992h-36.764
			c-5.522,0-10,4.478-10,10s4.478,10,10,10H490V490H386.992z"/>
		<path style="fill:#052A75;" d="M422.738,245h-35.746v-35.747c0-5.522-4.478-10-10-10s-10,4.478-10,10V245h-35.747
			c-5.522,0-10,4.478-10,10s4.478,10,10,10h35.747v35.747c0,5.522,4.478,10,10,10s10-4.478,10-10V265h35.746
			C435.987,264.51,435.986,245.489,422.738,245z"/>
		<path style="fill:#052A75;" d="M300.747,245H265v-35.747c0-5.522-4.478-10-10-10s-10,4.478-10,10V245h-35.747
			c-5.522,0-10,4.478-10,10s4.478,10,10,10H245v35.747c0,5.522,4.478,10,10,10s10-4.478,10-10V265h35.747
			C313.996,264.51,313.995,245.489,300.747,245z"/>
		<path style="fill:#052A75;" d="M178.755,245h-35.747v-35.747c0-5.522-4.478-10-10-10s-10,4.478-10,10V245H87.262
			c-5.522,0-10,4.478-10,10s4.478,10,10,10h35.746v35.747c0,5.522,4.478,10,10,10s10-4.478,10-10V265h35.747
			C192.004,264.51,192.003,245.489,178.755,245z"/>
		<path style="fill:#052A75;" d="M422.738,123.008h-35.746V87.262c0-5.522-4.478-10-10-10s-10,4.478-10,10v35.746h-35.747
			c-5.522,0-10,4.478-10,10s4.478,10,10,10h35.747v35.747c0,5.522,4.478,10,10,10s10-4.478,10-10v-35.747h35.746
			C435.987,142.518,435.986,123.497,422.738,123.008z"/>
		<path style="fill:#052A75;" d="M300.747,123.008H265V87.262c0-5.522-4.478-10-10-10s-10,4.478-10,10v35.746h-35.747
			c-5.522,0-10,4.478-10,10s4.478,10,10,10H245v35.747c0,5.522,4.478,10,10,10s10-4.478,10-10v-35.747h35.747
			C313.996,142.518,313.995,123.497,300.747,123.008z"/>
		<path style="fill:#052A75;" d="M178.755,123.008h-35.747V87.262c0-5.522-4.478-10-10-10s-10,4.478-10,10v35.746H87.262
			c-5.522,0-10,4.478-10,10s4.478,10,10,10h35.746v35.747c0,5.522,4.478,10,10,10s10-4.478,10-10v-35.747h35.747
			C192.004,142.518,192.003,123.497,178.755,123.008z"/>
		<path style="fill:#052A75;" d="M422.738,366.992h-35.746v-35.747c0-5.522-4.478-10-10-10s-10,4.478-10,10v35.747h-35.747
			c-5.522,0-10,4.478-10,10s4.478,10,10,10h35.747v35.746c0,5.522,4.478,10,10,10s10-4.478,10-10v-35.746h35.746
			C435.987,386.503,435.986,367.481,422.738,366.992z"/>
		<path style="fill:#052A75;" d="M300.747,366.992H265v-35.747c0-5.522-4.478-10-10-10s-10,4.478-10,10v35.747h-35.747
			c-5.522,0-10,4.478-10,10s4.478,10,10,10H245v35.746c0,5.522,4.478,10,10,10s10-4.478,10-10v-35.746h35.747
			C313.996,386.503,313.995,367.481,300.747,366.992z"/>
		<path style="fill:#052A75;" d="M178.755,366.992h-35.747v-35.747c0-5.522-4.478-10-10-10s-10,4.478-10,10v35.747H87.262
			c-5.522,0-10,4.478-10,10s4.478,10,10,10h35.746v35.746c0,5.522,4.478,10,10,10s10-4.478,10-10v-35.746h35.747
			C192.004,386.503,192.003,367.481,178.755,366.992z"/>
	</g>
	<g>
		<path style="fill:#FFFFFF;" d="M331.584,60.996h-5.249v-5.249c0-5.522-4.478-10-10-10s-10,4.478-10,10v5.249h-5.249
			c-5.522,0-10,4.478-10,10s4.478,10,10,10h5.249v5.249c0,5.522,4.478,10,10,10s10-4.478,10-10v-5.249h5.249
			C344.835,80.505,344.83,61.484,331.584,60.996z"/>
		<path style="fill:#FFFFFF;" d="M86.245,60.996h-5.249v-5.249c0-5.522-4.478-10-10-10s-10,4.478-10,10v5.249h-5.249
			c-5.522,0-10,4.478-10,10s4.478,10,10,10h5.249v5.249c0,5.522,4.478,10,10,10s10-4.478,10-10v-5.249h5.249
			C99.497,80.505,99.491,61.484,86.245,60.996z"/>
		<path style="fill:#FFFFFF;" d="M86.245,306.335h-5.249v-5.249c0-5.522-4.478-10-10-10s-10,4.478-10,10v5.249h-5.249
			c-5.522,0-10,4.478-10,10s4.478,10,10,10h5.249v5.249c0,5.522,4.478,10,10,10s10-4.478,10-10v-5.249h5.249
			C99.497,325.844,99.491,306.823,86.245,306.335z"/>
		<path style="fill:#FFFFFF;" d="M208.914,183.665h-5.249v-5.249c0-5.522-4.478-10-10-10s-10,4.478-10,10v5.249h-5.249
			c-5.522,0-10,4.478-10,10s4.478,10,10,10h5.249v5.249c0,5.522,4.478,10,10,10s10-4.478,10-10v-5.249h5.249
			C222.165,203.174,222.16,184.153,208.914,183.665z"/>
		<path style="fill:#FFFFFF;" d="M331.584,306.335h-5.249v-5.249c0-5.522-4.478-10-10-10s-10,4.478-10,10v5.249h-5.249
			c-5.522,0-10,4.478-10,10s4.478,10,10,10h5.249v5.249c0,5.522,4.478,10,10,10s10-4.478,10-10v-5.249h5.249
			C344.835,325.844,344.83,306.823,331.584,306.335z"/>
		<path style="fill:#FFFFFF;" d="M423.755,203.665h5.249v5.249c0,5.522,4.478,10,10,10s10-4.478,10-10v-5.249h5.249
			c5.522,0,10-4.478,10-10s-4.478-10-10-10h-5.249v-5.249c0-5.522-4.478-10-10-10s-10,4.478-10,10v5.249h-5.249
			C410.503,184.156,410.509,203.177,423.755,203.665z"/>
		<path style="fill:#FFFFFF;" d="M454.253,429.004h-5.249v-5.249c0-5.522-4.478-10-10-10s-10,4.478-10,10v5.249h-5.249
			c-5.522,0-10,4.478-10,10s4.478,10,10,10h5.249v5.249c0,5.522,4.478,10,10,10s10-4.478,10-10v-5.249h5.249
			C467.504,448.513,467.499,429.492,454.253,429.004z"/>
		<path style="fill:#FFFFFF;" d="M208.914,429.004h-5.249v-5.249c0-5.522-4.478-10-10-10s-10,4.478-10,10v5.249h-5.249
			c-5.522,0-10,4.478-10,10s4.478,10,10,10h5.249v5.249c0,5.522,4.478,10,10,10s10-4.478,10-10v-5.249h5.249
			C222.165,448.513,222.16,429.492,208.914,429.004z"/>
	</g>
	<g>
		<path style="fill:#FDCB50;" d="M423.755,80.996h5.249v5.249c0,5.522,4.478,10,10,10s10-4.478,10-10v-5.249h5.249
			c5.522,0,10-4.478,10-10s-4.478-10-10-10h-5.249v-5.249c0-5.522-4.478-10-10-10s-10,4.478-10,10v5.249h-5.249
			C410.503,61.487,410.509,80.508,423.755,80.996z"/>
		<path style="fill:#FDCB50;" d="M208.914,60.996h-5.249v-5.249c0-5.522-4.478-10-10-10s-10,4.478-10,10v5.249h-5.249
			c-5.522,0-10,4.478-10,10s4.478,10,10,10h5.249v5.249c0,5.522,4.478,10,10,10s10-4.478,10-10v-5.249h5.249
			C222.165,80.505,222.16,61.484,208.914,60.996z"/>
		<path style="fill:#FDCB50;" d="M86.245,183.665h-5.249v-5.249c0-5.522-4.478-10-10-10s-10,4.478-10,10v5.249h-5.249
			c-5.522,0-10,4.478-10,10s4.478,10,10,10h5.249v5.249c0,5.522,4.478,10,10,10s10-4.478,10-10v-5.249h5.249
			C99.497,203.174,99.491,184.153,86.245,183.665z"/>
		<path style="fill:#FDCB50;" d="M208.914,306.335h-5.249v-5.249c0-5.522-4.478-10-10-10s-10,4.478-10,10v5.249h-5.249
			c-5.522,0-10,4.478-10,10s4.478,10,10,10h5.249v5.249c0,5.522,4.478,10,10,10s10-4.478,10-10v-5.249h5.249
			C222.165,325.844,222.16,306.823,208.914,306.335z"/>
		<path style="fill:#FDCB50;" d="M331.584,183.665h-5.249v-5.249c0-5.522-4.478-10-10-10s-10,4.478-10,10v5.249h-5.249
			c-5.522,0-10,4.478-10,10s4.478,10,10,10h5.249v5.249c0,5.522,4.478,10,10,10s10-4.478,10-10v-5.249h5.249
			C344.835,203.174,344.83,184.153,331.584,183.665z"/>
		<path style="fill:#FDCB50;" d="M454.253,306.335h-5.249v-5.249c0-5.522-4.478-10-10-10s-10,4.478-10,10v5.249h-5.249
			c-5.522,0-10,4.478-10,10s4.478,10,10,10h5.249v5.249c0,5.522,4.478,10,10,10s10-4.478,10-10v-5.249h5.249
			C467.504,325.844,467.499,306.823,454.253,306.335z"/>
		<path style="fill:#FDCB50;" d="M331.584,429.004h-5.249v-5.249c0-5.522-4.478-10-10-10s-10,4.478-10,10v5.249h-5.249
			c-5.522,0-10,4.478-10,10s4.478,10,10,10h5.249v5.249c0,5.522,4.478,10,10,10s10-4.478,10-10v-5.249h5.249
			C344.835,448.513,344.83,429.492,331.584,429.004z"/>
		<path style="fill:#FDCB50;" d="M86.245,429.004h-5.249v-5.249c0-5.522-4.478-10-10-10s-10,4.478-10,10v5.249h-5.249
			c-5.522,0-10,4.478-10,10s4.478,10,10,10h5.249v5.249c0,5.522,4.478,10,10,10s10-4.478,10-10v-5.249h5.249
			C99.497,448.513,99.491,429.492,86.245,429.004z"/>
	</g>
</g>
<g>
</g>
<g>
</g>
<g>
</g>
<g>
</g>
<g>
</g>
<g>
</g>
<g>
</g>
<g>
</g>
<g>
</g>
<g>
</g>
<g>
</g>
<g>
</g>
<g>
</g>
<g>
</g>
<g>
</g>
</svg>
