<?xml version="1.0" encoding="iso-8859-1"?>
<!-- Generator: Adobe Illustrator 27.8.1, SVG Export Plug-In . SVG Version: 6.00 Build 0)  -->
<svg version="1.1" id="Layer_1" xmlns="http://www.w3.org/2000/svg" xmlns:xlink="http://www.w3.org/1999/xlink" x="0px" y="0px"
	 viewBox="0 0 510 510" style="enable-background:new 0 0 510 510;" xml:space="preserve">
<g>
	<g>
		<g>
			<g>
				<polygon style="fill:#FFFFFF;" points="334,280 255,41.515 40.498,41.515 41,283 				"/>
			</g>
			<g>
				<path style="fill:#D3DAFB;" d="M224.96,281.12L41,283L40.5,41.51h64.2C96.24,62,91.61,84.29,91.61,107.59
					C91.61,188.53,147.53,257.17,224.96,281.12z"/>
			</g>
			<g>
				<path style="fill:#67CCD1;" d="M131.992,255v-30.498V407L500,407.49V285.498c0-33.687-27.309-60.996-60.996-60.996H131.992V255z
					"/>
			</g>
			<g>
				<path style="fill:#27A2CC;" d="M319.27,345.48c0,21.64-3.67,42.42-10.42,61.76L131.99,407V224.5h142.98
					C302.6,257.14,319.27,299.36,319.27,345.48z"/>
			</g>
		</g>
		<g>
			<g>
				
					<ellipse transform="matrix(0.7071 -0.7071 0.7071 0.7071 -206.3486 194.8179)" style="fill:#6764F2;" cx="131.992" cy="346.494" rx="121.992" ry="121.992"/>
			</g>
			<g>
				
					<ellipse transform="matrix(0.9239 -0.3827 0.3827 0.9239 -122.5502 76.8864)" style="fill:#FDCB50;" cx="131.992" cy="346.494" rx="30.498" ry="30.498"/>
			</g>
			<g>
				<circle style="fill:#6764F2;" cx="378.008" cy="407.49" r="60.996"/>
			</g>
		</g>
	</g>
	<g>
		<g>
			<path style="fill:#1C2E72;" d="M378.01,417.49c-11.746,0.275-13.546-17.779-1.959-19.8
				C390.205,395.148,392.369,417.219,378.01,417.49z"/>
		</g>
		<g>
			<path style="fill:#1C2E72;" d="M30.5,262.19v3.61c0,5.52,4.48,10,10,10s10-4.48,10-10v-23.07
				C43.17,248.5,36.46,255.02,30.5,262.19z"/>
			<path style="fill:#1C2E72;" d="M439,214.5h-20.49v-71.49H439c5.53,0,10-4.48,10-10c0-5.52-4.47-10-10-10h-30.49
				c-5.53,0-10,4.48-10,10v81.49H323.2L268.88,51.51h16.62c5.52,0,10-4.47,10-10c0-5.52-4.48-10-10-10H10c-5.52,0-10,4.48-10,10
				c0,5.53,4.48,10,10,10h20.5v210.68C11.46,285.07,0,314.47,0,346.49c0,72.78,59.21,132,131.99,132c46.66,0,87.75-24.34,111.23-61
				h64.5c4.87,34.43,34.53,61,70.29,61s65.41-26.57,70.28-61H500c5.52,0,10-4.48,10-10V285.5C510,246.35,478.15,214.5,439,214.5z
				 M50.5,51.51h197.29l54.33,162.99H131.99c-0.17,0-0.34,0-0.51,0.01c-30.53,0.11-58.65,10.64-80.98,28.22V51.51z M217.9,418.26
				l-14.14-14.14c-3.91-3.91-10.24-3.91-14.14,0c-3.91,3.9-3.91,10.24,0,14.14l14.13,14.14c-17.05,14.27-38.38,23.57-61.76,25.64
				v-20.05c0-5.53-4.48-10-10-10s-10,4.47-10,10v20.05c-23.38-2.07-44.71-11.37-61.76-25.64l14.14-14.14c3.9-3.9,3.9-10.24,0-14.14
				c-3.91-3.91-10.24-3.91-14.15,0l-14.14,14.14c-14.27-17.05-23.56-38.39-25.63-61.77H40.5c5.52,0,10-4.47,10-10
				c0-5.521-4.48-10-10-10H20.45c2.07-23.38,11.37-44.71,25.64-61.76l14.13,14.14c1.96,1.95,4.52,2.93,7.08,2.93
				c2.56,0,5.11-0.98,7.07-2.93c3.9-3.91,3.9-10.24,0-14.14l-14.14-14.14c17.05-14.27,38.38-23.57,61.76-25.64V255
				c0,5.52,4.48,10,10,10s10-4.48,10-10v-20.05c23.38,2.07,44.71,11.37,61.76,25.64l-14.13,14.14c-3.91,3.9-3.91,10.23,0,14.14
				c1.95,1.95,4.51,2.93,7.07,2.93s5.12-0.98,7.07-2.93l14.13-14.14c14.27,17.05,23.57,38.38,25.64,61.76h-20.04
				c-5.53,0-10,4.479-10,10c0,5.53,4.47,10,10,10h20.04C241.46,379.87,232.17,401.21,217.9,418.26z M378.01,458.49
				c-28.12,0-51-22.88-51-51c0-28.12,22.88-51,51-51s50.99,22.88,50.99,51C429,435.61,406.13,458.49,378.01,458.49z M490,397.49
				h-41.71c-4.87-34.43-34.52-61-70.28-61s-65.42,26.57-70.29,61h-53.99c6.6-15.7,10.25-32.93,10.25-51
				c0-47.17-24.87-88.64-62.19-111.99H439c24.7,0,45.35,17.65,50.01,41H439c-5.52,0-10,4.48-10,10s4.48,10,10,10h51V397.49z"/>
		</g>
	</g>
</g>
<g>
</g>
<g>
</g>
<g>
</g>
<g>
</g>
<g>
</g>
<g>
</g>
<g>
</g>
<g>
</g>
<g>
</g>
<g>
</g>
<g>
</g>
<g>
</g>
<g>
</g>
<g>
</g>
<g>
</g>
</svg>
