<?xml version="1.0" encoding="iso-8859-1"?>
<!-- Generator: Adobe Illustrator 29.1.0, SVG Export Plug-In . SVG Version: 9.03 Build 55587)  -->
<svg version="1.1" id="Capa_1" xmlns="http://www.w3.org/2000/svg" xmlns:xlink="http://www.w3.org/1999/xlink" x="0px" y="0px"
	 viewBox="0 0 510 510" style="enable-background:new 0 0 510 510;" xml:space="preserve">
<g>
	<g>
		<g>
			<g>
				<g>
					<path style="fill:#FFFFFF;" d="M232.264,287.565l96.945,14.33c27.743,4.101,48.292,27.91,48.292,55.955V500h-360V357.849
						c0-28.044,20.549-51.854,48.292-55.955l96.945-14.33H232.264z"/>
				</g>
				<g>
					<path style="fill:#D2DCFD;" d="M254.236,500h123.266V357.849c0-28.044-20.549-51.854-48.292-55.955l-50.786-7.507
						c-0.183,0.977-0.356,1.956-0.516,2.939l-8.354,51.279c-3.271,20.078-0.828,40.36,6.72,58.729
						c-14.08,22.712-22.038,49.322-22.038,77.251V500z"/>
				</g>
				<g>
					<polygon style="fill:#67CCD1;" points="247.706,290.586 197.501,500 147.297,290.586 					"/>
				</g>
				<g>
					<polygon style="fill:#FD7DA0;" points="162.754,248.452 162.754,287.565 162.739,287.565 197.501,321.335 232.264,287.565 
						232.264,248.452 					"/>
				</g>
			</g>
			<g>
				<g>
					<path style="fill:#FDCB50;" d="M223.494,10c-23.574,0-44.784,10.099-59.558,26.2l2.671-4.095
						c-3.655-0.641-7.415-0.976-11.253-0.976c-35.714,0-64.666,28.952-64.666,64.666c0,21.995,11.002,41.277,27.782,52.959
						l157.729,3.142c17.207-14.789,28.119-36.586,28.119-61.075C304.316,46.185,268.131,10,223.494,10z"/>
				</g>
				<g>
					<path style="fill:#FDBEB9;" d="M118.827,147.754v28.678c0,43.462,35.233,78.695,78.695,78.695h0
						c43.462,0,78.695-35.233,78.695-78.695v-28.678c0-22.367-18.132-40.498-40.498-40.498h-76.393
						C136.959,107.256,118.827,125.388,118.827,147.754z"/>
				</g>
				<g>
					<path style="fill:#FD7DA0;" d="M235.719,107.256h-76.393c-22.367,0-40.498,18.132-40.498,40.498v28.678
						c0,3.137,0.204,6.225,0.561,9.266c3.193-19.178,19.853-33.801,39.937-33.801h76.393c20.084,0,36.744,14.623,39.937,33.801
						c0.357-3.041,0.561-6.129,0.561-9.266v-28.678C276.217,125.388,258.085,107.256,235.719,107.256z"/>
				</g>
			</g>
			<g>
				<path style="fill:#FFFFFF;" d="M102.005,410.713L102.005,410.713c-12.15,0-22-9.85-22-22v0c0-12.15,9.85-22,22-22h0
					c12.15,0,22,9.85,22,22v0C124.005,400.864,114.155,410.713,102.005,410.713z"/>
			</g>
		</g>
		<g>
			<g>
				<g>
					<path style="fill:#D46B5C;" d="M487.676,500v-15.415c0-35.105-22.149-66.389-55.26-78.052l0,0h-58.92l0,0
						c-33.111,11.663-55.26,42.947-55.26,78.052V500H487.676z"/>
				</g>
				<g>
					<path style="fill:#B55348;" d="M432.416,406.533L432.416,406.533l-58.92,0v0c-16.933,5.964-30.988,17.068-40.691,31.183
						c9.22,12.027,23.735,19.923,40.35,19.923h59.603c16.615,0,31.13-7.896,40.35-19.923
						C463.404,423.602,449.349,412.498,432.416,406.533z"/>
				</g>
			</g>
			<g>
				<g>
					<path style="fill:#D46B5C;" d="M429.131,410.713h-52.35c-27.519,0-48.484-24.657-44.06-51.818l8.353-51.279
						C346.017,277.281,372.22,255,402.956,255h0c30.736,0,56.939,22.281,61.881,52.616l8.353,51.279
						C477.615,386.056,456.65,410.713,429.131,410.713z"/>
				</g>
				<g>
					<path style="fill:#B55348;" d="M366.789,279.416c0-4.574,0.289-9.081,0.845-13.504c-13.782,9.408-23.71,24.211-26.56,41.704
						l-8.354,51.279c-4.424,27.161,16.541,51.818,44.06,51.818h52.35c17.58,0,32.471-10.07,39.792-24.42
						C412.088,383.752,366.789,336.877,366.789,279.416z"/>
				</g>
				<g>
					<path style="fill:#D46B5C;" d="M343.824,315.721L343.824,315.721c13.967,0,25.836-10.212,27.919-24.023l2.28-15.118
						c1.713-11.358-7.081-21.579-18.568-21.579h-23.263c-11.486,0-20.281,10.221-18.568,21.579l2.28,15.118
						C317.988,305.508,329.856,315.721,343.824,315.721z"/>
				</g>
				<g>
					<path style="fill:#D46B5C;" d="M462.088,315.721L462.088,315.721c-13.967,0-25.836-10.212-27.919-24.023l-2.28-15.118
						C430.176,265.221,438.97,255,450.457,255h23.263c11.486,0,20.281,10.221,18.568,21.579l-2.28,15.118
						C487.924,305.508,476.056,315.721,462.088,315.721z"/>
				</g>
			</g>
		</g>
		<g>
			<g>
				<path style="fill:#FD7DA0;" d="M402.956,188.354c14.669-9.9,28.609-21.338,41.591-34.32c11.485-11.485,11.485-30.106,0-41.591
					c-11.485-11.485-30.106-11.485-41.591,0c-11.485-11.485-30.106-11.485-41.591,0s-11.485,30.106,0,41.591
					C374.347,167.016,388.287,178.454,402.956,188.354z"/>
			</g>
		</g>
	</g>
	<g>
		<g>
			<path style="fill:#DB4B86;" d="M197.628,208.192c-6.454,0-12.909-2.457-17.822-7.37c-3.905-3.905-3.905-10.237,0-14.143
				c3.905-3.904,10.237-3.904,14.143,0c0.982,0.983,2.29,1.524,3.68,1.524s2.697-0.542,3.68-1.524
				c3.905-3.904,10.237-3.904,14.143,0c3.905,3.905,3.905,10.237,0,14.143C210.537,205.735,204.083,208.192,197.628,208.192z"/>
		</g>
		<g>
			<path style="fill:#27A2CC;" d="M112.005,369.119v-72.577h-20v72.578c-7.121,3.642-12,11.046-12,19.594v0c0,12.15,9.85,22,22,22
				c12.15,0,22-9.85,22-22v0C124.005,380.165,119.126,372.761,112.005,369.119z"/>
			<path style="fill:#052A75;" d="M495.534,255.007C490.061,248.647,482.11,245,473.719,245h-23.263
				c-6.58,0-12.885,2.252-17.941,6.288c-9.27-4.125-19.346-6.288-29.559-6.288c-10.213,0-20.29,2.163-29.561,6.288
				c-5.056-4.036-11.36-6.288-17.94-6.288h-23.264c-8.39,0-16.341,3.647-21.812,10.007c-5.474,6.36-7.895,14.766-6.643,23.063
				l1.535,10.177l-63.008-9.313v-25.947c26.272-15.414,43.953-43.956,43.953-76.555v-20.127
				c17.912-17.08,28.099-40.685,28.099-65.484C314.316,40.743,273.574,0,223.494,0c-22.039,0-42.79,7.976-58.911,21.706
				c-3.054-0.376-6.143-0.576-9.23-0.576c-41.171,0-74.666,33.495-74.666,74.666c0,22.689,10.437,44.109,28.14,58.232v22.405
				c0,32.588,17.669,61.122,43.926,76.539v25.961l-88.422,13.07c-15.79,2.334-30.229,10.274-40.657,22.357
				c-10.429,12.083-16.172,27.528-16.172,43.49V500c0,5.523,4.477,10,10,10h470.175c5.522,0,10-4.477,10-10v-15.415
				c0-29.342-14.013-56.696-36.877-74.002c3.643-2.594,6.999-5.636,9.958-9.116c10.4-12.231,14.885-28.334,12.304-44.18
				l-5.655-34.716c11.756-5.085,20.457-15.912,22.489-29.383l2.28-15.119C503.427,269.773,501.006,261.367,495.534,255.007z
				 M325.539,268.052c0.981-1.14,3.149-3.052,6.653-3.052h23.264c3.504,0,5.672,1.912,6.653,3.052c0.98,1.14,2.549,3.57,2.026,7.035
				l-2.28,15.119c-1.356,8.99-8.939,15.515-18.031,15.515s-16.675-6.525-18.031-15.515l-2.279-15.119
				C322.99,271.622,324.558,269.192,325.539,268.052z M335.154,401.467c2.959,3.481,6.316,6.522,9.959,9.117
				c-22.864,17.305-36.877,44.659-36.877,74.002V490h-98.053l45.285-188.897l57.058,8.434c4.013,5.73,9.535,10.247,15.98,13.034
				l-5.655,34.716C320.27,373.133,324.753,389.236,335.154,401.467z M190.533,328.508c1.94,1.885,4.455,2.827,6.968,2.827
				s5.028-0.942,6.968-2.827l31.106-30.219l-38.074,158.817l-38.074-158.817L190.533,328.508z M100.687,95.795
				c0-27.325,20.151-50.03,46.373-54.038c-2.58,4.018-4.875,8.265-6.827,12.733c-2.211,5.061,0.099,10.956,5.16,13.167
				c5.062,2.212,10.957-0.1,13.167-5.16C169.84,36.682,195.328,20,223.494,20c39.051,0,70.822,31.771,70.822,70.822
				c0,13.851-4.099,27.221-11.561,38.591c-7.357-18.8-25.66-32.157-47.036-32.157h-76.393c-21.347,0-39.63,13.321-47.006,32.082
				C104.88,119.851,100.687,108.075,100.687,95.795z M128.827,176.432v-28.678c0-16.817,13.682-30.499,30.499-30.499h76.393
				c16.817,0,30.499,13.682,30.499,30.499v28.678c0,37.878-30.816,68.695-68.695,68.695
				C159.644,245.127,128.827,214.311,128.827,176.432z M197.522,265.127c8.584,0,16.885-1.23,24.742-3.516v21.726l-24.763,24.056
				l-24.748-24.042v-21.749C180.618,263.894,188.928,265.127,197.522,265.127z M27.501,357.849c0-22.91,17.09-42.712,39.754-46.062
				l72.279-10.684L184.821,490H27.501V357.849z M477.676,484.585V490h-149.44v-5.415c0-27.216,15.372-52.245,39.415-64.643
				c2.993,0.505,6.045,0.77,9.13,0.77h52.351c3.085,0,6.137-0.264,9.129-0.77C462.304,432.341,477.676,457.37,477.676,484.585z
				 M455.521,388.512c-6.593,7.753-16.212,12.201-26.39,12.201h-16.176v-23.159c0.032-0.029,0.068-0.054,0.1-0.084l7.543-6.993
				c0,0,0,0,0,0c4.513-4.183,5.977-10.588,3.729-16.316s-7.676-9.43-13.829-9.43h-15.086c-6.153,0-11.581,3.702-13.828,9.43
				c-2.247,5.729-0.783,12.133,3.729,16.317l7.542,6.992c0.032,0.03,0.067,0.054,0.1,0.084v23.16h-16.175
				c-10.179,0-19.797-4.447-26.391-12.202c-6.593-7.754-9.436-17.962-7.799-28.008l5.709-35.047
				c17.029-1.952,30.713-14.915,33.33-32.268l2.28-15.119c0.479-3.174,0.416-6.363-0.145-9.449c6.089-2.38,12.6-3.621,19.191-3.621
				c6.591,0,13.101,1.242,19.19,3.621c-0.561,3.086-0.624,6.275-0.145,9.448l2.28,15.119c2.617,17.353,16.302,30.316,33.33,32.268
				l5.709,35.047C464.958,370.549,462.114,380.758,455.521,388.512z M482.4,275.087l-2.28,15.118
				c-1.356,8.99-8.94,15.516-18.031,15.516c-9.092,0-16.675-6.525-18.031-15.515l-2.28-15.12c-0.522-3.464,1.045-5.894,2.026-7.034
				c0.98-1.14,3.149-3.053,6.653-3.053h23.263c3.504,0,5.673,1.913,6.654,3.052C481.354,269.192,482.922,271.623,482.4,275.087z"/>
		</g>
	</g>
</g>
<g>
</g>
<g>
</g>
<g>
</g>
<g>
</g>
<g>
</g>
<g>
</g>
<g>
</g>
<g>
</g>
<g>
</g>
<g>
</g>
<g>
</g>
<g>
</g>
<g>
</g>
<g>
</g>
<g>
</g>
</svg>
