<?xml version="1.0" encoding="iso-8859-1"?>
<!-- Generator: Adobe Illustrator 27.5.0, SVG Export Plug-In . SVG Version: 6.00 Build 0)  -->
<svg version="1.1" id="Layer_1" xmlns="http://www.w3.org/2000/svg" xmlns:xlink="http://www.w3.org/1999/xlink" x="0px" y="0px"
	 viewBox="0 0 512.001 512.001" style="enable-background:new 0 0 512.001 512.001;" xml:space="preserve">
<g>
	<g>
		<path style="fill:#D2DCFD;" d="M382.863,259.693c-35.73-0.584-217.996-0.584-253.727,0
			c-65.14,1.064-118.214,54.271-119.125,119.413C9.066,446.815,63.669,502,131.162,502c34.923,0,66.388-14.781,88.5-38.421h72.677
			C314.45,487.22,345.915,502,380.838,502c67.492,0,122.096-55.185,121.15-122.894C501.078,313.964,448.003,260.757,382.863,259.693
			z"/>
		<path style="fill:#93B2F4;" d="M195.069,328.274c0-23.927,3.357-47.067,9.595-68.994c-39.979,0.053-61.905,0.191-75.527,0.413
			c-65.14,1.064-118.214,54.271-119.125,119.413C9.066,446.815,63.669,502,131.162,502c34.923,0,66.388-14.781,88.5-38.421h14.829
			C209.537,424.501,195.069,378.079,195.069,328.274z"/>
		<polygon style="fill:#6864F7;" points="177.237,397.698 160.376,380.838 177.237,363.978 145.997,332.739 129.137,349.599 
			112.277,332.739 81.037,363.978 97.897,380.838 81.037,397.698 112.277,428.938 129.137,412.078 145.997,428.938 		"/>
		<circle style="fill:#FD6050;" cx="414.103" cy="349.599" r="22.09"/>
		<circle style="fill:#67CCD1;" cx="351.624" cy="412.078" r="22.09"/>
		<polygon style="fill:#6864F7;" points="328.294,259.263 278.09,330.634 233.91,330.634 183.706,259.263 		"/>
	</g>
	<g>
		<path style="fill:#052A75;" d="M184.307,390.628l-9.789-9.789l9.789-9.789c3.905-3.905,3.905-10.237,0-14.142l-31.24-31.24
			c-3.905-3.905-10.237-3.905-14.142,0l-9.789,9.789l-9.789-9.789c-3.905-3.905-10.237-3.905-14.142,0l-31.239,31.239
			c-3.905,3.905-3.905,10.237,0,14.142l9.789,9.789l-9.789,9.789c-3.905,3.905-3.905,10.237,0,14.142l31.24,31.24
			c3.905,3.905,10.237,3.905,14.142,0l9.789-9.789l9.789,9.789c3.905,3.905,10.237,3.905,14.142,0l31.239-31.239
			C188.213,400.864,188.213,394.533,184.307,390.628z M145.997,414.796l-9.789-9.789c-3.905-3.905-10.237-3.905-14.142,0
			l-9.789,9.789l-17.098-17.098l9.789-9.789c3.905-3.905,3.905-10.237,0-14.142l-9.789-9.789l17.097-17.097l9.789,9.789
			c3.905,3.905,10.237,3.905,14.142,0l9.789-9.789l17.098,17.098l-9.789,9.789c-3.905,3.905-3.905,10.237,0,14.142l9.789,9.789
			L145.997,414.796z"/>
		<path style="fill:#052A75;" d="M414.103,317.509c-8.571,0-16.63,3.338-22.69,9.398c0,0,0.001,0,0,0
			c-6.061,6.061-9.399,14.12-9.399,22.69c0,8.572,3.339,16.63,9.399,22.691c6.061,6.061,14.119,9.399,22.69,9.399
			c8.572,0,16.631-3.338,22.691-9.398c6.061-6.061,9.398-14.12,9.398-22.691c0-8.571-3.338-16.63-9.398-22.69
			C430.733,320.847,422.675,317.509,414.103,317.509z M422.651,358.148c-2.283,2.283-5.319,3.541-8.549,3.541
			c-3.229,0-6.265-1.257-8.548-3.541c-2.284-2.283-3.542-5.319-3.542-8.549c0-3.229,1.258-6.265,3.542-8.548v0
			c2.283-2.283,5.319-3.541,8.548-3.541c3.229,0,6.266,1.257,8.549,3.541c2.284,2.283,3.541,5.319,3.541,8.548
			C426.192,352.828,424.936,355.864,422.651,358.148z"/>
		<path style="fill:#052A75;" d="M351.624,379.988c-8.572,0-16.631,3.338-22.691,9.399c-6.061,6.061-9.398,14.12-9.398,22.691
			s3.338,16.63,9.398,22.691s14.119,9.399,22.691,9.399c8.571,0,16.63-3.338,22.69-9.398c6.061-6.062,9.399-14.12,9.399-22.691
			s-3.339-16.63-9.399-22.69C368.254,383.326,360.195,379.988,351.624,379.988z M360.172,420.627
			c-2.283,2.283-5.319,3.541-8.548,3.541c-3.229,0-6.266-1.257-8.549-3.541c-2.284-2.283-3.541-5.319-3.541-8.549
			c0-3.229,1.257-6.265,3.541-8.548v0c2.283-2.284,5.319-3.541,8.549-3.541c3.229,0,6.265,1.257,8.548,3.542
			c2.284,2.283,3.542,5.319,3.542,8.548C363.714,415.307,362.456,418.344,360.172,420.627z"/>
		<path style="fill:#052A75;" d="M511.987,378.966c-0.477-34.12-14.112-66.316-38.396-90.659
			c-24.284-24.343-56.447-38.056-90.565-38.613c-16.72-0.273-65.882-0.418-117.026-0.435v-22.766
			c0-11.371,9.251-20.622,20.622-20.622h3.827c22.399,0,40.622-18.223,40.622-40.622c0-10.851-4.226-21.052-11.897-28.725
			c-7.673-7.672-17.874-11.898-28.725-11.897l-68.898,0.001c-5.508,0-10.687-2.145-14.583-6.04c-3.895-3.895-6.04-9.074-6.04-14.582
			c0-11.371,9.251-20.622,20.623-20.622h3.827c22.399,0,40.622-18.223,40.622-40.622V10c0-5.523-4.478-10-10-10
			c-5.523,0-10,4.477-10,10v32.762c0,11.371-9.251,20.622-20.622,20.622h-3.827c-22.399,0-40.623,18.223-40.623,40.622
			c0,10.851,4.226,21.052,11.898,28.725s17.874,11.898,28.725,11.897l68.898-0.001c5.509,0,10.688,2.145,14.582,6.04
			s6.04,9.074,6.04,14.583c0,11.371-9.251,20.622-20.622,20.622h-3.827c-22.399,0-40.622,18.223-40.622,40.622v22.766
			c-51.144,0.017-100.307,0.162-117.027,0.435c-34.118,0.558-66.281,14.271-90.564,38.614C14.126,312.65,0.49,344.846,0.013,378.966
			c-0.495,35.403,12.913,68.773,37.753,93.963C62.612,498.125,95.781,512,131.162,512c34.692,0,68.238-13.949,92.736-38.42h64.205
			C312.6,498.051,346.145,512,380.838,512c35.381,0,68.549-13.875,93.395-39.07C499.073,447.74,512.481,414.369,511.987,378.966z
			 M309.005,269.304l-36.108,51.33h-33.795l-36.107-51.33C236.535,269.24,275.465,269.24,309.005,269.304z M459.992,458.887
			C438.935,480.241,410.824,492,380.838,492c-31.099,0-59.934-12.519-81.195-35.251c-1.892-2.021-4.535-3.169-7.304-3.169h-72.677
			c-2.768,0-5.412,1.147-7.303,3.169C191.096,479.481,162.26,492,131.162,492c-29.986,0-58.097-11.76-79.155-33.114
			c-21.052-21.349-32.416-49.632-31.996-79.641c0.404-28.893,11.966-56.172,32.557-76.813
			c20.591-20.641,47.842-32.269,76.732-32.741c8.841-0.145,26.781-0.253,49.286-0.326l47.145,67.022
			c1.873,2.662,4.924,4.247,8.179,4.247h44.18c3.255,0,6.307-1.584,8.179-4.247l47.145-67.022
			c22.505,0.073,40.445,0.181,49.287,0.326c28.89,0.472,56.141,12.1,76.732,32.741c20.591,20.642,32.153,47.921,32.557,76.813
			C492.408,409.254,481.045,437.538,459.992,458.887z"/>
		<path style="fill:#052A75;" d="M226.84,373.771c-5.635,5.385-2.564,15.534,5.12,16.869c7.595,1.718,14.353-6.511,11.179-13.63
			C240.701,370.571,231.563,368.744,226.84,373.771z"/>
		<path style="fill:#052A75;" d="M271.02,373.771c-6.284,6.112-1.688,17.182,7.071,17.069c6.891,0.186,12.074-7.53,9.229-13.83
			C284.878,370.559,275.741,368.741,271.02,373.771z"/>
	</g>
</g>
<g>
</g>
<g>
</g>
<g>
</g>
<g>
</g>
<g>
</g>
<g>
</g>
<g>
</g>
<g>
</g>
<g>
</g>
<g>
</g>
<g>
</g>
<g>
</g>
<g>
</g>
<g>
</g>
<g>
</g>
</svg>
