<?xml version="1.0" encoding="iso-8859-1"?>
<!-- Generator: Adobe Illustrator 26.5.3, SVG Export Plug-In . SVG Version: 6.00 Build 0)  -->
<svg version="1.1" id="Capa_1" xmlns="http://www.w3.org/2000/svg" xmlns:xlink="http://www.w3.org/1999/xlink" x="0px" y="0px"
	 viewBox="0 0 512 512" style="enable-background:new 0 0 512 512;" xml:space="preserve">
<g>
	<g>
		<g>
			<path style="fill:#FFFFFF;" d="M452,402.884H60c-27.614,0-50-22.386-50-50V89.825c0-27.614,22.386-50,50-50h392
				c27.614,0,50,22.386,50,50v263.059C502,380.498,479.614,402.884,452,402.884z"/>
		</g>
		<g>
			<path style="fill:#D2DCFD;" d="M236.666,177.266c0-49.907,14.945-96.775,37.693-137.441H60c-27.614,0-50,22.386-50,50v263.059
				c0,27.614,22.386,50,50,50h285.5C276.988,351.445,236.666,269.534,236.666,177.266z"/>
		</g>
		<g>
			<path style="fill:#67CCD1;" d="M193.075,39.825H60c-27.614,0-50,22.386-50,50v263.059c0,27.614,22.386,50,50,50h133.075V39.825z"
				/>
		</g>
		<g>
			<path style="fill:#D2DCFD;" d="M10,317.23v35.654c0,27.614,22.386,50,50,50h392c27.614,0,50-22.386,50-50V317.23H10z"/>
		</g>
		<g>
			<path style="fill:#93B2F4;" d="M269.808,317.23H10v35.654c0,27.614,22.386,50,50,50h285.5
				C314.813,379.844,288.98,350.691,269.808,317.23z"/>
		</g>
		<g>
			<polygon style="fill:#6864F7;" points="338.937,472.175 173.063,472.175 182.018,402.884 329.981,402.884 			"/>
		</g>
		<g>
			<path style="fill:#6864F7;" d="M447.241,155.491H247.549c-6.568,0-11.892-5.324-11.892-11.892v-41.241
				c0-6.568,5.324-11.892,11.892-11.892h199.692c6.568,0,11.892,5.324,11.892,11.892v41.241
				C459.133,150.167,453.809,155.491,447.241,155.491z"/>
		</g>
	</g>
	<g>
		<g>
			<path style="fill:#FFFFFF;" d="M78.249,144.712c-2.56,0-5.118-0.976-7.071-2.929l-19.733-19.734
				c-3.905-3.905-3.905-10.237,0-14.142l19.733-19.733c3.905-3.905,10.237-3.905,14.143,0c3.905,3.905,3.905,10.237,0,14.143
				l-12.663,12.662l12.663,12.663c3.905,3.905,3.905,10.237,0,14.142C83.367,143.735,80.808,144.712,78.249,144.712z"/>
		</g>
		<g>
			<path style="fill:#FFFFFF;" d="M124.826,144.712c-2.559,0-5.119-0.976-7.071-2.929c-3.905-3.905-3.905-10.237,0-14.143
				l12.663-12.663l-12.663-12.662c-3.905-3.905-3.906-10.237,0-14.142s10.237-3.906,14.142,0l19.734,19.733
				c1.875,1.875,2.929,4.419,2.929,7.071s-1.054,5.196-2.929,7.071l-19.734,19.734C129.945,143.736,127.385,144.712,124.826,144.712
				z"/>
		</g>
		<g>
			<path style="fill:#FFFFFF;" d="M144.56,212.594H58.515c-5.523,0-10-4.477-10-10s4.477-10,10-10h86.045c5.523,0,10,4.477,10,10
				S150.083,212.594,144.56,212.594z"/>
		</g>
		<g>
			<path style="fill:#FFFFFF;" d="M144.56,259.307H58.515c-5.523,0-10-4.477-10-10s4.477-10,10-10h86.045c5.523,0,10,4.477,10,10
				S150.083,259.307,144.56,259.307z"/>
		</g>
		<g>
			<path style="fill:#052A75;" d="M452,29.825H60c-33.084,0-60,26.916-60,60v263.059c0,33.084,26.916,60,60,60h110.643
				l-6.371,49.291h-23.16c-5.523,0-10,4.477-10,10s4.477,10,10,10h31.951h165.874h31.951c5.523,0,10-4.477,10-10s-4.477-10-10-10
				h-23.16l-6.371-49.291H452c33.084,0,60-26.916,60-60V89.825C512,56.741,485.084,29.825,452,29.825z M492,89.825V307.23H203.075
				V49.825H452C474.056,49.825,492,67.769,492,89.825z M60,49.825h123.075V307.23H20V89.825C20,67.769,37.944,49.825,60,49.825z
				 M327.561,462.175H184.438l6.371-49.291H321.19L327.561,462.175z M452,392.884H60c-22.056,0-40-17.944-40-40V327.23h472v25.653
				C492,374.94,474.056,392.884,452,392.884z"/>
			<path style="fill:#052A75;" d="M237.178,211.239h223.476c5.523,0,10-4.477,10-10s-4.477-10-10-10H237.178
				c-5.523,0-10,4.477-10,10S231.655,211.239,237.178,211.239z"/>
			<path style="fill:#052A75;" d="M460.654,237.952H237.178c-5.523,0-10,4.477-10,10s4.477,10,10,10h223.476c5.523,0,10-4.477,10-10
				S466.177,237.952,460.654,237.952z"/>
		</g>
	</g>
</g>
<g>
</g>
<g>
</g>
<g>
</g>
<g>
</g>
<g>
</g>
<g>
</g>
<g>
</g>
<g>
</g>
<g>
</g>
<g>
</g>
<g>
</g>
<g>
</g>
<g>
</g>
<g>
</g>
<g>
</g>
</svg>
