<?xml version="1.0" encoding="iso-8859-1"?>
<!-- Generator: Adobe Illustrator 27.2.0, SVG Export Plug-In . SVG Version: 6.00 Build 0)  -->
<svg version="1.1" id="Capa_1" xmlns="http://www.w3.org/2000/svg" xmlns:xlink="http://www.w3.org/1999/xlink" x="0px" y="0px"
	 viewBox="0 0 510 510" style="enable-background:new 0 0 510 510;" xml:space="preserve">
<g>
	<g>
		<g>
			<g>
				<path style="fill:#FDCB50;" d="M170.679,290.847L170.679,290.847l-89.806,38.061c-22.618,9.524-37.326,31.675-37.326,56.216V500
					h422.905V385.125c0-24.541-14.708-46.693-37.326-56.216l-90.04-37.803h-0.004L170.679,290.847z"/>
			</g>
			<g>
				<rect x="84.212" y="124.876" style="fill:#93B2F4;" width="56.929" height="65.062"/>
			</g>
			<g>
				<polygon style="fill:#93B2F4;" points="371.665,124.876 368.859,189.938 425.788,189.938 425.788,124.876 				"/>
			</g>
			<g>
				<path style="fill:#27A2CC;" d="M255,10c-37.47,0-69.959,23.465-84.051,57.954h168.084C325.844,34.995,292.67,10,255,10z"/>
			</g>
			<g>
				<path style="fill:#FD6050;" d="M362.759,393.257H147.241c-16.844,0-30.498,13.654-30.498,30.498v75.228L393.257,500v-76.245
					C393.257,406.912,379.603,393.257,362.759,393.257z"/>
			</g>
			<g>
				<path style="fill:#D2DCFD;" d="M255,328.195L255,328.195c-62.883,0-113.859-50.976-113.859-113.859V98.444
					c0-16.844,13.654-30.498,30.498-30.498h166.722c16.844,0,30.498,13.654,30.498,30.498v115.892
					C368.859,277.219,317.883,328.195,255,328.195z"/>
			</g>
			<g>
				<path style="fill:#93B2F4;" d="M186.805,162.02c0-37.219,15.915-70.718,41.306-94.074h-56.472
					c-16.844,0-30.498,13.654-30.498,30.498v115.892c0,62.882,50.976,113.859,113.859,113.859h0
					c35.418,0,67.057-16.172,87.94-41.534c-9.115,2.063-18.597,3.158-28.336,3.158C244.023,289.819,186.805,232.601,186.805,162.02z
					"/>
			</g>
			<g>
				<rect x="198.07" y="116.743" style="fill:#67CCD1;" width="113.859" height="81.328"/>
			</g>
		</g>
		<g>
			<path style="fill:#052A75;" d="M198.07,208.071H311.93c5.523,0,10-4.477,10-10v-81.328c0-5.523-4.477-10-10-10H198.07
				c-5.523,0-10,4.477-10,10v81.328C188.07,203.594,192.547,208.071,198.07,208.071z M208.07,126.743h93.859v61.328H208.07V126.743z
				"/>
			<path style="fill:#052A75;" d="M432.998,319.688l-77.782-32.656c14.861-20.431,23.643-45.555,23.643-72.695v-14.398h46.93
				c5.523,0,10-4.477,10-10v-65.062c0-5.523-4.477-10-10-10h-46.93V98.444c0-19.766-14.237-36.258-32.992-39.789
				C329.219,23.34,293.445,0,255,0c-38.793,0-73.831,22.834-90.852,58.652c-18.763,3.525-33.007,20.021-33.007,39.792v16.431h-46.93
				c-5.523,0-10,4.477-10,10v65.062c0,5.523,4.477,10,10,10h46.93v14.398c0,27.036,8.713,52.071,23.471,72.459l-77.619,32.897
				c-26.392,11.112-43.445,36.796-43.445,65.432V500c0,5.523,4.477,10,10,10h422.904c5.523,0,10-4.477,10-10V385.125
				C476.452,356.488,459.399,330.804,432.998,319.688z M383.257,490H126.743v-66.245c0-11.302,9.195-20.498,20.498-20.498h215.519
				c11.303,0,20.498,9.195,20.498,20.498V490z M350.726,383.257H159.274v-76.715l9.04-3.831
				c22.357,21.934,52.967,35.484,86.686,35.484c33.6,0,64.113-13.455,86.449-35.252l9.277,3.895V383.257z M415.789,134.875v45.062
				h-36.93v-45.062H415.789z M255,20c26.791,0,52.801,15.048,67.628,37.946H187.329C202.238,34.496,227.464,20,255,20z
				 M94.211,179.938v-45.062h36.93v45.062H94.211z M151.141,98.444c0-11.303,9.195-20.498,20.498-20.498h166.722
				c11.303,0,20.498,9.195,20.498,20.498v115.892c0,57.268-46.591,103.859-103.859,103.859s-103.859-46.591-103.859-103.859V98.444z
				 M53.548,385.125c0-20.569,12.249-39.018,31.228-47.009l54.498-23.097v69.03c-18.528,3.712-32.531,20.103-32.531,39.707V490
				H53.548V385.125z M456.452,490h-53.195v-66.245c0-19.604-14.003-35.995-32.531-39.707v-68.814l54.52,22.89
				c18.957,7.982,31.206,26.43,31.206,47V490z"/>
		</g>
	</g>
</g>
<g>
</g>
<g>
</g>
<g>
</g>
<g>
</g>
<g>
</g>
<g>
</g>
<g>
</g>
<g>
</g>
<g>
</g>
<g>
</g>
<g>
</g>
<g>
</g>
<g>
</g>
<g>
</g>
<g>
</g>
</svg>
