<?xml version="1.0" encoding="iso-8859-1"?>
<!-- Generator: Adobe Illustrator 28.0.0, SVG Export Plug-In . SVG Version: 6.00 Build 0)  -->
<svg version="1.1" id="Layer_1" xmlns="http://www.w3.org/2000/svg" xmlns:xlink="http://www.w3.org/1999/xlink" x="0px" y="0px"
	 viewBox="0 0 512 512" style="enable-background:new 0 0 512 512;" xml:space="preserve">
<g>
	<g>
		<g>
			<g>
				<g>
					<g>
						<g>
							<g>
								<path style="fill:#FDCB50;" d="M471.575,492.1H337.499c-16.803,0-30.425-13.622-30.425-30.425v-69.313
									c0-16.803,13.622-30.425,30.425-30.425h134.076c16.803,0,30.425,13.622,30.425,30.425v69.313
									C502,478.478,488.378,492.1,471.575,492.1z"/>
							</g>
						</g>
					</g>
				</g>
				<g>
					<g>
						<g>
							<g>
								<path style="fill:#FD8F01;" d="M369.663,361.938h-32.253c-16.754,0-30.337,13.661-30.337,30.513v69.136
									c0,16.852,13.582,30.513,30.337,30.513h134.253c0.729,0,1.451-0.027,2.167-0.077
									C414.276,479.036,369.663,425.728,369.663,361.938z"/>
							</g>
						</g>
					</g>
				</g>
			</g>
			<g>
				<g>
					<g>
						<g>
							<g>
								<g>
									<path style="fill:#FFFFFF;" d="M307.074,359.449c0-35.163-28.449-63.668-63.544-63.668H85.907
										C43.985,295.781,10,329.833,10,371.837V492.1h297.074V359.449z"/>
								</g>
							</g>
						</g>
					</g>
					<g>
						<g>
							<g>
								<g>
									<path style="fill:#D2DCFD;" d="M119.552,311.769c0-5.379,0.201-10.71,0.596-15.988H85.907
										C43.985,295.781,10,329.833,10,371.837V492.1h211.058C160.242,455.337,119.552,388.333,119.552,311.769z"/>
								</g>
							</g>
						</g>
					</g>
				</g>
				<g>
					<g>
						<g>
							<g>
								<g>
									<rect x="79.696" y="382.947" style="fill:#B1D952;" width="157.682" height="109.153"/>
								</g>
							</g>
						</g>
					</g>
					<g>
						<g>
							<g>
								<g>
									<path style="fill:#91B706;" d="M131.836,382.947h-52.14V492.1h141.362C180.087,467.333,148.25,428.841,131.836,382.947z"/>
								</g>
							</g>
						</g>
					</g>
				</g>
				<g>
					<g>
						<g>
							<g>
								<g>
									<path style="fill:#FDE0BE;" d="M70.377,154.788l-20.201,5.227v26.982c0,60.079,48.422,108.783,108.153,108.783h0.416
										c59.731,0,108.153-48.704,108.153-108.783v-26.951l-20.796-5.371C188.664,138.217,127.793,138.256,70.377,154.788z"/>
								</g>
							</g>
						</g>
					</g>
				</g>
				<g>
					<g>
						<g>
							<g>
								<path style="fill:#B1D952;" d="M158.745,19.9h-0.416c-59.731,0-108.153,48.704-108.153,108.783v31.333l20.201-5.227
									c57.417-16.532,118.288-16.571,175.725-0.112l20.796,5.371v-31.364C266.899,68.604,218.477,19.9,158.745,19.9z"/>
							</g>
						</g>
					</g>
				</g>
			</g>
		</g>
		<g>
			<g>
				<g>
					<g>
						<path style="fill:#F7B073;" d="M92.621,149.242c-7.462,1.578-14.882,3.426-22.245,5.546l-20.201,5.228v26.982
							c0,60.079,48.422,108.783,108.153,108.783h0.417c29.129,0,55.569-11.583,75.014-30.419
							C167.648,256.754,113.29,210.735,92.621,149.242z"/>
					</g>
				</g>
			</g>
		</g>
	</g>
	<g>
		<path style="fill:#052A75;" d="M471.575,351.938H337.499c-7.456,0-14.447,2.03-20.45,5.565
			c-1.034-39.725-33.616-71.721-73.519-71.721h-19.235c31.695-21.326,52.603-57.646,52.603-98.783v-58.315
			C276.898,63.186,223.896,9.9,158.745,9.9h-0.416c-65.15,0-118.153,53.285-118.153,118.782v58.315
			c0,41.137,20.909,77.457,52.603,98.783h-6.872C38.538,285.781,0,324.386,0,371.837V492.1c0,5.522,4.478,10,10,10h297.074
			c4.116,0,7.652-2.488,9.185-6.042c6.176,3.829,13.454,6.042,21.24,6.042h134.076c22.29,0,40.425-18.135,40.425-40.425v-69.312
			C512,370.072,493.865,351.938,471.575,351.938z M89.696,392.947h137.682V482.1H89.696V392.947z M60.176,128.683
			c0-54.469,44.031-98.782,98.153-98.782h0.416c54.122,0,98.153,44.313,98.153,98.782v18.453l-8.169-2.109
			c-59.217-16.942-121.795-16.903-180.988,0.114l-7.565,1.958V128.683z M60.176,186.998v-19.241l12.706-3.288
			c0.088-0.022,0.175-0.046,0.262-0.071c55.664-16.026,114.521-16.064,170.204-0.108c0.085,0.024,0.169,0.047,0.254,0.069
			l13.297,3.434v19.205c0,54.47-44.031,98.783-98.153,98.783h-0.416C104.207,285.781,60.176,241.468,60.176,186.998z
			 M227.378,305.781v67.166H89.696v-67.166H227.378z M20,371.837c0-30.819,21.167-56.776,49.696-64.034V482.1H20V371.837z
			 M297.074,482.1h-49.696V305.918c27.736,1.983,49.696,25.235,49.696,53.531V482.1z M492,461.675
			c0,11.263-9.162,20.425-20.425,20.425H337.499c-11.263,0-20.425-9.162-20.425-20.425v-69.312c0-11.263,9.162-20.425,20.425-20.425
			h134.076c11.263,0,20.425,9.162,20.425,20.425V461.675z"/>
		<g>
			<g>
				<g>
					<g>
						<path style="fill:#FD6050;" d="M108.181,110.669c-4.344,0-8.343-2.853-9.604-7.236c-1.528-5.307,1.535-10.848,6.843-12.376
							c31.757-9.145,74.444-9.169,106.225-0.062c5.309,1.521,8.38,7.059,6.858,12.368s-7.058,8.381-12.368,6.858
							c-28.031-8.033-67.172-8.011-95.182,0.055C110.028,110.542,109.097,110.669,108.181,110.669z"/>
					</g>
				</g>
			</g>
		</g>
		<g>
			<g>
				<g>
					<g>
						<path style="fill:#FD6050;" d="M177.981,447.523h-38.889c-5.522,0-10-4.478-10-10s4.478-10,10-10h38.889
							c5.522,0,10,4.478,10,10S183.504,447.523,177.981,447.523z"/>
					</g>
				</g>
			</g>
		</g>
		<g>
			<g>
				<g>
					<g>
						<g>
							<path style="fill:#FD6050;" d="M422.27,417.55c-4.134,0-7.883-2.619-9.35-6.473c-1.493-3.922-0.277-8.543,2.962-11.216
								c3.096-2.556,7.558-3.011,11.1-1.122c3.792,2.021,5.887,6.385,5.118,10.609C431.245,414.044,427.044,417.55,422.27,417.55z"
								/>
						</g>
					</g>
				</g>
			</g>
			<g>
				<g>
					<g>
						<g>
							<path style="fill:#FD6050;" d="M447.42,447.529c-4.234,0-8.102-2.789-9.46-6.793c-1.284-3.785-0.146-8.094,2.866-10.732
								c3.276-2.869,8.174-3.259,11.871-0.97c3.458,2.141,5.279,6.288,4.553,10.283C456.398,444.003,452.189,447.529,447.42,447.529
								z"/>
						</g>
					</g>
				</g>
			</g>
		</g>
	</g>
</g>
<g>
</g>
<g>
</g>
<g>
</g>
<g>
</g>
<g>
</g>
<g>
</g>
<g>
</g>
<g>
</g>
<g>
</g>
<g>
</g>
<g>
</g>
<g>
</g>
<g>
</g>
<g>
</g>
<g>
</g>
</svg>
